<svg xmlns="http://www.w3.org/2000/svg" width="21.532" height="28.157" viewBox="0 0 21.532 28.157">
  <defs>
    <style>
      .cls-1 {
        fill: #ffffff;
        fill-rule: evenodd;
      }
    </style>
  </defs>
  <path id="ADD_CV" class="cls-1" d="M768.415,647.376l-8.944-8.944a3.475,3.475,0,0,0-1.822-.663h-5.962a4.1,4.1,0,0,0-4.141,4.141v19.876a4.1,4.1,0,0,0,4.141,4.14h13.25a4.1,4.1,0,0,0,4.14-4.14V649.2A2.49,2.49,0,0,0,768.415,647.376Zm-9.275-6.957,7.287,7.288h-4.8a2.547,2.547,0,0,1-2.484-2.484v-4.8Zm5.8,23.851h-13.25a2.548,2.548,0,0,1-2.485-2.484V641.91a2.547,2.547,0,0,1,2.485-2.484h5.8v5.8a4.1,4.1,0,0,0,4.14,4.14h5.8v12.423A2.547,2.547,0,0,1,764.937,664.27Zm-3.313-9.606H759.14v-2.485a0.828,0.828,0,0,0-1.656,0v2.485H755a0.828,0.828,0,0,0,0,1.656h2.485V658.8a0.828,0.828,0,1,0,1.656,0V656.32h2.484A0.828,0.828,0,1,0,761.624,654.664Z" transform="translate(-747.531 -637.781)"/>
</svg>
