<svg xmlns="http://www.w3.org/2000/svg" width="30" height="35" viewBox="0 0 30 35">
  <defs>
    <style>
      .cls-1 {
        fill: #d9dddf;
        fill-rule: evenodd;
      }
    </style>
  </defs>
  <path id="BALOONS-1" class="cls-1" d="M1384.81,695.882a5.936,5.936,0,0,1,1.1.488,0.541,0.541,0,0,0,.28.076,0.578,0.578,0,0,0,.49-0.28,0.57,0.57,0,0,0-.21-0.77,6.652,6.652,0,0,0-1.31-.585,0.565,0.565,0,0,0-.71.359A0.576,0.576,0,0,0,1384.81,695.882Zm3.82,6.033a11.192,11.192,0,0,1-.29,2.553,0.577,0.577,0,0,0,.43.675,0.544,0.544,0,0,0,.12.013,0.555,0.555,0,0,0,.55-0.44,12.23,12.23,0,0,0,.32-2.8,7.93,7.93,0,0,0-1.43-4.873,0.563,0.563,0,1,0-.9.676A6.842,6.842,0,0,1,1388.63,701.915Zm-8.14,8.605a9.722,9.722,0,0,1-3.35-4.9,0.564,0.564,0,0,0-.71-0.358,0.558,0.558,0,0,0-.36.711,10.643,10.643,0,0,0,3.79,5.479,0.524,0.524,0,0,0,.31.1,0.571,0.571,0,0,0,.47-0.246A0.558,0.558,0,0,0,1380.49,710.52Zm19.69-9.31a9.6,9.6,0,0,0-6.77-2.591,11.108,11.108,0,0,0-1.65.122,9.138,9.138,0,0,0-2.4-4.144,10.153,10.153,0,0,0-13.55,0,9.916,9.916,0,0,0-2.81,7.318,15.549,15.549,0,0,0,2.74,8.713,9.345,9.345,0,0,0,5.28,3.958,1.767,1.767,0,0,0-.2.827v1.2a0.562,0.562,0,0,0,.56.563h0.61a3.544,3.544,0,0,1-.24.841,5.077,5.077,0,0,0,0,3.6,3.793,3.793,0,0,1,0,2.811,4.654,4.654,0,0,0-.33,1.8,0.561,0.561,0,0,0,.56.564,0.57,0.57,0,0,0,.57-0.564,3.436,3.436,0,0,1,.26-1.4,4.94,4.94,0,0,0,0-3.6,3.926,3.926,0,0,1,0-2.81,4.659,4.659,0,0,0,.31-1.237h0.67a0.562,0.562,0,0,0,.56-0.563v-1.2a1.774,1.774,0,0,0-.21-0.827,6.9,6.9,0,0,0,.85-0.263c1.48,3.642,4.05,6.176,6.86,6.871a1.791,1.791,0,0,0-.21.832v1.2a0.563,0.563,0,0,0,.57.563h0.6a3.137,3.137,0,0,1-.23.842,4.426,4.426,0,0,0-.34,1.8,0.57,0.57,0,0,0,.57.563,0.561,0.561,0,0,0,.56-0.563,3.252,3.252,0,0,1,.27-1.4,4.649,4.649,0,0,0,.31-1.237h0.66a0.561,0.561,0,0,0,.56-0.563v-1.2a1.764,1.764,0,0,0-.2-0.827,9.347,9.347,0,0,0,5.28-3.959,15.543,15.543,0,0,0,2.74-8.712A9.916,9.916,0,0,0,1400.18,701.21Zm-16.96,14.2v0.639h-1.28v-0.639a0.642,0.642,0,0,1,.64-0.639A0.636,0.636,0,0,1,1383.22,715.413Zm10.83,6.613v0.639h-1.28v-0.639A0.64,0.64,0,0,1,1394.05,722.026Zm5.11-18.371a0.565,0.565,0,0,0-.79-0.113,0.558,0.558,0,0,0-.11.788,6.844,6.844,0,0,1,1.2,4.2,11.791,11.791,0,0,1-.29,2.554,0.562,0.562,0,0,0,.43.675,0.612,0.612,0,0,0,.12.013,0.564,0.564,0,0,0,.55-0.44,12.821,12.821,0,0,0,.32-2.8A7.927,7.927,0,0,0,1399.16,703.655Zm-1.86-1.647a7.216,7.216,0,0,0-1.31-.584,0.563,0.563,0,1,0-.35,1.07,5.566,5.566,0,0,1,1.09.489,0.577,0.577,0,0,0,.29.076,0.549,0.549,0,0,0,.48-0.281A0.558,0.558,0,0,0,1397.3,702.008Z" transform="translate(-1373 -692)"/>
</svg>
