<svg xmlns="http://www.w3.org/2000/svg" width="33" height="33" viewBox="0 0 33 33">
  <defs>
    <style>
      .cls-1 {
        fill: #d9dddf;
        fill-rule: evenodd;
      }
    </style>
  </defs>
  <path id="CALENDAR" class="cls-1" d="M1095.99,710.06a0.542,0.542,0,0,1-.54.548h-2.05a0.544,0.544,0,0,1-.55-0.548v-2.054a0.543,0.543,0,0,1,.55-0.547h2.05a0.541,0.541,0,0,1,.54.547v2.054Zm4.29-2.047a0.551,0.551,0,0,0-.55-0.548h-2.05a0.551,0.551,0,0,0-.55.548v2.054a0.551,0.551,0,0,0,.55.548h2.05a0.551,0.551,0,0,0,.55-0.548v-2.054Zm4.28,0a0.544,0.544,0,0,0-.55-0.548h-2.05a0.542,0.542,0,0,0-.54.548v2.054a0.542,0.542,0,0,0,.54.548h2.05a0.544,0.544,0,0,0,.55-0.548v-2.054Zm-8.57,4.176a0.542,0.542,0,0,0-.54-0.548h-2.05a0.544,0.544,0,0,0-.55.548v2.054a0.543,0.543,0,0,0,.55.547h2.05a0.541,0.541,0,0,0,.54-0.547v-2.054Zm4.29,0a0.551,0.551,0,0,0-.55-0.548h-2.05a0.551,0.551,0,0,0-.55.548v2.054a0.55,0.55,0,0,0,.55.547h2.05a0.55,0.55,0,0,0,.55-0.547v-2.054Zm3.73-.548h-2.05a0.542,0.542,0,0,0-.54.548v2.054a0.541,0.541,0,0,0,.54.547h2.05a0.543,0.543,0,0,0,.55-0.547v-2.054A0.544,0.544,0,0,0,1104.01,711.641Zm-12.85,4.176h-2.05a0.541,0.541,0,0,0-.54.547v2.054a0.541,0.541,0,0,0,.54.548h2.05a0.544,0.544,0,0,0,.55-0.548v-2.054A0.55,0.55,0,0,0,1091.16,715.817Zm0.55-3.628a0.544,0.544,0,0,0-.55-0.548h-2.05a0.542,0.542,0,0,0-.54.548v2.054a0.541,0.541,0,0,0,.54.547h2.05a0.543,0.543,0,0,0,.55-0.547v-2.054Zm8.02,3.628h-2.05a0.55,0.55,0,0,0-.55.547v2.054a0.55,0.55,0,0,0,.55.548h2.05a0.55,0.55,0,0,0,.55-0.548v-2.054A0.55,0.55,0,0,0,1099.73,715.817Zm-4.28,0h-2.05a0.543,0.543,0,0,0-.55.547v2.054a0.544,0.544,0,0,0,.55.548h2.05a0.541,0.541,0,0,0,.54-0.548v-2.054A0.541,0.541,0,0,0,1095.45,715.817Zm12.85-5.2a0.542,0.542,0,0,0,.54-0.548v-2.054a0.542,0.542,0,0,0-.54-0.548h-2.05a0.544,0.544,0,0,0-.55.548v2.054a0.544,0.544,0,0,0,.55.548h2.05Zm-21.08,12.81h15.56a8.505,8.505,0,0,1-.4-2.486h-15.16a0.728,0.728,0,0,1-.73-0.73V705.526h24.4v6.831a8.365,8.365,0,0,1,2.48.386V700.385a3.222,3.222,0,0,0-3.22-3.223h-3.6v-1.987a1.177,1.177,0,0,0-1.17-1.175h-1.83a1.171,1.171,0,0,0-1.17,1.175v1.994H1095v-1.994a1.179,1.179,0,0,0-1.18-1.175h-1.83a1.177,1.177,0,0,0-1.17,1.175v1.994h-3.6a3.222,3.222,0,0,0-3.22,3.222v19.818A3.221,3.221,0,0,0,1087.22,723.425Zm29.78-2.581a6.145,6.145,0,1,1-6.15-6.155A6.151,6.151,0,0,1,1117,720.844Zm-3.04-1.594a0.74,0.74,0,0,0-1.26-.521l-2.68,2.676-1.02-1.027a0.741,0.741,0,0,0-1.05,0,0.727,0.727,0,0,0-.21.52,0.719,0.719,0,0,0,.21.521l1.55,1.547a0.73,0.73,0,0,0,1.04,0l3.2-3.2A0.726,0.726,0,0,0,1113.96,719.25Z" transform="translate(-1084 -694)"/>
</svg>
