<svg xmlns="http://www.w3.org/2000/svg" width="32.031" height="26.219" viewBox="0 0 32.031 26.219">
  <defs>
    <style>
      .cls-1 {
        fill: #d9dddf;
        fill-rule: evenodd;
      }
    </style>
  </defs>
  <path id="CASES" class="cls-1" d="M828.279,698.379h-8.5v-1.064a4,4,0,0,0-4.3-4.27h-2.034a4.029,4.029,0,0,0-4.3,4.3v1.033H800.61a2.013,2.013,0,0,0-2.09,2.134v4.169s9.1,3.312,15.914,3.312c7.444,0,16.045-3.343,16.045-3.343v-4.138A2.055,2.055,0,0,0,828.279,698.379Zm-16.265-1.154c0-2.134,2.5-2.166,2.5-2.166a2.186,2.186,0,0,1,2.465,2.2v1.069h-4.97v-1.1Zm5.13,9.977-5.287,0v-2.039h5.287V707.2Zm13.335,9.621V706.189a42.307,42.307,0,0,1-16.092,3.188,44.1,44.1,0,0,1-15.867-3.289v10.735a2.013,2.013,0,0,0,2.056,2.134h27.736A2,2,0,0,0,830.479,716.823ZM817.144,711.2a1.321,1.321,0,0,1-1.319,1.322h-2.647a1.321,1.321,0,0,1-1.321-1.322v-1.365h5.287V711.2Z" transform="translate(-798.438 -692.781)"/>
</svg>
