<svg xmlns="http://www.w3.org/2000/svg" xmlns:xlink="http://www.w3.org/1999/xlink" width="61" height="76" viewBox="0 0 61 76">
  <defs>
    <style>
      .cls-1 {
        fill: #ffffff;
        fill-rule: evenodd;
      }
    </style>
  </defs>
  <path id="DESIGNER" class="cls-1" d="M925.764,2548h-1.606v-1.58a1.6,1.6,0,0,0-1.605-1.59H880.817a1.6,1.6,0,0,0-1.605,1.59v31.66a7.982,7.982,0,0,0,8.026,7.92h28.894a7.98,7.98,0,0,0,8.026-7.92v-7.91h1.605A11.086,11.086,0,1,0,925.764,2548Zm0,19h-1.606v-15.83h1.606A7.916,7.916,0,1,1,925.764,2567Zm-12.842-25.33h6.42a1.62,1.62,0,0,0,1.442-.89l4.89-9.83c3.233-.46,5.663-3.3,6.157-7.39a11.918,11.918,0,0,0-9.285-13.31,1.631,1.631,0,0,0-1.688.62,1.584,1.584,0,0,0-.029,1.79c1.692,2.55.671,4.06-1.137,6.31a11.584,11.584,0,0,0-1.737,2.59,6.613,6.613,0,0,0-.112,5.22,6.244,6.244,0,0,0,1.3,1.89l-6.344,8.84-0.4.57-0.786,1.09a1.561,1.561,0,0,0-.113,1.64A1.627,1.627,0,0,0,912.922,2541.67Zm7.99-18.88a9.3,9.3,0,0,1,1.3-1.85c1.22-1.52,2.877-3.59,2.694-6.28a8.96,8.96,0,0,1,3.74,8.52c-0.263,2.17-1.435,4.69-3.878,4.69h0l-2.739-.89a3.372,3.372,0,0,1-1.223-1.43A3.486,3.486,0,0,1,920.912,2522.79Zm-42.477.1a1.615,1.615,0,0,0-1.73.05,1.578,1.578,0,0,0-.681,1.57l1.5,8.84,7.776-6.4Zm5.593,18.78h9.666a1.589,1.589,0,0,1,3.175,0h12.842a1.6,1.6,0,0,0,1.605-1.59v-1.58H907.3a1.585,1.585,0,1,1,0-3.17h4.013v-3.16H903.29a1.585,1.585,0,1,1,0-3.17h8.026v-3.17H907.3a1.58,1.58,0,1,1,0-3.16h4.013v-3.17H903.29a1.585,1.585,0,1,1,0-3.17h8.026v-4.75a1.6,1.6,0,0,0-1.605-1.58H896.869a1.6,1.6,0,0,0-1.605,1.58v28.35a1.536,1.536,0,0,0-.459-0.98l-7.117-9.84-8.62,7.08,3.679,4.84A1.6,1.6,0,0,0,884.028,2541.67Z" transform="translate(-876 -2510)"/>
</svg>
