<svg xmlns="http://www.w3.org/2000/svg" xmlns:xlink="http://www.w3.org/1999/xlink" width="49.06" height="38.03" viewBox="0 0 49.06 38.03">
  <defs>
    <style>
      .cls-1 {
        fill-rule: evenodd;
        fill: url(#linear-gradient);
      }
    </style>
    <linearGradient id="linear-gradient" x1="1012.925" y1="3075.03" x2="1050.955" y2="3037" gradientUnits="userSpaceOnUse">
      <stop offset="0" stop-color="#4458a5"/>
      <stop offset="1" stop-color="#6199cc"/>
    </linearGradient>
  </defs>
  <path id="Dice" class="cls-1" d="M1056.29,3053.99l-5.2-14.78a3.314,3.314,0,0,0-3.13-2.21,3.168,3.168,0,0,0-1.09.19l-14.91,5.14a3.3,3.3,0,0,0-1.89,1.68,3.222,3.222,0,0,0-.15,2.51l5.19,14.78a3.333,3.333,0,0,0,3.13,2.21,3.377,3.377,0,0,0,1.09-.19l14.92-5.14A3.3,3.3,0,0,0,1056.29,3053.99Zm-19.37-5.18a1.948,1.948,0,0,1-2.48-1.19,1.919,1.919,0,0,1,1.2-2.46,1.956,1.956,0,0,1,2.48,1.19A1.927,1.927,0,0,1,1036.92,3048.81Zm3.52,10.04a1.956,1.956,0,0,1-2.48-1.19A1.947,1.947,0,1,1,1040.44,3058.85Zm6.6-13.54a1.934,1.934,0,1,1,1.2-2.46A1.919,1.919,0,0,1,1047.04,3045.31Zm3.53,10.04a1.948,1.948,0,0,1-2.48-1.19,1.919,1.919,0,0,1,1.2-2.46,1.952,1.952,0,0,1,2.48,1.19A1.927,1.927,0,0,1,1050.57,3055.35Zm-24.07-2.55h-15.79a3.3,3.3,0,0,0-3.31,3.28v15.66a3.3,3.3,0,0,0,3.31,3.28h15.79a3.3,3.3,0,0,0,3.32-3.28v-15.66A3.3,3.3,0,0,0,1026.5,3052.8Zm-13.25,18.36a1.935,1.935,0,1,1,1.95-1.94A1.944,1.944,0,0,1,1013.25,3071.16Zm0-10.63a1.935,1.935,0,1,1,1.95-1.94A1.944,1.944,0,0,1,1013.25,3060.53Zm5.36,5.63a1.93,1.93,0,1,1,1.95-1.93A1.936,1.936,0,0,1,1018.61,3066.16Zm5.36,5a1.935,1.935,0,1,1,1.95-1.94A1.944,1.944,0,0,1,1023.97,3071.16Zm0-10.63a1.935,1.935,0,1,1,1.95-1.94A1.944,1.944,0,0,1,1023.97,3060.53Z" transform="translate(-1007.41 -3037)"/>
</svg>
