<svg xmlns="http://www.w3.org/2000/svg" xmlns:xlink="http://www.w3.org/1999/xlink" width="61" height="76" viewBox="0 0 61 76">
  <defs>
    <style>
      .cls-1 {
        fill: #ffffff;
        fill-rule: evenodd;
      }
    </style>
  </defs>
  <path id="dotnet" class="cls-1" d="M1176.5,2548.62a1.828,1.828,0,1,0,1.94,1.72A1.825,1.825,0,0,0,1176.5,2548.62Zm-13.62-9.87a3.2,3.2,0,1,0,4.16,1.78A3.2,3.2,0,0,0,1162.88,2538.75Zm2.3,33.69-2.54-2.25,0.1-.63a15.3,15.3,0,0,0,.18-2.35,15.5,15.5,0,0,0-.18-2.35l-0.1-.63,2.54-2.25a1.463,1.463,0,0,0,.29-1.82l-2.7-4.68a1.486,1.486,0,0,0-1.73-.66l-3.23,1.08-0.5-.41a15.1,15.1,0,0,0-4.06-2.35l-0.6-.22-0.68-3.33a1.466,1.466,0,0,0-1.43-1.16h-5.42a1.455,1.455,0,0,0-1.42,1.16l-0.69,3.33-0.59.22a15.077,15.077,0,0,0-4.07,2.36l-0.49.4-3.24-1.08a1.385,1.385,0,0,0-.46-0.07,1.47,1.47,0,0,0-1.26.73l-2.71,4.68a1.465,1.465,0,0,0,.3,1.82l2.54,2.26-0.1.62a14.69,14.69,0,0,0,0,4.71l0.1,0.62-2.54,2.26a1.451,1.451,0,0,0-.3,1.81l2.71,4.69a1.474,1.474,0,0,0,1.27.73,1.375,1.375,0,0,0,.45-0.08l3.24-1.07,0.49,0.4a14.788,14.788,0,0,0,4.07,2.35l0.59,0.23,0.69,3.33a1.466,1.466,0,0,0,1.43,1.16h5.41a1.466,1.466,0,0,0,1.43-1.16l0.69-3.33,0.59-.23a14.788,14.788,0,0,0,4.07-2.35l0.49-.4,3.23,1.07a1.445,1.445,0,0,0,1.73-.65l2.71-4.69A1.467,1.467,0,0,0,1165.18,2572.44Zm-17.35,1.14a6.37,6.37,0,1,1,6.38-6.37A6.38,6.38,0,0,1,1147.83,2573.58Zm29.15-63.58h-33.57a3.5,3.5,0,0,0-3.5,3.49v37.99c0.3-.15.59-0.29,0.89-0.42l0.41-1.98a4.015,4.015,0,0,1,3.93-3.2h5.41a4.015,4.015,0,0,1,3.93,3.2l0.41,1.98a17.551,17.551,0,0,1,3.44,1.98l1.92-.64a4.214,4.214,0,0,1,1.27-.2,4.019,4.019,0,0,1,3.47,2l2.71,4.69a4.039,4.039,0,0,1-.81,5l-1.51,1.34a17.965,17.965,0,0,1,0,3.97l1.51,1.34a4.022,4.022,0,0,1,.81,5l-2.71,4.68a2.9,2.9,0,0,1-.19.29h22.7a3.5,3.5,0,0,0,3.5-3.49v-53.01Zm-8.29,37.24,0.3,1.69a0.6,0.6,0,0,1-.37.66l-2.43.97a0.584,0.584,0,0,1-.72-0.23l-0.95-1.43a7.423,7.423,0,0,1-2.93-.42l-1.31,1.11a0.616,0.616,0,0,1-.76.01l-2.06-1.62a0.6,0.6,0,0,1-.16-0.74l0.77-1.53a6.934,6.934,0,0,1-.7-1.32,7.442,7.442,0,0,1-.4-1.43l-1.62-.58a0.6,0.6,0,0,1-.39-0.65l0.38-2.59a0.587,0.587,0,0,1,.55-0.51l1.72-.1a7.252,7.252,0,0,1,1.83-2.33l-0.3-1.69a0.6,0.6,0,0,1,.36-0.66l2.44-.97a0.6,0.6,0,0,1,.72.23l0.94,1.43a7.4,7.4,0,0,1,2.93.42l1.32-1.11a0.6,0.6,0,0,1,.75-0.01l2.06,1.62a0.593,0.593,0,0,1,.17.74l-0.77,1.53a7.366,7.366,0,0,1,1.1,2.75l1.61,0.58a0.6,0.6,0,0,1,.39.65l-0.37,2.59a0.589,0.589,0,0,1-.56.51l-1.72.11A7.155,7.155,0,0,1,1168.69,2547.24Zm12.86,4.85-0.67,1.34a0.357,0.357,0,0,1-.4.18l-0.95-.26a4.175,4.175,0,0,1-1.41.93l-0.14.97a0.35,0.35,0,0,1-.32.3l-1.5.08a0.328,0.328,0,0,1-.35-0.25l-0.26-.95a4.139,4.139,0,0,1-1.51-.76l-0.92.36a0.343,0.343,0,0,1-.41-0.12l-0.83-1.26a0.336,0.336,0,0,1,.05-0.43l0.69-.69a3.874,3.874,0,0,1-.13-0.84,4.1,4.1,0,0,1,.03-0.86l-0.77-.6a0.354,0.354,0,0,1-.09-0.43l0.67-1.34a0.344,0.344,0,0,1,.4-0.17l0.95,0.25a4.175,4.175,0,0,1,1.41-.93l0.15-.97a0.342,0.342,0,0,1,.32-0.3l1.5-.08a0.343,0.343,0,0,1,.35.25l0.25,0.95a4.139,4.139,0,0,1,1.51.76l0.92-.36a0.335,0.335,0,0,1,.41.13l0.83,1.25a0.347,0.347,0,0,1-.04.43l-0.7.69a4.713,4.713,0,0,1,.14.85,4.8,4.8,0,0,1-.04.85l0.77,0.6A0.341,0.341,0,0,1,1181.55,2552.09Zm-5.88-25.88a1.107,1.107,0,0,1-1.11-1.11v-10.69l11.81,11.8h-10.7Z" transform="translate(-1130 -2510)"/>
</svg>
