<svg xmlns="http://www.w3.org/2000/svg" xmlns:xlink="http://www.w3.org/1999/xlink" width="45.79" height="34.5" viewBox="0 0 45.79 34.5">
  <defs>
    <style>
      .cls-1 {
        fill-rule: evenodd;
        fill: url(#linear-gradient);
      }
    </style>
    <linearGradient id="linear-gradient" x1="1216.235" y1="1559.25" x2="1250.735" y2="1524.75" gradientUnits="userSpaceOnUse">
      <stop offset="0" stop-color="#4458a5"/>
      <stop offset="1" stop-color="#6199cc"/>
    </linearGradient>
  </defs>
  <path id="EDUCATION" class="cls-1" d="M1217.6,1524.74h0a1.653,1.653,0,0,0-1.15.47,1.62,1.62,0,0,0-.48,1.15v24.23a1.628,1.628,0,0,0,1.64,1.61c3.81,0.01,10.2.8,14.61,5.35v-25.36a1.51,1.51,0,0,0-.23-0.82C1228.38,1525.62,1221.43,1524.75,1217.6,1524.74Zm33.4,25.85v-24.23a1.622,1.622,0,0,0-1.62-1.62h-0.01c-3.82.01-10.77,0.88-14.39,6.63a1.594,1.594,0,0,0-.22.82v25.36c4.41-4.55,10.79-5.34,14.6-5.35A1.622,1.622,0,0,0,1251,1550.59Zm3.73-20.26h-1.18v20.26a4.159,4.159,0,0,1-4.18,4.12c-3.23.01-8.56,0.63-12.34,4.16,6.53-1.58,13.41-.55,17.34.33a1.655,1.655,0,0,0,1.39-.31,1.6,1.6,0,0,0,.61-1.26v-25.68A1.63,1.63,0,0,0,1254.73,1530.33Zm-41.3,20.26v-20.26h-1.19a1.637,1.637,0,0,0-1.64,1.62v25.68a1.611,1.611,0,0,0,.62,1.26,1.647,1.647,0,0,0,1.39.31c3.92-.88,10.81-1.91,17.34-0.33-3.78-3.53-9.11-4.15-12.35-4.16A4.151,4.151,0,0,1,1213.43,1550.59Z" transform="translate(-1210.59 -1524.75)"/>
</svg>
