<svg xmlns="http://www.w3.org/2000/svg" xmlns:xlink="http://www.w3.org/1999/xlink" width="51" height="32" viewBox="0 0 51 32">
  <defs>
    <style>
      .cls-1 {
        fill-rule: evenodd;
        fill: url(#linear-gradient);
      }
    </style>
    <linearGradient id="linear-gradient" x1="834.5" y1="1560" x2="866.5" y2="1528" gradientUnits="userSpaceOnUse">
      <stop offset="0" stop-color="#4458a5"/>
      <stop offset="1" stop-color="#6199cc"/>
    </linearGradient>
  </defs>
  <path id="EDUCATION" class="cls-1" d="M836.083,1545.91v7.99s7.664-3.19,14.46-3.19,14.463,3.19,14.463,3.19v-8.11s-7.311-3.87-14.574-3.87S836.083,1545.91,836.083,1545.91Zm37.04-1.91,2.877-1.55-2.877-1.59v-0.76s0.809-4.1-3.792-1.96a0.853,0.853,0,0,0-.411.39L849.941,1528,825,1542.28l9.418,4.28v-1.39s7.9-4.44,16-4.44,16.25,4.31,16.25,4.31v2.43l5.2-2.79v11.31h-1.73v4.02l2.3-1.59,2.553,1.59v-4.02h-1.87V1544h0Zm-1.255-4.59v0.75l-1.516-.84C870.9,1538.95,871.868,1538.45,871.868,1539.41Zm-0.514,4.44a1.22,1.22,0,1,1,1.218-1.22A1.222,1.222,0,0,1,871.354,1543.85Z" transform="translate(-825 -1528)"/>
</svg>
