<svg xmlns="http://www.w3.org/2000/svg" width="48" height="32" viewBox="0 0 48 32">
  <defs>
    <style>
      .cls-1 {
        fill: #d9dddf;
        fill-rule: evenodd;
      }
    </style>
  </defs>
  <path id="EMPLOYERS" class="cls-1" d="M528.306,724.229h0a2.125,2.125,0,0,0-.093-0.4c-0.322-1.241-1.06-3.511-1.4-4.523a2.129,2.129,0,0,0-.169-0.509,4.594,4.594,0,0,0-.949-1.063s-0.2-.111-0.229-0.119c-0.8-.383-3.3-1.386-3.3-1.386h0c-1.245-.544-2.534-1-3.847-1.47h0c-0.237.977-2.466,7.489-2.822,8.4l-0.28-6.052a4.75,4.75,0,0,0,.238-0.459l0.932-1.845a4.641,4.641,0,0,1-5.424.034l0.907,1.8a3.887,3.887,0,0,0,.237.459l-0.279,6.053c-0.356-.9-2.585-7.413-2.822-8.4h0c-1.314.467-2.6,0.935-3.848,1.47h0s-2.491,1-3.3,1.386c-0.026.017-.2,0.1-0.229,0.119a4.575,4.575,0,0,0-.949,1.054,3.762,3.762,0,0,0-.17.51c-0.33,1.012-1.067,3.273-1.4,4.523a2.117,2.117,0,0,0-.093.4h0a2.635,2.635,0,0,0-.026.365,2.409,2.409,0,0,0,2.407,2.414h24.559a2.409,2.409,0,0,0,2.407-2.414A1.469,1.469,0,0,1,528.306,724.229Zm-8.373-20.657c0-.425.085-1.972,0.085-2.321a6.234,6.234,0,0,0-6.22-6.24h-0.272a6.234,6.234,0,0,0-6.22,6.24c0,0.357.085,1.9,0.085,2.321a1.089,1.089,0,0,0-1.39,1.343c0.314,3.545,1.67,2.865,1.7,2.865a9.131,9.131,0,0,0,2.7,4.369,6.133,6.133,0,0,0,3.136,1.5H513.8a6.067,6.067,0,0,0,3.11-1.487,9.169,9.169,0,0,0,2.72-4.387c0.042,0,1.39.689,1.7-2.865A1.094,1.094,0,0,0,519.933,703.572Zm27.017,15.064c-0.017-.2-0.043-0.391-0.068-0.587,0,0-.111-0.629-0.136-0.731a4.2,4.2,0,0,0-1.873-2.558,5.512,5.512,0,0,0-.534-0.315c-0.237-.128-3.881-1.326-3.974-1.36a2.983,2.983,0,0,1,.042.416,3.554,3.554,0,0,1,1.322,4.055,4.512,4.512,0,0,0-2.169-1.445,17.55,17.55,0,0,1-3.771,4.735,17.388,17.388,0,0,1-3.771-4.735,4.511,4.511,0,0,0-2.17,1.445,3.549,3.549,0,0,1,1.322-4.055,2.975,2.975,0,0,1,.043-0.416c-0.094.034-3.738,1.232-3.975,1.36a4.088,4.088,0,0,0-.534.315,5.383,5.383,0,0,0-.966.824c0.22,0.093.407,0.178,0.559,0.246a3.354,3.354,0,0,1,.4.213h0a4.515,4.515,0,0,1,1.161,1.088,4.235,4.235,0,0,1,.61.927,4.3,4.3,0,0,1,.246.722c0.347,1.063.923,2.831,1.271,4.081H544.2a2.781,2.781,0,0,0,2.144-.884,2.577,2.577,0,0,0,.627-1.717c0.008-.111.017-0.6,0.017-0.6S546.95,718.644,546.95,718.636Zm-17.763-11.477a3.49,3.49,0,0,1,.144.893,1.578,1.578,0,0,1-.025.281,11.075,11.075,0,0,1-.729,1.317,6.188,6.188,0,0,0,3.585,1.59c0.381,0.076.771,0.127,1.186,0.179l0.407,0.076-0.653,1.922a5.667,5.667,0,0,0,2.687,4.513h0.017a5.668,5.668,0,0,0,2.686-4.513L537.84,711.5l0.406-.076c0.415-.052.805-0.1,1.187-0.179a6.16,6.16,0,0,0,3.584-1.59,11.077,11.077,0,0,1-.728-1.317,1.58,1.58,0,0,1-.026-0.281,3.173,3.173,0,0,1,.144-0.893c0.085-.3.178-0.6,0.271-0.9a7.8,7.8,0,0,0-6.864-10.974H535.8a7.73,7.73,0,0,0-7.542,7.769,7.925,7.925,0,0,0,.678,3.205C529.009,706.564,529.1,706.862,529.187,707.159Z" transform="translate(-499 -695)"/>
</svg>
