<svg xmlns="http://www.w3.org/2000/svg" xmlns:xlink="http://www.w3.org/1999/xlink" width="37.75" height="37.38" viewBox="0 0 37.75 37.38">
  <defs>
    <style>
      .cls-1 {
        fill-rule: evenodd;
        fill: url(#linear-gradient);
      }
    </style>
    <linearGradient id="linear-gradient" x1="864.091" y1="3075.69" x2="901.471" y2="3038.31" gradientUnits="userSpaceOnUse">
      <stop offset="0" stop-color="#4458a5"/>
      <stop offset="1" stop-color="#6199cc"/>
    </linearGradient>
  </defs>
  <path id="English" class="cls-1" d="M889.45,3061.83l9.652,7.95v-3.38a18.41,18.41,0,0,0,1.927-4.57H889.45Zm-20.524,7.62a0.668,0.668,0,0,1-.116.08,19,19,0,0,0,8.748,5.42v-12.54Zm19.093-30.4v12.15l8.836-6.64A18.977,18.977,0,0,0,888.019,3039.05Zm9.931,6.84-8.361,6.28h11.437A18.636,18.636,0,0,0,897.95,3045.89Zm3.455,7.99H887.153a0.86,0.86,0,0,1-.866-0.86v-14.38a19.834,19.834,0,0,0-3.2-.32,18.98,18.98,0,0,0-3.793.32v14.38a0.86,0.86,0,0,1-.866.86H864.169a18.635,18.635,0,0,0,0,6.24h14.253a0.858,0.858,0,0,1,.866.85v14.38a18.607,18.607,0,0,0,3.6.33,19.945,19.945,0,0,0,3.4-.32v-14.39a0.858,0.858,0,0,1,.866-0.85h14.253A18.544,18.544,0,0,0,901.405,3053.88Zm-36.856,7.95a18.444,18.444,0,0,0,3.172,6.4,1.43,1.43,0,0,1,.1-0.1l7.724-6.3h-11Zm2.863-15.67a18.469,18.469,0,0,0-2.866,6.01h11Zm1.07-1.35,9.077,6.71v-12.47A18.946,18.946,0,0,0,868.482,3044.81Zm19.537,18.07v12.07a20.01,20.01,0,0,0,3.251-1.26h5a2.826,2.826,0,0,0,2.653-1.83Z" transform="translate(-863.906 -3038.31)"/>
</svg>
