<svg xmlns="http://www.w3.org/2000/svg" width="16" height="16" viewBox="0 0 16 16">
  <defs>
    <style>
      .cls-1 {
        fill: #fff;
        fill-rule: evenodd;
      }
    </style>
  </defs>
  <path id="_" data-name="!" class="cls-1" d="M782,4558a8,8,0,1,1,8-8A8,8,0,0,1,782,4558Zm0-14.4a6.4,6.4,0,1,0,6.4,6.4A6.4,6.4,0,0,0,782,4543.6Zm-0.006,10.38a0.92,0.92,0,0,1-.694-0.29,1,1,0,0,1,0-1.41,0.93,0.93,0,0,1,.694-0.3,0.942,0.942,0,0,1,.7.3,1,1,0,0,1,0,1.41A0.933,0.933,0,0,1,781.994,4553.98Zm-0.7-3.01-0.219-5h1.835l-0.218,5h-1.4Z" transform="translate(-774 -4542)"/>
</svg>
