<svg xmlns="http://www.w3.org/2000/svg" xmlns:xlink="http://www.w3.org/1999/xlink" width="41" height="41" viewBox="0 0 41 41">
  <defs>
    <style>
      .cls-1 {
        fill-rule: evenodd;
        fill: url(#linear-gradient);
      }
    </style>
    <linearGradient id="linear-gradient" x1="834" y1="1655" x2="875" y2="1614" gradientUnits="userSpaceOnUse">
      <stop offset="0" stop-color="#4458a5"/>
      <stop offset="1" stop-color="#6199cc"/>
    </linearGradient>
  </defs>
  <path id="GLOBE" class="cls-1" d="M854.5,1614a20.5,20.5,0,1,0,20.5,20.5A20.525,20.525,0,0,0,854.5,1614Zm-15.979,20.5a15.887,15.887,0,0,1,.515-3.95,2.866,2.866,0,0,0,1.629,1.2c0.591,2.07,3.129,3.81,3.129,3.81s-1.8,2.91-1,4.71,3.133,2.2,3.266,3.13a22.544,22.544,0,0,1-.72,4.17A15.956,15.956,0,0,1,838.52,1634.5Zm11.344,15.29c1.447-1.81,3.855-4.21,4.459-6.45,0.76-2.82.266-6.67-1.466-8.67s-5.531-1.13-6.531-1.46a3.469,3.469,0,0,1-1.925-1.61c0.266-.07.537-0.15,0.829-0.25,5.851-1.95,7.512-9.09,7.585-10.32a5.317,5.317,0,0,0-.613-2.33,17.36,17.36,0,0,1,2.3-.18,15.786,15.786,0,0,1,5.473.99l-1.2,1.38a1.315,1.315,0,0,0,.366,2.02,1.95,1.95,0,0,0,1.246.3,22.4,22.4,0,0,0,3.6-1.54,13.778,13.778,0,0,1,1.108.9,13.644,13.644,0,0,0-3.866,1.86,0.811,0.811,0,0,0-.135,1.1c0.308,0.44.61,1.05,0.028,1.21-0.934.27-.267,2.14,1.266,2.27,1.305,0.11,3.962-2.47,6.081-2.25a15.727,15.727,0,0,1,1.705,4.64c-1.838-.66-5.072-1.56-7.253-0.79-3.2,1.13-5.493,3.93-2.866,6.86s4.465,0.8,5,4a39.681,39.681,0,0,1-.515,5.45,15.919,15.919,0,0,1-10.038,3.56A16.121,16.121,0,0,1,849.864,1649.79Z" transform="translate(-834 -1614)"/>
</svg>
