<svg xmlns="http://www.w3.org/2000/svg" xmlns:xlink="http://www.w3.org/1999/xlink" width="31.38" height="55.06" viewBox="0 0 31.38 55.06">
  <defs>
    <style>
      .cls-1 {
        fill-rule: evenodd;
        fill: url(#linear-gradient);
      }
    </style>
    <linearGradient id="linear-gradient" x1="1222.81" y1="1735.19" x2="1254.19" y2="1703.81" gradientUnits="userSpaceOnUse">
      <stop offset="0" stop-color="#4458a5"/>
      <stop offset="1" stop-color="#6199cc"/>
    </linearGradient>
  </defs>
  <path id="GROWTH" class="cls-1" d="M1251.23,1730.65h-23.55a1.293,1.293,0,0,0-.97.43,1.256,1.256,0,0,0-.29,1.02l2.32,13.64a1.535,1.535,0,0,0,1.5,1.3h18.43a1.535,1.535,0,0,0,1.5-1.3l2.32-13.62v-0.02a1.256,1.256,0,0,0-.29-1.02A1.309,1.309,0,0,0,1251.23,1730.65Zm1.58-10.38h-12.93v-6.77c0.02-.02.04-0.03,0.06-0.05a8.89,8.89,0,0,1,3.44-1.59c2.62-.83,5.88-1.87,7.91-5.64a16.281,16.281,0,0,0,1.62-7.8,13.586,13.586,0,0,0-1.12-5.76,1.154,1.154,0,0,0-.97-0.7,0.891,0.891,0,0,0-.72.4c-0.62.81-1.94,1.22-3.46,1.7-2.62.81-5.88,1.82-7.84,5.46a14.937,14.937,0,0,0-1.57,6.16,8.74,8.74,0,0,0-1.98-2.26c-2.69-2.2-6.76-2.98-9.43-2.98-1.7,0-2.69.29-2.95,0.87a0.846,0.846,0,0,0,.18.92,6.133,6.133,0,0,1,.87,3.22c0.26,2.4.59,5.38,3.41,7.69a15.366,15.366,0,0,0,9.21,2.92c0.38,0,.79-0.01,1.19-0.05v4.26H1226.1a1.4,1.4,0,0,0-1.39,1.39v5.41a1.393,1.393,0,0,0,1.39,1.39h26.71a1.393,1.393,0,0,0,1.39-1.39v-5.41A1.4,1.4,0,0,0,1252.81,1720.27Zm-17.07-8.19-0.05-.05-0.01-.01v-0.01l0.01,0.01h-0.01l-0.02-.02c-0.06-.06-0.12-0.11-0.18-0.17-0.13-.1-0.26-0.21-0.4-0.31a13.166,13.166,0,0,0-1.89-1.15c-0.69-.37-1.42-0.72-2.09-1.14a8.4,8.4,0,0,1-.95-0.66,5.046,5.046,0,0,1-.77-0.76,3.35,3.35,0,0,1-.49-0.78,1.336,1.336,0,0,1-.07-0.18c-0.02-.06-0.04-0.12-0.06-0.17-0.03-.12-0.06-0.22-0.08-0.31s-0.02-.19-0.03-0.26a1.074,1.074,0,0,1,0-.18v-0.15a1.263,1.263,0,0,1,.08.13c0.03,0.04.06,0.09,0.1,0.15s0.08,0.12.13,0.19,0.12,0.14.18,0.22c0.08,0.07.14,0.16,0.23,0.24a0.71,0.71,0,0,1,.13.12,1.431,1.431,0,0,1,.15.11c0.04,0.04.1,0.08,0.15,0.12s0.11,0.08.17,0.12a7.182,7.182,0,0,0,.79.44c0.29,0.14.62,0.28,0.95,0.43,0.68,0.28,1.44.59,2.18,0.98a9.494,9.494,0,0,1,1.1.67,6.455,6.455,0,0,1,.98.82,3.552,3.552,0,0,1,.41.46l0.18,0.24,0.03,0.03v0.01c-0.01-.01.01,0.02,0.01,0.01l0.01,0.01v0.01l0.04,0.06c0.02,0.04.05,0.07,0.07,0.11,0.19,0.3.36,0.59,0.51,0.85,0.07,0.14.15,0.27,0.21,0.39s0.13,0.25.19,0.36c0.03,0.08.07,0.15,0.1,0.22v0.62c-0.02-.02-0.04-0.03-0.06-0.05-0.15-.12-0.31-0.26-0.5-0.43s-0.39-.35-0.62-0.56-0.47-.44-0.72-0.69Zm5.94-3.19,0.05-.06,0.01-.02h0.01s-0.01.01-.01,0l0.01-.01,0.02-.02c0.05-.08.11-0.16,0.16-0.24,0.1-.16.21-0.32,0.31-0.5a16.176,16.176,0,0,0,1.03-2.33c0.3-.84.59-1.73,0.94-2.55a9.274,9.274,0,0,1,.59-1.18,5.834,5.834,0,0,1,.71-0.99,4.037,4.037,0,0,1,.79-0.68,1.178,1.178,0,0,1,.19-0.11,1.618,1.618,0,0,1,.18-0.1c0.12-.05.23-0.1,0.33-0.14s0.2-.06.28-0.08,0.15-.03.2-0.04l0.17-.03s-0.05.04-.13,0.11a1.36,1.36,0,0,0-.17.12c-0.05.05-.12,0.11-0.2,0.18-0.06.07-.14,0.15-0.22,0.23-0.04.05-.08,0.09-0.12,0.14a1.576,1.576,0,0,0-.12.15c-0.04.05-.08,0.11-0.13,0.17-0.03.05-.07,0.12-0.11,0.18s-0.08.13-.12,0.19a0.313,0.313,0,0,1-.05.1c-0.02.04-.04,0.07-0.06,0.11a8.118,8.118,0,0,0-.4.97c-0.12.35-.23,0.74-0.35,1.14-0.23.82-.46,1.72-0.79,2.62a11.224,11.224,0,0,1-.57,1.34,9.026,9.026,0,0,1-.76,1.23,5.962,5.962,0,0,1-.45.53c-0.08.09-.16,0.17-0.24,0.25l-0.03.03h-0.01l-0.01.01v0.01l-0.02.01-0.05.05c-0.04.03-.08,0.07-0.12,0.1-0.15.13-.29,0.26-0.44,0.38s-0.29.24-.43,0.35-0.28.22-.41,0.31-0.25.19-.37,0.27c-0.24.16-.45,0.3-0.62,0.42-0.34.22-.56,0.34-0.56,0.34s0.12-.21.35-0.56c0.11-.17.25-0.38,0.42-0.61s0.35-.5.56-0.77,0.43-.58.67-0.9Z" transform="translate(-1222.81 -1691.97)"/>
</svg>
