<svg xmlns="http://www.w3.org/2000/svg" xmlns:xlink="http://www.w3.org/1999/xlink" width="58" height="53" viewBox="0 0 58 53">
  <defs>
    <style>
      .cls-1 {
        fill-rule: evenodd;
        fill: url(#linear-gradient);
      }
    </style>
    <linearGradient id="linear-gradient" x1="810.5" y1="2308" x2="863.5" y2="2255" gradientUnits="userSpaceOnUse">
      <stop offset="0" stop-color="#4458a5"/>
      <stop offset="1" stop-color="#6199cc"/>
    </linearGradient>
  </defs>
  <path id="HEART" class="cls-1" d="M849.026,2255A18.293,18.293,0,0,0,837,2259.61a18.3,18.3,0,0,0-12.025-4.61A16.756,16.756,0,0,0,808,2271.9c0,11.55,8.14,18.66,20.461,29.43q1.59,1.4,3.28,2.88a0.035,0.035,0,0,1,.02.02l3.743,3.21a2.281,2.281,0,0,0,2.994,0l3.743-3.21a0.038,0.038,0,0,1,.02-0.02c7.4-6.52,12.942-11.5,16.944-16.35,4.636-5.62,6.795-10.69,6.795-15.96A16.755,16.755,0,0,0,849.026,2255Zm-0.579,28.78h-7.631v7.6h-7.632v-7.6h-7.631v-7.6h7.631v-7.6h7.632v7.6h7.631v7.6h0Z" transform="translate(-808 -2255)"/>
</svg>
