<svg xmlns="http://www.w3.org/2000/svg" width="87.34" height="47.563" viewBox="0 0 87.34 47.563">
  <defs>
    <style>
      .cls-1 {
        fill: #001b29;
        fill-rule: evenodd;
      }
    </style>
  </defs>
  <path id="_" data-name="∞" class="cls-1" d="M1342.14,721.758a20.77,20.77,0,0,0-11.02,2.94,31.73,31.73,0,0,0-9.24,9.345,28.693,28.693,0,0,0-9.03-8.977,22.528,22.528,0,0,0-12.08-3.308q-7.875,0-13.12,3.255a19.717,19.717,0,0,0-7.72,8.61,29.608,29.608,0,0,0,0,23.678,20.293,20.293,0,0,0,7.56,8.715q5.1,3.308,12.76,3.307a20.573,20.573,0,0,0,10.92-2.94,31.491,31.491,0,0,0,9.14-9.135,30.527,30.527,0,0,0,9.23,8.82,22.583,22.583,0,0,0,11.97,3.255q7.875,0,13.13-3.255a19.706,19.706,0,0,0,7.72-8.61,29.716,29.716,0,0,0,0-23.677,20.3,20.3,0,0,0-7.56-8.715,22.8,22.8,0,0,0-12.66-3.308h0Zm-39.79,34.965a7.4,7.4,0,0,1-6.25-2.992c-1.5-2-2.26-4.742-2.26-8.243s0.77-6.247,2.31-8.242a7.53,7.53,0,0,1,6.3-2.993,10.985,10.985,0,0,1,7.77,3.045,22.383,22.383,0,0,1,5.25,7.77,37,37,0,0,1-6.19,8.82,9.655,9.655,0,0,1-6.93,2.835h0Zm37.48,0.105q-7.98,0-13.23-10.5a42.4,42.4,0,0,1,6.36-9.082,9.5,9.5,0,0,1,6.98-2.888,7.4,7.4,0,0,1,6.25,2.993q2.25,2.992,2.25,8.242t-2.31,8.243a7.53,7.53,0,0,1-6.3,2.992h0Z" transform="translate(-1277.47 -721.75)"/>
</svg>
