<svg xmlns="http://www.w3.org/2000/svg" xmlns:xlink="http://www.w3.org/1999/xlink" width="57.719" height="38.72" viewBox="0 0 57.719 38.72">
  <defs>
    <style>
      .cls-1 {
        fill-rule: evenodd;
        fill: url(#linear-gradient);
      }
    </style>
    <linearGradient id="linear-gradient" x1="715.969" y1="3082" x2="754.688" y2="3043.28" gradientUnits="userSpaceOnUse">
      <stop offset="0" stop-color="#4458a5"/>
      <stop offset="1" stop-color="#6199cc"/>
    </linearGradient>
  </defs>
  <path id="Kicker" class="cls-1" d="M758.109,3056.66h5.032a1.045,1.045,0,1,1,0,2.09h-5.032A1.045,1.045,0,1,1,758.109,3056.66Zm-50.593,0h5.031a1.045,1.045,0,1,1,0,2.09h-5.031A1.045,1.045,0,1,1,707.516,3056.66Zm14.476-13.37a3.825,3.825,0,1,1-3.867,3.82A3.844,3.844,0,0,1,721.992,3043.29Zm-4.315,21.04h0.384v7.59a1.909,1.909,0,0,0,1.917,1.89h4.027a1.908,1.908,0,0,0,1.917-1.89v-0.44a4.808,4.808,0,0,1-.575-2.22v-9.92a4.731,4.731,0,0,1,2.876-4.33v-0.76a1.909,1.909,0,0,0-1.917-1.89h-8.629a1.909,1.909,0,0,0-1.917,1.89v8.19A1.889,1.889,0,0,0,717.677,3064.33Zm31.1-21.04a3.825,3.825,0,1,1-3.867,3.82A3.843,3.843,0,0,1,748.772,3043.29Zm-6.264,10.93v0.76a4.73,4.73,0,0,1,2.877,4.33v9.89a4.375,4.375,0,0,1-.576,2.21v0.44a1.911,1.911,0,0,0,1.918,1.9h4.026a1.911,1.911,0,0,0,1.918-1.9v-7.58h0.383a1.911,1.911,0,0,0,1.918-1.9v-8.15a1.909,1.909,0,0,0-1.918-1.89h-8.628A1.909,1.909,0,0,0,742.508,3054.22Zm-14.253,5.12h0v9.92a1.911,1.911,0,0,0,1.918,1.9h0.735v8.94a1.918,1.918,0,0,0,1.917,1.9h5.145a1.918,1.918,0,0,0,1.918-1.9v-8.97h0.735a1.917,1.917,0,0,0,1.917-1.9v-9.89h0a1.908,1.908,0,0,0-1.917-1.89h-10.45A1.889,1.889,0,0,0,728.255,3059.34Zm7.127-12.26a4.4,4.4,0,1,1-4.442,4.39A4.419,4.419,0,0,1,735.382,3047.08Z" transform="translate(-706.469 -3043.28)"/>
</svg>
