<?xml version="1.0" encoding="utf-8"?>
<!-- Generator: Adobe Illustrator 16.2.0, SVG Export Plug-In . SVG Version: 6.00 Build 0)  -->
<!DOCTYPE svg PUBLIC "-//W3C//DTD SVG 1.1//EN" "http://www.w3.org/Graphics/SVG/1.1/DTD/svg11.dtd">
<svg version="1.1" id="Layer_2" xmlns="http://www.w3.org/2000/svg" xmlns:xlink="http://www.w3.org/1999/xlink" x="0px" y="0px"
	 width="338.44px" height="112.844px" viewBox="0 0 338.44 112.844" enable-background="new 0 0 338.44 112.844"
	 xml:space="preserve">
<g>
	<linearGradient id="SVGID_1_" gradientUnits="userSpaceOnUse" x1="75.6938" y1="109.8643" x2="75.6938" y2="58.0977">
		<stop  offset="0" style="stop-color:#61A6D5"/>
		<stop  offset="0.5357" style="stop-color:#39509E"/>
	</linearGradient>
	<polygon fill="url(#SVGID_1_)" points="102.415,58.098 72.621,109.864 48.973,59.773 	"/>
	<linearGradient id="SVGID_2_" gradientUnits="userSpaceOnUse" x1="23.9282" y1="63.8706" x2="23.9282" y2="0">
		<stop  offset="0.1837" style="stop-color:#61A6D5"/>
		<stop  offset="1" style="stop-color:#39509E"/>
	</linearGradient>
	<polygon fill="url(#SVGID_2_)" points="47.856,0 11.359,63.871 0,29.235 	"/>
	<linearGradient id="SVGID_3_" gradientUnits="userSpaceOnUse" x1="66.6626" y1="69.6426" x2="66.6626" y2="-1.6758">
		<stop  offset="0" style="stop-color:#61A6D5"/>
		<stop  offset="0.7704" style="stop-color:#39509E"/>
	</linearGradient>
	<polygon fill="url(#SVGID_3_)" points="68.711,-1.676 102.415,58.098 30.911,69.643 	"/>
	<linearGradient id="SVGID_4_" gradientUnits="userSpaceOnUse" x1="23.9282" y1="112.8438" x2="23.9282" y2="29.2354">
		<stop  offset="0" style="stop-color:#61A6D5"/>
		<stop  offset="0.648" style="stop-color:#39509E"/>
	</linearGradient>
	<polygon fill="url(#SVGID_4_)" points="0,29.235 0,84.912 47.856,112.844 	"/>
</g>
<g>
	<path fill="#383939" d="M164.726,63.615h8.796v1.588c0,6.428-1.173,10.584-3.52,12.467c-2.345,1.882-7.533,2.825-15.56,2.825
		c-9.112,0-14.716-1.489-16.814-4.466c-2.097-2.976-3.145-10.937-3.145-23.885c0-7.623,1.42-12.634,4.263-15.036
		c2.841-2.402,8.784-3.602,17.828-3.602c6.585,0,10.982,0.986,13.193,2.959c2.21,1.975,3.315,5.892,3.315,11.756l0.034,1.049h-8.796
		v-1.185c0-3.021-0.57-4.955-1.71-5.802c-1.139-0.847-3.737-1.268-7.797-1.268c-5.435,0-8.7,0.666-9.793,1.996
		c-1.094,1.332-1.641,5.278-1.641,11.84c0,8.841,0.492,14.072,1.472,15.697c0.98,1.624,4.155,2.436,9.523,2.436
		c4.353,0,7.178-0.451,8.474-1.354c1.296-0.902,1.945-2.888,1.945-5.955L164.726,63.615z"/>
	<path fill="#383939" d="M197.439,41.761v38.327h-8.762V41.761h-13.329v-7.85h35.892v7.85H197.439z"/>
	<path fill="#383939" d="M215.674,80.088V33.911h22.698c6.45,0,10.966,1.412,13.548,4.23c2.583,2.82,3.875,7.757,3.875,14.816
		c0,11.524-1.038,18.929-3.111,22.209c-2.077,3.281-6.757,4.922-14.041,4.922H215.674z M224.434,72.714h12.484
		c4.194,0,6.906-0.964,8.137-2.892c1.229-1.927,1.843-6.185,1.843-12.771c0-6.812-0.553-11.142-1.657-12.99
		c-1.105-1.849-3.7-2.774-7.782-2.774h-13.024V72.714z"/>
	<path fill="#383939" d="M270.037,41.287v11.909h21.651v6.46h-21.651v13.058h23.039v7.374h-31.8V33.911h31.596v7.376H270.037z"/>
	<path fill="#383939" d="M329.172,33.911h9.269l-14.886,46.177h-13.464l-14.75-46.177h9.102l8.66,26.151
		c0.812,2.504,2.018,6.698,3.619,12.584h0.237l0.881-3.146c1.082-3.924,2.005-7.059,2.771-9.403L329.172,33.911z"/>
</g>
</svg>
