<svg xmlns="http://www.w3.org/2000/svg" xmlns:xlink="http://www.w3.org/1999/xlink" width="65" height="52" viewBox="0 0 65 52">
  <defs>
    <style>
      .cls-1 {
        fill-rule: evenodd;
        fill: url(#linear-gradient);
      }
    </style>
    <linearGradient id="linear-gradient" x1="1037.5" y1="1710" x2="1089.5" y2="1658" gradientUnits="userSpaceOnUse">
      <stop offset="0" stop-color="#4458a5"/>
      <stop offset="1" stop-color="#6199cc"/>
    </linearGradient>
  </defs>
  <path id="OFFICE" class="cls-1" d="M1048.58,1710.01h11.48v-11.62h6.89v11.62h11.48V1658h-29.85v52.01Zm17.02-45.88h6.9v6.83h-6.9v-6.83Zm0,10.97h6.9v6.83h-6.9v-6.83Zm0,10.98h6.9v6.83h-6.9v-6.83Zm-11.09-21.95h6.9v6.83h-6.9v-6.83Zm0,10.97h6.9v6.83h-6.9v-6.83Zm0,10.98h6.9v6.83h-6.9v-6.83Zm26.6-23.42v36.77h4.44v10.58H1096v-47.35h-14.89Zm9.49,31.78h-6.29v-6.22h6.29v6.22Zm0-9.99h-6.29v-6.22h6.29v6.22Zm0-9.99h-6.29v-6.22h6.29v6.22Zm-59.59,35.55h10.45v-10.58h4.44v-36.77h-14.89v47.35Zm5.4-41.77h6.29v6.22h-6.29v-6.22Zm0,9.99h6.29v6.22h-6.29v-6.22Zm0,9.99h6.29v6.22h-6.29v-6.22Z" transform="translate(-1031 -1658)"/>
</svg>
