<svg xmlns="http://www.w3.org/2000/svg" xmlns:xlink="http://www.w3.org/1999/xlink" width="72" height="72" viewBox="0 0 72 72">
  <defs>
    <style>
      .cls-1 {
        fill-rule: evenodd;
        fill: url(#linear-gradient);
      }
    </style>
    <linearGradient id="linear-gradient" x1="1205" y1="2310" x2="1277" y2="2238" gradientUnits="userSpaceOnUse">
      <stop offset="0" stop-color="#4458a5"/>
      <stop offset="1" stop-color="#6199cc"/>
    </linearGradient>
  </defs>
  <path id="OPENDOOR" class="cls-1" d="M1215.3,2310a3.6,3.6,0,0,1-3.51-2.78l-6.7-28.62a3.532,3.532,0,0,1,.45-2.71,3.58,3.58,0,0,1,2.25-1.6l0.42-.1,33.16-27.6-0.89-.81a4.214,4.214,0,1,1,1.42-1.52l1.1,0.98,0.5-.42a1.053,1.053,0,0,1,1.32-.03l20.87,16.13,0.19-.04a3.615,3.615,0,0,1,4.33,2.68l6.7,28.63a3.539,3.539,0,0,1-.45,2.71,3.617,3.617,0,0,1-2.25,1.6l-58.09,13.41A3.814,3.814,0,0,1,1215.3,2310Zm27.64-62-30.21,25.15,50.33-11.62-17.57-13.57a1,1,0,0,1-.27.68,1.055,1.055,0,0,1-1.48.08Zm-4.78-7.92a2.15,2.15,0,1,0,2.17,2.15A2.164,2.164,0,0,0,1238.16,2240.08Zm-15.89,57.82a6.05,6.05,0,0,1-3.19-.91,5.948,5.948,0,0,1-2.68-3.74l-1.05-4.51a5.846,5.846,0,0,1,.76-4.52,5.958,5.958,0,0,1,3.76-2.67,6.041,6.041,0,0,1,7.24,4.49l1.05,4.51a6,6,0,0,1-4.52,7.19A5.886,5.886,0,0,1,1222.27,2297.9Zm-1.04-14.42a3.907,3.907,0,0,0-3.84,4.79l1.05,4.51a3.94,3.94,0,0,0,7.68-1.76l-1.05-4.51A3.94,3.94,0,0,0,1221.23,2283.48Zm11.39,12.14a1.038,1.038,0,0,1-1.02-.8l-1.57-6.7a0.578,0.578,0,0,1-.06-0.17l-1.69-7.27a1.021,1.021,0,0,1,.17-0.84h0v-0.01h0v-0.01h0.01v-0.01h0.01v-0.01h0.01v-0.01h0a0.01,0.01,0,0,1,.01-0.01h0c0-.01,0-0.01.01-0.01h0v-0.01h0.01v-0.01h0.01v-0.01h0.01v-0.01h0.01v-0.01h0.01v-0.01h0.01v-0.01h0.01v-0.01h0.01v-0.01h0.01v-0.01h0.01v-0.01h0.01v-0.01h0.02v-0.01h0.01v-0.01h0.01v-0.01h0.01l0.01-.01h0a0.964,0.964,0,0,1,.37-0.17h0.01l4.62-1.06a4.8,4.8,0,0,1,5.76,3.57h0a4.771,4.771,0,0,1-3.6,5.73l-3.57.82,1.37,5.85a1.042,1.042,0,0,1-.78,1.25A1.641,1.641,0,0,1,1232.62,2295.62Zm-2.06-14.4,1.23,5.24,3.58-.82a2.692,2.692,0,0,0,2.03-3.23h0a2.709,2.709,0,0,0-3.25-2.01Zm14.19,11.6a1.038,1.038,0,0,1-1.02-.8c0-.01,0-0.01-0.01-0.01l-1.6-6.84a0.02,0.02,0,0,1-.01-0.02v-0.02l-1.71-7.25a1.4,1.4,0,0,1-.02-0.35h0v-0.01h0v-0.01h0a1.116,1.116,0,0,1,.31-0.61h0.01v-0.01h0a0.01,0.01,0,0,0,.01-0.01h0a1.021,1.021,0,0,1,.47-0.25h0.01l8.08-1.87a1.042,1.042,0,1,1,.47,2.03l-7.06,1.63,1.23,5.24,4.37-1.01a1.043,1.043,0,1,1,.48,2.03l-4.37,1.01,1.14,4.84,7.06-1.64a1.043,1.043,0,1,1,.48,2.03l-8.08,1.88A1.942,1.942,0,0,1,1244.75,2292.82Zm12.27-2.84a1.038,1.038,0,0,1-1.02-.8l-3.32-14.14a1.024,1.024,0,0,1,.34-1.03h0a1.046,1.046,0,0,1,1.48-.07l10.99,9.88-2.62-11.14a1.047,1.047,0,0,1,2.04-.47l3.33,14.13a1.036,1.036,0,0,1-.35,1.03v0.01a1.054,1.054,0,0,1-1.48.07l-10.99-9.88,2.62,11.14a1.042,1.042,0,0,1-.78,1.25A0.974,0.974,0,0,1,1257.02,2289.98Z" transform="translate(-1205 -2238)"/>
</svg>
