<svg xmlns="http://www.w3.org/2000/svg" xmlns:xlink="http://www.w3.org/1999/xlink" width="41" height="47" viewBox="0 0 41 47">
  <defs>
    <style>
      .cls-1 {
        fill-rule: evenodd;
        fill: url(#linear-gradient);
      }
    </style>
    <linearGradient id="linear-gradient" x1="839" y1="1743" x2="880" y2="1702" gradientUnits="userSpaceOnUse">
      <stop offset="0" stop-color="#4458a5"/>
      <stop offset="1" stop-color="#6199cc"/>
    </linearGradient>
  </defs>
  <path id="BALOONS" class="cls-1" d="M855.143,1704.21a8.823,8.823,0,0,1,1.5.66,0.77,0.77,0,0,0,.386.1,0.758,0.758,0,0,0,.667-0.38,0.745,0.745,0,0,0-.28-1.03,9.555,9.555,0,0,0-1.789-.78,0.763,0.763,0,0,0-.973.48A0.751,0.751,0,0,0,855.143,1704.21Zm5.224,8.1a15.325,15.325,0,0,1-.4,3.43,0.76,0.76,0,0,0,.582.91,1,1,0,0,0,.17.02,0.77,0.77,0,0,0,.751-0.59,16.9,16.9,0,0,0,.435-3.77,10.535,10.535,0,0,0-1.952-6.54,0.785,0.785,0,0,0-1.079-.15,0.748,0.748,0,0,0-.155,1.06A9.085,9.085,0,0,1,860.367,1712.31Zm-11.128,11.56a13.005,13.005,0,0,1-4.58-6.58,0.772,0.772,0,0,0-.974-0.48,0.75,0.75,0,0,0-.49.95,14.357,14.357,0,0,0,5.176,7.36,0.783,0.783,0,0,0,1.071-.2A0.749,0.749,0,0,0,849.239,1723.87Zm26.908-12.5a13.222,13.222,0,0,0-9.255-3.48,15.251,15.251,0,0,0-2.255.16,12.11,12.11,0,0,0-3.285-5.56A13.111,13.111,0,0,0,839,1712.31a20.563,20.563,0,0,0,3.751,11.7,12.754,12.754,0,0,0,7.217,5.32,2.316,2.316,0,0,0-.282,1.11v1.62a0.763,0.763,0,0,0,.77.75h0.828a4.6,4.6,0,0,1-.316,1.13,6.6,6.6,0,0,0,0,4.84,5.089,5.089,0,0,1,0,3.77,5.968,5.968,0,0,0-.46,2.42,0.771,0.771,0,0,0,1.541,0,4.5,4.5,0,0,1,.362-1.89,6.569,6.569,0,0,0,0-4.83,5.115,5.115,0,0,1,0-3.78,5.823,5.823,0,0,0,.423-1.66h0.91a0.763,0.763,0,0,0,.771-0.75v-1.62a2.317,2.317,0,0,0-.283-1.11,9.686,9.686,0,0,0,1.155-.35c2.024,4.89,5.535,8.29,9.379,9.22a2.364,2.364,0,0,0-.285,1.12v1.62a0.763,0.763,0,0,0,.77.75h0.828a4.6,4.6,0,0,1-.316,1.13,5.968,5.968,0,0,0-.46,2.42,0.771,0.771,0,0,0,1.541,0,4.5,4.5,0,0,1,.362-1.89,5.79,5.79,0,0,0,.423-1.66h0.91a0.763,0.763,0,0,0,.771-0.75v-1.62a2.317,2.317,0,0,0-.283-1.11,12.747,12.747,0,0,0,7.217-5.32,20.555,20.555,0,0,0,3.751-11.7A13.17,13.17,0,0,0,876.147,1711.37Zm-23.177,19.07v0.86h-1.747v-0.86A0.874,0.874,0,0,1,852.97,1730.44Zm14.795,8.88v0.86h-1.747v-0.86A0.874,0.874,0,0,1,867.765,1739.32Zm6.987-24.67a0.785,0.785,0,0,0-1.079-.15,0.748,0.748,0,0,0-.155,1.06,9.085,9.085,0,0,1,1.644,5.63,15.325,15.325,0,0,1-.4,3.43,0.76,0.76,0,0,0,.582.91,1,1,0,0,0,.17.02,0.77,0.77,0,0,0,.751-0.59,16.967,16.967,0,0,0,.435-3.77A10.541,10.541,0,0,0,874.752,1714.65Zm-2.543-2.21a8.944,8.944,0,0,0-1.789-.78,0.763,0.763,0,0,0-.973.48,0.75,0.75,0,0,0,.491.95,8.823,8.823,0,0,1,1.5.66,0.77,0.77,0,0,0,.386.1,0.758,0.758,0,0,0,.667-0.38A0.745,0.745,0,0,0,872.209,1712.44Z" transform="translate(-839 -1699)"/>
</svg>
