<svg xmlns="http://www.w3.org/2000/svg" width="9.94" height="13.686" viewBox="0 0 9.94 13.686">
  <defs>
    <style>
      .cls-1 {
        fill: #8dcc24;
        fill-rule: evenodd;
      }
    </style>
  </defs>
  <path id="PHONE" class="cls-1" d="M1374.63,1000.85l-1.31-2.274a0.959,0.959,0,0,0-1.32-.327l-1.14.664c-0.05-.047-0.1-0.1-0.16-0.147a9.449,9.449,0,0,1-1.74-2.157,9.354,9.354,0,0,1-.99-2.6c-0.02-.07-0.03-0.137-0.05-0.2l0.77-.445,0.38-.219a0.973,0.973,0,0,0,.38-1.316l-1.31-2.278a0.962,0.962,0,0,0-1.32-.327l-0.65.375,0.01,0.017a3.323,3.323,0,0,0-.61.625,3.258,3.258,0,0,0-.38.7c-0.77,1.905-.35,3.943,1.42,7.035,2.46,4.271,5.23,4.741,5.35,4.761a3.05,3.05,0,0,0,.8.01,2.673,2.673,0,0,0,.84-0.22l0.01,0.02,0.64-.37A0.975,0.975,0,0,0,1374.63,1000.85Z" transform="translate(-1364.81 -989.094)"/>
</svg>
