<svg xmlns="http://www.w3.org/2000/svg" xmlns:xlink="http://www.w3.org/1999/xlink" width="52.344" height="38.9" viewBox="0 0 52.344 38.9">
  <defs>
    <style>
      .cls-1 {
        fill-rule: evenodd;
        fill: url(#linear-gradient);
      }
    </style>
    <linearGradient id="linear-gradient" x1="572.878" y1="3078.56" x2="611.778" y2="3039.66" gradientUnits="userSpaceOnUse">
      <stop offset="0" stop-color="#4458a5"/>
      <stop offset="1" stop-color="#6199cc"/>
    </linearGradient>
  </defs>
  <path id="Poker" class="cls-1" d="M576.451,3071.43v-27.45a6.249,6.249,0,0,1,.093-0.88l-7.955,2.56a3.488,3.488,0,0,0-2.258,4.4l8.579,26.11a3.54,3.54,0,0,0,3.364,2.41,3.713,3.713,0,0,0,1.084-.17l2.257-.74A6.425,6.425,0,0,1,576.451,3071.43Zm11.347-34.51v0.04h0m-5.574,30.37,8.575-26.1a3.812,3.812,0,0,1,.308-0.76h-8.25a3.587,3.587,0,0,0-3.586,3.51v27.45a3.656,3.656,0,0,0,3.586,3.59h2.817A6.324,6.324,0,0,1,582.226,3067.33Zm33.821-21.67-18.117-5.82a3.4,3.4,0,0,0-1.083-.17,3.538,3.538,0,0,0-3.362,2.41l-8.575,26.11a3.486,3.486,0,0,0,2.265,4.39l18.116,5.83a3.706,3.706,0,0,0,1.083.17,3.538,3.538,0,0,0,3.362-2.41l8.575-26.11A3.491,3.491,0,0,0,616.047,3045.66Zm-16.934,20.41c-8.544-10.26-3.567-15.36-.417-15.35,2.655,0.02,3.735,1.9,4.2,3.84a4.05,4.05,0,0,1,5.672-.67C611.121,3055.71,612.121,3062.73,599.113,3066.07Z" transform="translate(-566.156 -3039.66)"/>
</svg>
