<svg xmlns="http://www.w3.org/2000/svg" width="16" height="17" viewBox="0 0 16 17">
  <defs>
    <style>
      .cls-1 {
        fill: #8dcc24;
        fill-rule: evenodd;
      }
    </style>
  </defs>
  <path id="SKYPE" class="cls-1" d="M1378.54,1032.3a8.7,8.7,0,0,0,.18-1.71,7.823,7.823,0,0,0-7.63-8,7.014,7.014,0,0,0-1.31.12,4.25,4.25,0,0,0-2.35-.71,4.538,4.538,0,0,0-4.43,4.64,4.743,4.743,0,0,0,.61,2.34,8.533,8.533,0,0,0-.16,1.61,7.822,7.822,0,0,0,7.64,7.99,7.119,7.119,0,0,0,1.39-.13,4.288,4.288,0,0,0,2.09.55,4.538,4.538,0,0,0,4.43-4.64A4.859,4.859,0,0,0,1378.54,1032.3Zm-3.54,2.11a3.508,3.508,0,0,1-1.55,1.23,6,6,0,0,1-2.39.44,5.6,5.6,0,0,1-2.73-.6,3.594,3.594,0,0,1-1.25-1.17,2.569,2.569,0,0,1-.49-1.44,1.042,1.042,0,0,1,.31-0.76,1.126,1.126,0,0,1,.8-0.31,0.991,0.991,0,0,1,.67.25,1.682,1.682,0,0,1,.45.68,4.138,4.138,0,0,0,.44.82,1.782,1.782,0,0,0,.64.52,2.655,2.655,0,0,0,1.11.2,2.544,2.544,0,0,0,1.53-.42,1.191,1.191,0,0,0,.57-1,0.987,0.987,0,0,0-.3-0.75,1.849,1.849,0,0,0-.81-0.47,14.052,14.052,0,0,0-1.4-.37,10,10,0,0,1-1.99-.62h-0.01a3.363,3.363,0,0,1-1.31-1.01,2.561,2.561,0,0,1-.49-1.6,2.693,2.693,0,0,1,.51-1.62,3.247,3.247,0,0,1,1.49-1.08,6.274,6.274,0,0,1,2.23-.37,5.9,5.9,0,0,1,1.79.25,3.762,3.762,0,0,1,1.26.66,2.938,2.938,0,0,1,.74.87,2,2,0,0,1,.24.91,1.091,1.091,0,0,1-.32.77,1.019,1.019,0,0,1-.78.35,0.925,0.925,0,0,1-.66-0.22,2.57,2.57,0,0,1-.45-0.63,2.549,2.549,0,0,0-.69-0.89,2.072,2.072,0,0,0-1.27-.31,2.345,2.345,0,0,0-1.32.34,0.928,0.928,0,0,0-.48.77,0.775,0.775,0,0,0,.15.47,1.568,1.568,0,0,0,.46.36,3.92,3.92,0,0,0,.61.25c0.22,0.06.57,0.15,1.06,0.27,0.51,0.11.99,0.24,1.43,0.38,0.09,0.03.17,0.05,0.26,0.08a5.242,5.242,0,0,1,1.3.63,2.529,2.529,0,0,1,.86.95,2.883,2.883,0,0,1,.31,1.41A3.179,3.179,0,0,1,1375,1034.41Z" transform="translate(-1363 -1022)"/>
</svg>
