<svg xmlns="http://www.w3.org/2000/svg" xmlns:xlink="http://www.w3.org/1999/xlink" width="39.19" height="38.75" viewBox="0 0 39.19 38.75">
  <defs>
    <style>
      .cls-1 {
        fill-rule: evenodd;
        fill: url(#linear-gradient);
      }
    </style>
    <linearGradient id="linear-gradient" x1="1310.47" y1="3081.31" x2="1349.22" y2="3042.56" gradientUnits="userSpaceOnUse">
      <stop offset="0" stop-color="#4458a5"/>
      <stop offset="1" stop-color="#6199cc"/>
    </linearGradient>
  </defs>
  <path id="Soccer" class="cls-1" d="M1330.88,3046.73v7.7l6.47,4.64,6.37-3.66v-7.18a19.556,19.556,0,0,0-6.03-4.05Zm-1.03,9.47-6.23,4.47,2.38,7.23h7.7l2.37-7.23Zm5.22,24.4,3.62-5.77-4.69-4.9h-8.31l-4.69,4.9,3.64,5.77A19.641,19.641,0,0,0,1335.07,3080.6Zm-10.01-37.45,4.79,1.79,4.79-1.79A19.739,19.739,0,0,0,1325.06,3043.15Zm19.47,14.14-6.39,3.67-2.53,7.69,4.65,4.86,6.99-2.65c0.24-.44.46-0.9,0.66-1.36a19.237,19.237,0,0,0,1.53-6.44Zm-20.45,11.36-2.53-7.69-6.39-3.67-4.91,5.79a19.2,19.2,0,0,0,1.41,6.1,14.922,14.922,0,0,0,.75,1.62l7.03,2.7Zm21.33,5.08-4.73,1.79-2.47,3.93A19.438,19.438,0,0,0,1345.41,3073.73Zm0.37-23.11v4.98l3.57,4.17a19.47,19.47,0,0,0-1.31-5.09A19.825,19.825,0,0,0,1345.78,3050.62Zm-24.3,28.82-2.46-3.92-4.74-1.79A19.333,19.333,0,0,0,1321.48,3079.44Zm0.87-20.37,6.47-4.64v-7.7l-6.81-2.55a19.427,19.427,0,0,0-6.04,4.05v7.18Zm-12.01.7,3.57-4.17v-4.98a19.619,19.619,0,0,0-2.12,3.74A18.959,18.959,0,0,0,1310.34,3059.77Z" transform="translate(-1310.25 -3042.56)"/>
</svg>
