<svg xmlns="http://www.w3.org/2000/svg" width="61" height="42" viewBox="0 0 61 42">
  <defs>
    <style>
      .cls-1 {
        fill: #fff;
        fill-rule: evenodd;
      }
    </style>
  </defs>
  <path id="SUNSET" class="cls-1" d="M976.261,2181.83l4.474-4.52a1.58,1.58,0,0,0,0-2.26,1.543,1.543,0,0,0-2.237,0l-4.474,4.52a1.579,1.579,0,0,0,0,2.26C974.675,2182.48,975.943,2182.48,976.261,2181.83Zm-34.156,16.46h3.188v-1.62a14.374,14.374,0,1,1,28.747,0v1.62h3.189v-1.62a17.563,17.563,0,1,0-35.124,0A1.5,1.5,0,0,0,942.105,2198.29Zm38.313-1.62a1.525,1.525,0,0,0,1.6,1.62H988.4a1.62,1.62,0,0,0,0-3.24H982.02A1.743,1.743,0,0,0,980.418,2196.67Zm-21.068-20.98a1.523,1.523,0,0,0,1.6-1.62v-6.45a1.6,1.6,0,1,0-3.205,0v6.45A1.712,1.712,0,0,0,959.35,2175.69Zm-16.928,6.14a1.527,1.527,0,0,0,2.237,0,1.58,1.58,0,0,0,0-2.26l-4.474-4.52a1.543,1.543,0,0,0-2.237,0,1.58,1.58,0,0,0,0,2.26Zm45.658,22.93H930.6a1.62,1.62,0,0,0,0,3.24h57.46A1.62,1.62,0,0,0,988.08,2204.76Zm-57.477-6.47h6.377a1.62,1.62,0,0,0,0-3.24H930.6a1.726,1.726,0,0,0-1.6,1.62A1.532,1.532,0,0,0,930.6,2198.29Z" transform="translate(-929 -2166)"/>
</svg>
