<svg xmlns="http://www.w3.org/2000/svg" xmlns:xlink="http://www.w3.org/1999/xlink" width="87" height="42" viewBox="0 0 87 42">
  <defs>
    <style>
      .cls-1 {
        fill-rule: evenodd;
        fill: url(#linear-gradient);
      }
    </style>
    <linearGradient id="linear-gradient" x1="441.5" y1="932" x2="483.5" y2="890" gradientUnits="userSpaceOnUse">
      <stop offset="0" stop-color="#4458a5"/>
      <stop offset="1" stop-color="#6199cc"/>
    </linearGradient>
  </defs>
  <path id="TEAM" class="cls-1" d="M481.6,928.37h0a2.792,2.792,0,0,0-.122-0.524c-0.42-1.626-1.383-4.6-1.825-5.927a2.787,2.787,0,0,0-.221-0.668,6.037,6.037,0,0,0-1.239-1.393s-0.266-.145-0.3-0.156c-1.051-.5-4.3-1.816-4.3-1.816h0c-1.626-.713-3.308-1.315-5.022-1.927h0c-0.31,1.281-3.219,9.815-3.684,11.007l-0.365-7.932a6.219,6.219,0,0,0,.31-0.6l1.217-2.418a6.035,6.035,0,0,1-7.08.045l1.184,2.362a5.089,5.089,0,0,0,.31.6l-0.366,7.932c-0.464-1.181-3.373-9.715-3.683-11.007h0c-1.715.612-3.4,1.225-5.022,1.927h0s-3.252,1.315-4.3,1.816c-0.034.022-.266,0.134-0.3,0.156a5.97,5.97,0,0,0-1.239,1.381,4.91,4.91,0,0,0-.221.669c-0.432,1.325-1.394,4.289-1.825,5.927a2.706,2.706,0,0,0-.122.523h0a3.531,3.531,0,0,0-.033.48,3.151,3.151,0,0,0,3.141,3.164h32.058a3.15,3.15,0,0,0,3.141-3.164A1.98,1.98,0,0,1,481.6,928.37ZM470.669,901.3c0-.557.11-2.585,0.11-3.041a8.154,8.154,0,0,0-8.119-8.178h-0.354a8.154,8.154,0,0,0-8.12,8.178c0,0.467.111,2.484,0.111,3.041a1.423,1.423,0,0,0-1.814,1.76c0.409,4.646,2.179,3.755,2.223,3.755a11.982,11.982,0,0,0,3.529,5.726,7.989,7.989,0,0,0,4.093,1.972h0.332a7.906,7.906,0,0,0,4.06-1.949,12.026,12.026,0,0,0,3.55-5.749c0.056,0,1.815.9,2.224-3.755A1.431,1.431,0,0,0,470.669,901.3ZM443.136,920.3l0.022-.067,0.033-.067a5.7,5.7,0,0,1,1.25-1.66,8.624,8.624,0,0,1,.852-0.747h0c0.022-.011.044-0.033,0.066-0.044a0.057,0.057,0,0,1,.044-0.022h0a5.433,5.433,0,0,1,.575-0.312c0.719-.346,2.268-0.981,3.341-1.426a1.048,1.048,0,0,1-.11-0.056c-0.034-.011-0.067-0.034-0.1-0.045-0.918-.434-3.75-1.582-3.75-1.582h0c-1.416-.612-2.887-1.147-4.38-1.682h0c-0.266,1.125-2.81,8.556-3.208,9.592l-0.321-6.918a4.677,4.677,0,0,0,.265-0.524l1.062-2.105a4.875,4.875,0,0,1-3.108,1.025,4.942,4.942,0,0,1-3.064-.981l1.039,2.061a3.9,3.9,0,0,0,.266.524l-0.321,6.918c-0.4-1.024-2.942-8.467-3.208-9.592h0c-1.493.535-2.964,1.059-4.38,1.682h0s-2.832,1.148-3.75,1.582c-0.034.011-.067,0.034-0.1,0.045-0.077.045-.133,0.067-0.166,0.089h0a2.712,2.712,0,0,0-1.084,1.2h0v0.011a2.108,2.108,0,0,0-.188.58c-0.376,1.158-1.217,3.743-1.582,5.158a3.078,3.078,0,0,0-.11.457h0a2.525,2.525,0,0,0-.034.423,2.741,2.741,0,0,0,2.733,2.752h19.458c0.464-1.649,1.2-3.966,1.67-5.359A4.623,4.623,0,0,1,443.136,920.3ZM428.877,904.6a10.463,10.463,0,0,0,3.075,4.991,6.9,6.9,0,0,0,3.562,1.716H435.8a6.869,6.869,0,0,0,3.54-1.705,10.444,10.444,0,0,0,3.1-5.013c0.044,0,1.581.791,1.947-3.265a1.244,1.244,0,0,0-1.582-1.537c0-.49.1-2.251,0.1-2.652a7.111,7.111,0,0,0-7.079-7.13h-0.31a7.112,7.112,0,0,0-7.08,7.13c0,0.4.1,2.173,0.1,2.652a1.241,1.241,0,0,0-1.582,1.537C427.3,905.386,428.832,904.6,428.877,904.6Zm77.057,16.444c-0.022-.256-0.055-0.512-0.088-0.769,0,0-.144-0.824-0.177-0.958a5.5,5.5,0,0,0-2.445-3.353,7.71,7.71,0,0,0-.7-0.413c-0.31-.167-5.066-1.738-5.188-1.782a3.965,3.965,0,0,1,.055.546,4.666,4.666,0,0,1,1.726,5.314,5.889,5.889,0,0,0-2.832-1.894c-1.36,2.384-3.672,5.415-4.922,6.206-1.25-.791-3.562-3.811-4.923-6.206a5.889,5.889,0,0,0-2.832,1.894,4.657,4.657,0,0,1,1.726-5.314,3.965,3.965,0,0,1,.055-0.546c-0.122.044-4.878,1.615-5.188,1.782a5.532,5.532,0,0,0-.7.413,7.013,7.013,0,0,0-1.261,1.08c0.288,0.123.531,0.234,0.73,0.323a4.325,4.325,0,0,1,.52.279h0a5.872,5.872,0,0,1,1.516,1.426,5.559,5.559,0,0,1,.8,1.214,5.645,5.645,0,0,1,.321.947c0.453,1.393,1.206,3.71,1.659,5.348H502.35a3.624,3.624,0,0,0,2.8-1.159,3.379,3.379,0,0,0,.818-2.25c0.011-.145.023-0.78,0.023-0.78S505.934,921.05,505.934,921.039ZM482.748,906a4.588,4.588,0,0,1,.188,1.17,2.081,2.081,0,0,1-.033.368,14.448,14.448,0,0,1-.951,1.727c1.294,1.4,3,1.727,4.679,2.083,0.5,0.1,1.007.167,1.549,0.234l0.531,0.1-0.852,2.518a7.438,7.438,0,0,0,3.507,5.916h0.022a7.438,7.438,0,0,0,3.506-5.916l-0.851-2.518,0.531-.1c0.541-.067,1.05-0.133,1.548-0.234,1.682-.356,3.4-0.679,4.679-2.083a14.735,14.735,0,0,1-.951-1.727,2.081,2.081,0,0,1-.033-0.368,4.151,4.151,0,0,1,.188-1.17c0.111-.389.232-0.779,0.354-1.18a10.229,10.229,0,0,0-8.96-14.384h-0.022a10.115,10.115,0,0,0-9.846,10.183,10.428,10.428,0,0,0,.885,4.2C482.516,905.219,482.638,905.609,482.748,906Z" transform="translate(-419 -890)"/>
</svg>
