<svg xmlns="http://www.w3.org/2000/svg" xmlns:xlink="http://www.w3.org/1999/xlink" width="44.188" height="43" viewBox="0 0 44.188 43">
  <defs>
    <style>
      .cls-1 {
        fill-rule: evenodd;
        fill: url(#linear-gradient);
      }
    </style>
    <linearGradient id="linear-gradient" x1="422.594" y1="3081.31" x2="465.594" y2="3038.31" gradientUnits="userSpaceOnUse">
      <stop offset="0" stop-color="#4458a5"/>
      <stop offset="1" stop-color="#6199cc"/>
    </linearGradient>
  </defs>
  <path id="Tennis" class="cls-1" d="M461.14,3071.36a4.98,4.98,0,1,1-5.035,4.98A5.008,5.008,0,0,1,461.14,3071.36Zm-3.112-27.81a18.282,18.282,0,0,0-25.628,0,18.033,18.033,0,0,0-3.986,5.96l23.591,23.34a18.107,18.107,0,0,0,6.023-3.94A17.819,17.819,0,0,0,458.028,3043.55Zm-30.879,11.27a17.822,17.822,0,0,0,2.857,11.17l-7.744,7.66a0.9,0.9,0,0,0,0,1.28l4.055,4.01a0.911,0.911,0,0,0,1.3,0l7.744-7.66a18.4,18.4,0,0,0,11.288,2.83,19.7,19.7,0,0,0,2.034-.28l-21.251-21.02A17.384,17.384,0,0,0,427.149,3054.82Z" transform="translate(-422 -3038.31)"/>
</svg>
