<svg xmlns="http://www.w3.org/2000/svg" xmlns:xlink="http://www.w3.org/1999/xlink" width="64" height="61" viewBox="0 0 64 61">
  <defs>
    <style>
      .cls-1 {
        fill-rule: evenodd;
        fill: url(#linear-gradient);
      }
    </style>
    <linearGradient id="linear-gradient" x1="1031.5" y1="1190" x2="1092.5" y2="1129" gradientUnits="userSpaceOnUse">
      <stop offset="0" stop-color="#4458a5"/>
      <stop offset="1" stop-color="#6199cc"/>
    </linearGradient>
  </defs>
  <path id="WALLET" class="cls-1" d="M1044.95,1140.62l25.52-6.92-1.35-2.71a3.615,3.615,0,0,0-4.82-1.61l-22.84,11.24h3.49Zm33.44-6.72a3.453,3.453,0,0,0-.95.13l-6,1.63-18.3,4.96h29.83l-1.12-4.08A3.575,3.575,0,0,0,1078.39,1133.9Zm8.33,9.21h-53.13a3.613,3.613,0,0,0-2.81,1.35,3.512,3.512,0,0,0-.66,1.29,3.6,3.6,0,0,0-.13.93v39.76a3.583,3.583,0,0,0,3.6,3.56h53.12a3.583,3.583,0,0,0,3.6-3.56v-9.96h-21.33a6.092,6.092,0,0,1-6.11-6.06v-7.94a6.076,6.076,0,0,1,5.38-6.01,5.676,5.676,0,0,1,.72-0.05h21.34v-9.74A3.583,3.583,0,0,0,1086.72,1143.11Zm6.11,16.72a3.881,3.881,0,0,0-1.26-.74,3.711,3.711,0,0,0-1.16-.19h-21.43a3.591,3.591,0,0,0-3.6,3.57v7.94a3.591,3.591,0,0,0,3.6,3.57h21.43a3.448,3.448,0,0,0,1.16-.2,3.414,3.414,0,0,0,1.26-.74,3.535,3.535,0,0,0,1.17-2.63v-7.94A3.541,3.541,0,0,0,1092.83,1159.83Zm-16.35,7.32a1.786,1.786,0,0,1-1.79,1.78h-1.2a1.786,1.786,0,0,1-1.79-1.78v-1.19a1.743,1.743,0,0,1,.69-1.4,1.852,1.852,0,0,1,1.1-.38h1.2a1.786,1.786,0,0,1,1.79,1.78v1.19h0Z" transform="translate(-1030 -1129)"/>
</svg>
