<svg xmlns="http://www.w3.org/2000/svg" xmlns:xlink="http://www.w3.org/1999/xlink" width="74" height="71" viewBox="0 0 74 71">
  <defs>
    <style>
      .cls-1 {
        fill-rule: evenodd;
        fill: url(#linear-gradient);
      }
    </style>
    <linearGradient id="linear-gradient" x1="1398.5" y1="2585" x2="1469.5" y2="2514" gradientUnits="userSpaceOnUse">
      <stop offset="0" stop-color="#4458a5"/>
      <stop offset="1" stop-color="#6199cc"/>
    </linearGradient>
  </defs>
  <path id="WEBDEV" class="cls-1" d="M1467.02,2514h-66.04a4.008,4.008,0,0,0-3.98,4.03v62.94a4.008,4.008,0,0,0,3.98,4.03h66.04a4.008,4.008,0,0,0,3.98-4.03v-62.94A4.008,4.008,0,0,0,1467.02,2514Zm-7.87,6.17a3.335,3.335,0,1,1-3.29,3.34A3.325,3.325,0,0,1,1459.15,2520.17Zm-11.17,0a3.335,3.335,0,1,1-3.3,3.34A3.323,3.323,0,0,1,1447.98,2520.17Zm-40.89,1.61h13.3a1.725,1.725,0,0,1,0,3.45h-13.3A1.725,1.725,0,0,1,1407.09,2521.78Zm16.63,45.64a10.281,10.281,0,1,1,10.28,10.41A10.344,10.344,0,0,1,1423.72,2567.42Zm40.96,10.6a0.525,0.525,0,0,1-.52.53h-10.08a22.979,22.979,0,0,0,1.98-4.94h2.08a3.15,3.15,0,0,0,3.13-3.17v-6.03a3.158,3.158,0,0,0-3.13-3.18h-2.08a23,23,0,0,0-2.13-5.22l1.46-1.49a3.187,3.187,0,0,0,0-4.48l-4.21-4.27a3.115,3.115,0,0,0-4.44,0l-1.46,1.49a22.568,22.568,0,0,0-5.17-2.17v-2.1a3.15,3.15,0,0,0-3.13-3.17h-5.96a3.15,3.15,0,0,0-3.13,3.17v2.1a22.568,22.568,0,0,0-5.17,2.17l-1.46-1.49a3.115,3.115,0,0,0-4.44,0l-4.21,4.27a3.187,3.187,0,0,0,0,4.48l1.46,1.49a22.817,22.817,0,0,0-2.13,5.22h-2.08a3.158,3.158,0,0,0-3.13,3.18v6.03a3.15,3.15,0,0,0,3.13,3.17h2.08a22.477,22.477,0,0,0,1.98,4.94h-10.08a0.525,0.525,0,0,1-.52-0.53v-43.35h61.36v43.35Z" transform="translate(-1397 -2514)"/>
</svg>
