<svg xmlns="http://www.w3.org/2000/svg" xmlns:xlink="http://www.w3.org/1999/xlink" width="61.437" height="46.44" viewBox="0 0 61.437 46.44">
  <defs>
    <style>
      .cls-1 {
        fill-rule: evenodd;
        fill: url(#linear-gradient);
      }
    </style>
    <linearGradient id="linear-gradient" x1="437.592" y1="1187.94" x2="484.033" y2="1141.5" gradientUnits="userSpaceOnUse">
      <stop offset="0" stop-color="#4458a5"/>
      <stop offset="1" stop-color="#6199cc"/>
    </linearGradient>
  </defs>
  <path id="WORKSPACE" class="cls-1" d="M447.771,1180.23h-5.32l-8.091-13.71,1.683-2.64a12.343,12.343,0,0,1-1.305-4.75l-4.658,7.32,8.134,13.78h-3.167a4.265,4.265,0,0,0-4.263,4.26v3.45h21.249v-3.45A4.265,4.265,0,0,0,447.771,1180.23Zm39.94-38.73H448.852a3.815,3.815,0,0,0-3.809,3.81v0.79a12.43,12.43,0,0,1,10.749,3.45l2.468,2.47-13.068,13.07H491.52v-19.78A3.815,3.815,0,0,0,487.711,1141.5Zm-42.668,27.23v5.1a3.814,3.814,0,0,0,3.809,3.81h10.892l-0.644,6.65h-3.012v3.65h24.386v-3.65h-3.012l-0.643-6.65h10.892a3.815,3.815,0,0,0,3.809-3.81v-5.1H445.043Zm-1.473-18.41-1.141.5-5.189-5.19-2.844,2.84,5.189,5.19-0.5,1.14a8.636,8.636,0,0,0,1.707,9.52l12.3-12.3A8.636,8.636,0,0,0,443.57,1150.32Z" transform="translate(-430.094 -1141.5)"/>
</svg>
