<?xml version="1.0" encoding="utf-8"?>
<!-- Generator: Adobe Illustrator 15.0.0, SVG Export Plug-In . SVG Version: 6.00 Build 0)  -->
<!DOCTYPE svg PUBLIC "-//W3C//DTD SVG 1.1//EN" "http://www.w3.org/Graphics/SVG/1.1/DTD/svg11.dtd">
<svg version="1.1" id="Layer_1" xmlns="http://www.w3.org/2000/svg" xmlns:xlink="http://www.w3.org/1999/xlink" x="0px" y="0px"
	 width="388.503px" height="170.149px" viewBox="226.694 212.563 388.503 170.149"
	 enable-background="new 226.694 212.563 388.503 170.149" xml:space="preserve">
<path fill="#EF0000" d="M614.109,359.66c0.377-0.316,0.652-0.67,0.826-1.064s0.262-0.985,0.262-1.773v-57.902
	c0-0.789-0.088-1.387-0.262-1.798c-0.174-0.409-0.449-0.757-0.826-1.041c-0.885-0.693-2.92-1.04-6.105-1.04
	c-3.248,0-5.312,0.347-6.195,1.04c-0.379,0.284-0.654,0.632-0.828,1.041c-0.174,0.411-0.26,1.01-0.26,1.798v57.902
	c0,1.293,0.361,2.239,1.088,2.838c0.883,0.693,2.947,1.041,6.195,1.041C611.191,360.701,613.224,360.352,614.109,359.66
	 M570.914,359.99c3.311-1.135,6.031-2.712,8.16-4.73c2.127-2.018,3.688-4.405,4.682-7.166c0.994-2.76,1.49-5.764,1.49-9.012v-40.164
	c0-1.355-0.346-2.3-1.041-2.838c-0.945-0.693-2.98-1.04-6.102-1.04c-3.248,0-5.314,0.347-6.197,1.04
	c-0.41,0.284-0.693,0.632-0.854,1.041c-0.156,0.411-0.234,1.01-0.234,1.797v39.975c0,1.576-0.275,3.193-0.828,4.85
	c-0.553,1.655-1.758,3.027-3.617,4.115c-1.863,1.088-4.322,1.633-7.381,1.633c-2.113,0-3.918-0.253-5.416-0.757
	c-1.498-0.505-2.721-1.224-3.666-2.153c-0.947-0.93-1.641-2.049-2.082-3.359c-0.441-1.307-0.662-2.75-0.662-4.327v-39.974
	c0-1.356-0.348-2.301-1.041-2.839c-0.945-0.693-2.979-1.04-6.102-1.04c-3.25,0-5.314,0.347-6.197,1.04
	c-0.41,0.284-0.693,0.632-0.854,1.041c-0.156,0.411-0.234,1.01-0.234,1.798v40.162c0,3.25,0.496,6.252,1.488,9.012
	c0.994,2.762,2.557,5.15,4.686,7.166c2.129,2.021,4.848,3.598,8.16,4.732c3.311,1.135,7.283,1.702,11.92,1.702
	S567.601,361.125,570.914,359.99 M500.15,359.66c0.377-0.316,0.645-0.67,0.803-1.064s0.236-0.985,0.236-1.773v-49.388h14.43
	c1.072,0,1.938-0.103,2.6-0.308c0.664-0.205,1.186-0.654,1.562-1.35c0.439-0.852,0.779-2.033,1.016-3.547
	c0.238-1.516,0.355-2.729,0.355-3.645c0-0.756-0.062-1.332-0.189-1.727c-0.125-0.394-0.377-0.717-0.756-0.97
	c-0.254-0.157-0.6-0.275-1.041-0.354c-0.443-0.079-1.072-0.118-1.893-0.118h-44.939c-1.072,0-1.939,0.102-2.602,0.307
	s-1.184,0.655-1.562,1.348c-0.441,0.789-0.781,1.829-1.018,3.122c-0.236,1.294-0.354,2.634-0.354,4.021
	c0,0.789,0.062,1.382,0.189,1.775c0.125,0.395,0.393,0.717,0.803,0.969c0.506,0.316,1.467,0.475,2.887,0.475h16.084v49.387
	c0,1.355,0.361,2.303,1.088,2.84c0.883,0.692,2.947,1.041,6.197,1.041C497.169,360.701,499.203,360.352,500.15,359.66"/>
<path fill="#EF0000" d="M236.799,259.962h50.557c4.955,0,8.693,1.568,10.163,8.607c1.635,7.827,0.962,13.276-7.848,13.899
	l-15.872,1.134c11.68,73.817,79.986,97.88,117.175,18.375c6.156-13.159,8.169-15.555,14.913-13.882
	c9.14,2.267,10.388,6.968,6.036,20.235c-32.156,98.012-140.224,107.836-161.428-23.053l-12.895,0.931
	c-10.493,0.754-10.906-8.099-10.906-13.023C226.694,263.451,230.31,259.963,236.799,259.962"/>
<path fill="#EF0000" d="M420.616,212.563c10.362,0,18.764,8.4,18.764,18.764c0,10.363-8.4,18.766-18.764,18.766
	c-10.363,0-18.765-8.403-18.765-18.766C401.854,220.963,410.253,212.563,420.616,212.563"/>
</svg>
