<?xml version="1.0" encoding="utf-8"?>
<!-- Generator: Adobe Illustrator 19.2.1, SVG Export Plug-In . SVG Version: 6.00 Build 0)  -->
<svg version="1.1" id="Layer_1" xmlns="http://www.w3.org/2000/svg" xmlns:xlink="http://www.w3.org/1999/xlink" x="0px" y="0px"
	 viewBox="0 0 388.835 257.221" style="enable-background:new 0 0 388.835 257.221;" xml:space="preserve">
<style type="text/css">
	.st0{fill:#EF0000;}
	.st1{fill:#5D4221;}
</style>
<g>
	<g>
		<path class="st0" d="M382.581,234.456c0.372-0.312,0.643-0.662,0.816-1.051c0.172-0.389,0.259-0.971,0.259-1.749v-57.181
			c0-0.779-0.087-1.37-0.259-1.776c-0.173-0.404-0.443-0.748-0.816-1.028c-0.875-0.684-2.884-1.027-6.029-1.027
			c-3.207,0-5.245,0.343-6.118,1.027c-0.374,0.28-0.643,0.624-0.818,1.028c-0.172,0.406-0.257,0.997-0.257,1.776v57.18
			c0,1.277,0.356,2.209,1.074,2.803c0.875,0.682,2.91,1.028,6.118,1.028C379.699,235.484,381.707,235.138,382.581,234.456
			 M339.925,234.782c3.27-1.123,5.956-2.68,8.058-4.671c2.1-1.993,3.642-4.35,4.624-7.077c0.982-2.726,1.471-5.692,1.471-8.9
			v-39.663c0-1.338-0.342-2.271-1.028-2.803c-0.933-0.684-2.943-1.027-6.026-1.027c-3.207,0-5.248,0.343-6.12,1.027
			c-0.405,0.28-0.684,0.624-0.843,1.028c-0.153,0.406-0.23,0.997-0.23,1.775v39.476c0,1.556-0.272,3.153-0.818,4.791
			c-0.546,1.632-1.736,2.987-3.572,4.062c-1.84,1.076-4.268,1.615-7.289,1.615c-2.087,0-3.869-0.25-5.348-0.75
			c-1.479-0.499-2.687-1.209-3.62-2.124c-0.935-0.92-1.621-2.023-2.056-3.317c-0.436-1.291-0.654-2.716-0.654-4.273v-39.477
			c0-1.339-0.344-2.272-1.028-2.804c-0.933-0.684-2.942-1.027-6.026-1.027c-3.209,0-5.248,0.343-6.12,1.027
			c-0.405,0.28-0.684,0.624-0.843,1.028c-0.153,0.406-0.23,0.997-0.23,1.776v39.661c0,3.209,0.49,6.174,1.469,8.9
			c0.981,2.728,2.525,5.086,4.628,7.077c2.102,1.996,4.788,3.553,8.058,4.673c3.27,1.121,7.192,1.679,11.771,1.679
			S336.654,235.903,339.925,234.782 M270.043,234.456c0.372-0.312,0.638-0.662,0.794-1.051c0.155-0.389,0.232-0.971,0.232-1.749
			v-48.774h14.251c1.058,0,1.914-0.102,2.568-0.304c0.656-0.202,1.173-0.646,1.543-1.335c0.433-0.841,0.769-2.006,1.003-3.503
			c0.235-1.497,0.351-2.695,0.351-3.6c0-0.747-0.062-1.315-0.187-1.707c-0.123-0.389-0.372-0.708-0.747-0.958
			c-0.251-0.155-0.592-0.27-1.028-0.35c-0.437-0.078-1.059-0.117-1.869-0.117h-44.378c-1.059,0-1.915,0.101-2.57,0.303
			c-0.656,0.202-1.17,0.647-1.544,1.333c-0.435,0.777-0.77,1.804-1.006,3.081c-0.232,1.279-0.35,2.603-0.35,3.971
			c0,0.779,0.062,1.365,0.187,1.753c0.123,0.39,0.388,0.708,0.793,0.957c0.5,0.31,1.449,0.469,2.851,0.469h15.883v48.771
			c0,1.338,0.357,2.276,1.074,2.807c0.872,0.681,2.91,1.028,6.12,1.028C267.1,235.484,269.109,235.138,270.043,234.456"/>
		<path class="st0" d="M9.978,136.002h49.927c4.893,0,8.584,1.548,10.036,8.498c1.615,7.729,0.95,13.11-7.75,13.726l-15.675,1.12
			c11.535,72.896,78.988,96.659,115.714,18.146c6.079-12.995,8.066-15.361,14.726-13.709c9.027,2.241,10.259,6.881,5.962,19.983
			C151.163,280.555,44.443,290.257,23.505,161l-12.735,0.92C0.408,162.665,0,153.92,0,149.059
			C0,139.447,3.571,136.003,9.978,136.002"/>
		<path class="st0" d="M191.503,89.193c10.231,0,18.53,8.295,18.53,18.532c0,10.232-8.294,18.532-18.53,18.532
			s-18.532-8.298-18.532-18.532C172.973,97.49,181.269,89.193,191.503,89.193"/>
	</g>
	<g>
		<path class="st1" d="M5.517,9.55v22.545c0,1.183-0.562,1.773-1.684,1.773c-0.439,0-0.818-0.173-1.135-0.518
			c-0.317-0.346-0.476-0.741-0.476-1.185V8.477c0-0.469,0.124-0.895,0.37-1.277c0.247-0.382,0.592-0.573,1.037-0.573h9.365
			c1.037,0,1.555,0.487,1.555,1.462S14.028,9.55,12.988,9.55H5.517z"/>
		<path class="st1" d="M17.102,31.869V8.477c0-0.469,0.124-0.895,0.37-1.277c0.247-0.382,0.592-0.573,1.037-0.573h10.216
			c0.938,0,1.407,0.518,1.407,1.554c0,1.037-0.496,1.555-1.486,1.555h-8.249v8.144h7.841c0.991,0,1.486,0.487,1.486,1.462
			c0,0.976-0.521,1.462-1.561,1.462h-7.767v9.735h8.323c0.941,0,1.412,0.543,1.412,1.629c0,0.987-0.543,1.48-1.628,1.48h-9.772
			C17.644,33.646,17.102,33.054,17.102,31.869z"/>
		<path class="st1" d="M50.934,17.878v-9.55c0-1.283,0.561-1.925,1.684-1.925c0.513,0,0.909,0.191,1.19,0.574
			c0.28,0.383,0.421,0.832,0.421,1.351v23.689c0,1.234-0.537,1.851-1.611,1.851c-0.512,0-0.921-0.179-1.226-0.535
			c-0.305-0.356-0.458-0.793-0.458-1.311V20.802H37.201v11.221c0,1.231-0.562,1.846-1.684,1.846c-1.074,0-1.611-0.616-1.611-1.851
			V8.328c0-0.519,0.14-0.968,0.421-1.351c0.28-0.383,0.677-0.574,1.189-0.574c1.122,0,1.684,0.642,1.684,1.925v9.55H50.934z"/>
		<path class="st1" d="M58.669,31.869V8.477c0-0.469,0.124-0.895,0.37-1.277c0.247-0.382,0.592-0.573,1.037-0.573h10.216
			c0.938,0,1.407,0.518,1.407,1.554c0,1.037-0.496,1.555-1.486,1.555h-8.249v8.144h7.841c0.991,0,1.486,0.487,1.486,1.462
			c0,0.976-0.521,1.462-1.561,1.462h-7.767v9.735h8.323c0.941,0,1.412,0.543,1.412,1.629c0,0.987-0.543,1.48-1.628,1.48h-9.772
			C59.212,33.646,58.669,33.054,58.669,31.869z"/>
		<path class="st1" d="M92.575,15.064c0,2.32-0.805,4.319-2.413,5.997c-1.608,1.678-3.575,2.517-5.901,2.517h-5.493v8.661
			c0,1.087-0.562,1.629-1.684,1.629c-0.439,0-0.818-0.173-1.135-0.518c-0.317-0.346-0.476-0.741-0.476-1.185V8.402
			c0-1.185,0.542-1.776,1.629-1.776h6.737c2.566,0,4.664,0.771,6.292,2.312C91.76,10.481,92.575,12.523,92.575,15.064z M78.768,9.55
			v11.104h4.771c1.69,0,3.069-0.527,4.138-1.581s1.603-2.415,1.603-4.082c0-1.642-0.516-2.959-1.547-3.952
			c-1.032-0.992-2.38-1.489-4.044-1.489H78.768z"/>
		<path class="st1" d="M92.729,33.868c-0.397,0-0.762-0.117-1.097-0.352c-0.334-0.234-0.501-0.549-0.501-0.943
			c0-0.346,0.049-0.654,0.148-0.926l8.735-23.319c0.493-1.332,1.283-1.999,2.369-1.999s1.875,0.667,2.369,1.999l8.735,23.319
			c0.099,0.271,0.148,0.58,0.148,0.926c0,0.863-0.533,1.295-1.599,1.295c-0.793,0-1.326-0.393-1.598-1.179l-1.936-5.483H96.301
			l-1.974,5.482C94.054,33.475,93.521,33.868,92.729,33.868z M102.383,10.232l-5.025,14.049h10.09L102.383,10.232z"/>
		<path class="st1" d="M131.366,9.55h-8.174c-1.115,0-1.672,0.555-1.672,1.663v17.038c0,1.971-0.457,3.4-1.369,4.287
			c-0.914,0.888-2.357,1.33-4.331,1.33c-1.357,0-2.036-0.481-2.036-1.443c0-0.863,0.395-1.333,1.185-1.406
			c0.715-0.074,1.431-0.148,2.147-0.223c0.789-0.345,1.184-1.233,1.184-2.665V10.771c0-2.764,1.481-4.146,4.442-4.146h10.512
			c0.938,0,1.407,0.616,1.407,1.851v23.689c0,0.469-0.153,0.869-0.458,1.202c-0.306,0.334-0.689,0.5-1.153,0.5
			c-0.488,0-0.891-0.173-1.208-0.517c-0.318-0.345-0.476-0.765-0.476-1.257V9.55z"/>
		<path class="st1" d="M142.581,17.434h5.048c2.351,0,4.324,0.766,5.92,2.295c1.597,1.53,2.395,3.468,2.395,5.812
			c0,2.542-0.814,4.528-2.443,5.959c-1.629,1.432-3.727,2.147-6.292,2.147h-6.292c-1.086,0-1.629-0.593-1.629-1.777V8.328
			c0-1.283,0.561-1.925,1.684-1.925c0.513,0,0.909,0.191,1.19,0.574c0.28,0.383,0.421,0.832,0.421,1.351V17.434z M142.581,20.358
			v10.363h4.475c1.666,0,3.014-0.459,4.046-1.378c1.032-0.918,1.547-2.187,1.547-3.804c0-1.642-0.535-2.915-1.604-3.822
			c-1.069-0.906-2.449-1.359-4.139-1.359H142.581z"/>
		<path class="st1" d="M176.301,17.878v-9.55c0-1.283,0.561-1.925,1.684-1.925c0.513,0,0.909,0.191,1.19,0.574
			c0.28,0.383,0.421,0.832,0.421,1.351v23.689c0,1.234-0.537,1.851-1.611,1.851c-0.512,0-0.921-0.179-1.226-0.535
			c-0.305-0.356-0.458-0.793-0.458-1.311V20.802h-13.732v11.221c0,1.231-0.562,1.846-1.684,1.846c-1.074,0-1.611-0.616-1.611-1.851
			V8.328c0-0.519,0.14-0.968,0.421-1.351c0.28-0.383,0.677-0.574,1.189-0.574c1.122,0,1.684,0.642,1.684,1.925v9.55H176.301z"/>
		<path class="st1" d="M187.331,17.434h3.936c1.188,0,2.277,0.198,3.268,0.593c1.559,0.617,2.791,1.604,3.694,2.961
			c0.903,1.357,1.354,2.875,1.354,4.553c0,2.542-0.813,4.528-2.442,5.959c-1.629,1.432-3.727,2.147-6.292,2.147h-5.182
			c-1.086,0-1.629-0.593-1.629-1.777V8.328c0-1.283,0.561-1.925,1.684-1.925c0.513,0,0.909,0.191,1.19,0.574
			c0.28,0.383,0.421,0.832,0.421,1.351V17.434z M187.331,20.358v10.363h3.359c1.667,0,3.017-0.459,4.049-1.378
			c1.032-0.918,1.549-2.187,1.549-3.804c0-1.642-0.535-2.915-1.605-3.822c-1.07-0.906-2.451-1.359-4.143-1.359H187.331z
			 M202.174,32.092V8.18c0-1.184,0.561-1.776,1.684-1.776c1.073,0,1.61,0.593,1.61,1.776v23.838c0,1.234-0.537,1.851-1.61,1.851
			C202.735,33.868,202.174,33.276,202.174,32.092z"/>
		<path class="st1" d="M213.241,27.724l0.025,0.018l13.92-20.012c0.619-0.884,1.312-1.326,2.078-1.326
			c1.015,0,1.522,0.543,1.522,1.629v24.134c0,1.135-0.544,1.702-1.629,1.702c-1.136,0-1.703-0.542-1.703-1.629v-19.84
			l-14.213,20.433c-0.469,0.691-1.086,1.036-1.852,1.036c-0.987,0-1.48-0.567-1.48-1.702V8.18c0-1.184,0.567-1.776,1.703-1.776
			c0.493,0,0.888,0.173,1.185,0.519c0.296,0.346,0.443,0.765,0.443,1.258V27.724z M215.24,1.417c0-0.373,0.13-0.702,0.389-0.988
			C215.888,0.144,216.203,0,216.573,0c0.444,0,1.042,0.37,1.795,1.11s1.412,1.11,1.98,1.11c0.567,0,1.233-0.37,1.999-1.11
			c0.765-0.74,1.356-1.11,1.776-1.11c0.37,0,0.685,0.144,0.943,0.429c0.26,0.286,0.389,0.615,0.389,0.988
			c0,0.994-0.616,1.889-1.851,2.684c-1.11,0.696-2.196,1.044-3.257,1.044c-1.062,0-2.147-0.348-3.258-1.044
			C215.857,3.306,215.24,2.411,215.24,1.417z"/>
		<path class="st1" d="M262.247,9.55h-13.065v22.545c0,1.183-0.562,1.773-1.684,1.773c-0.44,0-0.818-0.173-1.135-0.518
			c-0.318-0.346-0.477-0.741-0.477-1.185V8.477c0-0.469,0.123-0.895,0.37-1.277c0.247-0.382,0.593-0.573,1.036-0.573h16.842
			c0.938,0,1.407,0.616,1.407,1.851v23.689c0,0.469-0.153,0.869-0.458,1.202c-0.305,0.334-0.689,0.5-1.153,0.5
			c-0.488,0-0.891-0.173-1.207-0.517c-0.317-0.345-0.477-0.765-0.477-1.257V9.55z"/>
		<path class="st1" d="M269.693,33.868c-0.396,0-0.762-0.117-1.096-0.352c-0.335-0.234-0.502-0.549-0.502-0.943
			c0-0.346,0.049-0.654,0.148-0.926l8.734-23.319c0.493-1.332,1.283-1.999,2.37-1.999c1.085,0,1.875,0.667,2.368,1.999l8.735,23.319
			c0.099,0.271,0.148,0.58,0.148,0.926c0,0.863-0.533,1.295-1.599,1.295c-0.793,0-1.326-0.393-1.599-1.179l-1.936-5.483h-12.201
			l-1.975,5.482C271.018,33.475,270.486,33.868,269.693,33.868z M279.347,10.232l-5.025,14.049h10.09L279.347,10.232z"/>
		<path class="st1" d="M310.254,15.064c0,2.32-0.804,4.319-2.412,5.997s-3.575,2.517-5.901,2.517h-5.492v8.661
			c0,1.087-0.562,1.629-1.684,1.629c-0.44,0-0.818-0.173-1.135-0.518c-0.318-0.346-0.477-0.741-0.477-1.185V8.402
			c0-1.185,0.543-1.776,1.629-1.776h6.736c2.566,0,4.664,0.771,6.293,2.312C309.441,10.481,310.254,12.523,310.254,15.064z
			 M296.449,9.55v11.104h4.771c1.69,0,3.069-0.527,4.138-1.581c1.069-1.054,1.604-2.415,1.604-4.082
			c0-1.642-0.516-2.959-1.547-3.952c-1.032-0.992-2.38-1.489-4.045-1.489H296.449z"/>
		<path class="st1" d="M317.659,9.55h-5.183c-0.42,0-0.783-0.137-1.092-0.412s-0.463-0.625-0.463-1.05s0.16-0.774,0.481-1.05
			c0.32-0.275,0.703-0.412,1.147-0.412h13.548c1.085,0,1.628,0.487,1.628,1.462s-0.496,1.462-1.488,1.462h-5.285v22.618
			c0,0.493-0.159,0.9-0.476,1.221c-0.317,0.319-0.721,0.479-1.208,0.479c-0.439,0-0.817-0.173-1.135-0.517
			c-0.317-0.345-0.476-0.739-0.476-1.184V9.55z"/>
		<path class="st1" d="M347.196,17.878v-9.55c0-1.283,0.561-1.925,1.684-1.925c0.512,0,0.908,0.191,1.189,0.574
			c0.28,0.383,0.421,0.832,0.421,1.351v23.689c0,1.234-0.537,1.851-1.61,1.851c-0.513,0-0.922-0.179-1.227-0.535
			c-0.306-0.356-0.457-0.793-0.457-1.311V20.802h-13.732v11.221c0,1.231-0.562,1.846-1.684,1.846c-1.074,0-1.611-0.616-1.611-1.851
			V8.328c0-0.519,0.141-0.968,0.421-1.351c0.281-0.383,0.678-0.574,1.19-0.574c1.121,0,1.684,0.642,1.684,1.925v9.55H347.196z"/>
		<path class="st1" d="M354.931,31.869V8.477c0-0.469,0.123-0.895,0.37-1.277c0.247-0.382,0.593-0.573,1.036-0.573h10.217
			c0.938,0,1.406,0.518,1.406,1.554c0,1.037-0.495,1.555-1.486,1.555h-8.248v8.144h7.841c0.991,0,1.486,0.487,1.486,1.462
			c0,0.976-0.521,1.462-1.561,1.462h-7.767v9.735h8.322c0.941,0,1.412,0.543,1.412,1.629c0,0.987-0.543,1.48-1.629,1.48h-9.771
			C355.474,33.646,354.931,33.054,354.931,31.869z"/>
		<path class="st1" d="M388.835,15.064c0,2.32-0.804,4.319-2.412,5.997s-3.575,2.517-5.901,2.517h-5.492v8.661
			c0,1.087-0.562,1.629-1.684,1.629c-0.44,0-0.818-0.173-1.135-0.518c-0.318-0.346-0.477-0.741-0.477-1.185V8.402
			c0-1.185,0.543-1.776,1.629-1.776h6.736c2.566,0,4.664,0.771,6.293,2.312C388.022,10.481,388.835,12.523,388.835,15.064z
			 M375.03,9.55v11.104h4.771c1.69,0,3.069-0.527,4.138-1.581c1.069-1.054,1.604-2.415,1.604-4.082c0-1.642-0.516-2.959-1.547-3.952
			c-1.032-0.992-2.38-1.489-4.045-1.489H375.03z"/>
	</g>
</g>
</svg>
