<?xml version="1.0" encoding="utf-8"?>
<!-- Generator: Adobe Illustrator 21.0.2, SVG Export Plug-In . SVG Version: 6.00 Build 0)  -->
<svg version="1.1" id="Слой_1" xmlns="http://www.w3.org/2000/svg" xmlns:xlink="http://www.w3.org/1999/xlink" x="0px" y="0px"
	 viewBox="0 0 2352.9 590" style="enable-background:new 0 0 2352.9 590;" xml:space="preserve">
<style type="text/css">
	.st0{clip-path:url(#SVGID_2_);}
	.st1{fill:#294799;}
	.st2{fill:url(#SVGID_3_);}
	.st3{fill:url(#SVGID_4_);}
	.st4{fill:url(#SVGID_5_);}
	.st5{fill:url(#SVGID_6_);}
	.st6{fill:none;stroke:#52C2F0;stroke-miterlimit:10;}
	.st7{clip-path:url(#SVGID_8_);}
	.st8{fill:url(#SVGID_9_);}
	.st9{fill:url(#SVGID_10_);}
	.st10{enable-background:new    ;}
	.st11{fill:#1B1C20;}
	.st12{fill:#1A4697;}
</style>
<g>
	<g>
		<g>
			<defs>
				<path id="SVGID_1_" d="M220.6,148.2c-12.5,7.7-46.4,27.9-79,41.8c-30.5,13-54.6,4.5-69.5-4.9c-8.6-5.4-15-11.8-19.2-16.5
					L0.3,221.2v147.9l221.3,221.3l50.7-50.7l-99-97.3l10.1-10.3l99.1,97.4l45.9-45.9l-99-97.3l10.1-10.3l99.1,97.4l45.9-45.9
					l-99-97.3l10.1-10.3l99.1,97.4l48.1-48.1L220.6,148.2z"/>
			</defs>
			<clipPath id="SVGID_2_">
				<use xlink:href="#SVGID_1_"  style="overflow:visible;"/>
			</clipPath>
			<g class="st0">
				<polygon class="st1" points="443,221.2 221.6,-0.1 0.3,221.2 0.3,369.1 221.6,590.4 443,369.1 				"/>

					<radialGradient id="SVGID_3_" cx="-1033.3254" cy="-6872.9854" r="836.3983" gradientTransform="matrix(0.9257 -0.3782 -0.1832 -0.4483 -31.9944 -2886.7925)" gradientUnits="userSpaceOnUse">
					<stop  offset="0.2775" style="stop-color:#294598"/>
					<stop  offset="0.5923" style="stop-color:#1D5AA6"/>
					<stop  offset="0.9278" style="stop-color:#00AFEA"/>
					<stop  offset="1" style="stop-color:#52C3F0"/>
				</radialGradient>
				<polygon class="st2" points="221.6,590.4 0.3,369.1 221.6,147.8 443,369.1 				"/>

					<radialGradient id="SVGID_4_" cx="-840.4153" cy="11448.1172" r="452.5359" gradientTransform="matrix(0.4719 0.8817 0.4416 -0.2363 -4185.5127 3641.2808)" gradientUnits="userSpaceOnUse">
					<stop  offset="9.671534e-02" style="stop-color:#294598"/>
					<stop  offset="0.4769" style="stop-color:#1D5AA6"/>
					<stop  offset="0.8414" style="stop-color:#00AFEA"/>
					<stop  offset="1" style="stop-color:#99D7F5"/>
				</radialGradient>
				<polygon class="st3" points="221.6,-0.1 221.6,147.8 443,369.1 443,221.2 				"/>

					<radialGradient id="SVGID_5_" cx="594.5107" cy="2878.1086" r="197.0559" gradientTransform="matrix(0.9177 0.3973 0.8462 -1.9544 -2760.8101 5526.0205)" gradientUnits="userSpaceOnUse">
					<stop  offset="0" style="stop-color:#52C3F0"/>
					<stop  offset="7.219435e-02" style="stop-color:#00AFEA"/>
					<stop  offset="0.4077" style="stop-color:#1D5AA6"/>
					<stop  offset="0.7225" style="stop-color:#294598"/>
				</radialGradient>
				<polyline class="st4" points="58,163.5 92.3,186.6 138.8,183.4 221.6,139 221.6,-0.1 				"/>

					<radialGradient id="SVGID_6_" cx="-50.5275" cy="1593.8256" r="403.716" gradientTransform="matrix(1 0 0 -2.7952 0 4881.8242)" gradientUnits="userSpaceOnUse">
					<stop  offset="0" style="stop-color:#52C3F0"/>
					<stop  offset="7.219435e-02" style="stop-color:#00AFEA"/>
					<stop  offset="0.4077" style="stop-color:#1D5AA6"/>
					<stop  offset="0.7225" style="stop-color:#294598"/>
				</radialGradient>
				<polygon class="st5" points="0.3,221.2 58,163.5 86.4,184.5 119.8,188.8 221.6,147.8 0.3,369.1 				"/>
				<line class="st6" x1="221.6" y1="147.8" x2="0.3" y2="369.1"/>
			</g>
		</g>
	</g>
	<g>
		<g>
			<defs>
				<path id="SVGID_7_" d="M80.3,173.2c17.2,10.8,36,12,55.7,3.6c39-16.6,81.4-43.5,81.8-43.8l4.9-3.1L443,348.4V221.2L221.6-0.1
					L63.1,158.4C66.6,162.4,72.5,168.3,80.3,173.2z"/>
			</defs>
			<clipPath id="SVGID_8_">
				<use xlink:href="#SVGID_7_"  style="overflow:visible;"/>
			</clipPath>
			<g class="st7">
				<polygon class="st1" points="443,221.2 221.6,-0.1 0.3,221.2 0.3,369.1 221.6,590.4 443,369.1 				"/>

					<radialGradient id="SVGID_9_" cx="-840.4153" cy="11448.1172" r="452.5359" gradientTransform="matrix(0.4719 0.8817 0.4416 -0.2363 -4185.5127 3641.2808)" gradientUnits="userSpaceOnUse">
					<stop  offset="9.671534e-02" style="stop-color:#294598"/>
					<stop  offset="0.4769" style="stop-color:#1D5AA6"/>
					<stop  offset="0.8414" style="stop-color:#00AFEA"/>
					<stop  offset="1" style="stop-color:#99D7F5"/>
				</radialGradient>
				<polygon class="st8" points="221.6,-0.1 221.6,147.8 443,369.1 443,221.2 				"/>

					<radialGradient id="SVGID_10_" cx="594.5107" cy="2878.1086" r="197.0559" gradientTransform="matrix(0.9177 0.3973 0.8462 -1.9544 -2760.8101 5526.0205)" gradientUnits="userSpaceOnUse">
					<stop  offset="0" style="stop-color:#52C3F0"/>
					<stop  offset="7.219435e-02" style="stop-color:#00AFEA"/>
					<stop  offset="0.4077" style="stop-color:#1D5AA6"/>
					<stop  offset="0.7225" style="stop-color:#294598"/>
				</radialGradient>
				<polyline class="st9" points="58,163.5 92.3,186.6 138.8,183.4 221.6,139 221.6,-0.1 				"/>
			</g>
		</g>
	</g>
</g>
<g class="st10">
	<path class="st11" d="M588,369.5c5.2,9,12,15.7,20.3,20.1c8.3,4.4,17.8,6.6,28.4,6.6c6.6,0,12.8-1,18.6-3c5.8-2,10.9-4.8,15.2-8.4
		c4.3-3.6,7.7-8,10.2-13.1c2.5-5.1,3.8-10.9,3.8-17.3c0-7.4-1.6-13.5-4.7-18.3c-3.1-4.8-7.3-8.8-12.5-11.9c-5.2-3.1-11.1-5.8-17.6-8
		c-6.5-2.2-13.2-4.4-20.1-6.6c-6.9-2.2-13.6-4.7-20.1-7.5c-6.5-2.8-12.4-6.5-17.6-11c-5.2-4.5-9.4-10.2-12.5-17
		c-3.1-6.8-4.7-15.2-4.7-25.2c0-9.4,1.8-17.8,5.6-25.1c3.7-7.3,8.7-13.4,15-18.3c6.3-4.9,13.6-8.6,21.8-11.1
		c8.2-2.5,16.8-3.8,25.8-3.8c11.6,0,22.4,2.1,32.3,6.2c9.9,4.1,18.5,11,25.7,20.6l-17.1,12.3c-5-7-10.9-12.3-17.6-15.8
		c-6.7-3.5-14.7-5.3-23.9-5.3c-6.4,0-12.5,0.9-18.3,2.6c-5.8,1.7-10.9,4.2-15.2,7.5c-4.3,3.3-7.8,7.5-10.4,12.5
		c-2.6,5-3.9,10.9-3.9,17.7c0,10.6,2.7,18.8,8.1,24.5s12.2,10.2,20.3,13.5c8.1,3.3,16.9,6.2,26.4,8.7c9.5,2.5,18.3,5.9,26.4,10.1
		s14.9,10.1,20.3,17.6c5.4,7.5,8.1,17.9,8.1,31.1c0,9.6-1.8,18.1-5.4,25.5c-3.6,7.4-8.5,13.7-14.6,18.8c-6.1,5.1-13.2,9-21.2,11.6
		c-8,2.6-16.3,3.9-24.9,3.9c-14,0-26.9-2.5-38.7-7.4c-11.8-4.9-21.9-13.2-30.3-24.8L588,369.5z"/>
	<path class="st11" d="M742,339.5c0-10.6,1.8-20.4,5.4-29.3c3.6-8.9,8.6-16.6,15-23.1c6.4-6.5,14.1-11.6,23.1-15.2
		c9-3.6,18.8-5.4,29.4-5.4c10.6,0,20.4,1.8,29.3,5.4c8.9,3.6,16.6,8.7,23.1,15.2c6.5,6.5,11.6,14.2,15.2,23.1
		c3.6,8.9,5.4,18.7,5.4,29.3c0,10.6-1.8,20.4-5.4,29.3c-3.6,8.9-8.7,16.6-15.2,23.1c-6.5,6.5-14.2,11.6-23.1,15.2
		c-8.9,3.6-18.7,5.4-29.3,5.4c-10.6,0-20.4-1.8-29.4-5.4c-9-3.6-16.7-8.7-23.1-15.2c-6.4-6.5-11.4-14.2-15-23.1
		C743.8,359.8,742,350.1,742,339.5z M760,339.5c0,7.8,1.2,15.2,3.8,22.1c2.5,6.9,6.2,12.9,11,18s10.6,9.2,17.4,12.2
		c6.8,3,14.4,4.5,22.8,4.5s16-1.5,22.8-4.5c6.8-3,12.6-7.1,17.4-12.2c4.8-5.1,8.5-11.1,11-18c2.5-6.9,3.8-14.3,3.8-22.1
		s-1.3-15.2-3.8-22.1c-2.5-6.9-6.2-12.9-11-18c-4.8-5.1-10.6-9.2-17.4-12.2c-6.8-3-14.4-4.5-22.8-4.5s-16,1.5-22.8,4.5
		c-6.8,3-12.6,7.1-17.4,12.2c-4.8,5.1-8.5,11.1-11,18C761.3,324.3,760,331.7,760,339.5z"/>
	<path class="st11" d="M1050,388.4c-6.8,8.2-14.5,14.3-23.1,18.2c-8.6,3.9-17.9,5.9-27.9,5.9c-10.6,0-20.4-1.8-29.4-5.4
		c-9-3.6-16.7-8.7-23.1-15.2c-6.4-6.5-11.4-14.2-15-23.1c-3.6-8.9-5.4-18.7-5.4-29.3c0-10.6,1.8-20.4,5.4-29.3
		c3.6-8.9,8.6-16.6,15-23.1c6.4-6.5,14.1-11.6,23.1-15.2c9-3.6,18.8-5.4,29.4-5.4c10.2,0,19.7,2.1,28.4,6.3
		c8.7,4.2,16.5,10.1,23.3,17.7l-14.4,10.8c-5.2-5.8-10.9-10.4-17.1-13.7c-6.2-3.3-12.9-5-20.1-5c-8.4,0-16,1.5-22.8,4.5
		c-6.8,3-12.6,7.1-17.4,12.2c-4.8,5.1-8.5,11.1-11,18c-2.5,6.9-3.8,14.3-3.8,22.1s1.2,15.2,3.8,22.1c2.5,6.9,6.2,12.9,11,18
		c4.8,5.1,10.6,9.2,17.4,12.2c6.8,3,14.4,4.5,22.8,4.5c7.6,0,14.6-1.8,20.9-5.3c6.3-3.5,11.8-8.2,16.4-14L1050,388.4z"/>
	<path class="st11" d="M1082.5,215.2c0-3.8,1.3-7,3.9-9.6c2.6-2.6,5.8-3.9,9.6-3.9c3.8,0,7,1.3,9.6,3.9c2.6,2.6,3.9,5.8,3.9,9.6
		c0,3.8-1.3,7-3.9,9.6c-2.6,2.6-5.8,3.9-9.6,3.9c-3.8,0-7-1.3-9.6-3.9C1083.8,222.2,1082.5,219,1082.5,215.2z M1087,270.1h18v138.7
		h-18V270.1z"/>
	<path class="st11" d="M1279.1,369.8c0,2.6,0.1,5.8,0.3,9.5c0.2,3.7,0.3,7.5,0.5,11.3c0.1,3.8,0.2,7.4,0.5,10.7
		c0.2,3.3,0.3,5.9,0.3,7.7h-18c-0.2-5.2-0.4-10.2-0.5-15c-0.1-4.8-0.4-7.9-0.8-9.3h-0.9c-3.6,7.6-9.6,14.2-18,19.7
		s-18.2,8.3-29.4,8.3c-10.8,0-19.7-1.7-26.6-5.1s-12.3-7.9-16.2-13.4c-3.9-5.5-6.6-11.9-8-19.1c-1.4-7.2-2.1-14.6-2.1-22.2v-82.6h18
		v81.7c0,5.6,0.5,11.1,1.5,16.4c1,5.3,2.7,10.1,5.3,14.3c2.5,4.2,6,7.6,10.5,10.1c4.5,2.5,10.4,3.8,17.6,3.8
		c6.6,0,12.9-1.2,18.8-3.5c5.9-2.3,11-5.8,15.3-10.5c4.3-4.7,7.7-10.6,10.2-17.7c2.5-7.1,3.8-15.5,3.8-25.1v-69.4h18V369.8z"/>
</g>
<g class="st10">
	<path class="st11" d="M1335.9,309.1c0-2.6-0.1-5.8-0.3-9.5c-0.2-3.7-0.4-7.5-0.5-11.3c-0.1-3.8-0.3-7.4-0.5-10.7
		c-0.2-3.3-0.3-5.9-0.3-7.7h18c0.2,5.2,0.3,10.2,0.5,15c0.1,4.8,0.3,7.9,0.8,9.3h0.9c3.6-7.6,9.6-14.2,18-19.7
		c8.4-5.5,18.2-8.3,29.4-8.3c9.2,0,17.6,2.4,25.2,7.1c7.6,4.7,13.1,12.4,16.5,23c4.4-10.4,11-18,19.7-22.8
		c8.7-4.8,17.9-7.2,27.5-7.2c10.8,0,19.6,1.7,26.4,5.1c6.8,3.4,12.2,7.9,16.1,13.4c3.9,5.5,6.6,11.9,8.1,19.1s2.3,14.6,2.3,22.2
		v82.6h-18v-81.7c0-5.6-0.5-11.1-1.5-16.4c-1-5.3-2.8-10.1-5.3-14.3c-2.5-4.2-6-7.6-10.5-10.1c-4.5-2.5-10.4-3.8-17.6-3.8
		c-8.4,0-15.3,1.6-20.7,4.7c-5.4,3.1-9.7,7.1-12.8,11.9c-3.1,4.8-5.3,10-6.6,15.6c-1.3,5.6-2,10.9-2,15.9v78.1h-18v-83.5
		c0-12.8-2.4-23.1-7.1-30.9c-4.7-7.8-12-11.7-21.8-11.7c-6.6,0-12.9,1.2-18.8,3.5c-5.9,2.3-11,5.8-15.3,10.5
		c-4.3,4.7-7.7,10.6-10.2,17.7c-2.5,7.1-3.8,15.5-3.8,25.1v69.4h-18V309.1z"/>
</g>
<g class="st10">
	<path class="st12" d="M1673.9,214.3h-72.7v-18h165.1v18h-72.7v194.5h-19.8V214.3z"/>
	<path class="st12" d="M1772.1,309.1c0-2.6-0.1-5.8-0.3-9.5c-0.2-3.7-0.4-7.5-0.5-11.3c-0.1-3.8-0.3-7.4-0.5-10.7
		c-0.2-3.3-0.3-5.9-0.3-7.7h18c0.2,5.2,0.3,10.2,0.5,15c0.1,4.8,0.3,7.9,0.8,9.3c4.6-8.2,10.5-14.9,17.7-20.1
		c7.2-5.2,16-7.8,26.4-7.8c1.8,0,3.6,0.1,5.3,0.5c1.7,0.3,3.5,0.7,5.3,1.1l-2.1,17.7c-2.4-0.8-4.7-1.2-6.9-1.2
		c-7.8,0-14.6,1.3-20.3,3.8c-5.7,2.5-10.4,6-14.1,10.4c-3.7,4.4-6.5,9.6-8.3,15.5c-1.8,5.9-2.7,12.3-2.7,19.1v75.7h-18V309.1z"/>
	<path class="st12" d="M1985.6,350.6c0,6.8,0,12.9,0.2,18.3c0.1,5.4,0.2,10.4,0.5,15c0.2,4.6,0.5,8.9,0.8,12.9c0.3,4,0.8,8,1.4,12
		h-16.8c-1.2-6.8-1.8-14.3-1.8-22.5h-0.6c-5.2,9-11.7,15.6-19.4,19.8c-7.7,4.2-17.5,6.3-29.3,6.3c-6,0-11.9-0.8-17.7-2.3
		c-5.8-1.5-11-3.9-15.6-7.2c-4.6-3.3-8.4-7.6-11.3-12.8c-2.9-5.2-4.4-11.5-4.4-18.9c0-10.6,2.7-19,8.1-25.2c5.4-6.2,12.1-10.9,20-14
		c7.9-3.1,16.3-5.1,25.2-6c8.9-0.9,16.8-1.4,23.6-1.4h21v-8.4c0-12-3.7-20.6-11.1-25.8c-7.4-5.2-16.7-7.8-27.9-7.8
		c-16,0-30.1,5.2-42.3,15.6l-10.5-12.3c6.6-6.4,14.8-11.3,24.6-14.6c9.8-3.3,19.2-5,28.2-5c16.8,0,30.2,4,40.2,11.9
		c10,7.9,15,20.7,15,38.3V350.6z M1949.5,339.2c-7.6,0-15,0.5-22.1,1.5c-7.1,1-13.5,2.7-19.2,5.1s-10.3,5.6-13.7,9.6
		c-3.4,4-5.1,9-5.1,15c0,4.2,0.9,8,2.9,11.3c1.9,3.3,4.4,6,7.4,8.1s6.4,3.7,10.1,4.8c3.7,1.1,7.5,1.7,11.3,1.7
		c9.6,0,17.5-1.4,23.7-4.2c6.2-2.8,11.2-6.5,14.9-11c3.7-4.5,6.3-9.6,7.7-15.3c1.4-5.7,2.1-11.5,2.1-17.3v-9.3H1949.5z"/>
	<path class="st12" d="M2160.6,384.5h-0.6c-2.8,4.8-6.3,9-10.5,12.5c-4.2,3.5-8.8,6.4-13.7,8.7c-4.9,2.3-10.1,4-15.5,5.1
		c-5.4,1.1-10.7,1.7-15.9,1.7c-10.6,0-20.4-1.8-29.4-5.4c-9-3.6-16.7-8.7-23.1-15.2c-6.4-6.5-11.4-14.2-15-23.1
		c-3.6-8.9-5.4-18.7-5.4-29.3c0-10.6,1.8-20.4,5.4-29.3c3.6-8.9,8.6-16.6,15-23.1c6.4-6.5,14.1-11.6,23.1-15.2
		c9-3.6,18.8-5.4,29.4-5.4c5.2,0,10.5,0.6,15.9,1.7c5.4,1.1,10.6,2.8,15.5,5.1c4.9,2.3,9.5,5.2,13.7,8.7c4.2,3.5,7.7,7.7,10.5,12.5
		h0.6V181.8h18v227h-18V384.5z M2162.4,339.5c0-7.8-1.5-15.2-4.5-22.1c-3-6.9-7.1-12.9-12.3-18c-5.2-5.1-11.3-9.2-18.3-12.2
		c-7-3-14.6-4.5-22.8-4.5c-8.4,0-16,1.5-22.8,4.5c-6.8,3-12.6,7.1-17.4,12.2c-4.8,5.1-8.5,11.1-11,18c-2.5,6.9-3.8,14.3-3.8,22.1
		s1.2,15.2,3.8,22.1c2.5,6.9,6.2,12.9,11,18s10.6,9.2,17.4,12.2c6.8,3,14.4,4.5,22.8,4.5c8.2,0,15.8-1.5,22.8-4.5
		c7-3,13.1-7.1,18.3-12.2c5.2-5.1,9.3-11.1,12.3-18C2160.9,354.6,2162.4,347.3,2162.4,339.5z"/>
	<path class="st12" d="M2350.9,382.7c-7,10.6-15.7,18.2-26,22.8c-10.3,4.6-21.7,6.9-34.1,6.9c-10.6,0-20.2-1.8-28.8-5.4
		c-8.6-3.6-16-8.7-22.2-15.2c-6.2-6.5-11-14.2-14.3-23.1c-3.3-8.9-5-18.8-5-29.6c0-10.4,1.7-20,5.1-28.8c3.4-8.8,8.2-16.5,14.4-23
		c6.2-6.5,13.5-11.6,21.9-15.3c8.4-3.7,17.7-5.6,27.9-5.6c10.6,0,20,1.9,28.1,5.6c8.1,3.7,14.9,8.6,20.4,14.7
		c5.5,6.1,9.7,13.1,12.5,20.9c2.8,7.8,4.2,15.7,4.2,23.7V344h-116.5c0,3.8,0.8,8.7,2.3,14.6c1.5,5.9,4.2,11.7,8.3,17.3
		c4,5.6,9.4,10.4,16.1,14.4c6.7,4,15.4,6,26,6c9.2,0,18.1-2.2,26.7-6.6c8.6-4.4,15.2-10.4,19.8-18L2350.9,382.7z M2337.1,327.7
		c0-6.2-1.3-12-3.8-17.4c-2.5-5.4-5.9-10.2-10.2-14.3c-4.3-4.1-9.4-7.4-15.3-9.8c-5.9-2.4-12.2-3.6-18.8-3.6c-9.8,0-18,2-24.5,6
		c-6.5,4-11.7,8.6-15.5,13.8c-3.8,5.2-6.5,10.3-8.1,15.2c-1.6,4.9-2.4,8.3-2.4,10.1H2337.1z"/>
</g>
</svg>
