<?xml version="1.0" encoding="utf-8"?>
<!-- Generator: Adobe Illustrator 21.0.2, SVG Export Plug-In . SVG Version: 6.00 Build 0)  -->
<svg version="1.1" id="Слой_1" xmlns="http://www.w3.org/2000/svg" xmlns:xlink="http://www.w3.org/1999/xlink" x="0px" y="0px"
	 viewBox="0 0 1626.5 2170" style="enable-background:new 0 0 1626.5 2170;" xml:space="preserve">
<style type="text/css">
	.st0{clip-path:url(#SVGID_2_);}
	.st1{fill:#294799;}
	.st2{fill:url(#SVGID_3_);}
	.st3{fill:url(#SVGID_4_);}
	.st4{fill:url(#SVGID_5_);}
	.st5{fill:url(#SVGID_6_);}
	.st6{fill:none;stroke:#52C2F0;stroke-miterlimit:10;}
	.st7{clip-path:url(#SVGID_8_);}
	.st8{fill:url(#SVGID_9_);}
	.st9{fill:url(#SVGID_10_);}
</style>
<g>
	<g>
		<g>
			<defs>
				<path id="SVGID_1_" d="M809.5,545.4C763.7,573.6,639,648.1,519.2,699.1c-112.2,47.8-200.8,16.6-255.3-18
					c-31.5-20-55.3-43.2-70.7-60.6L0,813.7v543.4l813.3,813.3L999.6,1984l-363.7-357.4l37.1-37.8l364,357.8l168.8-168.8
					l-363.7-357.4l37.1-37.8l364,357.8l168.8-168.8L1048.5,1214l37.1-37.8l364,357.8l176.9-176.9L809.5,545.4z"/>
			</defs>
			<clipPath id="SVGID_2_">
				<use xlink:href="#SVGID_1_"  style="overflow:visible;"/>
			</clipPath>
			<g class="st0">
				<polygon class="st1" points="1626.5,813.7 813.3,0.4 0,813.7 0,1357.1 813.3,2170.4 1626.5,1357.1 				"/>
				
					<radialGradient id="SVGID_3_" cx="212.8719" cy="-3775.1016" r="3073.6511" gradientTransform="matrix(0.9257 -0.3782 -0.1832 -0.4483 104.449 539.3916)" gradientUnits="userSpaceOnUse">
					<stop  offset="0.2775" style="stop-color:#294598"/>
					<stop  offset="0.5923" style="stop-color:#1D5AA6"/>
					<stop  offset="0.9278" style="stop-color:#00AFEA"/>
					<stop  offset="1" style="stop-color:#52C3F0"/>
				</radialGradient>
				<polygon class="st2" points="813.3,2170.4 0,1357.1 813.3,543.8 1626.5,1357.1 				"/>
				
					<radialGradient id="SVGID_4_" cx="1326.8907" cy="7131.1851" r="1663.0088" gradientTransform="matrix(0.4719 0.8817 0.4416 -0.2363 -2036.9376 1232.9707)" gradientUnits="userSpaceOnUse">
					<stop  offset="9.671534e-02" style="stop-color:#294598"/>
					<stop  offset="0.4769" style="stop-color:#1D5AA6"/>
					<stop  offset="0.8414" style="stop-color:#00AFEA"/>
					<stop  offset="1" style="stop-color:#99D7F5"/>
				</radialGradient>
				<polygon class="st3" points="813.3,0.4 813.3,543.8 1626.5,1357.1 1626.5,813.7 				"/>
				
					<radialGradient id="SVGID_5_" cx="1117.6642" cy="3075.8958" r="724.1539" gradientTransform="matrix(0.9177 0.3973 0.8462 -1.9544 -2820.4641 6072.6748)" gradientUnits="userSpaceOnUse">
					<stop  offset="0" style="stop-color:#52C3F0"/>
					<stop  offset="7.219435e-02" style="stop-color:#00AFEA"/>
					<stop  offset="0.4077" style="stop-color:#1D5AA6"/>
					<stop  offset="0.7225" style="stop-color:#294598"/>
				</radialGradient>
				<polyline class="st4" points="212,601.7 337.9,686.7 508.9,674.7 813.3,511.8 813.3,0.4 				"/>
				
					<radialGradient id="SVGID_6_" cx="-186.9505" cy="1524.0791" r="1483.6021" gradientTransform="matrix(1 0 0 -2.7952 0 5829.2393)" gradientUnits="userSpaceOnUse">
					<stop  offset="0" style="stop-color:#52C3F0"/>
					<stop  offset="7.219435e-02" style="stop-color:#00AFEA"/>
					<stop  offset="0.4077" style="stop-color:#1D5AA6"/>
					<stop  offset="0.7225" style="stop-color:#294598"/>
				</radialGradient>
				<polygon class="st5" points="0,813.7 212,601.7 316.3,678.8 439,694.7 813.3,543.8 0,1357.1 				"/>
				<line class="st6" x1="813.3" y1="543.8" x2="0" y2="1357.1"/>
			</g>
		</g>
	</g>
	<g>
		<g>
			<defs>
				<path id="SVGID_7_" d="M293.8,637.3c63.3,39.5,132.2,43.9,204.7,13.1c143.2-61,299-159.9,300.5-160.9l17.8-11.4l809.6,803.1
					V813.7L813.3,0.4L230.8,582.9C243.6,597.7,265,619.3,293.8,637.3z"/>
			</defs>
			<clipPath id="SVGID_8_">
				<use xlink:href="#SVGID_7_"  style="overflow:visible;"/>
			</clipPath>
			<g class="st7">
				<polygon class="st1" points="1626.5,813.7 813.3,0.4 0,813.7 0,1357.1 813.3,2170.4 1626.5,1357.1 				"/>
				
					<radialGradient id="SVGID_9_" cx="1326.8907" cy="7131.1851" r="1663.0088" gradientTransform="matrix(0.4719 0.8817 0.4416 -0.2363 -2036.9376 1232.9707)" gradientUnits="userSpaceOnUse">
					<stop  offset="9.671534e-02" style="stop-color:#294598"/>
					<stop  offset="0.4769" style="stop-color:#1D5AA6"/>
					<stop  offset="0.8414" style="stop-color:#00AFEA"/>
					<stop  offset="1" style="stop-color:#99D7F5"/>
				</radialGradient>
				<polygon class="st8" points="813.3,0.4 813.3,543.8 1626.5,1357.1 1626.5,813.7 				"/>
				
					<radialGradient id="SVGID_10_" cx="1117.6642" cy="3075.8958" r="724.1539" gradientTransform="matrix(0.9177 0.3973 0.8462 -1.9544 -2820.4641 6072.6748)" gradientUnits="userSpaceOnUse">
					<stop  offset="0" style="stop-color:#52C3F0"/>
					<stop  offset="7.219435e-02" style="stop-color:#00AFEA"/>
					<stop  offset="0.4077" style="stop-color:#1D5AA6"/>
					<stop  offset="0.7225" style="stop-color:#294598"/>
				</radialGradient>
				<polyline class="st9" points="212,601.7 337.9,686.7 508.9,674.7 813.3,511.8 813.3,0.4 				"/>
			</g>
		</g>
	</g>
</g>
</svg>
