<?xml version="1.0" encoding="UTF-8"?>
<svg width="150px" height="150px" viewBox="0 0 150 150" version="1.1" xmlns="http://www.w3.org/2000/svg" xmlns:xlink="http://www.w3.org/1999/xlink">
    <!-- Generator: Sketch 48.2 (47327) - http://www.bohemiancoding.com/sketch -->
    <title>Consorcium</title>
    <desc>Created with Sketch.</desc>
    <defs></defs>
    <g id="icons/consorcium" stroke="none" stroke-width="1" fill="none" fill-rule="evenodd">
        <g id="Consorcium" transform="translate(6.000000, 3.000000)">
            <path d="M8,0 L10,0 L10,2 L8,2 L8,0 Z M16,0 L18,0 L18,2 L16,2 L16,0 Z M24,0 L26,0 L26,2 L24,2 L24,0 Z M32,0 L34,0 L34,2 L32,2 L32,0 Z M40,0 L42,0 L42,2 L40,2 L40,0 Z M48,0 L50,0 L50,2 L48,2 L48,0 Z M0,8 L2,8 L2,10 L0,10 L0,8 Z M8,8 L10,8 L10,10 L8,10 L8,8 Z M16,8 L18,8 L18,10 L16,10 L16,8 Z M24,8 L26,8 L26,10 L24,10 L24,8 Z M32,8 L34,8 L34,10 L32,10 L32,8 Z M40,8 L42,8 L42,10 L40,10 L40,8 Z M48,8 L50,8 L50,10 L48,10 L48,8 Z M56,8 L58,8 L58,10 L56,10 L56,8 Z M0,16 L2,16 L2,18 L0,18 L0,16 Z M8,16 L10,16 L10,18 L8,18 L8,16 Z M16,16 L18,16 L18,18 L16,18 L16,16 Z M24,16 L26,16 L26,18 L24,18 L24,16 Z M32,16 L34,16 L34,18 L32,18 L32,16 Z M40,16 L42,16 L42,18 L40,18 L40,16 Z M48,16 L50,16 L50,18 L48,18 L48,16 Z M56,16 L58,16 L58,18 L56,18 L56,16 Z M0,24 L2,24 L2,26 L0,26 L0,24 Z M8,24 L10,24 L10,26 L8,26 L8,24 Z M16,24 L18,24 L18,26 L16,26 L16,24 Z M24,24 L26,24 L26,26 L24,26 L24,24 Z M32,24 L34,24 L34,26 L32,26 L32,24 Z M40,24 L42,24 L42,26 L40,26 L40,24 Z M48,24 L50,24 L50,26 L48,26 L48,24 Z M56,24 L58,24 L58,26 L56,26 L56,24 Z M0,32 L2,32 L2,34 L0,34 L0,32 Z M8,32 L10,32 L10,34 L8,34 L8,32 Z M16,32 L18,32 L18,34 L16,34 L16,32 Z M24,32 L26,32 L26,34 L24,34 L24,32 Z M32,32 L34,32 L34,34 L32,34 L32,32 Z M40,32 L42,32 L42,34 L40,34 L40,32 Z M48,32 L50,32 L50,34 L48,34 L48,32 Z M56,32 L58,32 L58,34 L56,34 L56,32 Z M0,40 L2,40 L2,42 L0,42 L0,40 Z M8,40 L10,40 L10,42 L8,42 L8,40 Z M16,40 L18,40 L18,42 L16,42 L16,40 Z M24,40 L26,40 L26,42 L24,42 L24,40 Z M32,40 L34,40 L34,42 L32,42 L32,40 Z M40,40 L42,40 L42,42 L40,42 L40,40 Z M48,40 L50,40 L50,42 L48,42 L48,40 Z M56,40 L58,40 L58,42 L56,42 L56,40 Z M0,48 L2,48 L2,50 L0,50 L0,48 Z M8,48 L10,48 L10,50 L8,50 L8,48 Z M16,48 L18,48 L18,50 L16,50 L16,48 Z M24,48 L26,48 L26,50 L24,50 L24,48 Z M32,48 L34,48 L34,50 L32,50 L32,48 Z M40,48 L42,48 L42,50 L40,50 L40,48 Z M48,48 L50,48 L50,50 L48,50 L48,48 Z M56,48 L58,48 L58,50 L56,50 L56,48 Z M0,56 L2,56 L2,58 L0,58 L0,56 Z M8,56 L10,56 L10,58 L8,58 L8,56 Z M16,56 L18,56 L18,58 L16,58 L16,56 Z M24,56 L26,56 L26,58 L24,58 L24,56 Z M32,56 L34,56 L34,58 L32,58 L32,56 Z M40,56 L42,56 L42,58 L40,58 L40,56 Z M48,56 L50,56 L50,58 L48,58 L48,56 Z M56,56 L58,56 L58,58 L56,58 L56,56 Z M88,56 L90,56 L90,58 L88,58 L88,56 Z M96,56 L98,56 L98,58 L96,58 L96,56 Z M104,56 L106,56 L106,58 L104,58 L104,56 Z M112,56 L114,56 L114,58 L112,58 L112,56 Z M120,56 L122,56 L122,58 L120,58 L120,56 Z M128,56 L130,56 L130,58 L128,58 L128,56 Z M0,64 L2,64 L2,66 L0,66 L0,64 Z M8,64 L10,64 L10,66 L8,66 L8,64 Z M16,64 L18,64 L18,66 L16,66 L16,64 Z M24,64 L26,64 L26,66 L24,66 L24,64 Z M32,64 L34,64 L34,66 L32,66 L32,64 Z M40,64 L42,64 L42,66 L40,66 L40,64 Z M48,64 L50,64 L50,66 L48,66 L48,64 Z M56,64 L58,64 L58,66 L56,66 L56,64 Z M80,64 L82,64 L82,66 L80,66 L80,64 Z M88,64 L90,64 L90,66 L88,66 L88,64 Z M96,64 L98,64 L98,66 L96,66 L96,64 Z M104,64 L106,64 L106,66 L104,66 L104,64 Z M112,64 L114,64 L114,66 L112,66 L112,64 Z M120,64 L122,64 L122,66 L120,66 L120,64 Z M128,64 L130,64 L130,66 L128,66 L128,64 Z M136,64 L138,64 L138,66 L136,66 L136,64 Z M0,72 L2,72 L2,74 L0,74 L0,72 Z M8,72 L10,72 L10,74 L8,74 L8,72 Z M16,72 L18,72 L18,74 L16,74 L16,72 Z M24,72 L26,72 L26,74 L24,74 L24,72 Z M32,72 L34,72 L34,74 L32,74 L32,72 Z M40,72 L42,72 L42,74 L40,74 L40,72 Z M48,72 L50,72 L50,74 L48,74 L48,72 Z M56,72 L58,72 L58,74 L56,74 L56,72 Z M80,72 L82,72 L82,74 L80,74 L80,72 Z M88,72 L90,72 L90,74 L88,74 L88,72 Z M96,72 L98,72 L98,74 L96,74 L96,72 Z M104,72 L106,72 L106,74 L104,74 L104,72 Z M112,72 L114,72 L114,74 L112,74 L112,72 Z M120,72 L122,72 L122,74 L120,74 L120,72 Z M128,72 L130,72 L130,74 L128,74 L128,72 Z M136,72 L138,72 L138,74 L136,74 L136,72 Z M0,80 L2,80 L2,82 L0,82 L0,80 Z M8,80 L10,80 L10,82 L8,82 L8,80 Z M16,80 L18,80 L18,82 L16,82 L16,80 Z M24,80 L26,80 L26,82 L24,82 L24,80 Z M32,80 L34,80 L34,82 L32,82 L32,80 Z M40,80 L42,80 L42,82 L40,82 L40,80 Z M48,80 L50,80 L50,82 L48,82 L48,80 Z M56,80 L58,80 L58,82 L56,82 L56,80 Z M80,80 L82,80 L82,82 L80,82 L80,80 Z M88,80 L90,80 L90,82 L88,82 L88,80 Z M96,80 L98,80 L98,82 L96,82 L96,80 Z M104,80 L106,80 L106,82 L104,82 L104,80 Z M112,80 L114,80 L114,82 L112,82 L112,80 Z M120,80 L122,80 L122,82 L120,82 L120,80 Z M128,80 L130,80 L130,82 L128,82 L128,80 Z M136,80 L138,80 L138,82 L136,82 L136,80 Z M0,88 L2,88 L2,90 L0,90 L0,88 Z M8,88 L10,88 L10,90 L8,90 L8,88 Z M16,88 L18,88 L18,90 L16,90 L16,88 Z M24,88 L26,88 L26,90 L24,90 L24,88 Z M32,88 L34,88 L34,90 L32,90 L32,88 Z M40,88 L42,88 L42,90 L40,90 L40,88 Z M48,88 L50,88 L50,90 L48,90 L48,88 Z M56,88 L58,88 L58,90 L56,90 L56,88 Z M80,88 L82,88 L82,90 L80,90 L80,88 Z M88,88 L90,88 L90,90 L88,90 L88,88 Z M96,88 L98,88 L98,90 L96,90 L96,88 Z M104,88 L106,88 L106,90 L104,90 L104,88 Z M112,88 L114,88 L114,90 L112,90 L112,88 Z M120,88 L122,88 L122,90 L120,90 L120,88 Z M128,88 L130,88 L130,90 L128,90 L128,88 Z M136,88 L138,88 L138,90 L136,90 L136,88 Z M8,96 L10,96 L10,98 L8,98 L8,96 Z M16,96 L18,96 L18,98 L16,98 L16,96 Z M24,96 L26,96 L26,98 L24,98 L24,96 Z M32,96 L34,96 L34,98 L32,98 L32,96 Z M40,96 L42,96 L42,98 L40,98 L40,96 Z M48,96 L50,96 L50,98 L48,98 L48,96 Z M80,96 L82,96 L82,98 L80,98 L80,96 Z M88,96 L90,96 L90,98 L88,98 L88,96 Z M96,96 L98,96 L98,98 L96,98 L96,96 Z M104,96 L106,96 L106,98 L104,98 L104,96 Z M112,96 L114,96 L114,98 L112,98 L112,96 Z M120,96 L122,96 L122,98 L120,98 L120,96 Z M128,96 L130,96 L130,98 L128,98 L128,96 Z M136,96 L138,96 L138,98 L136,98 L136,96 Z M80,104 L82,104 L82,106 L80,106 L80,104 Z M88,104 L90,104 L90,106 L88,106 L88,104 Z M96,104 L98,104 L98,106 L96,106 L96,104 Z M104,104 L106,104 L106,106 L104,106 L104,104 Z M112,104 L114,104 L114,106 L112,106 L112,104 Z M120,104 L122,104 L122,106 L120,106 L120,104 Z M128,104 L130,104 L130,106 L128,106 L128,104 Z M136,104 L138,104 L138,106 L136,106 L136,104 Z M88,112 L90,112 L90,114 L88,114 L88,112 Z M96,112 L98,112 L98,114 L96,114 L96,112 Z M104,112 L106,112 L106,114 L104,114 L104,112 Z M112,112 L114,112 L114,114 L112,114 L112,112 Z M120,112 L122,112 L122,114 L120,114 L120,112 Z M128,112 L130,112 L130,114 L128,114 L128,112 Z" id="Combined-Shape" fill="#A0BBE7"></path>
            <path d="M73.5,116 C60.0094572,116 49,112.085526 49,106 C49,99.9144737 60.0094572,96 73.5,96 C86.9905428,96 98,99.9144737 98,106 C98,112.085526 86.9905428,116 73.5,116 Z M73.5,112 C84.8622709,112 94,108.75103 94,106 C94,103.24897 84.8622709,100 73.5,100 C62.1377291,100 53,103.24897 53,106 C53,108.75103 62.1377291,112 73.5,112 Z" id="Эллипс_7_копия_3" fill="#064CBE" fill-rule="nonzero"></path>
            <path d="M49,105.992858 C49,104.888288 49.8954305,103.992858 51,103.992858 C52.1045695,103.992858 53,104.888288 53,105.992858 L53,136 C53,138.75103 62.1377291,142 73.5,142 C84.8622709,142 94,138.75103 94,136 L94,105.498227 C94,104.393657 94.8954305,103.498227 96,103.498227 C97.1045695,103.498227 98,104.393657 98,105.498227 L98,136 C98,142.085526 86.9905428,146 73.5,146 C60.0094572,146 49,142.085526 49,136 L49,105.992858 Z" id="Эллипс_7_копия_3-Copy-2" fill="#064CBE" fill-rule="nonzero"></path>
            <path d="M49,106 C49,104.895431 49.8954305,104 51,104 C52.1045695,104 53,104.895431 53,106 C53,108.75103 62.1377291,112 73.5,112 C84.8622709,112 94,108.75103 94,106 C94,104.895431 94.8954305,104 96,104 C97.1045695,104 98,104.895431 98,106 C98,112.085526 86.9905428,116 73.5,116 C60.0094572,116 49,112.085526 49,106 Z" id="Эллипс_7_копия_3-Copy-6" fill="#064CBE" fill-rule="nonzero"></path>
            <path d="M49,116 C49,114.895431 49.8954305,114 51,114 C52.1045695,114 53,114.895431 53,116 C53,118.75103 62.1377291,122 73.5,122 C84.8622709,122 94,118.75103 94,116 C94,114.895431 94.8954305,114 96,114 C97.1045695,114 98,114.895431 98,116 C98,122.085526 86.9905428,126 73.5,126 C60.0094572,126 49,122.085526 49,116 Z" id="Эллипс_7_копия_3-Copy-7" fill="#064CBE" fill-rule="nonzero"></path>
            <path d="M49,126 C49,124.895431 49.8954305,124 51,124 C52.1045695,124 53,124.895431 53,126 C53,128.75103 62.1377291,132 73.5,132 C84.8622709,132 94,128.75103 94,126 C94,124.895431 94.8954305,124 96,124 C97.1045695,124 98,124.895431 98,126 C98,132.085526 86.9905428,136 73.5,136 C60.0094572,136 49,132.085526 49,126 Z" id="Эллипс_7_копия_3-Copy-8" fill="#064CBE" fill-rule="nonzero"></path>
        </g>
        <g id="Group-7" transform="translate(0.000000, 59.000000)" fill="#064CBE" fill-rule="nonzero">
            <path d="M24.5,20 C11.0094572,20 0,16.0855263 0,10 C0,3.91447366 11.0094572,0 24.5,0 C37.9905428,0 49,3.91447366 49,10 C49,16.0855263 37.9905428,20 24.5,20 Z M24.5,16 C35.8622709,16 45,12.7510297 45,10 C45,7.24897034 35.8622709,4 24.5,4 C13.1377291,4 4,7.24897034 4,10 C4,12.7510297 13.1377291,16 24.5,16 Z" id="Эллипс_7_копия_3"></path>
            <path d="M0,9.99285751 C0,8.88828801 0.8954305,7.99285751 2,7.99285751 C3.1045695,7.99285751 4,8.88828801 4,9.99285751 L4,70 C4,72.7510297 13.1377291,76 24.5,76 C35.8622709,76 45,72.7510297 45,70 L45,9.49822697 C45,8.39365747 45.8954305,7.49822697 47,7.49822697 C48.1045695,7.49822697 49,8.39365747 49,9.49822697 L49,70 C49,76.0855263 37.9905428,80 24.5,80 C11.0094572,80 0,76.0855263 0,70 L0,9.99285751 Z" id="Эллипс_7_копия_3-Copy-2"></path>
            <path d="M0,20 L4,20 C4,22.7510297 13.1377291,26 24.5,26 C35.8622709,26 45,22.7510297 45,20 L49,20 C49,26.0855263 37.9905428,30 24.5,30 C11.0094572,30 0,26.0855263 0,20 Z" id="Эллипс_7_копия_3-Copy-3"></path>
            <path d="M0,30 C0,28.8954305 0.8954305,28 2,28 C3.1045695,28 4,28.8954305 4,30 C4,32.7510297 13.1377291,36 24.5,36 C35.8622709,36 45,32.7510297 45,30 C45,28.8954305 45.8954305,28 47,28 C48.1045695,28 49,28.8954305 49,30 C49,36.0855263 37.9905428,40 24.5,40 C11.0094572,40 0,36.0855263 0,30 Z" id="Эллипс_7_копия_3-Copy-4"></path>
            <path d="M0,40 L4,40 C4,42.7510297 13.1377291,46 24.5,46 C35.8622709,46 45,42.7510297 45,40 L49,40 C49,46.0855263 37.9905428,50 24.5,50 C11.0094572,50 0,46.0855263 0,40 Z" id="Эллипс_7_копия_3-Copy-5"></path>
            <path d="M0,50 C0,48.8954305 0.8954305,48 2,48 C3.1045695,48 4,48.8954305 4,50 C4,52.7510297 13.1377291,56 24.5,56 C35.8622709,56 45,52.7510297 45,50 C45,48.8954305 45.8954305,48 47,48 C48.1045695,48 49,48.8954305 49,50 C49,56.0855263 37.9905428,60 24.5,60 C11.0094572,60 0,56.0855263 0,50 Z" id="Эллипс_7_копия_3-Copy-6"></path>
            <path d="M0,60 L4,60 C4,62.7510297 13.1377291,66 24.5,66 C35.8622709,66 45,62.7510297 45,60 L49,60 C49,66.0855263 37.9905428,70 24.5,70 C11.0094572,70 0,66.0855263 0,60 Z" id="Эллипс_7_копия_3-Copy-7"></path>
            <path d="M0,70 C0,68.8954305 0.8954305,68 2,68 C3.1045695,68 4,68.8954305 4,70 C4,72.7510297 13.1377291,76 24.5,76 C35.8622709,76 45,72.7510297 45,70 C45,68.8954305 45.8954305,68 47,68 C48.1045695,68 49,68.8954305 49,70 C49,76.0855263 37.9905428,80 24.5,80 C11.0094572,80 0,76.0855263 0,70 Z" id="Эллипс_7_копия_3-Copy-8"></path>
        </g>
    </g>
</svg>