<?xml version="1.0" encoding="UTF-8"?>
<svg width="150px" height="150px" viewBox="0 0 150 150" version="1.1" xmlns="http://www.w3.org/2000/svg" xmlns:xlink="http://www.w3.org/1999/xlink">
    <!-- Generator: Sketch 48.2 (47327) - http://www.bohemiancoding.com/sketch -->
    <title>margins-ico</title>
    <desc>Created with Sketch.</desc>
    <defs></defs>
    <g id="icons/margins" stroke="none" stroke-width="1" fill="none" fill-rule="evenodd">
        <g id="margins-ico" transform="translate(0.000000, 3.000000)">
            <path d="M67,0 L69,0 L69,2 L67,2 L67,0 Z M75,0 L77,0 L77,2 L75,2 L75,0 Z M83,0 L85,0 L85,2 L83,2 L83,0 Z M91,0 L93,0 L93,2 L91,2 L91,0 Z M99,0 L101,0 L101,2 L99,2 L99,0 Z M51,8 L53,8 L53,10 L51,10 L51,8 Z M59,8 L61,8 L61,10 L59,10 L59,8 Z M67,8 L69,8 L69,10 L67,10 L67,8 Z M75,8 L77,8 L77,10 L75,10 L75,8 Z M83,8 L85,8 L85,10 L83,10 L83,8 Z M91,8 L93,8 L93,10 L91,10 L91,8 Z M99,8 L101,8 L101,10 L99,10 L99,8 Z M107,8 L109,8 L109,10 L107,10 L107,8 Z M115,8 L117,8 L117,10 L115,10 L115,8 Z M43,16 L45,16 L45,18 L43,18 L43,16 Z M51,16 L53,16 L53,18 L51,18 L51,16 Z M59,16 L61,16 L61,18 L59,18 L59,16 Z M67,16 L69,16 L69,18 L67,18 L67,16 Z M75,16 L77,16 L77,18 L75,18 L75,16 Z M83,16 L85,16 L85,18 L83,18 L83,16 Z M91,16 L93,16 L93,18 L91,18 L91,16 Z M99,16 L101,16 L101,18 L99,18 L99,16 Z M107,16 L109,16 L109,18 L107,18 L107,16 Z M115,16 L117,16 L117,18 L115,18 L115,16 Z M123,16 L125,16 L125,18 L123,18 L123,16 Z M35,24 L37,24 L37,26 L35,26 L35,24 Z M43,24 L45,24 L45,26 L43,26 L43,24 Z M51,24 L53,24 L53,26 L51,26 L51,24 Z M59,24 L61,24 L61,26 L59,26 L59,24 Z M67,24 L69,24 L69,26 L67,26 L67,24 Z M75,24 L77,24 L77,26 L75,26 L75,24 Z M83,24 L85,24 L85,26 L83,26 L83,24 Z M91,24 L93,24 L93,26 L91,26 L91,24 Z M99,24 L101,24 L101,26 L99,26 L99,24 Z M107,24 L109,24 L109,26 L107,26 L107,24 Z M115,24 L117,24 L117,26 L115,26 L115,24 Z M123,24 L125,24 L125,26 L123,26 L123,24 Z M131,24 L133,24 L133,26 L131,26 L131,24 Z M35,32 L37,32 L37,34 L35,34 L35,32 Z M43,32 L45,32 L45,34 L43,34 L43,32 Z M51,32 L53,32 L53,34 L51,34 L51,32 Z M59,32 L61,32 L61,34 L59,34 L59,32 Z M67,32 L69,32 L69,34 L67,34 L67,32 Z M75,32 L77,32 L77,34 L75,34 L75,32 Z M83,32 L85,32 L85,34 L83,34 L83,32 Z M91,32 L93,32 L93,34 L91,34 L91,32 Z M99,32 L101,32 L101,34 L99,34 L99,32 Z M107,32 L109,32 L109,34 L107,34 L107,32 Z M115,32 L117,32 L117,34 L115,34 L115,32 Z M123,32 L125,32 L125,34 L123,34 L123,32 Z M131,32 L133,32 L133,34 L131,34 L131,32 Z M27,40 L29,40 L29,42 L27,42 L27,40 Z M35,40 L37,40 L37,42 L35,42 L35,40 Z M43,40 L45,40 L45,42 L43,42 L43,40 Z M51,40 L53,40 L53,42 L51,42 L51,40 Z M59,40 L61,40 L61,42 L59,42 L59,40 Z M67,40 L69,40 L69,42 L67,42 L67,40 Z M75,40 L77,40 L77,42 L75,42 L75,40 Z M83,40 L85,40 L85,42 L83,42 L83,40 Z M91,40 L93,40 L93,42 L91,42 L91,40 Z M99,40 L101,40 L101,42 L99,42 L99,40 Z M107,40 L109,40 L109,42 L107,42 L107,40 Z M115,40 L117,40 L117,42 L115,42 L115,40 Z M123,40 L125,40 L125,42 L123,42 L123,40 Z M131,40 L133,40 L133,42 L131,42 L131,40 Z M139,40 L141,40 L141,42 L139,42 L139,40 Z M27,48 L29,48 L29,50 L27,50 L27,48 Z M35,48 L37,48 L37,50 L35,50 L35,48 Z M43,48 L45,48 L45,50 L43,50 L43,48 Z M51,48 L53,48 L53,50 L51,50 L51,48 Z M59,48 L61,48 L61,50 L59,50 L59,48 Z M67,48 L69,48 L69,50 L67,50 L67,48 Z M75,48 L77,48 L77,50 L75,50 L75,48 Z M83,48 L85,48 L85,50 L83,50 L83,48 Z M91,48 L93,48 L93,50 L91,50 L91,48 Z M99,48 L101,48 L101,50 L99,50 L99,48 Z M107,48 L109,48 L109,50 L107,50 L107,48 Z M115,48 L117,48 L117,50 L115,50 L115,48 Z M123,48 L125,48 L125,50 L123,50 L123,48 Z M131,48 L133,48 L133,50 L131,50 L131,48 Z M139,48 L141,48 L141,50 L139,50 L139,48 Z M27,56 L29,56 L29,58 L27,58 L27,56 Z M35,56 L37,56 L37,58 L35,58 L35,56 Z M43,56 L45,56 L45,58 L43,58 L43,56 Z M51,56 L53,56 L53,58 L51,58 L51,56 Z M59,56 L61,56 L61,58 L59,58 L59,56 Z M67,56 L69,56 L69,58 L67,58 L67,56 Z M75,56 L77,56 L77,58 L75,58 L75,56 Z M83,56 L85,56 L85,58 L83,58 L83,56 Z M91,56 L93,56 L93,58 L91,58 L91,56 Z M99,56 L101,56 L101,58 L99,58 L99,56 Z M107,56 L109,56 L109,58 L107,58 L107,56 Z M115,56 L117,56 L117,58 L115,58 L115,56 Z M123,56 L125,56 L125,58 L123,58 L123,56 Z M131,56 L133,56 L133,58 L131,58 L131,56 Z M139,56 L141,56 L141,58 L139,58 L139,56 Z M27,64 L29,64 L29,66 L27,66 L27,64 Z M35,64 L37,64 L37,66 L35,66 L35,64 Z M43,64 L45,64 L45,66 L43,66 L43,64 Z M51,64 L53,64 L53,66 L51,66 L51,64 Z M59,64 L61,64 L61,66 L59,66 L59,64 Z M67,64 L69,64 L69,66 L67,66 L67,64 Z M75,64 L77,64 L77,66 L75,66 L75,64 Z M83,64 L85,64 L85,66 L83,66 L83,64 Z M91,64 L93,64 L93,66 L91,66 L91,64 Z M99,64 L101,64 L101,66 L99,66 L99,64 Z M107,64 L109,64 L109,66 L107,66 L107,64 Z M115,64 L117,64 L117,66 L115,66 L115,64 Z M123,64 L125,64 L125,66 L123,66 L123,64 Z M131,64 L133,64 L133,66 L131,66 L131,64 Z M139,64 L141,64 L141,66 L139,66 L139,64 Z M27,72 L29,72 L29,74 L27,74 L27,72 Z M35,72 L37,72 L37,74 L35,74 L35,72 Z M43,72 L45,72 L45,74 L43,74 L43,72 Z M51,72 L53,72 L53,74 L51,74 L51,72 Z M59,72 L61,72 L61,74 L59,74 L59,72 Z M67,72 L69,72 L69,74 L67,74 L67,72 Z M75,72 L77,72 L77,74 L75,74 L75,72 Z M83,72 L85,72 L85,74 L83,74 L83,72 Z M91,72 L93,72 L93,74 L91,74 L91,72 Z M99,72 L101,72 L101,74 L99,74 L99,72 Z M107,72 L109,72 L109,74 L107,74 L107,72 Z M115,72 L117,72 L117,74 L115,74 L115,72 Z M123,72 L125,72 L125,74 L123,74 L123,72 Z M131,72 L133,72 L133,74 L131,74 L131,72 Z M139,72 L141,72 L141,74 L139,74 L139,72 Z M35,80 L37,80 L37,82 L35,82 L35,80 Z M43,80 L45,80 L45,82 L43,82 L43,80 Z M51,80 L53,80 L53,82 L51,82 L51,80 Z M59,80 L61,80 L61,82 L59,82 L59,80 Z M67,80 L69,80 L69,82 L67,82 L67,80 Z M75,80 L77,80 L77,82 L75,82 L75,80 Z M83,80 L85,80 L85,82 L83,82 L83,80 Z M91,80 L93,80 L93,82 L91,82 L91,80 Z M99,80 L101,80 L101,82 L99,82 L99,80 Z M107,80 L109,80 L109,82 L107,82 L107,80 Z M115,80 L117,80 L117,82 L115,82 L115,80 Z M123,80 L125,80 L125,82 L123,82 L123,80 Z M131,80 L133,80 L133,82 L131,82 L131,80 Z M35,88 L37,88 L37,90 L35,90 L35,88 Z M43,88 L45,88 L45,90 L43,90 L43,88 Z M51,88 L53,88 L53,90 L51,90 L51,88 Z M59,88 L61,88 L61,90 L59,90 L59,88 Z M67,88 L69,88 L69,90 L67,90 L67,88 Z M75,88 L77,88 L77,90 L75,90 L75,88 Z M83,88 L85,88 L85,90 L83,90 L83,88 Z M91,88 L93,88 L93,90 L91,90 L91,88 Z M99,88 L101,88 L101,90 L99,90 L99,88 Z M107,88 L109,88 L109,90 L107,90 L107,88 Z M115,88 L117,88 L117,90 L115,90 L115,88 Z M123,88 L125,88 L125,90 L123,90 L123,88 Z M131,88 L133,88 L133,90 L131,90 L131,88 Z M43,96 L45,96 L45,98 L43,98 L43,96 Z M51,96 L53,96 L53,98 L51,98 L51,96 Z M59,96 L61,96 L61,98 L59,98 L59,96 Z M67,96 L69,96 L69,98 L67,98 L67,96 Z M75,96 L77,96 L77,98 L75,98 L75,96 Z M83,96 L85,96 L85,98 L83,98 L83,96 Z M91,96 L93,96 L93,98 L91,98 L91,96 Z M99,96 L101,96 L101,98 L99,98 L99,96 Z M107,96 L109,96 L109,98 L107,98 L107,96 Z M115,96 L117,96 L117,98 L115,98 L115,96 Z M123,96 L125,96 L125,98 L123,98 L123,96 Z M51,104 L53,104 L53,106 L51,106 L51,104 Z M59,104 L61,104 L61,106 L59,106 L59,104 Z M67,104 L69,104 L69,106 L67,106 L67,104 Z M75,104 L77,104 L77,106 L75,106 L75,104 Z M83,104 L85,104 L85,106 L83,106 L83,104 Z M91,104 L93,104 L93,106 L91,106 L91,104 Z M99,104 L101,104 L101,106 L99,106 L99,104 Z M107,104 L109,104 L109,106 L107,106 L107,104 Z M115,104 L117,104 L117,106 L115,106 L115,104 Z M67,112 L69,112 L69,114 L67,114 L67,112 Z M75,112 L77,112 L77,114 L75,114 L75,112 Z M83,112 L85,112 L85,114 L83,114 L83,112 Z M91,112 L93,112 L93,114 L91,114 L91,112 Z M99,112 L101,112 L101,114 L99,114 L99,112 Z" id="Combined-Shape" fill="#A0BBE7"></path>
            <path d="M4.4408921e-16,141.643223 L0,116.290847 L29.717146,110.88773 L42.6342965,119.499164 L66.8418232,112.438635 C70.4671878,111.381237 74.3299874,113.067839 76.0188544,116.445573 C77.7098593,119.827583 76.5991561,123.939982 73.4354188,126.010792 L42.4720505,146.277724 L20.4215246,136.197483 L4.4408921e-16,141.643223 Z M4,136.436777 L20.7784754,131.962517 L42.1279495,141.722276 L71.2447821,122.663986 C72.7098776,121.705014 73.2242333,119.800603 72.4411456,118.234427 C71.6168071,116.58575 69.731369,115.762517 67.9618232,116.278635 L41.9657035,123.860836 L28.842854,115.11227 L4,119.629153 L4,136.436777 Z" id="Path-11" fill="#064CBE" fill-rule="nonzero"></path>
            <path d="M38.5,101 C28.8350169,101 21,93.1649831 21,83.5 C21,73.8350169 28.8350169,66 38.5,66 C48.1649831,66 56,73.8350169 56,83.5 C56,93.1649831 48.1649831,101 38.5,101 Z M38.5,97 C45.9558441,97 52,90.9558441 52,83.5 C52,76.0441559 45.9558441,70 38.5,70 C31.0441559,70 25,76.0441559 25,83.5 C25,90.9558441 31.0441559,97 38.5,97 Z" id="Эллипс_7_копия_3" fill="#064CBE" fill-rule="nonzero"></path>
            <path d="M62.224402,81.6486603 L60.8746452,77.883271 C65.1135629,76.3637713 68,72.3331114 68,67.7553307 C68,61.8153256 63.1846744,57 57.2446693,57 C53.2385362,57 49.6240489,59.207972 47.7619626,62.6750742 L44.2380374,60.7824698 C46.7903834,56.0301422 51.7507771,53 57.2446693,53 C65.3938134,53 72,59.6061866 72,67.7553307 C72,74.035069 68.0408568,79.5636703 62.224402,81.6486603 Z" id="Эллипс_7_копия_3-Copy-9" fill="#064CBE" fill-rule="nonzero"></path>
            <path d="M30.3804436,116.157285 L32.6195564,112.842715 L45.4788264,121.529621 C48.2031428,123.369996 48.9197187,127.07041 47.0793437,129.794726 C46.9196615,130.031104 46.7431952,130.255699 46.5513087,130.466774 C44.1224644,133.138503 40.1299346,133.689704 37.0680361,131.776018 L28.9400021,126.695997 L31.0599979,123.304003 L39.1880318,128.384025 C40.6098111,129.272637 42.4637251,129.016689 43.5915484,127.776083 C43.654498,127.706838 43.712389,127.633159 43.7647738,127.555613 C44.368521,126.661883 44.1334435,125.447938 43.2397135,124.844191 L30.3804436,116.157285 Z" id="Path-12" fill="#064CBE" fill-rule="nonzero"></path>
            <polygon id="Path-13" fill="#064CBE" fill-rule="nonzero" points="10 116 14 116 14 136.506097 10 136.506097"></polygon>
        </g>
    </g>
</svg>