<?xml version="1.0" encoding="UTF-8"?>
<svg width="150px" height="150px" viewBox="0 0 150 150" version="1.1" xmlns="http://www.w3.org/2000/svg" xmlns:xlink="http://www.w3.org/1999/xlink">
    <!-- Generator: Sketch 48.2 (47327) - http://www.bohemiancoding.com/sketch -->
    <title>Security-ico</title>
    <desc>Created with Sketch.</desc>
    <defs></defs>
    <g id="icons/security" stroke="none" stroke-width="1" fill="none" fill-rule="evenodd">
        <path d="M94,3 L96,3 L96,5 L94,5 L94,3 Z M102,3 L104,3 L104,5 L102,5 L102,3 Z M110,3 L112,3 L112,5 L110,5 L110,3 Z M86,11 L88,11 L88,13 L86,13 L86,11 Z M94,11 L96,11 L96,13 L94,13 L94,11 Z M102,11 L104,11 L104,13 L102,13 L102,11 Z M110,11 L112,11 L112,13 L110,13 L110,11 Z M118,11 L120,11 L120,13 L118,13 L118,11 Z M78,19 L80,19 L80,21 L78,21 L78,19 Z M86,19 L88,19 L88,21 L86,21 L86,19 Z M94,19 L96,19 L96,21 L94,21 L94,19 Z M102,19 L104,19 L104,21 L102,21 L102,19 Z M110,19 L112,19 L112,21 L110,21 L110,19 Z M118,19 L120,19 L120,21 L118,21 L118,19 Z M126,19 L128,19 L128,21 L126,21 L126,19 Z M78,27 L80,27 L80,29 L78,29 L78,27 Z M86,27 L88,27 L88,29 L86,29 L86,27 Z M94,27 L96,27 L96,29 L94,29 L94,27 Z M102,27 L104,27 L104,29 L102,29 L102,27 Z M110,27 L112,27 L112,29 L110,29 L110,27 Z M118,27 L120,27 L120,29 L118,29 L118,27 Z M126,27 L128,27 L128,29 L126,29 L126,27 Z M78,35 L80,35 L80,37 L78,37 L78,35 Z M86,35 L88,35 L88,37 L86,37 L86,35 Z M94,35 L96,35 L96,37 L94,37 L94,35 Z M102,35 L104,35 L104,37 L102,37 L102,35 Z M110,35 L112,35 L112,37 L110,37 L110,35 Z M118,35 L120,35 L120,37 L118,37 L118,35 Z M126,35 L128,35 L128,37 L126,37 L126,35 Z M78,43 L80,43 L80,45 L78,45 L78,43 Z M86,43 L88,43 L88,45 L86,45 L86,43 Z M94,43 L96,43 L96,45 L94,45 L94,43 Z M102,43 L104,43 L104,45 L102,45 L102,43 Z M110,43 L112,43 L112,45 L110,45 L110,43 Z M118,43 L120,43 L120,45 L118,45 L118,43 Z M126,43 L128,43 L128,45 L126,45 L126,43 Z M54,51 L56,51 L56,53 L54,53 L54,51 Z M62,51 L64,51 L64,53 L62,53 L62,51 Z M70,51 L72,51 L72,53 L70,53 L70,51 Z M78,51 L80,51 L80,53 L78,53 L78,51 Z M86,51 L88,51 L88,53 L86,53 L86,51 Z M94,51 L96,51 L96,53 L94,53 L94,51 Z M102,51 L104,51 L104,53 L102,53 L102,51 Z M110,51 L112,51 L112,53 L110,53 L110,51 Z M118,51 L120,51 L120,53 L118,53 L118,51 Z M126,51 L128,51 L128,53 L126,53 L126,51 Z M134,51 L136,51 L136,53 L134,53 L134,51 Z M142,51 L144,51 L144,53 L142,53 L142,51 Z M54,59 L56,59 L56,61 L54,61 L54,59 Z M62,59 L64,59 L64,61 L62,61 L62,59 Z M70,59 L72,59 L72,61 L70,61 L70,59 Z M78,59 L80,59 L80,61 L78,61 L78,59 Z M86,59 L88,59 L88,61 L86,61 L86,59 Z M94,59 L96,59 L96,61 L94,61 L94,59 Z M102,59 L104,59 L104,61 L102,61 L102,59 Z M110,59 L112,59 L112,61 L110,61 L110,59 Z M118,59 L120,59 L120,61 L118,61 L118,59 Z M126,59 L128,59 L128,61 L126,61 L126,59 Z M134,59 L136,59 L136,61 L134,61 L134,59 Z M142,59 L144,59 L144,61 L142,61 L142,59 Z M54,67 L56,67 L56,69 L54,69 L54,67 Z M62,67 L64,67 L64,69 L62,69 L62,67 Z M70,67 L72,67 L72,69 L70,69 L70,67 Z M78,67 L80,67 L80,69 L78,69 L78,67 Z M86,67 L88,67 L88,69 L86,69 L86,67 Z M94,67 L96,67 L96,69 L94,69 L94,67 Z M102,67 L104,67 L104,69 L102,69 L102,67 Z M110,67 L112,67 L112,69 L110,69 L110,67 Z M118,67 L120,67 L120,69 L118,69 L118,67 Z M126,67 L128,67 L128,69 L126,69 L126,67 Z M134,67 L136,67 L136,69 L134,69 L134,67 Z M142,67 L144,67 L144,69 L142,69 L142,67 Z M54,75 L56,75 L56,77 L54,77 L54,75 Z M62,75 L64,75 L64,77 L62,77 L62,75 Z M70,75 L72,75 L72,77 L70,77 L70,75 Z M78,75 L80,75 L80,77 L78,77 L78,75 Z M86,75 L88,75 L88,77 L86,77 L86,75 Z M94,75 L96,75 L96,77 L94,77 L94,75 Z M102,75 L104,75 L104,77 L102,77 L102,75 Z M110,75 L112,75 L112,77 L110,77 L110,75 Z M118,75 L120,75 L120,77 L118,77 L118,75 Z M126,75 L128,75 L128,77 L126,77 L126,75 Z M134,75 L136,75 L136,77 L134,77 L134,75 Z M142,75 L144,75 L144,77 L142,77 L142,75 Z M54,83 L56,83 L56,85 L54,85 L54,83 Z M62,83 L64,83 L64,85 L62,85 L62,83 Z M70,83 L72,83 L72,85 L70,85 L70,83 Z M78,83 L80,83 L80,85 L78,85 L78,83 Z M86,83 L88,83 L88,85 L86,85 L86,83 Z M94,83 L96,83 L96,85 L94,85 L94,83 Z M102,83 L104,83 L104,85 L102,85 L102,83 Z M110,83 L112,83 L112,85 L110,85 L110,83 Z M118,83 L120,83 L120,85 L118,85 L118,83 Z M126,83 L128,83 L128,85 L126,85 L126,83 Z M134,83 L136,83 L136,85 L134,85 L134,83 Z M142,83 L144,83 L144,85 L142,85 L142,83 Z M54,91 L56,91 L56,93 L54,93 L54,91 Z M62,91 L64,91 L64,93 L62,93 L62,91 Z M70,91 L72,91 L72,93 L70,93 L70,91 Z M78,91 L80,91 L80,93 L78,93 L78,91 Z M86,91 L88,91 L88,93 L86,93 L86,91 Z M94,91 L96,91 L96,93 L94,93 L94,91 Z M102,91 L104,91 L104,93 L102,93 L102,91 Z M110,91 L112,91 L112,93 L110,93 L110,91 Z M118,91 L120,91 L120,93 L118,93 L118,91 Z M126,91 L128,91 L128,93 L126,93 L126,91 Z M134,91 L136,91 L136,93 L134,93 L134,91 Z M142,91 L144,91 L144,93 L142,93 L142,91 Z M54,99 L56,99 L56,101 L54,101 L54,99 Z M62,99 L64,99 L64,101 L62,101 L62,99 Z M70,99 L72,99 L72,101 L70,101 L70,99 Z M78,99 L80,99 L80,101 L78,101 L78,99 Z M86,99 L88,99 L88,101 L86,101 L86,99 Z M94,99 L96,99 L96,101 L94,101 L94,99 Z M102,99 L104,99 L104,101 L102,101 L102,99 Z M110,99 L112,99 L112,101 L110,101 L110,99 Z M118,99 L120,99 L120,101 L118,101 L118,99 Z M126,99 L128,99 L128,101 L126,101 L126,99 Z M134,99 L136,99 L136,101 L134,101 L134,99 Z M142,99 L144,99 L144,101 L142,101 L142,99 Z M54,107 L56,107 L56,109 L54,109 L54,107 Z M62,107 L64,107 L64,109 L62,109 L62,107 Z M70,107 L72,107 L72,109 L70,109 L70,107 Z M78,107 L80,107 L80,109 L78,109 L78,107 Z M86,107 L88,107 L88,109 L86,109 L86,107 Z M94,107 L96,107 L96,109 L94,109 L94,107 Z M102,107 L104,107 L104,109 L102,109 L102,107 Z M110,107 L112,107 L112,109 L110,109 L110,107 Z M118,107 L120,107 L120,109 L118,109 L118,107 Z M126,107 L128,107 L128,109 L126,109 L126,107 Z M134,107 L136,107 L136,109 L134,109 L134,107 Z M142,107 L144,107 L144,109 L142,109 L142,107 Z M54,115 L56,115 L56,117 L54,117 L54,115 Z M62,115 L64,115 L64,117 L62,117 L62,115 Z M70,115 L72,115 L72,117 L70,117 L70,115 Z M78,115 L80,115 L80,117 L78,117 L78,115 Z M86,115 L88,115 L88,117 L86,117 L86,115 Z M94,115 L96,115 L96,117 L94,117 L94,115 Z M102,115 L104,115 L104,117 L102,117 L102,115 Z M110,115 L112,115 L112,117 L110,117 L110,115 Z M118,115 L120,115 L120,117 L118,117 L118,115 Z M126,115 L128,115 L128,117 L126,117 L126,115 Z M134,115 L136,115 L136,117 L134,117 L134,115 Z M142,115 L144,115 L144,117 L142,117 L142,115 Z" id="Combined-Shape" fill="#A0BBE7"></path>
        <g id="Security-ico" transform="translate(0.000000, 49.000000)" fill="#064CBE" fill-rule="nonzero">
            <path d="M4.38888889,42.4210526 L4.38888889,96.5789474 L74.6111111,96.5789474 L74.6111111,42.4210526 L4.38888889,42.4210526 Z M0,38 L79,38 L79,101 L0,101 L0,38 Z" id="Rectangle-4"></path>
            <path d="M18.7347856,37.4695713 L59.5104955,37.4695713 L59.5104955,24.7960398 C59.5104955,13.5361384 50.3825419,4.40818485 39.1226406,4.40818485 C27.8627392,4.40818485 18.7347856,13.5361384 18.7347856,24.7960398 L18.7347856,37.4695713 Z M39.1226406,0 C52.8171152,0 63.9186804,11.1015652 63.9186804,24.7960398 L63.9186804,41.8777561 L14.3266008,41.8777561 L14.3266008,24.7960398 C14.3266008,11.1015652 25.4281659,0 39.1226406,0 Z" id="Rectangle-4-Copy"></path>
            <path d="M39,56 C41.7614237,56 44,58.2385763 44,61 C44,63.7614237 41.7614237,66 39,66 C36.2385763,66 34,63.7614237 34,61 C34,58.2385763 36.2385763,56 39,56 Z" id="Rectangle-4-Copy-2"></path>
            <polygon id="Path-5" points="37 64 41 64 41 73.5131488 37 73.5131488"></polygon>
        </g>
    </g>
</svg>