<?xml version="1.0" encoding="UTF-8"?>
<svg width="150px" height="150px" viewBox="0 0 150 150" version="1.1" xmlns="http://www.w3.org/2000/svg" xmlns:xlink="http://www.w3.org/1999/xlink">
    <!-- Generator: Sketch 48.2 (47327) - http://www.bohemiancoding.com/sketch -->
    <title>verification-ico</title>
    <desc>Created with Sketch.</desc>
    <defs></defs>
    <g id="icons/verification" stroke="none" stroke-width="1" fill="none" fill-rule="evenodd">
        <path d="M86,3 L88,3 L88,5 L86,5 L86,3 Z M94,3 L96,3 L96,5 L94,5 L94,3 Z M102,3 L104,3 L104,5 L102,5 L102,3 Z M78,11 L80,11 L80,13 L78,13 L78,11 Z M86,11 L88,11 L88,13 L86,13 L86,11 Z M94,11 L96,11 L96,13 L94,13 L94,11 Z M102,11 L104,11 L104,13 L102,13 L102,11 Z M110,11 L112,11 L112,13 L110,13 L110,11 Z M62,19 L64,19 L64,21 L62,21 L62,19 Z M70,19 L72,19 L72,21 L70,21 L70,19 Z M78,19 L80,19 L80,21 L78,21 L78,19 Z M86,19 L88,19 L88,21 L86,21 L86,19 Z M94,19 L96,19 L96,21 L94,21 L94,19 Z M102,19 L104,19 L104,21 L102,21 L102,19 Z M110,19 L112,19 L112,21 L110,21 L110,19 Z M118,19 L120,19 L120,21 L118,21 L118,19 Z M126,19 L128,19 L128,21 L126,21 L126,19 Z M46,27 L48,27 L48,29 L46,29 L46,27 Z M54,27 L56,27 L56,29 L54,29 L54,27 Z M62,27 L64,27 L64,29 L62,29 L62,27 Z M70,27 L72,27 L72,29 L70,29 L70,27 Z M78,27 L80,27 L80,29 L78,29 L78,27 Z M86,27 L88,27 L88,29 L86,29 L86,27 Z M94,27 L96,27 L96,29 L94,29 L94,27 Z M102,27 L104,27 L104,29 L102,29 L102,27 Z M110,27 L112,27 L112,29 L110,29 L110,27 Z M118,27 L120,27 L120,29 L118,29 L118,27 Z M126,27 L128,27 L128,29 L126,29 L126,27 Z M134,27 L136,27 L136,29 L134,29 L134,27 Z M142,27 L144,27 L144,29 L142,29 L142,27 Z M46,35 L48,35 L48,37 L46,37 L46,35 Z M54,35 L56,35 L56,37 L54,37 L54,35 Z M62,35 L64,35 L64,37 L62,37 L62,35 Z M70,35 L72,35 L72,37 L70,37 L70,35 Z M78,35 L80,35 L80,37 L78,37 L78,35 Z M86,35 L88,35 L88,37 L86,37 L86,35 Z M94,35 L96,35 L96,37 L94,37 L94,35 Z M102,35 L104,35 L104,37 L102,37 L102,35 Z M110,35 L112,35 L112,37 L110,37 L110,35 Z M118,35 L120,35 L120,37 L118,37 L118,35 Z M126,35 L128,35 L128,37 L126,37 L126,35 Z M134,35 L136,35 L136,37 L134,37 L134,35 Z M142,35 L144,35 L144,37 L142,37 L142,35 Z M46,43 L48,43 L48,45 L46,45 L46,43 Z M54,43 L56,43 L56,45 L54,45 L54,43 Z M62,43 L64,43 L64,45 L62,45 L62,43 Z M70,43 L72,43 L72,45 L70,45 L70,43 Z M78,43 L80,43 L80,45 L78,45 L78,43 Z M86,43 L88,43 L88,45 L86,45 L86,43 Z M94,43 L96,43 L96,45 L94,45 L94,43 Z M102,43 L104,43 L104,45 L102,45 L102,43 Z M110,43 L112,43 L112,45 L110,45 L110,43 Z M118,43 L120,43 L120,45 L118,45 L118,43 Z M126,43 L128,43 L128,45 L126,45 L126,43 Z M134,43 L136,43 L136,45 L134,45 L134,43 Z M142,43 L144,43 L144,45 L142,45 L142,43 Z M46,51 L48,51 L48,53 L46,53 L46,51 Z M54,51 L56,51 L56,53 L54,53 L54,51 Z M62,51 L64,51 L64,53 L62,53 L62,51 Z M70,51 L72,51 L72,53 L70,53 L70,51 Z M78,51 L80,51 L80,53 L78,53 L78,51 Z M86,51 L88,51 L88,53 L86,53 L86,51 Z M94,51 L96,51 L96,53 L94,53 L94,51 Z M102,51 L104,51 L104,53 L102,53 L102,51 Z M110,51 L112,51 L112,53 L110,53 L110,51 Z M118,51 L120,51 L120,53 L118,53 L118,51 Z M126,51 L128,51 L128,53 L126,53 L126,51 Z M134,51 L136,51 L136,53 L134,53 L134,51 Z M142,51 L144,51 L144,53 L142,53 L142,51 Z M46,59 L48,59 L48,61 L46,61 L46,59 Z M54,59 L56,59 L56,61 L54,61 L54,59 Z M62,59 L64,59 L64,61 L62,61 L62,59 Z M70,59 L72,59 L72,61 L70,61 L70,59 Z M78,59 L80,59 L80,61 L78,61 L78,59 Z M86,59 L88,59 L88,61 L86,61 L86,59 Z M94,59 L96,59 L96,61 L94,61 L94,59 Z M102,59 L104,59 L104,61 L102,61 L102,59 Z M110,59 L112,59 L112,61 L110,61 L110,59 Z M118,59 L120,59 L120,61 L118,61 L118,59 Z M126,59 L128,59 L128,61 L126,61 L126,59 Z M134,59 L136,59 L136,61 L134,61 L134,59 Z M142,59 L144,59 L144,61 L142,61 L142,59 Z M46,67 L48,67 L48,69 L46,69 L46,67 Z M54,67 L56,67 L56,69 L54,69 L54,67 Z M62,67 L64,67 L64,69 L62,69 L62,67 Z M70,67 L72,67 L72,69 L70,69 L70,67 Z M78,67 L80,67 L80,69 L78,69 L78,67 Z M86,67 L88,67 L88,69 L86,69 L86,67 Z M94,67 L96,67 L96,69 L94,69 L94,67 Z M102,67 L104,67 L104,69 L102,69 L102,67 Z M110,67 L112,67 L112,69 L110,69 L110,67 Z M118,67 L120,67 L120,69 L118,69 L118,67 Z M126,67 L128,67 L128,69 L126,69 L126,67 Z M134,67 L136,67 L136,69 L134,69 L134,67 Z M142,67 L144,67 L144,69 L142,69 L142,67 Z M46,75 L48,75 L48,77 L46,77 L46,75 Z M54,75 L56,75 L56,77 L54,77 L54,75 Z M62,75 L64,75 L64,77 L62,77 L62,75 Z M70,75 L72,75 L72,77 L70,77 L70,75 Z M78,75 L80,75 L80,77 L78,77 L78,75 Z M86,75 L88,75 L88,77 L86,77 L86,75 Z M94,75 L96,75 L96,77 L94,77 L94,75 Z M102,75 L104,75 L104,77 L102,77 L102,75 Z M110,75 L112,75 L112,77 L110,77 L110,75 Z M118,75 L120,75 L120,77 L118,77 L118,75 Z M126,75 L128,75 L128,77 L126,77 L126,75 Z M134,75 L136,75 L136,77 L134,77 L134,75 Z M142,75 L144,75 L144,77 L142,77 L142,75 Z M46,83 L48,83 L48,85 L46,85 L46,83 Z M54,83 L56,83 L56,85 L54,85 L54,83 Z M62,83 L64,83 L64,85 L62,85 L62,83 Z M70,83 L72,83 L72,85 L70,85 L70,83 Z M78,83 L80,83 L80,85 L78,85 L78,83 Z M86,83 L88,83 L88,85 L86,85 L86,83 Z M94,83 L96,83 L96,85 L94,85 L94,83 Z M102,83 L104,83 L104,85 L102,85 L102,83 Z M110,83 L112,83 L112,85 L110,85 L110,83 Z M118,83 L120,83 L120,85 L118,85 L118,83 Z M126,83 L128,83 L128,85 L126,85 L126,83 Z M134,83 L136,83 L136,85 L134,85 L134,83 Z M142,83 L144,83 L144,85 L142,85 L142,83 Z M62,91 L64,91 L64,93 L62,93 L62,91 Z M70,91 L72,91 L72,93 L70,93 L70,91 Z M78,91 L80,91 L80,93 L78,93 L78,91 Z M86,91 L88,91 L88,93 L86,93 L86,91 Z M94,91 L96,91 L96,93 L94,93 L94,91 Z M102,91 L104,91 L104,93 L102,93 L102,91 Z M110,91 L112,91 L112,93 L110,93 L110,91 Z M118,91 L120,91 L120,93 L118,93 L118,91 Z M126,91 L128,91 L128,93 L126,93 L126,91 Z M70,99 L72,99 L72,101 L70,101 L70,99 Z M78,99 L80,99 L80,101 L78,101 L78,99 Z M86,99 L88,99 L88,101 L86,101 L86,99 Z M94,99 L96,99 L96,101 L94,101 L94,99 Z M102,99 L104,99 L104,101 L102,101 L102,99 Z M110,99 L112,99 L112,101 L110,101 L110,99 Z M118,99 L120,99 L120,101 L118,101 L118,99 Z M86,107 L88,107 L88,109 L86,109 L86,107 Z M94,107 L96,107 L96,109 L94,109 L94,107 Z M102,107 L104,107 L104,109 L102,109 L102,107 Z" id="Combined-Shape" fill="#A0BBE7"></path>
        <polygon id="Фигура_861" fill="#064CBE" fill-rule="nonzero" points="43.5782647 104.350178 58.5973778 89.5742893 61.4026222 92.4257107 43.8949863 109.649822 32.7771637 101.059437 35.2228363 97.8942058"></polygon>
        <path d="M45.5,52.3094011 L5.49776792,75.4047005 L5.49776792,121.595299 L45.5,144.690599 L85.5022321,121.595299 L85.5022321,75.4047005 L45.5,52.3094011 Z M89.5022321,73.0952995 L89.5022321,123.904701 L45.5,149.309401 L1.49776792,123.904701 L1.49776792,73.0952995 L45.5,47.6905989 L89.5022321,73.0952995 Z" id="Polygon-3" fill="#064CBE" fill-rule="nonzero"></path>
    </g>
</svg>