<?xml version="1.0" encoding="UTF-8"?>
<svg width="150px" height="150px" viewBox="0 0 150 150" version="1.1" xmlns="http://www.w3.org/2000/svg" xmlns:xlink="http://www.w3.org/1999/xlink">
    <!-- Generator: Sketch 48.2 (47327) - http://www.bohemiancoding.com/sketch -->
    <title>controlfinance</title>
    <desc>Created with Sketch.</desc>
    <defs></defs>
    <g id="icons/control" stroke="none" stroke-width="1" fill="none" fill-rule="evenodd">
        <polygon id="Shape" stroke="#054CBE" stroke-width="1.5" fill-rule="nonzero" points="35.278593 51.576 35.278593 98.144 75.5479397 121.424 115.825276 98.144 115.825276 51.576 75.5479397 28.296"></polygon>
        <polygon id="Path" stroke="#CFDCF3" stroke-dasharray="5" points="27 46.9975947 27 103.002405 75.495189 131 124 103.002405 124 46.9975947 75.495189 19"></polygon>
        <g id="Ресурс-2" transform="translate(26.000000, 44.000000)">
            <g>
                <path d="M91.4987097,6.93767442 L87.8296774,6.93767442 L87.3482796,5.63534884 L81.2982796,5.63534884 L80.8168817,6.93767442 L36.4046774,6.93767442 L36.4632258,4.98418605 C36.9446237,5.15348837 40.5486022,6.28651163 49.6170968,6.28651163 C59.3751613,6.28651163 62.6278495,4.90604651 62.6278495,4.90604651 L62.6278495,6.94418605 L69.9268817,6.94418605 L67.2141398,4.20930233 C66.3220446,3.31671229 65.1122173,2.81545146 63.8508602,2.81581395 L62.6473656,2.81581395 C62.6473656,2.81581395 58.5880108,0.829767442 49.6366129,0.829767442 C41.4008065,0.842790698 37.1397849,2.54232558 36.4892473,2.82883721 L35.3182796,2.82883721 C34.0520356,2.81982111 32.8344905,3.31668188 31.9354839,4.20930233 L29.2292473,6.91813953 L16.8495161,6.91813953 L16.3681183,5.61581395 L10.3181183,5.61581395 L9.83672043,6.91813953 L7.73548387,6.91813953 C5.71690889,6.91813287 3.78129325,7.72211392 2.35577708,9.15266493 C0.930260908,10.583216 0.132019605,12.5227477 0.137204301,14.5432558 L0.137204301,72.5813953 C0.137204301,74.5985209 0.937735029,76.5330303 2.36268886,77.9593535 C3.78764269,79.3856767 5.72029483,80.1869767 7.73548387,80.1869767 L9.8172043,80.1869767 L10.2986022,81.4893023 L15.0475269,81.4893023 L15.5289247,80.1869767 L18.9832796,80.1869767 L19.3085484,81.4893023 L25.7618817,81.4893023 L26.0871505,80.1869767 L71.5532258,80.1869767 L71.8784946,81.4893023 L78.331828,81.4893023 L78.6570968,80.1869767 L82.1114516,80.1869767 L82.5928495,81.4893023 L87.3417742,81.4893023 L87.823172,80.1869767 L91.4922043,80.1869767 C93.5085202,80.1887047 95.442844,79.3881676 96.8692052,77.961657 C98.2955663,76.5351465 99.09699,74.5996497 99.0969892,72.5813953 L99.0969892,14.5432558 C99.0969892,10.3428092 95.6951236,6.93767442 91.4987097,6.93767442 Z" id="Shape" fill="#FFFFFF" fill-rule="nonzero"></path>
                <rect id="Rectangle-path" stroke="#054CBE" stroke-width="0.5" transform="translate(49.613844, 43.555814) rotate(90.000000) translate(-49.613844, -43.555814) " x="14.9759677" y="-4.02139535" width="69.2757527" height="95.1544186" rx="6"></rect>
                <rect id="Rectangle-path" fill-opacity="0.1" fill="#054CBE" fill-rule="nonzero" x="5.02274194" y="20.7162791" width="89.143172" height="10.2037209" rx="1.73700007"></rect>
                <rect id="Rectangle-path" fill-opacity="0.1" fill="#054CBE" fill-rule="nonzero" x="5.02274194" y="61.3618605" width="89.143172" height="10.2037209" rx="1.73700007"></rect>
                <rect id="Rectangle-path" fill-opacity="0.1" fill="#054CBE" fill-rule="nonzero" x="5.02274194" y="53.1637209" width="89.143172" height="4.18046512" rx="1.10700004"></rect>
                <polygon id="Shape" stroke="#054CBE" stroke-width="0.5" points="15.0735484 81.5153488 10.3181183 81.5153488 9.83672043 80.1869767 15.5484409 80.1869767"></polygon>
                <path d="M91.4987097,6.93767442 L7.73548387,6.93767442 C3.53906994,6.93767442 0.137204301,10.3428092 0.137204301,14.5432558 L0.137204301,72.5813953 C0.137204301,74.5985209 0.937735029,76.5330303 2.36268886,77.9593535 C3.78764269,79.3856767 5.72029483,80.1869767 7.73548387,80.1869767 L19.0027957,80.1869767 L19.3280645,81.4893023 L25.7813978,81.4893023 L26.1066667,80.1869767 L71.5727419,80.1869767 L71.8980108,81.4893023 L78.3513441,81.4893023 L78.6766129,80.1869767 L91.5052151,80.1869767 C95.6990883,80.1833826 99.0969908,76.7793003 99.0969892,72.5813953 L99.0969892,14.5432558 C99.0969892,10.3428092 95.6951236,6.93767442 91.4987097,6.93767442 Z" id="Shape" stroke="#054CBE" stroke-width="1.5"></path>
                <polygon id="Shape" stroke="#054CBE" stroke-width="0.5" points="82.6058602 81.5153488 87.3547849 81.5153488 87.8361828 80.1869767 82.1244624 80.1869767"></polygon>
                <polygon id="Shape" stroke="#054CBE" stroke-width="0.5" points="16.3746237 5.6027907 10.3181183 5.6027907 9.83672043 6.93767442 16.8495161 6.93767442"></polygon>
                <polygon id="Shape" stroke="#054CBE" stroke-width="0.5" points="81.3047849 5.6027907 87.3547849 5.6027907 87.8361828 6.93767442 80.8233871 6.93767442"></polygon>
                <path d="M36.4892473,6.93116279 L36.4892473,2.82883721 L35.3182796,2.82883721 C34.0520356,2.81982111 32.8344905,3.31668188 31.9354839,4.20930233 L29.2292473,6.91813953 L36.4892473,6.93116279 Z" id="Shape" stroke="#054CBE" stroke-width="1.5"></path>
                <path d="M62.653871,6.93116279 L62.653871,2.8288306 L63.8573656,2.82883721 C65.1146062,2.82674128 66.3215166,3.3230802 67.2141398,4.20930233 L69.9203763,6.91813953 L62.653871,6.93116279 Z" id="Shape" stroke="#054CBE" stroke-width="1.5"></path>
                <path d="M62.653871,4.86046512 C62.653871,4.86046512 59.4011828,6.24093023 49.6431183,6.24093023 C39.8850538,6.24093023 36.6323656,4.86046512 36.6323656,4.86046512 L36.6323656,2.82883721 C36.6323656,2.82883721 40.6917204,0.842790698 49.6431183,0.842790698 C58.5945161,0.842790698 62.653871,2.82883721 62.653871,2.82883721 L62.653871,4.86046512 Z" id="Shape" stroke="#054CBE" stroke-width="1.5"></path>
                <path d="M40.4900538,3.40837209 C40.4889263,3.97477864 40.5280574,4.54054788 40.6071505,5.10139535 C41.0234946,5.16 41.478871,5.21209302 41.9797849,5.26418605 C42.0747312,4.64803548 42.1204137,4.02528446 42.1163978,3.40186047 C42.1168429,2.94942937 42.0929553,2.49730232 42.0448387,2.04744186 C41.4983871,2.13860465 40.9974731,2.22976744 40.5355914,2.32744186 C40.5095699,2.67255814 40.4900538,3.03069767 40.4900538,3.40837209 Z" id="Shape" fill-opacity="0.2" fill="#054CBE" fill-rule="nonzero"></path>
                <path d="M45.7529032,3.40837209 C45.7473134,4.12717137 45.8126847,4.84476512 45.9480645,5.55069767 L47.1775806,5.58976744 C47.3183435,4.87133527 47.3859118,4.1404599 47.3792473,3.40837209 C47.3832632,2.78494809 47.3375806,2.16219708 47.2426344,1.54604651 L45.8830108,1.60465116 C45.7936827,2.20168295 45.7501863,2.80468807 45.7529032,3.40837209 Z" id="Shape" fill-opacity="0.2" fill="#054CBE" fill-rule="nonzero"></path>
                <path d="M51.1198387,3.40837209 C51.1141599,4.14504235 51.1839149,4.88035603 51.3280108,5.6027907 L52.5510215,5.6027907 C52.6924844,4.88006595 52.7600552,4.14480058 52.7526882,3.40837209 C52.7534314,2.80451461 52.707759,2.20149481 52.6160753,1.60465116 L51.2694624,1.54604651 C51.1698553,2.16181071 51.1198198,2.78458832 51.1198387,3.40837209 Z" id="Shape" fill-opacity="0.2" fill="#054CBE" fill-rule="nonzero"></path>
                <path d="M57.0527419,3.40837209 C57.048726,4.03179609 57.0944086,4.65454711 57.1893548,5.27069767 C57.6837634,5.21860465 58.1456452,5.16 58.5619892,5.10790698 C58.6414129,4.5449102 58.6805448,3.97695232 58.679086,3.40837209 C58.679086,3.02418605 58.679086,2.65953488 58.6335484,2.3144186 C58.178172,2.21674419 57.6772581,2.1255814 57.1308065,2.04093023 C57.0800096,2.49498816 57.0539495,2.95147777 57.0527419,3.40837209 Z" id="Shape" fill-opacity="0.2" fill="#054CBE" fill-rule="nonzero"></path>
                <path d="M61.9122581,54.7916279 L62.1594624,54.8697674 C63.6642361,55.3690663 65.3066244,54.6831546 66.0106452,53.2613953 C66.3894506,52.4493844 66.4002127,51.5133429 66.0401774,50.6928207 C65.6801421,49.8722986 64.9842496,49.2469249 64.1305914,48.9767442 L63.7727957,48.8660465 C64.6275965,49.1322163 65.5555322,49.0167225 66.31918,48.5491154 C67.0828279,48.0815083 67.608097,47.3071563 67.7605914,46.424186 C67.9943269,44.8541066 67.037035,43.3515193 65.5162366,42.9013953 L54.0147312,39.2874419 C56.6044993,36.3247689 58.2672193,32.6655339 58.7961828,28.7646512 C58.9001167,27.4239734 58.2985813,26.1259748 57.208871,25.3395349 C56.7125026,24.9244969 56.0465097,24.7748122 55.4205227,24.937596 C54.7945356,25.1003799 54.2855453,25.5556113 54.0537634,26.16 C53.3451732,27.9542237 52.3810729,29.6364409 51.1913978,31.1544186 C48.7193548,34.4102326 44.6144624,34.2083721 41.7520968,37.7572093 C40.8297754,38.9390097 39.3130469,39.488087 37.848871,39.1702326 L36.1704839,38.7925581 C34.6835099,38.4607161 33.2085546,39.395461 32.8722581,40.8827907 L29.9188172,54.1209302 C29.5872938,55.6093332 30.5211412,57.0857059 32.007043,57.4223256 L34.7458065,58.0344186 C35.8942414,58.2675188 36.9355789,58.868692 37.7122581,59.7469767 C38.1317227,60.2467132 38.6989485,60.6001449 39.3320968,60.7562791 L55.3678495,64.6632558 C57.0056177,65.0894075 58.690631,64.1603302 59.2060215,62.5469767 C59.4180301,61.8263612 59.360206,61.0530877 59.0433871,60.372093 L59.9476344,60.6586047 C61.4524082,61.1579035 63.0947965,60.4719918 63.7988172,59.0502326 C64.1682503,58.2400473 64.1732712,57.3102681 63.8126097,56.4961326 C63.4519483,55.6819972 62.7601556,55.0614995 61.9122581,54.7916279 Z" id="Shape" stroke="#054CBE" stroke-width="1.5" fill="#FFFFFF" fill-rule="nonzero"></path>
                <path d="M31.2198925,49.1395349 C31.2198925,49.1395349 31.3565054,53.4502326 33.8610753,54.0102326 L38.5319355,55.052093 C40.6006452,55.5144186 39.9891398,57.7674419 41.4658602,58.0995349 C42.9425806,58.4316279 54.5416667,62.2344186 55.8102151,62.5144186 C57.0787634,62.7944186 58.022043,63.0874419 59.3166129,61.4986047 C58.7246237,64.1618605 56.8705914,64.6111628 55.0620968,64.2074419 L39.3386022,60.704186 C37.3219355,60.2548837 37.4780645,58.64 34.7393011,58.027907 C32.0005376,57.415814 29.2682796,57.012093 29.9123118,54.1209302 C30.5563441,51.2297674 31.2198925,49.1395349 31.2198925,49.1395349 Z" id="Shape" fill-opacity="0.1" fill="#054CBE" fill-rule="nonzero"></path>
            </g>
        </g>
    </g>
</svg>