<?xml version="1.0" encoding="UTF-8"?>
<svg width="150px" height="150px" viewBox="0 0 150 150" version="1.1" xmlns="http://www.w3.org/2000/svg" xmlns:xlink="http://www.w3.org/1999/xlink">
    <!-- Generator: Sketch 48.2 (47327) - http://www.bohemiancoding.com/sketch -->
    <title>union</title>
    <desc>Created with Sketch.</desc>
    <defs></defs>
    <g id="icons/union" stroke="none" stroke-width="1" fill="none" fill-rule="evenodd">
        <polygon id="Shape" stroke="#054CBE" stroke-width="1.5" fill-rule="nonzero" points="35.278593 51.576 35.278593 98.144 75.5479397 121.424 115.825276 98.144 115.825276 51.576 75.5479397 28.296"></polygon>
        <polygon id="Path" stroke="#CFDCF3" stroke-dasharray="5" points="27 46.9975947 27 103.002405 75.495189 131 124 103.002405 124 46.9975947 75.495189 19"></polygon>
        <g id="Ресурс-5" transform="translate(15.000000, 26.000000)">
            <g id="Group" opacity="0.2" transform="translate(18.981132, 5.540758)" fill="#054CBE" fill-rule="nonzero">
                <polygon id="Shape" points="59.2 31.2482815 66.8188679 26.8695773 66.8188679 9.06735525 51.3320755 0.169061938 35.8509434 9.06735525 35.8509434 26.8695773 51.3320755 35.773506"></polygon>
                <polygon id="Shape" points="39.6660377 87.7431456 41.0188679 89.9592424 53.5188679 83.4592424 53.7603774 79.6394434 46.7132075 75.5875923 39.6660377 79.6394434"></polygon>
                <polygon id="Shape" points="30.7962264 33.3333787 30.7962264 29.1631842 27.1735849 27.078087 23.545283 29.1631842 23.545283 33.3333787 27.1735849 35.4184759"></polygon>
                <polygon id="Shape" points="30.7962264 13.609486 30.7962264 9.43929151 27.1735849 7.35419428 23.545283 9.43929151 23.545283 13.609486 27.1735849 15.6945832"></polygon>
                <polygon id="Shape" points="58.3339623 50.1663123 58.3339623 74.6859286 62.5188679 77.4592424 79.6679245 67.4592424 80.5188679 38.4592424 79.6679245 37.9036864"></polygon>
                <polygon id="Shape" points="0.643396226 49.6534911 7.69056604 45.60164 7.69056604 37.4979378 0.643396226 33.4460867"></polygon>
                <polygon id="Shape" points="43.0679245 50.4480822 27.5867925 41.5497889 12.1 50.4480822 12.1 68.2503042 27.5867925 77.1542329 35.454717 72.6290084 43.0679245 68.2503042"></polygon>
                <polygon id="Shape" points="0.518867925 63.4592424 0.518867925 66.9592424 7.69056604 68.8814688 7.69056604 60.7777666 0.643396226 56.7259155 0.643396226 59.4592424"></polygon>
            </g>
            <polygon id="Shape" stroke="#054CBE" stroke-width="1.5" fill="#FFFFFF" fill-rule="nonzero" points="54.7981132 9.53625477 54.7981132 27.3384768 70.2849057 36.2424055 78.1528302 31.717181 85.7660377 27.3384768 85.7660377 9.53625477 70.2849057 0.637961459"></polygon>
            <polyline id="Shape" stroke="#054CBE" stroke-width="0.5" opacity="0.2" points="62.4339623 28.4711918 57.6283019 25.7154822 57.6283019 11.1648848 70.2849057 3.88958606 82.9358491 11.1648848 82.9358491 25.7154822 78.4641509 28.2852237"></polyline>
            <polygon id="Shape" stroke="#054CBE" stroke-width="0.5" fill="#FFFFFF" fill-rule="nonzero" points="24.4132075 83.3599675 24.4132075 91.4636697 31.4603774 95.5155208 38.5075472 91.4636697 38.5075472 83.3599675 31.4603774 79.3081164"></polygon>
            <polygon id="Shape" stroke="#054CBE" stroke-width="0.56699996" fill="#FFFFFF" fill-rule="nonzero" points="12.5433962 61.2466661 12.5433962 69.3503683 19.590566 73.4022194 26.6377358 69.3503683 26.6377358 61.2466661 19.590566 57.194815"></polygon>
            <polygon id="Shape" stroke="#054CBE" stroke-width="0.5" fill="#FFFFFF" fill-rule="nonzero" points="58.6132075 80.1083429 58.6132075 88.2120451 65.6603774 92.2638962 72.7132075 88.2120451 72.7132075 80.1083429 65.6603774 76.0564918"></polygon>
            <polygon id="Shape" stroke="#054CBE" stroke-width="0.56699996" fill="#FFFFFF" fill-rule="nonzero" points="12.5433962 37.9668373 12.5433962 46.0705395 19.590566 50.1223906 26.6377358 46.0705395 26.6377358 37.9668373 19.590566 33.9149862"></polygon>
            <polygon id="Shape" stroke="#054CBE" stroke-width="0.56699996" fill="#FFFFFF" fill-rule="nonzero" points="0.283018868 49.6997357 0.283018868 53.8699302 3.91132075 55.9550274 7.53396226 53.8699302 7.53396226 49.6997357 3.91132075 47.6202739"></polygon>
            <polygon id="Shape" stroke="#054CBE" stroke-width="0.5" fill="#FFFFFF" fill-rule="nonzero" points="42.4924528 29.6320838 42.4924528 33.8022782 46.1207547 35.8873754 49.7490566 33.8022782 49.7490566 29.6320838 46.1207547 27.5469865"></polygon>
            <polygon id="Shape" stroke="#054CBE" stroke-width="0.5" fill="#FFFFFF" fill-rule="nonzero" points="42.4924528 9.90819104 42.4924528 14.0783855 46.1207547 16.1634827 49.7490566 14.0783855 49.7490566 9.90819104 46.1207547 7.82309381"></polygon>
            <polygon id="Shape" stroke="#054CBE" stroke-width="1.5" fill="#FFFFFF" fill-rule="nonzero" points="77.2867925 50.6352118 77.2867925 75.1548281 98.6150943 87.4118186 119.943396 75.1548281 119.943396 50.6352118 98.6150943 38.3725859"></polygon>
            <path d="M85.7660377,45.7549572 L78.1528302,31.717181" id="Shape" stroke="#054CBE" stroke-width="0.5" fill="#FFFFFF" fill-rule="nonzero"></path>
            <path d="M77.2867925,59.8378166 L62.4283019,59.8209104" id="Shape" stroke="#054CBE" stroke-width="0.5" fill="#FFFFFF" fill-rule="nonzero"></path>
            <path d="M54.7981132,46.5326421 L62.4283019,31.7284518" id="Shape" stroke="#054CBE" stroke-width="0.5" fill="#FFFFFF" fill-rule="nonzero"></path>
            <path d="M39.6056604,73.4022194 L35.009434,81.3481305" id="Shape" stroke="#054CBE" stroke-width="0.5" fill="#FFFFFF" fill-rule="nonzero"></path>
            <path d="M27.9113208,81.3481305 L22.6301887,71.655246" id="Shape" stroke="#054CBE" stroke-width="0.5" fill="#FFFFFF" fill-rule="nonzero"></path>
            <path d="M19.590566,57.194815 L19.590566,50.1223906" id="Shape" stroke="#054CBE" stroke-width="0.5" fill="#FFFFFF" fill-rule="nonzero"></path>
            <path d="M31.4603774,50.9169817 L26.6377358,46.0705395" id="Shape" stroke="#054CBE" stroke-width="0.5" fill="#FFFFFF" fill-rule="nonzero"></path>
            <path d="M26.6377358,65.2985172 L31.4603774,65.2985172" id="Shape" stroke="#054CBE" stroke-width="0.5" fill="#FFFFFF" fill-rule="nonzero"></path>
            <path d="M77.2867925,75.1548281 L72.7132075,80.1083429" id="Shape" stroke="#054CBE" stroke-width="0.5" fill="#FFFFFF" fill-rule="nonzero"></path>
            <path d="M62.4283019,77.9161731 L58.6132075,70.9113735" id="Shape" stroke="#054CBE" stroke-width="0.5" fill="#FFFFFF" fill-rule="nonzero"></path>
            <path d="M12.5433962,46.0705395 L7.53396226,49.6997357" id="Shape" stroke="#054CBE" stroke-width="0.5" fill="#FFFFFF" fill-rule="nonzero"></path>
            <path d="M54.7981132,27.3384768 L49.7490566,29.6320838" id="Shape" stroke="#054CBE" stroke-width="0.5" fill="#FFFFFF" fill-rule="nonzero"></path>
            <path d="M46.9471698,42.0186884 L46.1207547,35.8873754" id="Shape" stroke="#054CBE" stroke-width="0.5" fill="#FFFFFF" fill-rule="nonzero"></path>
            <path d="M46.1207547,27.5469865 L46.1207547,16.1634827" id="Shape" stroke="#054CBE" stroke-width="0.5" fill="#FFFFFF" fill-rule="nonzero"></path>
            <path d="M79.0584906,30.9000483 C79.1057147,29.4363078 78.5604071,28.0150255 77.5450301,26.955386 C76.5296531,25.8957465 75.1293128,25.2865657 73.6584906,25.2646504 L66.9113208,25.2646504 C65.4404985,25.2865657 64.0401582,25.8957465 63.0247812,26.955386 C62.0094042,28.0150255 61.4640966,29.4363078 61.5113208,30.9000483" id="Shape" stroke="#054CBE" stroke-width="1.5"></path>
            <path d="M74.2471698,16.6593977 L74.2471698,19.1615144 C74.2471698,21.3401555 72.4732037,23.106293 70.2849057,23.106293 C68.0966076,23.106293 66.3226415,21.3401555 66.3226415,19.1615144 L66.3226415,16.6312208 C66.3226415,14.4525797 68.0966076,12.6864422 70.2849057,12.6864422 C72.4732037,12.6864422 74.2471698,14.4525797 74.2471698,16.6312208" id="Shape" stroke="#054CBE" stroke-width="1.5"></path>
            <polygon id="Shape" stroke="#054CBE" stroke-width="1.5" fill="#FFFFFF" fill-rule="nonzero" points="31.0471698 50.9169817 31.0471698 68.7192037 46.5339623 77.6231324 54.4018868 73.0979079 62.0207547 68.7192037 62.0207547 50.9169817 46.5339623 42.0186884"></polygon>
            <polyline id="Shape" stroke="#054CBE" stroke-width="0.5" opacity="0.2" points="38.6830189 69.8519187 33.8773585 67.0905737 33.8773585 52.5456117 46.5339623 45.270313 59.1849057 52.5456117 59.1849057 67.0905737 54.7132075 69.6659506"></polyline>
            <path d="M55.3075472,72.2525982 C55.3547713,70.7888577 54.8094637,69.3675755 53.7940867,68.3079359 C52.7787097,67.2482964 51.3783694,66.6391156 49.9075472,66.6172003 L43.1603774,66.6172003 C41.6895551,66.6391156 40.2892148,67.2482964 39.2738378,68.3079359 C38.2584609,69.3675755 37.7131532,70.7888577 37.7603774,72.2525982" id="Shape" stroke="#054CBE" stroke-width="1.5"></path>
            <path d="M50.4962264,58.0344893 L50.4962264,60.5366059 C50.4962264,62.715247 48.7222603,64.4813845 46.5339623,64.4813845 C44.3456642,64.4813845 42.5716981,62.715247 42.5716981,60.5366059 L42.5716981,58.0344893 C42.5716981,55.8558482 44.3456642,54.0897107 46.5339623,54.0897107 C48.7222603,54.0897107 50.4962264,55.8558482 50.4962264,58.0344893" id="Shape" stroke="#054CBE" stroke-width="1.5"></path>
            <path d="M24.0849057,47.5301075 C24.1031273,46.781792 23.8215244,46.0570115 23.3022364,45.5156983 C22.7829483,44.974385 22.0686574,44.6610317 21.3169811,44.6447838 L17.8641509,44.6447838 C17.1124747,44.6610317 16.3981838,44.974385 15.8788957,45.5156983 C15.3596077,46.0570115 15.0780048,46.781792 15.0962264,47.5301075" id="Shape" stroke="#054CBE" stroke-width="0.56699996"></path>
            <path d="M21.7641509,40.243538 L21.7641509,41.5284088 C21.7071378,42.602763 20.8155271,43.4447783 19.7349057,43.4447783 C18.6542842,43.4447783 17.7626735,42.602763 17.7056604,41.5284088 L17.7056604,40.2322672 C17.7626735,39.157913 18.6542842,38.3158978 19.7349057,38.3158978 C20.8155271,38.3158978 21.7071378,39.157913 21.7641509,40.2322672" id="Shape" stroke="#054CBE" stroke-width="0.56699996"></path>
            <path d="M23.8698113,70.9113735 C23.8880329,70.1630579 23.6064301,69.4382774 23.087142,68.8969642 C22.567854,68.355651 21.853563,68.0422977 21.1018868,68.0260498 L17.6433962,68.0260498 C16.8927121,68.0437713 16.1798715,68.3577697 15.6618008,68.8989206 C15.14373,69.4400716 14.8628996,70.1640125 14.8811321,70.9113735" id="Shape" stroke="#054CBE" stroke-width="0.56699996"></path>
            <path d="M21.5490566,63.6304394 L21.5490566,64.9153101 C21.4920434,65.9896644 20.6004328,66.8316796 19.5198113,66.8316796 C18.4391899,66.8316796 17.5475792,65.9896644 17.490566,64.9153101 L17.490566,63.6304394 C17.5475792,62.5560852 18.4391899,61.7140699 19.5198113,61.7140699 C20.6004328,61.7140699 21.4920434,62.5560852 21.5490566,63.6304394" id="Shape" stroke="#054CBE" stroke-width="0.56699996"></path>
            <path d="M35.954717,93.0303103 C35.9729386,92.2819948 35.6913357,91.5572143 35.1720477,91.0159011 C34.6527596,90.4745878 33.9384687,90.1612345 33.1867925,90.1449866 L29.7339623,90.1449866 C28.982286,90.1612345 28.2679951,90.4745878 27.748707,91.0159011 C27.229419,91.5572143 26.9478161,92.2819948 26.9660377,93.0303103" id="Shape" stroke="#054CBE" stroke-width="0.56699996"></path>
            <path d="M33.6339623,85.7493762 L33.6339623,87.034247 C33.5769491,88.1086012 32.6853384,88.9506164 31.604717,88.9506164 C30.5240955,88.9506164 29.6324849,88.1086012 29.5754717,87.034247 L29.5754717,85.7493762 C29.6324849,84.675022 30.5240955,83.8330067 31.604717,83.8330067 C32.6853384,83.8330067 33.5769491,84.675022 33.6339623,85.7493762" id="Shape" stroke="#054CBE" stroke-width="0.56699996"></path>
            <path d="M70.1603774,89.6659778 C70.178599,88.9176622 69.8969961,88.1928817 69.3777081,87.6515685 C68.85842,87.1102553 68.1441291,86.796902 67.3924528,86.7806541 L63.9622642,86.7806541 C63.2105879,86.796902 62.496297,87.1102553 61.9770089,87.6515685 C61.4577209,88.1928817 61.176118,88.9176622 61.1943396,89.6659778" id="Shape" stroke="#054CBE" stroke-width="0.56699996"></path>
            <path d="M67.8396226,82.3850437 L67.8396226,83.6699144 C67.7826095,84.7442686 66.8909988,85.5862839 65.8103774,85.5862839 C64.7297559,85.5862839 63.8381452,84.7442686 63.7811321,83.6699144 L63.7811321,82.3850437 C63.8381452,81.3106894 64.7297559,80.4686742 65.8103774,80.4686742 C66.8909988,80.4686742 67.7826095,81.3106894 67.8396226,82.3850437" id="Shape" stroke="#054CBE" stroke-width="0.56699996"></path>
            <polygon id="Shape" fill-opacity="0.1" fill="#054CBE" fill-rule="nonzero" points="83.0150943 71.8581204 83.0150943 53.9262842 98.6150943 44.9603661 114.215094 53.9262842 114.215094 71.8581204 98.6150943 80.8240385"></polygon>
            <path d="M103.301887,70.1336886 L94.4886792,70.1336886 C90.4924528,70.1336886 87.4358491,73.4303964 87.4358491,77.4935183 L98.6150943,84.1545586 L110.377358,77.4991537 C110.377358,73.4303964 107.303774,70.1336886 103.301887,70.1336886 Z" id="Shape" fill="#FFFFFF" fill-rule="nonzero"></path>
            <path d="M99.2660377,67.1525631 C102.064533,67.1966591 104.374667,64.9847922 104.439623,62.1990483 L104.439623,58.9305175 C104.356882,56.1499643 102.073728,53.9359757 99.279639,53.9268502 C96.4855504,53.9177247 94.1878551,56.1167522 94.0867925,58.8967051 L94.0867925,62.1652359 C94.1091241,63.5104367 94.6673853,64.7916873 95.6387236,65.7270324 C96.6100618,66.6623775 97.9148805,67.1751699 99.2660377,67.1525631 Z" id="Shape" fill="#FFFFFF" fill-rule="nonzero"></path>
            <path d="M110.145283,77.7076634 C110.145283,73.6445415 107.088679,70.3478337 103.092453,70.3478337 L94.2792453,70.3478337 C90.2830189,70.3478337 87.2264151,73.6445415 87.2264151,77.7076634" id="Shape" stroke="#054CBE" stroke-width="1.5"></path>
            <path d="M103.862264,59.1390273 L103.862264,62.4075581 C103.761202,65.187511 101.463506,67.3865385 98.6694176,67.377413 C95.875329,67.3682875 93.5921746,65.1542989 93.509434,62.3737457 L93.509434,59.1052149 C93.6104966,56.3252619 95.9081919,54.1262344 98.7022805,54.1353599 C101.496369,54.1444854 103.779524,56.358474 103.862264,59.1390273" id="Shape" stroke="#054CBE" stroke-width="1.5"></path>
            <polygon id="Shape" stroke="#054CBE" stroke-width="0.5" points="80.1169811 73.5261981 80.1169811 52.2582064 98.6150943 41.6242105 117.113208 52.2582064 117.113208 73.5261981 98.6150943 84.160194"></polygon>
            <path d="M98.6830189,70.5394373 L98.6830189,72.5625451" id="Shape" stroke="#054CBE" stroke-width="1.5" fill="#FFFFFF" fill-rule="nonzero"></path>
            <path d="M98.6830189,73.8417804 L98.6830189,79.798396" id="Shape" stroke="#054CBE" stroke-width="1.5" fill="#FFFFFF" fill-rule="nonzero"></path>
            <path d="M46.5226415,66.6735543 L46.5226415,68.2683719" id="Shape" stroke="#054CBE" stroke-width="1.5" fill="#FFFFFF" fill-rule="nonzero"></path>
            <path d="M46.5226415,69.5476072 L46.5226415,75.5098582" id="Shape" stroke="#054CBE" stroke-width="1.5" fill="#FFFFFF" fill-rule="nonzero"></path>
            <path d="M70.5679245,25.2139318 L70.5679245,26.8087494" id="Shape" stroke="#054CBE" stroke-width="1.5" fill="#FFFFFF" fill-rule="nonzero"></path>
            <path d="M70.5679245,28.0879847 L70.5679245,34.0502357" id="Shape" stroke="#054CBE" stroke-width="1.5" fill="#FFFFFF" fill-rule="nonzero"></path>
        </g>
    </g>
</svg>