<svg xmlns="http://www.w3.org/2000/svg" width="60.844" height="16.66" viewBox="0 0 60.844 16.66">
  <defs>
    <style>
      .cls-1 {
        fill: #1a4b61;
        fill-rule: evenodd;
      }
    </style>
  </defs>
  <path id="Arrow-long" class="cls-1" d="M720.5,3734.42h0.007a1.68,1.68,0,0,1,.352.43,1.51,1.51,0,0,1,.076.15,1.545,1.545,0,0,1,.132.39,1.509,1.509,0,0,1,.032.16c0,0.02.015,0.05,0.017,0.07a1.638,1.638,0,0,1-.036.48c0,0.02-.013.03-0.016,0.05a1.578,1.578,0,0,1-.206.47c-0.012.02-.014,0.05-0.028,0.07l-6.4,9.14a1.418,1.418,0,0,1-2.1.28,1.716,1.716,0,0,1-.329-2.27l3.448-4.93a86.674,86.674,0,0,1-12.088,2.02,85.308,85.308,0,0,1-42.071-6.48c-0.659-.52-1.3-2.02-0.911-2.6a1.845,1.845,0,0,1,.141-0.18,1.786,1.786,0,0,1,2.331-.01c21.462,7.13,31.645,6.41,40.594,6.04a79.448,79.448,0,0,0,11.81-2.08l-6.714-2.74a1.709,1.709,0,0,1-.932-2.09,1.44,1.44,0,0,1,1.914-.93l10.582,4.32A1.541,1.541,0,0,1,720.5,3734.42Z" transform="translate(-660.281 -3729.78)"/>
</svg>
