<svg xmlns="http://www.w3.org/2000/svg" width="28.468" height="34.04" viewBox="0 0 28.468 34.04">
  <defs>
    <style>
      .cls-1 {
        fill: #1e9dd9;
        fill-rule: evenodd;
      }
    </style>
  </defs>
  <path id="_" data-name="&lt;" class="cls-1" d="M464.1,2912.91a3.781,3.781,0,0,0-.668-0.07,0.544,0.544,0,0,0-.407.15c-2.225,1.93-1.567,4.06-6.758,6.38a41.705,41.705,0,0,0-10.135,6.24,8.077,8.077,0,0,0-2.818,5.95,2.132,2.132,0,0,0,.853,1.41,6.2,6.2,0,0,0,1.705.85q1,0.345,1.3.48c7.909,3.42,9.452,6.81,15.484,10.18a6.557,6.557,0,0,1,1.112.93,13.26,13.26,0,0,0,1.335,1.15,5.2,5.2,0,0,0,4.56-.52,3.608,3.608,0,0,0,2.113-3.64,2.429,2.429,0,0,0-1.409-2.15c-3.21-1.56-9.588-6.26-10.872-6.87q-3.671-1.755-6.785-3.61c1.285-1.98,7.929-6.26,5.635-4.75-4.756,3.12,11.957-8.62,9.575-7.5-1.108.52,0.915-1.87,0.223-2.94a3.768,3.768,0,0,0-3.411-1.59A3.858,3.858,0,0,1,464.1,2912.91Z" transform="translate(-443.313 -2912.84)"/>
</svg>
