<?xml version="1.0" encoding="UTF-8"?>
<svg width="150px" height="150px" viewBox="0 0 150 150" version="1.1" xmlns="http://www.w3.org/2000/svg" xmlns:xlink="http://www.w3.org/1999/xlink">
    <!-- Generator: Sketch 48.2 (47327) - http://www.bohemiancoding.com/sketch -->
    <title>copytrading</title>
    <desc>Created with Sketch.</desc>
    <defs>
        <polyline id="path-1" points="67 72.5 67 49.8367927 108.713923 25 150 49 150 97 108.713923 121 81.8726244 105.556927"></polyline>
        <mask id="mask-2" maskContentUnits="userSpaceOnUse" maskUnits="objectBoundingBox" x="0" y="0" width="83" height="96" fill="white">
            <use xlink:href="#path-1"></use>
        </mask>
    </defs>
    <g id="icons/copytrading" stroke="none" stroke-width="1" fill="none" fill-rule="evenodd">
        <path d="M41.7260739,55.3204341 L2,78.9736459 L2,123.843294 L41.7087619,146.68963 L81,123.849249 L81,78.1507512 L41.7260739,55.3204341 Z" id="Combined-Shape" stroke="#064CBE" stroke-width="4"></path>
        <path d="M24,122 C24,116.245046 27.4746057,112.318166 32.3495916,110.120579 C33.6336616,109.541735 35.0148891,109.082869 36.4553687,108.742174 C40.6383448,107.752839 45.3209644,107.759991 49.5750376,108.719427 C56.9276006,110.377676 63,114.880608 63,122" id="Эллипс_7_копия_2-Copy-5" stroke="#064CBE" stroke-width="4"></path>
        <polygon id="Rectangle-5" fill="#064CBE" points="40 110 46 110 46 113 43 115 40 113"></polygon>
        <polygon id="Path-3-Copy" fill="#064CBE" fill-rule="nonzero" points="43 116 45 117 45 123 43 125 41 123 41 117"></polygon>
        <circle id="Эллипс_7_копия_3-Copy-4" stroke="#064CBE" stroke-width="4" cx="42" cy="87" r="11"></circle>
        <use id="Combined-Shape-Copy" stroke="#064CBE" mask="url(#mask-2)" stroke-width="8" opacity="0.200000003" stroke-dasharray="4" xlink:href="#path-1"></use>
        <path d="M92,93 L88,93 C88,91.3851679 88.2400563,89.8542855 88.712338,88.4208897 L92.511435,89.6726333 C92.1737911,90.6973974 92,91.8056946 92,93 Z M94.0786851,86.7536097 L90.9270371,84.2904582 C91.8494283,83.1102417 92.9700799,82.05984 94.2632493,81.1472924 L96.5695133,84.4154947 C95.5877717,85.1082778 94.7532653,85.8904718 94.0786851,86.7536097 Z M99.6900965,82.7197274 L98.1593021,79.0242344 C99.3664139,78.5242091 100.650577,78.1139903 101.992677,77.7964296 C102.097722,77.7715849 102.201052,77.7477686 102.305014,77.7244364 L103.180946,81.6273512 C103.09194,81.6473269 103.003519,81.6677065 102.913522,81.6889922 C101.775656,81.9582283 100.69527,82.3033514 99.6900965,82.7197274 Z M106.854976,81.0827081 L106.547374,77.094553 C107.956847,76.9858419 109.386616,76.9709157 110.811144,77.0495507 L110.590677,81.0434704 C109.341475,80.9745135 108.088105,80.9875982 106.854976,81.0827081 Z M114.306146,81.4975337 L115.060058,77.569224 C115.378606,77.6303589 115.695035,77.6963247 116.009454,77.7671687 C117.116768,78.0169043 118.187735,78.3240753 119.216246,78.688013 L117.881922,82.4588986 C117.004249,82.1483349 116.084934,81.8846603 115.129827,81.6692523 C114.857553,81.6079044 114.5829,81.5506477 114.306146,81.4975337 Z M121.19855,83.9763154 L123.209663,80.518654 C124.55827,81.3030576 125.763764,82.2059513 126.800696,83.2194708 L124.004745,86.0800058 C123.21146,85.3046319 122.270113,84.5995792 121.19855,83.9763154 Z M126.010608,88.7694463 L129.576607,86.9573622 C130.291112,88.3634351 130.744147,89.8785076 130.91859,91.4823973 L126.942041,91.9148973 C126.820096,90.7936918 126.506768,89.7458404 126.010608,88.7694463 Z" id="Эллипс_7_копия_2-Copy-5" fill="#CDDBF2" fill-rule="nonzero"></path>
        <path d="M108,71 L108,67 C109.402912,67 110.756019,66.6801625 111.983086,66.0733602 L113.756188,69.6589016 C111.98083,70.5368421 110.02139,71 108,71 Z M118.318742,65.9081036 L115.145376,63.4729967 C115.984655,62.3792706 116.563147,61.1085766 116.830562,59.7489507 L120.755368,60.5208914 C120.368219,62.4892877 119.530966,64.3283654 118.318742,65.9081036 Z M120.572715,54.6838206 L116.70442,55.7018053 C116.352455,54.3643542 115.694646,53.130341 114.787598,52.0897206 L117.802918,49.4614431 C119.112065,50.9633761 120.063182,52.7476169 120.572715,54.6838206 Z M112.996289,45.995345 L111.458036,49.6877397 C110.372992,49.2357099 109.204668,49 108,49 C107.818608,49 107.637979,49.0053407 107.458246,49.0159749 L107.221992,45.022958 C107.480377,45.0076702 107.739792,45 108,45 C109.735041,45 111.425951,45.3411418 112.996289,45.995345 Z M101.534627,46.7195989 L103.526419,50.1884264 C102.328921,50.8760269 101.301543,51.8330201 100.529613,52.9786878 L97.2123449,50.7435747 C98.3256898,49.0911913 99.8063473,47.7119728 101.534627,46.7195989 Z M95.1250462,56.1914202 L99.0867453,56.7436339 C99.0300981,57.1500334 99.0009858,57.5622809 99.0000299,57.9741075 C99.0000057,58.9685773 99.1523757,59.9169181 99.4501948,60.8203652 L95.6512819,62.0726673 C95.2202924,60.7652421 94.9999954,59.3941276 95.0000353,57.9694422 C95.0014161,57.3712617 95.0433393,56.7776025 95.1250462,56.1914202 Z M98.7266347,67.1106951 L101.579846,64.3072715 C102.54814,65.292762 103.72959,66.045219 105.033476,66.5002174 L103.715589,70.2768792 C101.829235,69.6186256 100.123201,68.5320643 98.7266347,67.1106951 Z" id="Эллипс_7_копия_3-Copy-4" fill="#CDDBF2" fill-rule="nonzero"></path>
    </g>
</svg>