<?xml version="1.0" encoding="UTF-8"?>
<svg width="150px" height="150px" viewBox="0 0 150 150" version="1.1" xmlns="http://www.w3.org/2000/svg" xmlns:xlink="http://www.w3.org/1999/xlink">
    <!-- Generator: Sketch 48.2 (47327) - http://www.bohemiancoding.com/sketch -->
    <title>investprocess</title>
    <desc>Created with Sketch.</desc>
    <defs></defs>
    <g id="icons/investprocess" stroke="none" stroke-width="1" fill="none" fill-rule="evenodd">
        <g id="Management" transform="translate(2.000000, 28.000000)">
            <path d="M72.3401957,105.509688 L74.0022204,109.148049 L70.3638591,110.810074 L68.7018343,107.171712 L72.3401957,105.509688 Z M65.0634729,108.833737 L66.7254977,112.472098 L63.0871363,114.134123 L61.4251115,110.495762 L65.0634729,108.833737 Z M57.7867501,112.157787 L59.4487749,115.796148 L55.8104135,117.458173 L54.1483887,113.819811 L57.7867501,112.157787 Z M52.3716655,114.905554 L50.3732125,118.370548 L46.9082182,116.372095 L48.9066712,112.907101 L52.3716655,114.905554 Z M45.4416769,110.908648 L43.4432239,114.373642 L39.9782296,112.375189 L41.9766826,108.910195 L45.4416769,110.908648 Z M38.5116883,106.911742 L36.5132353,110.376736 L33.048241,108.378283 L35.046694,104.913289 L38.5116883,106.911742 Z M31.5816997,102.914836 L29.5832467,106.37983 L26.1182523,104.381377 L28.1167054,100.916383 L31.5816997,102.914836 Z M24.651711,98.9179298 L22.653258,102.382924 L19.1882637,100.384471 L21.1867167,96.9194768 L24.651711,98.9179298 Z M17.7217224,94.9210238 L15.7232694,98.3860181 L12.2582751,96.3875651 L14.2567281,92.9225708 L17.7217224,94.9210238 Z M10.7917338,90.9241177 L8.79328079,94.3891121 L5.32828649,92.390659 L7.3267395,88.9256647 L10.7917338,90.9241177 Z M2.5,91 L0.585609313,89.655296 L0.585609313,84.819665 L4.58560931,84.819665 L4.58560931,87.5 L2.5,91 Z M4.58560931,80.819665 L0.585609313,80.819665 L0.585609313,76.819665 L4.58560931,76.819665 L4.58560931,80.819665 Z M4.58560931,72.819665 L0.585609313,72.819665 L0.585609313,68.819665 L4.58560931,68.819665 L4.58560931,72.819665 Z M4.58560931,64.819665 L0.585609313,64.819665 L0.585609313,60.819665 L4.58560931,60.819665 L4.58560931,64.819665 Z M4.58560931,56.819665 L0.585609313,56.819665 L0.585609313,52.819665 L4.58560931,52.819665 L4.58560931,56.819665 Z M4.58560931,48.819665 L0.585609313,48.819665 L0.585609313,44.819665 L4.58560931,44.819665 L4.58560931,48.819665 Z M4.58560931,40.819665 L0.585609313,40.819665 L0.585609313,36.819665 L4.58560931,36.819665 L4.58560931,40.819665 Z M0.585609313,33.2324972 L0.585609313,30.344704 L3.90821917,28.428372 L5.90667218,31.8933663 L3.58483582,33.2324972 L0.585609313,33.2324972 Z M9.37166649,29.8949133 L7.37321348,26.429919 L10.8382078,24.4314659 L12.8366608,27.8964603 L9.37166649,29.8949133 Z M16.3016551,25.8980072 L14.3032021,22.4330129 L17.7681964,20.4345599 L19.7666494,23.8995542 L16.3016551,25.8980072 Z M23.2316437,21.9011012 L21.2331907,18.4361069 L24.698185,16.4376539 L26.696638,19.9026482 L23.2316437,21.9011012 Z M30.1616324,17.9041952 L28.1631793,14.4392009 L31.6281736,12.4407479 L33.6266267,15.9057422 L30.1616324,17.9041952 Z M37.091621,13.9072892 L35.093168,10.4422949 L38.5581623,8.44384186 L40.5566153,11.9088362 L37.091621,13.9072892 Z M44.0216096,9.91038316 L42.0231566,6.44538885 L45.4881509,4.44693584 L47.4866039,7.91193015 L44.0216096,9.91038316 Z M52,6 L50.001547,1.84381179 L52,0.6911939 L54.1483887,1.84381179 L52,6 Z M55.8831338,7.54842319 L57.8815868,4.08342888 L61.3465811,6.08188189 L59.3481281,9.5468762 L55.8831338,7.54842319 Z M62.8131224,11.5453292 L64.8115754,8.0803349 L68.2765698,10.0787879 L66.2781167,13.5437822 L62.8131224,11.5453292 Z M69.7431111,15.5422352 L71.7415641,12.0772409 L75.2065584,14.0756939 L73.2081054,17.5406882 L69.7431111,15.5422352 Z M76.6730997,19.5391413 L78.6715527,16.0741469 L82.136547,18.0726 L80.138094,21.5375943 L76.6730997,19.5391413 Z M83.6030883,23.5360473 L85.6015413,20.071053 L89.0665356,22.069506 L87.0680826,25.5345003 L83.6030883,23.5360473 Z M90.5330769,27.5329533 L92.5315299,24.067959 L95.9965242,26.066412 L93.9980712,29.5314063 L90.5330769,27.5329533 Z M99.5,33.2324972 L97.4630655,31.5298593 L99.4615185,28.064865 L103.414391,30.344704 L103.414391,33.2324972 L99.5,33.2324972 Z M99.4143907,36.0920883 L103.414391,36.0920883 L103.414391,40.0920883 L99.4143907,40.0920883 L99.4143907,36.0920883 Z M99.4143907,44.0920883 L103.414391,44.0920883 L103.414391,48.0920883 L99.4143907,48.0920883 L99.4143907,44.0920883 Z M99.4143907,52.0920883 L103.414391,52.0920883 L103.414391,56.0920883 L99.4143907,56.0920883 L99.4143907,52.0920883 Z" id="Polygon-3" fill="#064CBE" fill-rule="nonzero" opacity="0.200000003"></path>
            <ellipse id="Эллипс_7_копия_3" stroke="#064CBE" stroke-width="4" stroke-linecap="round" stroke-linejoin="round" cx="50.8235294" cy="44.7216495" rx="18.2352941" ry="18.2164948"></ellipse>
            <path d="M73.2428916,82.5804954 C67.326777,77.6543162 59.7157203,74.6907216 51.4117647,74.6907216 C40.9771392,74.6907216 31.636605,79.3702544 25.3783708,86.7431611" id="Эллипс_7_копия_3-Copy" stroke="#064CBE" stroke-width="4"></path>
        </g>
        <g id="Group" transform="translate(82.000000, 96.000000)" fill="#064CBE" fill-rule="nonzero">
            <path d="M20.4787234,41.2222222 C9.16863677,41.2222222 0,31.9943135 0,20.6111111 C0,9.22790877 9.16863677,0 20.4787234,0 C31.78881,0 40.9574468,9.22790877 40.9574468,20.6111111 C40.9574468,31.9943135 31.78881,41.2222222 20.4787234,41.2222222 Z M20.4787234,36.5111111 C29.2036474,36.5111111 36.2765957,29.3924386 36.2765957,20.6111111 C36.2765957,11.8297836 29.2036474,4.71111111 20.4787234,4.71111111 C11.7537994,4.71111111 4.68085106,11.8297836 4.68085106,20.6111111 C4.68085106,29.3924386 11.7537994,36.5111111 20.4787234,36.5111111 Z" id="Эллипс_7_копия_3"></path>
            <polygon id="Path-10" points="33.4514522 34.6434071 36.7613137 31.3121485 54.3145052 48.9788151 51.0046437 52.3100738"></polygon>
        </g>
    </g>
</svg>