<?xml version="1.0" encoding="utf-8"?>
<!-- Generator: Adobe Illustrator 22.1.0, SVG Export Plug-In . SVG Version: 6.00 Build 0)  -->
<svg version="1.1" id="Слой_1" xmlns="http://www.w3.org/2000/svg" xmlns:xlink="http://www.w3.org/1999/xlink" x="0px" y="0px"
	 viewBox="0 0 508 613" style="enable-background:new 0 0 508 613;" xml:space="preserve">
<style type="text/css">
	.st0{fill:#FFFFFF;stroke:#054CBE;stroke-width:4;}
	.st1{opacity:0.2;fill:none;stroke:#054CBE;stroke-width:2;enable-background:new    ;}
	.st2{opacity:0.5;}
	.st3{fill:none;stroke:#054CBE;stroke-width:2.2;}
	.st4{fill:none;stroke:#054CBE;stroke-width:2.2;stroke-dasharray:8.932;}
	.st5{fill:none;stroke:#054CBE;stroke-width:2;stroke-dasharray:8.932;}
	.st6{fill:none;stroke:#054CBE;stroke-width:2;}
	.st7{fill:#054CBE;fill-opacity:0.2;}
	.st8{fill:none;stroke:#054CBE;stroke-width:4;}
	.st9{fill:none;stroke:#054CBE;stroke-width:4.4;}
	.st10{fill:#FFFFFF;stroke:#054CBE;stroke-width:2;}
</style>
<title>smartcontract-image</title>
<desc>Created with Sketch.</desc>
<g id="pic_x2F_smartcontract">
	<g id="Ресурс-1" transform="translate(114.000000, 15.000000)">
		<polygon id="Shape" class="st0" points="-18.7,199.7 -18.7,383.3 140.4,475.1 299.5,383.3 299.5,199.7 140.4,107.9 		"/>
		<polygon id="Shape_1_" class="st1" points="-111.9,145.9 -111.9,437.1 140.4,582.7 392.7,437.1 392.7,145.9 140.4,0.3 		"/>
		<g id="Group" transform="translate(116.600000, 135.353383)" class="st2">
			<polyline id="Shape_2_" class="st3" points="-107.5,75.9 -111.3,78.1 -111.3,82.5 			"/>
			<path id="Shape_3_" class="st4" d="M-111.3,95.9V223"/>
			<polyline id="Shape_4_" class="st3" points="-111.3,229.7 -111.3,234.1 -107.5,236.3 			"/>
			<path id="Shape_5_" class="st4" d="M-95.9,243l110.1,63.6"/>
			<polyline id="Shape_6_" class="st3" points="20,309.9 23.8,312.1 27.6,309.9 			"/>
			<path id="Shape_7_" class="st5" d="M39.2,303.2l110.1-63.6"/>
			<polyline id="Shape_8_" class="st6" points="155.1,236.3 158.9,234.1 158.9,229.7 			"/>
			<path id="Shape_9_" class="st5" d="M158.9,216.4V89.2"/>
			<polyline id="Shape_10_" class="st6" points="158.9,82.5 158.9,78.1 155.1,75.9 			"/>
			<path id="Shape_11_" class="st5" d="M143.5,69.3L33.4,5.7"/>
			<polyline id="Shape_12_" class="st6" points="27.6,2.4 23.8,0.2 20,2.4 			"/>
			<path id="Shape_13_" class="st5" d="M8.4,9l-110.1,63.6"/>
		</g>
		<polygon id="Shape_14_" class="st7" points="84.1,234.5 196.7,234.5 196.7,352.7 162,387.4 84.1,387.4 		"/>
		<polygon id="Shape_15_" class="st7" points="-18.7,234.2 -18.7,368.7 -14.8,370.9 15.8,353.3 45.4,336.2 45.4,266.7 -14.8,232 		
			"/>
		<polygon id="Shape_16_" class="st0" points="-75,246.8 -75,316.3 -14.8,351 15.8,333.4 45.4,316.3 45.4,246.8 -14.8,212.1 		"/>
		<polyline id="Shape_17_" class="st1" points="-45.3,320.7 -64,309.9 -64,253.1 -14.8,224.8 34.4,253.1 34.4,309.9 17,320 		"/>
		<path id="Shape_18_" class="st8" d="M19.3,330.1c0.2-5.7-1.9-11.3-5.9-15.4c-3.9-4.1-9.4-6.5-15.1-6.6h-26.2
			c-5.7,0.1-11.2,2.5-15.1,6.6s-6.1,9.7-5.9,15.4"/>
		<path id="Shape_19_" class="st8" d="M0.6,274.6v9.8c0,8.5-6.9,15.4-15.4,15.4s-15.4-6.9-15.4-15.4v-9.8c0-8.5,6.9-15.4,15.4-15.4
			S0.6,266.1,0.6,274.6"/>
		<path id="Shape_20_" class="st0" d="M-14.8,309.1v6.2"/>
		<path id="Shape_21_" class="st0" d="M-14.8,320.4v23.3"/>
		<polygon id="Shape_22_" class="st7" points="299.5,234 295.9,232 235.7,266.7 235.7,336.2 295.9,370.9 299.5,368.9 		"/>
		<polygon id="Shape_23_" class="st0" points="235.7,246.8 235.7,316.3 295.9,351 326.5,333.4 356.1,316.3 356.1,246.8 295.9,212.1 
					"/>
		<polyline id="Shape_24_" class="st1" points="265.4,320.7 246.7,309.9 246.7,253.1 295.9,224.8 345.1,253.1 345.1,309.9 
			327.7,320 		"/>
		<path id="Shape_25_" class="st9" d="M330,330.1c0.2-5.7-1.9-11.3-5.9-15.4s-9.4-6.5-15.1-6.6h-26.2c-5.7,0.1-11.2,2.5-15.1,6.6
			s-6.1,9.7-5.9,15.4"/>
		<path id="Shape_26_" class="st8" d="M311.3,274.6v9.8c0,8.5-6.9,15.4-15.4,15.4s-15.4-6.9-15.4-15.4v-9.8
			c0-8.5,6.9-15.4,15.4-15.4S311.3,266.1,311.3,274.6"/>
		<path id="Shape_27_" class="st7" d="M261.8,330.1c-0.2-5.7,1.9-11.3,5.9-15.4s9.4-6.5,15.1-6.6H309c5.7,0.1,11.2,2.5,15.1,6.6
			s6.1,9.7,5.9,15.4l-34.1,21L261.8,330.1z"/>
		<path id="Shape_28_" class="st0" d="M295.9,309.1v6.2"/>
		<path id="Shape_29_" class="st0" d="M295.9,320.4v23.3"/>
		<polygon id="Shape_30_" class="st0" points="84.1,212.5 196.7,212.5 196.7,330.8 162,365.4 84.1,365.4 		"/>
		<polyline id="Shape_31_" class="st8" points="162,365.4 162,330.8 196.7,330.8 		"/>
		<ellipse id="Oval" class="st0" cx="136.1" cy="313.4" rx="5.8" ry="5.8"/>
		<ellipse id="Oval_1_" class="st0" cx="159.2" cy="294.7" rx="5.8" ry="5.8"/>
		<ellipse id="Oval_2_" class="st0" cx="121.6" cy="270.2" rx="5.8" ry="5.8"/>
		<polyline id="Shape_32_" class="st0" points="150.5,212.5 150.5,247.1 159.2,255.8 159.2,290.6 		"/>
		<polyline id="Shape_33_" class="st0" points="136.1,307.7 136.1,288.4 144.6,278.8 144.6,264.4 136.1,254.3 136.1,212.5 		"/>
		<polyline id="Shape_34_" class="st0" points="121.6,264.4 121.6,241.3 135.4,227.6 		"/>
		<path id="Shape_35_" class="st10" d="M45.4,282.4h38.7"/>
		<path id="Shape_36_" class="st10" d="M196.7,282.4h39"/>
	</g>
</g>
</svg>
