<?xml version="1.0" encoding="UTF-8"?>
<svg width="150px" height="150px" viewBox="0 0 150 150" version="1.1" xmlns="http://www.w3.org/2000/svg" xmlns:xlink="http://www.w3.org/1999/xlink">
    <!-- Generator: sketchtool 48.2 (47327) - http://www.bohemiancoding.com/sketch -->
    <title>2A661135-1B4A-4682-B23C-063F1CA0CB96</title>
    <desc>Created with sketchtool.</desc>
    <defs></defs>
    <g id="icon/products/chat" stroke="none" stroke-width="1" fill="none" fill-rule="evenodd">
        <g id="Group" transform="translate(0.000000, 33.000000)">
            <g id="Group-5">
                <path d="M116,59 L116,2 L18,2 L18,59 L88.8006849,59 L104,70.8951162 L104,59 L116,59 Z" id="Combined-Shape" stroke="#064CBE" stroke-width="4"></path>
                <path d="M60.5,29 L2,60.2 L2,72 L55.6917261,72 L67,80.8850723 L67,72 L76,72 L76,29 L60.5,29 Z" id="Combined-Shape-Copy-3" stroke="#064CBE" stroke-width="4" transform="translate(39.000000, 56.000000) scale(-1, 1) translate(-39.000000, -56.000000) "></path>
                <path d="M40,24 L44,24 L44,28 L40,28 L40,24 Z M40,35 L44,35 L44,39 L40,39 L40,35 Z M50,24 L54,24 L54,28 L50,28 L50,24 Z M50,35 L54,35 L54,39 L50,39 L50,35 Z M60,24 L64,24 L64,28 L60,28 L60,24 Z M60,35 L64,35 L64,39 L60,39 L60,35 Z M70,24 L74,24 L74,28 L70,28 L70,24 Z M70,35 L74,35 L74,39 L70,39 L70,35 Z M80,24 L84,24 L84,28 L80,28 L80,24 Z M80,35 L84,35 L84,39 L80,39 L80,35 Z M90,24 L94,24 L94,28 L90,28 L90,24 Z M90,35 L94,35 L94,39 L90,39 L90,35 Z" id="Combined-Shape" fill="#B4C9EB"></path>
            </g>
        </g>
    </g>
</svg>