<?xml version="1.0" encoding="UTF-8"?>
<svg width="32px" height="32px" viewBox="0 0 32 32" version="1.1" xmlns="http://www.w3.org/2000/svg" xmlns:xlink="http://www.w3.org/1999/xlink">
    <!-- Generator: sketchtool 48.2 (47327) - http://www.bohemiancoding.com/sketch -->
    <title>E154E439-386D-43DF-9B83-703553D4AAF0</title>
    <desc>Created with sketchtool.</desc>
    <defs></defs>
    <g id="cryptocions/ada" stroke="none" stroke-width="1" fill="none" fill-rule="evenodd">
        <g id="ada" transform="translate(0.000000, 1.000000)" fill="#FFFFFF">
            <path d="M15.6036094,0.58716839 C15.0380208,0.807602899 14.8929981,1.6124789 15.3338672,2.0199927 C15.7500823,2.44490922 16.5622095,2.29553584 16.7768431,1.74009888 C17.146651,1.05704195 16.2982681,0.228962312 15.6021592,0.585718163 L15.6036094,0.58716839 Z M8.12768902,1.37899235 C7.54034707,1.53271642 7.47508685,2.443459 8.04502608,2.66099305 C8.47574351,2.89302938 9.08628909,2.53192285 9.04133205,2.04174611 C9.08483886,1.58782504 8.54970509,1.20786556 8.12768902,1.37899235 Z M23.4391861,2.67404509 C23.8887564,2.7871628 24.2223087,2.4275065 24.326725,2.0359452 C24.2542137,1.57622323 23.8017428,1.13390398 23.3101159,1.36884076 C22.6749164,1.574773 22.7793328,2.59573283 23.4391861,2.67404509 Z M9.82880533,4.5085823 C9.1675018,4.84213451 9.0761375,5.83408981 9.67653149,6.26625746 C10.2972287,6.81734374 11.3965008,6.34456972 11.4327564,5.53099236 C11.5415235,4.7232159 10.5336157,4.0691635 9.82880533,4.5085823 Z M20.6039922,4.9755554 C20.2109807,5.75287709 21.0042549,6.64331649 21.8410359,6.48959243 C22.4718846,6.28366019 22.908403,5.53389281 22.5530973,4.92914814 C22.1948913,4.15182644 20.9186915,4.1764803 20.6039922,4.9755554 Z M14.7030184,6.44463539 C14.6653125,7.00442302 15.0728263,7.46269477 15.5557519,7.69618132 C15.8719014,7.71503427 16.2156052,7.77449358 16.5056506,7.61496861 C17.14085,7.33942547 17.4540991,6.50989561 17.1016939,5.90660116 C16.9131644,5.47153305 16.4345895,5.28590399 15.9951707,5.19889036 C15.3309667,5.24674786 14.6957673,5.75722777 14.7030184,6.44463539 Z M3.58557794,7.44529204 C3.02288985,7.69908178 2.94457759,8.55616595 3.44055524,8.9129218 C3.90752834,9.29288129 4.72255594,9.05069337 4.85597682,8.45465006 C5.10106519,7.76579222 4.23092897,7.05373074 3.58557794,7.44384182 L3.58557794,7.44529204 Z M27.4592154,7.44239159 C26.8965273,7.78174472 26.9588871,8.68668639 27.5563806,8.95062771 C28.0987655,9.26967766 28.8804379,8.80270455 28.842732,8.18345761 C28.9079922,7.50475135 28.005951,7.0247262 27.4592154,7.44384182 L27.4592154,7.44239159 Z M17.8297079,8.6765348 C16.7043317,9.01298747 16.0372273,10.3558977 16.495499,11.4290657 C16.8986621,12.6284035 18.4924616,13.1852907 19.5844826,12.5283378 C20.6358972,11.9729009 20.9970037,10.49802 20.3182975,9.53071852 C19.8049171,8.73889456 18.7317491,8.35603462 17.8297079,8.6765348 Z M12.5320285,8.78240137 C11.4661117,9.2508247 10.9759349,10.6328911 11.5284714,11.6509504 C12.0215486,12.7023651 13.4572734,13.1345327 14.4753328,12.5645935 C15.4919419,12.0584642 15.9313607,10.6938006 15.3628717,9.71344713 C14.8799461,8.70698957 13.5326852,8.31687849 12.5320285,8.78240137 Z M7.22854826,10.5647304 C7.08207533,11.3101471 7.75788112,12.0671656 8.53085213,12.0004552 C9.23276202,12.0048058 9.74469216,11.3681562 9.78819897,10.7170042 C9.70973967,10.0587866 9.1858256,9.54270117 8.52650145,9.47415967 C7.91305542,9.51766648 7.30541029,9.93098118 7.22854826,10.5647304 Z M22.8939007,9.61338146 C22.0426174,10.0078432 21.9802577,11.3130475 22.7996359,11.7771202 C23.5885595,12.3340074 24.8067502,11.6654527 24.7530918,10.715554 C24.7878972,9.8193137 23.6871749,9.1594604 22.8939007,9.61338146 Z M10.3784414,12.9590552 C9.11964431,13.257802 8.38292898,14.7805404 8.98912388,15.9160682 C9.51845675,17.1545621 11.347193,17.5200193 12.3391483,16.6121771 C13.1135696,15.9929302 13.3166014,14.8196965 12.8191735,13.9756644 C12.3638022,13.1374332 11.3036862,12.708166 10.3769912,12.9590552 L10.3784414,12.9590552 Z M20.4241641,12.9547046 C19.1566656,13.2955079 18.4866607,14.8762554 19.1523149,15.9943804 C19.7034012,17.0762498 21.2507935,17.4388066 22.2499999,16.7484985 C23.2027991,16.1524552 23.508797,14.7732893 22.8677966,13.8494946 C22.3834208,13.0417182 21.324755,12.7009148 20.4241641,12.9547046 Z M4.41365758,14.0075694 C3.64503725,14.222203 3.4173516,15.3185746 4.03369809,15.8102016 C4.56013051,16.3351838 5.57964012,16.0712425 5.77832122,15.3606312 C6.10172185,14.5789588 5.2141829,13.7102728 4.41365758,14.0075694 Z M26.1221061,15.1416469 C26.255527,15.4461946 26.4165022,15.7652446 26.7312014,15.9218691 C27.4041068,16.2858761 28.3540055,15.7594436 28.3032475,14.9835722 C28.3467544,14.39478 27.8130708,13.9597119 27.264885,13.8741485 C26.6007458,13.9116051 26.0908146,14.4771887 26.1221061,15.1416469 Z M0.476291175,14.3933298 C0.07747874,14.5717077 -0.0950982773,15.103941 0.19494713,15.4505453 C0.52269844,15.9479732 1.41748852,15.7188373 1.44214238,15.122794 C1.55380986,14.5963616 0.957766551,14.1859473 0.476291175,14.3933298 Z M30.8570974,14.3802777 C30.2915088,14.6775743 30.5133935,15.7028848 31.1979007,15.6419753 C31.685177,15.7144866 32.1028424,15.1300451 31.8751567,14.7036784 C31.7402856,14.3135673 31.1964505,14.1438907 30.8570974,14.3802777 Z M12.994651,17.2415757 C12.0462025,17.4446075 11.315288,18.3306962 11.3181885,19.2849456 C11.2848333,20.2812515 12.0723066,21.2326005 13.0758637,21.3921255 C14.3738169,21.6908722 15.7152769,20.5408422 15.6326139,19.242889 C15.6253628,17.9579878 14.2621494,16.918175 12.9932007,17.2415757 L12.994651,17.2415757 Z M18.015337,17.2401254 C17.2525175,17.4257545 16.6057163,18.0450015 16.4374899,18.8063706 C16.1039377,19.9476993 16.9856758,21.2398516 18.1821131,21.3921255 C19.4525119,21.644465 20.7533656,20.5321408 20.6852049,19.2588415 C20.7055081,17.9449358 19.3016883,16.88627 18.0167872,17.2401254 L18.015337,17.2401254 Z M8.33362126,18.0304992 C7.37212073,18.1262142 6.86454127,19.3980633 7.54324752,20.092722 C8.12333834,20.8178355 9.43434358,20.5770979 9.6982849,19.6895589 C10.0593914,18.8585788 9.22406066,17.8811258 8.33507148,18.0304992 L8.33362126,18.0304992 Z M23.0592266,18.0696553 C22.1006265,18.3698523 21.9396513,19.8099278 22.8199391,20.297204 C23.5958106,20.8424894 24.799499,20.1985886 24.767594,19.2660926 C24.8285036,18.4177098 23.853951,17.7433542 23.0592266,18.0696553 Z M27.1749709,22.130291 C27.3852538,22.7074814 28.2626412,22.8452529 28.6498518,22.3623273 C28.9355465,22.1027367 28.8644854,21.6995736 28.8224288,21.3616707 C28.6179468,21.152838 28.3931616,20.9048492 28.0726614,20.9106501 C27.4287606,20.8047835 26.8646223,21.5603518 27.1749709,22.130291 Z M3.58267749,21.0687248 C3.00983781,21.3558698 2.98953463,22.2535603 3.54352136,22.5682596 C4.05980218,22.9163141 4.84292478,22.5668094 4.91398591,21.9548135 C5.05030725,21.2630552 4.18452171,20.6757133 3.58267749,21.070175 L3.58267749,21.0687248 Z M15.4643876,22.3492753 C14.5159391,22.6494723 14.3738169,24.0793961 15.2280006,24.5652222 C15.9980711,25.1308108 17.2394655,24.4782086 17.1800062,23.535561 C17.255418,22.6828275 16.2518609,22.0084719 15.4643876,22.3492753 Z M9.96222622,23.612423 C9.48945221,23.7864503 9.29657201,24.2998307 9.28787065,24.7595526 C9.45029608,25.1815687 9.77804739,25.6267884 10.2812762,25.63694 C10.8903715,25.7268541 11.4907655,25.2105732 11.4704623,24.6043783 C11.5313719,23.8647625 10.6322311,23.2658188 9.96222622,23.612423 Z M21.1086712,23.6240249 C20.4357659,23.9619278 20.3603541,24.9828876 20.9810512,25.4078041 C21.6235018,25.950189 22.7314753,25.4223064 22.7140725,24.595677 C22.7793328,23.8067535 21.7989793,23.203459 21.1086712,23.6240249 Z M23.0476248,28.3372627 C23.362324,28.8680458 24.2803177,28.6795163 24.3397771,28.0617196 C24.4238902,27.6034478 24.0004239,27.3076015 23.6001613,27.227839 C23.1012832,27.3322554 22.7401766,27.8818914 23.0476248,28.338713 L23.0476248,28.3372627 Z M7.65926569,27.9413507 C7.7027725,28.4619823 8.27996286,28.9130029 8.7759405,28.5838013 C9.328477,28.2937559 9.14139772,27.3583595 8.51054896,27.3148527 C8.07693107,27.2205879 7.78108476,27.5802442 7.65926569,27.9413507 Z M15.0844281,28.3575659 C14.8625434,28.8985006 15.3933265,29.552553 15.9806684,29.4843923 C16.2968179,29.4916434 16.5419063,29.2697587 16.731886,29.0493242 C16.7681417,28.8999508 16.8058476,28.7491272 16.8479042,28.5997538 C16.7695919,28.3126089 16.6796779,27.9761562 16.3722297,27.8456358 C15.9081571,27.5613913 15.204797,27.8224321 15.0829779,28.3575659 L15.0844281,28.3575659 Z" id="Shape"></path>
        </g>
    </g>
</svg>