<?xml version="1.0" encoding="UTF-8"?>
<svg width="35px" height="35px" viewBox="0 0 35 35" version="1.1" xmlns="http://www.w3.org/2000/svg" xmlns:xlink="http://www.w3.org/1999/xlink">
    <!-- Generator: sketchtool 48.2 (47327) - http://www.bohemiancoding.com/sketch -->
    <title>36DAD99E-E7D1-400B-91EF-B6E06F97C19B</title>
    <desc>Created with sketchtool.</desc>
    <defs></defs>
    <g id="smallicon/adres" stroke="none" stroke-width="1" fill="none" fill-rule="evenodd">
        <path d="M16.9844384,28.5086694 C16.9727581,28.5200712 16.9602019,28.5324242 16.946566,28.5458064 C16.9656563,28.5270712 16.9881639,28.504076 17.0137633,28.4771309 Z M17.5,27.9232986 C17.6995917,27.6854799 17.9288028,27.403334 18.175242,27.0912281 C19.0884985,25.9346237 20.1032473,24.5425772 21.0349868,23.1435868 C23.4860973,19.4632871 25,16.2988711 25,14.5 C25,10.3578644 21.6421356,7 17.5,7 C13.3578644,7 10,10.3578644 10,14.5 C10,16.2988711 11.5139027,19.4632871 13.9650132,23.1435868 C14.8967527,24.5425772 15.9115015,25.9346237 16.824758,27.0912281 C17.0711972,27.403334 17.3004083,27.6854799 17.5,27.9232986 Z" id="Oval" stroke="#172444" stroke-width="2"></path>
        <circle id="Oval-Copy" fill="#132033" cx="17.5" cy="14.5" r="2.5"></circle>
    </g>
</svg>