<?xml version="1.0" encoding="UTF-8"?>
<svg width="32px" height="32px" viewBox="0 0 32 32" version="1.1" xmlns="http://www.w3.org/2000/svg" xmlns:xlink="http://www.w3.org/1999/xlink">
    <!-- Generator: sketchtool 48.2 (47327) - http://www.bohemiancoding.com/sketch -->
    <title>975C0EC5-AC05-424F-ABF6-CCE74A9C48C2</title>
    <desc>Created with sketchtool.</desc>
    <defs></defs>
    <g id="cryptocions/bch" stroke="none" stroke-width="1" fill="none" fill-rule="evenodd">
        <g id="bch" transform="translate(2.000000, -2.000000)" fill="#FFFFFF">
            <path d="M22.6398833,8.0934546 C21.3498444,4.81937888 18.1205963,4.52384872 14.3583977,5.25437271 L13.0185503,0.584 L10.1761478,1.39919837 L11.479469,5.94837051 C10.7323422,6.16088658 9.97359345,6.39498631 9.21816523,6.62908605 L7.9065426,2.05002883 L5.06414015,2.86356692 L6.40232729,7.53393963 C5.7896833,7.72321175 5.19032157,7.90750303 4.59926125,8.07685178 L4.59594069,8.06356952 L0.674355066,9.18592002 L1.54600301,12.2225754 C1.54600301,12.2225754 3.63297724,11.5800464 3.60973329,11.6298548 C4.76030858,11.2977985 5.32812496,11.860634 5.60207146,12.4052064 L7.12953072,17.7264096 C7.20756396,17.704826 7.31216172,17.6766012 7.43502257,17.6599983 L7.13451156,17.746333 L9.27129424,25.2009983 C9.32442326,25.5778823 9.27627509,26.2170908 8.4726987,26.4495302 C8.5175263,26.4711139 6.40564785,27.0405905 6.40564785,27.0405905 L6.81407717,30.5985744 L10.5148453,29.5359941 C11.202202,29.3400808 11.8829175,29.1574498 12.5503508,28.9714983 L13.9051408,33.695 L16.7442226,32.8814619 L15.4060355,28.2077686 C16.1670377,28.0056828 16.9258309,27.7953681 17.6822819,27.5768616 L19.0154881,32.2306314 L21.8578906,31.4154331 L20.5080815,26.7002328 C25.2083393,25.0548935 28.2084685,22.8915463 27.3368205,18.282604 C26.6361816,14.5735345 24.4728344,13.4478634 21.5723221,13.5740448 C22.9802411,12.2624222 23.5879042,10.487581 22.6398833,8.0934546 Z M21.5590399,19.3335624 C22.5718118,22.8649818 16.4121663,24.1965278 14.4862394,24.7510619 L12.693135,18.4917995 C14.6190619,17.9389257 20.5031006,15.6527176 21.5590399,19.3352227 L21.5590399,19.3335624 Z M17.7038655,10.882728 C18.6236616,14.0953733 13.4751278,15.1662551 11.8712955,15.6261531 L10.2442194,9.94964965 C11.8480516,9.48975159 16.7425624,7.53393963 17.7038655,10.882728 Z" id="Shape"></path>
        </g>
    </g>
</svg>