<?xml version="1.0" encoding="UTF-8"?>
<svg width="23px" height="23px" viewBox="0 0 23 23" version="1.1" xmlns="http://www.w3.org/2000/svg" xmlns:xlink="http://www.w3.org/1999/xlink">
    <!-- Generator: sketchtool 48.2 (47327) - http://www.bohemiancoding.com/sketch -->
    <title>E5E4D266-C636-4AFB-8094-1F22F7C08A5E</title>
    <desc>Created with sketchtool.</desc>
    <defs></defs>
    <g id="cryptocions/bitcoin" stroke="none" stroke-width="1" fill="none" fill-rule="evenodd">
        <g id="bitcoin" transform="translate(3.000000, 0.000000)" fill="#FFFFFF" fill-rule="nonzero">
            <path d="M15.7121449,11.428632 C14.9544129,10.8704791 13.875008,10.6472382 13.875008,10.6472382 C13.875008,10.6472382 14.7884384,10.129287 15.1616993,9.61184332 C15.5353754,9.09419663 15.7221096,8.29219449 15.7533531,7.87606706 C15.784389,7.45973658 15.857152,5.71411294 14.4663504,4.70937685 C13.3905785,3.93194237 12.1577588,3.62332383 10.50227,3.52292128 L10.50227,0 L8.2813885,0 L8.2813885,3.48129839 C7.7858525,3.48129839 7.20675838,3.48129839 6.58977765,3.48129839 L6.58977765,0 L4.36910375,0 L4.36910375,3.48129839 C2.10203174,3.48129839 7.37535621e-16,3.48129839 7.37535621e-16,3.48129839 L7.37535621e-16,5.73695478 C7.37535621e-16,5.73695478 0.9339826,5.73695478 1.28420012,5.73695478 C1.63431385,5.73695478 2.25700352,5.7750245 2.52158694,6.06465894 C2.78627416,6.35378579 2.83298367,6.50616619 2.83298367,7.06919199 C2.83298367,7.63242084 2.83308747,15.844009 2.83308747,16.0571995 C2.83308747,16.2702884 2.79156791,16.5340354 2.60462607,16.7067197 C2.41799563,16.8794039 2.23126139,16.9197071 1.78482227,16.9197071 C1.33848695,16.9197071 0.456611409,16.9197071 0.456611409,16.9197071 L0,19.528549 C0,19.528549 2.17126562,19.528549 4.36910375,19.528549 L4.36910375,23 L6.58988145,23 L6.58988145,19.528549 C7.27225549,19.528549 7.86640046,19.528549 8.2814923,19.528549 L8.2814923,23 L10.5023738,23 L10.5023738,19.4712921 C11.0764856,19.4385014 11.6117766,19.3959648 11.9240037,19.3559662 C12.557177,19.2749539 13.9891868,19.1125231 15.3281928,18.1989513 C16.6667835,17.2852779 16.967489,15.8540594 16.9987324,14.4128921 C17.0302873,12.9716232 16.4691504,11.9868864 15.7121449,11.428632 Z M7,6.04882109 C7,6.04882109 7.69227103,5.99168588 8.37446044,6.00103354 C9.05685352,6.01047659 9.65726981,6.02964884 10.5535154,6.28718651 C11.4493536,6.54481956 11.9783839,7.17426069 11.9991581,7.91816301 C12.0194232,8.66206533 11.6728803,9.15777764 11.0622806,9.4725459 C10.4514772,9.78721878 9.60686173,9.95891055 8.81234885,9.9872397 C8.01834514,10.0159504 7,9.9872397 7,9.9872397 L7,6.04882109 Z M11.8959771,16.323189 C11.3951337,16.6150815 10.3933446,16.8743374 9.42253233,16.9497691 C8.45141338,17.025525 7,16.9931045 7,16.9931045 L7,12.0335252 C7,12.0335252 8.39017533,11.9580935 9.47375147,12.0335252 C10.5571231,12.1094972 11.4667996,12.4009575 11.8754281,12.6174183 C12.2842611,12.8333388 13,13.3086233 13,14.4433406 C13,15.5776257 12.3965138,16.0315126 11.8959771,16.323189 Z" id="BTC_alt_1_"></path>
        </g>
    </g>
</svg>