<?xml version="1.0" encoding="UTF-8"?>
<svg width="32px" height="32px" viewBox="0 0 32 32" version="1.1" xmlns="http://www.w3.org/2000/svg" xmlns:xlink="http://www.w3.org/1999/xlink">
    <!-- Generator: sketchtool 48.2 (47327) - http://www.bohemiancoding.com/sketch -->
    <title>ACF4EEFE-2AF0-4DCD-8523-75DC2C8BCDD1</title>
    <desc>Created with sketchtool.</desc>
    <defs></defs>
    <g id="cryptocions/eos" stroke="none" stroke-width="1" fill="none" fill-rule="evenodd">
        <g id="eos" transform="translate(6.000000, 1.000000)" fill="#FFFFFF" fill-rule="nonzero">
            <polygon id="Shape" points="11.8178806 24.7949593 14.6759259 15.4520477 10.0118896 7.02666667 5.41666667 15.3279692 8.24995249 24.7949593"></polygon>
            <polygon id="Shape" points="12.2916667 24.8 20 24.8 15 16.12"></polygon>
            <polygon id="Shape" points="10.4762791 0.340243902 10.4166667 6.73431226 15 14.88 16.6809586 9.37712256"></polygon>
            <polygon id="Shape" points="15.4166667 15.5 20 23.7666667 16.875 10.54"></polygon>
            <polygon id="Shape" points="11.6666667 25.2133333 8.33333333 25.2133333 9.98181528 30.5060163"></polygon>
            <polygon id="Shape" points="19.6759259 25.2133333 12.2078739 25.2133333 10.4166667 30.884065"></polygon>
            <polygon id="Shape-Copy-4" transform="translate(3.854167, 20.460000) scale(-1, 1) translate(-3.854167, -20.460000) " points="0 24.8 7.70833333 24.8 2.70833333 16.12"></polygon>
            <polygon id="Shape-Copy-3" transform="translate(6.465479, 7.683211) scale(-1, 1) translate(-6.465479, -7.683211) " points="3.39294574 0.413333333 3.33333333 6.80740169 7.91666667 14.9530894 9.59762524 9.45021199"></polygon>
            <polygon id="Shape-Copy-2" transform="translate(2.291667, 17.360000) scale(-1, 1) translate(-2.291667, -17.360000) " points="0 15.7066667 4.58333333 23.9733333 1.45833333 10.7466667"></polygon>
            <polygon id="Shape-Copy" transform="translate(5.046296, 28.048699) scale(-1, 1) translate(-5.046296, -28.048699) " points="9.67592593 25.2133333 2.20787389 25.2133333 0.416666667 30.884065"></polygon>
        </g>
    </g>
</svg>