<?xml version="1.0" encoding="UTF-8"?>
<svg width="23px" height="23px" viewBox="0 0 23 23" version="1.1" xmlns="http://www.w3.org/2000/svg" xmlns:xlink="http://www.w3.org/1999/xlink">
    <!-- Generator: sketchtool 48.2 (47327) - http://www.bohemiancoding.com/sketch -->
    <title>262871B9-AEC1-491C-A54B-8617A74F2FBF</title>
    <desc>Created with sketchtool.</desc>
    <defs></defs>
    <g id="cryptocions/bitcoin-copy-3" stroke="none" stroke-width="1" fill="none" fill-rule="evenodd">
        <g id="IOT-alt" fill="#FFFFFF" fill-rule="nonzero">
            <g id="Group" transform="translate(5.000000, 10.000000)">
                <ellipse id="Oval" cx="0.930952381" cy="1.82588235" rx="1" ry="1"></ellipse>
                <ellipse id="Oval" cx="0.660952381" cy="3.13576471" rx="1" ry="1"></ellipse>
                <ellipse id="Oval" cx="0.697857143" cy="4.72435294" rx="1" ry="1"></ellipse>
                <ellipse id="Oval" cx="1.1272619" cy="6.50717647" rx="1" ry="1"></ellipse>
                <ellipse id="Oval" cx="2.20964286" cy="8.44094118" rx="1" ry="1"></ellipse>
                <ellipse id="Oval" cx="3.84178571" cy="10.4417647" rx="1.0722619" ry="1.05964706"></ellipse>
                <ellipse id="Oval" cx="2.71630952" cy="1.52964706" rx="1" ry="1"></ellipse>
                <ellipse id="Oval" cx="2.74845238" cy="3.09776471" rx="1" ry="1"></ellipse>
                <ellipse id="Oval" cx="3.20464286" cy="4.90705882" rx="1" ry="1"></ellipse>
                <ellipse id="Oval" cx="4.16083333" cy="6.83858824" rx="1" ry="1"></ellipse>
                <ellipse id="Oval" cx="5.85452381" cy="8.77658824" rx="1.07095238" ry="1.05835294"></ellipse>
                <ellipse id="Oval" cx="8.29357143" cy="10.6518824" rx="1.25821429" ry="1.24341176"></ellipse>
                <ellipse id="Oval" cx="4.58571429" cy="0.688823529" rx="1" ry="1"></ellipse>
                <ellipse id="Oval" cx="5.03119048" cy="2.50270588" rx="1" ry="1"></ellipse>
                <ellipse id="Oval" cx="6.08095238" cy="4.48917647" rx="1" ry="1"></ellipse>
                <ellipse id="Oval" cx="7.69464286" cy="6.49082353" rx="1.09357143" ry="1.08070588"></ellipse>
                <ellipse id="Oval" cx="10.174881" cy="8.30011765" rx="1.27452381" ry="1.25952941"></ellipse>
                <ellipse id="Oval" cx="13.4886905" cy="9.77494118" rx="1.49738095" ry="1.47976471"></ellipse>
            </g>
            <g id="Group" transform="translate(12.000000, 0.000000)">
                <ellipse id="Oval" cx="3.64825275" cy="15.5366761" rx="1" ry="1"></ellipse>
                <path d="M4.66351648,14.668169 C4.93634066,14.5206761 5.28556044,14.6074366 5.44403297,14.8617465 C5.60202198,15.1159437 5.50906593,15.4414648 5.23624176,15.5887324 C4.96365934,15.736338 4.6141978,15.6498028 4.45620879,15.395493 C4.29797802,15.1412958 4.39093407,14.8155493 4.66351648,14.668169 Z" id="Shape"></path>
                <ellipse id="Oval" cx="6.34325275" cy="14.3350986" rx="1" ry="1"></ellipse>
                <path d="M7.31028571,12.4857465 C7.69032967,12.2804507 8.17674725,12.4010141 8.39710989,12.7550423 C8.61723077,13.1095211 8.48776923,13.5628169 8.10808791,13.768338 C7.72804396,13.9734085 7.24138462,13.8529577 7.02126374,13.4987042 C6.8009011,13.1446761 6.93048352,12.6910423 7.31028571,12.4857465 Z" id="Shape"></path>
                <ellipse id="Oval" cx="8.87651648" cy="11.3118873" rx="1" ry="1"></ellipse>
                <ellipse id="Oval" cx="9.82396703" cy="9.01408451" rx="1.08875824" ry="1.01487324"></ellipse>
                <ellipse id="Oval" cx="2.47572527" cy="14.2172394" rx="1" ry="1"></ellipse>
                <ellipse id="Oval" cx="3.85302198" cy="13.4375211" rx="1" ry="1"></ellipse>
                <ellipse id="Oval" cx="5.22874725" cy="12.1949296" rx="1" ry="1"></ellipse>
                <ellipse id="Oval" cx="6.45857143" cy="10.4839437" rx="1" ry="1"></ellipse>
                <ellipse id="Oval" cx="7.31862637" cy="8.16608451" rx="1.08742857" ry="1.0136338"></ellipse>
                <ellipse id="Oval" cx="7.74315385" cy="5.26816901" rx="1.27757143" ry="1.19087324"></ellipse>
                <ellipse id="Oval" cx="0.776043956" cy="13.0904789" rx="1" ry="1"></ellipse>
                <ellipse id="Oval" cx="2.16143956" cy="11.8545352" rx="1" ry="1"></ellipse>
                <ellipse id="Oval" cx="3.39247253" cy="10.0404507" rx="1" ry="1"></ellipse>
                <ellipse id="Oval" cx="4.34959341" cy="7.7576338" rx="1.1103956" ry="1.03504225"></ellipse>
                <ellipse id="Oval" cx="4.69458242" cy="4.85769014" rx="1.29425275" ry="1.20642254"></ellipse>
                <ellipse id="Oval" cx="4.31756044" cy="1.43571831" rx="1.52041758" ry="1.41723944"></ellipse>
            </g>
            <g id="Group" transform="translate(0.000000, 2.000000)">
                <ellipse id="Oval" cx="14.5362891" cy="3.10278571" rx="1" ry="1"></ellipse>
                <ellipse id="Oval" cx="13.5424219" cy="2.25410204" rx="1" ry="1"></ellipse>
                <ellipse id="Oval" cx="12.1565625" cy="1.52147959" rx="1" ry="1"></ellipse>
                <ellipse id="Oval" cx="10.4091797" cy="1.01559184" rx="1" ry="1"></ellipse>
                <ellipse id="Oval" cx="8.20875" cy="0.969346939" rx="1" ry="1"></ellipse>
                <ellipse id="Oval" cx="5.67785156" cy="1.3387449" rx="1.05550781" ry="1.0109898"></ellipse>
                <ellipse id="Oval" cx="13.9071094" cy="4.69969388" rx="1" ry="1"></ellipse>
                <ellipse id="Oval" cx="12.5411719" cy="3.9732449" rx="1" ry="1"></ellipse>
                <ellipse id="Oval" cx="10.7578125" cy="3.47633673" rx="1" ry="1"></ellipse>
                <ellipse id="Oval" cx="8.62160156" cy="3.32839796" rx="1" ry="1"></ellipse>
                <ellipse id="Oval" cx="6.114375" cy="3.77805102" rx="1.05433594" ry="1.00986735"></ellipse>
                <ellipse id="Oval" cx="3.29214844" cy="4.86514286" rx="1.2384375" ry="1.18620408"></ellipse>
                <ellipse id="Oval" cx="13.7049609" cy="6.62660204" rx="1" ry="1"></ellipse>
                <ellipse id="Oval" cx="11.9230078" cy="6.11880612" rx="1" ry="1"></ellipse>
                <ellipse id="Oval" cx="9.69292969" cy="6.02059184" rx="1" ry="1"></ellipse>
                <ellipse id="Oval" cx="7.17070312" cy="6.37472449" rx="1.07648437" ry="1.03108163"></ellipse>
                <ellipse id="Oval" cx="4.38480469" cy="7.52703061" rx="1.25472656" ry="1.20180612"></ellipse>
                <ellipse id="Oval" cx="1.47398438" cy="9.51937755" rx="1.47386719" ry="1.41170408"></ellipse>
            </g>
        </g>
    </g>
</svg>