<?xml version="1.0" encoding="UTF-8"?>
<svg width="28px" height="28px" viewBox="0 0 28 28" version="1.1" xmlns="http://www.w3.org/2000/svg" xmlns:xlink="http://www.w3.org/1999/xlink">
    <!-- Generator: sketchtool 48.2 (47327) - http://www.bohemiancoding.com/sketch -->
    <title>72116655-2F33-47CA-B3A9-72681D3E75BD</title>
    <desc>Created with sketchtool.</desc>
    <defs></defs>
    <g id="icons/linkedin-copy-6" stroke="none" stroke-width="1" fill="none" fill-rule="evenodd">
        <path d="M8.48880178,23.4379031 L4.25820191,23.4379031 L4.25820191,10.7962466 L8.48880178,10.7962466 L8.48880178,23.4379031 Z M6.37392499,9.06918567 L6.34547665,9.06918567 C4.92677041,9.06918567 4.00711441,8.09895889 4.00711441,6.88428757 C4.00711441,5.64513924 4.95378656,4.70121223 6.40061565,4.70121223 C7.84757494,4.70121223 8.73761081,5.64487885 8.76573366,6.88428757 C8.76573366,8.09921928 7.84790044,9.06918567 6.37392499,9.06918567 Z M23.7388686,23.4379031 L19.5096358,23.4379031 L19.5096358,16.6741778 C19.5096358,14.9746535 18.8968573,13.8149903 17.3674174,13.8149903 C16.19739,13.8149903 15.5028469,14.5973431 15.1978573,15.35268 C15.0848451,15.6224478 15.0568525,15.9997582 15.0568525,16.3765478 L15.0568525,23.4376427 L10.8284009,23.4376427 C10.8284009,23.4376427 10.8837352,11.9816887 10.8284009,10.7960513 L15.0575035,10.7960513 L15.0575035,12.5882758 C15.6189187,11.7270888 16.6221621,10.4986167 18.8680184,10.4986167 C21.651659,10.4986167 23.7388686,12.3043816 23.7388686,16.1891295 L23.7388686,23.4379031 Z M15.0301618,12.6521451 C15.041673,12.6332711 15.057747,12.61056 15.0737174,12.5884711 L15.0737174,12.6521451 L15.0301618,12.6521451 Z" id="LinkedIn__x28_alt_x29_" fill="#FFFFFF" fill-rule="nonzero"></path>
    </g>
</svg>