<?xml version="1.0" encoding="UTF-8"?>
<svg width="32px" height="32px" viewBox="0 0 32 32" version="1.1" xmlns="http://www.w3.org/2000/svg" xmlns:xlink="http://www.w3.org/1999/xlink">
    <!-- Generator: sketchtool 48.2 (47327) - http://www.bohemiancoding.com/sketch -->
    <title>3A233F5D-7CAB-4837-BC7B-8D8F07F8508A</title>
    <desc>Created with sketchtool.</desc>
    <defs></defs>
    <g id="cryptocions/miota" stroke="none" stroke-width="1" fill="none" fill-rule="evenodd">
        <g id="IOT-alt" fill="#FFFFFF" fill-rule="nonzero">
            <g id="Group" transform="translate(6.956522, 14.090909)">
                <ellipse id="Oval" cx="1.2952381" cy="2.57283422" rx="1" ry="1"></ellipse>
                <ellipse id="Oval" cx="0.919585921" cy="4.41857754" rx="1" ry="1"></ellipse>
                <ellipse id="Oval" cx="0.970931677" cy="6.65704278" rx="1" ry="1"></ellipse>
                <ellipse id="Oval" cx="1.56836439" cy="9.16920321" rx="1.08952381" ry="1.09047059"></ellipse>
                <ellipse id="Oval" cx="3.07428571" cy="11.8940535" rx="1.26989648" ry="1.271"></ellipse>
                <ellipse id="Oval" cx="5.34509317" cy="14.7133957" rx="1.49184265" ry="1.49313904"></ellipse>
                <ellipse id="Oval" cx="3.77921325" cy="2.15541176" rx="1" ry="1"></ellipse>
                <ellipse id="Oval" cx="3.82393375" cy="4.36503209" rx="1" ry="1"></ellipse>
                <ellipse id="Oval" cx="4.45863354" cy="6.91449198" rx="1.05805383" ry="1.05897326"></ellipse>
                <ellipse id="Oval" cx="5.78898551" cy="9.63619251" rx="1.27834369" ry="1.27945455"></ellipse>
                <ellipse id="Oval" cx="8.14542443" cy="12.3670107" rx="1.4900207" ry="1.49131551"></ellipse>
                <ellipse id="Oval" cx="11.538882" cy="15.0094706" rx="1.75055901" ry="1.75208021"></ellipse>
                <ellipse id="Oval" cx="6.38012422" cy="0.970614973" rx="1" ry="1"></ellipse>
                <ellipse id="Oval" cx="6.99991718" cy="3.52654011" rx="1.09217391" ry="1.09312299"></ellipse>
                <ellipse id="Oval" cx="8.46045549" cy="6.32565775" rx="1.25929607" ry="1.26039037"></ellipse>
                <ellipse id="Oval" cx="10.7055901" cy="9.14616043" rx="1.52149068" ry="1.52281283"></ellipse>
                <ellipse id="Oval" cx="14.1563561" cy="11.6956203" rx="1.77325052" ry="1.77479144"></ellipse>
                <ellipse id="Oval" cx="18.7668737" cy="13.7737807" rx="2.08331263" ry="2.08512299"></ellipse>
            </g>
            <g id="Group" transform="translate(16.695652, 0.000000)">
                <ellipse id="Oval" cx="5.07582991" cy="21.892589" rx="1" ry="1"></ellipse>
                <path d="M6.48837076,20.6687836 C6.86795222,20.4609526 7.35382322,20.5832061 7.57430674,20.9415519 C7.79411753,21.2997388 7.66478739,21.7584277 7.28520592,21.9659411 C6.90596082,22.1739309 6.41975346,22.0519949 6.19994267,21.6936492 C5.97979551,21.3354622 6.10912566,20.8764558 6.48837076,20.6687836 Z" id="Shape"></path>
                <ellipse id="Oval" cx="8.82539513" cy="20.1994571" rx="1" ry="1"></ellipse>
                <path d="M10.1708323,17.5935519 C10.6995891,17.3042714 11.376344,17.4741562 11.6829355,17.9730141 C11.9891906,18.472507 11.8090702,19.111242 11.280818,19.4008399 C10.7520612,19.6898028 10.0749699,19.5200768 9.76871476,19.0209014 C9.46212327,18.5220435 9.64241185,17.8828323 10.1708323,17.5935519 Z" id="Shape"></path>
                <ellipse id="Oval" cx="12.349936" cy="15.9394776" rx="1.28943335" ry="1.21729577"></ellipse>
                <ellipse id="Oval" cx="13.668128" cy="12.7016645" rx="1.51479408" ry="1.43004866"></ellipse>
                <ellipse id="Oval" cx="3.44448734" cy="20.0333828" rx="1" ry="1"></ellipse>
                <ellipse id="Oval" cx="5.36072623" cy="18.9346889" rx="1" ry="1"></ellipse>
                <ellipse id="Oval" cx="7.27477879" cy="17.1837644" rx="1.07433158" ry="1.01422791"></ellipse>
                <ellipse id="Oval" cx="8.98583851" cy="14.7728297" rx="1.29801051" ry="1.22539309"></ellipse>
                <ellipse id="Oval" cx="10.1824367" cy="11.5067554" rx="1.5129441" ry="1.42830218"></ellipse>
                <ellipse id="Oval" cx="10.7730836" cy="7.42332907" rx="1.77749068" ry="1.67804866"></ellipse>
                <ellipse id="Oval" cx="1.07971333" cy="18.4456748" rx="1" ry="1"></ellipse>
                <ellipse id="Oval" cx="3.00722026" cy="16.7041178" rx="1.10914477" ry="1.04709347"></ellipse>
                <ellipse id="Oval" cx="4.71996178" cy="14.1479078" rx="1.27850167" ry="1.20697567"></ellipse>
                <ellipse id="Oval" cx="6.05160822" cy="10.9312113" rx="1.54489823" ry="1.45846863"></ellipse>
                <ellipse id="Oval" cx="6.53159293" cy="6.84492702" rx="1.80069947" ry="1.69995903"></ellipse>
                <ellipse id="Oval" cx="6.00704061" cy="2.02305762" rx="2.11536359" ry="1.99701921"></ellipse>
            </g>
            <g id="Group" transform="translate(0.000000, 2.818182)">
                <ellipse id="Oval" cx="20.2244022" cy="4.37210714" rx="1" ry="1"></ellipse>
                <ellipse id="Oval" cx="18.8416304" cy="3.17623469" rx="1" ry="1"></ellipse>
                <ellipse id="Oval" cx="16.9134783" cy="2.14390306" rx="1" ry="1"></ellipse>
                <ellipse id="Oval" cx="14.482337" cy="1.43106122" rx="1.07266304" ry="1.04055612"></ellipse>
                <ellipse id="Oval" cx="11.4208696" cy="1.36589796" rx="1.25005435" ry="1.21263776"></ellipse>
                <ellipse id="Oval" cx="7.89961957" cy="1.88641327" rx="1.46853261" ry="1.42457653"></ellipse>
                <ellipse id="Oval" cx="19.3490217" cy="6.62229592" rx="1" ry="1"></ellipse>
                <ellipse id="Oval" cx="17.448587" cy="5.59866327" rx="1" ry="1"></ellipse>
                <ellipse id="Oval" cx="14.9673913" cy="4.89847449" rx="1.04152174" ry="1.01034694"></ellipse>
                <ellipse id="Oval" cx="11.9952717" cy="4.69001531" rx="1.25836957" ry="1.22070408"></ellipse>
                <ellipse id="Oval" cx="8.50695652" cy="5.32361735" rx="1.46690217" ry="1.4229949"></ellipse>
                <ellipse id="Oval" cx="4.58038043" cy="6.85542857" rx="1.72304348" ry="1.67146939"></ellipse>
                <ellipse id="Oval" cx="19.0677717" cy="9.33748469" rx="1" ry="1"></ellipse>
                <ellipse id="Oval" cx="16.5885326" cy="8.62195408" rx="1.0751087" ry="1.04292857"></ellipse>
                <ellipse id="Oval" cx="13.4858152" cy="8.48356122" rx="1.23961957" ry="1.20251531"></ellipse>
                <ellipse id="Oval" cx="9.97663043" cy="8.98256633" rx="1.49771739" ry="1.45288776"></ellipse>
                <ellipse id="Oval" cx="6.10059783" cy="10.6062704" rx="1.74570652" ry="1.69345408"></ellipse>
                <ellipse id="Oval" cx="2.05076087" cy="13.4136684" rx="2.05059783" ry="1.98921939"></ellipse>
            </g>
        </g>
    </g>
</svg>