<?xml version="1.0" encoding="UTF-8"?>
<svg width="23px" height="23px" viewBox="0 0 23 23" version="1.1" xmlns="http://www.w3.org/2000/svg" xmlns:xlink="http://www.w3.org/1999/xlink">
    <!-- Generator: sketchtool 48.2 (47327) - http://www.bohemiancoding.com/sketch -->
    <title>2189D92D-80E8-4C70-8174-73998146B897</title>
    <desc>Created with sketchtool.</desc>
    <defs></defs>
    <g id="cryptocions/monero" stroke="none" stroke-width="1" fill="none" fill-rule="evenodd">
        <g id="XMR-alt" fill="#FFFFFF" fill-rule="nonzero">
            <path d="M11.5,0 C5.14869004,0 0,5.14869004 0,11.5 C0,17.85131 5.14869004,23 11.5,23 C17.8511402,23 23,17.85131 23,11.5 C23,5.14869004 17.8512251,0 11.5,0 Z M11.5646716,22.1955941 C7.70661255,22.1955941 4.3286679,20.140107 2.46558303,17.0651513 L6.9189262,17.0651513 L6.9189262,11.4558672 L11.5286015,16.0654576 L16.1707823,11.4231919 L16.1707823,17.0649815 L16.1707823,17.0650664 L20.6636753,17.0650664 C18.8005904,20.1401919 15.4226458,22.1955941 11.5646716,22.1955941 Z M18.4773173,14.9027269 L18.4773173,5.98509225 L11.5676421,12.8945129 L4.65143173,5.97830258 L4.65143173,14.9026421 L4.65143173,14.9027269 L1.46902952,14.9027269 C1.12182288,13.8527897 0.933579336,12.7308819 0.933579336,11.5646716 C0.933579336,5.69330627 5.6932214,0.933579336 11.5646716,0.933579336 C17.4361218,0.933579336 22.195679,5.69330627 22.195679,11.5646716 C22.195679,12.7308819 22.0071808,13.8527897 21.6602288,14.9027269 L18.4773173,14.9027269 Z" id="Shape"></path>
        </g>
    </g>
</svg>