<?xml version="1.0" encoding="UTF-8"?>
<svg width="23px" height="23px" viewBox="0 0 23 23" version="1.1" xmlns="http://www.w3.org/2000/svg" xmlns:xlink="http://www.w3.org/1999/xlink">
    <!-- Generator: sketchtool 48.2 (47327) - http://www.bohemiancoding.com/sketch -->
    <title>ADDBBECA-747B-4867-89D7-AD445235ECED</title>
    <desc>Created with sketchtool.</desc>
    <defs></defs>
    <g id="cryptocions/ripple" stroke="none" stroke-width="1" fill="none" fill-rule="evenodd">
        <g id="XRP-alt" transform="translate(1.000000, 0.000000)" fill="#FFFFFF" fill-rule="nonzero">
            <path d="M12.5958974,8.50302008 C12.5958974,9.55364071 11.760204,10.405183 10.729474,10.405183 C10.1278247,10.405183 9.59420422,10.1138798 9.25291596,9.66367443 L8.85847369,9.0476764 C7.67660317,7.01512673 5.18190145,6.11429189 2.96930086,7.03134557 C0.53295413,8.04136608 -0.638826498,10.8729853 0.35227211,13.3557404 C1.34347474,15.8392375 4.1220459,17.0327536 6.55849664,16.0229451 C7.53503251,15.61811 8.30789803,14.9201697 8.82029851,14.0693695 C8.82029851,14.0693695 9.21037195,13.4359866 9.34039643,13.2972253 C9.49809012,13.1291006 9.9711712,12.8415076 9.9711712,12.8415076 C10.9257589,12.4454711 12.015052,12.9134854 12.4033571,13.886616 C12.5981858,14.3747714 12.5793583,14.8972725 12.392019,15.3469479 L12.2223631,15.8620287 C11.5418669,17.0898905 11.3969677,18.6105396 11.9588815,20.0179748 C12.9357294,22.4649 15.6737329,23.6413491 18.0744009,22.6463814 C20.4749649,21.6507777 21.6294783,18.8603946 20.6528384,16.4141054 C19.9692217,14.7011623 18.4218263,13.6119557 16.7316121,13.4535835 C16.7316121,13.4535835 16.1066624,13.4804029 15.8984152,13.4895193 C15.5412119,13.5049961 15.546725,13.4317463 15.1092186,13.2971193 C14.6046196,13.1294186 14.3863865,12.963096 14.1708579,12.4235279 C13.7824488,11.4502913 14.1985271,10.2143731 15.1533229,9.81865448 L15.5620159,9.60134319 C15.7995966,9.54526627 16.2465688,9.51070847 16.2465688,9.51070847 C18.8234459,9.51070847 20.9128874,7.38169378 20.9128874,4.75530123 C20.9128874,2.12901469 18.8234459,0 16.2465688,0 C13.6692755,0 11.5803542,2.12901469 11.5803542,4.75530123 C11.5803542,5.45355954 11.7291022,6.11588197 11.9942481,6.71332903 C11.9942481,6.71332903 12.3714231,7.40618106 12.4515182,7.65603605 C12.5167385,7.86062668 12.5958974,8.50302008 12.5958974,8.50302008 Z" id="Shape"></path>
        </g>
    </g>
</svg>