<?xml version="1.0" encoding="UTF-8"?>
<svg width="32px" height="32px" viewBox="0 0 32 32" version="1.1" xmlns="http://www.w3.org/2000/svg" xmlns:xlink="http://www.w3.org/1999/xlink">
    <!-- Generator: sketchtool 48.2 (47327) - http://www.bohemiancoding.com/sketch -->
    <title>AEE986AA-99D3-4558-8431-FBC2CBDA7A4D</title>
    <desc>Created with sketchtool.</desc>
    <defs></defs>
    <g id="cryptocions/xlm" stroke="none" stroke-width="1" fill="none" fill-rule="evenodd">
        <g id="xlm" transform="translate(5.000000, 4.000000)" fill="#FFFFFF">
            <path d="M8.45006987,9.12627712 C6.49369472,8.71392096 3.62341786,9.0602538 0.758932525,12.7946253 C0.621094371,12.9753207 0.552754446,13.2486804 0.929203186,13.1293751 C1.83499677,12.8432741 3.70913235,12.5154741 5.9701414,13.6193376 L5.90875129,13.7305348 C5.47554567,14.4996485 5.71647286,14.9189545 6.4879032,15.4749403 L6.49021981,15.4760986 C6.21801841,15.671852 5.97477461,15.9174124 5.77207144,16.2116216 C5.74890537,16.2452124 5.73037251,16.2799615 5.70836473,16.3147106 C4.06588992,18.7795811 3.79021361,21.5108615 5.10836336,22.4606707 C6.4265131,23.4127964 8.84389317,22.225535 10.5581828,19.8127881 C10.5813489,19.7803556 10.6079899,19.7502397 10.631156,19.7178072 C10.8350174,19.4212814 10.9786471,19.1004313 11.0678365,18.7691564 L11.1292266,18.8143302 C11.9018152,19.3703161 12.36977,19.4618221 12.9327056,18.7853726 L13.048536,18.6486928 C14.8774977,20.4324807 15.2122476,22.3413654 15.2516299,23.3015992 C15.2678461,23.6954225 15.496032,23.5402098 15.6164956,23.350248 C18.1531809,19.3193507 17.417658,16.4583403 16.3404355,14.7672167 C17.287928,13.632079 18.3443011,12.3440451 19.3995158,11.0119957 C22.3520323,7.29036557 20.5508698,0.886103768 20.1964289,0.631276929 L20.1917957,0.635910144 L20.1941123,0.628960321 C19.8408296,0.374133481 13.3300038,0.799230982 10.8952492,4.89151837 C10.0629678,6.29309041 9.24784711,7.70478209 8.45006987,9.12627712 Z M7.23848408,16.0147099 L8.80914405,17.1452144 L10.5280669,18.3822829 C10.4726272,18.5053996 10.4055254,18.6229247 10.3276804,18.733249 C10.3114641,18.7564151 10.2929312,18.7772645 10.2755567,18.7992723 C9.06860411,20.46028 7.37516393,21.2815174 6.4577873,20.6363421 C5.53925238,19.9888503 5.74311385,18.1170313 6.90025936,16.4201163 C6.91531731,16.3969502 6.92805865,16.3737841 6.94427491,16.350618 C7.032306,16.2255212 7.13076182,16.114324 7.23848408,16.0147099 Z M12.9512385,5.85638545 C13.3460875,5.27777064 13.9576803,4.8829307 14.6475348,4.76126862 C15.3373892,4.63960655 16.0471517,4.80141355 16.6161118,5.21005192 C17.805832,6.07376045 18.0882021,7.72940609 17.2520206,8.9386319 C16.8571715,9.51724671 16.2455788,9.91208665 15.5557243,10.0337487 C14.8658698,10.1554108 14.1561073,9.99360379 13.5871473,9.58496543 C12.3972787,8.72083162 12.1149334,7.06481729 12.9512385,5.85522714 L12.9512385,5.85638545 Z" id="Shape"></path>
        </g>
    </g>
</svg>