<svg xmlns="http://www.w3.org/2000/svg" width="45" height="51" viewBox="0 0 45 51">
  <defs>
    <style>
      .cls-1 {
        fill: #001b29;
        fill-rule: evenodd;
      }
    </style>
  </defs>
  <path id="_12YEARS" data-name="12YEARS" class="cls-1" d="M30.75,15.749a12.875,12.875,0,0,1,1.541,1.535,0.8,0.8,0,0,0,1.223-1.028,14.548,14.548,0,0,0-1.732-1.726,0.8,0.8,0,0,0-1.128.1A0.794,0.794,0,0,0,30.75,15.749Zm4.462,3a0.8,0.8,0,0,0-.15-0.2,0.8,0.8,0,0,0-1.181-.515L30.989,19.7a2.4,2.4,0,0,0-2.759-.254l-2.55,1.466a5.606,5.606,0,0,0-.779-0.45v-2.93a2.4,2.4,0,0,0-1.6-2.254v-2.5a12.844,12.844,0,0,1,5.227,1.473,0.8,0.8,0,1,0,.755-1.405,14.441,14.441,0,0,0-19.21,5.416c-0.016.023-.031,0.045-0.045,0.069s-0.019.036-.028,0.053a14.289,14.289,0,0,0,.853,15.557A0.8,0.8,0,0,0,12.146,33c-0.108-.147-0.211-0.3-0.312-0.446L14.013,31.3a2.394,2.394,0,0,0,.937.493,2.431,2.431,0,0,0,.625.083,2.393,2.393,0,0,0,1.2-.322l2.55-1.466a5.6,5.6,0,0,0,.779.45v2.93a2.4,2.4,0,0,0,1.6,2.254v2.5a12.839,12.839,0,0,1-7.45-2.975,0.8,0.8,0,1,0-1.032,1.218,14.434,14.434,0,0,0,21.723-3.748c0.011-.016.023-0.031,0.032-0.048s0.019-.036.028-0.055A14.293,14.293,0,0,0,35.212,18.75ZM29.03,20.826a0.8,0.8,0,1,1,.8,1.38L27.7,23.431a5.571,5.571,0,0,0-.8-1.379ZM27.7,27.57l2.13,1.225a0.8,0.8,0,0,1-.8,1.381L26.9,28.949A5.566,5.566,0,0,0,27.7,27.57ZM22.5,16.735a0.8,0.8,0,0,1,.8.8V19.98a5.567,5.567,0,0,0-1.6,0V17.531A0.8,0.8,0,0,1,22.5,16.735Zm-0.8-3.959v2.5a2.4,2.4,0,0,0-1.6,2.254v2.93a5.55,5.55,0,0,0-.779.45l-2.55-1.466a2.405,2.405,0,0,0-2.759.254l-2.174-1.25A12.818,12.818,0,0,1,21.7,12.776Zm-8.448,16.09a2.373,2.373,0,0,0-.042,1.056l-2.177,1.252a12.706,12.706,0,0,1,0-11.345l2.173,1.25a2.39,2.39,0,0,0,1.161,2.508l2.548,1.465c-0.012.148-.02,0.3-0.02,0.449s0.008,0.3.02,0.448l-2.548,1.465A2.379,2.379,0,0,0,13.253,28.866Zm2.719,1.309a0.8,0.8,0,1,1-.8-1.38L17.3,27.57a5.569,5.569,0,0,0,.8,1.379Zm1.33-6.744-2.13-1.225a0.8,0.8,0,1,1,.8-1.38L18.1,22.052A5.569,5.569,0,0,0,17.3,23.431Zm1.2,2.07a4,4,0,1,1,4,3.984A4,4,0,0,1,18.5,25.5Zm4,8.765a0.8,0.8,0,0,1-.8-0.8V31.021a5.577,5.577,0,0,0,1.6,0v2.448A0.8,0.8,0,0,1,22.5,34.266Zm0.8,3.959v-2.5a2.4,2.4,0,0,0,1.6-2.254v-2.93a5.6,5.6,0,0,0,.779-0.45l2.55,1.466a2.393,2.393,0,0,0,1.2.322,2.432,2.432,0,0,0,.625-0.083,2.389,2.389,0,0,0,.937-0.493l2.174,1.25A12.818,12.818,0,0,1,23.3,38.225Zm10.664-7.053-2.174-1.25a2.392,2.392,0,0,0-1.159-2.507l-2.549-1.465c0.012-.148.02-0.3,0.02-0.448s-0.008-.3-0.02-0.449l2.549-1.465a2.391,2.391,0,0,0,1.159-2.507l2.179-1.253A12.706,12.706,0,0,1,33.964,31.172ZM43.8,34.985l-4.158-2.391a2.408,2.408,0,0,0-.909-0.3,17.461,17.461,0,0,0,0-13.581,2.4,2.4,0,0,0,.909-0.3L43.8,16.016a2.386,2.386,0,0,0,.879-3.266,2.408,2.408,0,0,0-3.279-.875l-4.158,2.391a2.373,2.373,0,0,0-.722.639,17.623,17.623,0,0,0-11.806-6.8A2.365,2.365,0,0,0,24.9,7.172V2.39a2.4,2.4,0,0,0-4.8,0V7.172a2.368,2.368,0,0,0,.191.935,17.622,17.622,0,0,0-11.806,6.8,2.394,2.394,0,0,0-.723-0.639l-4.158-2.39a2.393,2.393,0,1,0-2.4,4.141l4.158,2.391a2.387,2.387,0,0,0,.91.3,17.463,17.463,0,0,0,0,13.583,2.392,2.392,0,0,0-.909.3L1.2,34.985a2.388,2.388,0,0,0,.579,4.38,2.436,2.436,0,0,0,.625.082,2.394,2.394,0,0,0,1.2-.321l4.158-2.391A2.39,2.39,0,0,0,8.486,36.1a17.625,17.625,0,0,0,11.806,6.8,2.367,2.367,0,0,0-.191.935V48.61a2.4,2.4,0,0,0,4.8,0V43.829a2.369,2.369,0,0,0-.191-0.935,17.625,17.625,0,0,0,11.806-6.8,2.385,2.385,0,0,0,.722.639L41.4,39.126a2.409,2.409,0,0,0,3.279-.875A2.386,2.386,0,0,0,43.8,34.985ZM38.039,15.646L42.2,13.255a0.8,0.8,0,0,1,.4-0.107,0.813,0.813,0,0,1,.209.027A0.8,0.8,0,0,1,43,14.635l-4.158,2.391A0.8,0.8,0,1,1,38.039,15.646ZM21.7,2.39a0.8,0.8,0,0,1,1.6,0V7.172a0.8,0.8,0,0,1-1.6,0V2.39h0ZM6.163,17.026L2,14.636a0.8,0.8,0,0,1,.193-1.46,0.811,0.811,0,0,1,.208-0.027,0.8,0.8,0,0,1,.4.107l4.158,2.391A0.8,0.8,0,0,1,6.163,17.026ZM7.336,34.871a0.793,0.793,0,0,1-.373.484l-4.158,2.39a0.8,0.8,0,1,1-.8-1.38l4.158-2.391a0.8,0.8,0,0,1,.4-0.107,0.812,0.812,0,0,1,.209.027A0.8,0.8,0,0,1,7.336,34.871ZM23.3,48.61a0.8,0.8,0,0,1-1.6,0V43.829a0.8,0.8,0,0,1,1.6,0V48.61Zm-0.8-7.172A15.938,15.938,0,1,1,38.5,25.5,15.989,15.989,0,0,1,22.5,41.438Zm20.788-3.984a0.8,0.8,0,0,1-1.093.291l-4.158-2.39a0.8,0.8,0,0,1,.193-1.46,0.813,0.813,0,0,1,.209-0.027,0.8,0.8,0,0,1,.4.107L43,36.365A0.8,0.8,0,0,1,43.289,37.454Z"/>
</svg>
