<svg xmlns="http://www.w3.org/2000/svg" width="39" height="42" viewBox="0 0 39 42">
  <defs>
    <style>
      .cls-1 {
        fill: #001b29;
        fill-rule: evenodd;
      }
    </style>
  </defs>
  <path id="_2OFFICES" data-name="2OFFICES" class="cls-1" d="M37.579,40.36H36.288V10.03a0.645,0.645,0,0,0-.646-0.645H31.768V6.8a0.646,0.646,0,0,0-1.291,0V9.384H29.185V3.576a0.646,0.646,0,0,0-1.291,0V9.384H26.6a0.645,0.645,0,1,0,0,1.29H35v1.936H26.6a0.645,0.645,0,1,0,0,1.291H35v1.29H26.6a0.646,0.646,0,1,0,0,1.291H35v1.29H26.6a0.645,0.645,0,1,0,0,1.291H35v1.291H26.6a0.645,0.645,0,1,0,0,1.29H35v1.291H26.6a0.646,0.646,0,1,0,0,1.291H35v1.29H26.6a0.645,0.645,0,1,0,0,1.291H35V28.1H26.6a0.645,0.645,0,1,0,0,1.291H35V30.68H26.6a0.645,0.645,0,1,0,0,1.291H35v1.291H26.6a0.645,0.645,0,1,0,0,1.29H35v1.291H26.6a0.645,0.645,0,1,0,0,1.291H35V40.36H24.664V1A0.646,0.646,0,0,0,24.019.35H3.355A0.645,0.645,0,0,0,2.709,1V40.36H1.417a0.645,0.645,0,1,0,0,1.291H37.579A0.645,0.645,0,1,0,37.579,40.36ZM4,4.221H23.373V34.552H4V4.221ZM23.373,1.64V2.931H4V1.64H23.373ZM4,35.843H23.373V40.36H22.081V37.779a0.646,0.646,0,0,0-1.291,0V40.36H19.5V37.779a0.646,0.646,0,0,0-1.291,0V40.36H16.915V37.779a0.646,0.646,0,0,0-1.291,0V40.36H14.332V37.779a0.646,0.646,0,0,0-1.291,0V40.36H11.749V37.779a0.646,0.646,0,0,0-1.291,0V40.36H9.166V37.779a0.646,0.646,0,0,0-1.291,0V40.36H6.583V37.779a0.646,0.646,0,0,0-1.292,0V40.36H4V35.843ZM11.1,5.512a0.646,0.646,0,0,0-.646.645V32.616a0.646,0.646,0,1,0,1.291,0V6.158A0.645,0.645,0,0,0,11.1,5.512Zm2.583,0a0.645,0.645,0,0,0-.646.645V32.616a0.646,0.646,0,0,0,1.291,0V6.158A0.645,0.645,0,0,0,13.687,5.512Zm-5.166,0a0.645,0.645,0,0,0-.646.645V32.616a0.646,0.646,0,0,0,1.291,0V6.158A0.645,0.645,0,0,0,8.521,5.512Zm-2.583,0a0.645,0.645,0,0,0-.646.645V32.616a0.646,0.646,0,0,0,1.292,0V6.158A0.646,0.646,0,0,0,5.938,5.512Zm15.5,0a0.645,0.645,0,0,0-.646.645V32.616a0.646,0.646,0,0,0,1.291,0V6.158A0.646,0.646,0,0,0,21.436,5.512Zm-2.583,0a0.646,0.646,0,0,0-.646.645V32.616a0.646,0.646,0,0,0,1.291,0V6.158A0.645,0.645,0,0,0,18.853,5.512Zm-2.583,0a0.645,0.645,0,0,0-.646.645V32.616a0.646,0.646,0,1,0,1.291,0V6.158A0.646,0.646,0,0,0,16.27,5.512Z"/>
</svg>
