<svg xmlns="http://www.w3.org/2000/svg" width="52" height="40" viewBox="0 0 52 40">
  <defs>
    <style>
      .cls-1 {
        fill: #223641;
        fill-rule: evenodd;
      }
    </style>
  </defs>
  <path id="_70EMPLOYERS" data-name="70EMPLOYERS" class="cls-1" d="M16.359,16.6a12.333,12.333,0,0,0,2.792,7.757,8.94,8.94,0,0,0,6.86,3.486,8.919,8.919,0,0,0,6.851-3.484A12.344,12.344,0,0,0,35.645,16.6v-2.46a33.24,33.24,0,0,0,.864-7.44,16.227,16.227,0,0,0-.463-4.4,1.025,1.025,0,0,0-1.026-.547,16.876,16.876,0,0,1-5.267-.544c-3.144-.63-6.7-1.342-9.413.539-0.024,0-.049,0-0.073,0a4.89,4.89,0,0,0-3.812,1.714,6.109,6.109,0,0,0-1.337,3.956,46.235,46.235,0,0,0,1.24,7.873v1.3h0Zm15.266,6.735a7.346,7.346,0,0,1-5.614,2.9,7.366,7.366,0,0,1-5.623-2.905A10.7,10.7,0,0,1,17.965,16.6V15.636c0-1.985,1.334-4.684,1.841-5.636a25.254,25.254,0,0,1,13.157,1.682l1.076,2.534V16.6A10.714,10.714,0,0,1,31.624,23.334ZM20.267,3.359a0.816,0.816,0,0,0,.17-0.018A0.8,0.8,0,0,0,21.09,3.2c2.166-1.644,5.308-1.013,8.346-.4a24.419,24.419,0,0,0,4.627.638q0.3,0,.594-0.019a26.424,26.424,0,0,1-.107,7.9l-0.227-.534a0.8,0.8,0,0,0-.354-0.391c-0.231-.126-5.741-3.068-14.709-1.943a0.8,0.8,0,0,0-.656.4,22.609,22.609,0,0,0-1.355,2.868,27.048,27.048,0,0,1-.526-4.292C16.725,4.616,18.5,3.359,20.267,3.359ZM39.844,29.618L39.792,29.6l-4.779-1L33.75,26.692l-0.028-.04a1.414,1.414,0,0,0-2.024-.245l-0.015.013L26,31.307l-5.682-4.887L20.3,26.407a1.413,1.413,0,0,0-2.024.245l-0.028.04-1.263,1.914-4.779,1-0.052.013a6.106,6.106,0,0,0-3.419,2.489,6.886,6.886,0,0,0-1.2,3.844v1.509a2.526,2.526,0,0,0,2.63,2.4H41.831a2.526,2.526,0,0,0,2.63-2.4V35.951a6.885,6.885,0,0,0-1.2-3.844A6.1,6.1,0,0,0,39.844,29.618Zm-7.294-1.827,1,1.511-3.991,5.482L27.18,32.41Zm-7.078,8.865h1.054l0.32,1.6H25.153Zm1.33-2.044a0.41,0.41,0,0,1-.268.439H25.464a0.411,0.411,0,0,1-.268-0.439V34.3l0.8-.8,0.8,0.8v0.309h0Zm-7.354-6.821L24.82,32.41l-2.377,2.374L18.452,29.3Zm-10.3,9.668V35.951a4.983,4.983,0,0,1,3.419-4.781l4.567-.955L21.7,36.488a0.8,0.8,0,0,0,.587.328l0.063,0a0.8,0.8,0,0,0,.568-0.235l0.937-.936a2.085,2.085,0,0,0,.141.224l-0.477,2.383H10.168A0.944,0.944,0,0,1,9.145,37.459Zm33.71,0a0.944,0.944,0,0,1-1.023.8H28.485l-0.477-2.383a2.1,2.1,0,0,0,.141-0.225l0.937,0.936a0.8,0.8,0,0,0,.568.235l0.063,0a0.8,0.8,0,0,0,.587-0.328l4.566-6.272,4.567,0.955a4.983,4.983,0,0,1,3.419,4.78v1.509h0ZM6.738,18.1a7.776,7.776,0,0,0,1.87,5.152,6.088,6.088,0,0,0,4.6,2.16,5.942,5.942,0,0,0,3.64-1.261,0.8,0.8,0,1,0-.979-1.272,4.346,4.346,0,0,1-2.661.928c-2.683,0-4.866-2.561-4.866-5.708V17.632a13.224,13.224,0,0,1,.8-3.741,18.84,18.84,0,0,1,4.546.261l0.143,0.021a0.914,0.914,0,0,0,.118.008,0.8,0.8,0,0,0,.116-1.6l-0.143-.021a19.139,19.139,0,0,0-5.459-.214H8.45l-0.068.012-0.037.011-0.037.01C8.292,12.39,8.277,12.4,8.261,12.4l-0.026.01-0.046.023-0.024.012-0.04.025L8.1,12.49l-0.032.024-0.03.024-0.024.023-0.033.031-0.019.022c-0.011.012-.022,0.024-0.032,0.038s-0.011.015-.017,0.024-0.019.025-.028,0.039-0.013.023-.02,0.035l-0.018.032a0.707,0.707,0,0,0-.03.066l0,0.005h0l0,0.006c-0.014.036-.072,0.186-0.154,0.42A11.621,11.621,0,0,1,7.55,11.9c0-1.735.838-2.511,1.668-2.511a0.832,0.832,0,0,0,.115-0.009,0.784,0.784,0,0,0,.115.009A0.8,0.8,0,0,0,9.934,9.23a4.224,4.224,0,0,1,3.136-.62,0.8,0.8,0,1,0,.158-1.6,6.074,6.074,0,0,0-4.035.777C7.278,7.8,5.944,9.492,5.944,11.9a32.814,32.814,0,0,0,.795,5.345V18.1ZM5.919,32.639H2.343a0.4,0.4,0,0,1-.44-0.285V31.326a3.133,3.133,0,0,1,2.133-3.006l2.925-.611,1.511,2.177a0.8,0.8,0,0,0,1.32-.914L8.287,26.8l0.444-.673,3.132,2.337a0.8,0.8,0,0,0,.961-1.286L9.387,24.616a1.218,1.218,0,0,0-1.728.226l-0.028.04L6.829,26.1l-3.15.658-0.052.013A4.762,4.762,0,0,0,.3,31.326v1.028a1.976,1.976,0,0,0,2.047,1.89H5.919A0.8,0.8,0,1,0,5.919,32.639ZM38.033,7.761a28.027,28.027,0,0,1,3.75.439c0.954,0.154,1.868.3,2.662,0.352-0.028,1.9-.153,3.609-0.294,4.985l-0.005,0-0.039-.026-0.018-.012-0.021-.012,0,0a13.246,13.246,0,0,0-5.955-1.7,0.8,0.8,0,1,0-.12,1.6,11.912,11.912,0,0,1,5.057,1.37,7.734,7.734,0,0,1,.609,2.886V18.1c0,3.147-2.183,5.708-4.866,5.708a4.347,4.347,0,0,1-2.661-.928,0.8,0.8,0,1,0-.979,1.272,5.942,5.942,0,0,0,3.64,1.261,6.088,6.088,0,0,0,4.6-2.16,7.776,7.776,0,0,0,1.87-5.152V17.237a54.75,54.75,0,0,0,.794-9.274,0.8,0.8,0,0,0-.782-1h-0.02l-0.046,0a17.747,17.747,0,0,1-3.168-.346,29.551,29.551,0,0,0-3.974-.459A0.8,0.8,0,1,0,38.033,7.761ZM48.373,26.768l-0.052-.013-3.15-.658-0.8-1.216-0.028-.039a1.218,1.218,0,0,0-1.728-.226l-3.438,2.565a0.8,0.8,0,1,0,.961,1.286l3.133-2.337L43.713,26.8l-1.5,2.169a0.8,0.8,0,0,0,1.32.914l1.511-2.177,2.925,0.611A3.134,3.134,0,0,1,50.1,31.326v1.028a0.4,0.4,0,0,1-.441.285H46.081a0.8,0.8,0,1,0,0,1.6h3.576a1.975,1.975,0,0,0,2.047-1.89V31.326A4.762,4.762,0,0,0,48.373,26.768Z"/>
</svg>
