<svg xmlns="http://www.w3.org/2000/svg" width="23" height="29" viewBox="0 0 23 29">
  <defs>
    <style>
      .cls-1 {
        fill: #fff;
        fill-rule: evenodd;
      }
    </style>
  </defs>
  <path id="Forma_1" data-name="Forma 1" class="cls-1" d="M21.415,10.375L12.471,1.431A3.471,3.471,0,0,0,10.649.769H4.687A4.1,4.1,0,0,0,.546,4.91V24.785a4.1,4.1,0,0,0,4.141,4.141h13.25a4.1,4.1,0,0,0,4.141-4.141V12.2A2.491,2.491,0,0,0,21.415,10.375ZM12.14,3.419l7.288,7.288h-4.8A2.547,2.547,0,0,1,12.14,8.222v-4.8Zm5.8,23.851H4.687A2.548,2.548,0,0,1,2.2,24.785V4.91A2.548,2.548,0,0,1,4.687,2.425h5.8v5.8a4.1,4.1,0,0,0,4.141,4.14h5.8V24.785A2.548,2.548,0,0,1,17.937,27.27Zm-3.312-9.606H12.14V15.179a0.828,0.828,0,1,0-1.656,0v2.485H8a0.828,0.828,0,1,0,0,1.656h2.484V21.8a0.828,0.828,0,0,0,1.656,0V19.319h2.485A0.828,0.828,0,1,0,14.624,17.663Z"/>
</svg>
