<svg xmlns="http://www.w3.org/2000/svg" width="61" height="74" viewBox="0 0 61 74">
  <defs>
    <style>
      .cls-1 {
        fill-rule: evenodd;
      }
    </style>
  </defs>
  <path id="BALOONS" class="cls-1" d="M24.017,8.962a11.766,11.766,0,0,1,2.229,1.006,1.127,1.127,0,0,0,.574.157,1.144,1.144,0,0,0,.993-0.578A1.168,1.168,0,0,0,27.4,7.961a14.075,14.075,0,0,0-2.662-1.2,1.144,1.144,0,0,0-1.448.738A1.164,1.164,0,0,0,24.017,8.962ZM31.79,21.384a24.238,24.238,0,0,1-.59,5.258,1.147,1.147,0,1,0,2.237.511,26.582,26.582,0,0,0,.646-5.769,16.5,16.5,0,0,0-2.9-10.032,1.138,1.138,0,0,0-1.6-.234,1.17,1.17,0,0,0-.23,1.625A14.235,14.235,0,0,1,31.79,21.384ZM15.234,39.1c-2.849-1.966-5.4-5.739-6.815-10.089a1.144,1.144,0,0,0-1.448-.738,1.163,1.163,0,0,0-.729,1.466c1.594,4.89,4.4,9,7.7,11.279a1.138,1.138,0,0,0,1.593-.3A1.171,1.171,0,0,0,15.234,39.1ZM55.268,19.933A19.385,19.385,0,0,0,41.5,14.6a22.387,22.387,0,0,0-3.354.252,18.706,18.706,0,0,0-4.888-8.531A19.386,19.386,0,0,0,19.485.983,19.387,19.387,0,0,0,5.714,6.318c-3.742,3.689-5.719,8.9-5.719,15.066A32.221,32.221,0,0,0,5.576,39.322c3.023,4.364,6.754,7.172,10.737,8.15a3.647,3.647,0,0,0-.42,1.7v2.476a1.153,1.153,0,0,0,1.146,1.16h1.231a7.251,7.251,0,0,1-.47,1.731,10.385,10.385,0,0,0,0,7.415,8.047,8.047,0,0,1,0,5.788,9.335,9.335,0,0,0-.684,3.708,1.147,1.147,0,1,0,2.293,0,7.048,7.048,0,0,1,.538-2.894,10.39,10.39,0,0,0,0-7.417,8.041,8.041,0,0,1,0-5.786,9.24,9.24,0,0,0,.63-2.546h1.354a1.154,1.154,0,0,0,1.147-1.161V49.176a3.647,3.647,0,0,0-.42-1.7,14.076,14.076,0,0,0,1.717-.541c3.012,7.5,8.235,12.715,13.955,14.147a3.649,3.649,0,0,0-.424,1.712v2.476a1.153,1.153,0,0,0,1.146,1.16h1.231a7.259,7.259,0,0,1-.47,1.731,9.33,9.33,0,0,0-.684,3.707,1.147,1.147,0,1,0,2.293,0,7.039,7.039,0,0,1,.539-2.892,9.25,9.25,0,0,0,.63-2.546h1.354a1.153,1.153,0,0,0,1.146-1.16V62.791a3.646,3.646,0,0,0-.42-1.7c3.984-.978,7.714-3.786,10.737-8.15A32.227,32.227,0,0,0,60.987,35C60.987,28.831,59.009,23.621,55.268,19.933ZM7.453,37.99A29.833,29.833,0,0,1,2.288,21.384c0-5.528,1.738-10.162,5.026-13.4A17.124,17.124,0,0,1,19.485,3.3,17.125,17.125,0,0,1,31.656,7.98c3.288,3.241,5.026,7.876,5.026,13.4A29.833,29.833,0,0,1,31.517,37.99c-3.373,4.868-7.646,7.55-12.032,7.55S10.826,42.859,7.453,37.99ZM20.784,49.176v1.315h-2.6V49.176A1.3,1.3,0,1,1,20.784,49.176ZM42.8,62.791v1.315H40.2V62.791A1.3,1.3,0,1,1,42.8,62.791ZM53.529,51.6c-3.373,4.869-7.646,7.55-12.032,7.55a13.207,13.207,0,0,1-8.946-3.943,25.973,25.973,0,0,1-6.1-9.269,17.661,17.661,0,0,0,2.189-1.474,21.448,21.448,0,0,0,7.311,10.165,1.138,1.138,0,0,0,1.593-.3,1.17,1.17,0,0,0-.3-1.613c-2.807-1.937-5.321-5.627-6.751-9.9a25.385,25.385,0,0,0,2.9-3.5,32.225,32.225,0,0,0,5.58-17.939,26.169,26.169,0,0,0-.339-4.263,20.143,20.143,0,0,1,2.862-.2A17.121,17.121,0,0,1,53.668,21.6c3.288,3.241,5.026,7.876,5.026,13.4A29.832,29.832,0,0,1,53.529,51.6ZM53.191,24.967a1.138,1.138,0,0,0-1.6-.233,1.17,1.17,0,0,0-.231,1.624A14.232,14.232,0,0,1,53.8,35a24.253,24.253,0,0,1-.59,5.259,1.147,1.147,0,1,0,2.237.51A26.585,26.585,0,0,0,56.1,35,16.5,16.5,0,0,0,53.191,24.967Zm-3.782-3.391a14.084,14.084,0,0,0-2.661-1.2,1.144,1.144,0,0,0-1.448.739,1.163,1.163,0,0,0,.73,1.465,11.8,11.8,0,0,1,2.229,1.006,1.127,1.127,0,0,0,.574.157,1.143,1.143,0,0,0,.993-0.578A1.168,1.168,0,0,0,49.409,21.576Z"/>
</svg>
