<svg xmlns="http://www.w3.org/2000/svg" width="50" height="39" viewBox="0 0 50 39">
  <defs>
    <style>
      .cls-1 {
        fill: #046ea2;
        fill-rule: evenodd;
      }
    </style>
  </defs>
  <path id="BENEFIT4" class="cls-1" d="M15.574,16.047a11.746,11.746,0,0,0,2.659,7.387,8.516,8.516,0,0,0,6.533,3.32,8.5,8.5,0,0,0,6.525-3.318,11.755,11.755,0,0,0,2.65-7.384V13.71a31.654,31.654,0,0,0,.823-7.086,15.454,15.454,0,0,0-.441-4.186,0.765,0.765,0,0,0-.8-0.525,0.747,0.747,0,0,0-.177,0A16.1,16.1,0,0,1,28.33,1.4c-2.994-.6-6.377-1.278-8.964.514a0.645,0.645,0,0,0-.07,0,4.657,4.657,0,0,0-3.63,1.633,5.817,5.817,0,0,0-1.273,3.767,44.024,44.024,0,0,0,1.181,7.5v1.241h0Zm14.539,6.414a7,7,0,0,1-5.346,2.765,7.014,7.014,0,0,1-5.355-2.767A10.193,10.193,0,0,1,17.1,16.047V15.131a13.911,13.911,0,0,1,1.753-5.368,24.052,24.052,0,0,1,12.53,1.6l1.025,2.413v2.274A10.2,10.2,0,0,1,30.113,22.461ZM19.3,3.438a0.764,0.764,0,0,0,.162-0.017,0.762,0.762,0,0,0,.622-0.138c2.063-1.565,5.055-.965,7.949-0.384a23.22,23.22,0,0,0,4.407.608q0.286,0,.566-0.018a25.165,25.165,0,0,1-.1,7.527l-0.216-.508a0.767,0.767,0,0,0-.337-0.372c-0.22-.12-5.467-2.922-14.008-1.85a0.763,0.763,0,0,0-.625.381A21.58,21.58,0,0,0,16.424,11.4a25.774,25.774,0,0,1-.5-4.087C15.923,4.636,17.617,3.438,19.3,3.438ZM37.941,28.447l-0.05-.012-4.552-.951-1.2-1.823-0.027-.038a1.346,1.346,0,0,0-1.927-.234l-0.015.012-5.412,4.654L19.344,25.4l-0.015-.012a1.346,1.346,0,0,0-1.927.234l-0.027.038-1.2,1.823-4.552.951-0.05.012a5.819,5.819,0,0,0-3.256,2.37,6.56,6.56,0,0,0-1.141,3.661v1.436a2.406,2.406,0,0,0,2.5,2.287H39.834a2.406,2.406,0,0,0,2.5-2.287V34.478A6.559,6.559,0,0,0,41.2,30.817,5.82,5.82,0,0,0,37.941,28.447Zm-6.946-1.74,0.95,1.439-3.8,5.221L25.88,31.106ZM24.254,35.15h1l0.3,1.523H23.949ZM25.521,33.2a0.391,0.391,0,0,1-.255.419h-1.02a0.391,0.391,0,0,1-.255-0.419V32.909l0.765-.764,0.765,0.764V33.2h0Zm-7-6.5,5.115,4.4-2.264,2.261-3.8-5.221ZM8.7,35.915V34.478a4.746,4.746,0,0,1,3.256-4.553l4.35-.909,4.348,5.973a0.768,0.768,0,0,0,.559.313l0.06,0a0.765,0.765,0,0,0,.541-0.224l0.892-.891a2.029,2.029,0,0,0,.134.214l-0.454,2.269H9.678A0.9,0.9,0,0,1,8.7,35.915Zm32.1,0a0.9,0.9,0,0,1-.975.758H27.123L26.669,34.4a2.029,2.029,0,0,0,.134-0.214l0.892,0.891a0.765,0.765,0,0,0,.541.224l0.06,0a0.768,0.768,0,0,0,.559-0.313L33.2,29.016l4.35,0.909a4.746,4.746,0,0,1,3.256,4.553v1.436h0ZM6.412,17.481a7.4,7.4,0,0,0,1.781,4.907,5.8,5.8,0,0,0,4.383,2.057,5.659,5.659,0,0,0,3.467-1.2,0.765,0.765,0,1,0-.933-1.212,4.139,4.139,0,0,1-2.534.884c-2.555,0-4.634-2.439-4.634-5.436v-0.45A12.6,12.6,0,0,1,8.7,13.469a17.943,17.943,0,0,1,4.329.248l0.137,0.02a0.729,0.729,0,0,0,.112.009,0.765,0.765,0,0,0,.111-1.521l-0.136-.02a18.215,18.215,0,0,0-5.2-.2H8.042c-0.022,0-.044.007-0.065,0.011l-0.036.01-0.035.01-0.044.017-0.024.01-0.043.022-0.023.012c-0.013.007-.026,0.015-0.038,0.024l-0.025.017a0.321,0.321,0,0,0-.031.023l-0.029.023L7.625,12.2l-0.031.03-0.018.02-0.031.036-0.016.022L7.5,12.35c-0.007.01-.013,0.022-0.019,0.033s-0.012.02-.017,0.031-0.02.042-.028,0.063l0,0.005h0l0,0.005c-0.013.034-.068,0.177-0.147,0.4a11.076,11.076,0,0,1-.1-1.31c0-1.652.8-2.392,1.589-2.392a0.794,0.794,0,0,0,.11-0.008,0.8,0.8,0,0,0,.11.008A0.764,0.764,0,0,0,9.455,9.03a4.026,4.026,0,0,1,2.986-.591,0.764,0.764,0,1,0,.15-1.521,5.779,5.779,0,0,0-3.843.739c-1.823.015-3.094,1.622-3.094,3.919a31.251,31.251,0,0,0,.757,5.09v0.814ZM5.631,31.325H2.225a0.384,0.384,0,0,1-.42-0.272V30.074a2.985,2.985,0,0,1,2.032-2.863l2.786-.582L8.062,28.7a0.765,0.765,0,0,0,1.257-.871L7.887,25.767l0.423-.641,2.983,2.226a0.765,0.765,0,1,0,.915-1.225L8.934,23.684a1.159,1.159,0,0,0-1.645.215c-0.009.012-.018,0.025-0.027,0.038L6.5,25.094l-3,.627-0.05.012A4.535,4.535,0,0,0,.276,30.074v0.978a1.882,1.882,0,0,0,1.95,1.8H5.631A0.764,0.764,0,1,0,5.631,31.325ZM36.216,7.631a26.71,26.71,0,0,1,3.571.418c0.909,0.147,1.779.287,2.535,0.335-0.027,1.81-.145,3.438-0.28,4.748l0,0L42,13.1l-0.017-.011-0.02-.012,0,0a12.616,12.616,0,0,0-5.672-1.624,0.764,0.764,0,1,0-.114,1.525,11.339,11.339,0,0,1,4.816,1.3,7.373,7.373,0,0,1,.58,2.748v0.45c0,3-2.079,5.436-4.634,5.436a4.14,4.14,0,0,1-2.534-.884,0.765,0.765,0,0,0-.933,1.212,5.659,5.659,0,0,0,3.467,1.2,5.8,5.8,0,0,0,4.383-2.057A7.405,7.405,0,0,0,43.1,17.481V16.655a52.165,52.165,0,0,0,.756-8.833,0.762,0.762,0,0,0-.745-0.955H43.092l-0.044,0a16.891,16.891,0,0,1-3.017-.329A28.137,28.137,0,0,0,36.246,6.1,0.764,0.764,0,1,0,36.216,7.631Zm9.848,18.1-0.05-.012-3-.627L42.25,23.937,42.223,23.9a1.159,1.159,0,0,0-1.645-.215L37.3,26.126a0.765,0.765,0,0,0,.915,1.225L41.2,25.125l0.423,0.641-1.433,2.065a0.765,0.765,0,0,0,1.258.871l1.439-2.073,2.786,0.581a2.986,2.986,0,0,1,2.032,2.863v0.978a0.384,0.384,0,0,1-.42.272H43.881a0.764,0.764,0,1,0,0,1.528h3.406a1.881,1.881,0,0,0,1.95-1.8V30.074A4.535,4.535,0,0,0,46.064,25.733Z"/>
</svg>
