<svg xmlns="http://www.w3.org/2000/svg" width="39" height="42" viewBox="0 0 39 42">
  <defs>
    <style>
      .cls-1 {
        fill: #046ea2;
        fill-rule: evenodd;
      }
    </style>
  </defs>
  <path id="BENEFIT3" class="cls-1" d="M4.422,14.145a0.682,0.682,0,0,0,.846-0.465A16.415,16.415,0,0,1,24.44,2.245a3.566,3.566,0,0,0,.673,2.089c0.076,0.12.179,0.284,0.191,0.306,0,2.448-.5,2.846-0.5,2.848A4.861,4.861,0,0,0,21.2,9.752a2.181,2.181,0,0,0,.095,2.33,16.46,16.46,0,0,1,.887,1.573c0.58,1.124,1.224,2.37,2.236,2.37a1.551,1.551,0,0,0,.694-0.181,5.857,5.857,0,0,0,1.919-2.624,8.663,8.663,0,0,1,.812-1.413c0.693,0.094,1.032.721,1.49,1.713a3.5,3.5,0,0,0,1.372,1.828c1.154,0.577,4.949-.027,7.046-0.918a0.683,0.683,0,0,0,.392-0.807A17.853,17.853,0,0,0,27.73,1.837,0.682,0.682,0,1,0,27.213,3.1a16.5,16.5,0,0,1,9.443,10.291c-2.125.749-4.852,0.974-5.338,0.735a2.924,2.924,0,0,1-.742-1.179c-0.476-1.03-1.128-2.443-2.793-2.516-0.86-.052-1.345.938-1.969,2.174a5.8,5.8,0,0,1-1.359,2.037A4.918,4.918,0,0,1,23.4,13.028a17.585,17.585,0,0,0-.964-1.7,0.82,0.82,0,0,1-.027-0.929,3.645,3.645,0,0,1,2.4-1.542c1.235,0,1.861-1.417,1.861-4.213a1.958,1.958,0,0,0-.4-1.034,2.08,2.08,0,0,1-.411-1.742,0.683,0.683,0,0,0-.5-0.808A17.782,17.782,0,0,0,3.957,13.3,0.682,0.682,0,0,0,4.422,14.145ZM29.2,18.624c-0.2.056-.467,0.134-0.539,0.14a2.673,2.673,0,0,0-1.978,1.263,1.554,1.554,0,0,1-.66.575,2.139,2.139,0,0,0-.964-0.232A1.645,1.645,0,0,0,23.4,21.508,1.323,1.323,0,0,0,24.232,23,12.773,12.773,0,0,1,27,24.636a2.367,2.367,0,0,0,1.666.553,3.067,3.067,0,0,0,3-2,3.826,3.826,0,0,1,1.106-1.453,2.452,2.452,0,0,0,1.02-1.644,1.571,1.571,0,0,0-.524-1.133,2.64,2.64,0,0,0-1.944-.723A7.877,7.877,0,0,0,29.2,18.624Zm3.223,1.453a2.917,2.917,0,0,1-.6.677,5.017,5.017,0,0,0-1.457,2.008,1.752,1.752,0,0,1-1.7,1.061,1.309,1.309,0,0,1-.7-0.151,12.963,12.963,0,0,0-3.121-1.894l-0.008,0a0.763,0.763,0,0,1,.575.047,1.494,1.494,0,0,0,.673.167,2.253,2.253,0,0,0,1.654-1.1,1.714,1.714,0,0,1,.922-0.762,3.646,3.646,0,0,0,.914-0.192,6.7,6.7,0,0,1,1.746-.331,1.318,1.318,0,0,1,.977.323A1.14,1.14,0,0,1,32.42,20.077Zm6.17-4.264A0.683,0.683,0,1,0,37.238,16a16.626,16.626,0,0,1,.156,2.269A16.4,16.4,0,0,1,21.2,34.651c-2.428-1.55-4.7-3.45-3.69-5.814,1.821-4.248.126-5.831-.6-6.509L16.779,22.2a3.237,3.237,0,0,0-.646-0.471c-0.5-.3-0.634-0.38-0.366-1.185a2.564,2.564,0,0,1,.686-1.073,3.961,3.961,0,0,0,1.114-3.262A2.572,2.572,0,0,0,16,13.75a3.406,3.406,0,0,0-3.429.4,1.544,1.544,0,0,0-.458,1.686c0.487,1.457-.625,3.564-2.7,5.123-0.55.412-.714,0.223-0.813,0.111a3.287,3.287,0,0,1-.062-3.2A1.011,1.011,0,0,0,8.8,16.725C8.25,15.47,4.721,15.567,4.022,15.6a0.684,0.684,0,0,0-.647.6,16.127,16.127,0,0,0-.124,2.07A17.709,17.709,0,0,0,16.733,35.5a0.682,0.682,0,1,0,.327-1.325A16.348,16.348,0,0,1,4.617,18.269c0-.474.016-0.892,0.053-1.319a10.193,10.193,0,0,1,2.637.285,4.614,4.614,0,0,0,.26,4.729,1.825,1.825,0,0,0,2.664.087c2.624-1.967,3.872-4.576,3.18-6.647a0.192,0.192,0,0,1,.082-0.245A2.07,2.07,0,0,1,15.451,15a1.2,1.2,0,0,1,.751,1.21c0,1.541-.311,1.87-0.741,2.325a3.884,3.884,0,0,0-.99,1.579c-0.614,1.844.371,2.435,0.959,2.788a2.114,2.114,0,0,1,.383.264c0.05,0.049.106,0.1,0.169,0.161,0.6,0.561,1.718,1.606.275,4.973-1.636,3.817,2.583,6.478,4.384,7.614a0.684,0.684,0,0,0,.365.105A17.772,17.772,0,0,0,38.76,18.269,17.96,17.96,0,0,0,38.59,15.813Zm-6.174,17.8A19.123,19.123,0,0,1,1.886,18.269a0.683,0.683,0,0,0-1.366,0,20.5,20.5,0,0,0,19.8,20.463V40.8a0.683,0.683,0,0,0,1.366,0V38.721A20.288,20.288,0,0,0,33.233,34.7,0.683,0.683,0,1,0,32.417,33.608ZM21.528,28.179a3.006,3.006,0,0,0-2.216,1.86,1.548,1.548,0,0,0,.233,1.762,2.471,2.471,0,0,0,3.321,0,1.749,1.749,0,0,0,.311-1.876,3.9,3.9,0,0,0-.9-1.445A1.051,1.051,0,0,0,21.528,28.179ZM21.9,30.835a1.2,1.2,0,0,1-1.386.008,0.829,0.829,0,0,1,.172-0.5,2.274,2.274,0,0,1,.749-0.761,2.506,2.506,0,0,1,.447.774A0.56,0.56,0,0,1,21.9,30.835Z"/>
</svg>
