<svg xmlns="http://www.w3.org/2000/svg" width="50" height="50" viewBox="0 0 50 50">
  <defs>
    <style>
      .cls-1 {
        fill: #046ea2;
        fill-rule: evenodd;
      }
    </style>
  </defs>
  <path id="BENEFIT6" class="cls-1" d="M8.676,27.546a11.766,11.766,0,0,0,2.659,7.395,8.513,8.513,0,0,0,6.533,3.323,8.493,8.493,0,0,0,6.525-3.321,11.774,11.774,0,0,0,2.651-7.392V27.537a0.765,0.765,0,1,0-1.53,0v0.013a10.217,10.217,0,0,1-2.3,6.416,6.992,6.992,0,0,1-5.346,2.767,7.012,7.012,0,0,1-5.355-2.77,10.209,10.209,0,0,1-2.307-6.418V26.629a13.937,13.937,0,0,1,1.753-5.373,26.7,26.7,0,0,1,8.807.39,0.754,0.754,0,0,0,.166.018,0.765,0.765,0,0,0,.164-1.512,28.347,28.347,0,0,0-9.652-.376,0.764,0.764,0,0,0-.627.381,21.609,21.609,0,0,0-1.291,2.734,25.809,25.809,0,0,1-.5-4.091c0-2.676,1.694-3.875,3.374-3.875a0.786,0.786,0,0,0,.161-0.017,0.792,0.792,0,0,0,.16.017,0.761,0.761,0,0,0,.462-0.155c1.678-1.274,3.919-1.109,6.091-.739a0.765,0.765,0,0,0,.256-1.508c-2.314-.393-4.949-0.59-7.062.876-0.023,0-.046,0-0.069,0a4.655,4.655,0,0,0-3.63,1.634A5.825,5.825,0,0,0,7.495,18.8a44.114,44.114,0,0,0,1.181,7.5v1.242h0ZM31.044,39.957l-0.05-.012-4.551-.952-1.2-1.825-0.027-.038a1.345,1.345,0,0,0-1.928-.234l-0.015.013-5.412,4.658-5.412-4.658L12.432,36.9a1.345,1.345,0,0,0-1.928.234l-0.027.038-1.2,1.825-4.551.952-0.05.012A5.816,5.816,0,0,0,1.417,42.33,6.568,6.568,0,0,0,.276,45.995v1.438a2.406,2.406,0,0,0,2.5,2.288H32.936a2.406,2.406,0,0,0,2.5-2.288V45.995A6.567,6.567,0,0,0,34.3,42.33,5.815,5.815,0,0,0,31.044,39.957ZM24.1,38.216l0.95,1.44-3.8,5.226-2.264-2.264Zm-6.74,8.451h1l0.3,1.524H17.052Zm1.267-1.949a0.391,0.391,0,0,1-.255.419h-1.02a0.391,0.391,0,0,1-.255-0.419V44.423l0.765-.765,0.765,0.765v0.295h0Zm-7-6.5,5.115,4.4-2.263,2.264-3.8-5.226ZM1.806,47.433V45.995a4.75,4.75,0,0,1,3.257-4.558l4.35-.91,4.348,5.979a0.766,0.766,0,0,0,.559.313l0.06,0A0.765,0.765,0,0,0,14.92,46.6l0.892-.892a1.969,1.969,0,0,0,.134.214l-0.454,2.272H2.781A0.9,0.9,0,0,1,1.806,47.433Zm32.105,0a0.9,0.9,0,0,1-.975.758H20.225L19.771,45.92a1.931,1.931,0,0,0,.134-0.214L20.8,46.6a0.766,0.766,0,0,0,.541.224l0.06,0a0.766,0.766,0,0,0,.559-0.313L26.3,40.527l4.35,0.91a4.75,4.75,0,0,1,3.256,4.558v1.438h0ZM35.466,0.761a13.77,13.77,0,1,0,13.77,13.77A13.786,13.786,0,0,0,35.466.761Zm0,26.011a12.24,12.24,0,1,1,12.24-12.241A12.254,12.254,0,0,1,35.466,26.772ZM43.877,8.336c0-.012,0-0.021,0-0.032s0-.028-0.006-0.042-0.006-.025-0.009-0.037S43.851,8.2,43.848,8.19s-0.008-.024-0.013-0.036-0.008-.023-0.013-0.034-0.01-.023-0.015-0.033S43.8,8.062,43.791,8.051s-0.012-.021-0.019-0.032l-0.02-.033-0.025-.034-0.02-.026A0.733,0.733,0,0,0,43.6,7.82L43.574,7.8c-0.011-.008-0.022-0.018-0.034-0.025a0.346,0.346,0,0,0-.033-0.02l-0.031-.018L43.442,7.72,43.409,7.7l-0.035-.013-0.036-.013L43.3,7.67l-0.037-.009c-0.014,0-.028,0-0.042-0.006L43.192,7.65c-0.025,0-.051,0-0.076,0h-4.59a0.765,0.765,0,1,0,0,1.53h2.743l-5.8,5.8-1.754-1.754a0.766,0.766,0,0,0-1.082,0l-6.12,6.12a0.765,0.765,0,1,0,1.082,1.082l5.579-5.579L34.925,16.6a0.76,0.76,0,0,0,.395.21,0.74,0.74,0,0,0,.146.014,0.789,0.789,0,0,0,.146-0.014,0.761,0.761,0,0,0,.395-0.21h0l6.344-6.344V13a0.765,0.765,0,1,0,1.53,0V8.412C43.881,8.387,43.88,8.361,43.877,8.336Z"/>
</svg>
