<svg xmlns="http://www.w3.org/2000/svg" width="42" height="39" viewBox="0 0 42 39">
  <defs>
    <style>
      .cls-1 {
        fill: #046ea2;
        fill-rule: evenodd;
      }
    </style>
  </defs>
  <path id="BENEFIT1" class="cls-1" d="M29.357,34.145a0.681,0.681,0,0,0-.827.5l-0.683,2.73a0.683,0.683,0,0,0,1.324.331l0.683-2.73A0.682,0.682,0,0,0,29.357,34.145ZM21,20.474a0.665,0.665,0,0,0,.261-0.052l7.509-3.106a0.683,0.683,0,0,0-.523-1.262l-7.247,3L1.885,11.144V10.918a0.683,0.683,0,0,0-1.365,0V11.6a0.682,0.682,0,0,0,.422.631l19.8,8.19A0.665,0.665,0,0,0,21,20.474Zm8.121,6.993a0.682,0.682,0,0,0-.914-0.31,15.916,15.916,0,0,1-6.524,1.488V22.521a0.683,0.683,0,1,0-1.365,0v6.117c-8.477-.27-11.212-5.4-11.605-6.259V17.743a0.683,0.683,0,0,0-1.365,0v4.778a0.687,0.687,0,0,0,.049.254c0.119,0.3,3.024,7.254,13.6,7.254a17.553,17.553,0,0,0,7.812-1.649A0.681,0.681,0,0,0,29.121,27.466Zm2.119,7.341a0.682,0.682,0,0,0-.683.683v2.047a0.683,0.683,0,0,0,1.365,0V35.49A0.682,0.682,0,0,0,31.24,34.807ZM40.8,10.235a0.682,0.682,0,0,0-.683.682v0.225l-8.192,3.371V13.281L41.058,9.5a0.682,0.682,0,0,0,0-1.261l-19.8-8.19a0.679,0.679,0,0,0-.521,0l-19.8,8.19a0.682,0.682,0,0,0,0,1.261l19.8,8.191a0.681,0.681,0,0,0,.522,0l7.159-2.962a0.682,0.682,0,1,0-.522-1.261L21,16.322,2.988,8.87,21,1.418,39.012,8.87l-7.838,3.243-7.507-2.8a1.625,1.625,0,0,0,.063-0.44c0-1.148-1.2-2.048-2.731-2.048s-2.731.9-2.731,2.048,1.2,2.048,2.731,2.048a3.3,3.3,0,0,0,1.767-.487l7.791,2.908v2.187h0V30.155a2.048,2.048,0,1,0,1.365,0V26.281a8.3,8.3,0,0,0,2.693-3.536,0.692,0.692,0,0,0,.037-0.223V17.744a0.683,0.683,0,0,0-1.365,0V22.4a6.985,6.985,0,0,1-1.365,2.062V15.991l9.135-3.759A0.683,0.683,0,0,0,41.48,11.6V10.918A0.682,0.682,0,0,0,40.8,10.235ZM21,9.553a1.271,1.271,0,0,1-1.365-.682A1.27,1.27,0,0,1,21,8.187a1.27,1.27,0,0,1,1.365.683A1.271,1.271,0,0,1,21,9.553ZM31.24,32.76a0.683,0.683,0,1,1,.683-0.682A0.684,0.684,0,0,1,31.24,32.76Zm2.71,1.882a0.683,0.683,0,0,0-1.324.332l0.683,2.73a0.683,0.683,0,0,0,1.324-.331Z"/>
</svg>
