<svg xmlns="http://www.w3.org/2000/svg" width="37" height="43" viewBox="0 0 37 43">
  <defs>
    <style>
      .cls-1 {
        fill: #046ea2;
        fill-rule: evenodd;
      }
    </style>
  </defs>
  <path id="BENEFIT5" class="cls-1" d="M14.972,5.214a7.019,7.019,0,0,1,1.326.591,0.681,0.681,0,0,0,.932-0.248,0.683,0.683,0,0,0-.248-0.933A8.435,8.435,0,0,0,15.4,3.917,0.682,0.682,0,0,0,14.972,5.214ZM19.6,12.519a14.094,14.094,0,0,1-.351,3.092,0.682,0.682,0,1,0,1.33.3,15.463,15.463,0,0,0,.384-3.393,9.624,9.624,0,0,0-1.727-5.9,0.682,0.682,0,1,0-1.092.818A8.306,8.306,0,0,1,19.6,12.519ZM9.748,22.939a11.749,11.749,0,0,1-4.053-5.934,0.682,0.682,0,1,0-1.3.428,12.955,12.955,0,0,0,4.58,6.634A0.682,0.682,0,0,0,9.748,22.939ZM33.56,11.666a11.6,11.6,0,0,0-8.19-3.138,13.5,13.5,0,0,0-1.995.148,10.974,10.974,0,0,0-2.907-5.017A11.6,11.6,0,0,0,12.277.521a11.6,11.6,0,0,0-8.19,3.138,12.015,12.015,0,0,0-3.4,8.861A18.8,18.8,0,0,0,4,23.068a11.292,11.292,0,0,0,6.386,4.793,2.125,2.125,0,0,0-.25,1v1.456a0.682,0.682,0,0,0,.682.682h0.732a4.239,4.239,0,0,1-.28,1.019,6.043,6.043,0,0,0,0,4.361,4.681,4.681,0,0,1,0,3.4,5.439,5.439,0,0,0-.407,2.181,0.682,0.682,0,1,0,1.364,0,4.106,4.106,0,0,1,.32-1.7,6.046,6.046,0,0,0,0-4.362,4.68,4.68,0,0,1,0-3.4,5.39,5.39,0,0,0,.375-1.5h0.805a0.682,0.682,0,0,0,.682-0.683V28.864a2.126,2.126,0,0,0-.25-1,8.451,8.451,0,0,0,1.021-.318c1.791,4.409,4.9,7.478,8.3,8.32a2.127,2.127,0,0,0-.252,1.007v1.456a0.682,0.682,0,0,0,.682.682h0.732a4.224,4.224,0,0,1-.28,1.018,5.435,5.435,0,0,0-.407,2.18,0.682,0.682,0,0,0,1.364,0,4.1,4.1,0,0,1,.32-1.7,5.393,5.393,0,0,0,.375-1.5h0.8a0.682,0.682,0,0,0,.682-0.682V36.871a2.125,2.125,0,0,0-.25-1,11.3,11.3,0,0,0,6.386-4.793,18.805,18.805,0,0,0,3.319-10.55A12.013,12.013,0,0,0,33.56,11.666ZM5.12,22.285a17.408,17.408,0,0,1-3.072-9.766A10.683,10.683,0,0,1,5.038,4.637a10.248,10.248,0,0,1,7.239-2.751,10.249,10.249,0,0,1,7.239,2.75,10.685,10.685,0,0,1,2.989,7.883,17.408,17.408,0,0,1-3.072,9.766c-2.006,2.863-4.548,4.44-7.156,4.44S7.127,25.148,5.12,22.285Zm7.929,6.578v0.773H11.5V28.864A0.773,0.773,0,1,1,13.05,28.864Zm13.092,8.007v0.773H24.6V36.871A0.773,0.773,0,1,1,26.142,36.871Zm6.384-6.579c-2.006,2.864-4.548,4.44-7.156,4.44a7.9,7.9,0,0,1-5.321-2.319,15.267,15.267,0,0,1-3.626-5.451,10.51,10.51,0,0,0,1.3-.867,12.623,12.623,0,0,0,4.348,5.978,0.682,0.682,0,0,0,.768-1.128,11.686,11.686,0,0,1-4.015-5.821,14.977,14.977,0,0,0,1.724-2.057,18.8,18.8,0,0,0,3.319-10.549,15.22,15.22,0,0,0-.2-2.507,12.118,12.118,0,0,1,1.7-.118,10.247,10.247,0,0,1,7.239,2.75A10.683,10.683,0,0,1,35.6,20.525,17.407,17.407,0,0,1,32.525,30.292Zm-0.2-15.666a0.682,0.682,0,1,0-1.092.818,8.3,8.3,0,0,1,1.455,5.081,14.113,14.113,0,0,1-.351,3.093,0.683,0.683,0,0,0,.515.816,0.706,0.706,0,0,0,.151.016,0.682,0.682,0,0,0,.664-0.532,15.466,15.466,0,0,0,.385-3.393A9.624,9.624,0,0,0,32.325,14.626Zm-2.25-1.995a8.454,8.454,0,0,0-1.583-.708,0.683,0.683,0,0,0-.427,1.3,7.033,7.033,0,0,1,1.326.591A0.682,0.682,0,0,0,30.075,12.632Z"/>
</svg>
