<svg xmlns="http://www.w3.org/2000/svg" width="39" height="42" viewBox="0 0 39 42">
  <defs>
    <style>
      .cls-1 {
        fill: #046ea2;
        fill-rule: evenodd;
      }
    </style>
  </defs>
  <path id="BENEFIT2" class="cls-1" d="M23.737,14.846a0.683,0.683,0,0,0,.683.682h6.829a0.683,0.683,0,0,0,0-1.366H24.42A0.683,0.683,0,0,0,23.737,14.846Zm4.1,4.1a0.683,0.683,0,0,0,.683.683h4.1a0.683,0.683,0,0,0,0-1.366h-4.1A0.683,0.683,0,0,0,27.834,18.943Zm-0.683-7.512a0.683,0.683,0,1,0,0-1.366H25.786a0.683,0.683,0,1,0,0,1.366h1.366ZM18.957,18.26a0.683,0.683,0,0,0,0,1.366h6.828a0.683,0.683,0,0,0,0-1.366H18.957Zm3.414,19.123H9.4a2.051,2.051,0,0,1-2.049-2.049V3.918a0.683,0.683,0,0,0-.683-0.683A3.418,3.418,0,0,0,3.251,6.65a0.683,0.683,0,0,0,1.366,0A2.053,2.053,0,0,1,5.983,4.718V35.334A3.419,3.419,0,0,0,9.4,38.749H22.371A0.683,0.683,0,0,0,22.371,37.382ZM12.129,15.528h9.56a0.683,0.683,0,0,0,0-1.366h-9.56A0.683,0.683,0,0,0,12.129,15.528Zm0-4.1H14.86a0.683,0.683,0,1,0,0-1.366H12.129A0.683,0.683,0,1,0,12.129,11.431Zm10.926-1.366H17.591a0.683,0.683,0,0,0,0,1.366h5.463A0.683,0.683,0,0,0,23.054,10.065Zm9.56-9.545H6.666A6.154,6.154,0,0,0,.52,6.642V6.674a6.171,6.171,0,0,0,3.072,5.3,0.682,0.682,0,1,0,.684-1.181A4.772,4.772,0,0,1,6.666,1.885H32.614a4.786,4.786,0,0,1,4.78,4.78V35.349a1.986,1.986,0,0,1-.279,1,0.683,0.683,0,1,0,1.177.693,3.351,3.351,0,0,0,.468-1.7V6.666A6.153,6.153,0,0,0,32.614.519Zm2.048,31.4a4.1,4.1,0,1,0-4.1,4.1A4.1,4.1,0,0,0,34.663,31.919Zm-4.1,2.731A2.732,2.732,0,1,1,33.3,31.919,2.734,2.734,0,0,1,30.566,34.65ZM29.333,36.7a0.684,0.684,0,0,0-.933.25L26.93,39.5,26.7,39.146a0.679,0.679,0,0,0-.529-0.305l-0.422-.026,1.495-2.588a0.683,0.683,0,0,0-1.183-.683l-2.047,3.545a0.683,0.683,0,0,0,.551,1.023l1.183,0.071,0.654,0.99a0.682,0.682,0,0,0,.569.306H26.99a0.685,0.685,0,0,0,.571-0.341l2.023-3.5A0.683,0.683,0,0,0,29.333,36.7Zm5.759-1.124a0.683,0.683,0,0,0-1.184.682l1.477,2.556-0.422.026a0.685,0.685,0,0,0-.529.305L34.2,39.5l-1.463-2.535a0.683,0.683,0,1,0-1.183.683l2.016,3.492a0.686,0.686,0,0,0,.571.341h0.021a0.685,0.685,0,0,0,.57-0.306l0.653-.989,1.183-.072a0.683,0.683,0,0,0,.551-1.023ZM12.129,19.626h4.1a0.683,0.683,0,0,0,0-1.366h-4.1A0.683,0.683,0,0,0,12.129,19.626Zm0,4.1h8.194a0.683,0.683,0,0,0,0-1.366H12.129A0.683,0.683,0,0,0,12.129,23.723Zm0.072,8.5a0.683,0.683,0,1,0,1.221-.611c-0.676-1.352-.828-2.565-0.407-3.246a1.261,1.261,0,0,1,1.162-.546,0.554,0.554,0,0,1,.524.221c0.509,0.734.025,2.967-.481,4.32a0.683,0.683,0,0,0,1.123.723c0.292-.291.608-0.581,0.883-0.817V32.6a0.683,0.683,0,0,0,1.166.483,8.545,8.545,0,0,1,.979-0.837l-0.025.049a0.684,0.684,0,0,0,.612.988h2.731a0.683,0.683,0,0,0,0-1.366H19.911A1.32,1.32,0,0,0,19.788,31a0.95,0.95,0,0,0-.831-0.444,2.655,2.655,0,0,0-1.372.575,0.788,0.788,0,0,0-.479-0.653,0.934,0.934,0,0,0-.987.169,4.727,4.727,0,0,0-.3-3.378,1.9,1.9,0,0,0-1.646-.809,2.607,2.607,0,0,0-2.324,1.194C11.172,28.752,11.3,30.419,12.2,32.224Zm18.365-9.183a0.683,0.683,0,0,0-.683-0.683H23.054a0.683,0.683,0,0,0,0,1.366h6.828A0.683,0.683,0,0,0,30.566,23.041Z"/>
</svg>
