<svg xmlns="http://www.w3.org/2000/svg" width="89" height="90" viewBox="0 0 89 90">
  <defs>
    <style>
      .cls-1 {
        fill: #ffffff;
        fill-rule: evenodd;
      }
    </style>
  </defs>
  <path id="Brainstorm" class="cls-1" d="M83.228,15.525V5.566l3.415,2.561L88.35,5.85,81.805,0.941,75.26,5.85l1.707,2.276,3.415-2.56v9.96a7.122,7.122,0,0,1-7.114,7.114H67.577a9.786,9.786,0,0,0-9.54,7.114H56L55.946,32.6h1.67v4.435a15.052,15.052,0,0,0-2.134-.167,14.775,14.775,0,0,0-9.1,3.141A9.878,9.878,0,0,0,36.274,37.3V28.331a8.545,8.545,0,0,0-8.537-8.537H26.314V16.948H23.468v2.846H19.2a8.545,8.545,0,0,0-8.537,8.537v2.846a2.848,2.848,0,0,1-2.846,2.846H4.972l2.561-3.415L5.256,28.9,0.348,35.445,5.256,41.99l2.277-1.707L4.972,36.868H7.817a5.7,5.7,0,0,0,5.691-5.692V28.33A5.7,5.7,0,0,1,19.2,22.639h8.537a5.7,5.7,0,0,1,5.691,5.691V38.674a10.013,10.013,0,0,0-1.707,1.5,11.907,11.907,0,0,0-3.272-.459,12.065,12.065,0,0,0-11.97,10.456,12.093,12.093,0,0,0-6.415,18.617A11.9,11.9,0,0,0,9.24,73.15,12.009,12.009,0,0,0,22.922,85.127c0.1-.013.2-0.03,0.294-0.045a11.813,11.813,0,0,0,1.548-.342,12.062,12.062,0,0,0,13.683-.415,12.075,12.075,0,0,0,19.372.625,11.929,11.929,0,0,0,6.2,1.718A12.108,12.108,0,0,0,76.114,74.574a11.932,11.932,0,0,0-.757-4.192,12.026,12.026,0,0,0,3.406-10.748h0.2V56.788H77.872a12.125,12.125,0,0,0-7.552-6.609,14.859,14.859,0,0,0-9.857-12.452V32.6a7.122,7.122,0,0,1,7.114-7.114h5.692A9.972,9.972,0,0,0,83.228,15.525ZM67.552,51.362l0.04,1.123,1.1,0.22a9.221,9.221,0,0,1,6,4.191v2.738h1.14a9.012,9.012,0,0,1,.284,2.135,9.2,9.2,0,0,1-2.289,6.069,11.912,11.912,0,0,0-9-4.786l-0.186,2.662c4.727,0.312,8.443,3.721,8.614,9.182a9.25,9.25,0,0,1-9.231,8.926,9.156,9.156,0,0,1-5.681-1.962l-0.568-.444a9.219,9.219,0,0,1-2.989-6.226l-2.84.189a12.045,12.045,0,0,0,3.617,7.842,9.225,9.225,0,0,1-15.47-1.707l-0.876-1.768-1.4,1.393A9.126,9.126,0,0,1,28.045,83.2,12.086,12.086,0,0,0,33.429,73.15c0-.3-0.04-0.6-0.061-0.9a12.052,12.052,0,0,0,6.1-2.992l-1.924-2.1a9.206,9.206,0,0,1-4.71,2.294,12.062,12.062,0,0,0-5.869-7.016l-1.326,2.518a9.243,9.243,0,0,1-1.152,16.877,9.518,9.518,0,0,1-1.52.41l-0.1.016a9.083,9.083,0,0,1-1.527.136,9.259,9.259,0,0,1-9.248-9.248,9.163,9.163,0,0,1,.9-3.959l0.39-.819-0.581-.7A9.247,9.247,0,0,1,18.082,52.7l1.091-.218,0.051-1.11a9.227,9.227,0,0,1,4.244-7.358v2.811h2.846V42.817a9.05,9.05,0,0,1,5.39.346l1.017,0.384,0.637-.879c0.021-.03.047-0.056,0.07-0.086v7.091h2.846V40.328a7.015,7.015,0,0,1,8,1.612,15.343,15.343,0,0,0-4.085,9.868c0,8.238,7.47,14.94,14.584,14.94V63.9c-5.691,0-11.738-5.426-11.738-12.094a12.3,12.3,0,0,1,3.238-8.039l0.815-.693a12.1,12.1,0,0,1,8.352-3.362,12.6,12.6,0,0,1,2.178.2V45.4A7.122,7.122,0,0,1,50.5,52.519H49.08v2.846H50.5a9.972,9.972,0,0,0,9.96-9.96V40.789A12.039,12.039,0,0,1,67.552,51.362Zm-1.4,5.426h4.269v2.846H66.154V56.788Zm7.114-27.034h4.269V32.6H73.268V29.753ZM51.2,31.247l1.434-2.457a7.242,7.242,0,0,1-2.519-2.472L47.682,27.8A10.089,10.089,0,0,0,51.2,31.247Zm-4.962-8.607h0c0,0.148,0,.3.01,0.444l2.843-.316-0.007-4.4H46.234v4.268Zm0-12.806H49.08V14.1H46.234V9.834Zm36.13,46.08,1.37,2.493a10.094,10.094,0,0,0,3.6-3.356l-2.393-1.543A7.247,7.247,0,0,1,82.364,55.914Zm3.71-6.241c0,0.168-.006.335-0.019,0.5l2.84,0.2c0.016-.232.024-0.465,0.024-0.7V45.4H86.074v4.268ZM64.731,29.753H69V32.6H64.731V29.753Zm23.844,7.37-2.746.742a7.1,7.1,0,0,1,.245,1.848v1.423h2.846V39.714A9.876,9.876,0,0,0,88.575,37.124ZM86.15,32.836a10.014,10.014,0,0,0-4.175-2.613l-0.866,2.709a7.184,7.184,0,0,1,2.985,1.87ZM46.234,5.566H49.08l3.415,2.561L54.2,5.85,47.657,0.941,41.112,5.85l1.707,2.276ZM23.469,8.411h2.846V12.68H23.469V8.411Zm0,25.611h2.846V38.29H23.469V34.022Zm0-8.537h2.846v4.268H23.469V25.485Zm0,25.611h2.846v4.269H23.469V51.1ZM24.892,4.5l4.837,3.628L31.437,5.85,24.892,0.941,18.346,5.85l1.707,2.276Z"/>
</svg>
