<svg xmlns="http://www.w3.org/2000/svg" width="48" height="44" viewBox="0 0 48 44">
  <defs>
    <style>
      .cls-1 {
        fill: #046ea2;
        fill-rule: evenodd;
      }
    </style>
  </defs>
  <path id="Deyat5" class="cls-1" d="M42.4,30.854V21.2H24.8V13.143a6.4,6.4,0,1,0-1.6,0V21.2H5.6v9.656a6.4,6.4,0,1,0,1.6,0V22.8h16v8.055a6.4,6.4,0,1,0,1.6,0V22.8h16v8.055A6.4,6.4,0,1,0,42.4,30.854ZM19.2,6.8A4.8,4.8,0,1,1,24,11.6,4.8,4.8,0,0,1,19.2,6.8Zm-8,30.4a4.8,4.8,0,1,1-4.8-4.8A4.805,4.805,0,0,1,11.2,37.2Zm17.6,0A4.8,4.8,0,1,1,24,32.4,4.805,4.805,0,0,1,28.8,37.2ZM41.6,42a4.8,4.8,0,1,1,4.8-4.8A4.805,4.805,0,0,1,41.6,42Z"/>
</svg>
