<svg xmlns="http://www.w3.org/2000/svg" width="50" height="40" viewBox="0 0 50 40">
  <defs>
    <style>
      .cls-1 {
        fill: #046ea2;
        fill-rule: evenodd;
      }
    </style>
  </defs>
  <path id="Deyat6" class="cls-1" d="M4.3,5.324A0.72,0.72,0,1,0,3.8,5.114,0.719,0.719,0,0,0,4.3,5.324Zm2.3,0A0.719,0.719,0,1,0,6.1,5.114,0.717,0.717,0,0,0,6.6,5.324Zm2.3,0A0.719,0.719,0,1,0,8.4,5.114,0.719,0.719,0,0,0,8.9,5.324Zm3.066,0H41.1a0.719,0.719,0,0,0,0-1.437H11.969A0.719,0.719,0,0,0,11.969,5.324Zm32.193,0H45.7a0.719,0.719,0,0,0,0-1.437H44.162A0.719,0.719,0,0,0,44.162,5.324ZM8.9,11.552H7.37A3.022,3.022,0,0,0,4.352,14.57v4.6A3.021,3.021,0,0,0,7.37,22.187H8.9a3.021,3.021,0,0,0,3.018-3.018v-4.6A3.022,3.022,0,0,0,8.9,11.552Zm1.581,7.617A1.583,1.583,0,0,1,8.9,20.75H7.37a1.583,1.583,0,0,1-1.581-1.581v-4.6A1.583,1.583,0,0,1,7.37,12.989H8.9a1.583,1.583,0,0,1,1.581,1.581v4.6Zm22.9,0v-4.6a3.022,3.022,0,0,0-3.018-3.017H28.832a3.022,3.022,0,0,0-3.018,3.018v4.6a3.021,3.021,0,0,0,3.018,3.018h1.533A3.021,3.021,0,0,0,33.384,19.169Zm-1.437,0a1.583,1.583,0,0,1-1.581,1.581H28.832a1.583,1.583,0,0,1-1.581-1.581v-4.6a1.583,1.583,0,0,1,1.581-1.581h1.533a1.583,1.583,0,0,1,1.581,1.581v4.6ZM16.568,23.816H15.035a3.022,3.022,0,0,0-3.018,3.018v4.6a3.022,3.022,0,0,0,3.018,3.019h1.533a3.022,3.022,0,0,0,3.018-3.019v-4.6A3.022,3.022,0,0,0,16.568,23.816Zm1.581,7.617a1.583,1.583,0,0,1-1.581,1.581H15.035a1.583,1.583,0,0,1-1.581-1.581v-4.6a1.583,1.583,0,0,1,1.581-1.581h1.533a1.583,1.583,0,0,1,1.581,1.581v4.6Zm7.617-7.617H24.233a3.022,3.022,0,0,0-3.018,3.018v4.6a3.021,3.021,0,0,0,3.018,3.019h1.533a3.021,3.021,0,0,0,3.018-3.019v-4.6A3.022,3.022,0,0,0,25.766,23.816Zm1.581,7.617a1.583,1.583,0,0,1-1.581,1.581H24.233a1.583,1.583,0,0,1-1.581-1.581v-4.6a1.583,1.583,0,0,1,1.581-1.581h1.533a1.583,1.583,0,0,1,1.581,1.581v4.6ZM41.1,23.816H39.563a3.022,3.022,0,0,0-3.018,3.018v4.6a3.022,3.022,0,0,0,3.018,3.019H41.1a3.021,3.021,0,0,0,3.018-3.019v-4.6A3.022,3.022,0,0,0,41.1,23.816Zm1.581,7.617A1.583,1.583,0,0,1,41.1,33.014H39.563a1.583,1.583,0,0,1-1.581-1.581v-4.6a1.583,1.583,0,0,1,1.581-1.581H41.1a1.583,1.583,0,0,1,1.581,1.581v4.6ZM14.269,20.75a0.718,0.718,0,1,0,0,1.437h3.066a0.718,0.718,0,1,0,0-1.437H16.521V12.271a0.719,0.719,0,1,0-1.437,0v0.814H14.269a0.718,0.718,0,1,0,0,1.437h0.814V20.75H14.269ZM9.67,33.014H8.856V24.535a0.719,0.719,0,1,0-1.437,0v0.814H6.6a0.719,0.719,0,0,0,0,1.437H7.418v6.228H6.6a0.719,0.719,0,0,0,0,1.437H9.67A0.719,0.719,0,0,0,9.67,33.014Zm24.528,0H33.384V24.535a0.719,0.719,0,1,0-1.437,0v0.814H31.132a0.719,0.719,0,0,0,0,1.437h0.815v6.228H31.132a0.719,0.719,0,0,0,0,1.437H34.2A0.719,0.719,0,1,0,34.2,33.014ZM23.467,22.187a0.718,0.718,0,1,0,0-1.437H22.653V12.271a0.719,0.719,0,1,0-1.437,0v0.814H20.4a0.718,0.718,0,1,0,0,1.437h0.814V20.75H20.4a0.718,0.718,0,1,0,0,1.437h3.066Zm15.33,0a0.718,0.718,0,1,0,0-1.437H37.983V12.271a0.719,0.719,0,1,0-1.437,0v0.814H35.731a0.718,0.718,0,1,0,0,1.437h0.814V20.75H35.731a0.718,0.718,0,1,0,0,1.437H38.8Zm6.132-1.437H44.114V12.271a0.719,0.719,0,1,0-1.437,0v0.814H41.863a0.718,0.718,0,1,0,0,1.437h0.814V20.75H41.863a0.718,0.718,0,1,0,0,1.437h3.066A0.718,0.718,0,1,0,44.929,20.75ZM45.7,0.821H4.3A3.789,3.789,0,0,0,.52,4.606v30.66A3.788,3.788,0,0,0,4.3,39.05H45.7a3.788,3.788,0,0,0,3.784-3.784V4.606A3.789,3.789,0,0,0,45.7.821ZM4.3,2.258H45.7a2.35,2.35,0,0,1,2.347,2.348V6.953H1.957V4.606A2.35,2.35,0,0,1,4.3,2.258ZM45.7,37.614H4.3a2.351,2.351,0,0,1-2.347-2.348V8.39H48.043V35.266A2.351,2.351,0,0,1,45.7,37.614Z"/>
</svg>
