<svg xmlns="http://www.w3.org/2000/svg" width="54" height="48" viewBox="0 0 54 48">
  <defs>
    <style>
      .cls-1 {
        fill: #046ea2;
        fill-rule: evenodd;
      }
    </style>
  </defs>
  <path id="Deyat8" class="cls-1" d="M4.118,8.039A0.783,0.783,0,1,0,3.565,7.81,0.787,0.787,0,0,0,4.118,8.039Zm2.506,0A0.783,0.783,0,1,0,6.071,7.81,0.787,0.787,0,0,0,6.624,8.039Zm2.506,0A0.783,0.783,0,1,0,8.577,7.81,0.787,0.787,0,0,0,9.13,8.039Zm38.424,0h1.671a0.783,0.783,0,1,0,0-1.566H47.554A0.783,0.783,0,1,0,47.554,8.039ZM45.884,29.862H37.531a2.456,2.456,0,0,0-2.454,2.454v5.847a2.457,2.457,0,0,0,2.454,2.454h8.353a2.457,2.457,0,0,0,2.454-2.454V32.315A2.456,2.456,0,0,0,45.884,29.862Zm0.887,8.3a0.889,0.889,0,0,1-.887.888H37.531a0.889,0.889,0,0,1-.888-0.888V32.315a0.889,0.889,0,0,1,.888-0.888h8.353a0.889,0.889,0,0,1,.887.888v5.847ZM37.531,21.4a2.454,2.454,0,1,0-2.454-2.454A2.456,2.456,0,0,0,37.531,21.4Zm0-3.341a0.887,0.887,0,1,1-.888.887A0.888,0.888,0,0,1,37.531,18.063ZM44.213,33.2H39.2a0.783,0.783,0,1,0,0,1.566h5.012A0.783,0.783,0,0,0,44.213,33.2Zm-2.506,2.506H39.2a0.783,0.783,0,1,0,0,1.566h2.506A0.783,0.783,0,1,0,41.707,35.709ZM4.118,15.557H5.789a0.783,0.783,0,0,0,0-1.566H4.118A0.783,0.783,0,1,0,4.118,15.557Zm0,4.177H5.789a0.783,0.783,0,0,0,0-1.567H4.118A0.783,0.783,0,0,0,4.118,19.734Zm2.506,2.609H5.789a0.783,0.783,0,0,0,0,1.567H6.624A0.783,0.783,0,0,0,6.624,22.343ZM4.118,28.086H5.789a0.783,0.783,0,0,0,0-1.566H4.118A0.783,0.783,0,1,0,4.118,28.086ZM9.13,15.557h3.341a0.783,0.783,0,0,0,0-1.566H9.13A0.783,0.783,0,1,0,9.13,15.557Zm0,12.529h6.682a0.783,0.783,0,0,0,0-1.566H9.13A0.783,0.783,0,1,0,9.13,28.086Zm0-8.353h8.353a0.783,0.783,0,0,0,0-1.567H9.13A0.783,0.783,0,0,0,9.13,19.734Zm0.835,2.609a0.783,0.783,0,0,0,0,1.567h3.341a0.783,0.783,0,0,0,0-1.567H9.965Zm9.971,0.784a0.784,0.784,0,0,0-.783-0.784H16.648a0.783,0.783,0,0,0,0,1.567h2.506A0.783,0.783,0,0,0,19.937,23.127Zm2.558-.784a0.785,0.785,0,1,0,.553.23A0.787,0.787,0,0,0,22.5,22.343Zm-2.224,8.583a0.782,0.782,0,1,0,.553-0.23A0.785,0.785,0,0,0,20.271,30.926ZM6.624,30.7H5.789a0.783,0.783,0,1,0,0,1.566H6.624A0.783,0.783,0,1,0,6.624,30.7ZM18.266,31.48a0.783,0.783,0,0,0-.783-0.783H9.965a0.783,0.783,0,1,0,0,1.566h7.518A0.783,0.783,0,0,0,18.266,31.48ZM6.624,34.873H5.789a0.783,0.783,0,1,0,0,1.566H6.624A0.783,0.783,0,1,0,6.624,34.873Zm3.341,0a0.783,0.783,0,1,0,0,1.566h5.012a0.783,0.783,0,1,0,0-1.566H9.965Zm11.642,0.783a0.783,0.783,0,0,0-.783-0.783H18.319a0.783,0.783,0,0,0,0,1.566h2.506A0.783,0.783,0,0,0,21.608,35.656ZM5.789,39.05H4.118a0.783,0.783,0,1,0,0,1.566H5.789A0.783,0.783,0,1,0,5.789,39.05Zm5.847,0H9.13a0.783,0.783,0,1,0,0,1.566h2.506A0.783,0.783,0,1,0,11.636,39.05Zm11.694,0H21.66a0.783,0.783,0,1,0,0,1.566H23.33A0.783,0.783,0,1,0,23.33,39.05ZM15.813,15.557H22.5a0.783,0.783,0,0,0,0-1.566H15.813A0.783,0.783,0,0,0,15.813,15.557ZM18.319,39.05H14.977a0.783,0.783,0,1,0,0,1.566h3.341A0.783,0.783,0,1,0,18.319,39.05ZM49.225,3.131H27.455V1.409a0.783,0.783,0,1,0-1.566,0V3.131H4.118A4.129,4.129,0,0,0-.006,7.255V40.668a4.129,4.129,0,0,0,4.124,4.124h21.77v1.723a0.783,0.783,0,0,0,1.566,0V44.792h21.77a4.129,4.129,0,0,0,4.124-4.124V7.255A4.129,4.129,0,0,0,49.225,3.131Zm0,1.566a2.561,2.561,0,0,1,2.558,2.558V9.814H27.455V8.039H44.213a0.783,0.783,0,1,0,0-1.566H27.455V4.7h21.77ZM4.118,4.7h21.77V6.473H12.471a0.783,0.783,0,1,0,0,1.566H25.888V9.814H1.56V7.255A2.561,2.561,0,0,1,4.118,4.7Zm0,38.529A2.561,2.561,0,0,1,1.56,40.668V11.38H25.888V25.633h0V43.226H4.118Zm23.336-11.8h3.393a0.889,0.889,0,0,1,.887.888v5.847a0.889,0.889,0,0,1-.887.888H27.455V31.427Zm0-5.47,5.064-5.064,4.458,4.458a0.784,0.784,0,0,0,1.108,0l8.687-8.686v8.968a0.888,0.888,0,0,1-.887.887H27.455V25.957ZM37.531,23.69l-4.458-4.458a0.783,0.783,0,0,0-1.107,0l-4.51,4.51V15.557H45.664ZM49.225,43.226H27.455v-2.61h3.393A2.457,2.457,0,0,0,33.3,38.162V32.315a2.456,2.456,0,0,0-2.454-2.454H27.455V28.086H45.884a2.456,2.456,0,0,0,2.454-2.454V16.444a2.456,2.456,0,0,0-2.454-2.453H27.455V11.38H51.783V40.668A2.561,2.561,0,0,1,49.225,43.226Z"/>
</svg>
