<svg xmlns="http://www.w3.org/2000/svg" width="48" height="48" viewBox="0 0 48 48">
  <defs>
    <style>
      .cls-1 {
        fill: #046ea2;
        fill-rule: evenodd;
      }
    </style>
  </defs>
  <path id="Deyat3" class="cls-1" d="M48,6.4V0H0V6.4H1.6v32H0.8A0.8,0.8,0,0,0,.8,40H23.2v1.6a0.807,0.807,0,0,0,.022.107,3.2,3.2,0,1,0,1.557,0A0.823,0.823,0,0,0,24.8,41.6V40H47.2a0.8,0.8,0,1,0,0-1.6H46.4V6.4H48ZM25.6,44.8A1.6,1.6,0,1,1,24,43.2,1.6,1.6,0,0,1,25.6,44.8ZM1.6,1.6H46.4V4.8H1.6V1.6ZM44.8,38.4H3.2V6.4H44.8v32ZM28.8,36a0.8,0.8,0,0,0,.8-0.8V32.8a0.8,0.8,0,0,0-1.6,0v2.4A0.8,0.8,0,0,0,28.8,36ZM32,28.8a0.8,0.8,0,0,0-.8.8v5.6a0.8,0.8,0,1,0,1.6,0V29.6A0.8,0.8,0,0,0,32,28.8Zm3.2,1.6a0.8,0.8,0,0,0-.8.8v4a0.8,0.8,0,0,0,1.6,0v-4A0.8,0.8,0,0,0,35.2,30.4Zm3.2-5.6a0.8,0.8,0,0,0-.8.8v9.6a0.8,0.8,0,0,0,1.6,0V25.6A0.8,0.8,0,0,0,38.4,24.8ZM41.6,28a0.8,0.8,0,0,0-.8.8v6.4a0.8,0.8,0,0,0,1.6,0V28.8A0.8,0.8,0,0,0,41.6,28ZM8,32h8a0.8,0.8,0,1,0,0-1.6H8A0.8,0.8,0,1,0,8,32Zm12,1.6H8a0.8,0.8,0,1,0,0,1.6H20A0.8,0.8,0,1,0,20,33.6Zm-4.4-6.4a9.152,9.152,0,0,0,6.022-2.262,0.753,0.753,0,0,0,.07-0.046c0.013-.013.017-0.03,0.029-0.043a9.17,9.17,0,0,0,3.039-6.06l0.015-.012,0.016-.353c0-.07,0-0.139,0-0.21s0.01-.142.01-0.215c0-.1-0.012-0.193-0.014-0.29,0-.142-0.01-0.284-0.022-0.424-0.014-.191-0.038-0.379-0.064-0.566-0.016-.114-0.032-0.228-0.052-0.341-0.038-.21-0.085-0.416-0.136-0.622-0.023-.092-0.045-0.185-0.071-0.276-0.061-.212-0.131-0.42-0.206-0.626-0.032-.088-0.062-0.177-0.1-0.264-0.077-.193-0.164-0.38-0.254-0.566-0.048-.1-0.093-0.2-0.144-0.3-0.082-.157-0.173-0.306-0.264-0.456-0.073-.123-0.142-0.245-0.221-0.364s-0.148-.2-0.222-0.306c-0.11-.152-0.218-0.306-0.338-0.451,0,0,0,0,0,0-0.186-.226-0.381-0.446-0.59-0.655s-0.409-.382-0.623-0.561c-0.012-.011-0.023-0.022-0.036-0.032-0.136-.112-0.28-0.212-0.422-0.315-0.114-.083-0.225-0.17-0.342-0.248s-0.211-.129-0.318-0.193c-0.168-.1-0.336-0.2-0.51-0.294-0.077-.04-0.155-0.075-0.233-0.113-0.21-.1-0.422-0.2-0.64-0.285-0.061-.024-0.122-0.044-0.183-0.067-0.234-.087-0.47-0.166-0.711-0.234C18.022,9.132,17.959,9.116,17.9,9.1c-0.233-.06-0.468-0.113-0.707-0.154C17.1,8.93,17.011,8.919,16.922,8.905,16.714,8.875,16.5,8.85,16.29,8.834c-0.127-.01-0.254-0.014-0.382-0.019-0.1,0-.2-0.017-0.309-0.017-0.074,0-.146.009-0.22,0.011s-0.137-.005-0.2,0l-0.316.019-0.008.009A9.2,9.2,0,0,0,15.6,27.2Zm5.529-4-4-4H23.1A7.565,7.565,0,0,1,21.129,23.2Zm-4.89-12.765c0.083,0.006.166,0.014,0.249,0.024,0.181,0.021.361,0.049,0.538,0.082l0.161,0.03c0.218,0.047.433,0.1,0.643,0.166,0.013,0,.026.007,0.039,0.011a7.633,7.633,0,0,1,4.986,4.986c0,0.012.007,0.026,0.011,0.039,0.065,0.211.119,0.425,0.166,0.643,0.011,0.054.02,0.108,0.03,0.161,0.034,0.178.061,0.357,0.082,0.538,0.01,0.082.017,0.166,0.024,0.249s0.008,0.159.012,0.238H16v-7.18C16.079,10.423,16.159,10.424,16.238,10.431ZM14.4,10.5v7.891s0,0.007,0,.011L14.43,19.2h0.439l5.048,5.048A7.594,7.594,0,1,1,14.4,10.5Zm16.8,4.7h6.4a0.8,0.8,0,1,0,0-1.6H31.2A0.8,0.8,0,1,0,31.2,15.2Zm9.832-1.368a0.8,0.8,0,1,0,1.136,0A0.838,0.838,0,0,0,41.032,13.83ZM39.2,11.2h2.4a0.8,0.8,0,1,0,0-1.6H39.2A0.8,0.8,0,1,0,39.2,11.2Zm-8,0h1.6a0.8,0.8,0,1,0,0-1.6H31.2A0.8,0.8,0,1,0,31.2,11.2Zm4.8,0a0.792,0.792,0,0,0,.8-0.8,0.825,0.825,0,0,0-.232-0.569A0.8,0.8,0,1,0,36,11.2Z"/>
</svg>
