<svg xmlns="http://www.w3.org/2000/svg" width="54" height="45" viewBox="0 0 54 45">
  <defs>
    <style>
      .cls-1 {
        fill: #046ea2;
        fill-rule: evenodd;
      }
    </style>
  </defs>
  <path id="Forma_1" data-name="Forma 1" class="cls-1" d="M36.109,25.9H17.733a4.129,4.129,0,0,0-4.124,4.124V40.044a4.129,4.129,0,0,0,4.124,4.124H36.109a4.129,4.129,0,0,0,4.124-4.124V30.019A4.129,4.129,0,0,0,36.109,25.9Zm2.558,14.148A2.561,2.561,0,0,1,36.109,42.6H17.733a2.561,2.561,0,0,1-2.558-2.558V30.019a2.561,2.561,0,0,1,2.558-2.558H36.109a2.561,2.561,0,0,1,2.558,2.558V40.044ZM23.3,30.3a0.785,0.785,0,0,0-1.108,0l-4.177,4.176a0.784,0.784,0,0,0,0,1.108l4.177,4.176A0.783,0.783,0,1,0,23.3,38.655l-3.623-3.623L23.3,31.409A0.783,0.783,0,0,0,23.3,30.3Zm8.353,0a0.783,0.783,0,0,0-1.107,1.108l3.623,3.623-3.623,3.623a0.783,0.783,0,1,0,1.107,1.107l4.177-4.176a0.784,0.784,0,0,0,0-1.108Zm-4.73,5.617a0.785,0.785,0,1,0,.553.23A0.79,0.79,0,0,0,26.921,35.918Zm2.506,0a0.785,0.785,0,1,0,.553.23A0.789,0.789,0,0,0,29.427,35.918Zm-5.012,0a0.785,0.785,0,1,0,.553.23A0.79,0.79,0,0,0,24.415,35.918ZM51.783,17.035a9.226,9.226,0,0,0-4.09-3.08A11.63,11.63,0,0,0,33.139,3.727,14.136,14.136,0,0,0,10.645,8.433,11.636,11.636,0,0,0,10.991,31.6a0.783,0.783,0,0,0,.119-1.562,10.069,10.069,0,0,1,.123-20.089,0.782,0.782,0,0,0,.677-0.489,12.568,12.568,0,0,1,20.467-4.3,0.785,0.785,0,0,0,.777.189,10.066,10.066,0,0,1,13.009,9.206,0.783,0.783,0,0,0,.55.715A7.571,7.571,0,0,1,45.22,30.033a0.826,0.826,0,0,0-.177.039H42.792a0.783,0.783,0,1,0,0,1.566H45.3a0.786,0.786,0,0,0,.336-0.075A9.137,9.137,0,0,0,51.783,17.035ZM6.82,14.4a0.783,0.783,0,0,0-1.106.059,8.255,8.255,0,0,0-.721,10.146,0.783,0.783,0,1,0,1.3-.873,6.69,6.69,0,0,1,.585-8.226A0.783,0.783,0,0,0,6.82,14.4ZM28.968,6.646a0.783,0.783,0,0,0,.917-1.27A10.7,10.7,0,0,0,23.58,3.342a0.783,0.783,0,0,0,0,1.567A9.141,9.141,0,0,1,28.968,6.646Zm-18,5.112a8.27,8.27,0,0,0-1.846.422,0.783,0.783,0,0,0,.523,1.477,6.7,6.7,0,0,1,1.5-.342A0.783,0.783,0,1,0,10.964,11.759ZM37.607,8.416a0.792,0.792,0,0,0,.174.019,0.783,0.783,0,0,0,.172-1.546,8.327,8.327,0,0,0-1.844-.206,0.783,0.783,0,0,0,0,1.567A6.784,6.784,0,0,1,37.607,8.416Zm7.3,9.7a0.791,0.791,0,0,0,.385.1,0.783,0.783,0,0,0,.387-1.464,2.542,2.542,0,0,1-1.294-2.118,8.306,8.306,0,0,0-3.057-6.1,0.783,0.783,0,0,0-.987,1.216A6.741,6.741,0,0,1,42.824,14.7,4.1,4.1,0,0,0,44.911,18.113Z"/>
</svg>
