<svg xmlns="http://www.w3.org/2000/svg" width="46" height="54" viewBox="0 0 46 54">
  <defs>
    <style>
      .cls-1 {
        fill: #046ea2;
        fill-rule: evenodd;
      }
    </style>
  </defs>
  <path id="Deyat2" class="cls-1" d="M20.084,47.315H5.048A2.561,2.561,0,0,1,2.49,44.757V4.661A2.561,2.561,0,0,1,5.048,2.1H27.654V6.332a4.129,4.129,0,0,0,4.124,4.125h4.229V26.38a0.783,0.783,0,1,0,1.566,0V9.673c0-.026,0-0.052,0-0.079s-0.005-.037-0.008-0.056,0-.013,0-0.019c0-.023-0.01-0.044-0.016-0.065,0,0,0-.007,0-0.009-0.007-.022-0.014-0.043-0.023-0.064l0-.008c-0.008-.02-0.017-0.039-0.027-0.058L37.481,9.3c-0.009-.017-0.02-0.034-0.03-0.05l-0.009-.015c-0.011-.016-0.022-0.031-0.034-0.046L37.4,9.176c-0.016-.019-0.033-0.039-0.052-0.057L28.991,0.768A0.567,0.567,0,0,0,28.934.716L28.918,0.7C28.9,0.692,28.888.68,28.873,0.67l-0.015-.009C28.841,0.65,28.824.64,28.807,0.63L28.8,0.624,28.738,0.6l-0.009,0A0.66,0.66,0,0,0,28.666.572l-0.01,0c-0.021-.006-0.043-0.012-0.065-0.016l-0.02,0-0.056-.008c-0.026,0-.052,0-0.078,0H5.048A4.129,4.129,0,0,0,.924,4.661v40.1a4.129,4.129,0,0,0,4.124,4.125H20.084A0.783,0.783,0,0,0,20.084,47.315ZM29.22,6.332V3.211l5.68,5.68H31.778A2.561,2.561,0,0,1,29.22,6.332Zm4.229,28.453a6.63,6.63,0,1,0,6.63,6.63A6.638,6.638,0,0,0,33.449,34.785Zm0,11.694a5.064,5.064,0,1,1,5.064-5.063A5.069,5.069,0,0,1,33.449,46.479ZM44.5,44L44,43.711a10.5,10.5,0,0,0,0-4.59l0.5-.286a1.618,1.618,0,0,0,.592-2.211L43.42,33.73a1.619,1.619,0,0,0-2.211-.592l-0.493.284a10.788,10.788,0,0,0-3.978-2.29V30.556a1.62,1.62,0,0,0-1.618-1.618H31.778a1.62,1.62,0,0,0-1.618,1.618v0.575a10.793,10.793,0,0,0-3.978,2.29l-0.493-.284a1.619,1.619,0,0,0-2.211.592l-1.671,2.894a1.618,1.618,0,0,0,.592,2.211l0.5,0.286a10.492,10.492,0,0,0,0,4.59L22.4,44a1.618,1.618,0,0,0-.593,2.21L23.479,49.1a1.62,1.62,0,0,0,2.211.592l0.493-.284A10.8,10.8,0,0,0,30.16,51.7v0.574a1.62,1.62,0,0,0,1.618,1.618H35.12a1.62,1.62,0,0,0,1.618-1.618V51.7a10.8,10.8,0,0,0,3.978-2.291l0.493,0.284a1.62,1.62,0,0,0,2.211-.592l1.671-2.894A1.618,1.618,0,0,0,44.5,44Zm-2.153-5.05a9.024,9.024,0,0,1,0,4.938,0.783,0.783,0,0,0,.363.888l1.006,0.581h0a0.052,0.052,0,0,1,.019.071l-1.671,2.894a0.052,0.052,0,0,1-.071.019l-1-.58a0.784,0.784,0,0,0-.95.13,9.225,9.225,0,0,1-4.28,2.465,0.783,0.783,0,0,0-.588.758v1.164a0.052,0.052,0,0,1-.052.053H31.778a0.052,0.052,0,0,1-.052-0.053V51.11a0.782,0.782,0,0,0-.587-0.758,9.225,9.225,0,0,1-4.28-2.465,0.782,0.782,0,0,0-.95-0.13l-1,.579a0.052,0.052,0,0,1-.071-0.019l-1.671-2.894a0.052,0.052,0,0,1-.005-0.04,0.048,0.048,0,0,1,.024-0.031l1.006-.581a0.784,0.784,0,0,0,.363-0.888,9.021,9.021,0,0,1,0-4.938,0.783,0.783,0,0,0-.363-0.887l-1.006-.581a0.052,0.052,0,0,1-.024-0.032,0.051,0.051,0,0,1,.005-0.04l1.671-2.893a0.052,0.052,0,0,1,.071-0.02l1,0.579a0.783,0.783,0,0,0,.95-0.129,9.234,9.234,0,0,1,4.28-2.465,0.782,0.782,0,0,0,.587-0.758V30.556a0.053,0.053,0,0,1,.052-0.052H35.12a0.052,0.052,0,0,1,.052.052V31.72a0.782,0.782,0,0,0,.587.758,9.232,9.232,0,0,1,4.28,2.465,0.783,0.783,0,0,0,.95.129l1-.579a0.052,0.052,0,0,1,.071.019l1.671,2.894a0.05,0.05,0,0,1,.005.04,0.055,0.055,0,0,1-.024.032l-1.006.581A0.783,0.783,0,0,0,42.345,38.946ZM6.719,15.469H8.39a0.784,0.784,0,0,0,0-1.567H6.719A0.784,0.784,0,0,0,6.719,15.469Zm5.012,0H13.4a0.784,0.784,0,0,0,0-1.567H11.731A0.784,0.784,0,0,0,11.731,15.469ZM25.1,13.9H16.743a0.784,0.784,0,0,0,0,1.567H25.1A0.784,0.784,0,0,0,25.1,13.9Zm-5.9,4.96a0.783,0.783,0,0,0-.783-0.783H11.731a0.783,0.783,0,0,0,0,1.566h6.682A0.784,0.784,0,0,0,19.2,18.862Zm1.775,0a0.784,0.784,0,0,0,.783.783H27.6a0.783,0.783,0,1,0,0-1.566H21.755A0.783,0.783,0,0,0,20.972,18.862Zm-14.252.783H8.39a0.783,0.783,0,1,0,0-1.566H6.719A0.783,0.783,0,1,0,6.719,19.645Zm0,4.176H8.39a0.783,0.783,0,1,0,0-1.566H6.719A0.783,0.783,0,1,0,6.719,23.822Zm10.859,0h14.2a0.783,0.783,0,1,0,0-1.566h-14.2A0.783,0.783,0,0,0,17.578,23.822Zm-5.847-1.566a0.783,0.783,0,0,0,0,1.566h2.506a0.783,0.783,0,0,0,0-1.566H11.731Zm9.189,4.177H11.731a0.783,0.783,0,0,0,0,1.566h9.189A0.783,0.783,0,1,0,20.919,26.432ZM10.9,34.681h3.341a0.783,0.783,0,0,0,0-1.566H10.9A0.783,0.783,0,1,0,10.9,34.681ZM6.719,28H8.39a0.783,0.783,0,1,0,0-1.566H6.719A0.783,0.783,0,1,0,6.719,28ZM6.165,34.451a0.782,0.782,0,0,0,1.107,0l1.671-1.67a0.783,0.783,0,0,0,0-1.107L7.273,30A0.783,0.783,0,0,0,6.165,31.11l1.117,1.117L6.165,33.344A0.783,0.783,0,0,0,6.165,34.451Z"/>
</svg>
