<svg xmlns="http://www.w3.org/2000/svg" width="55" height="43" viewBox="0 0 55 43">
  <defs>
    <style>
      .cls-1 {
        fill: #046ea2;
        fill-rule: evenodd;
      }
    </style>
  </defs>
  <path id="Deyat4" class="cls-1" d="M51.869,0.452H3.371A2.459,2.459,0,0,0,.914,2.908V34.683a2.459,2.459,0,0,0,2.456,2.456h16.52l-1.224,4.285H15.077a0.784,0.784,0,1,0,0,1.568H40.163a0.784,0.784,0,0,0,0-1.568h-3.59l-1.224-4.285H51.869a2.459,2.459,0,0,0,2.456-2.456V2.908A2.459,2.459,0,0,0,51.869.452ZM34.943,41.424H20.3l1.224-4.285h12.2Zm17.815-6.741a0.89,0.89,0,0,1-.888.889H3.371a0.89,0.89,0,0,1-.889-0.889V2.908A0.889,0.889,0,0,1,3.371,2.02h48.5a0.889,0.889,0,0,1,.888.888V34.683ZM50.2,3.8H5.043a0.784,0.784,0,0,0-.784.784V33.011a0.784,0.784,0,0,0,.784.783H50.2a0.784,0.784,0,0,0,.784-0.783V4.58A0.784,0.784,0,0,0,50.2,3.8ZM49.413,5.364v5.122H5.827V5.364H49.413ZM5.827,12.054H16.8V32.226H5.827V12.054ZM18.37,32.226V12.054H49.413V32.226H18.37ZM8.388,8.709H10.9a0.784,0.784,0,1,0,0-1.568H8.388A0.784,0.784,0,1,0,8.388,8.709Zm5.853,0H16.75a0.784,0.784,0,1,0,0-1.568H14.241A0.784,0.784,0,1,0,14.241,8.709Zm5.854,0H22.6a0.784,0.784,0,1,0,0-1.568H20.095A0.784,0.784,0,1,0,20.095,8.709Zm5.853,0h2.508a0.784,0.784,0,1,0,0-1.568H25.948A0.784,0.784,0,1,0,25.948,8.709Zm5.853,0h8.362a0.784,0.784,0,1,0,0-1.568H31.8A0.784,0.784,0,1,0,31.8,8.709Zm15.051,0A0.784,0.784,0,1,0,46.3,8.479,0.789,0.789,0,0,0,46.852,8.709Zm-3.345,0a0.784,0.784,0,1,0-.554-0.229A0.788,0.788,0,0,0,43.508,8.709ZM8.388,15.4h5.853a0.784,0.784,0,1,0,0-1.568H8.388A0.784,0.784,0,1,0,8.388,15.4Zm12.543,0h5.853a0.784,0.784,0,1,0,0-1.568H20.931A0.784,0.784,0,1,0,20.931,15.4Zm9.2,0h3.345a0.784,0.784,0,1,0,0-1.568H30.129A0.784,0.784,0,1,0,30.129,15.4Zm-9.2,3.344h5.853a0.784,0.784,0,1,0,0-1.567H20.931A0.784,0.784,0,1,0,20.931,18.743ZM37.654,20.52H23.439a0.784,0.784,0,0,0,0,1.568H37.654A0.784,0.784,0,0,0,37.654,20.52Zm5.853,0H41a0.784,0.784,0,0,0,0,1.568h2.509A0.784,0.784,0,0,0,43.508,20.52ZM33.473,27.21H30.129a0.784,0.784,0,0,0,0,1.568h3.345A0.784,0.784,0,0,0,33.473,27.21Zm-3.345-8.467h3.345a0.784,0.784,0,1,0,0-1.567H30.129A0.784,0.784,0,1,0,30.129,18.743Zm-3.345,5.122H20.931a0.784,0.784,0,1,0,0,1.568h5.853A0.784,0.784,0,1,0,26.784,23.865Zm6.689,0H30.129a0.784,0.784,0,1,0,0,1.568h3.345A0.784,0.784,0,0,0,33.473,23.865Zm-19.232,0H8.388a0.784,0.784,0,1,0,0,1.568h5.853A0.784,0.784,0,1,0,14.241,23.865Zm0-6.689H10.9a0.784,0.784,0,1,0,0,1.567h3.345A0.784,0.784,0,1,0,14.241,17.175Zm0,3.345H10.9a0.784,0.784,0,0,0,0,1.568h3.345A0.784,0.784,0,0,0,14.241,20.52Zm0,6.689H10.9a0.784,0.784,0,0,0,0,1.568h3.345A0.784,0.784,0,0,0,14.241,27.21Z"/>
</svg>
