<svg xmlns="http://www.w3.org/2000/svg" width="31" height="54" viewBox="0 0 31 54">
  <defs>
    <style>
      .cls-1 {
        fill: #046ea2;
        fill-rule: evenodd;
      }
    </style>
  </defs>
  <path id="Deyat7" class="cls-1" d="M26.59,0.186H4.872A4.129,4.129,0,0,0,.748,4.312V49.418a4.129,4.129,0,0,0,4.124,4.124H26.59a4.129,4.129,0,0,0,4.124-4.124V4.312A4.129,4.129,0,0,0,26.59.186ZM2.314,8.435H29.148v5.116H2.314V8.435Zm0,6.683H29.148V45.294H2.314V15.118ZM4.872,1.753H26.59a2.561,2.561,0,0,1,2.558,2.559V6.869H2.314V4.312A2.561,2.561,0,0,1,4.872,1.753ZM26.59,51.976H4.872a2.561,2.561,0,0,1-2.558-2.558V46.859H29.148v2.559A2.561,2.561,0,0,1,26.59,51.976ZM13.225,5.094h5.012a0.783,0.783,0,0,0,0-1.566H13.225A0.783,0.783,0,0,0,13.225,5.094ZM17.4,48.634H14.061a0.783,0.783,0,0,0,0,1.567H17.4A0.783,0.783,0,0,0,17.4,48.634ZM9.884,5.094a0.783,0.783,0,1,0-.553-0.229A0.787,0.787,0,0,0,9.884,5.094ZM6.824,32.43a0.783,0.783,0,0,0,1.107,0l5.847-5.847a0.784,0.784,0,0,0,0-1.108L7.932,19.628a0.783,0.783,0,0,0-1.107,1.107l5.293,5.293L6.824,31.323A0.783,0.783,0,0,0,6.824,32.43ZM14.9,32.659h8.353a0.783,0.783,0,0,0,0-1.567H14.9A0.783,0.783,0,1,0,14.9,32.659ZM9.049,36.94H5.707a1.62,1.62,0,0,0-1.618,1.619V41.9a1.62,1.62,0,0,0,1.618,1.618H9.049A1.62,1.62,0,0,0,10.667,41.9V38.559A1.62,1.62,0,0,0,9.049,36.94ZM9.1,41.9a0.052,0.052,0,0,1-.052.052H5.707A0.052,0.052,0,0,1,5.655,41.9V38.559a0.053,0.053,0,0,1,.052-0.053H9.049a0.053,0.053,0,0,1,.052.053V41.9Zm8.3-4.96H14.061a1.62,1.62,0,0,0-1.618,1.619V41.9a1.62,1.62,0,0,0,1.618,1.618H17.4A1.62,1.62,0,0,0,19.02,41.9V38.559A1.62,1.62,0,0,0,17.4,36.94Zm0.052,4.96a0.052,0.052,0,0,1-.052.052H14.061a0.052,0.052,0,0,1-.052-0.052V38.559a0.053,0.053,0,0,1,.052-0.053H17.4a0.053,0.053,0,0,1,.052.053V41.9Zm8.3-4.96H22.414A1.62,1.62,0,0,0,20.8,38.559V41.9a1.62,1.62,0,0,0,1.618,1.618h3.341A1.62,1.62,0,0,0,27.373,41.9V38.559A1.62,1.62,0,0,0,25.755,36.94Zm0.052,4.96a0.052,0.052,0,0,1-.052.052H22.414a0.052,0.052,0,0,1-.052-0.052V38.559a0.053,0.053,0,0,1,.052-0.053h3.341a0.053,0.053,0,0,1,.052.053V41.9ZM5.707,10.211H4.872a0.783,0.783,0,1,0,0,1.566H5.707A0.783,0.783,0,1,0,5.707,10.211Zm20.883,0H25.755a0.783,0.783,0,1,0,0,1.566H26.59A0.783,0.783,0,1,0,26.59,10.211Zm-4.281,0H9.049a0.783,0.783,0,1,0,0,1.566H22.309A0.783,0.783,0,1,0,22.309,10.211Z"/>
</svg>
