<svg xmlns="http://www.w3.org/2000/svg" width="74" height="89" viewBox="0 0 74 89">
  <defs>
    <style>
      .cls-1 {
        fill: #ffffff;
        fill-rule: evenodd;
      }
    </style>
  </defs>
  <path id="Document_Settings" data-name="Document Settings" class="cls-1" d="M31.98,78.134H7.139a4.231,4.231,0,0,1-4.226-4.226V7.668A4.231,4.231,0,0,1,7.139,3.442H44.486v6.986A6.822,6.822,0,0,0,51.3,17.242h6.986V43.548a1.294,1.294,0,1,0,2.587,0v-27.6c0-.043,0-0.086-0.007-0.13s-0.008-.061-0.014-0.092c0-.011,0-0.022-0.005-0.033-0.007-.037-0.017-0.072-0.027-0.107l0-.016c-0.011-.036-0.024-0.071-0.038-0.105,0,0,0-.009-0.005-0.014-0.014-.032-0.029-0.064-0.045-0.095l-0.009-.02c-0.015-.028-0.032-0.056-0.05-0.083l-0.015-.025c-0.017-.026-0.037-0.051-0.056-0.075l-0.02-.027c-0.027-.032-0.055-0.064-0.085-0.094l-13.8-13.8A1.224,1.224,0,0,0,46.6,1.148l-0.026-.02C46.55,1.109,46.525,1.09,46.5,1.073l-0.025-.016c-0.027-.018-0.055-0.034-0.084-0.05L46.371,1c-0.031-.016-0.063-0.031-0.1-0.045l-0.014,0a1,1,0,0,0-.1-0.037l-0.016,0A1.082,1.082,0,0,0,46.034.879L46,0.874c-0.031-.005-0.061-0.01-0.093-0.013S45.823,0.854,45.78.854H7.139A6.821,6.821,0,0,0,.326,7.668v66.24a6.822,6.822,0,0,0,6.814,6.814H31.98A1.294,1.294,0,0,0,31.98,78.134ZM47.073,10.428V5.271l9.383,9.383H51.3A4.231,4.231,0,0,1,47.073,10.428ZM54.06,57.435A10.954,10.954,0,1,0,65.013,68.388,10.966,10.966,0,0,0,54.06,57.435Zm0,19.32a8.366,8.366,0,1,1,8.366-8.367A8.376,8.376,0,0,1,54.06,76.755Zm18.253-4.1-0.819-.473a17.332,17.332,0,0,0,0-7.582l0.819-.473a2.674,2.674,0,0,0,.979-3.653l-2.76-4.78a2.672,2.672,0,0,0-3.653-.979l-0.814.47A17.827,17.827,0,0,0,59.493,51.4v-0.95a2.677,2.677,0,0,0-2.674-2.673H51.3a2.677,2.677,0,0,0-2.674,2.673V51.4a17.821,17.821,0,0,0-6.572,3.784l-0.814-.47a2.673,2.673,0,0,0-3.652.979l-2.76,4.78a2.674,2.674,0,0,0,.979,3.653L36.625,64.6a17.333,17.333,0,0,0,0,7.582l-0.819.473a2.674,2.674,0,0,0-.979,3.653l2.76,4.78a2.677,2.677,0,0,0,3.652.978l0.814-.47a17.834,17.834,0,0,0,6.572,3.785v0.949A2.677,2.677,0,0,0,51.3,89h5.52a2.677,2.677,0,0,0,2.674-2.674V85.378a17.836,17.836,0,0,0,6.572-3.785l0.814,0.47a2.677,2.677,0,0,0,3.652-.979l2.76-4.78A2.674,2.674,0,0,0,72.313,72.652Zm-3.556-8.343a14.9,14.9,0,0,1,0,8.159,1.293,1.293,0,0,0,.6,1.466l1.663,0.96h0a0.086,0.086,0,0,1,.032.118l-2.76,4.781a0.086,0.086,0,0,1-.118.031l-1.656-.956a1.293,1.293,0,0,0-1.57.215,15.245,15.245,0,0,1-7.07,4.072,1.293,1.293,0,0,0-.971,1.253v1.923a0.086,0.086,0,0,1-.086.087H51.3a0.086,0.086,0,0,1-.086-0.087V84.405a1.293,1.293,0,0,0-.971-1.252,15.24,15.24,0,0,1-7.07-4.072,1.294,1.294,0,0,0-1.57-.214l-1.656.956a0.086,0.086,0,0,1-.118-0.031l-2.76-4.781a0.08,0.08,0,0,1-.009-0.065,0.085,0.085,0,0,1,.04-0.052l1.663-.96a1.294,1.294,0,0,0,.6-1.466,14.9,14.9,0,0,1,0-8.159,1.294,1.294,0,0,0-.6-1.466l-1.663-.96a0.083,0.083,0,0,1-.04-0.053,0.08,0.08,0,0,1,.009-0.065l2.76-4.781a0.087,0.087,0,0,1,.118-0.031L41.6,57.909a1.294,1.294,0,0,0,1.57-.214,15.24,15.24,0,0,1,7.07-4.072,1.294,1.294,0,0,0,.971-1.253V50.448a0.086,0.086,0,0,1,.086-0.086h5.52a0.086,0.086,0,0,1,.086.086V52.37a1.294,1.294,0,0,0,.971,1.253,15.241,15.241,0,0,1,7.07,4.072,1.294,1.294,0,0,0,1.57.213l1.656-.956a0.086,0.086,0,0,1,.118.032l2.76,4.781a0.083,0.083,0,0,1,.009.065,0.085,0.085,0,0,1-.04.053l-1.663.96A1.294,1.294,0,0,0,68.757,64.309ZM9.9,25.522h2.76a1.294,1.294,0,0,0,0-2.588H9.9A1.294,1.294,0,0,0,9.9,25.522Zm8.28,0h2.76a1.294,1.294,0,0,0,0-2.588h-2.76A1.294,1.294,0,0,0,18.179,25.522Zm22.08-2.588h-13.8a1.294,1.294,0,0,0,0,2.588h13.8A1.294,1.294,0,0,0,40.26,22.934Zm-9.746,8.194a1.294,1.294,0,0,0-1.294-1.293H18.179a1.294,1.294,0,1,0,0,2.587H29.22A1.294,1.294,0,0,0,30.513,31.128Zm2.932,0a1.294,1.294,0,0,0,1.294,1.294H44.4a1.294,1.294,0,1,0,0-2.587h-9.66A1.294,1.294,0,0,0,33.446,31.128ZM9.9,32.422h2.76a1.294,1.294,0,1,0,0-2.587H9.9A1.294,1.294,0,1,0,9.9,32.422Zm0,6.9h2.76a1.294,1.294,0,1,0,0-2.587H9.9A1.294,1.294,0,1,0,9.9,39.322Zm17.94,0H51.3a1.294,1.294,0,1,0,0-2.587H27.84A1.294,1.294,0,1,0,27.84,39.322Zm-9.66-2.587a1.294,1.294,0,1,0,0,2.587h4.14a1.294,1.294,0,1,0,0-2.587h-4.14Zm15.18,6.9H18.179a1.294,1.294,0,1,0,0,2.587H33.36A1.294,1.294,0,1,0,33.36,43.634ZM16.8,57.262h5.52a1.294,1.294,0,0,0,0-2.588H16.8A1.294,1.294,0,0,0,16.8,57.262ZM9.9,46.221h2.76a1.294,1.294,0,1,0,0-2.587H9.9A1.294,1.294,0,1,0,9.9,46.221ZM8.985,56.883a1.293,1.293,0,0,0,1.83,0l2.76-2.76a1.293,1.293,0,0,0,0-1.829l-2.76-2.76a1.294,1.294,0,0,0-1.83,1.83l1.845,1.845L8.985,55.053A1.294,1.294,0,0,0,8.985,56.883Z"/>
</svg>
