<svg xmlns="http://www.w3.org/2000/svg" width="85" height="67" viewBox="0 0 85 67">
  <defs>
    <style>
      .cls-1 {
        fill-rule: evenodd;
      }
    </style>
  </defs>
  <path id="EMPLOYERS" class="cls-1" d="M26.545,27.528a20.424,20.424,0,0,0,4.616,12.837A14.775,14.775,0,0,0,42.5,46.133a14.74,14.74,0,0,0,11.326-5.766,20.437,20.437,0,0,0,4.6-12.831V23.466a55.057,55.057,0,0,0,1.429-12.312,26.881,26.881,0,0,0-.766-7.274,1.7,1.7,0,0,0-1.7-.9c-2.47.353-5.5-.255-8.707-0.9-5.2-1.044-11.069-2.221-15.56.893a1.143,1.143,0,0,0-.121-0.007A8.079,8.079,0,0,0,26.7,5.8a10.115,10.115,0,0,0-2.21,6.546c0,4.146,1.764,11.809,2.051,13.028v2.156h0ZM51.781,38.673a12.138,12.138,0,0,1-9.28,4.8,12.17,12.17,0,0,1-9.3-4.809,17.723,17.723,0,0,1-4-11.14V25.935c0-3.284,2.205-7.75,3.043-9.327,11.942-1.364,19.935,1.933,21.75,2.783l1.779,4.194v3.951A17.737,17.737,0,0,1,51.781,38.673ZM33.006,5.617a1.34,1.34,0,0,0,.28-0.03,1.324,1.324,0,0,0,1.08-.24c3.58-2.72,8.775-1.677,13.8-.668a40.278,40.278,0,0,0,7.65,1.056q0.5,0,.983-0.031a43.775,43.775,0,0,1-.177,13.079L56.245,17.9a1.331,1.331,0,0,0-.585-0.647c-0.381-.209-9.491-5.076-24.316-3.215a1.326,1.326,0,0,0-1.084.662,37.451,37.451,0,0,0-2.241,4.746,44.827,44.827,0,0,1-.87-7.1C27.15,7.7,30.091,5.617,33.006,5.617ZM65.37,49.074c-0.028-.008-0.057-0.015-0.086-0.021l-7.9-1.653-2.089-3.168c-0.015-.023-0.03-0.044-0.046-0.066A2.335,2.335,0,0,0,51.9,43.76l-0.025.021-9.394,8.088-9.394-8.088-0.025-.021a2.335,2.335,0,0,0-3.346.406c-0.016.022-.032,0.044-0.046,0.066L27.583,47.4l-7.9,1.653c-0.029.006-.058,0.013-0.086,0.021a10.1,10.1,0,0,0-5.652,4.119,11.406,11.406,0,0,0-1.981,6.362v2.5a4.178,4.178,0,0,0,4.348,3.973H68.655A4.178,4.178,0,0,0,73,62.051v-2.5a11.4,11.4,0,0,0-1.981-6.362A10.1,10.1,0,0,0,65.37,49.074ZM53.312,46.05l1.649,2.5-6.6,9.073-3.929-3.929Zm-11.7,14.673h1.742l0.529,2.645h-2.8Zm2.2-3.384a0.679,0.679,0,0,1-.443.727H41.6a0.679,0.679,0,0,1-.443-0.727V56.828L42.483,55.5l1.328,1.328v0.511h0ZM31.654,46.05l8.878,7.645L36.6,57.624l-6.6-9.073Zm-17.035,16v-2.5a8.247,8.247,0,0,1,5.652-7.912l7.55-1.58,7.548,10.38a1.329,1.329,0,0,0,.97.543c0.035,0,.069,0,0.1,0a1.329,1.329,0,0,0,.939-0.389l1.548-1.549a3.506,3.506,0,0,0,.232.372l-0.788,3.943H16.311A1.561,1.561,0,0,1,14.619,62.051Zm55.728,0a1.561,1.561,0,0,1-1.692,1.317H46.592L45.8,59.425a3.506,3.506,0,0,0,.232-0.372L47.584,60.6a1.329,1.329,0,0,0,.939.389c0.035,0,.069,0,0.1,0a1.331,1.331,0,0,0,.97-0.543l7.548-10.38,7.55,1.58a8.247,8.247,0,0,1,5.652,7.912v2.5h0ZM10.641,30.02a12.876,12.876,0,0,0,3.091,8.526,10.062,10.062,0,0,0,7.608,3.575,9.816,9.816,0,0,0,6.018-2.086,1.328,1.328,0,0,0-1.619-2.106,7.18,7.18,0,0,1-4.4,1.536c-4.435,0-8.043-4.238-8.043-9.445V29.238a21.9,21.9,0,0,1,1.323-6.19,31.1,31.1,0,0,1,7.515.431l0.237,0.035a1.3,1.3,0,0,0,.2.015,1.329,1.329,0,0,0,.192-2.643l-0.236-.035A31.615,31.615,0,0,0,13.5,20.5l-0.013,0h0l-0.014,0c-0.038.005-.076,0.011-0.113,0.02l-0.062.018-0.061.017-0.076.029c-0.014.006-.028,0.01-0.042,0.017s-0.051.024-.075,0.037-0.027.013-.04,0.02-0.044.027-.066,0.041l-0.044.029c-0.018.012-.036,0.027-0.053,0.041s-0.034.026-.05,0.04l-0.04.037-0.054.053-0.031.035c-0.018.021-.036,0.041-0.053,0.063l-0.028.039c-0.016.022-.031,0.043-0.046,0.066s-0.022.038-.033,0.057-0.021.035-.03,0.053c-0.018.035-.034,0.072-0.049,0.108l0,0.01v0l0,0.009c-0.023.059-.119,0.308-0.255,0.695a19.274,19.274,0,0,1-.176-2.277c0-2.871,1.385-4.155,2.758-4.155a1.33,1.33,0,0,0,.191-0.015,1.342,1.342,0,0,0,.19.015,1.325,1.325,0,0,0,.8-0.271c1.239-.941,2.838-1.257,5.184-1.027a1.328,1.328,0,1,0,.261-2.643A10.026,10.026,0,0,0,14.7,12.949c-3.164.025-5.37,2.818-5.37,6.81A54.349,54.349,0,0,0,10.641,28.6V30.02ZM9.286,54.075H3.375A0.667,0.667,0,0,1,2.646,53.6V51.9a5.186,5.186,0,0,1,3.527-4.974l4.835-1.012,2.5,3.6a1.328,1.328,0,1,0,2.183-1.513L13.2,44.417,13.936,43.3l5.179,3.867A1.328,1.328,0,1,0,20.7,45.042L15.02,40.8a2.012,2.012,0,0,0-2.856.373c-0.016.021-.031,0.043-0.046,0.066l-1.326,2.01-5.208,1.09c-0.029.006-.058,0.013-0.086,0.021A7.88,7.88,0,0,0-.009,51.9v1.7a3.268,3.268,0,0,0,3.384,3.129H9.286A1.328,1.328,0,0,0,9.286,54.075ZM62.375,12.9a46.181,46.181,0,0,1,6.2.726c1.577,0.255,3.088.5,4.4,0.582-0.046,3.145-.252,5.974-0.486,8.25l-0.008-.006c-0.021-.015-0.043-0.03-0.064-0.043l-0.029-.02-0.035-.02,0,0A21.879,21.879,0,0,0,62.5,19.547a1.328,1.328,0,0,0-.2,2.649,19.67,19.67,0,0,1,8.36,2.267,12.824,12.824,0,0,1,1.007,4.775V30.02c0,5.209-3.608,9.445-8.043,9.445a7.18,7.18,0,0,1-4.4-1.536,1.328,1.328,0,0,0-1.619,2.106,9.816,9.816,0,0,0,6.018,2.086,10.062,10.062,0,0,0,7.608-3.575,12.878,12.878,0,0,0,3.091-8.526V28.584a90.7,90.7,0,0,0,1.312-15.348,1.325,1.325,0,0,0-1.293-1.659l-0.034,0c-0.026,0-.051,0-0.076,0A29.362,29.362,0,0,1,69,11.007a48.82,48.82,0,0,0-6.569-.759A1.328,1.328,0,1,0,62.375,12.9ZM79.469,44.358l-0.086-.021-5.208-1.09-1.326-2.01c-0.015-.023-0.03-0.045-0.046-0.067a2.012,2.012,0,0,0-2.856-.374l-5.684,4.244a1.328,1.328,0,0,0,1.589,2.129L71.03,43.3l0.735,1.114-2.487,3.588a1.328,1.328,0,1,0,2.183,1.514l2.5-3.6,4.835,1.011A5.187,5.187,0,0,1,82.32,51.9v1.7a0.667,0.667,0,0,1-.728.473H75.68a1.328,1.328,0,1,0,0,2.656h5.911A3.267,3.267,0,0,0,84.976,53.6V51.9A7.88,7.88,0,0,0,79.469,44.358Z"/>
</svg>
