<svg xmlns="http://www.w3.org/2000/svg" width="8" height="15" viewBox="0 0 8 15">
  <defs>
    <style>
      .cls-1 {
        fill: #fff;
        fill-rule: evenodd;
      }
    </style>
  </defs>
  <path id="f" class="cls-1" d="M7.3,0.286l-1.806,0A3.237,3.237,0,0,0,2.154,3.843V5.484H0.339a0.29,0.29,0,0,0-.284.3V8.157a0.29,0.29,0,0,0,.284.3H2.154v6a0.289,0.289,0,0,0,.284.3H4.806a0.29,0.29,0,0,0,.284-0.3v-6H7.213a0.29,0.29,0,0,0,.284-0.3V5.779A0.3,0.3,0,0,0,7.414,5.57a0.28,0.28,0,0,0-.2-0.087H5.09V4.093a0.824,0.824,0,0,1,.992-1.008H7.3a0.29,0.29,0,0,0,.284-0.295V0.581A0.29,0.29,0,0,0,7.3.286Z"/>
</svg>
