<svg xmlns="http://www.w3.org/2000/svg" width="68" height="32" viewBox="0 0 68 32">
  <defs>
    <style>
      .cls-1 {
        fill-rule: evenodd;
      }
    </style>
  </defs>
  <path id="GRAPH" class="cls-1" d="M60.776,0a7.2,7.2,0,0,0-7.22,7.17,7.089,7.089,0,0,0,1.173,3.91l-7.8,7.746a7.241,7.241,0,0,0-8,.08l-7.88-7.827a7.089,7.089,0,0,0,1.172-3.91,7.22,7.22,0,0,0-14.439,0,7.09,7.09,0,0,0,1.172,3.909l-7.8,7.746a7.157,7.157,0,1,0,3.283,6.006,7.089,7.089,0,0,0-1.173-3.91l7.8-7.746a7.237,7.237,0,0,0,7.874,0l7.924,7.87a7.09,7.09,0,0,0-1.093,3.786,7.22,7.22,0,0,0,14.439,0,7.09,7.09,0,0,0-1.172-3.909l7.8-7.746A7.224,7.224,0,0,0,68,7.174,7.2,7.2,0,0,0,60.776,0ZM7.219,29.041a4.206,4.206,0,1,1,4.235-4.206A4.226,4.226,0,0,1,7.219,29.041ZM25,11.38a4.206,4.206,0,1,1,4.236-4.206A4.226,4.226,0,0,1,25,11.38ZM42.992,29.041a4.206,4.206,0,1,1,4.235-4.206A4.226,4.226,0,0,1,42.992,29.041ZM60.776,11.38a4.206,4.206,0,1,1,4.236-4.206A4.226,4.226,0,0,1,60.776,11.38Zm-37.3,6.829a1.5,1.5,0,0,0-2.11,0l-3.035,3.014a1.474,1.474,0,0,0,0,2.1,1.5,1.5,0,0,0,2.11,0L23.476,20.3A1.474,1.474,0,0,0,23.476,18.209ZM49.663,8.743a1.5,1.5,0,0,0-2.11,0l-3.035,3.014a1.475,1.475,0,0,0,0,2.1,1.5,1.5,0,0,0,2.11,0l3.035-3.014A1.475,1.475,0,0,0,49.663,8.743Z"/>
</svg>
