<svg xmlns="http://www.w3.org/2000/svg" width="13" height="17" viewBox="0 0 13 17">
  <defs>
    <style>
      .cls-1 {
        fill: #fff;
        fill-rule: evenodd;
      }
    </style>
  </defs>
  <path id="HOT" class="cls-1" d="M10.067,5.637A7.492,7.492,0,0,1,7.847.329,0.328,0.328,0,0,0,7.66.031,0.386,0.386,0,0,0,7.3.047,7.956,7.956,0,0,0,4.287,7.6a4.769,4.769,0,0,1-1.475-1.62c-0.136-.215-0.271-0.43-0.424-0.628A0.322,0.322,0,0,0,2.1,5.223a0.323,0.323,0,0,0-.271.149A8.9,8.9,0,0,0,.05,10.085a5.742,5.742,0,0,0,5.932,5.952,5.9,5.9,0,0,0,6.1-5.952A6.638,6.638,0,0,0,10.067,5.637Z"/>
</svg>
