<svg xmlns="http://www.w3.org/2000/svg" width="76" height="75" viewBox="0 0 76 75">
  <defs>
    <style>
      .cls-1 {
        fill: #fff;
        fill-rule: evenodd;
      }
    </style>
  </defs>
  <path id="Html" class="cls-1" d="M74.688,0.942H1.718A1.179,1.179,0,0,0,.539,2.121V73.769a1.179,1.179,0,0,0,1.18,1.178h72.97a1.179,1.179,0,0,0,1.18-1.178V2.121A1.179,1.179,0,0,0,74.688.942ZM73.509,72.591H2.9V18.383H73.509V72.591h0Zm0-56.564H2.9V3.3H73.509V16.026h0ZM63.365,5.971H49.526a1.178,1.178,0,1,0,0,2.357H63.365A1.178,1.178,0,1,0,63.365,5.971Zm6.29,0H67.14a1.178,1.178,0,1,0,0,2.357h2.516A1.178,1.178,0,1,0,69.656,5.971ZM39.461,4.714a4.949,4.949,0,1,0,4.954,4.949A4.957,4.957,0,0,0,39.461,4.714Zm0,7.542a2.593,2.593,0,1,1,2.595-2.592A2.6,2.6,0,0,1,39.461,12.255ZM25.622,4.714a4.949,4.949,0,1,0,4.954,4.949A4.957,4.957,0,0,0,25.622,4.714Zm0,7.542a2.593,2.593,0,1,1,2.595-2.592A2.6,2.6,0,0,1,25.622,12.255ZM11.783,4.714a4.949,4.949,0,1,0,4.954,4.949A4.957,4.957,0,0,0,11.783,4.714Zm0,7.542a2.593,2.593,0,1,1,2.6-2.592A2.6,2.6,0,0,1,11.783,12.255ZM25.659,35.186L15.567,44.738a1.178,1.178,0,0,0,.025,1.734L25.634,55.45a1.179,1.179,0,0,1,.093,1.664,1.182,1.182,0,0,1-1.666.093L12.109,46.522a1.178,1.178,0,0,1-.025-1.734L24.036,33.475a1.171,1.171,0,0,1,.81-0.323h0.033A1.178,1.178,0,0,1,25.659,35.186ZM64.3,46.522L52.345,57.207a1.177,1.177,0,0,1-.785.3h0a1.166,1.166,0,0,1-.88-0.392,1.179,1.179,0,0,1,.092-1.664l10.042-8.977a1.178,1.178,0,0,0,.025-1.734L50.747,35.186a1.179,1.179,0,0,1,1.622-1.711L64.321,44.788a1.182,1.182,0,0,1,.368.872h0A1.18,1.18,0,0,1,64.3,46.522ZM44.887,36.176L32.935,56.916a1.184,1.184,0,0,1-1.024.59,1.161,1.161,0,0,1-.586-0.157,1.179,1.179,0,0,1-.434-1.609L42.843,35A1.179,1.179,0,1,1,44.887,36.176Z"/>
</svg>
