<svg xmlns="http://www.w3.org/2000/svg" width="23" height="22" viewBox="0 0 23 22">
  <defs>
    <style>
      .cls-1 {
        fill: #0077b5;
        fill-rule: evenodd;
      }
    </style>
  </defs>
  <path id="in-button" class="cls-1" d="M3,0H20a3,3,0,0,1,3,3V19a3,3,0,0,1-3,3H3a3,3,0,0,1-3-3V3A3,3,0,0,1,3,0ZM5.179,8.537H8.188v9.449H5.179V8.537ZM18.064,9.4a3.171,3.171,0,0,0-2.508-1.082,3.466,3.466,0,0,0-1.044.148,2.328,2.328,0,0,0-.793.415,3.969,3.969,0,0,0-.515.5,4.068,4.068,0,0,0-.356.5V8.537h-3L9.857,8.995q0.009,0.458.009,2.822T9.848,17.986h3V12.713a2.4,2.4,0,0,1,.1-0.772,2.021,2.021,0,0,1,.579-0.815,1.435,1.435,0,0,1,.962-0.329,1.278,1.278,0,0,1,1.153.567,2.856,2.856,0,0,1,.37,1.569v5.053h3V12.57A4.676,4.676,0,0,0,18.064,9.4ZM6.7,3.989a1.673,1.673,0,0,0-1.226.463,1.57,1.57,0,0,0-.47,1.168A1.581,1.581,0,0,0,6.666,7.25H6.684A1.675,1.675,0,0,0,7.92,6.782,1.545,1.545,0,0,0,8.38,5.619,1.589,1.589,0,0,0,6.7,3.989ZM83-233"/>
</svg>
