<svg xmlns="http://www.w3.org/2000/svg" width="15" height="15" viewBox="0 0 15 15">
  <defs>
    <style>
      .cls-1 {
        fill: #fff;
        fill-rule: evenodd;
      }
    </style>
  </defs>
  <path id="in" class="cls-1" d="M0.713,4.845H3.769V14.61H0.713V4.845ZM13.8,5.737a3.2,3.2,0,0,0-2.547-1.118,3.465,3.465,0,0,0-1.061.153,2.351,2.351,0,0,0-.806.429,4.063,4.063,0,0,0-.523.512,4.2,4.2,0,0,0-.361.521V4.845H5.455L5.464,5.318q0.01,0.473.009,2.917T5.455,14.61H8.5V9.161a2.526,2.526,0,0,1,.1-0.8,2.088,2.088,0,0,1,.588-0.842,1.442,1.442,0,0,1,.977-0.34,1.291,1.291,0,0,1,1.172.586,2.993,2.993,0,0,1,.375,1.621V14.61h3.047v-5.6A4.89,4.89,0,0,0,13.8,5.737ZM2.26,0.145A1.683,1.683,0,0,0,1.015.623,1.637,1.637,0,0,0,.538,1.83,1.669,1.669,0,0,0,1,3.032a1.615,1.615,0,0,0,1.222.483H2.241A1.685,1.685,0,0,0,3.5,3.032a1.611,1.611,0,0,0,.468-1.2A1.7,1.7,0,0,0,3.492.623,1.636,1.636,0,0,0,2.26.145Z"/>
</svg>
