<svg xmlns="http://www.w3.org/2000/svg" width="13" height="15" viewBox="0 0 13 15">
  <defs>
    <style>
      .cls-1 {
        fill: #fff;
        fill-rule: evenodd;
      }
    </style>
  </defs>
  <path id="link" class="cls-1" d="M12.172,5.127L9.339,8.278a1.514,1.514,0,0,1-2.3,0L6.928,8.155l-0.3.335L6.737,8.613a1.958,1.958,0,0,1,0,2.559L3.9,14.323a1.514,1.514,0,0,1-2.3,0L0.532,13.132a1.959,1.959,0,0,1,0-2.559L3.365,7.422a1.514,1.514,0,0,1,2.3,0L5.777,7.545l0.3-.336-0.11-.123a1.958,1.958,0,0,1,0-2.559L8.8,1.377a1.514,1.514,0,0,1,2.3,0l1.071,1.192A1.958,1.958,0,0,1,12.172,5.127Zm-6.4,4.308-0.548.609L4.379,9.1,4.927,8.49,4.816,8.367a0.4,0.4,0,0,0-.6,0L1.382,11.518a0.511,0.511,0,0,0,0,.668l1.071,1.192a0.4,0.4,0,0,0,.6,0l2.833-3.151a0.512,0.512,0,0,0,0-.669Zm4.476-7.113a0.4,0.4,0,0,0-.6,0L6.817,5.473a0.512,0.512,0,0,0,0,.669L6.928,6.264l0.84-.935,0.85,0.945-0.84.935L7.888,7.333a0.4,0.4,0,0,0,.6,0l2.833-3.151a0.512,0.512,0,0,0,0-.669Z"/>
</svg>
