<svg xmlns="http://www.w3.org/2000/svg" width="44" height="51" viewBox="0 0 44 51">
  <defs>
    <style>
      .cls-1 {
        fill-rule: evenodd;
      }
    </style>
  </defs>
  <path id="SHIELD" class="cls-1" d="M27.158,20.349l-7.643,7.587-2.673-2.689a1.276,1.276,0,0,0-1.806,1.8l3.571,3.585a1.275,1.275,0,0,0,1.806,0l8.552-8.483a1.269,1.269,0,0,0,0-1.8A1.284,1.284,0,0,0,27.158,20.349ZM44,29.041V9.907a1.287,1.287,0,0,0-.783-1.178L22.491,0.1a1.238,1.238,0,0,0-.982,0L0.783,8.729A1.271,1.271,0,0,0,0,9.907V29.041A22,22,0,0,0,44,29.041ZM22,48.447A19.442,19.442,0,0,1,2.558,29.041V10.762L22,2.664l19.442,8.1v18.28A19.448,19.448,0,0,1,22,48.447Z"/>
</svg>
