<svg xmlns="http://www.w3.org/2000/svg" width="73" height="66" viewBox="0 0 73 66">
  <defs>
    <style>
      .cls-1 {
        fill-rule: evenodd;
      }
    </style>
  </defs>
  <path id="STUDY" class="cls-1" d="M50.994,58.965a1.181,1.181,0,0,0-1.435.857l-1.184,4.715a1.177,1.177,0,0,0,.862,1.43,1.153,1.153,0,0,0,.288.035,1.183,1.183,0,0,0,1.147-.892l1.184-4.715A1.179,1.179,0,0,0,50.994,58.965ZM36.5,35.356a1.17,1.17,0,0,0,.452-0.09L49.976,29.9a1.177,1.177,0,0,0,.64-1.54,1.189,1.189,0,0,0-1.547-.639L36.5,32.9,3.348,19.246V18.855a1.184,1.184,0,0,0-2.368,0v1.179a1.177,1.177,0,0,0,.732,1.089L36.048,35.267A1.169,1.169,0,0,0,36.5,35.356ZM50.585,47.432A1.185,1.185,0,0,0,49,46.9a27.7,27.7,0,0,1-11.315,2.57V38.892a1.184,1.184,0,0,0-2.368,0V49.456c-14.7-.467-19.445-9.333-20.128-10.809V30.641a1.184,1.184,0,0,0-2.368,0v8.251a1.182,1.182,0,0,0,.084.438c0.206,0.511,5.245,12.527,23.6,12.527A30.546,30.546,0,0,0,50.048,49.01,1.174,1.174,0,0,0,50.585,47.432ZM54.26,60.109a1.181,1.181,0,0,0-1.184,1.179v3.535a1.184,1.184,0,0,0,2.368,0V61.288A1.181,1.181,0,0,0,54.26,60.109ZM70.835,17.676a1.181,1.181,0,0,0-1.184,1.179v0.389L55.444,25.066v-2.13l15.844-6.528a1.176,1.176,0,0,0,0-2.178L36.952,0.085a1.187,1.187,0,0,0-.9,0L1.712,14.229a1.176,1.176,0,0,0,0,2.178L36.048,30.551a1.183,1.183,0,0,0,.9,0l12.415-5.114a1.175,1.175,0,0,0,.642-1.539,1.187,1.187,0,0,0-1.546-.638L36.5,28.187,5.26,15.318,36.5,2.449l31.24,12.87-13.593,5.6-13.02-4.839a2.8,2.8,0,0,0,.11-0.761c0-1.983-2.08-3.536-4.736-3.536s-4.736,1.553-4.736,3.536,2.08,3.536,4.736,3.536a5.74,5.74,0,0,0,3.064-.841l13.511,5.022V52.075a3.552,3.552,0,1,0,2.368,0v-6.69a14.325,14.325,0,0,0,4.671-6.107,1.187,1.187,0,0,0,.065-0.385V30.642a1.184,1.184,0,0,0-2.368,0v8.033a12.065,12.065,0,0,1-2.368,3.561V27.615l15.843-6.491a1.18,1.18,0,0,0,.733-1.091V18.855A1.181,1.181,0,0,0,70.835,17.676ZM36.5,16.5c-1.445,0-2.368-.7-2.368-1.179S35.054,14.14,36.5,14.14s2.368,0.7,2.368,1.179S37.945,16.5,36.5,16.5ZM54.26,56.573a1.179,1.179,0,1,1,1.184-1.179A1.183,1.183,0,0,1,54.26,56.573Zm4.7,3.25a1.184,1.184,0,0,0-2.3.572l1.184,4.715A1.184,1.184,0,0,0,58.994,66a1.156,1.156,0,0,0,.288-0.035,1.178,1.178,0,0,0,.862-1.43Z"/>
</svg>
