<svg xmlns="http://www.w3.org/2000/svg" width="61" height="42" viewBox="0 0 61 42">
  <defs>
    <style>
      .cls-1 {
        fill: #fff;
        fill-rule: evenodd;
      }
    </style>
  </defs>
  <path id="SUNSET" class="cls-1" d="M47.261,15.834l4.474-4.524a1.582,1.582,0,0,0,0-2.262,1.54,1.54,0,0,0-2.237,0l-4.474,4.524a1.582,1.582,0,0,0,0,2.262C45.675,16.476,46.943,16.476,47.261,15.834ZM13.1,32.293h3.188V30.673a14.374,14.374,0,1,1,28.747,0v1.621h3.189V30.673A17.814,17.814,0,0,0,30.667,12.914,17.814,17.814,0,0,0,13.1,30.673,1.5,1.5,0,0,0,13.1,32.293Zm38.313-1.621a1.524,1.524,0,0,0,1.6,1.621H59.4a1.621,1.621,0,0,0,0-3.241H53.02A1.74,1.74,0,0,0,51.418,30.673ZM30.35,9.689a1.524,1.524,0,0,0,1.6-1.621V1.62a1.6,1.6,0,1,0-3.205,0V8.069A1.713,1.713,0,0,0,30.35,9.689ZM13.422,15.834a1.541,1.541,0,0,0,2.237,0,1.582,1.582,0,0,0,0-2.262L11.185,9.048a1.541,1.541,0,0,0-2.237,0,1.582,1.582,0,0,0,0,2.262ZM59.08,38.759H1.6A1.621,1.621,0,0,0,1.6,42H59.063A1.621,1.621,0,0,0,59.08,38.759ZM1.6,32.293H7.98a1.621,1.621,0,0,0,0-3.241H1.6A1.728,1.728,0,0,0,0,30.673,1.533,1.533,0,0,0,1.6,32.293Z"/>
</svg>
