<svg xmlns="http://www.w3.org/2000/svg" width="15" height="12" viewBox="0 0 15 12">
  <defs>
    <style>
      .cls-1 {
        fill: #fff;
        fill-rule: evenodd;
      }
    </style>
  </defs>
  <path id="tw" class="cls-1" d="M13.887,0.307a5.276,5.276,0,0,1-1.744.72,2.646,2.646,0,0,0-2-.938A2.863,2.863,0,0,0,7.394,3.057a3.229,3.229,0,0,0,.071.676A7.617,7.617,0,0,1,1.807.632a3.132,3.132,0,0,0-.371,1.492,3.035,3.035,0,0,0,1.221,2.47,2.587,2.587,0,0,1-1.243-.372V4.258a2.923,2.923,0,0,0,2.2,2.911,2.539,2.539,0,0,1-1.24.05A2.786,2.786,0,0,0,4.939,9.28,5.253,5.253,0,0,1,1.53,10.55,5.366,5.366,0,0,1,.875,10.51a7.358,7.358,0,0,0,4.208,1.333c5.049,0,7.81-4.522,7.81-8.444l-0.009-.385A5.786,5.786,0,0,0,14.256,1.48a5.167,5.167,0,0,1-1.576.468A2.955,2.955,0,0,0,13.887.307Z"/>
</svg>
