<svg xmlns="http://www.w3.org/2000/svg" width="16" height="10" viewBox="0 0 16 10">
  <defs>
    <style>
      .cls-1 {
        fill: #fff;
        fill-rule: evenodd;
      }
    </style>
  </defs>
  <path id="vk" class="cls-1" d="M13.793,6.217A22.244,22.244,0,0,1,15.3,7.9a4.941,4.941,0,0,1,.54.864,0.636,0.636,0,0,1-.341.965H13.258a1.646,1.646,0,0,1-1.425-.644c-0.31-.351-0.6-0.725-0.9-1.088a2.208,2.208,0,0,0-.4-0.4,0.448,0.448,0,0,0-.746.2,2.861,2.861,0,0,0-.236,1.161,0.627,0.627,0,0,1-.713.767,5.252,5.252,0,0,1-3.2-.766A7.444,7.444,0,0,1,3.482,6.718,31.306,31.306,0,0,1,.645,1.1C0.466,0.652.6,0.414,1.037,0.406,1.767,0.39,2.5.391,3.228,0.4a0.656,0.656,0,0,1,.608.506A15.731,15.731,0,0,0,5.322,3.972a2.535,2.535,0,0,0,.561.686c0.26,0.2.457,0.132,0.579-.189a2.326,2.326,0,0,0,.129-0.642,10.642,10.642,0,0,0-.036-2.25A0.9,0.9,0,0,0,5.837.718C5.623,0.673,5.655.584,5.758,0.448A0.782,0.782,0,0,1,6.445.068h2.53A0.654,0.654,0,0,1,9.516.8l0,3.125a0.953,0.953,0,0,0,.357.8,0.484,0.484,0,0,0,.505-0.275,9.87,9.87,0,0,0,1.424-2.435c0.171-.385.319-0.784,0.462-1.183A0.548,0.548,0,0,1,12.839.4l2.435,0a1.162,1.162,0,0,1,.215.015c0.41,0.078.523,0.274,0.4,0.72A6.982,6.982,0,0,1,14.917,3c-0.406.625-.84,1.228-1.243,1.857a0.9,0.9,0,0,0,.119,1.362h0Z"/>
</svg>
