<svg xmlns="http://www.w3.org/2000/svg" width="62" height="52" viewBox="0 0 62 52">
  <defs>
    <style>
      .cls-1 {
        fill-rule: evenodd;
      }
    </style>
  </defs>
  <path id="WALLET" class="cls-1" d="M60.708,20.8H59.417V10.4a2.593,2.593,0,0,0-2.585-2.6H5.167a2.6,2.6,0,0,1,0-5.2H58.121a1.3,1.3,0,0,0,0-2.6H5.167A5.184,5.184,0,0,0,0,5.2V49.4A2.592,2.592,0,0,0,2.583,52h54.25a2.594,2.594,0,0,0,2.585-2.6V39h1.291A1.3,1.3,0,0,0,62,37.7V22.1A1.3,1.3,0,0,0,60.708,20.8ZM56.833,49.4H2.583v-39h54.25V20.8H43.915s-5.169,6.23-5.169,9.1S43.915,39,43.915,39H56.833V49.4Zm2.585-13H45.159c-0.456-.592-1.067-1.413-1.676-2.314-2.026-3-2.146-4.111-2.151-4.187s0.125-1.184,2.151-4.186c0.609-.9,1.22-1.722,1.676-2.314H59.417v13ZM49.083,26a3.9,3.9,0,1,0,3.875,3.9A3.888,3.888,0,0,0,49.083,26Zm0,5.2a1.3,1.3,0,1,1,1.292-1.3A1.3,1.3,0,0,1,49.083,31.2ZM56.837,3.9H5.167a1.3,1.3,0,0,0,0,2.6H56.837A1.3,1.3,0,0,0,56.837,3.9Z"/>
</svg>
