<svg xmlns="http://www.w3.org/2000/svg" width="79" height="59" viewBox="0 0 79 59">
  <defs>
    <style>
      .cls-1 {
        fill-rule: evenodd;
      }
    </style>
  </defs>
  <path id="WORKSPACE" class="cls-1" d="M5.267,59H7.9m63.2,0h2.633m2.633,0H79V51.655a1.248,1.248,0,0,0-1.316-1.325H72.417V47.682H67.15v2.649H56.617v-5.3h11.85a1.248,1.248,0,0,0,1.317-1.324V19.867a1.248,1.248,0,0,0-1.317-1.325H34.233a1.248,1.248,0,0,0-1.317,1.325V43.708a1.248,1.248,0,0,0,1.317,1.324h11.85v5.3H27.65V46.357a1.248,1.248,0,0,0-1.317-1.325H25.017V42.384h1.317a1.248,1.248,0,0,0,1.317-1.324v-5.3a1.248,1.248,0,0,0-1.317-1.325H9.217A1.248,1.248,0,0,0,7.9,35.761v3.973H6.583a1.248,1.248,0,0,0-1.317,1.325v5.3a1.248,1.248,0,0,0,1.317,1.325H7.9v2.649H1.317A1.248,1.248,0,0,0,0,51.655V59H2.633M67.15,21.192v14.57H35.55V21.192h31.6ZM35.55,38.41h31.6v3.974H35.55V38.41Zm13.167,6.622h5.267v5.3H48.717v-5.3ZM10.533,37.086H25.017v2.649H10.533V37.086ZM7.9,42.384H22.383v2.649H7.9V42.384Zm2.633,5.3H25.017v2.649H10.533V47.682Zm61.883,9.271H2.633V52.979H76.367v3.974h-3.95ZM7.9,23.841H26.333a1.248,1.248,0,0,0,1.317-1.325V14.569a5.3,5.3,0,0,0-5.267-5.3h-3.95V0H15.8V9.271H11.85a5.3,5.3,0,0,0-5.267,5.3v7.947A1.248,1.248,0,0,0,7.9,23.841Zm3.95-11.92H22.383a2.649,2.649,0,0,1,2.633,2.649v6.622H9.217V18.543H15.8V15.894H9.217V14.569A2.649,2.649,0,0,1,11.85,11.92Z"/>
</svg>
