<?xml version="1.0" encoding="UTF-8"?>
<svg width="32px" height="33px" viewBox="0 0 32 33" version="1.1" xmlns="http://www.w3.org/2000/svg" xmlns:xlink="http://www.w3.org/1999/xlink">
    <!-- Generator: Sketch 49.3 (51167) - http://www.bohemiancoding.com/sketch -->
    <title>social/bitcointalk</title>
    <desc>Created with Sketch.</desc>
    <defs></defs>
    <g id="Symbols" stroke="none" stroke-width="1" fill="none" fill-rule="evenodd">
        <g id="social/bitcointalk" fill="#FFFFFF">
            <path d="M23.4090974,18.0170688 C23.8914514,18.6482044 24.0786864,19.5485384 23.9701032,20.7177173 C23.9120757,21.3152142 23.7767509,21.8410573 23.5650028,22.2954679 C23.3525555,22.7498784 23.0845713,23.1244577 22.760089,23.4186753 C22.4357814,23.7131581 22.0324724,23.959415 21.5502495,24.157004 C21.0679828,24.3548583 20.5626013,24.4997569 20.0344545,24.5926281 C19.5065698,24.6854994 18.9015627,24.7482682 18.2194331,24.7818627 L18.2194331,28 L16.2983628,28 L16.2983628,24.8324314 C15.6330123,24.8324314 15.1257082,24.8283205 14.7764942,24.8197008 L14.7764942,28 L12.8548996,28 L12.8548996,24.7818627 C12.7051553,24.7818627 12.4806918,24.779741 12.1813343,24.7754974 C11.881802,24.771696 11.6532311,24.7695742 11.4951847,24.7695742 L9.00008739,24.7695742 L9.38687947,22.4599928 L10.771457,22.4599928 C11.1873503,22.4599928 11.4285055,22.2452971 11.4949662,21.8163035 L11.4949662,16.743128 L11.6946544,16.743128 C11.6447105,16.7347293 11.5782497,16.7303974 11.4949662,16.7303974 L11.4949662,13.1082856 C11.3868637,12.5362499 11.0167633,12.2501216 10.384665,12.2501216 L9,12.2501216 L9,10.1803434 L11.6447105,10.193074 C12.1769647,10.193074 12.5802737,10.1887862 12.8548122,10.1803434 L12.8548122,7 L14.7761009,7 L14.7761009,10.117221 C15.458012,10.1003795 15.9653161,10.0919809 16.2979696,10.0919809 L16.2979696,7 L18.2189961,7 L18.2189961,10.1803434 C18.8760445,10.2391781 19.4583737,10.3338617 19.9655905,10.4642616 C20.4726761,10.5946615 20.9429702,10.7838077 21.3753803,11.0322748 C21.80814,11.2804324 22.1508434,11.6084656 22.4048013,12.0165068 C22.6585844,12.4244596 22.810295,12.9057458 22.8602826,13.4610726 C23.0098084,14.9924981 22.4651884,16.0778674 21.2258982,16.7173574 C22.1990831,16.9528729 22.9268308,17.3861984 23.4090974,18.0170688 Z M14.8134605,12.3885665 L14.8134605,12.3885223 L14.8135916,12.3885223 L14.8135916,16.2629468 C14.855277,16.2629468 14.9985544,16.265157 15.2440354,16.2693121 C15.4894727,16.2734672 15.6827814,16.2734672 15.8242235,16.2693121 C15.9655346,16.265157 16.1735249,16.2565816 16.4480634,16.2440278 C16.7225582,16.2314741 16.9512165,16.2082673 17.134213,16.1745843 C17.3170784,16.1409898 17.5312298,16.0947089 17.7764486,16.0357858 C18.0217112,15.9769511 18.2235841,15.8990648 18.3814558,15.802392 C18.5395022,15.7057193 18.6936597,15.5920282 18.8432292,15.4615841 C18.9927551,15.3311842 19.1053145,15.1691789 19.1799463,14.9757008 C19.2547093,14.7820901 19.2920689,14.5674827 19.2920689,14.3318788 C19.2920689,14.0542817 19.2400713,13.8082016 19.1359887,13.5936827 C19.032212,13.3791196 18.9054079,13.2023504 18.7555762,13.0635518 C18.6060504,12.9247533 18.4065807,12.8069071 18.1568612,12.7102343 C17.9075787,12.6134732 17.6786582,12.5440297 17.470799,12.5020365 C17.2629398,12.4600433 17.007234,12.4263162 16.7036818,12.401076 C16.3999984,12.3758359 16.1587996,12.3653155 15.9799541,12.3694706 C15.8011524,12.3737142 15.5766888,12.3778693 15.3062577,12.3822012 C15.0359577,12.3864447 14.8717065,12.3885665 14.8134605,12.3885665 Z M20.0595357,20.9828933 C20.1386681,20.7892384 20.1781251,20.5750289 20.1781688,20.339204 C20.1781688,20.0362341 20.1158154,19.7669473 19.9908027,19.5314317 C19.8660959,19.2957836 19.7123317,19.1025707 19.5293351,18.9508648 C19.3462949,18.7994241 19.1070623,18.6711459 18.8118996,18.5660303 C18.516431,18.4607379 18.2442521,18.3830284 17.9948385,18.3324598 C17.745119,18.2819796 17.437372,18.2442741 17.0716411,18.2192108 C16.7055607,18.1937938 16.4185253,18.1813727 16.2106224,18.1813727 C16.0026757,18.1813727 15.7346042,18.1853068 15.4059707,18.1937938 C15.077381,18.2023693 14.8798339,18.2064802 14.8133731,18.2064802 L14.8133731,22.4723255 C14.879965,22.4723255 15.0336856,22.4744473 15.2750155,22.4783814 C15.5162144,22.4824923 15.7158588,22.4847909 15.8739053,22.4847909 C16.0318643,22.4847909 16.2523952,22.4783814 16.535061,22.4660045 C16.8179454,22.4532739 17.0611105,22.4365208 17.264775,22.4154358 C17.4687453,22.3942624 17.7056183,22.3587229 17.9762679,22.3081985 C18.2463058,22.2575414 18.4771925,22.198972 18.6685786,22.131385 C18.8597024,22.0640633 19.0574243,21.9758776 19.2610451,21.8663417 C19.4647096,21.7571152 19.6290481,21.630782 19.7539297,21.4880051 C19.8785928,21.3448746 19.9803158,21.176504 20.0595357,20.9828933 Z" id="Combined-Shape"></path>
        </g>
    </g>
</svg>