<?xml version="1.0" encoding="UTF-8"?>
<svg width="32px" height="33px" viewBox="0 0 32 33" version="1.1" xmlns="http://www.w3.org/2000/svg" xmlns:xlink="http://www.w3.org/1999/xlink">
    <!-- Generator: Sketch 49.3 (51167) - http://www.bohemiancoding.com/sketch -->
    <title>social/github</title>
    <desc>Created with Sketch.</desc>
    <defs></defs>
    <g id="Symbols" stroke="none" stroke-width="1" fill="none" fill-rule="evenodd">
        <g id="social/github" fill="#FFFFFF" fill-rule="nonzero">
            <path d="M26.4573523,11.615877 C25.4289903,9.88824714 24.0340831,8.52048015 22.2722633,7.51226752 C20.5101814,6.50400347 18.5865132,6 16.4998951,6 C14.4135393,6 12.4892417,6.50415774 10.7275269,7.51226752 C8.96554979,8.52042873 7.57069498,9.88824714 6.54233307,11.615877 C5.51412851,13.3434555 5,15.2299845 5,17.2754128 C5,19.7324361 5.73109776,21.9418544 7.19366041,23.9042334 C8.65606573,25.8667666 10.5452769,27.2247631 12.8611366,27.9783771 C13.1307092,28.0274353 13.3302664,27.99293 13.4600179,27.8757355 C13.5898218,27.7583866 13.6546451,27.6114178 13.6546451,27.4354459 C13.6546451,27.406083 13.6520753,27.1419196 13.6470929,26.6426471 C13.6419532,26.1433746 13.6395407,25.7078161 13.6395407,25.3361771 L13.2951275,25.3945944 C13.075536,25.4340364 12.798516,25.4507491 12.4640676,25.4460181 C12.1297766,25.4414414 11.7827411,25.4070904 11.4234333,25.3432222 C11.0639682,25.2799196 10.7296247,25.133105 10.4201406,24.9030869 C10.1108139,24.6730688 9.89122236,24.3719832 9.76141841,24.0002928 L9.61168498,23.6624393 C9.51188017,23.4375121 9.35475184,23.1876444 9.14009021,22.9137619 C8.92542858,22.6396223 8.70835443,22.4537771 8.48876287,22.3559179 L8.38392324,22.2823306 C8.31406512,22.2334267 8.24924181,22.1744437 8.18929599,22.1059988 C8.12940262,22.0375539 8.08456125,21.9690575 8.05461457,21.9004584 C8.02461543,21.8318078 8.04947486,21.7754988 8.12945506,21.7313259 C8.20943527,21.6871529 8.35397655,21.6657093 8.56370825,21.6657093 L8.86307024,21.7095737 C9.0627323,21.7488099 9.30970069,21.8660045 9.60429009,22.0618773 C9.89872214,22.2575958 10.1407606,22.5120402 10.3304579,22.8251075 C10.5601716,23.2265207 10.8369293,23.5323888 11.1615178,23.7428659 C11.4858441,23.953343 11.8128452,24.0584016 12.1422063,24.0584016 C12.4715674,24.0584016 12.7560347,24.0339239 12.9957131,23.9852257 C13.2351293,23.9362704 13.4597556,23.8626831 13.6694874,23.7648752 C13.7593274,23.1088119 14.0039357,22.6048085 14.4031025,22.2525049 C13.8341679,22.1938819 13.3226617,22.1055874 12.8683217,21.9881872 C12.4142439,21.8706326 11.9450092,21.6798508 11.4609323,21.4153274 C10.9765931,21.151164 10.574804,20.8231323 10.2554601,20.4317981 C9.93606372,20.0402582 9.67393842,19.5262271 9.46945132,18.8901677 C9.26485933,18.2538511 9.16253711,17.5198295 9.16253711,16.6878972 C9.16253711,15.5033528 9.55693131,14.4953459 10.3455624,13.6633108 C9.97613249,12.7727555 10.0110091,11.7744162 10.4502971,10.6683958 C10.7397992,10.5802042 11.1691225,10.6463864 11.7380571,10.8665312 C12.3070966,11.0867788 12.723728,11.2754523 12.9883707,11.4318831 C13.2530134,11.5882625 13.4650527,11.7207813 13.6248033,11.8282568 C14.5533604,11.5738639 15.511602,11.4466417 16.4997902,11.4466417 C17.4879785,11.4466417 18.4464298,11.5738639 19.3750393,11.8282568 L19.9440264,11.476056 C20.3331235,11.2410498 20.7926033,11.0256875 21.3213642,10.8299175 C21.8504399,10.6342504 22.2550086,10.5803584 22.5346509,10.66855 C22.9836938,11.7746219 23.0237102,12.7729098 22.6541754,13.663465 C23.442754,14.4955002 23.8373056,15.5037642 23.8373056,16.6880515 C23.8373056,17.5199838 23.7346162,18.2563194 23.5303389,18.8975213 C23.3257993,19.538826 23.0614189,20.0523428 22.7370926,20.4391517 C22.4123992,20.8259092 22.0080402,21.1513696 21.5239633,21.4154817 C21.0397815,21.6797994 20.5703894,21.8705812 20.1163116,21.9881357 C19.6620241,22.1056903 19.1505178,22.1940361 18.5815832,22.252762 C19.1004843,22.6930515 19.3599873,23.3880425 19.3599873,24.3374265 L19.3599873,27.4350346 C19.3599873,27.6110064 19.4223981,27.7579238 19.5473246,27.8753241 C19.6720937,27.9925187 19.8691335,28.0270239 20.1387061,27.9779143 C22.4548804,27.2244032 24.3440916,25.8663553 25.8064445,23.903822 C27.26864,21.941443 28,19.7320247 28,17.2750014 C27.9994755,15.2298303 27.4850848,13.3434555 26.4573523,11.615877 Z" id="Shape"></path>
        </g>
    </g>
</svg>