<?xml version="1.0" encoding="UTF-8"?>
<svg width="32px" height="33px" viewBox="0 0 32 33" version="1.1" xmlns="http://www.w3.org/2000/svg" xmlns:xlink="http://www.w3.org/1999/xlink">
    <!-- Generator: Sketch 49.3 (51167) - http://www.bohemiancoding.com/sketch -->
    <title>social/linkedin</title>
    <desc>Created with Sketch.</desc>
    <defs>
        <polygon id="path-1" points="0 0 32 0 32 32 0 32"></polygon>
    </defs>
    <g id="Symbols" stroke="none" stroke-width="1" fill="none" fill-rule="evenodd">
        <g id="social/linkedin">
            <mask id="mask-2" fill="white">
                <use xlink:href="#path-1"></use>
            </mask>
            <g id="Clip-2"></g>
            <path d="M25.8982689,26.8626667 L21.5701399,26.8626667 L21.5701399,20.0858791 C21.5701399,18.4690944 21.540534,16.3905741 19.3196912,16.3905741 C17.0657953,16.3905741 16.7206643,18.1511315 16.7206643,19.9688736 L16.7206643,26.8626667 L12.392738,26.8626667 L12.392738,12.9272522 L16.5474905,12.9272522 L16.5474905,14.8311768 L16.6050799,14.8311768 C17.1830019,13.7357459 18.5957678,12.5804941 20.7028513,12.5804941 C25.0885697,12.5804941 25.8982689,15.4666971 25.8982689,19.2187812 L25.8982689,26.8626667 Z M7.51183164,11.0223136 C6.12360209,11.0223136 5,9.89666805 5,8.51044705 C5,7.12523996 6.12360209,6 7.51183164,6 C8.89641115,6 10.0216355,7.12523996 10.0216355,8.51044705 C10.0216355,9.89666805 8.89641115,11.0223136 7.51183164,11.0223136 Z M5.34533376,26.8626667 L9.6765045,26.8626667 L9.6765045,12.9272522 L5.34533376,12.9272522 L5.34533376,26.8626667 Z" id="Fill-1" fill="#FEFEFE" mask="url(#mask-2)"></path>
        </g>
    </g>
</svg>