<?xml version="1.0" encoding="UTF-8"?>
<svg width="32px" height="33px" viewBox="0 0 32 33" version="1.1" xmlns="http://www.w3.org/2000/svg" xmlns:xlink="http://www.w3.org/1999/xlink">
    <!-- Generator: Sketch 49.3 (51167) - http://www.bohemiancoding.com/sketch -->
    <title>social/medium</title>
    <desc>Created with Sketch.</desc>
    <defs></defs>
    <g id="Symbols" stroke="none" stroke-width="1" fill="none" fill-rule="evenodd">
        <g id="social/medium" fill="#FFFFFF" fill-rule="nonzero">
            <path d="M7.49019608,13.46796 C7.51628698,13.2050978 7.41798168,12.9452878 7.2254902,12.7683715 L5.26470588,10.3597884 L5.26470588,10 L11.3529412,10 L16.0588235,20.5238095 L20.1960785,10 L26,10 L26,10.3597884 L24.3235294,11.9988242 C24.1789993,12.1111626 24.1073049,12.2957987 24.137255,12.478542 L24.137255,24.521458 C24.1073049,24.7042013 24.1789993,24.8888373 24.3235294,25.0011758 L25.9607843,26.6402117 L25.9607843,27 L17.7254902,27 L17.7254902,26.6402117 L19.4215687,24.9611993 C19.5882353,24.7912992 19.5882353,24.7413287 19.5882353,24.4814815 L19.5882353,14.7472075 L14.872549,26.9600235 L14.2352941,26.9600235 L8.74509803,14.7472075 L8.74509803,22.9323927 C8.69932278,23.2765209 8.81140701,23.6229827 9.0490196,23.8718401 L11.254902,26.6002352 L11.254902,26.9600235 L5,26.9600235 L5,26.6002352 L7.20588235,23.8718401 C7.44176492,23.6225701 7.54731343,23.27381 7.49019608,22.9323927 L7.49019608,13.46796 Z" id="Combined-Shape"></path>
        </g>
    </g>
</svg>