<?xml version="1.0" encoding="UTF-8"?>
<svg width="32px" height="33px" viewBox="0 0 32 33" version="1.1" xmlns="http://www.w3.org/2000/svg" xmlns:xlink="http://www.w3.org/1999/xlink">
    <!-- Generator: Sketch 49.3 (51167) - http://www.bohemiancoding.com/sketch -->
    <title>social/reddit</title>
    <desc>Created with Sketch.</desc>
    <defs></defs>
    <g id="Symbols" stroke="none" stroke-width="1" fill="none" fill-rule="evenodd">
        <g id="social/reddit" fill-rule="nonzero">
            <g id="reddit" transform="translate(4.000000, 8.000000)">
                <polygon id="Shape" fill="#000000" points="8 11 8 11.008 9 11.008"></polygon>
                <polygon id="Shape" fill="#000000" points="16 11 16 11.008 17 11.008"></polygon>
                <path d="M25,9.2308099 C25,7.53389323 23.6045426,6.15389844 21.8886123,6.15389844 C21.2025513,6.15389844 20.5507156,6.37543607 20.0186683,6.77697301 C18.282514,5.58466982 16.0080896,4.87390328 13.5889857,4.69390396 L14.8942128,1.66622308 L18.6916615,2.54314285 C18.8130056,3.70467692 19.7962041,4.61544271 21.0018668,4.61544271 C22.2884256,4.61544271 23.3354076,3.58006201 23.3354076,2.30775912 C23.3354076,1.03545623 22.2884256,7.55291554e-05 21.0018668,7.55291554e-05 C20.1866833,7.55291554e-05 19.4695084,0.416997032 19.0525825,1.04622542 L14.6141879,0.0200754536 C14.23771,-0.0645396114 13.8690106,0.124690443 13.719664,0.467766071 L11.9150591,4.65236565 C9.30304916,4.74159608 6.81393902,5.46928564 4.93466086,6.73697316 C4.42283759,6.36158997 3.7881145,6.15389844 3.11138768,6.15389844 C1.39545737,6.15389844 0,7.53389323 0,9.2308099 C0,10.355421 0.620721842,11.3723403 1.57280647,11.8938768 C1.56036092,12.0292609 1.55569384,12.1677219 1.55569384,12.3077214 C1.55569384,16.5492438 6.4405725,20 12.4455507,20 C18.4489732,20 23.3354076,16.5492438 23.3354076,12.3077214 C23.3354076,12.1877218 23.3307405,12.0692607 23.322962,11.9507996 C24.3372744,11.4400323 25,10.3984978 25,9.2308099 Z M21.0018668,1.53853126 C21.4296826,1.53853126 21.7797138,1.88314534 21.7797138,2.30775912 C21.7797138,2.7323729 21.4296826,3.07698699 21.0018668,3.07698699 C20.574051,3.07698699 20.2240199,2.7323729 20.2240199,2.30775912 C20.2240199,1.88314534 20.574051,1.53853126 21.0018668,1.53853126 Z M7.00062228,11.5384935 C7.00062228,10.6908044 7.69912881,10.0000378 8.55631612,10.0000378 C9.41350342,10.0000378 10.11201,10.6908044 10.11201,11.5384935 C10.11201,12.3877211 9.41350342,13.0769492 8.55631612,13.0769492 C7.69912881,13.0769492 7.00062228,12.3877211 7.00062228,11.5384935 Z M16.0376478,16.6415511 C14.964219,17.4092406 13.704107,17.7938545 12.4455507,17.7938545 C11.1869944,17.7938545 9.92688239,17.4092406 8.85345364,16.6415511 C8.50497822,16.3923213 8.42719353,15.9107847 8.67921593,15.567709 C8.93123833,15.2246334 9.4181705,15.1477106 9.76509023,15.395402 C11.3690106,16.5415515 13.5220909,16.5446284 15.1260112,15.395402 C15.4729309,15.1477106 15.9583074,15.2215565 16.2118855,15.567709 C16.4639079,15.9123231 16.3845675,16.3923213 16.0376478,16.6415511 Z M16.3347853,13.0769492 C15.4760423,13.0769492 14.7790915,12.3877211 14.7790915,11.5384935 C14.7790915,10.6908044 15.4760423,10.0000378 16.3347853,10.0000378 C17.1935283,10.0000378 17.8904792,10.6908044 17.8904792,11.5384935 C17.8904792,12.3877211 17.1935283,13.0769492 16.3347853,13.0769492 Z" id="Shape" fill="#FFFFFF"></path>
            </g>
        </g>
    </g>
</svg>