<?xml version="1.0" encoding="UTF-8"?>
<svg width="32px" height="33px" viewBox="0 0 32 33" version="1.1" xmlns="http://www.w3.org/2000/svg" xmlns:xlink="http://www.w3.org/1999/xlink">
    <!-- Generator: Sketch 49.3 (51167) - http://www.bohemiancoding.com/sketch -->
    <title>social/telegram</title>
    <desc>Created with Sketch.</desc>
    <defs></defs>
    <g id="Symbols" stroke="none" stroke-width="1" fill="none" fill-rule="evenodd">
        <g id="social/telegram" fill="#FFFFFF" fill-rule="nonzero">
            <path d="M5.3885854,17.110431 L10.457832,18.9871536 L12.4199413,25.2463146 C12.5454881,25.6471912 13.0396821,25.795365 13.3677025,25.5293505 L16.1933862,23.2444043 C16.4895799,23.0050131 16.9114671,22.9930835 17.2210076,23.2159625 L22.3175342,26.8862646 C22.6684347,27.1392585 23.165562,26.9485311 23.2535621,26.5279415 L26.9870403,8.71427942 C27.0831071,8.25484608 26.6279999,7.87157276 26.1869726,8.04076877 L5.38264539,16.0016371 C4.86923805,16.1980383 4.87371139,16.9190489 5.3885854,17.110431 Z M12.4898897,19.0192351 L22.7257485,13.0271487 C22.9097088,12.9197755 23.0989727,13.1561982 22.9410002,13.2954737 L14.4934505,20.7590265 C14.1965229,21.0217343 14.004986,21.3733077 13.9507374,21.754911 L13.6629774,23.7818229 C13.6248671,24.0524524 13.2248974,24.0793137 13.1463279,23.817398 L12.0396114,20.1212686 C11.9128546,19.6996974 12.0975725,19.2493926 12.4898897,19.0192351 Z" id="XMLID_497_"></path>
        </g>
    </g>
</svg>