<?xml version="1.0" encoding="UTF-8"?>
<svg width="32px" height="33px" viewBox="0 0 32 33" version="1.1" xmlns="http://www.w3.org/2000/svg" xmlns:xlink="http://www.w3.org/1999/xlink">
    <!-- Generator: Sketch 49.3 (51167) - http://www.bohemiancoding.com/sketch -->
    <title>social/twitter</title>
    <desc>Created with Sketch.</desc>
    <defs></defs>
    <g id="Symbols" stroke="none" stroke-width="1" fill="none" fill-rule="evenodd">
        <g id="social/twitter" fill="#FFFFFF" fill-rule="nonzero">
            <path d="M27,11.1296832 C26.1902765,11.4910816 25.3214548,11.7361779 24.4085971,11.8456003 C25.3406868,11.2833889 26.0541782,10.3916426 26.3923389,9.33232284 C25.5180172,9.85296679 24.5529274,10.2310211 23.5246054,10.435962 C22.7011498,9.55113162 21.5298636,9 20.2307112,9 C17.7383084,9 15.7174325,11.0355408 15.7174325,13.5446543 C15.7174325,13.9005128 15.7572986,14.2480794 15.8342987,14.5804385 C12.0840116,14.3907052 8.75851921,12.5808891 6.53281296,9.83080711 C6.14375023,10.5010289 5.92241981,11.2819768 5.92241981,12.1156081 C5.92241981,13.69282 6.71977732,15.0844627 7.92956361,15.89865 C7.18993822,15.8737385 6.4943129,15.6687976 5.88532171,15.3281468 L5.88532171,15.3849219 C5.88532171,17.5866241 7.44153667,19.4241399 9.50501063,19.8423496 C9.12694792,19.9448201 8.72828714,20.0015952 8.31585836,20.0015952 C8.02442978,20.0015952 7.74259925,19.9725197 7.46626874,19.9171204 C8.04089386,21.7241848 9.707109,23.0382685 11.6812527,23.0742961 C10.1374038,24.2928615 8.19076012,25.0170704 6.07642006,25.0170704 C5.71212535,25.0170704 5.35329469,24.9949107 5,24.9547553 C6.9975098,26.2467156 9.36894832,27 11.9177172,27 C20.219783,27 24.7578297,20.0736142 24.7578297,14.0667104 L24.7426957,13.4782115 C25.6293834,12.841193 26.3964729,12.0408373 27,11.1296832 Z" id="twitter"></path>
        </g>
    </g>
</svg>