<?xml version="1.0" encoding="UTF-8"?>
<svg width="494px" height="315px" viewBox="0 0 494 315" version="1.1" xmlns="http://www.w3.org/2000/svg" xmlns:xlink="http://www.w3.org/1999/xlink">
    <!-- Generator: sketchtool 48.2 (47327) - http://www.bohemiancoding.com/sketch -->
    <title>A9D02448-DA5B-4286-BD2C-379DC1175ECF</title>
    <desc>Created with sketchtool.</desc>
    <defs></defs>
    <g id="pic/investors" stroke="none" stroke-width="1" fill="none" fill-rule="evenodd">
        <g id="pic-investor" transform="translate(1.000000, 58.000000)">
            <g id="Group" transform="translate(282.000000, 168.000000)" fill-rule="nonzero">
                <rect id="Rectangle-path" stroke="#054CBE" stroke-width="2" fill="#FFFFFF" x="5.28432836" y="0.328846154" width="140.552239" height="56.6163462"></rect>
                <path d="M5.28432836,11.8384615 L145.836567,11.8384615" id="Shape" stroke-opacity="0.3" stroke="#054CBE" stroke-width="0.75" fill="#FFFFFF"></path>
                <path d="M55.5671642,0.328846154 L55.5671642,56.9451923" id="Shape" stroke="#054CBE" stroke-width="0.75" fill="#FFFFFF"></path>
                <path d="M5.28432836,7.61826923 L145.727612,7.61826923" id="Shape" stroke="#054CBE" stroke-width="0.75" fill="#FFFFFF"></path>
                <path d="M5.28432836,16.0038462 L145.78209,16.0038462" id="Shape" stroke="#054CBE" stroke-width="0.75" fill="#FFFFFF"></path>
                <path d="M5.28432836,18.5798077 L145.836567,18.5798077" id="Shape" stroke-opacity="0.2" stroke="#054CBE" stroke-width="0.75" fill="#FFFFFF"></path>
                <path d="M5.28432836,24.7730769 L145.836567,24.7730769" id="Shape" stroke-opacity="0.2" stroke="#054CBE" stroke-width="0.75" fill="#FFFFFF"></path>
                <path d="M5.28432836,38.5846154 L145.836567,38.5846154" id="Shape" stroke-opacity="0.2" stroke="#054CBE" stroke-width="0.75" fill="#FFFFFF"></path>
                <path d="M5.28432836,4.05576923 L145.836567,4.05576923" id="Shape" stroke-opacity="0.2" stroke="#054CBE" stroke-width="0.75" fill="#FFFFFF"></path>
                <path d="M145.836567,28.2807692 L5.28432836,28.2807692" id="Shape" stroke-opacity="0.4" stroke="#054CBE" stroke-width="0.75" fill="#FFFFFF"></path>
                <path d="M3.65,31.8980769 L145.836567,31.8980769" id="Shape" stroke="#054CBE" stroke-width="0.75" fill="#FFFFFF"></path>
                <path d="M0.217910448,36.8307692 L145.836567,36.8307692" id="Shape" stroke="#054CBE" stroke-width="0.75" fill="#FFFFFF"></path>
                <path d="M5.28432836,43.4076923 L145.836567,43.4076923" id="Shape" stroke-opacity="0.5" stroke="#054CBE" stroke-width="0.75" fill="#FFFFFF"></path>
                <path d="M145.836567,50.0394231 L5.28432836,50.0394231" id="Shape" stroke="#054CBE" stroke-width="0.75" fill="#FFFFFF"></path>
                <path d="M5.28432836,52.9442308 L145.836567,52.9442308" id="Shape" stroke-opacity="0.3" stroke="#054CBE" stroke-width="0.75" fill="#FFFFFF"></path>
                <rect id="Rectangle-path" fill-opacity="0.1" fill="#054CBE" x="5.28432836" y="0.328846154" width="50.2828358" height="56.6163462"></rect>
                <rect id="Rectangle-path" stroke="#054CBE" stroke-width="2" fill="#FFFFFF" x="83.7865672" y="0.328846154" width="33.5037313" height="56.6163462"></rect>
                <rect id="Rectangle-path" fill-opacity="0.1" fill="#054CBE" x="86.7828358" y="0.328846154" width="3.70447761" height="56.6163462"></rect>
                <rect id="Rectangle-path" fill-opacity="0.1" fill="#054CBE" x="110.752985" y="0.328846154" width="3.70447761" height="56.6163462"></rect>
            </g>
            <g id="Group" transform="translate(299.000000, 113.000000)" fill-rule="nonzero">
                <rect id="Rectangle-path" stroke="#054CBE" stroke-width="2" fill="#FFFFFF" x="2.29090909" y="0.109615385" width="140.727273" height="56.6163462"></rect>
                <path d="M2.29090909,11.6192308 L143.018182,11.6192308" id="Shape" stroke="#054CBE" stroke-width="0.75" fill="#FFFFFF"></path>
                <path d="M52.6363636,0.109615385 L52.6363636,56.7807692" id="Shape" stroke="#054CBE" stroke-width="0.75" fill="#FFFFFF"></path>
                <path d="M0.109090909,3.06923077 L143.563636,3.06923077" id="Shape" stroke="#054CBE" stroke-width="0.75" fill="#FFFFFF"></path>
                <path d="M2.29090909,15.8394231 L143.072727,15.8394231" id="Shape" stroke-opacity="0.3" stroke="#054CBE" stroke-width="0.75" fill="#FFFFFF"></path>
                <path d="M2.29090909,18.4153846 L143.018182,18.4153846" id="Shape" stroke-opacity="0.2" stroke="#054CBE" stroke-width="0.75" fill="#FFFFFF"></path>
                <path d="M2.29090909,26.7461538 L143.018182,26.7461538" id="Shape" stroke-opacity="0.2" stroke="#054CBE" stroke-width="0.75" fill="#FFFFFF"></path>
                <path d="M2.29090909,38.4201923 L143.018182,38.4201923" id="Shape" stroke-opacity="0.2" stroke="#054CBE" stroke-width="0.75" fill="#FFFFFF"></path>
                <path d="M2.29090909,5.64519231 L143.018182,5.64519231" id="Shape" stroke-opacity="0.2" stroke="#054CBE" stroke-width="0.75" fill="#FFFFFF"></path>
                <path d="M143.018182,30.2538462 L2.29090909,30.2538462" id="Shape" stroke-opacity="0.4" stroke="#054CBE" stroke-width="0.75" fill="#FFFFFF"></path>
                <path d="M2.29090909,34.0355769 L143.018182,34.0355769" id="Shape" stroke="#054CBE" stroke-width="0.75" fill="#FFFFFF"></path>
                <path d="M2.29090909,43.2432692 L143.018182,43.2432692" id="Shape" stroke-opacity="0.5" stroke="#054CBE" stroke-width="0.75" fill="#FFFFFF"></path>
                <path d="M143.018182,49.875 L2.29090909,49.875" id="Shape" stroke="#054CBE" stroke-width="0.75" fill="#FFFFFF"></path>
                <path d="M2.29090909,52.725 L143.018182,52.725" id="Shape" stroke-opacity="0.3" stroke="#054CBE" stroke-width="0.75" fill="#FFFFFF"></path>
                <rect id="Rectangle-path" fill-opacity="0.1" fill="#054CBE" x="2.29090909" y="0.109615385" width="50.3454545" height="56.6163462"></rect>
                <rect id="Rectangle-path" stroke="#054CBE" stroke-width="2" fill="#FFFFFF" x="80.8909091" y="0.109615385" width="33.5454545" height="56.6163462"></rect>
                <rect id="Rectangle-path" fill-opacity="0.1" fill="#054CBE" x="83.8909091" y="0.109615385" width="3.70909091" height="56.6163462"></rect>
                <rect id="Rectangle-path" fill-opacity="0.1" fill="#054CBE" x="107.836364" y="0.109615385" width="3.70909091" height="56.6163462"></rect>
            </g>
            <g id="Group" transform="translate(7.000000, 0.000000)">
                <g transform="translate(0.000000, 33.312309)" fill="#FFFFFF" fill-rule="nonzero" id="Shape" stroke="#054CBE">
                    <path d="M5.59124343,212.325015 C8.93502627,216.912283 14.4166375,219.861242 20.7204904,219.861242 L241.848687,219.861242 C252.921541,219.861242 262.569177,210.850535 263.336602,199.873856 L276.382837,14.3625203 C276.930998,6.88090325 270.956042,0.491493089 263.391419,0.491493089 L21.9264448,0.491493089 C16.115937,0.491493089 14.5262697,21.4072546 14.5262697,21.4072546 L2.02819615,199.819246 C1.69929947,204.570346 3.06970228,208.884563 5.59124343,212.325015 Z" stroke-width="2"></path>
                    <path d="M27.0791594,213.635663 L21.4879159,213.635663 C13.6492119,213.635663 7.7290718,207.300863 8.27723292,199.491584 L8.66094571,193.648277 C8.88021016,190.699319 6.63274956,188.296464 3.67267951,188.296464 C2.19264448,188.296464 0.986690018,189.443281 0.877057793,190.91776 L0.27408056,199.491584 C-0.602977233,211.66969 8.66094571,221.554163 20.8849387,221.554163 L29.2169877,221.554163 C30.6970228,221.554163 31.9029772,220.407345 32.0126095,218.932866 C32.28669,216.038518 30.0392294,213.635663 27.0791594,213.635663 Z"></path>
                </g>
                <path d="M11.1824869,245.637324 C8.66094571,242.196872 7.29054291,237.882655 7.61943958,233.131555 L16.609282,66.5700084 L19.2952715,66.5700084 L20.1175131,54.7195639 C20.1175131,54.7195639 21.7071804,33.8038025 27.5176883,33.8038025 L264.761821,33.8038025 C274.573905,33.8038025 282.302977,42.0499643 281.645184,51.8252158 L268.927846,233.131555 C268.16042,244.162845 258.457968,253.118941 247.43993,253.118941 L26.3117338,253.118941 C20.0078809,253.173551 14.5262697,250.224593 11.1824869,245.637324 Z" id="Shape" stroke="#054CBE" stroke-width="2" fill="#FFFFFF" fill-rule="nonzero"></path>
                <path d="M14.6359019,245.637324 C12.1143608,242.196872 10.743958,237.882655 11.0728546,233.131555 L23.5709282,54.7195639 C23.5709282,54.7195639 25.1605954,33.8038025 30.9711033,33.8038025 L268.215236,33.8038025 C278.02732,33.8038025 285.756392,42.0499643 285.098599,51.8252158 L272.381261,233.131555 C271.613835,244.162845 261.911384,253.118941 250.893345,253.118941 L29.7651489,253.118941 C23.461296,253.173551 17.9796848,250.224593 14.6359019,245.637324 Z" id="Shape" fill-opacity="0.1" fill="#054CBE" fill-rule="nonzero"></path>
                <path d="M20.1723292,66.5700084 L16.115937,233.131555 C15.7322242,244.162845 24.447986,253.118941 35.5208406,253.118941 L256.649037,253.118941 C267.721891,253.118941 277.04063,244.108234 277.424343,233.131555 L283.289667,66.5700084 L20.1723292,66.5700084 Z" id="Shape" stroke="#054CBE" stroke-width="0.75" fill="#FFFFFF" fill-rule="nonzero"></path>
                <path d="M25.1605954,66.5700084 L19.2952715,233.131555 C18.9115587,244.162845 27.6273205,253.118941 38.7001751,253.118941 L259.828371,253.118941 C270.901226,253.118941 280.219965,244.108234 280.603678,233.131555 L286.469002,66.5700084 L25.1605954,66.5700084 Z" id="Shape" fill-opacity="0.1" fill="#054CBE" fill-rule="nonzero"></path>
                <path d="M23.954641,66.5700084 L25.7087566,233.131555 C25.7087566,244.162845 34.7534151,253.118941 45.7714536,253.118941 L266.89965,253.118941 C277.972504,253.118941 286.962347,244.108234 286.962347,233.131555 L286.962347,66.5700084 L23.954641,66.5700084 Z" id="Shape" stroke="#054CBE" stroke-width="0.75" fill="#FFFFFF" fill-rule="nonzero"></path>
                <path d="M27.7369527,66.5700084 L28.5591944,233.131555 C28.5591944,244.162845 37.6038529,253.118941 48.6218914,253.118941 L269.750088,253.118941 C280.822942,253.118941 289.812785,244.108234 289.812785,233.131555 L289.812785,66.5700084 L27.7369527,66.5700084 Z" id="Shape" fill-opacity="0.1" fill="#054CBE" fill-rule="nonzero"></path>
                <path d="M282.028897,253.173551 L60.9007005,253.173551 C49.8278459,253.173551 40.1802102,244.162845 39.4127846,233.186166 L27.7369527,66.6246188 L289.045359,66.6246188 L300.721191,233.186166 C301.488616,244.162845 293.046935,253.173551 282.028897,253.173551 Z" id="Shape" stroke="#054CBE" stroke-width="2" fill="#FFFFFF" fill-rule="nonzero"></path>
                <path d="M41.3313485,221.608773 L30.4777583,66.5700084" id="Shape" stroke="#054CBE" opacity="0.5"></path>
                <path d="M271.065674,250.443034 L71.6446585,250.443034" id="Shape" stroke="#054CBE" opacity="0.5"></path>
                <path d="M66.3823117,246.947972 L60.7910683,246.947972 C52.9523643,246.947972 46.1551664,240.613172 45.6070053,232.803893 L45.2232925,226.960587 C45.004028,224.011628 42.4276708,221.608773 39.4676007,221.608773 C38.0423818,221.608773 36.9460595,222.810201 37.0008757,224.230069 L37.6038529,232.803893 C38.4809107,244.982 49.0604203,254.866472 61.3392294,254.866472 L69.6712785,254.866472 C71.0964974,254.866472 72.1928196,253.665044 72.1380035,252.245176 C71.9187391,249.350827 69.3423818,246.947972 66.3823117,246.947972 Z" id="Shape" stroke="#054CBE" fill="#FFFFFF" fill-rule="nonzero"></path>
                <path d="M296.50035,173.551671 L288.990543,66.5700084 L31.1355517,66.5700084 L43.6336252,155.748699 C45.1684764,166.779988 55.4739054,175.736085 66.5467601,175.736085 L163.352014,175.736085 L161.981611,200.747622 C162.091243,202.986646 163.954991,204.788787 166.202452,204.788787 L195.638704,204.788787 C196.954291,204.788787 198.050613,203.805801 198.105429,202.495153 C198.708406,194.412822 200.736602,186.876595 198.763222,177.702057 L200.188441,175.736085 L287.62014,175.736085 C290.963923,175.790695 293.978809,174.97154 296.50035,173.551671 Z" id="Shape" fill-opacity="0.1" fill="#054CBE" fill-rule="nonzero"></path>
                <path d="M286.249737,66.5700084 L297.158144,222.045656" id="Shape" stroke="#054CBE" opacity="0.5"></path>
                <path d="M275.834676,246.947972 L281.425919,246.947972 C289.264623,246.947972 295.184764,240.613172 294.636602,232.803893 L294.25289,226.960587 C294.033625,224.011628 296.281086,221.608773 299.241156,221.608773 C300.721191,221.608773 301.927145,222.75559 302.036778,224.230069 L302.639755,232.803893 C303.516813,244.982 294.25289,254.866472 282.028897,254.866472 L273.696848,254.866472 C272.216813,254.866472 271.010858,253.719655 270.901226,252.245176 C270.681961,249.350827 272.874606,246.947972 275.834676,246.947972 Z" id="Shape" stroke="#054CBE" fill="#FFFFFF" fill-rule="nonzero"></path>
                <path d="M310.149562,142.696827 L290.415762,50.2961261 C288.387566,40.6847057 279.836252,33.8038025 269.969352,33.8038025 L213.947285,33.8038025 L213.947285,33.7491921 C213.947285,30.7456233 211.48056,28.2881578 208.465674,28.2881578 L191.088967,28.2881578 C188.074081,28.2881578 185.607356,30.7456233 185.607356,33.7491921 L185.607356,33.8038025 L105.356567,33.8038025 L105.356567,33.7491921 C105.356567,30.7456233 102.889842,28.2881578 99.8749562,28.2881578 L82.4982487,28.2881578 C79.4833625,28.2881578 77.0166375,30.7456233 77.0166375,33.7491921 L77.0166375,33.8038025 L21.9264448,33.8038025 C25.6539405,33.8038025 28.0110333,44.9443125 28.3947461,46.8556745 C28.7784588,48.7670365 48.8411559,142.696827 48.8411559,142.696827 C51.1982487,153.728116 62.1614711,162.684213 73.1795096,162.684213 L294.307706,162.684213 C305.38056,162.684213 312.451839,153.673506 310.149562,142.696827 Z" id="Shape" stroke="#054CBE" stroke-width="2" fill="#FFFFFF" fill-rule="nonzero"></path>
                <path d="M204.244834,34.1314645 L185.662172,34.1314645 C185.662172,34.1314645 186.374781,28.5065992 191.308231,28.5065992 C196.241681,28.5065992 208.465674,28.3427682 208.465674,28.3427682 C208.465674,28.3427682 204.244834,28.9980923 204.244834,34.1314645 Z" id="Shape" fill-opacity="0.1" fill="#054CBE" fill-rule="nonzero"></path>
                <path d="M282.960771,159.953695 L83.5397548,159.953695" id="Shape" stroke="#054CBE" opacity="0.5"></path>
                <path d="M304.996848,131.556317 L288.058669,52.2074882 C285.811208,41.5038609 276.273205,33.8038025 265.255166,33.8038025" id="Shape" stroke="#054CBE" opacity="0.5"></path>
                <path d="M49.1152364,131.174045 C49.1152364,131.174045 31.8481611,50.1869055 31.1355517,46.9648952 C30.4229422,43.742885 28.0658494,33.8584128 25.6539405,33.8584128" id="Shape" stroke="#054CBE" opacity="0.5"></path>
                <path d="M77.784063,156.458633 L72.1928196,156.458633 C64.3541156,156.458633 56.6798599,150.123834 54.9805604,142.314555 L53.7197898,136.525858 C53.1168126,133.5769 50.1567426,131.174045 47.1966725,131.174045 C45.8262697,131.174045 44.8395797,132.430082 45.1136602,133.740731 L46.9774081,142.369165 C49.5537653,154.547271 61.61331,164.431744 73.837303,164.431744 L82.1145359,164.431744 C83.4849387,164.431744 84.5264448,163.175706 84.2523643,161.810447 C83.649387,158.861489 80.7441331,156.458633 77.784063,156.458633 Z" id="Shape" stroke="#054CBE" fill="#FFFFFF" fill-rule="nonzero"></path>
                <path d="M287.236427,156.458633 L292.827671,156.458633 C300.666375,156.458633 305.654641,150.123834 304.010158,142.314555 L302.749387,136.471248 C302.14641,133.522289 304.010158,131.119434 306.970228,131.119434 C308.505079,131.119434 309.820665,132.211641 310.149562,133.68612 L312.01331,142.314555 C314.589667,154.492661 306.805779,164.377133 294.581786,164.377133 L286.304553,164.377133 C284.714886,164.377133 283.399299,163.284926 283.070403,161.755837 C282.412609,158.861489 284.276357,156.458633 287.236427,156.458633 Z" id="Shape" stroke="#054CBE" fill="#FFFFFF" fill-rule="nonzero"></path>
                <path d="M196.022417,147.775589 L166.860245,147.775589 C165.325394,147.775589 164.11944,149.140847 164.338704,150.669937 L166.038004,162.684213 L200.298074,162.684213 L198.489142,149.960003 C198.37951,148.703965 197.283187,147.775589 196.022417,147.775589 Z" id="Shape" stroke="#054CBE" fill="#FFFFFF" fill-rule="nonzero"></path>
                <polygon id="Shape" stroke="#054CBE" fill="#FFFFFF" fill-rule="nonzero" points="205.012259 162.684213 170.149212 162.684213 165.544658 162.684213 165.544658 172.459464 169.984764 171.203426 205.012259 171.039595"></polygon>
                <path d="M165.544658,158.916099 L143.124869,136.689689 C141.535201,135.105989 141.590018,132.757744 143.179685,131.883979 C152.169527,127.078269 162.803853,124.402362 174.698949,124.402362 C185.771804,124.402362 196.844658,126.750607 207.25972,131.010213 C209.342732,131.829369 210.439054,134.232224 209.50718,135.815924 L198.982487,153.782727" id="Shape" stroke="#054CBE"></path>
                <path d="M143.070053,135.488262 C152.059895,129.972617 163.023117,126.859827 175.356743,126.859827 C186.758494,126.859827 198.105429,129.535734 208.684939,134.232224" id="Shape" stroke="#054CBE" opacity="0.5" stroke-dasharray="4,6"></path>
                <path d="M199.695096,199.109312 C201.010683,199.109312 202.161821,198.126325 202.32627,196.815677 C203.477408,188.733346 204.135201,180.214133 202.819615,171.039595 L170.03958,171.148816 L165.489842,172.404854 L164.832049,195.068146 C164.777233,197.30717 166.476532,199.109312 168.778809,199.109312 L199.695096,199.109312 Z" id="Shape" stroke="#054CBE" fill="#FFFFFF" fill-rule="nonzero"></path>
                <path d="M185.662172,199.109312 C186.758494,191.300032 187.635552,183.326922 187.032574,175.08076" id="Shape" stroke="#054CBE" opacity="0.2"></path>
                <path d="M168.504729,171.640309 C169.875131,180.978678 168.998074,190.426267 167.737303,199.163922" id="Shape" stroke="#054CBE" opacity="0.2"></path>
                <path d="M32.6155867,66.5700084 L19.2952715,66.5700084" id="Shape" stroke="#054CBE" stroke-width="2" fill="#FFFFFF" fill-rule="nonzero"></path>
                <polygon id="Shape" stroke="#054CBE" points="196.296497 171.203426 176.562697 171.203426 179.632399 175.08076 194.980911 175.08076"></polygon>
                <path d="M24.8316988,36.2066576 C24.8316988,36.2066576 26.3665499,37.4080851 29.2169877,50.7330089 C32.0674256,64.0579326 32.6155867,66.5700084 32.6155867,66.5700084 L19.2952715,66.5700084 C19.2952715,66.5700084 19.2404553,63.7848809 20.5012259,51.0606709 C21.8168126,38.3910713 24.8316988,36.2066576 24.8316988,36.2066576 Z" id="Shape" fill-opacity="0.1" fill="#054CBE" fill-rule="nonzero"></path>
                <path d="M170.149212,162.684213 L169.984764,171.203426" id="Shape" stroke="#054CBE" stroke-width="0.75"></path>
                <path d="M167.243958,162.684213 L165.544658,150.888378 C165.325394,149.250068 166.586165,147.775589 168.285464,147.775589 L170.587741,147.775589" id="Shape" stroke="#054CBE" opacity="0.2"></path>
                <path d="M172.177408,197.25256 L198.434326,197.25256 C199.475832,197.25256 200.35289,196.488015 200.572154,195.505029 C201.33958,191.682305 201.284764,189.33406 201.284764,189.33406 C201.284764,189.33406 196.789842,185.784388 187.142207,185.784388 C177.439755,185.784388 170.916637,189.33406 170.916637,189.33406 C170.807005,192.44685 170.642557,193.320615 170.368476,195.068146 C170.094396,196.269574 170.971454,197.25256 172.177408,197.25256 Z" id="Shape" fill-opacity="0.1" fill="#054CBE" fill-rule="nonzero"></path>
                <path d="M202.929247,22.0079683 L197.063923,22.0079683 C187.8,9.06531698 169.05289,0.218441373 147.400525,0.218441373 C125.748161,0.218441373 107.001051,9.06531698 97.7371278,22.0079683 L91.8718039,22.0079683 C89.6791594,22.0079683 87.8702277,23.9193303 87.8702277,26.2129648 L87.8702277,27.1959509 C87.8702277,29.4895854 89.6791594,31.4009474 91.8718039,31.4009474 L104.369877,31.4009474 C106.836602,31.4009474 109.248511,30.1995198 110.728546,28.1243268 C117.361296,18.9497891 131.284588,12.6695996 147.345709,12.6695996 C163.40683,12.6695996 177.330123,19.0043995 183.962872,28.1243268 C185.497723,30.1995198 187.854816,31.4009474 190.321541,31.4009474 L202.819615,31.4009474 C205.012259,31.4009474 206.821191,29.4895854 206.821191,27.1959509 L206.821191,26.2129648 C206.876007,23.9193303 205.121891,22.0079683 202.929247,22.0079683 Z" id="Shape" stroke="#054CBE" stroke-width="2" fill="#FFFFFF" fill-rule="nonzero"></path>
                <path d="M196.077233,28.3973785 C193.939405,28.3973785 191.966025,27.359782 190.705254,25.6668613 C182.263573,14.3079099 167.134326,6.77168256 149.86725,6.77168256 C132.81944,6.77168256 117.854641,14.1440789 109.358144,25.2299786 C107.823292,27.2505613 105.4662,28.3973785 103.054291,28.3973785 L87.9250438,28.3973785 C88.4183888,30.1449095 89.9532399,31.4009474 91.7621716,31.4009474 L104.315061,31.4009474 C106.781786,31.4009474 109.193695,30.1995198 110.728546,28.1243268 C117.416112,18.9497891 131.284588,12.6695996 147.400525,12.6695996 C163.516462,12.6695996 177.384939,19.0043995 184.072504,28.1243268 C185.607356,30.1995198 187.964448,31.4009474 190.485989,31.4009474 L203.038879,31.4009474 C204.847811,31.4009474 206.382662,30.1449095 206.876007,28.3973785 L196.077233,28.3973785 Z" id="Shape" fill-opacity="0.1" fill="#054CBE" fill-rule="nonzero"></path>
                <path d="M97.791944,22.117189 L105.904729,22.117189 C107.823292,22.117189 109.41296,23.700889 109.41296,25.612251" id="Shape" stroke="#054CBE" opacity="0.5"></path>
                <path d="M205.231524,33.8038025 L186.045884,33.8038025" id="Shape" stroke="#054CBE" opacity="0.5"></path>
                <path d="M105.356567,34.1314645 C105.356567,31.1278957 102.889842,28.6704302 99.8749562,28.6704302 L82.4982487,28.6704302 C79.4833625,28.6704302 77.0166375,31.1278957 77.0166375,34.1314645" id="Shape" stroke="#054CBE" stroke-width="2" fill="#FFFFFF" fill-rule="nonzero"></path>
                <path d="M97.6823117,34.7867887 C96.9697023,34.0768542 96.9697023,32.930037 97.6823117,32.2747129 L104.040981,25.939913 C104.75359,25.2299786 105.904729,25.2299786 106.562522,25.939913 C107.275131,26.6498475 107.275131,27.7966647 106.562522,28.4519888 L100.203853,34.7867887 C99.5460595,35.4967231 98.3949212,35.4967231 97.6823117,34.7867887 Z" id="Shape" stroke="#054CBE" stroke-width="2" fill="#FFFFFF" fill-rule="nonzero"></path>
                <path d="M201.832925,25.8853027 C202.545534,25.1753682 203.641856,25.1753682 204.354466,25.8853027 L210.713135,32.2201025 C211.425744,32.930037 211.425744,34.0222439 210.713135,34.7321783 C210.000525,35.4421128 208.904203,35.4421128 208.191594,34.7321783 L201.832925,28.3973785 C201.120315,27.7420544 201.120315,26.5952372 201.832925,25.8853027 Z" id="Shape" stroke="#054CBE" stroke-width="2" fill="#FFFFFF" fill-rule="nonzero"></path>
                <path d="M202.819615,171.039595 L203.148511,173.988554" id="Shape" stroke="#054CBE"></path>
            </g>
            <g id="Group" transform="translate(176.000000, 202.000000)">
                <path d="M32.0113636,20.9978134 C11.8195804,20.9978134 4.3229021,28.8990525 0.328321678,39.7226676 L135.870455,39.7226676 L135.870455,20.8354592 L32.0113636,20.9978134 Z" id="Shape" stroke="#054CBE" stroke-width="2" fill="#FFFFFF" fill-rule="nonzero"></path>
                <path d="M34.2001748,20.9978134 C14.0083916,20.9978134 6.51171329,28.8990525 2.51713287,39.7226676 L138.059266,39.7226676 L138.059266,20.8354592 L34.2001748,20.9978134 Z" id="Shape" fill-opacity="0.1" fill="#054CBE" fill-rule="nonzero"></path>
                <path d="M21.6692308,22.3507653 C13.8442308,24.7319606 11.1082168,26.1931487 6.78531469,31.6590743 C0.383041958,39.7767857 18.5501748,35.663812 18.5501748,35.663812 L21.6692308,22.3507653 Z" id="Shape" fill-opacity="0.1" fill="#054CBE" fill-rule="nonzero"></path>
                <path d="M186.815035,52.9815962 L28.947028,52.819242 C20.0276224,52.819242 12.8045455,45.675656 12.8045455,36.8544096 C12.8045455,28.0331633 20.0276224,20.8895773 28.947028,20.8895773 L186.815035,20.8895773 L186.815035,52.9815962 Z" id="Shape" stroke="#054CBE" stroke-width="2" fill="#FFFFFF" fill-rule="nonzero"></path>
                <path d="M188.730245,52.9815962 L30.8622378,52.819242 C21.9428322,52.819242 14.7197552,45.675656 14.7197552,36.8544096 C14.7197552,28.0331633 21.9428322,20.8895773 30.8622378,20.8895773 L188.730245,20.8895773 L188.730245,52.9815962 Z" id="Shape" fill-opacity="0.1" fill="#054CBE" fill-rule="nonzero"></path>
                <path d="M188.730245,52.9815962 L30.8622378,52.8733601 C21.9428322,52.8733601 14.7197552,44.8097668 14.7197552,36.8544096 C14.7197552,31.2261297 21.9428322,32.6331997 30.8622378,32.6331997 L188.730245,32.6331997 L188.730245,52.9815962 Z" id="Shape" fill-opacity="0.1" fill="#054CBE" fill-rule="nonzero"></path>
                <path d="M141.178322,48.7062682 L32.6132867,48.7062682 C26.211014,48.7062682 20.9578671,43.5109329 20.9578671,37.125 C20.9578671,30.7390671 26.1562937,25.5437318 32.6132867,25.5437318 L146.376748,25.5437318 L141.178322,48.7062682 Z" id="Shape" stroke="#054CBE" fill="#FFFFFF" fill-rule="nonzero"></path>
                <path d="M142.87465,48.7062682 L34.3096154,48.7062682 C27.9073427,48.7062682 22.6541958,43.5109329 22.6541958,37.125 C22.6541958,30.7390671 27.8526224,25.5437318 34.3096154,25.5437318 L148.073077,25.5437318 L142.87465,48.7062682 Z" id="Shape" fill-opacity="0.1" fill="#054CBE" fill-rule="nonzero"></path>
                <path d="M142.87465,48.7062682 L34.3096154,48.7062682 C27.9073427,48.7062682 22.7636364,43.565051 22.7636364,38.3697157 C22.7636364,34.4732143 27.9073427,34.5814504 34.3096154,34.5814504 L148.073077,34.5814504 L142.87465,48.7062682 Z" id="Shape" fill-opacity="0.1" fill="#054CBE" fill-rule="nonzero"></path>
                <path d="M145.446503,44.2144679 L36.8814685,44.2144679 C30.4791958,44.2144679 25.226049,39.0191327 25.226049,32.6331997 C36.2795455,32.6331997 145.501224,32.6331997 145.501224,32.6331997 L145.446503,44.2144679 Z" id="Shape" stroke="#054CBE" stroke-width="0.75" fill="#FFFFFF" fill-rule="nonzero"></path>
                <path d="M147.142832,44.2144679 L38.5777972,44.2144679 C32.1755245,44.2144679 26.9223776,39.0191327 26.9223776,32.6331997 C37.9758741,32.6331997 147.197552,32.6331997 147.197552,32.6331997 L147.142832,44.2144679 Z" id="Shape" fill-opacity="0.1" fill="#054CBE" fill-rule="nonzero"></path>
                <path d="M4.21346154,15.9648324 C9.46660839,19.2119169 16.3066434,21.0519315 25.1713287,21.0519315 L31.1905594,21.0519315 L186.815035,21.0519315 L186.815035,15.9648324 L4.21346154,15.9648324 Z" id="Shape" stroke="#054CBE" stroke-width="2" fill="#FFFFFF" fill-rule="nonzero"></path>
                <path d="M8.97412587,15.9648324 C14.2272727,19.2119169 21.0673077,21.0519315 29.931993,21.0519315 L35.9512238,21.0519315 L191.520979,21.0519315 L191.520979,15.9648324 L8.97412587,15.9648324 Z" id="Shape" fill-opacity="0.1" fill="#054CBE" fill-rule="nonzero"></path>
                <path d="M14.4461538,15.9648324 C19.6993007,19.2119169 26.5393357,21.0519315 35.404021,21.0519315 L41.4232517,21.0519315 L197.047727,21.0519315 L197.047727,15.9648324 L14.4461538,15.9648324 Z" id="Shape" fill-opacity="0.1" fill="#054CBE" fill-rule="nonzero"></path>
                <path d="M109.221678,31.3343659 L29.931993,31.3343659 C29.931993,38.4779519 33.9265734,44.2144679 38.8513986,44.2144679 L109.714161,44.2144679 L109.221678,31.3343659 Z" id="Shape" stroke="#054CBE" stroke-width="0.75" fill="#FFFFFF" fill-rule="nonzero"></path>
                <path d="M110.972727,31.3343659 L31.6283217,31.3343659 C31.6283217,38.3697157 35.6229021,44.1062318 40.5477273,44.1062318 L111.41049,44.1062318 L110.972727,31.3343659 Z" id="Shape" fill-opacity="0.1" fill="#054CBE" fill-rule="nonzero"></path>
                <path d="M35.6776224,29.2237609 C35.6776224,37.5038265 39.0155594,44.2144679 43.1743007,44.2144679 L104.132692,44.2144679 L104.132692,29.2237609 L35.6776224,29.2237609 Z" id="Shape" stroke="#054CBE" stroke-width="0.75" fill="#FFFFFF" fill-rule="nonzero"></path>
                <path d="M37.3192308,29.2237609 C37.3192308,37.4497085 40.6571678,44.1062318 44.8159091,44.1062318 L105.774301,44.1062318 L105.774301,29.2237609 L37.3192308,29.2237609 Z" id="Shape" fill-opacity="0.1" fill="#054CBE" fill-rule="nonzero"></path>
                <path d="M54.2825175,25.5978499 C59.4809441,25.5978499 63.6944056,29.7649417 63.6944056,34.9061589 C63.6944056,40.0473761 59.4809441,44.2144679 54.2825175,44.2144679 L185.665909,44.2144679 C190.864336,44.2144679 195.077797,40.0473761 195.077797,34.9061589 C195.077797,29.7649417 190.864336,25.5978499 185.665909,25.5978499 L169.249825,25.5978499 L54.2825175,25.5978499 L68.673951,25.5978499" id="Shape" stroke="#054CBE" stroke-width="0.75" fill="#FFFFFF" fill-rule="nonzero"></path>
                <path d="M56.1977273,25.5978499 C61.3961538,25.5978499 65.6096154,29.7649417 65.6096154,34.9061589 C65.6096154,40.0473761 61.3961538,44.2144679 56.1977273,44.2144679 L187.581119,44.2144679 C192.779545,44.2144679 196.993007,40.0473761 196.993007,34.9061589 C196.993007,29.7649417 192.779545,25.5978499 187.581119,25.5978499 L171.165035,25.5978499 L56.1977273,25.5978499 L70.5891608,25.5978499" id="Shape" fill-opacity="0.1" fill="#054CBE" fill-rule="nonzero"></path>
                <path d="M59.3715035,21.0519315 C67.0870629,21.0519315 73.3798951,27.2755102 73.3798951,34.9061589 C73.3798951,42.5368076 67.1417832,48.7062682 59.3715035,48.7062682 L254.449301,48.7062682 C262.16486,48.7062682 268.457692,42.4826895 268.457692,34.8520408 C268.457692,27.2213921 262.16486,20.9978134 254.449301,20.9978134 L230.098776,20.9978134 L59.3715035,20.9978134 L80.7124126,20.9978134" id="Shape" stroke="#054CBE" stroke-width="0.75" fill="#FFFFFF" fill-rule="nonzero"></path>
                <path d="M61.1772727,21.0519315 C68.8928322,21.0519315 75.1856643,27.2755102 75.1856643,34.9061589 C75.1856643,42.5368076 68.8928322,48.7062682 61.1772727,48.7062682 L256.25507,48.7062682 C263.970629,48.7062682 270.263462,42.4826895 270.263462,34.8520408 C270.263462,27.2213921 263.970629,20.9978134 256.25507,20.9978134 L231.904545,20.9978134 L61.1772727,20.9978134 L82.5181818,20.9978134" id="Shape" fill-opacity="0.1" fill="#054CBE" fill-rule="nonzero"></path>
                <path d="M60.0828671,17.5342566 C68.7833916,17.5342566 75.8423077,24.5154883 75.8423077,33.1202624 C75.8423077,41.7250364 68.7833916,48.7062682 60.0828671,48.7062682 L279.894231,48.7062682 C288.594755,48.7062682 295.653671,41.7250364 295.653671,33.1202624 C295.653671,24.5154883 288.594755,17.5342566 279.894231,17.5342566 L252.42465,17.5342566 L60.0828671,17.5342566 L84.1050699,17.5342566" id="Shape" stroke="#054CBE" fill="#FFFFFF" fill-rule="nonzero"></path>
                <path d="M62.1075175,17.5342566 C70.808042,17.5342566 77.866958,24.5154883 77.866958,33.1202624 C77.866958,41.7250364 70.808042,48.7062682 62.1075175,48.7062682 L281.918881,48.7062682 C290.619406,48.7062682 297.678322,41.7250364 297.678322,33.1202624 C297.678322,24.5154883 290.619406,17.5342566 281.918881,17.5342566 L254.449301,17.5342566 L62.1075175,17.5342566 L86.1297203,17.5342566" id="Shape" fill-opacity="0.1" fill="#054CBE" fill-rule="nonzero"></path>
                <path d="M227.526923,9.57889942 L7.71555944,9.57889942 C12.0384615,14.3954082 19.3162587,17.4801385 32.6132867,17.4801385 L227.526923,17.4801385 L227.526923,9.57889942 Z" id="Shape" stroke="#054CBE" stroke-width="2" fill="#FFFFFF" fill-rule="nonzero"></path>
                <path d="M230.81014,9.57889942 L10.9987762,9.57889942 C15.3216783,14.3954082 22.5994755,17.4801385 35.8965035,17.4801385 L230.81014,17.4801385 L230.81014,9.57889942 Z" id="Shape" fill-opacity="0.1" fill="#054CBE" fill-rule="nonzero"></path>
                <path d="M237.759615,9.57889942 L17.9482517,9.57889942 C22.2711538,14.3954082 29.548951,17.4801385 42.845979,17.4801385 L237.759615,17.4801385 L237.759615,9.57889942 Z" id="Shape" fill-opacity="0.1" fill="#054CBE" fill-rule="nonzero"></path>
                <path d="M73.3251748,52.9815962 C84.1597902,52.9815962 92.9697552,44.268586 92.9697552,33.553207 C92.9697552,22.837828 84.1597902,14.1248178 73.3251748,14.1248178 L32.7227273,14.1248178 C23.7486014,14.1248178 16.1972028,8.17182945 13.8442308,0.108236152 L233.655594,0.108236152 C236.008566,8.22594752 243.559965,14.1248178 252.534091,14.1248178 L293.136538,14.1248178 C303.971154,14.1248178 312.781119,22.837828 312.781119,33.553207 C312.781119,44.268586 303.971154,52.9815962 293.136538,52.9815962 L73.3251748,52.9815962 Z" id="Shape" stroke="#054CBE" stroke-width="2" fill="#FFFFFF" fill-rule="nonzero"></path>
                <path d="M60.0828671,20.9978134 L70.3155594,20.9978134" id="Shape" stroke="#054CBE" stroke-width="2"></path>
                <path d="M252.588811,14.1248178 L73.3251748,14.1248178" id="Shape" stroke="#054CBE" stroke-width="0.75" fill="#FFFFFF" fill-rule="nonzero"></path>
                <path d="M197.157168,21.1060496 L149.933566,21.1060496 C151.082692,22.4590015 152.012937,23.9743076 152.779021,25.5978499 L200.002622,25.5978499 C199.236538,23.9743076 198.306294,22.4590015 197.157168,21.1060496 Z" id="Shape" fill-opacity="0.5" fill="#054CBE" fill-rule="nonzero"></path>
                <g transform="translate(134.611888, 14.070700)" fill="#054CBE" fill-opacity="0.1" fill-rule="nonzero" id="Shape">
                    <path d="M58.5506993,3.46355685 C55.3769231,1.3529519 51.6012238,0.108236152 47.4972028,0.108236152 L0.273601399,0.108236152 C4.37762238,0.108236152 8.20804196,1.3529519 11.3270979,3.46355685 L58.5506993,3.46355685 Z"></path>
                    <path d="M19.370979,15.0989431 C19.6993007,16.5060131 19.8634615,17.9672012 19.8634615,19.4825073 C19.8634615,30.1978863 11.0534965,38.9108965 0.218881119,38.9108965 L47.4424825,38.9108965 C58.2770979,38.9108965 67.0870629,30.1978863 67.0870629,19.4825073 C67.0870629,17.9672012 66.9229021,16.5060131 66.5945804,15.0989431 L19.370979,15.0989431 Z"></path>
                </g>
                <g transform="translate(83.174825, 14.070700)" fill="#054CBE" fill-opacity="0.1" fill-rule="nonzero" id="Shape">
                    <path d="M14.281993,33.3367347 C10.7251748,36.8002915 5.85506993,38.9108965 0.492482517,38.9108965 L47.7160839,38.9108965 C53.0786713,38.9108965 57.9487762,36.8002915 61.5055944,33.3367347 L14.281993,33.3367347 Z"></path>
                    <path d="M20.1370629,19.4825073 C20.1370629,22.8919461 19.2615385,26.0849125 17.7293706,28.8449344 L64.952972,28.8449344 C66.4851399,26.0849125 67.3606643,22.8919461 67.3606643,19.4825073 C67.3606643,8.76712828 58.5506993,0.0541180758 47.7160839,0.0541180758 L0.492482517,0.0541180758 C11.3818182,0.0541180758 20.1370629,8.76712828 20.1370629,19.4825073 Z"></path>
                </g>
                <path d="M256.145629,37.125 C254.449301,46.1627187 246.46014,52.9815962 236.829371,52.9815962 L284.052972,52.9815962 C293.683741,52.9815962 301.672902,46.1627187 303.369231,37.125 L256.145629,37.125 Z" id="Shape" fill-opacity="0.1" fill="#054CBE" fill-rule="nonzero"></path>
                <path d="M256.473951,32.6331997 L303.697552,32.6331997 C303.20507,22.3507653 294.613986,14.1248178 284.107692,14.1248178 L236.884091,14.1248178 C247.390385,14.1248178 255.981469,22.3507653 256.473951,32.6331997 Z" id="Shape" fill-opacity="0.1" fill="#054CBE" fill-rule="nonzero"></path>
                <path d="M205.36521,33.553207 C205.36521,35.71793 204.982168,37.7744169 204.325524,39.7226676 L251.549126,39.7226676 C252.205769,37.7744169 252.588811,35.71793 252.588811,33.553207 C252.588811,22.837828 243.778846,14.1248178 232.944231,14.1248178 L185.720629,14.1248178 C196.555245,14.1248178 205.36521,22.837828 205.36521,33.553207 Z" id="Shape" fill-opacity="0.1" fill="#054CBE" fill-rule="nonzero"></path>
                <path d="M202.136713,44.2144679 C198.634615,49.4639213 192.615385,52.9815962 185.720629,52.9815962 L232.944231,52.9815962 C239.784266,52.9815962 245.858217,49.5180394 249.360315,44.2144679 L202.136713,44.2144679 Z" id="Shape" fill-opacity="0.5" fill="#054CBE" fill-rule="nonzero"></path>
                <path d="M227.198601,5.41180758 L24.3505245,5.41180758 C25.827972,7.57653061 27.6884615,9.41654519 29.8772727,10.8236152 L232.72535,10.8236152 C230.536538,9.41654519 228.621329,7.57653061 227.198601,5.41180758 Z" id="Shape" fill-opacity="0.1" fill="#054CBE" fill-rule="nonzero"></path>
                <path d="M62.1075175,48.7062682 L85.3636364,48.7062682 C85.3636364,48.7062682 92.9697552,44.268586 92.9697552,33.553207 C87.4977273,29.981414 77.8122378,28.8990525 77.8122378,34.9061589 C77.8122378,40.9132653 72.4496503,48.0568513 62.1075175,48.7062682 Z" id="Shape" fill-opacity="0.1" fill="#054CBE" fill-rule="nonzero"></path>
                <path d="M73.3798951,35.5014577 C73.3798951,31.3343659 65.6643357,32.092019 65.6643357,34.9061589 C65.6643357,37.7202988 63.8038462,44.2144679 56.2524476,44.2144679 C65.2265734,44.2144679 69.7683566,44.2144679 69.7683566,44.2144679 C69.7683566,44.2144679 73.3798951,39.9391399 73.3798951,35.5014577 Z" id="Shape" fill-opacity="0.1" fill="#054CBE" fill-rule="nonzero"></path>
                <path d="M54.2825175,44.2144679 C48.8652098,44.2144679 48.1538462,44.2144679 44.7611888,44.2144679 C41.3685315,44.2144679 39.125,39.4520773 38.1947552,36.2591108 C37.2097902,33.0661443 45.581993,32.9579082 50.8898601,33.4990889 C57.511014,34.1485058 63.1472028,37.7202988 63.1472028,37.7202988 C63.1472028,37.7202988 61.4508741,44.2144679 54.2825175,44.2144679 Z" id="Shape" fill-opacity="0.1" fill="#054CBE" fill-rule="nonzero"></path>
            </g>
            <g id="Group" transform="translate(186.000000, 178.000000)" stroke="#054CBE">
                <g fill="#FFFFFF" fill-rule="nonzero" id="Shape">
                    <path d="M12.8916667,6.14193548 L12.6208333,9.96129032 L5.90416667,15.8967742 L0.270833333,9.96129032 L0.541666667,6.03870968 C2.70833333,4.12903226 4.92916667,2.21935484 7.09583333,0.258064516 C9.04583333,2.21935484 10.9416667,4.18064516 12.8916667,6.14193548 Z"></path>
                    <path d="M2.22083333,4.54193548 C2.38333333,4.7483871 2.87083333,5.26451613 3.575,5.31612903 C3.9,5.36774194 4.17083333,5.26451613 4.55,5.16129032 C4.55,5.16129032 5.25416667,4.95483871 6.825,3.97419355 C8.72083333,5.98709677 10.6708333,7.9483871 12.5666667,9.96129032"></path>
                    <path d="M5.09166667,11.716129 L7.69166667,14.2967742"></path>
                    <path d="M6.71666667,10.2709677 L9.31666667,12.8516129"></path>
                    <path d="M8.39583333,8.82580645 L10.9416667,11.4064516"></path>
                </g>
                <path d="M0.270833333,9.96129032 L6.87916667,4.12903226" id="Shape" opacity="0.2"></path>
                <path d="M6.87916667,4.12903226 L7.15,0.258064516" id="Shape" opacity="0.2"></path>
            </g>
            <g id="Group" transform="translate(0.000000, 199.000000)" fill-rule="nonzero">
                <path d="M138.985714,56.5114286 L2.23204633,56.5114286 C1.1976834,56.5114286 0.381081081,55.6971429 0.381081081,54.6657143 L0.381081081,2.22571429 C0.381081081,1.19428571 1.1976834,0.38 2.23204633,0.38 L138.985714,0.38 C140.020077,0.38 140.83668,1.19428571 140.83668,2.22571429 L140.83668,54.6657143 C140.83668,55.6971429 140.020077,56.5114286 138.985714,56.5114286 Z" id="Shape" stroke="#054CBE" stroke-width="2" fill="#FFFFFF"></path>
                <path d="M0.381081081,11.8342857 L140.83668,11.8342857" id="Shape" stroke-opacity="0.3" stroke="#054CBE" stroke-width="0.75" fill="#FFFFFF"></path>
                <path d="M50.6293436,0.38 L50.6293436,56.5114286" id="Shape" stroke="#054CBE" stroke-width="0.75" fill="#FFFFFF"></path>
                <path d="M0.381081081,7.65428571 L140.83668,7.65428571" id="Shape" stroke="#054CBE" stroke-width="0.75" fill="#FFFFFF"></path>
                <path d="M0.381081081,15.96 L140.727799,15.96" id="Shape" stroke="#054CBE" stroke-width="0.75" fill="#FFFFFF"></path>
                <path d="M0.381081081,18.5114286 L140.83668,18.5114286" id="Shape" stroke-opacity="0.2" stroke="#054CBE" stroke-width="0.75" fill="#FFFFFF"></path>
                <path d="M0.381081081,26.7628571 L140.83668,26.7628571" id="Shape" stroke-opacity="0.2" stroke="#054CBE" stroke-width="0.75" fill="#FFFFFF"></path>
                <path d="M0.381081081,38.3257143 L140.83668,38.3257143" id="Shape" stroke-opacity="0.2" stroke="#054CBE" stroke-width="0.75" fill="#FFFFFF"></path>
                <path d="M0.381081081,4.12571429 L140.83668,4.12571429" id="Shape" stroke-opacity="0.2" stroke="#054CBE" stroke-width="0.75" fill="#FFFFFF"></path>
                <path d="M140.83668,30.2371429 L0.381081081,30.2371429" id="Shape" stroke-opacity="0.4" stroke="#054CBE" stroke-width="0.75" fill="#FFFFFF"></path>
                <path d="M0.381081081,31.7028571 L140.83668,31.7028571" id="Shape" stroke="#054CBE" stroke-width="0.75" fill="#FFFFFF"></path>
                <path d="M140.83668,36.5885714 L0.272200772,36.5885714" id="Shape" stroke="#054CBE" stroke-width="0.75" fill="#FFFFFF"></path>
                <path d="M0.381081081,43.1028571 L140.83668,43.1028571" id="Shape" stroke-opacity="0.5" stroke="#054CBE" stroke-width="0.75" fill="#FFFFFF"></path>
                <path d="M140.83668,49.6714286 L0.381081081,49.6714286" id="Shape" stroke="#054CBE" stroke-width="0.75" fill="#FFFFFF"></path>
                <path d="M0.381081081,52.4942857 L140.83668,52.4942857" id="Shape" stroke-opacity="0.3" stroke="#054CBE" stroke-width="0.75" fill="#FFFFFF"></path>
                <path d="M48.7783784,56.5114286 L2.23204633,56.5114286 C1.1976834,56.5114286 0.381081081,55.6971429 0.381081081,54.6657143 L0.381081081,2.22571429 C0.381081081,1.19428571 1.1976834,0.38 2.23204633,0.38 L48.8328185,0.38 C49.8671815,0.38 50.6837838,1.19428571 50.6837838,2.22571429 L50.6837838,54.6657143 C50.6293436,55.6971429 49.8127413,56.5114286 48.7783784,56.5114286 Z" id="Shape" fill-opacity="0.1" fill="#054CBE"></path>
                <path d="M110.459073,56.5114286 L80.6258687,56.5114286 C79.5915058,56.5114286 78.7749035,55.6971429 78.7749035,54.6657143 L78.7749035,2.22571429 C78.7749035,1.19428571 79.5915058,0.38 80.6258687,0.38 L110.459073,0.38 C111.493436,0.38 112.310039,1.19428571 112.310039,2.22571429 L112.310039,54.6657143 C112.310039,55.6971429 111.493436,56.5114286 110.459073,56.5114286 Z" id="Shape" stroke="#054CBE" stroke-width="2" fill="#FFFFFF"></path>
                <path d="M83.6200772,56.5114286 C82.5857143,56.5114286 81.769112,55.6971429 81.769112,54.6657143 L81.769112,2.22571429 C81.769112,1.19428571 82.5857143,0.38 83.6200772,0.38 C84.6544402,0.38 85.4710425,1.19428571 85.4710425,2.22571429 L85.4710425,54.6657143 C85.4710425,55.6971429 84.6544402,56.5114286 83.6200772,56.5114286 Z" id="Shape" fill-opacity="0.1" fill="#054CBE"></path>
                <path d="M107.573745,56.5114286 C106.539382,56.5114286 105.72278,55.6971429 105.72278,54.6657143 L105.72278,2.22571429 C105.72278,1.19428571 106.539382,0.38 107.573745,0.38 C108.608108,0.38 109.42471,1.19428571 109.42471,2.22571429 L109.42471,54.6657143 C109.42471,55.6971429 108.608108,56.5114286 107.573745,56.5114286 Z" id="Shape" fill-opacity="0.1" fill="#054CBE"></path>
            </g>
        </g>
    </g>
</svg>