<?xml version="1.0" encoding="UTF-8"?>
<svg width="494px" height="315px" viewBox="0 0 494 315" version="1.1" xmlns="http://www.w3.org/2000/svg" xmlns:xlink="http://www.w3.org/1999/xlink">
    <!-- Generator: sketchtool 48.2 (47327) - http://www.bohemiancoding.com/sketch -->
    <title>E102FD52-19A6-438F-A38C-48B9A5D5B1EF</title>
    <desc>Created with sketchtool.</desc>
    <defs></defs>
    <g id="pic/traders" stroke="none" stroke-width="1" fill="none" fill-rule="evenodd">
        <g id="pic-traders" transform="translate(0.000000, 74.000000)">
            <g id="Group">
                <path d="M269.471161,18.0551724 L22.6928839,18.0551724 C10.3348315,18.0551724 0.328089888,28.0675862 0.328089888,40.4326437 L0.328089888,211.354943 C0.328089888,223.72 10.3348315,233.732414 22.6928839,233.732414 L269.471161,233.732414 C281.829213,233.732414 291.835955,223.72 291.835955,211.354943 L291.835955,40.4326437 C291.890637,28.0675862 281.829213,18.0551724 269.471161,18.0551724 Z" id="Shape" stroke="#054CBE" stroke-width="2" fill="#FFFFFF" fill-rule="nonzero"></path>
                <path d="M50.3071161,212.722759 L50.3071161,39.0648276 C50.3071161,30.6390805 57.1423221,23.8 65.5632959,23.8 L270.838202,23.8 C279.259176,23.8 286.094382,30.6390805 286.094382,39.0648276 L286.094382,212.722759 C286.094382,221.148506 279.259176,227.987586 270.838202,227.987586 L65.5632959,227.987586 C57.1423221,227.987586 50.3071161,221.148506 50.3071161,212.722759 Z" id="Shape" stroke="#054CBE" stroke-width="0.75"></path>
                <path d="M277.454682,88.6344828 L59.1655431,88.6344828 C57.2516854,88.6344828 55.7205993,87.1025287 55.7205993,85.1875862 L55.7205993,61.9894253 C55.7205993,60.0744828 57.2516854,58.5425287 59.1655431,58.5425287 L277.454682,58.5425287 C279.368539,58.5425287 280.899625,60.0744828 280.899625,61.9894253 L280.899625,85.1875862 C280.844944,87.1025287 279.313858,88.6344828 277.454682,88.6344828 Z" id="Shape" fill-opacity="0.1" fill="#054CBE" fill-rule="nonzero"></path>
                <path d="M277.454682,208.345747 L59.1655431,208.345747 C57.2516854,208.345747 55.7205993,206.813793 55.7205993,204.898851 L55.7205993,181.70069 C55.7205993,179.785747 57.2516854,178.253793 59.1655431,178.253793 L277.454682,178.253793 C279.368539,178.253793 280.899625,179.785747 280.899625,181.70069 L280.899625,204.898851 C280.844944,206.813793 279.313858,208.345747 277.454682,208.345747 Z" id="Shape" fill-opacity="0.1" fill="#054CBE" fill-rule="nonzero"></path>
                <path d="M278.657678,166.490575 L57.9625468,166.490575 C56.7595506,166.490575 55.7752809,165.505747 55.7752809,164.302069 L55.7752809,156.368736 C55.7752809,155.165057 56.7595506,154.18023 57.9625468,154.18023 L278.71236,154.18023 C279.915356,154.18023 280.899625,155.165057 280.899625,156.368736 L280.899625,164.302069 C280.844944,165.505747 279.860674,166.490575 278.657678,166.490575 Z" id="Shape" fill-opacity="0.1" fill="#054CBE" fill-rule="nonzero"></path>
                <path d="M187.940824,18.0004598 L187.940824,8.86344828 C187.940824,7.27678161 189.253184,5.96367816 190.838951,5.96367816 L191.440449,5.96367816 C195.158801,5.96367816 198.713109,7.44091954 201.337828,10.0671264 L209.37603,18.0551724 L187.940824,18.0004598 Z" id="Shape" stroke="#054CBE" stroke-width="2" fill="#FFFFFF" fill-rule="nonzero"></path>
                <path d="M187.940824,18.0004598 L187.940824,8.86344828 C187.940824,7.27678161 189.253184,5.96367816 190.838951,5.96367816 L191.440449,5.96367816 C195.158801,5.96367816 198.713109,7.44091954 201.337828,10.0671264 L209.37603,18.0551724 L187.940824,18.0004598 Z" id="Shape" stroke="#054CBE" stroke-width="2" fill="#FFFFFF" fill-rule="nonzero"></path>
                <path d="M209.37603,18.0004598 L195.869663,18.0004598 L195.869663,10.9972414 C195.869663,9.13701149 194.338577,7.60505747 192.479401,7.60505747 L187.940824,7.60505747 L187.940824,18.0004598 L209.37603,18.0004598 Z" id="Shape" fill-opacity="0.1" fill="#054CBE" fill-rule="nonzero"></path>
                <path d="M192.752809,9.08229885 C192.752809,10.8878161 191.549813,12.4197701 189.8,12.8574713 C184.714607,14.0611494 172.629963,16.0855172 149.608989,16.0855172 C124.291386,16.0855172 112.15206,13.6234483 108.105618,12.5291954 C107.121348,12.2556322 106.465169,11.3802299 106.465169,10.3954023 L106.465169,7.55034483 C106.465169,6.62022989 107.066667,5.74482759 107.996255,5.41655172 C112.261423,3.93931034 125.658427,0.109425287 149.66367,0.109425287 C171.755056,0.109425287 184.878652,3.33747126 190.12809,5.03356322 C191.713858,5.52597701 192.807491,7.00321839 192.807491,8.69931034 L192.807491,9.08229885 L192.752809,9.08229885 Z" id="Shape" stroke="#054CBE" stroke-width="2" fill="#FFFFFF" fill-rule="nonzero"></path>
                <path d="M122.213483,7.60505747 C122.377528,8.97287356 122.213483,10.285977 121.885393,11.4349425 C121.666667,12.2009195 121.994757,12.748046 122.7603,12.8027586 C123.143071,12.8574713 123.580524,12.9121839 124.017978,12.9121839 C124.947566,13.0216092 126.314607,12.4197701 126.75206,11.5443678 C127.353558,10.3954023 127.681648,9.02758621 127.517603,7.60505747 C127.462921,6.83908046 127.244195,6.07310345 126.916105,5.41655172 C126.478652,4.43172414 125.002247,3.82988506 124.017978,3.99402299 C123.525843,4.04873563 123.033708,4.15816092 122.541573,4.26758621 C121.77603,4.37701149 121.557303,4.97885057 121.77603,5.74482759 C121.994757,6.29195402 122.10412,6.8937931 122.213483,7.60505747 Z" id="Shape" fill="#054CBE" fill-rule="nonzero" opacity="0.2"></path>
                <path d="M140.094382,7.60505747 C140.203745,9.52 139.875655,11.2708046 139.492884,12.6386207 C139.274157,13.4045977 139.656929,13.9517241 140.531835,13.9517241 C140.859925,13.9517241 141.188015,13.9517241 141.516105,13.9517241 C142.445693,13.9517241 143.594007,13.4593103 144.140824,12.6386207 C145.070412,11.216092 145.617228,9.46528736 145.562547,7.55034483 C145.507865,6.07310345 145.01573,4.70528736 144.359551,3.55632184 C143.867416,2.73563218 142.609738,2.1337931 141.68015,2.18850575 C141.242697,2.18850575 140.859925,2.24321839 140.422472,2.24321839 C139.547566,2.29793103 139.219476,2.84505747 139.438202,3.61103448 C139.71161,4.81471264 139.985019,6.18252874 140.094382,7.60505747 Z" id="Shape" fill="#054CBE" fill-rule="nonzero" opacity="0.2"></path>
                <path d="M157.865918,7.60505747 C157.975281,9.52 157.647191,11.3255172 157.209738,12.748046 C156.991011,13.514023 157.373783,14.0611494 158.358052,14.0611494 C158.686142,14.0611494 159.014232,14.0611494 159.342322,14.0611494 C160.217228,14.0611494 161.365543,13.514023 161.857678,12.748046 C162.787266,11.3255172 163.388764,9.57471264 163.279401,7.60505747 C163.224719,6.12781609 162.732584,4.70528736 162.021723,3.5016092 C161.58427,2.73563218 160.435955,2.18850575 159.561049,2.1337931 C159.123596,2.1337931 158.686142,2.07908046 158.248689,2.07908046 C157.264419,2.07908046 156.826966,2.6262069 157.100375,3.44689655 C157.483146,4.70528736 157.811236,6.12781609 157.865918,7.60505747 Z" id="Shape" fill="#054CBE" fill-rule="nonzero" opacity="0.2"></path>
                <path d="M177.059176,7.60505747 C177.223221,9.02758621 177.059176,10.3954023 176.676404,11.5443678 C176.402996,12.4197701 176.895131,13.0216092 177.988764,12.9121839 C178.480899,12.8574713 178.973034,12.8027586 179.410487,12.8027586 C180.285393,12.6933333 181.324345,12.1462069 181.707116,11.4349425 C182.308614,10.285977 182.582022,8.97287356 182.472659,7.60505747 C182.417978,6.8937931 182.199251,6.23724138 181.980524,5.6354023 C181.652434,4.86942529 180.722846,4.32229885 179.793258,4.15816092 C179.19176,4.04873563 178.590262,3.99402299 177.988764,3.93931034 C176.785768,3.77517241 176.293633,4.43172414 176.621723,5.36183908 C176.785768,6.07310345 176.949813,6.78436782 177.059176,7.60505747 Z" id="Shape" fill="#054CBE" fill-rule="nonzero" opacity="0.2"></path>
                <polygon id="Shape" stroke="#054CBE" fill="#FFFFFF" fill-rule="nonzero" points="50.0337079 237.671724 36.035206 237.671724 34.6134831 233.732414 51.4554307 233.732414"></polygon>
                <polygon id="Shape" stroke="#054CBE" fill="#FFFFFF" fill-rule="nonzero" points="82.2411985 237.671724 68.2426966 237.671724 66.8209738 233.732414 83.6629213 233.732414"></polygon>
                <path d="M43.6906367,211.354943 L43.6906367,40.4326437 C43.6906367,28.0675862 53.6973783,18.0551724 66.0554307,18.0551724 L22.6928839,18.0551724 C10.3348315,18.0551724 0.328089888,28.0675862 0.328089888,40.4326437 L0.328089888,211.354943 C0.328089888,223.72 10.3348315,233.732414 22.6928839,233.732414 L66.0554307,233.732414 C53.6973783,233.732414 43.6906367,223.72 43.6906367,211.354943 Z" id="Shape" fill-opacity="0.1" fill="#054CBE" fill-rule="nonzero"></path>
                <path d="M51.2913858,18.0551724 C38.9333333,18.0551724 28.9265918,28.0675862 28.9265918,40.4326437 L28.9265918,211.354943 C28.9265918,223.72 38.9333333,233.732414 51.2913858,233.732414" id="Shape" stroke="#054CBE"></path>
                <path d="M54.4629213,18.0551724 C42.1048689,18.0551724 32.0434457,28.0675862 32.0434457,40.4326437 L32.0434457,211.354943 C32.0434457,223.72 42.0501873,233.732414 54.4082397,233.732414" id="Shape" stroke-opacity="0.3" stroke="#054CBE" stroke-width="0.75"></path>
                <path d="M48.0651685,18.0551724 C35.7071161,18.0551724 25.7003745,28.0675862 25.7003745,40.4326437 L25.7003745,211.354943 C25.7003745,223.72 35.7071161,233.732414 48.0651685,233.732414" id="Shape" stroke-opacity="0.3" stroke="#054CBE" stroke-width="0.75"></path>
                <polygon id="Shape" fill-opacity="0.1" fill="#054CBE" fill-rule="nonzero" points="82.2411985 237.671724 68.2426966 237.671724 66.8209738 233.732414 83.6629213 233.732414"></polygon>
                <polygon id="Shape" fill-opacity="0.3" fill="#054CBE" fill-rule="nonzero" points="50.0337079 237.671724 36.035206 237.671724 34.6134831 233.732414 51.4554307 233.732414"></polygon>
                <polygon id="Shape" stroke="#054CBE" fill="#FFFFFF" fill-rule="nonzero" points="231.412734 237.671724 217.414232 237.671724 215.992509 233.732414 232.834457 233.732414"></polygon>
                <polygon id="Shape" stroke="#054CBE" fill="#FFFFFF" fill-rule="nonzero" points="263.565543 237.671724 249.567041 237.671724 248.2 233.732414 264.987266 233.732414"></polygon>
                <polygon id="Shape" fill-opacity="0.1" fill="#054CBE" fill-rule="nonzero" points="263.565543 237.671724 249.567041 237.671724 248.2 233.732414 264.987266 233.732414"></polygon>
                <polygon id="Shape" fill-opacity="0.3" fill="#054CBE" fill-rule="nonzero" points="231.412734 237.671724 217.414232 237.671724 215.992509 233.732414 232.834457 233.732414"></polygon>
                <path d="M110.949064,18.0004598 L110.949064,8.86344828 C110.949064,7.27678161 109.636704,5.96367816 108.050936,5.96367816 L107.449438,5.96367816 C103.731086,5.96367816 100.176779,7.44091954 97.5520599,10.0671264 L89.5685393,18.0551724 L110.949064,18.0004598 Z" id="Shape" stroke="#054CBE" stroke-width="2" fill="#FFFFFF" fill-rule="nonzero"></path>
                <ellipse id="Oval" fill-opacity="0.3" fill="#054CBE" fill-rule="nonzero" cx="37.5116105" cy="193.026207" rx="1.80449438" ry="3.55632184"></ellipse>
                <ellipse id="Oval" fill-opacity="0.3" fill="#054CBE" fill-rule="nonzero" cx="19.8494382" cy="193.026207" rx="1.80449438" ry="3.55632184"></ellipse>
                <path d="M101.54382,8.42574713 C100.067416,8.42574713 98.5910112,8.97287356 97.5520599,10.0124138 C97.5520599,10.0124138 97.5520599,10.0124138 97.5520599,10.0124138 L89.5685393,18.0551724 L98.4816479,18.0551724 C98.4816479,18.0551724 102.910861,13.6781609 105.86367,10.8331034 C106.738577,9.95770115 106.137079,8.48045977 104.934082,8.48045977 L101.54382,8.48045977 L101.54382,8.42574713 Z" id="Shape" fill-opacity="0.1" fill="#054CBE" fill-rule="nonzero"></path>
                <polygon id="Shape" fill-opacity="0.3" fill="#054CBE" fill-rule="nonzero" points="40.5191011 237.671724 40.5191011 233.732414 34.6134831 233.732414 36.035206 237.671724"></polygon>
                <polygon id="Shape" fill-opacity="0.3" fill="#054CBE" fill-rule="nonzero" points="72.7265918 237.671724 72.7265918 233.732414 66.8209738 233.732414 68.2426966 237.671724"></polygon>
                <polygon id="Shape" fill-opacity="0.3" fill="#054CBE" fill-rule="nonzero" points="221.898127 237.671724 221.898127 233.732414 215.992509 233.732414 217.414232 237.671724"></polygon>
                <polygon id="Shape" fill-opacity="0.3" fill="#054CBE" fill-rule="nonzero" points="254.105618 237.671724 254.105618 233.732414 248.2 233.732414 249.567041 237.671724"></polygon>
                <path d="M242.294382,18.0004598 L242.294382,17.7816092 C242.294382,16.4137931 241.146067,15.2648276 239.779026,15.2648276 L225.999251,15.2648276 C224.63221,15.2648276 223.483895,16.4137931 223.483895,17.7816092 L223.483895,18.0004598 L242.294382,18.0004598 Z" id="Shape" stroke="#054CBE" stroke-width="2" fill="#FFFFFF" fill-rule="nonzero"></path>
                <path d="M228.405243,18.0004598 L228.405243,17.7816092 C228.405243,16.4137931 227.256929,15.2648276 225.889888,15.2648276" id="Shape" stroke="#054CBE" stroke-width="0.75" opacity="0.4"></path>
                <path d="M235.404494,18.0004598 L235.404494,17.7816092 C235.404494,16.4137931 234.25618,15.2648276 232.889139,15.2648276" id="Shape" stroke="#054CBE" stroke-width="0.75" opacity="0.4"></path>
                <path d="M238.849438,18.0004598 L238.849438,17.7816092 C238.849438,16.4137931 237.701124,15.2648276 236.334082,15.2648276" id="Shape" stroke="#054CBE" stroke-width="0.75" opacity="0.4"></path>
                <path d="M232.123596,18.0004598 L232.123596,17.7816092 C232.123596,16.4137931 230.975281,15.2648276 229.60824,15.2648276" id="Shape" stroke="#054CBE" stroke-width="0.75" opacity="0.4"></path>
                <path d="M75.5153558,18.0004598 L75.5153558,17.7816092 C75.5153558,16.4137931 74.3670412,15.2648276 73,15.2648276 L59.2202247,15.2648276 C57.8531835,15.2648276 56.7048689,16.4137931 56.7048689,17.7816092 L56.7048689,18.0004598 L75.5153558,18.0004598 Z" id="Shape" stroke="#054CBE" stroke-width="2" fill="#FFFFFF" fill-rule="nonzero"></path>
                <path d="M61.6262172,18.0004598 L61.6262172,17.7816092 C61.6262172,16.4137931 60.4779026,15.2648276 59.1108614,15.2648276" id="Shape" stroke="#054CBE" stroke-width="0.75" opacity="0.4"></path>
                <path d="M68.6254682,18.0004598 L68.6254682,17.7816092 C68.6254682,16.4137931 67.4771536,15.2648276 66.1101124,15.2648276" id="Shape" stroke="#054CBE" stroke-width="0.75" opacity="0.4"></path>
                <path d="M72.070412,18.0004598 L72.070412,17.7816092 C72.070412,16.4137931 70.9220974,15.2648276 69.5550562,15.2648276" id="Shape" stroke="#054CBE" stroke-width="0.75" opacity="0.4"></path>
                <path d="M65.3445693,18.0004598 L65.3445693,17.7816092 C65.3445693,16.4137931 64.1962547,15.2648276 62.8292135,15.2648276" id="Shape" stroke="#054CBE" stroke-width="0.75" opacity="0.4"></path>
            </g>
            <g id="Group" transform="translate(90.000000, 151.000000)">
                <polygon id="Shape" stroke="#054CBE" stroke-width="2" fill="#FFFFFF" fill-rule="nonzero" points="49.2357143 87.9453416 11.4919643 87.9453416 3.32232143 15.0857143 57.4053571 15.0857143"></polygon>
                <path d="M60.6732143,15.0857143 L60.0741071,9.51055901 C59.9651786,8.4173913 59.0392857,7.59751553 57.95,7.59751553 L55.2267857,7.59751553 L53.8107143,2.07701863 C53.5383929,0.929192547 52.5035714,0.163975155 51.3598214,0.163975155 L9.47678571,0.163975155 C8.33303571,0.163975155 7.29821429,0.929192547 7.02589286,2.07701863 L5.60982143,7.59751553 L2.88660714,7.59751553 C1.79732143,7.59751553 0.925892857,8.4173913 0.7625,9.51055901 L0.163392857,15.0857143 L60.6732143,15.0857143 Z" id="Shape" stroke="#054CBE" stroke-width="2" fill="#FFFFFF" fill-rule="nonzero"></path>
                <path d="M5.50089286,7.65217391 L55.2267857,7.65217391" id="Shape" stroke="#054CBE" opacity="0.5"></path>
                <path d="M10.8928571,84.5018634 L49.18125,84.5018634" id="Shape" stroke="#054CBE" stroke-width="0.75" opacity="0.2"></path>
                <path d="M54.1919643,41.0484472 C47.65625,31.4832298 39.26875,25.689441 30.0098214,25.689441 C20.7508929,25.689441 12.3633929,31.4832298 5.82767857,41.0484472" id="Shape" stroke="#054CBE" stroke-width="0.75"></path>
                <ellipse id="Oval" stroke="#054CBE" stroke-width="0.999946784" transform="translate(30.327375, 33.996718) rotate(-63.055699) translate(-30.327375, -33.996718) " cx="30.3273754" cy="33.9967175" rx="4.68367931" ry="3.55260596"></ellipse>
                <path d="M32.1883929,29.6795031 C32.40625,33.8881988 28.2125,34.1614907 28.4848214,38.3701863" id="Shape" stroke="#054CBE" stroke-width="0.75"></path>
                <g transform="translate(35.401786, 29.515528)" fill="#054CBE" fill-rule="nonzero" id="Shape">
                    <path d="M3.15892857,0.327950311 C3.48571429,0.546583851 3.75803571,0.929192547 3.86696429,1.42111801 C3.97589286,1.91304348 3.86696429,2.40496894 3.64910714,2.67826087 C3.32232143,2.45962733 3.05,2.07701863 2.94107143,1.58509317 C2.83214286,1.0931677 2.94107143,0.601242236 3.15892857,0.327950311 Z"></path>
                    <path d="M2.06964286,2.24099379 C2.45089286,2.29565217 2.83214286,2.51428571 3.15892857,2.89689441 C3.48571429,3.27950311 3.54017857,3.71677019 3.43125,4.0447205 C3.05,3.99006211 2.66875,3.77142857 2.34196429,3.38881988 C2.06964286,3.06086957 1.96071429,2.5689441 2.06964286,2.24099379 Z"></path>
                    <path d="M1.90625,4.15403727 C2.2875,4.20869565 2.66875,4.42732919 2.99553571,4.80993789 C3.26785714,5.19254658 3.37678571,5.62981366 3.26785714,5.95776398 C2.88660714,5.90310559 2.50535714,5.68447205 2.17857143,5.30186335 C1.90625,4.91925466 1.85178571,4.48198758 1.90625,4.15403727 Z"></path>
                    <path d="M1.57946429,5.73913043 C1.96071429,5.79378882 2.39642857,6.01242236 2.72321429,6.44968944 C3.05,6.88695652 3.15892857,7.3242236 3.05,7.7068323 C2.66875,7.65217391 2.23303571,7.43354037 1.90625,6.99627329 C1.63392857,6.6136646 1.525,6.12173913 1.57946429,5.73913043 Z"></path>
                    <path d="M1.14375,7.3242236 C1.525,7.37888199 1.96071429,7.65217391 2.17857143,8.03478261 C2.39642857,8.47204969 2.45089286,8.90931677 2.2875,9.23726708 C1.90625,9.1826087 1.47053571,8.90931677 1.25267857,8.52670807 C0.980357143,8.14409938 0.925892857,7.65217391 1.14375,7.3242236 Z"></path>
                    <path d="M0.925892857,9.1826087 C1.19821429,9.40124224 1.36160714,9.83850932 1.30714286,10.221118 C1.30714286,10.4397516 1.19821429,10.6037267 1.14375,10.7677019 C1.30714286,10.6583851 1.47053571,10.6037267 1.68839286,10.5490683 C2.12410714,10.4944099 2.55982143,10.6037267 2.83214286,10.8223602 C2.66875,11.1503106 2.34196429,11.3689441 1.85178571,11.4236025 C1.41607143,11.4782609 0.980357143,11.3689441 0.708035714,11.1503106 C0.708035714,11.1503106 0.708035714,11.1503106 0.708035714,11.0956522 C0.708035714,11.0956522 0.708035714,11.0956522 0.653571429,11.0956522 C0.38125,10.8770186 0.217857143,10.4397516 0.272321429,10.0571429 C0.38125,9.72919255 0.599107143,9.34658385 0.925892857,9.1826087 Z"></path>
                    <path d="M4.68392857,2.5689441 C4.84732143,2.89689441 4.90178571,3.33416149 4.73839286,3.77142857 C4.575,4.20869565 4.24821429,4.53664596 3.86696429,4.64596273 C3.70357143,4.31801242 3.64910714,3.88074534 3.8125,3.44347826 C3.97589286,3.00621118 4.30267857,2.67826087 4.68392857,2.5689441 Z"></path>
                    <path d="M5.22857143,4.70062112 C5.28303571,5.02857143 5.17410714,5.46583851 4.90178571,5.8484472 C4.575,6.2310559 4.19375,6.44968944 3.8125,6.44968944 C3.75803571,6.12173913 3.86696429,5.68447205 4.13928571,5.30186335 C4.46607143,4.91925466 4.84732143,4.70062112 5.22857143,4.70062112 Z"></path>
                    <path d="M5.11964286,7.05093168 C5.11964286,7.43354037 4.84732143,7.87080745 4.41160714,8.14409938 C3.97589286,8.4173913 3.48571429,8.52670807 3.10446429,8.4173913 C3.10446429,8.03478261 3.37678571,7.59751553 3.8125,7.3242236 C4.24821429,7.05093168 4.73839286,6.94161491 5.11964286,7.05093168 Z"></path>
                    <path d="M4.24821429,9.40124224 C4.08482143,9.72919255 3.75803571,10.0571429 3.26785714,10.1664596 C2.77767857,10.2757764 2.2875,10.221118 1.96071429,10.0024845 C2.12410714,9.67453416 2.45089286,9.34658385 2.94107143,9.23726708 C3.43125,9.07329193 3.92142857,9.1826087 4.24821429,9.40124224 Z"></path>
                </g>
                <path d="M8.76875,65.8086957 C14.7598214,71.0559006 22.2214286,74.0074534 30.0642857,74.0074534 C37.9071429,74.0074534 45.3142857,71.0559006 51.3598214,65.8086957" id="Shape" stroke="#054CBE" stroke-width="0.75" opacity="0.3"></path>
                <path d="M45.9678571,66.4099379 C41.175,69.5254658 35.7285714,71.2198758 30.0098214,71.2198758 C24.6178571,71.2198758 19.3892857,69.689441 14.8142857,66.847205" id="Shape" stroke="#054CBE" stroke-width="0.75" opacity="0.2"></path>
                <path d="M30.8267857,63.4037267 C30.8267857,63.4037267 30.6089286,66.7925466 27.1776786,67.3937888 C23.7464286,67.9950311 23.4196429,66.2459627 26.4151786,65.8086957 C29.4107143,65.3714286 31.5892857,68.1590062 34.0946429,68.1590062 C34.0946429,68.1590062 35.3473214,68.1590062 36.1098214,67.557764" id="Shape" stroke="#054CBE" stroke-width="0.75"></path>
                <path d="M39.3232143,33.6695652 C39.3232143,38.8074534 35.2928571,42.6881988 30.0642857,42.9614907 C28.2669643,43.0708075 25.7616071,43.7813665 25.7616071,45.3664596" id="Shape" stroke="#054CBE" stroke-width="0.75"></path>
                <g transform="translate(19.062500, 29.515528)" id="Shape">
                    <g fill="#054CBE" fill-rule="nonzero">
                        <path d="M2.50535714,0.327950311 C2.17857143,0.546583851 1.90625,0.929192547 1.79732143,1.42111801 C1.68839286,1.91304348 1.79732143,2.40496894 2.01517857,2.67826087 C2.34196429,2.45962733 2.61428571,2.07701863 2.72321429,1.58509317 C2.88660714,1.0931677 2.77767857,0.601242236 2.50535714,0.327950311 Z"></path>
                        <path d="M3.64910714,2.24099379 C3.26785714,2.29565217 2.88660714,2.51428571 2.55982143,2.89689441 C2.2875,3.27950311 2.17857143,3.71677019 2.2875,4.0447205 C2.66875,3.99006211 3.05,3.77142857 3.37678571,3.38881988 C3.64910714,3.06086957 3.70357143,2.5689441 3.64910714,2.24099379 Z"></path>
                        <path d="M3.75803571,4.15403727 C3.37678571,4.20869565 2.99553571,4.42732919 2.66875,4.80993789 C2.39642857,5.19254658 2.2875,5.62981366 2.39642857,5.95776398 C2.77767857,5.90310559 3.15892857,5.68447205 3.48571429,5.30186335 C3.75803571,4.91925466 3.86696429,4.48198758 3.75803571,4.15403727 Z"></path>
                        <path d="M4.08482143,5.73913043 C3.70357143,5.79378882 3.26785714,6.01242236 2.94107143,6.44968944 C2.61428571,6.88695652 2.50535714,7.3242236 2.61428571,7.7068323 C2.99553571,7.65217391 3.43125,7.43354037 3.75803571,6.99627329 C4.08482143,6.6136646 4.19375,6.12173913 4.08482143,5.73913043 Z"></path>
                        <path d="M4.575,7.3242236 C4.19375,7.37888199 3.75803571,7.65217391 3.54017857,8.03478261 C3.32232143,8.47204969 3.26785714,8.90931677 3.43125,9.23726708 C3.8125,9.1826087 4.24821429,8.90931677 4.46607143,8.52670807 C4.73839286,8.14409938 4.73839286,7.65217391 4.575,7.3242236 Z"></path>
                        <path d="M4.79285714,9.1826087 C4.52053571,9.40124224 4.35714286,9.83850932 4.41160714,10.221118 C4.41160714,10.4397516 4.52053571,10.6037267 4.575,10.7677019 C4.41160714,10.6583851 4.24821429,10.6037267 4.03035714,10.5490683 C3.59464286,10.4944099 3.15892857,10.6037267 2.88660714,10.8223602 C3.05,11.1503106 3.37678571,11.3689441 3.86696429,11.4236025 C4.30267857,11.4782609 4.73839286,11.3689441 5.01071429,11.1503106 C5.01071429,11.1503106 5.01071429,11.1503106 5.01071429,11.0956522 C5.01071429,11.0956522 5.01071429,11.0956522 5.06517857,11.0956522 C5.3375,10.8770186 5.50089286,10.4397516 5.44642857,10.0571429 C5.3375,9.72919255 5.06517857,9.34658385 4.79285714,9.1826087 Z"></path>
                        <path d="M1.03482143,2.5689441 C0.871428571,2.89689441 0.816964286,3.33416149 0.980357143,3.77142857 C1.14375,4.20869565 1.47053571,4.53664596 1.85178571,4.64596273 C2.01517857,4.31801242 2.06964286,3.88074534 1.90625,3.44347826 C1.68839286,3.00621118 1.36160714,2.67826087 1.03482143,2.5689441 Z"></path>
                        <path d="M0.435714286,4.70062112 C0.38125,5.02857143 0.490178571,5.46583851 0.7625,5.8484472 C1.08928571,6.2310559 1.47053571,6.44968944 1.85178571,6.44968944 C1.90625,6.12173913 1.79732143,5.68447205 1.525,5.30186335 C1.25267857,4.91925466 0.816964286,4.70062112 0.435714286,4.70062112 Z"></path>
                        <path d="M0.544642857,7.05093168 C0.544642857,7.43354037 0.816964286,7.87080745 1.25267857,8.14409938 C1.68839286,8.4173913 2.17857143,8.52670807 2.55982143,8.4173913 C2.55982143,8.03478261 2.2875,7.59751553 1.85178571,7.3242236 C1.47053571,7.05093168 0.925892857,6.94161491 0.544642857,7.05093168 Z"></path>
                        <path d="M1.41607143,9.40124224 C1.57946429,9.72919255 1.90625,10.0571429 2.39642857,10.1664596 C2.88660714,10.2757764 3.37678571,10.221118 3.70357143,10.0024845 C3.54017857,9.67453416 3.21339286,9.34658385 2.72321429,9.23726708 C2.23303571,9.07329193 1.74285714,9.1826087 1.41607143,9.40124224 Z"></path>
                    </g>
                    <path d="M1.79732143,4.15403727 C1.79732143,9.29192547 5.82767857,13.1726708 11.05625,13.4459627 C12.8535714,13.5552795 15.5767857,14.2658385 15.5767857,15.8509317" stroke="#054CBE" stroke-width="0.75"></path>
                </g>
                <path d="M53.75625,44.2186335 C50.5973214,39.026087 46.89375,34.9267081 42.8633929,32.1391304" id="Shape" stroke="#054CBE" stroke-width="0.75" opacity="0.3"></path>
                <path d="M42.8633929,35.4186335 C45.75,37.4409938 48.4732143,40.173913 50.8696429,43.5080745" id="Shape" stroke="#054CBE" stroke-width="0.75" opacity="0.2"></path>
                <path d="M9.31339286,43.3440994 C11.8732143,39.8459627 14.7598214,37.0037267 17.8642857,34.9813665" id="Shape" stroke="#054CBE" stroke-width="0.75" opacity="0.2"></path>
                <path d="M17.8642857,31.647205 C13.6160714,34.4347826 9.69464286,38.6981366 6.31785714,44.2186335" id="Shape" stroke="#054CBE" stroke-width="0.75" opacity="0.3"></path>
                <g transform="translate(16.883929, 49.739130)" fill="#054CBE" fill-rule="nonzero" id="Shape">
                    <path d="M2.99553571,0.491925466 C3.21339286,0.655900621 3.43125,0.819875776 3.54017857,1.0931677 L2.94107143,1.58509317 C2.72321429,1.25714286 2.45089286,1.0931677 2.12410714,1.0931677 C1.96071429,1.0931677 1.85178571,1.14782609 1.74285714,1.20248447 C1.63392857,1.25714286 1.57946429,1.36645963 1.57946429,1.53043478 C1.57946429,1.63975155 1.63392857,1.74906832 1.68839286,1.80372671 C1.74285714,1.85838509 1.90625,1.96770186 2.06964286,2.02236025 L2.55982143,2.24099379 C2.94107143,2.40496894 3.21339286,2.5689441 3.37678571,2.78757764 C3.54017857,3.00621118 3.64910714,3.22484472 3.64910714,3.49813665 C3.64910714,3.88074534 3.48571429,4.20869565 3.21339286,4.42732919 C2.94107143,4.64596273 2.55982143,4.7552795 2.12410714,4.7552795 C1.74285714,4.7552795 1.41607143,4.64596273 1.14375,4.48198758 C0.871428571,4.31801242 0.653571429,4.09937888 0.435714286,3.77142857 L1.03482143,3.33416149 C1.36160714,3.77142857 1.68839286,3.99006211 2.06964286,3.99006211 C2.2875,3.99006211 2.39642857,3.93540373 2.50535714,3.88074534 C2.61428571,3.77142857 2.66875,3.6621118 2.66875,3.55279503 C2.66875,3.44347826 2.66875,3.38881988 2.61428571,3.33416149 C2.55982143,3.27950311 2.50535714,3.22484472 2.45089286,3.17018634 C2.39642857,3.11552795 2.2875,3.06086957 2.12410714,3.00621118 L1.63392857,2.78757764 C1.30714286,2.62360248 1.03482143,2.45962733 0.871428571,2.24099379 C0.708035714,2.02236025 0.599107143,1.80372671 0.599107143,1.53043478 C0.599107143,1.14782609 0.708035714,0.874534161 0.980357143,0.655900621 C1.25267857,0.437267081 1.57946429,0.327950311 2.01517857,0.327950311 C2.50535714,0.273291925 2.77767857,0.327950311 2.99553571,0.491925466 Z"></path>
                    <path d="M8.11517857,0.929192547 C8.55089286,1.36645963 8.76875,1.91304348 8.76875,2.51428571 C8.76875,3.11552795 8.55089286,3.6621118 8.11517857,4.09937888 C7.67946429,4.53664596 7.13482143,4.7552795 6.48125,4.7552795 C5.82767857,4.7552795 5.28303571,4.53664596 4.84732143,4.09937888 C4.41160714,3.6621118 4.19375,3.11552795 4.19375,2.51428571 C4.19375,1.91304348 4.41160714,1.36645963 4.84732143,0.929192547 C5.28303571,0.491925466 5.82767857,0.273291925 6.48125,0.273291925 C7.13482143,0.273291925 7.67946429,0.491925466 8.11517857,0.929192547 Z M5.50089286,1.4757764 C5.22857143,1.74906832 5.11964286,2.07701863 5.11964286,2.51428571 C5.11964286,2.9515528 5.22857143,3.27950311 5.50089286,3.55279503 C5.77321429,3.82608696 6.1,3.93540373 6.48125,3.93540373 C6.8625,3.93540373 7.18928571,3.82608696 7.46160714,3.55279503 C7.73392857,3.27950311 7.84285714,2.9515528 7.84285714,2.51428571 C7.84285714,2.07701863 7.73392857,1.74906832 7.46160714,1.4757764 C7.18928571,1.20248447 6.8625,1.0931677 6.48125,1.0931677 C6.1,1.0931677 5.77321429,1.20248447 5.50089286,1.4757764 Z"></path>
                    <path d="M12.6901786,0.546583851 C13.0169643,0.710559006 13.2892857,0.983850932 13.4526786,1.31180124 L12.7991071,1.80372671 C12.4723214,1.31180124 12.0910714,1.0931677 11.5464286,1.0931677 C11.1651786,1.0931677 10.7839286,1.20248447 10.5660714,1.4757764 C10.29375,1.74906832 10.1848214,2.07701863 10.1848214,2.51428571 C10.1848214,2.9515528 10.29375,3.27950311 10.5660714,3.55279503 C10.8383929,3.82608696 11.1651786,3.93540373 11.5464286,3.93540373 C12.0910714,3.93540373 12.4723214,3.71677019 12.7991071,3.22484472 L13.4526786,3.71677019 C13.2892857,4.0447205 13.0169643,4.31801242 12.6901786,4.48198758 C12.3633929,4.64596273 11.9821429,4.7552795 11.5464286,4.7552795 C10.8928571,4.7552795 10.3482143,4.53664596 9.9125,4.09937888 C9.47678571,3.6621118 9.25892857,3.11552795 9.25892857,2.51428571 C9.25892857,1.91304348 9.47678571,1.36645963 9.9125,0.929192547 C10.3482143,0.491925466 10.8928571,0.273291925 11.5464286,0.273291925 C11.9821429,0.273291925 12.3633929,0.382608696 12.6901786,0.546583851 Z"></path>
                    <polygon points="15.1410714 4.64596273 14.2696429 4.64596273 14.2696429 0.327950311 15.1410714 0.327950311"></polygon>
                    <path d="M19.7160714,2.89689441 C19.7160714,3.44347826 19.5526786,3.93540373 19.2258929,4.26335404 C18.8991071,4.59130435 18.4633929,4.7552795 17.91875,4.7552795 C17.3741071,4.7552795 16.9383929,4.59130435 16.6116071,4.26335404 C16.2848214,3.93540373 16.1214286,3.49813665 16.1214286,2.89689441 L16.1214286,0.382608696 L16.9928571,0.382608696 L16.9928571,3.00621118 C16.9928571,3.33416149 17.1017857,3.55279503 17.2651786,3.71677019 C17.4285714,3.88074534 17.6464286,3.99006211 17.9732143,3.99006211 C18.2455357,3.99006211 18.4633929,3.88074534 18.68125,3.71677019 C18.8446429,3.55279503 18.9535714,3.27950311 18.9535714,3.00621118 L18.9535714,0.382608696 L19.825,0.382608696 L19.825,2.89689441 L19.7160714,2.89689441 Z"></path>
                    <polygon points="24.8901786 0.273291925 24.8901786 4.70062112 24.01875 4.70062112 24.01875 2.40496894 22.9294643 3.77142857 22.6571429 3.77142857 21.5678571 2.40496894 21.5678571 4.70062112 20.6964286 4.70062112 20.6964286 0.273291925 20.96875 0.273291925 22.7660714 2.62360248 24.5633929 0.273291925"></polygon>
                </g>
                <g transform="translate(17.428571, 55.751553)" fill="#054CBE" fill-rule="nonzero" id="Shape">
                    <path d="M3.43125,0.765217391 C3.75803571,0.929192547 4.03035714,1.20248447 4.19375,1.53043478 L3.54017857,2.02236025 C3.21339286,1.53043478 2.83214286,1.31180124 2.2875,1.31180124 C1.90625,1.31180124 1.525,1.42111801 1.30714286,1.69440994 C1.03482143,1.96770186 0.925892857,2.29565217 0.925892857,2.73291925 C0.925892857,3.17018634 1.03482143,3.49813665 1.30714286,3.77142857 C1.57946429,4.0447205 1.90625,4.15403727 2.2875,4.15403727 C2.83214286,4.15403727 3.21339286,3.93540373 3.54017857,3.44347826 L4.19375,3.93540373 C4.03035714,4.26335404 3.75803571,4.53664596 3.43125,4.70062112 C3.10446429,4.86459627 2.72321429,4.97391304 2.2875,4.97391304 C1.63392857,4.97391304 1.08928571,4.7552795 0.653571429,4.31801242 C0.217857143,3.88074534 2.84217094e-14,3.33416149 2.84217094e-14,2.73291925 C2.84217094e-14,2.13167702 0.217857143,1.58509317 0.653571429,1.14782609 C1.08928571,0.710559006 1.63392857,0.491925466 2.2875,0.491925466 C2.72321429,0.491925466 3.10446429,0.601242236 3.43125,0.765217391 Z"></path>
                    <path d="M8.60535714,1.14782609 C9.04107143,1.58509317 9.25892857,2.13167702 9.25892857,2.73291925 C9.25892857,3.33416149 9.04107143,3.88074534 8.60535714,4.31801242 C8.16964286,4.7552795 7.625,4.97391304 6.97142857,4.97391304 C6.31785714,4.97391304 5.77321429,4.7552795 5.3375,4.31801242 C4.90178571,3.88074534 4.68392857,3.33416149 4.68392857,2.73291925 C4.68392857,2.13167702 4.90178571,1.58509317 5.3375,1.14782609 C5.77321429,0.710559006 6.31785714,0.491925466 6.97142857,0.491925466 C7.625,0.491925466 8.16964286,0.710559006 8.60535714,1.14782609 Z M5.99107143,1.69440994 C5.71875,1.96770186 5.60982143,2.29565217 5.60982143,2.73291925 C5.60982143,3.17018634 5.71875,3.49813665 5.99107143,3.77142857 C6.26339286,4.0447205 6.59017857,4.15403727 6.97142857,4.15403727 C7.35267857,4.15403727 7.67946429,4.0447205 7.95178571,3.77142857 C8.22410714,3.49813665 8.33303571,3.17018634 8.33303571,2.73291925 C8.33303571,2.29565217 8.22410714,1.96770186 7.95178571,1.69440994 C7.67946429,1.42111801 7.35267857,1.31180124 6.97142857,1.31180124 C6.59017857,1.31180124 6.26339286,1.42111801 5.99107143,1.69440994 Z"></path>
                    <polygon points="12.8535714 1.36645963 10.8928571 1.36645963 10.8928571 2.45962733 12.4723214 2.45962733 12.4723214 3.27950311 10.8928571 3.27950311 10.8928571 4.91925466 10.0214286 4.91925466 10.0214286 0.601242236 12.8535714 0.601242236"></polygon>
                    <polygon points="16.3392857 1.36645963 14.3785714 1.36645963 14.3785714 2.45962733 15.9580357 2.45962733 15.9580357 3.27950311 14.3785714 3.27950311 14.3785714 4.91925466 13.5071429 4.91925466 13.5071429 0.601242236 16.3392857 0.601242236"></polygon>
                    <polygon points="19.9339286 1.36645963 17.91875 1.36645963 17.91875 2.24099379 19.3892857 2.24099379 19.3892857 3.00621118 17.91875 3.00621118 17.91875 4.09937888 20.0428571 4.09937888 20.0428571 4.91925466 17.0473214 4.91925466 17.0473214 0.601242236 19.9339286 0.601242236 19.9339286 1.36645963"></polygon>
                    <polygon points="23.6375 1.36645963 21.6223214 1.36645963 21.6223214 2.24099379 23.0928571 2.24099379 23.0928571 3.00621118 21.6223214 3.00621118 21.6223214 4.09937888 23.7464286 4.09937888 23.7464286 4.91925466 20.7508929 4.91925466 20.7508929 0.601242236 23.6375 0.601242236 23.6375 1.36645963"></polygon>
                </g>
                <path d="M9.09553571,68.9242236 C15.0866071,73.4608696 22.2758929,76.1391304 30.0098214,76.1391304 C37.74375,76.1391304 44.9875,73.4608696 50.9241071,68.9242236" id="Shape" stroke="#054CBE" stroke-width="0.75"></path>
                <polygon id="Shape" fill-opacity="0.1" fill="#054CBE" fill-rule="nonzero" points="56.80625 20.4968944 57.4053571 15.0857143 3.32232143 15.0857143 3.92142857 20.4968944"></polygon>
                <path d="M33.0598214,32.5763975 C33.2232143,33.3962733 33.1142857,34.3801242 32.6241071,35.3093168 C31.7526786,37.0583851 30.0098214,37.9329193 28.8116071,37.331677" id="Shape" stroke="#054CBE" stroke-width="0.75" opacity="0.3"></path>
                <polygon id="Shape" fill-opacity="0.1" fill="#054CBE" fill-rule="nonzero" points="26.6875 87.9453416 15.1955357 87.9453416 7.02589286 15.0857143 25.2714286 15.0857143"></polygon>
                <path d="M25.0535714,7.65217391 L25.54375,7.65217391 L26.6330357,2.13167702 C26.8508929,0.983850932 27.6133929,0.21863354 28.4848214,0.21863354 L12.4723214,0.21863354 C11.6008929,0.21863354 10.8383929,0.983850932 10.6205357,2.13167702 L9.53125,7.65217391 L7.51607143,7.65217391 C6.69910714,7.65217391 6.04553571,8.47204969 5.93660714,9.56521739 L5.44642857,15.1403727 L23.0383929,15.1403727 L23.5285714,9.56521739 C23.5830357,8.47204969 24.2366071,7.65217391 25.0535714,7.65217391 Z" id="Shape" fill-opacity="0.1" fill="#054CBE" fill-rule="nonzero"></path>
            </g>
            <g id="Group" transform="translate(174.000000, 59.000000)">
                <path d="M0,168.893111 C0,172.76881 2.78134915,175.934873 6.16259714,175.934873 L217.817814,175.934873 C221.199062,175.934873 223.980411,172.76881 223.980411,168.893111 L223.980411,7.42387302 C223.980411,3.5481746 221.199062,0.382111111 217.817814,0.382111111 L6.16259714,0.382111111 C2.78134915,0.382111111 0,3.5481746 0,7.42387302 L0,168.893111 Z" id="Shape" stroke="#054CBE" stroke-width="2" fill="#FFFFFF" fill-rule="nonzero"></path>
                <rect id="Rectangle-path" fill-opacity="0.2" fill="#054CBE" fill-rule="nonzero" x="6.5988872" y="10.0986508" width="213.236768" height="152.025635"></rect>
                <rect id="Rectangle-path" fill="#FFFFFF" fill-rule="nonzero" x="36.593829" y="32.8615556" width="121.452246" height="58.5721746"></rect>
                <rect id="Rectangle-path" fill="#FFFFFF" fill-rule="nonzero" x="36.593829" y="93.7809841" width="121.452246" height="23.8000635"></rect>
                <rect id="Rectangle-path" fill="#FFFFFF" fill-rule="nonzero" x="190.386076" y="15.2298571" width="26.013795" height="142.090746"></rect>
                <rect id="Rectangle-path" fill="#FFFFFF" fill-rule="nonzero" x="161.427323" y="15.2298571" width="26.013795" height="142.090746"></rect>
                <rect id="Rectangle-path" fill="#FFFFFF" fill-rule="nonzero" x="36.593829" y="120.583349" width="59.7172024" height="36.737254"></rect>
                <rect id="Rectangle-path" fill="#FFFFFF" fill-rule="nonzero" x="99.6377432" y="120.583349" width="58.3537959" height="36.737254"></rect>
                <rect id="Rectangle-path" fill="#FFFFFF" fill-rule="nonzero" x="36.593829" y="15.2298571" width="121.452246" height="13.1555397"></rect>
                <path d="M41.6111648,39.466619 L51.1004736,39.466619" id="Shape" stroke="#054CBE" stroke-width="2"></path>
                <path d="M41.6111648,127.570524 L54.1545041,127.570524" id="Shape" stroke="#054CBE" stroke-width="2"></path>
                <path d="M104.546006,127.570524 L117.034809,127.570524" id="Shape" stroke="#054CBE" stroke-width="2"></path>
                <path d="M41.6111648,21.8349206 L54.1545041,21.8349206" id="Shape" stroke="#054CBE" stroke-width="2"></path>
                <path d="M165.517543,21.8349206 L180.242332,21.8349206" id="Shape" stroke="#054CBE" stroke-width="2"></path>
                <path d="M194.476296,21.8349206 L209.201085,21.8349206" id="Shape" stroke="#054CBE" stroke-width="2"></path>
                <path d="M61.1896814,21.8349206 L73.6784844,21.8349206" id="Shape" stroke="#054CBE" stroke-width="2"></path>
                <path d="M96.2019589,21.8349206 L108.690762,21.8349206" id="Shape" stroke="#054CBE" stroke-width="2"></path>
                <path d="M140.212719,21.8349206 L152.756058,21.8349206" id="Shape" stroke="#054CBE" stroke-width="2"></path>
                <path d="M80.8772705,21.8349206 L89.0577091,21.8349206" id="Shape" stroke="#054CBE" stroke-width="2"></path>
                <path d="M190.386076,28.3853968 L216.454408,28.3853968" id="Shape" stroke="#054CBE" stroke-width="0.75" opacity="0.3"></path>
                <path d="M193.821861,34.9904603 L213.07316,34.9904603" id="Shape" stroke="#054CBE" stroke-width="0.75" opacity="0.3"></path>
                <path d="M193.821861,41.5409365 L213.07316,41.5409365" id="Shape" stroke="#054CBE" stroke-width="0.75" opacity="0.3"></path>
                <path d="M193.821861,48.146 L213.07316,48.146" id="Shape" stroke="#054CBE" stroke-width="0.75" opacity="0.3"></path>
                <path d="M193.821861,54.7510635 L213.07316,54.7510635" id="Shape" stroke="#054CBE" stroke-width="0.75" opacity="0.3"></path>
                <path d="M193.821861,61.3015397 L213.07316,61.3015397" id="Shape" stroke="#054CBE" stroke-width="0.75" opacity="0.3"></path>
                <path d="M193.821861,67.9066032 L213.07316,67.9066032" id="Shape" stroke="#054CBE" stroke-width="0.75" opacity="0.3"></path>
                <path d="M193.821861,74.4570794 L213.07316,74.4570794" id="Shape" stroke="#054CBE" stroke-width="0.75" opacity="0.3"></path>
                <path d="M193.821861,81.0621429 L213.07316,81.0621429" id="Shape" stroke="#054CBE" stroke-width="0.75" opacity="0.3"></path>
                <path d="M193.821861,87.6672063 L213.07316,87.6672063" id="Shape" stroke="#054CBE" stroke-width="0.75" opacity="0.3"></path>
                <path d="M193.821861,94.2176825 L213.07316,94.2176825" id="Shape" stroke="#054CBE" stroke-width="0.75" opacity="0.3"></path>
                <path d="M193.821861,100.822746 L213.07316,100.822746" id="Shape" stroke="#054CBE" stroke-width="0.75" opacity="0.3"></path>
                <path d="M193.821861,107.42781 L213.07316,107.42781" id="Shape" stroke="#054CBE" stroke-width="0.75" opacity="0.3"></path>
                <path d="M193.821861,113.978286 L213.07316,113.978286" id="Shape" stroke="#054CBE" stroke-width="0.75" opacity="0.3"></path>
                <path d="M193.821861,120.583349 L213.07316,120.583349" id="Shape" stroke="#054CBE" stroke-width="0.75" opacity="0.3"></path>
                <path d="M193.821861,127.133825 L213.07316,127.133825" id="Shape" stroke="#054CBE" stroke-width="0.75" opacity="0.3"></path>
                <path d="M193.821861,133.738889 L213.07316,133.738889" id="Shape" stroke="#054CBE" stroke-width="0.75" opacity="0.3"></path>
                <path d="M193.821861,140.343952 L213.07316,140.343952" id="Shape" stroke="#054CBE" stroke-width="0.75" opacity="0.3"></path>
                <path d="M193.821861,146.894429 L213.07316,146.894429" id="Shape" stroke="#054CBE" stroke-width="0.75" opacity="0.3"></path>
                <rect id="Rectangle-path" fill="#FFFFFF" fill-rule="nonzero" x="10.7436428" y="15.2298571" width="22.632547" height="142.090746"></rect>
                <path d="M14.2884996,21.8349206 L27.1045202,21.8349206" id="Shape" stroke="#054CBE" stroke-width="2"></path>
                <path d="M10.7436428,28.3853968 L33.3761898,28.3853968" id="Shape" stroke="#054CBE" stroke-width="0.75" opacity="0.3"></path>
                <path d="M13.6886007,34.9904603 L30.4312319,34.9904603" id="Shape" stroke="#054CBE" stroke-width="0.75" opacity="0.3"></path>
                <path d="M13.6886007,41.5409365 L30.4312319,41.5409365" id="Shape" stroke="#054CBE" stroke-width="0.75" opacity="0.3"></path>
                <path d="M13.6886007,48.146 L30.4312319,48.146" id="Shape" stroke="#054CBE" stroke-width="0.75" opacity="0.3"></path>
                <path d="M13.6886007,54.7510635 L30.4312319,54.7510635" id="Shape" stroke="#054CBE" stroke-width="0.75" opacity="0.3"></path>
                <path d="M13.6886007,61.3015397 L30.4312319,61.3015397" id="Shape" stroke="#054CBE" stroke-width="0.75" opacity="0.3"></path>
                <path d="M13.6886007,67.9066032 L30.4312319,67.9066032" id="Shape" stroke="#054CBE" stroke-width="0.75" opacity="0.3"></path>
                <path d="M13.6886007,74.4570794 L30.4312319,74.4570794" id="Shape" stroke="#054CBE" stroke-width="0.75" opacity="0.3"></path>
                <path d="M13.6886007,81.0621429 L30.4312319,81.0621429" id="Shape" stroke="#054CBE" stroke-width="0.75" opacity="0.3"></path>
                <path d="M13.6886007,87.6672063 L30.4312319,87.6672063" id="Shape" stroke="#054CBE" stroke-width="0.75" opacity="0.3"></path>
                <path d="M38.8843519,89.4685873 L38.8843519,84.5011429" id="Shape" stroke="#054CBE" stroke-width="0.75" opacity="0.2"></path>
                <path d="M42.3201361,89.4685873 L42.3201361,81.990127" id="Shape" stroke="#054CBE" stroke-width="0.75" opacity="0.2"></path>
                <path d="M44.0652964,89.4685873 L44.0652964,80.734619" id="Shape" stroke="#054CBE" stroke-width="0.75" opacity="0.2"></path>
                <path d="M45.7559204,89.4685873 L45.7559204,84.5011429" id="Shape" stroke="#054CBE" stroke-width="0.75" opacity="0.2"></path>
                <path d="M47.5010806,89.4685873 L47.5010806,80.9529683" id="Shape" stroke="#054CBE" stroke-width="0.75" opacity="0.2"></path>
                <path d="M49.2462409,89.4685873 L49.2462409,79.5336984" id="Shape" stroke="#054CBE" stroke-width="0.75" opacity="0.2"></path>
                <path d="M50.9914011,89.4685873 L50.9914011,82.6451746" id="Shape" stroke="#054CBE" stroke-width="0.75" opacity="0.2"></path>
                <path d="M52.7365614,89.4685873 L52.7365614,83.5731587" id="Shape" stroke="#054CBE" stroke-width="0.75" opacity="0.2"></path>
                <path d="M54.4817216,89.4685873 L54.4817216,83.5731587" id="Shape" stroke="#054CBE" stroke-width="0.75" opacity="0.2"></path>
                <path d="M56.2268819,89.4685873 L56.2268819,82.8635238" id="Shape" stroke="#054CBE" stroke-width="0.75" opacity="0.2"></path>
                <path d="M57.9720421,89.4685873 L57.9720421,81.5534286" id="Shape" stroke="#054CBE" stroke-width="0.75" opacity="0.2"></path>
                <path d="M59.6626661,89.4685873 L59.6626661,83.1364603" id="Shape" stroke="#054CBE" stroke-width="0.75" opacity="0.2"></path>
                <path d="M61.4078264,89.4685873 L61.4078264,78.4419524" id="Shape" stroke="#054CBE" stroke-width="0.75" opacity="0.2"></path>
                <path d="M63.1529866,89.4685873 L63.1529866,80.0795714" id="Shape" stroke="#054CBE" stroke-width="0.75" opacity="0.2"></path>
                <path d="M64.8981469,89.4685873 L64.8981469,86.1387619" id="Shape" stroke="#054CBE" stroke-width="0.75" opacity="0.2"></path>
                <path d="M66.6433071,89.4685873 L66.6433071,81.3896667" id="Shape" stroke="#054CBE" stroke-width="0.75" opacity="0.2"></path>
                <path d="M68.3884674,89.4685873 L68.3884674,80.734619" id="Shape" stroke="#054CBE" stroke-width="0.75" opacity="0.2"></path>
                <path d="M70.1336276,89.4685873 L70.1336276,85.5383016" id="Shape" stroke="#054CBE" stroke-width="0.75" opacity="0.2"></path>
                <path d="M71.8787879,89.4685873 L71.8787879,81.7171905" id="Shape" stroke="#054CBE" stroke-width="0.75" opacity="0.2"></path>
                <path d="M73.5694119,89.4685873 L73.5694119,81.3896667" id="Shape" stroke="#054CBE" stroke-width="0.75" opacity="0.2"></path>
                <path d="M75.3145721,89.4685873 L75.3145721,86.520873" id="Shape" stroke="#054CBE" stroke-width="0.75" opacity="0.2"></path>
                <path d="M77.0597324,89.4685873 L77.0597324,80.9529683" id="Shape" stroke="#054CBE" stroke-width="0.75" opacity="0.2"></path>
                <path d="M78.8048927,89.4685873 L78.8048927,76.8589206" id="Shape" stroke="#054CBE" stroke-width="0.75" opacity="0.2"></path>
                <path d="M80.5500529,89.4685873 L80.5500529,79.5336984" id="Shape" stroke="#054CBE" stroke-width="0.75" opacity="0.2"></path>
                <path d="M82.2952132,89.4685873 L82.2952132,78.0598413" id="Shape" stroke="#054CBE" stroke-width="0.75" opacity="0.2"></path>
                <path d="M84.0403734,89.4685873 L84.0403734,80.734619" id="Shape" stroke="#054CBE" stroke-width="0.75" opacity="0.2"></path>
                <path d="M85.7855337,89.4685873 L85.7855337,75.4396508" id="Shape" stroke="#054CBE" stroke-width="0.75" opacity="0.2"></path>
                <path d="M87.4761577,89.4685873 L87.4761577,84.5011429" id="Shape" stroke="#054CBE" stroke-width="0.75" opacity="0.2"></path>
                <path d="M89.2213179,89.4685873 L89.2213179,85.8112381" id="Shape" stroke="#054CBE" stroke-width="0.75" opacity="0.2"></path>
                <path d="M90.9664782,89.4685873 L90.9664782,85.8112381" id="Shape" stroke="#054CBE" stroke-width="0.75" opacity="0.2"></path>
                <path d="M92.7116384,89.4685873 L92.7116384,80.5162698" id="Shape" stroke="#054CBE" stroke-width="0.75" opacity="0.2"></path>
                <path d="M94.4567987,89.4685873 L94.4567987,78.4419524" id="Shape" stroke="#054CBE" stroke-width="0.75" opacity="0.2"></path>
                <path d="M96.2019589,89.4685873 L96.2019589,78.0598413" id="Shape" stroke="#054CBE" stroke-width="0.75" opacity="0.2"></path>
                <path d="M97.9471192,89.4685873 L97.9471192,80.8437937" id="Shape" stroke="#054CBE" stroke-width="0.75" opacity="0.2"></path>
                <path d="M99.6922794,89.4685873 L99.6922794,84.5011429" id="Shape" stroke="#054CBE" stroke-width="0.75" opacity="0.2"></path>
                <path d="M101.382903,89.4685873 L101.382903,87.612619" id="Shape" stroke="#054CBE" stroke-width="0.75" opacity="0.2"></path>
                <path d="M103.128064,89.4685873 L103.128064,82.4814127" id="Shape" stroke="#054CBE" stroke-width="0.75" opacity="0.2"></path>
                <path d="M104.873224,89.4685873 L104.873224,84.5011429" id="Shape" stroke="#054CBE" stroke-width="0.75" opacity="0.2"></path>
                <path d="M106.618384,89.4685873 L106.618384,82.2630635" id="Shape" stroke="#054CBE" stroke-width="0.75" opacity="0.2"></path>
                <path d="M108.363544,89.4685873 L108.363544,79.2061746" id="Shape" stroke="#054CBE" stroke-width="0.75" opacity="0.2"></path>
                <path d="M110.108705,89.4685873 L110.108705,80.734619" id="Shape" stroke="#054CBE" stroke-width="0.75" opacity="0.2"></path>
                <path d="M111.853865,89.4685873 L111.853865,77.7869048" id="Shape" stroke="#054CBE" stroke-width="0.75" opacity="0.2"></path>
                <path d="M113.599025,89.4685873 L113.599025,77.7869048" id="Shape" stroke="#054CBE" stroke-width="0.75" opacity="0.2"></path>
                <path d="M115.289649,89.4685873 L115.289649,80.5162698" id="Shape" stroke="#054CBE" stroke-width="0.75" opacity="0.2"></path>
                <path d="M117.034809,89.4685873 L117.034809,84.5011429" id="Shape" stroke="#054CBE" stroke-width="0.75" opacity="0.2"></path>
                <path d="M118.77997,89.4685873 L118.77997,82.6451746" id="Shape" stroke="#054CBE" stroke-width="0.75" opacity="0.2"></path>
                <path d="M120.52513,89.4685873 L120.52513,86.520873" id="Shape" stroke="#054CBE" stroke-width="0.75" opacity="0.2"></path>
                <path d="M122.27029,89.4685873 L122.27029,84.5011429" id="Shape" stroke="#054CBE" stroke-width="0.75" opacity="0.2"></path>
                <path d="M124.01545,89.4685873 L124.01545,83.4093968" id="Shape" stroke="#054CBE" stroke-width="0.75" opacity="0.2"></path>
                <path d="M125.760611,89.4685873 L125.760611,85.2107778" id="Shape" stroke="#054CBE" stroke-width="0.75" opacity="0.2"></path>
                <path d="M127.505771,89.4685873 L127.505771,84.5011429" id="Shape" stroke="#054CBE" stroke-width="0.75" opacity="0.2"></path>
                <path d="M129.196395,89.4685873 L129.196395,80.0249841" id="Shape" stroke="#054CBE" stroke-width="0.75" opacity="0.2"></path>
                <path d="M130.941555,89.4685873 L130.941555,79.5336984" id="Shape" stroke="#054CBE" stroke-width="0.75" opacity="0.2"></path>
                <path d="M132.686715,89.4685873 L132.686715,84.5011429" id="Shape" stroke="#054CBE" stroke-width="0.75" opacity="0.2"></path>
                <path d="M134.431876,89.4685873 L134.431876,78.7148889" id="Shape" stroke="#054CBE" stroke-width="0.75" opacity="0.2"></path>
                <path d="M136.177036,89.4685873 L136.177036,77.7869048" id="Shape" stroke="#054CBE" stroke-width="0.75" opacity="0.2"></path>
                <path d="M137.922196,89.4685873 L137.922196,79.5336984" id="Shape" stroke="#054CBE" stroke-width="0.75" opacity="0.2"></path>
                <path d="M139.667356,89.4685873 L139.667356,77.295619" id="Shape" stroke="#054CBE" stroke-width="0.75" opacity="0.2"></path>
                <path d="M141.412517,89.4685873 L141.412517,75.7125873" id="Shape" stroke="#054CBE" stroke-width="0.75" opacity="0.2"></path>
                <path d="M143.103141,89.4685873 L143.103141,80.2979206" id="Shape" stroke="#054CBE" stroke-width="0.75" opacity="0.2"></path>
                <path d="M144.848301,89.4685873 L144.848301,81.7171905" id="Shape" stroke="#054CBE" stroke-width="0.75" opacity="0.2"></path>
                <path d="M146.593461,89.4685873 L146.593461,84.5011429" id="Shape" stroke="#054CBE" stroke-width="0.75" opacity="0.2"></path>
                <path d="M148.338621,89.4685873 L148.338621,81.3896667" id="Shape" stroke="#054CBE" stroke-width="0.75" opacity="0.2"></path>
                <path d="M150.083782,89.4685873 L150.083782,82.4814127" id="Shape" stroke="#054CBE" stroke-width="0.75" opacity="0.2"></path>
                <path d="M151.828942,89.4685873 L151.828942,84.5011429" id="Shape" stroke="#054CBE" stroke-width="0.75" opacity="0.2"></path>
                <path d="M153.574102,89.4685873 L153.574102,81.9355397" id="Shape" stroke="#054CBE" stroke-width="0.75" opacity="0.2"></path>
                <path d="M155.319262,89.4685873 L155.319262,84.5011429" id="Shape" stroke="#054CBE" stroke-width="0.75" opacity="0.2"></path>
                <path d="M40.5749759,89.4685873 L40.5749759,81.5534286" id="Shape" stroke="#054CBE" stroke-width="0.75" opacity="0.2"></path>
                <path d="M13.6886007,94.2176825 L30.4312319,94.2176825" id="Shape" stroke="#054CBE" stroke-width="0.75" opacity="0.3"></path>
                <path d="M13.6886007,100.822746 L30.4312319,100.822746" id="Shape" stroke="#054CBE" stroke-width="0.75" opacity="0.3"></path>
                <path d="M13.6886007,107.42781 L30.4312319,107.42781" id="Shape" stroke="#054CBE" stroke-width="0.75" opacity="0.3"></path>
                <path d="M13.6886007,113.978286 L30.4312319,113.978286" id="Shape" stroke="#054CBE" stroke-width="0.75" opacity="0.3"></path>
                <path d="M13.6886007,120.583349 L30.4312319,120.583349" id="Shape" stroke="#054CBE" stroke-width="0.75" opacity="0.3"></path>
                <path d="M13.6886007,127.133825 L30.4312319,127.133825" id="Shape" stroke="#054CBE" stroke-width="0.75" opacity="0.3"></path>
                <path d="M13.6886007,133.738889 L30.4312319,133.738889" id="Shape" stroke="#054CBE" stroke-width="0.75" opacity="0.3"></path>
                <path d="M13.6886007,140.343952 L30.4312319,140.343952" id="Shape" stroke="#054CBE" stroke-width="0.75" opacity="0.3"></path>
                <path d="M13.6886007,146.894429 L30.4312319,146.894429" id="Shape" stroke="#054CBE" stroke-width="0.75" opacity="0.3"></path>
                <path d="M164.863108,34.9904603 L184.114407,34.9904603" id="Shape" stroke="#054CBE" stroke-width="0.75" opacity="0.3"></path>
                <path d="M164.863108,41.5409365 L184.114407,41.5409365" id="Shape" stroke="#054CBE" stroke-width="0.75" opacity="0.3"></path>
                <path d="M164.863108,48.146 L184.114407,48.146" id="Shape" stroke="#054CBE" stroke-width="0.75" opacity="0.3"></path>
                <path d="M164.863108,54.7510635 L184.114407,54.7510635" id="Shape" stroke="#054CBE" stroke-width="0.75" opacity="0.3"></path>
                <path d="M164.863108,61.3015397 L184.114407,61.3015397" id="Shape" stroke="#054CBE" stroke-width="0.75" opacity="0.3"></path>
                <path d="M164.863108,67.9066032 L184.114407,67.9066032" id="Shape" stroke="#054CBE" stroke-width="0.75" opacity="0.3"></path>
                <path d="M164.863108,74.4570794 L184.114407,74.4570794" id="Shape" stroke="#054CBE" stroke-width="0.75" opacity="0.3"></path>
                <path d="M164.863108,81.0621429 L184.114407,81.0621429" id="Shape" stroke="#054CBE" stroke-width="0.75" opacity="0.3"></path>
                <path d="M164.863108,104.370921 L184.114407,104.370921" id="Shape" stroke="#054CBE" stroke-width="0.75" opacity="0.3"></path>
                <path d="M164.863108,110.975984 L184.114407,110.975984" id="Shape" stroke="#054CBE" stroke-width="0.75" opacity="0.3"></path>
                <path d="M164.863108,117.581048 L184.114407,117.581048" id="Shape" stroke="#054CBE" stroke-width="0.75" opacity="0.3"></path>
                <path d="M164.863108,124.131524 L184.114407,124.131524" id="Shape" stroke="#054CBE" stroke-width="0.75" opacity="0.3"></path>
                <path d="M164.863108,130.736587 L184.114407,130.736587" id="Shape" stroke="#054CBE" stroke-width="0.75" opacity="0.3"></path>
                <path d="M164.863108,137.341651 L184.114407,137.341651" id="Shape" stroke="#054CBE" stroke-width="0.75" opacity="0.3"></path>
                <path d="M164.863108,143.892127 L184.114407,143.892127" id="Shape" stroke="#054CBE" stroke-width="0.75" opacity="0.3"></path>
                <path d="M164.863108,150.49719 L184.114407,150.49719" id="Shape" stroke="#054CBE" stroke-width="0.75" opacity="0.3"></path>
                <path d="M161.427323,28.3853968 L187.495655,28.3853968" id="Shape" stroke="#054CBE" stroke-width="0.75" opacity="0.3"></path>
                <path d="M36.593829,134.994397 L96.2019589,134.994397" id="Shape" stroke="#054CBE" stroke-width="0.75" opacity="0.3"></path>
                <path d="M99.6377432,134.994397 L158.046075,134.994397" id="Shape" stroke="#054CBE" stroke-width="0.75" opacity="0.3"></path>
                <path d="M161.427323,85.7020635 L187.495655,85.7020635" id="Shape" stroke="#054CBE" stroke-width="0.75" opacity="0.3"></path>
                <path d="M163.826919,92.307127 L174.461489,92.307127" id="Shape" stroke="#054CBE" stroke-width="2" opacity="0.5"></path>
                <path d="M161.427323,98.9121905 L187.495655,98.9121905" id="Shape" stroke="#054CBE" stroke-width="0.75" opacity="0.3"></path>
                <path d="M0,167.528429 L0,168.893111 C0,172.76881 2.78134915,175.934873 6.16259714,175.934873 L217.817814,175.934873 C221.199062,175.934873 223.980411,172.76881 223.980411,168.893111 L223.980411,167.528429 L0,167.528429 Z" id="Shape" fill-opacity="0.2" fill="#054CBE" fill-rule="nonzero"></path>
                <polyline id="Shape" stroke="#054CBE" stroke-width="0.75" points="36.593829 102.56954 37.848163 104.207159 39.1570332 103.388349 40.5204396 106.827349 41.6111648 106.499825 43.0291075 103.060825 44.1198326 102.56954 45.265094 100.822746 46.519428 102.460365 47.9919069 106.336063 48.8644871 105.626429 50.2278935 103.825048 51.3731549 104.316333 52.5729526 106.172302 53.8818228 108.574143 55.0270842 109.829651 56.4450269 110.757635 57.9175059 110.757635 58.8446223 110.757635 60.1534925 112.286079 61.4078264 106.554413 62.4440153 109.174603 63.6983492 110.593873 64.9526831 108.246619 66.2615533 105.681016 67.4068148 104.316333 68.8792937 104.261746 69.9700189 105.025968 71.2788891 105.353492 72.6422955 103.661286 73.5148756 101.423206 74.8237458 100.058524 76.2416885 100.058524 77.1688049 98.9121905 78.8048927 102.678714 79.8956178 101.641556 81.2590243 104.261746 82.2952132 107.919095 83.4950108 108.956254 84.6948085 108.574143 86.0036787 104.916794 87.2034764 100.877333 88.3487378 100.222286 89.875753 100.54981 90.9119419 104.261746 92.0572033 103.17 93.3115373 104.207159 94.7840162 103.006238 95.8747414 102.405778 96.9654665 100.54981 98.328873 101.259444 99.5286706 100.54981 100.892077 103.388349 103.073527 102.56954 104.49147 100.440635 105.80034 103.715873 106.945602 107.482397 108.199936 107.154873 109.399733 110.86681 110.654067 111.139746 111.63572 111.139746 112.999126 108.574143 114.25346 106.390651 115.507794 103.388349 116.762128 102.624127 118.125535 106.499825 119.379869 106.554413 120.52513 109.010841 121.724928 110.593873 122.924725 108.574143 124.069987 110.102587 125.433393 109.010841 126.687727 111.521857 127.832988 112.286079 129.032786 109.174603 130.450729 107.482397 131.59599 106.663587 132.850324 104.425508 133.941049 104.316333 135.304456 108.574143 136.667862 109.065429 137.922196 107.536984 139.067458 105.298905 140.4854 106.772762 141.467053 109.44754 142.666851 109.829651 143.921185 107.646159 145.230055 111.139746 146.429852 107.20946 147.62965 108.574143 148.883984 106.772762 150.192854 104.152571 151.392652 105.571841 152.865131 109.174603 154.010392 109.392952 155.319262 108.574143"></polyline>
                <polyline id="Shape" stroke="#054CBE" stroke-width="0.75" points="155.319262 67.3061429 154.064929 64.0309048 152.701522 65.6685238 151.338116 58.8451111 150.24739 59.5001587 148.883984 66.2689841 147.738723 67.3061429 146.593461 70.6905556 145.339127 67.4153175 143.866648 59.8822698 142.994068 61.2469524 141.685198 64.795127 140.4854 63.7579683 139.285603 60.100619 137.976732 55.4061111 136.886007 52.9496825 135.468065 51.1483016 133.941049 51.1483016 133.013933 51.1483016 131.759599 48.146 130.505265 59.4455714 129.469076 54.2051905 128.160206 51.4212381 126.905872 56.0611587 125.651538 61.1377778 124.506277 63.7579683 123.033798 63.9217302 121.888536 62.3932857 120.579666 61.7382381 119.270796 65.1772381 118.398216 69.5442222 117.034809 72.219 115.671403 72.219 114.68975 74.4570794 113.108199 67.0332063 112.017474 69.0529365 110.599531 63.9217302 109.563342 56.7162063 108.363544 54.6964762 107.218283 55.4061111 105.854877 62.6116349 104.709615 70.581381 103.509817 71.8368889 102.037339 71.1818413 100.946613 63.9217302 99.8558882 66.0506349 98.6015543 64.0309048 97.074539 66.432746 95.9838139 67.5790794 94.8930887 71.1818413 93.5842185 69.8171587 92.3844209 71.1818413 90.9664782 65.6685238 88.7850278 67.3061429 87.3670851 71.4547778 86.058215 65.0134762 84.9129535 57.5896032 83.7131559 58.2446508 82.4588219 50.9299524 81.2590243 50.4386667 80.2773716 50.4386667 78.8594289 55.4061111 77.605095 59.7185079 76.4052973 65.6685238 75.1509634 67.1969683 73.7875569 59.5001587 72.533223 59.3363968 71.3879616 54.5873016 70.1881639 51.4212381 68.93383 55.4061111 67.8431048 52.4038095 66.4251621 54.5873016 65.1708282 49.6744444 64.080103 48.146 62.8257691 54.2051905 61.4623626 57.5896032 60.262565 59.2272222 59.0627673 63.6487937 57.9175059 63.7579683 56.6086357 55.4061111 55.190693 54.4235397 53.9908953 57.4804286 52.8456339 61.902 51.4276912 59.008873 50.4460385 53.7139048 49.2462409 52.9496825 47.9373707 57.2074921 46.6285005 50.4386667 45.4832391 58.0808889 44.2834414 55.4061111 43.0291075 59.008873 41.665701 64.1400794 40.5204396 61.3015397 38.9934244 54.2051905 37.9026992 53.8230794 36.593829 55.4061111"></polyline>
                <path d="M8.34404746,0.382111111 C4.96279947,0.382111111 2.18145032,3.5481746 2.18145032,7.42387302 L2.18145032,168.893111 C2.18145032,172.76881 4.96279947,175.934873 8.34404746,175.934873" id="Shape" stroke-opacity="0.5" stroke="#054CBE" stroke-width="0.75"></path>
                <path d="M4.25382812,175.934873 L319.582471,175.934873" id="Shape" stroke="#054CBE" stroke-width="0.75"></path>
                <g transform="translate(3.817538, 171.404127)" id="Shape">
                    <path d="M0.436290063,0.382111111 L0.436290063,5.24038095 C7.47146733,7.42387302 14.9429347,8.62479365 22.7416195,8.62479365 L293.51414,8.62479365 C301.258289,8.62479365 308.729756,7.42387302 315.819469,5.24038095 L315.819469,0.382111111 L0.436290063,0.382111111 Z" stroke="#054CBE" stroke-width="2" fill="#FFFFFF" fill-rule="nonzero"></path>
                    <path d="M0.436290063,5.24038095 L315.764933,5.24038095" stroke="#054CBE" stroke-width="0.75"></path>
                    <path d="M185.750494,0.382111111 C185.750494,0.382111111 185.750494,0.382111111 185.750494,0.382111111 C185.750494,2.34725397 186.786683,3.93028571 188.15009,3.93028571 L212.63687,3.93028571 C213.94574,3.93028571 215.036465,2.34725397 215.036465,0.382111111 C215.036465,0.382111111 215.036465,0.382111111 215.036465,0.382111111 L185.750494,0.382111111 Z" fill-opacity="0.2" fill="#054CBE" fill-rule="nonzero"></path>
                    <path d="M84.9129535,5.24038095 L84.9129535,0.382111111 L0.381753805,0.382111111 L0.381753805,5.24038095 C7.41693107,7.42387302 14.8883984,8.62479365 22.6870833,8.62479365 L90.9119419,8.62479365 C88.8395641,8.67938095 86.8217226,7.47846032 84.9129535,5.24038095 Z" fill-opacity="0.1" fill="#054CBE" fill-rule="nonzero"></path>
                </g>
                <path d="M16.3608774,175.170651 L11.3435416,175.170651 C10.9617878,175.170651 10.6345703,174.843127 10.6345703,174.461016 C10.6345703,174.078905 10.9617878,173.751381 11.3435416,173.751381 L16.3608774,173.751381 C16.7426312,173.751381 17.0698487,174.078905 17.0698487,174.461016 C17.0698487,174.843127 16.7426312,175.170651 16.3608774,175.170651 Z" id="Shape" fill-opacity="0.5" fill="#054CBE" fill-rule="nonzero"></path>
                <path d="M26.7227664,175.170651 L21.7054306,175.170651 C21.3236768,175.170651 20.9964593,174.843127 20.9964593,174.461016 C20.9964593,174.078905 21.3236768,173.751381 21.7054306,173.751381 L26.7227664,173.751381 C27.1045202,173.751381 27.4317377,174.078905 27.4317377,174.461016 C27.3772015,174.843127 27.1045202,175.170651 26.7227664,175.170651 Z" id="Shape" fill-opacity="0.5" fill="#054CBE" fill-rule="nonzero"></path>
            </g>
        </g>
    </g>
</svg>