<?xml version="1.0" standalone="no"?>
<!DOCTYPE svg PUBLIC "-//W3C//DTD SVG 1.1//EN" "http://www.w3.org/Graphics/SVG/1.1/DTD/svg11.dtd" >
<svg xmlns="http://www.w3.org/2000/svg" xmlns:xlink="http://www.w3.org/1999/xlink" version="1.1">
<metadata>
Created by FontForge 20161116 at Thu Oct 15 03:08:42 2015
 By Jimmy Warting
Copyright \(c\) 2015 by DearType, Veneta Rangelova. All rights reserved.
</metadata>
<defs>
<font id="LifehackSans-Medium" horiz-adv-x="0" >
  <font-face 
    font-family="Lifehack Sans Medium"
    font-weight="600"
    font-stretch="normal"
    units-per-em="1000"
    panose-1="0 0 7 0 0 0 0 0 0 0"
    ascent="750"
    descent="-250"
    x-height="576"
    cap-height="699"
    bbox="-467 -254 854 858"
    underline-thickness="50"
    underline-position="-100"
    unicode-range="U+0020-2260"
  />
<missing-glyph horiz-adv-x="500" 
d="M410 750v-1000h-317v1000h317zM333 683h-165v-33h65v-37h-66v-33h166v33h-66v37h66v33zM267 554h-100v-104h166v34h-66v70zM233 520v-36h-33v36h33zM333 423h-166v-33h66v-37h-66v-33h100v70h66v33zM333 363h-33v-66h-133v-34h166v100zM333 241h-100v-56h34v23h33v-47
h-100v80h-33v-113h166v113zM333 68h-166v-113h166v113zM300 35v-47h-100v47h100zM333 -68h-166v-33h70l-70 -47v-33h166v33h-102l70 47h32v33z" />
    <glyph glyph-name=".notdef" horiz-adv-x="500" 
d="M410 750v-1000h-317v1000h317zM333 683h-165v-33h65v-37h-66v-33h166v33h-66v37h66v33zM267 554h-100v-104h166v34h-66v70zM233 520v-36h-33v36h33zM333 423h-166v-33h66v-37h-66v-33h100v70h66v33zM333 363h-33v-66h-133v-34h166v100zM333 241h-100v-56h34v23h33v-47
h-100v80h-33v-113h166v113zM333 68h-166v-113h166v113zM300 35v-47h-100v47h100zM333 -68h-166v-33h70l-70 -47v-33h166v33h-102l70 47h32v33z" />
    <glyph glyph-name="space" unicode=" " horiz-adv-x="229" 
 />
    <glyph glyph-name="A" unicode="A" horiz-adv-x="345" 
d="M333 58c1 -4 2 -9 2 -13c0 -26 -22 -41 -53 -42c-15 0 -22 16 -23 26l-29 221l-102 -1l-2 -10c-2 -16 -6 -33 -8 -50c-8 -56 -20 -141 -30 -165c-7 -5 -42 -19 -53 -19s-21 7 -21 28c0 5 0 11 3 22l23 134c24 135 47 275 76 412l3 13c9 39 20 87 77 87
c47 0 56 -58 61 -97c16 -125 34 -242 52 -370zM161 442l-22 -131c24 0 58 1 83 1l-36 277c-8 -34 -15 -88 -25 -147z" />
    <glyph glyph-name="Aacute" unicode="&#xc1;" horiz-adv-x="345" 
d="M162 734c-20 0 -33 8 -33 20c0 13 12 30 20 40c1 1 29 40 50 53c6 3 13 6 17 6c8 0 27 -3 38 -11c5 -4 7 -10 7 -14c0 -6 -3 -13 -9 -22c-19 -24 -74 -72 -90 -72zM333 58c1 -4 2 -9 2 -13c0 -26 -22 -41 -53 -42c-15 0 -22 16 -23 26l-29 221l-102 -1l-2 -10
c-2 -16 -6 -33 -8 -50c-8 -56 -20 -141 -30 -165c-7 -5 -42 -19 -53 -19s-21 7 -21 28c0 5 0 11 3 22l23 134c24 135 47 275 76 412l3 13c9 39 20 87 77 87c47 0 56 -58 61 -97c16 -125 34 -242 52 -370zM161 442l-22 -131c24 0 58 1 83 1l-36 277c-8 -34 -15 -88 -25 -147z
" />
    <glyph glyph-name="Abreve" unicode="&#x102;" horiz-adv-x="345" 
d="M203 742c-67 0 -99 42 -99 81c0 5 1 10 3 13c8 8 14 10 23 10c13 0 24 -6 28 -16c9 -18 21 -36 43 -36c18 0 38 24 47 44c5 10 14 10 20 10c14 0 26 -6 33 -20c1 -1 1 -4 0 -6c0 0 -23 -80 -98 -80zM333 58c1 -4 2 -9 2 -13c0 -26 -22 -41 -53 -42c-15 0 -22 16 -23 26
l-29 221l-102 -1l-2 -10c-2 -16 -6 -33 -8 -50c-8 -56 -20 -141 -30 -165c-7 -5 -42 -19 -53 -19s-21 7 -21 28c0 5 0 11 3 22l23 134c24 135 47 275 76 412l3 13c9 39 20 87 77 87c47 0 56 -58 61 -97c16 -125 34 -242 52 -370zM161 442l-22 -131c24 0 58 1 83 1l-36 277
c-8 -34 -15 -88 -25 -147z" />
    <glyph glyph-name="Acircumflex" unicode="&#xc2;" horiz-adv-x="345" 
d="M126 741c-12 0 -19 6 -26 12c-2 3 -3 9 -3 14s2 13 7 18l30 23c25 19 50 40 70 42c20 1 99 -78 99 -78c2 -3 2 -7 2 -10c-6 -13 -20 -21 -34 -21c-7 0 -13 2 -16 4c-15 7 -54 42 -54 42c-8 -6 -28 -20 -45 -33c-12 -8 -19 -13 -30 -13zM333 58c1 -4 2 -9 2 -13
c0 -26 -22 -41 -53 -42c-15 0 -22 16 -23 26l-29 221l-102 -1l-2 -10c-2 -16 -6 -33 -8 -50c-8 -56 -20 -141 -30 -165c-7 -5 -42 -19 -53 -19s-21 7 -21 28c0 5 0 11 3 22l23 134c24 135 47 275 76 412l3 13c9 39 20 87 77 87c47 0 56 -58 61 -97c16 -125 34 -242 52 -370z
M161 442l-22 -131c24 0 58 1 83 1l-36 277c-8 -34 -15 -88 -25 -147z" />
    <glyph glyph-name="Adieresis" unicode="&#xc4;" horiz-adv-x="345" 
d="M145 759c-24 0 -42 24 -42 47c0 10 5 22 16 29c11 5 23 7 35 7c22 0 34 -16 34 -44c0 -27 -16 -39 -43 -39zM242 759c-25 0 -42 24 -42 47c0 10 5 22 15 29c12 5 24 7 36 7c24 0 34 -16 34 -44c0 -27 -16 -39 -43 -39zM333 58c1 -4 2 -9 2 -13c0 -26 -22 -41 -53 -42
c-15 0 -22 16 -23 26l-29 221l-102 -1l-2 -10c-2 -16 -6 -33 -8 -50c-8 -56 -20 -141 -30 -165c-7 -5 -42 -19 -53 -19s-21 7 -21 28c0 5 0 11 3 22l23 134c24 135 47 275 76 412l3 13c9 39 20 87 77 87c47 0 56 -58 61 -97c16 -125 34 -242 52 -370zM161 442l-22 -131
c24 0 58 1 83 1l-36 277c-8 -34 -15 -88 -25 -147z" />
    <glyph glyph-name="Agrave" unicode="&#xc0;" horiz-adv-x="345" 
d="M228 734c-16 0 -83 63 -90 74c-6 9 -9 16 -9 20s2 9 6 13c12 9 32 12 40 12c6 0 7 -1 8 -1c27 -17 58 -58 58 -58c8 -10 19 -27 19 -40c0 -12 -12 -20 -32 -20zM333 58c1 -4 2 -9 2 -13c0 -26 -22 -41 -53 -42c-15 0 -22 16 -23 26l-29 221l-102 -1l-2 -10
c-2 -16 -6 -33 -8 -50c-8 -56 -20 -141 -30 -165c-7 -5 -42 -19 -53 -19s-21 7 -21 28c0 5 0 11 3 22l23 134c24 135 47 275 76 412l3 13c9 39 20 87 77 87c47 0 56 -58 61 -97c16 -125 34 -242 52 -370zM161 442l-22 -131c24 0 58 1 83 1l-36 277c-8 -34 -15 -88 -25 -147z
" />
    <glyph glyph-name="Amacron" unicode="&#x100;" horiz-adv-x="345" 
d="M118 750c-24 0 -26 19 -26 36c0 14 12 27 27 27h162c13 0 26 -15 26 -28c-3 -20 -7 -35 -23 -35h-166zM333 58c1 -4 2 -9 2 -13c0 -26 -22 -41 -53 -42c-15 0 -22 16 -23 26l-29 221l-102 -1l-2 -10c-2 -16 -6 -33 -8 -50c-8 -56 -20 -141 -30 -165
c-7 -5 -42 -19 -53 -19s-21 7 -21 28c0 5 0 11 3 22l23 134c24 135 47 275 76 412l3 13c9 39 20 87 77 87c47 0 56 -58 61 -97c16 -125 34 -242 52 -370zM161 442l-22 -131c24 0 58 1 83 1l-36 277c-8 -34 -15 -88 -25 -147z" />
    <glyph glyph-name="Aogonek" unicode="&#x104;" horiz-adv-x="345" 
d="M342 -37c16 0 27 -9 27 -29c0 -19 -5 -40 -16 -54c-13 -16 -33 -30 -71 -30s-71 23 -71 66c0 38 21 79 49 108c-1 2 -1 4 -1 5l-29 221l-102 -1l-2 -10c-2 -16 -6 -33 -8 -50c-8 -56 -20 -141 -30 -165c-7 -5 -42 -19 -53 -19s-21 7 -21 28c0 5 0 11 3 22l23 134
c24 135 47 275 76 412l3 13c9 39 20 87 77 87c47 0 56 -58 61 -97c16 -125 34 -242 52 -370l24 -176c1 -4 2 -9 2 -13c0 -12 -5 -22 -13 -29c-2 -6 -5 -11 -7 -15c-9 -16 -20 -32 -30 -47c-8 -12 -11 -22 -11 -34s4 -21 14 -21c22 0 26 15 29 37c3 18 14 27 25 27zM161 442
l-22 -131c24 0 58 1 83 1l-36 277c-8 -34 -15 -88 -25 -147z" />
    <glyph glyph-name="Aring" unicode="&#xc5;" horiz-adv-x="345" 
d="M197 738c-34 0 -59 28 -59 61c0 36 28 59 61 59c34 0 59 -29 59 -61s-24 -59 -61 -59zM197 815c-7 0 -14 -10 -14 -18c0 -7 7 -15 14 -15s17 6 17 18c0 6 -5 15 -17 15zM333 58c1 -4 2 -9 2 -13c0 -26 -22 -41 -53 -42c-15 0 -22 16 -23 26l-29 221l-102 -1l-2 -10
c-2 -16 -6 -33 -8 -50c-8 -56 -20 -141 -30 -165c-7 -5 -42 -19 -53 -19s-21 7 -21 28c0 5 0 11 3 22l23 134c24 135 47 275 76 412l3 13c9 39 20 87 77 87c47 0 56 -58 61 -97c16 -125 34 -242 52 -370zM161 442l-22 -131c24 0 58 1 83 1l-36 277c-8 -34 -15 -88 -25 -147z
" />
    <glyph glyph-name="Atilde" unicode="&#xc3;" horiz-adv-x="345" 
d="M115 751c-12 0 -26 8 -26 29c0 17 28 66 75 66c19 0 33 -8 45 -16c9 -5 18 -12 33 -12c8 0 17 7 23 11c7 6 15 12 27 14c0 0 17 -9 17 -24c0 -35 -38 -69 -70 -69c-23 0 -36 9 -48 18c-10 6 -18 13 -26 13c-11 0 -18 -8 -24 -15c-7 -8 -14 -15 -26 -15zM333 58
c1 -4 2 -9 2 -13c0 -26 -22 -41 -53 -42c-15 0 -22 16 -23 26l-29 221l-102 -1l-2 -10c-2 -16 -6 -33 -8 -50c-8 -56 -20 -141 -30 -165c-7 -5 -42 -19 -53 -19s-21 7 -21 28c0 5 0 11 3 22l23 134c24 135 47 275 76 412l3 13c9 39 20 87 77 87c47 0 56 -58 61 -97
c16 -125 34 -242 52 -370zM161 442l-22 -131c24 0 58 1 83 1l-36 277c-8 -34 -15 -88 -25 -147z" />
    <glyph glyph-name="AE" unicode="&#xc6;" horiz-adv-x="447" 
d="M334 622c-18 0 -29 0 -50 -3l-2 -74c0 -60 -1 -88 -1 -107v-22c0 -18 0 -35 1 -39c8 -2 35 -2 57 -2h28c43 0 45 -21 45 -32c0 -26 -18 -30 -35 -30h-61c-21 0 -29 -3 -29 -14v-21c0 -8 1 -16 1 -26c0 -41 -1 -90 -2 -128c-1 -25 -1 -47 -1 -60c0 -2 1 -2 14 -2
c23 0 26 0 31 1c17 1 35 3 46 3c20 0 39 -3 44 -13c2 -6 3 -14 3 -21c0 -17 -14 -27 -28 -28c-32 -3 -89 -7 -131 -7c-44 0 -56 10 -56 49v53c1 53 3 135 3 216c-28 -1 -54 0 -67 -3c-3 -1 -12 -50 -16 -72c-2 -16 -6 -35 -8 -52c-9 -58 -22 -147 -31 -169
c-7 -6 -42 -20 -53 -20c-12 0 -22 7 -22 28c0 5 0 12 3 23l18 101c27 159 61 350 87 450l3 10c13 39 28 81 80 81c16 0 32 -4 44 -13c30 9 77 16 111 16c29 0 65 -1 65 -35c0 -28 -25 -38 -64 -38h-27zM152 373c18 -1 39 0 60 -1v246c-5 -3 -10 -8 -12 -17
c-13 -38 -16 -87 -34 -154c-5 -27 -8 -46 -14 -74z" />
    <glyph glyph-name="B" unicode="B" horiz-adv-x="334" 
d="M285 544c0 -75 -16 -122 -38 -152c16 -8 28 -19 39 -31c28 -32 32 -88 32 -120c0 -141 -8 -238 -131 -239h-121c-4 0 -10 1 -14 3c-16 9 -23 28 -23 42l6 581c13 69 84 73 132 73c103 0 118 -72 118 -157zM152 637c-14 0 -35 -3 -37 -9c-2 -72 -3 -145 -4 -220h49
c44 3 49 74 49 125v31c0 46 -12 73 -57 73zM110 348c-1 -76 -1 -153 -1 -234v-46h65c50 0 70 50 70 104c0 12 1 24 1 34v16c0 78 -9 126 -84 126h-51z" />
    <glyph glyph-name="C" unicode="C" horiz-adv-x="340" 
d="M313 515c-8 -11 -25 -17 -42 -17c-3 0 -22 3 -27 8c-10 33 -2 128 -68 128c-44 0 -67 -79 -67 -130c0 -11 0 -27 -1 -44c-1 -28 -2 -69 -2 -108c0 -46 3 -101 3 -101c0 -46 0 -186 72 -186c35 0 71 35 71 89c0 12 1 26 0 40c3 18 22 26 36 26c33 0 36 -22 36 -47
c0 -29 -1 -57 -9 -78c-26 -62 -75 -97 -136 -97c-96 0 -136 70 -144 157c-6 68 -8 185 -8 244c0 49 2 117 15 176c22 99 78 124 141 124c65 0 99 -40 117 -91c12 -35 14 -51 14 -89z" />
    <glyph glyph-name="Cacute" unicode="&#x106;" horiz-adv-x="340" 
d="M241 840c5 -4 7 -10 7 -14c0 -6 -3 -13 -9 -22c-19 -24 -74 -72 -90 -72c-20 0 -33 8 -33 20c0 13 12 30 20 40c1 1 29 40 50 53c6 3 13 6 17 6c8 0 27 -3 38 -11zM313 515c-8 -11 -25 -17 -42 -17c-3 0 -22 3 -27 8c-10 33 -2 128 -68 128c-44 0 -67 -79 -67 -130
c0 -11 0 -27 -1 -44c-1 -28 -2 -69 -2 -108c0 -46 3 -101 3 -101c0 -46 0 -186 72 -186c35 0 71 35 71 89c0 12 1 26 0 40c3 18 22 26 36 26c33 0 36 -22 36 -47c0 -29 -1 -57 -9 -78c-26 -62 -75 -97 -136 -97c-96 0 -136 70 -144 157c-6 68 -8 185 -8 244
c0 49 2 117 15 176c22 99 78 124 141 124c65 0 99 -40 117 -91c12 -35 14 -51 14 -89z" />
    <glyph glyph-name="Ccaron" unicode="&#x10c;" horiz-adv-x="340" 
d="M282 827c0 -4 0 -7 -2 -9c0 0 -77 -77 -98 -78c-23 1 -46 22 -70 44l-26 21c-5 5 -7 13 -7 18c0 4 1 10 3 13c8 8 15 14 26 14c9 0 17 -6 30 -15l41 -31c7 6 34 29 53 40c5 3 12 6 16 6c14 0 29 -9 34 -23zM313 515c-8 -11 -25 -17 -42 -17c-3 0 -22 3 -27 8
c-10 33 -2 128 -68 128c-44 0 -67 -79 -67 -130c0 -11 0 -27 -1 -44c-1 -28 -2 -69 -2 -108c0 -46 3 -101 3 -101c0 -46 0 -186 72 -186c35 0 71 35 71 89c0 12 1 26 0 40c3 18 22 26 36 26c33 0 36 -22 36 -47c0 -29 -1 -57 -9 -78c-26 -62 -75 -97 -136 -97
c-96 0 -136 70 -144 157c-6 68 -8 185 -8 244c0 49 2 117 15 176c22 99 78 124 141 124c65 0 99 -40 117 -91c12 -35 14 -51 14 -89z" />
    <glyph glyph-name="Ccedilla" unicode="&#xc7;" horiz-adv-x="340" 
d="M288 220c33 0 36 -22 36 -47c0 -29 -1 -57 -9 -78c-25 -60 -72 -95 -130 -97c-5 -9 -9 -17 -9 -21c5 -1 12 -2 18 -4c53 -16 63 -40 63 -74c0 -57 -43 -76 -81 -76c-28 0 -63 11 -63 41c0 18 8 26 18 26c9 0 24 -10 36 -10c17 0 35 5 35 22c0 19 -39 24 -53 30
c-21 9 -32 18 -32 40c0 9 5 21 12 34c-61 20 -88 79 -94 149c-6 68 -8 185 -8 244c0 49 2 117 15 176c22 99 78 124 141 124c65 0 99 -40 117 -91c12 -35 14 -51 14 -89l-1 -4c-8 -11 -25 -17 -42 -17c-3 0 -22 3 -27 8c-10 33 -2 128 -68 128c-44 0 -67 -79 -67 -130
c0 -11 0 -27 -1 -44c-1 -28 -2 -69 -2 -108c0 -46 3 -101 3 -101c0 -46 0 -186 72 -186c35 0 71 35 71 89c0 12 1 26 0 40c3 18 22 26 36 26z" />
    <glyph glyph-name="Cdotaccent" unicode="&#x10a;" horiz-adv-x="340" 
d="M155 833c11 4 23 9 35 9c31 0 35 -19 35 -46c0 -26 -16 -42 -43 -42c-25 0 -43 27 -43 50c0 10 4 22 16 29zM313 515c-8 -11 -25 -17 -42 -17c-3 0 -22 3 -27 8c-10 33 -2 128 -68 128c-44 0 -67 -79 -67 -130c0 -11 0 -27 -1 -44c-1 -28 -2 -69 -2 -108
c0 -46 3 -101 3 -101c0 -46 0 -186 72 -186c35 0 71 35 71 89c0 12 1 26 0 40c3 18 22 26 36 26c33 0 36 -22 36 -47c0 -29 -1 -57 -9 -78c-26 -62 -75 -97 -136 -97c-96 0 -136 70 -144 157c-6 68 -8 185 -8 244c0 49 2 117 15 176c22 99 78 124 141 124
c65 0 99 -40 117 -91c12 -35 14 -51 14 -89z" />
    <glyph glyph-name="D" unicode="D" horiz-adv-x="373" 
d="M61 687c16 3 29 4 37 4c196 0 256 -246 256 -356c0 -211 -87 -303 -211 -325c-12 -2 -31 -5 -50 -5c-28 0 -49 8 -51 30c-10 87 -10 216 -10 333c0 109 3 195 3 247v10c0 33 0 55 26 62zM118 617c-1 -84 -1 -150 -1 -213c0 -208 1 -300 2 -335v-7c127 7 160 174 160 272
c0 100 -63 291 -154 291c-5 0 -3 0 -7 -1v-7z" />
    <glyph glyph-name="Eth" unicode="&#xd0;" horiz-adv-x="373" 
d="M98 691c196 0 256 -246 256 -356c0 -211 -87 -303 -211 -325c-12 -2 -31 -5 -50 -5c-28 0 -49 8 -51 30c-9 74 -10 179 -10 281h-40c-23 0 -24 20 -24 39c0 18 11 30 25 30h39c0 101 3 181 3 230v10c0 33 0 55 26 62c16 3 29 4 37 4zM119 62c127 7 160 174 160 272
c0 100 -63 291 -154 291c-5 0 -3 0 -7 -1v-7c-1 -84 -1 -150 -1 -213v-19h103c13 0 25 -12 25 -30c-2 -23 -8 -39 -22 -39h-106c0 -147 1 -217 2 -247v-7z" />
    <glyph glyph-name="Dcaron" unicode="&#x10e;" horiz-adv-x="373" 
d="M276 828c0 -4 0 -7 -2 -9c0 0 -77 -77 -98 -78c-23 1 -46 22 -70 44l-26 21c-5 5 -7 13 -7 18c0 4 1 10 3 13c8 8 15 14 26 14c9 0 17 -6 30 -15l41 -31c7 6 34 29 53 40c5 3 12 6 16 6c14 0 29 -9 34 -23zM61 687c16 3 29 4 37 4c196 0 256 -246 256 -356
c0 -211 -87 -303 -211 -325c-12 -2 -31 -5 -50 -5c-28 0 -49 8 -51 30c-10 87 -10 216 -10 333c0 109 3 195 3 247v10c0 33 0 55 26 62zM118 617c-1 -84 -1 -150 -1 -213c0 -208 1 -300 2 -335v-7c127 7 160 174 160 272c0 100 -63 291 -154 291c-5 0 -3 0 -7 -1v-7z" />
    <glyph glyph-name="Dcroat" unicode="&#x110;" horiz-adv-x="373" 
d="M98 691c196 0 256 -246 256 -356c0 -211 -87 -303 -211 -325c-12 -2 -31 -5 -50 -5c-28 0 -49 8 -51 30c-9 74 -10 179 -10 281h-40c-23 0 -24 20 -24 39c0 18 11 30 25 30h39c0 101 3 181 3 230v10c0 33 0 55 26 62c16 3 29 4 37 4zM119 62c127 7 160 174 160 272
c0 100 -63 291 -154 291c-5 0 -3 0 -7 -1v-7c-1 -84 -1 -150 -1 -213v-19h103c13 0 25 -12 25 -30c-2 -23 -8 -39 -22 -39h-106c0 -147 1 -217 2 -247v-7z" />
    <glyph glyph-name="E" unicode="E" horiz-adv-x="267" 
d="M107 621c-2 -1 -2 -70 -2 -76c0 -60 -1 -88 -1 -107v-22l1 -33c5 -1 22 -1 37 -1h48c43 0 45 -9 45 -37c0 -25 -18 -35 -35 -35h-61c-21 0 -29 -2 -29 -14v-47c0 -41 0 -87 -1 -125l-1 -60l15 -2c22 0 25 0 30 1c18 1 35 3 46 3c20 0 39 -3 44 -13c3 -6 4 -14 4 -21
c0 -17 -15 -27 -29 -28c-32 -3 -88 -7 -130 -7c-44 0 -57 10 -57 49v53c3 86 3 240 3 349c0 67 0 119 1 127c0 6 1 13 1 20c1 27 3 64 17 87c8 10 37 14 67 14c11 0 21 -1 32 -1h31c48 0 66 -1 66 -35c0 -28 -7 -38 -65 -38h-9z" />
    <glyph glyph-name="Eacute" unicode="&#xc9;" horiz-adv-x="267" 
d="M203 841c5 -4 7 -10 7 -14c0 -6 -3 -13 -9 -22c-19 -24 -74 -72 -90 -72c-20 0 -33 8 -33 20c0 13 12 30 20 40c1 1 29 40 50 53c6 3 13 6 17 6c8 0 27 -3 38 -11zM107 621c-2 -1 -2 -70 -2 -76c0 -60 -1 -88 -1 -107v-22l1 -33c5 -1 22 -1 37 -1h48c43 0 45 -9 45 -37
c0 -25 -18 -35 -35 -35h-61c-21 0 -29 -2 -29 -14v-47c0 -41 0 -87 -1 -125l-1 -60l15 -2c22 0 25 0 30 1c18 1 35 3 46 3c20 0 39 -3 44 -13c3 -6 4 -14 4 -21c0 -17 -15 -27 -29 -28c-32 -3 -88 -7 -130 -7c-44 0 -57 10 -57 49v53c3 86 3 240 3 349c0 67 0 119 1 127
c0 6 1 13 1 20c1 27 3 64 17 87c8 10 37 14 67 14c11 0 21 -1 32 -1h31c48 0 66 -1 66 -35c0 -28 -7 -38 -65 -38h-9z" />
    <glyph glyph-name="Ecaron" unicode="&#x11a;" horiz-adv-x="267" 
d="M244 828c0 -4 0 -7 -2 -9c0 0 -77 -77 -98 -78c-23 1 -46 22 -70 44l-26 21c-5 5 -7 13 -7 18c0 4 1 10 3 13c8 8 15 14 26 14c9 0 17 -6 30 -15l41 -31c7 6 34 29 53 40c5 3 12 6 16 6c14 0 29 -9 34 -23zM107 621c-2 -1 -2 -70 -2 -76c0 -60 -1 -88 -1 -107v-22l1 -33
c5 -1 22 -1 37 -1h48c43 0 45 -9 45 -37c0 -25 -18 -35 -35 -35h-61c-21 0 -29 -2 -29 -14v-47c0 -41 0 -87 -1 -125l-1 -60l15 -2c22 0 25 0 30 1c18 1 35 3 46 3c20 0 39 -3 44 -13c3 -6 4 -14 4 -21c0 -17 -15 -27 -29 -28c-32 -3 -88 -7 -130 -7c-44 0 -57 10 -57 49v53
c3 86 3 240 3 349c0 67 0 119 1 127c0 6 1 13 1 20c1 27 3 64 17 87c8 10 37 14 67 14c11 0 21 -1 32 -1h31c48 0 66 -1 66 -35c0 -28 -7 -38 -65 -38h-9z" />
    <glyph glyph-name="Ecircumflex" unicode="&#xca;" horiz-adv-x="267" 
d="M252 771c2 -3 2 -7 2 -10c-6 -13 -20 -21 -34 -21c-7 0 -13 2 -16 4c-15 7 -54 42 -54 42c-8 -6 -28 -20 -45 -33c-12 -8 -19 -13 -30 -13c-12 0 -19 6 -26 12c-2 3 -3 9 -3 14s2 13 7 18l30 23c25 19 50 40 70 42c20 1 99 -78 99 -78zM107 621c-2 -1 -2 -70 -2 -76
c0 -60 -1 -88 -1 -107v-22l1 -33c5 -1 22 -1 37 -1h48c43 0 45 -9 45 -37c0 -25 -18 -35 -35 -35h-61c-21 0 -29 -2 -29 -14v-47c0 -41 0 -87 -1 -125l-1 -60l15 -2c22 0 25 0 30 1c18 1 35 3 46 3c20 0 39 -3 44 -13c3 -6 4 -14 4 -21c0 -17 -15 -27 -29 -28
c-32 -3 -88 -7 -130 -7c-44 0 -57 10 -57 49v53c3 86 3 240 3 349c0 67 0 119 1 127c0 6 1 13 1 20c1 27 3 64 17 87c8 10 37 14 67 14c11 0 21 -1 32 -1h31c48 0 66 -1 66 -35c0 -28 -7 -38 -65 -38h-9z" />
    <glyph glyph-name="Edieresis" unicode="&#xcb;" horiz-adv-x="267" 
d="M68 834c11 5 23 7 35 7c22 0 34 -16 34 -44c0 -27 -16 -39 -43 -39c-24 0 -42 24 -42 47c0 10 5 22 16 29zM164 834c12 5 24 7 36 7c24 0 34 -16 34 -44c0 -27 -16 -39 -43 -39c-25 0 -42 24 -42 47c0 10 5 22 15 29zM107 621c-2 -1 -2 -70 -2 -76c0 -60 -1 -88 -1 -107
v-22l1 -33c5 -1 22 -1 37 -1h48c43 0 45 -9 45 -37c0 -25 -18 -35 -35 -35h-61c-21 0 -29 -2 -29 -14v-47c0 -41 0 -87 -1 -125l-1 -60l15 -2c22 0 25 0 30 1c18 1 35 3 46 3c20 0 39 -3 44 -13c3 -6 4 -14 4 -21c0 -17 -15 -27 -29 -28c-32 -3 -88 -7 -130 -7
c-44 0 -57 10 -57 49v53c3 86 3 240 3 349c0 67 0 119 1 127c0 6 1 13 1 20c1 27 3 64 17 87c8 10 37 14 67 14c11 0 21 -1 32 -1h31c48 0 66 -1 66 -35c0 -28 -7 -38 -65 -38h-9z" />
    <glyph glyph-name="Edotaccent" unicode="&#x116;" horiz-adv-x="267" 
d="M117 834c11 4 23 9 35 9c31 0 35 -19 35 -46c0 -26 -16 -42 -43 -42c-25 0 -43 27 -43 50c0 10 4 22 16 29zM107 621c-2 -1 -2 -70 -2 -76c0 -60 -1 -88 -1 -107v-22l1 -33c5 -1 22 -1 37 -1h48c43 0 45 -9 45 -37c0 -25 -18 -35 -35 -35h-61c-21 0 -29 -2 -29 -14v-47
c0 -41 0 -87 -1 -125l-1 -60l15 -2c22 0 25 0 30 1c18 1 35 3 46 3c20 0 39 -3 44 -13c3 -6 4 -14 4 -21c0 -17 -15 -27 -29 -28c-32 -3 -88 -7 -130 -7c-44 0 -57 10 -57 49v53c3 86 3 240 3 349c0 67 0 119 1 127c0 6 1 13 1 20c1 27 3 64 17 87c8 10 37 14 67 14
c11 0 21 -1 32 -1h31c48 0 66 -1 66 -35c0 -28 -7 -38 -65 -38h-9z" />
    <glyph glyph-name="Egrave" unicode="&#xc8;" horiz-adv-x="267" 
d="M84 840c12 9 32 12 40 12c6 0 7 -1 8 -1c27 -17 58 -58 58 -58c8 -10 19 -27 19 -40c0 -12 -12 -20 -32 -20c-16 0 -83 63 -90 74c-6 9 -9 16 -9 20s2 9 6 13zM107 621c-2 -1 -2 -70 -2 -76c0 -60 -1 -88 -1 -107v-22l1 -33c5 -1 22 -1 37 -1h48c43 0 45 -9 45 -37
c0 -25 -18 -35 -35 -35h-61c-21 0 -29 -2 -29 -14v-47c0 -41 0 -87 -1 -125l-1 -60l15 -2c22 0 25 0 30 1c18 1 35 3 46 3c20 0 39 -3 44 -13c3 -6 4 -14 4 -21c0 -17 -15 -27 -29 -28c-32 -3 -88 -7 -130 -7c-44 0 -57 10 -57 49v53c3 86 3 240 3 349c0 67 0 119 1 127
c0 6 1 13 1 20c1 27 3 64 17 87c8 10 37 14 67 14c11 0 21 -1 32 -1h31c48 0 66 -1 66 -35c0 -28 -7 -38 -65 -38h-9z" />
    <glyph glyph-name="Emacron" unicode="&#x112;" horiz-adv-x="267" 
d="M256 784c-3 -20 -7 -35 -23 -35h-166c-24 0 -26 19 -26 36c0 14 12 27 27 27h162c13 0 26 -15 26 -28zM107 621c-2 -1 -2 -70 -2 -76c0 -60 -1 -88 -1 -107v-22l1 -33c5 -1 22 -1 37 -1h48c43 0 45 -9 45 -37c0 -25 -18 -35 -35 -35h-61c-21 0 -29 -2 -29 -14v-47
c0 -41 0 -87 -1 -125l-1 -60l15 -2c22 0 25 0 30 1c18 1 35 3 46 3c20 0 39 -3 44 -13c3 -6 4 -14 4 -21c0 -17 -15 -27 -29 -28c-32 -3 -88 -7 -130 -7c-44 0 -57 10 -57 49v53c3 86 3 240 3 349c0 67 0 119 1 127c0 6 1 13 1 20c1 27 3 64 17 87c8 10 37 14 67 14
c11 0 21 -1 32 -1h31c48 0 66 -1 66 -35c0 -28 -7 -38 -65 -38h-9z" />
    <glyph glyph-name="Eogonek" unicode="&#x118;" horiz-adv-x="267" 
d="M199 66c20 0 39 -3 44 -13c3 -6 4 -14 4 -21c0 -17 -15 -27 -29 -28c-12 -1 -27 -2 -44 -4c-2 -4 -4 -9 -6 -12c-9 -16 -20 -32 -30 -47c-8 -12 -11 -22 -11 -34s4 -21 14 -21c22 0 26 15 29 37c3 18 14 27 25 27c16 0 27 -9 27 -29c0 -19 -5 -40 -16 -54
c-13 -16 -33 -30 -71 -30s-71 23 -71 66c0 32 15 66 37 94h-13c-44 0 -57 10 -57 49v53c3 86 3 240 3 349c0 67 0 119 1 127c0 6 1 13 1 20c1 27 3 64 17 87c8 10 37 14 67 14c11 0 21 -1 32 -1h31c48 0 66 -1 66 -35c0 -28 -7 -38 -65 -38h-9l-68 -1c-2 -1 -2 -70 -2 -76
c0 -60 -1 -88 -1 -107v-22l1 -33c5 -1 22 -1 37 -1h48c43 0 45 -9 45 -37c0 -25 -18 -35 -35 -35h-61c-21 0 -29 -2 -29 -14v-47c0 -41 0 -87 -1 -125l-1 -60l15 -2c22 0 25 0 30 1c18 1 35 3 46 3z" />
    <glyph glyph-name="F" unicode="F" horiz-adv-x="292" 
d="M290 672c-3 -37 -20 -41 -47 -41c-16 0 -33 1 -51 1c-18 1 -38 1 -55 1c-11 0 -19 -1 -29 -2c5 -78 5 -159 5 -224c11 -1 30 0 59 0c27 0 67 0 67 -31c0 -10 -1 -19 -1 -24c-3 -24 -58 -24 -98 -24h-31c-2 -57 -2 -219 -2 -278c0 -36 -5 -50 -41 -50c-31 0 -35 16 -35 45
c0 65 2 125 3 182c1 53 0 104 0 155c0 96 -3 236 -4 246c0 22 3 46 25 66c7 6 60 14 117 14c59 0 118 -8 118 -24v-12z" />
    <glyph glyph-name="G" unicode="G" horiz-adv-x="399" 
d="M207 277c-16 5 -24 16 -24 36c0 3 2 13 9 18c7 6 23 11 51 11c20 0 35 -1 50 0c15 0 32 2 50 2c16 0 39 2 53 -7c2 -4 2 -10 2 -15c0 -8 -1 -19 -6 -27s-17 -15 -29 -16c-12 -2 -25 -3 -37 -4v-17c0 -13 1 -26 1 -39c0 -101 -15 -220 -147 -220c-100 0 -149 81 -149 173
c0 12 0 51 -1 96c-2 84 -5 200 -5 225c0 11 2 78 19 124c18 47 72 92 136 92c32 0 75 -20 86 -30c45 -44 46 -92 49 -155c-3 -12 -30 -21 -43 -21c-24 0 -30 18 -31 42c0 6 0 10 -2 23c-5 34 -11 82 -63 82s-66 -70 -70 -114c-1 -11 -1 -41 -1 -81c0 -42 1 -94 2 -145
c1 -49 2 -98 2 -136c0 -44 25 -112 69 -112c51 0 77 62 77 122c0 24 -1 45 -1 64v25c-15 0 -31 2 -47 4z" />
    <glyph glyph-name="Gbreve" unicode="&#x11e;" horiz-adv-x="399" 
d="M285 827c1 -1 1 -4 0 -6c0 0 -23 -80 -98 -80c-67 0 -99 42 -99 81c0 5 1 10 3 13c8 8 14 10 23 10c13 0 24 -6 28 -16c9 -18 21 -36 43 -36c18 0 38 24 47 44c5 10 14 10 20 10c14 0 26 -6 33 -20zM207 277c-16 5 -24 16 -24 36c0 3 2 13 9 18c7 6 23 11 51 11
c20 0 35 -1 50 0c15 0 32 2 50 2c16 0 39 2 53 -7c2 -4 2 -10 2 -15c0 -8 -1 -19 -6 -27s-17 -15 -29 -16c-12 -2 -25 -3 -37 -4v-17c0 -13 1 -26 1 -39c0 -101 -15 -220 -147 -220c-100 0 -149 81 -149 173c0 12 0 51 -1 96c-2 84 -5 200 -5 225c0 11 2 78 19 124
c18 47 72 92 136 92c32 0 75 -20 86 -30c45 -44 46 -92 49 -155c-3 -12 -30 -21 -43 -21c-24 0 -30 18 -31 42c0 6 0 10 -2 23c-5 34 -11 82 -63 82s-66 -70 -70 -114c-1 -11 -1 -41 -1 -81c0 -42 1 -94 2 -145c1 -49 2 -98 2 -136c0 -44 25 -112 69 -112c51 0 77 62 77 122
c0 24 -1 45 -1 64v25c-15 0 -31 2 -47 4z" />
    <glyph glyph-name="Gcommaaccent" unicode="&#x122;" horiz-adv-x="399" 
d="M207 277c-16 5 -24 16 -24 36c0 3 2 13 9 18c7 6 23 11 51 11c20 0 35 -1 50 0c15 0 32 2 50 2c16 0 39 2 53 -7c2 -4 2 -10 2 -15c0 -8 -1 -19 -6 -27s-17 -15 -29 -16c-12 -2 -25 -3 -37 -4v-17c0 -13 1 -26 1 -39c0 -101 -15 -220 -147 -220c-100 0 -149 81 -149 173
c0 12 0 51 -1 96c-2 84 -5 200 -5 225c0 11 2 78 19 124c18 47 72 92 136 92c32 0 75 -20 86 -30c45 -44 46 -92 49 -155c-3 -12 -30 -21 -43 -21c-24 0 -30 18 -31 42c0 6 0 10 -2 23c-5 34 -11 82 -63 82s-66 -70 -70 -114c-1 -11 -1 -41 -1 -81c0 -42 1 -94 2 -145
c1 -49 2 -98 2 -136c0 -44 25 -112 69 -112c51 0 77 62 77 122c0 24 -1 45 -1 64v25c-15 0 -31 2 -47 4zM152 -52c11 6 26 12 41 12c36 0 42 -25 42 -56c0 -24 -29 -102 -44 -124c-6 -7 -16 -12 -24 -12c-18 0 -29 22 -29 29c6 22 14 49 15 68c-14 11 -21 31 -21 49
c0 13 7 27 20 34z" />
    <glyph glyph-name="Gdotaccent" unicode="&#x120;" horiz-adv-x="399" 
d="M152 834c11 4 23 9 35 9c31 0 35 -19 35 -46c0 -26 -16 -42 -43 -42c-25 0 -43 27 -43 50c0 10 4 22 16 29zM207 277c-16 5 -24 16 -24 36c0 3 2 13 9 18c7 6 23 11 51 11c20 0 35 -1 50 0c15 0 32 2 50 2c16 0 39 2 53 -7c2 -4 2 -10 2 -15c0 -8 -1 -19 -6 -27
s-17 -15 -29 -16c-12 -2 -25 -3 -37 -4v-17c0 -13 1 -26 1 -39c0 -101 -15 -220 -147 -220c-100 0 -149 81 -149 173c0 12 0 51 -1 96c-2 84 -5 200 -5 225c0 11 2 78 19 124c18 47 72 92 136 92c32 0 75 -20 86 -30c45 -44 46 -92 49 -155c-3 -12 -30 -21 -43 -21
c-24 0 -30 18 -31 42c0 6 0 10 -2 23c-5 34 -11 82 -63 82s-66 -70 -70 -114c-1 -11 -1 -41 -1 -81c0 -42 1 -94 2 -145c1 -49 2 -98 2 -136c0 -44 25 -112 69 -112c51 0 77 62 77 122c0 24 -1 45 -1 64v25c-15 0 -31 2 -47 4z" />
    <glyph glyph-name="H" unicode="H" horiz-adv-x="322" 
d="M111 669c-2 -147 -3 -252 -3 -328c14 1 31 1 49 1c23 0 48 -1 68 -3l5 337c0 12 15 26 35 26c12 0 24 -5 40 -21c1 -37 1 -83 1 -128c0 -215 -5 -497 -6 -532c-14 -11 -33 -16 -49 -16c-13 0 -28 4 -28 16v124c0 45 1 91 1 128l-116 -1v-152c0 -50 0 -108 -29 -115h-15
c-21 0 -33 10 -33 34c0 64 1 121 1 172v110c0 133 -1 212 -1 261c0 57 1 74 2 87c2 23 22 25 39 25c16 0 39 -11 39 -25z" />
    <glyph glyph-name="Hbar" unicode="&#x126;" horiz-adv-x="322" 
d="M312 552c14 0 26 -11 26 -28c-2 -22 -8 -37 -23 -37h-9c-1 -203 -5 -434 -6 -466c-14 -11 -33 -16 -49 -16c-13 0 -28 4 -28 16v124c0 45 1 91 1 128l-116 -1v-152c0 -50 0 -108 -29 -115h-15c-21 0 -33 10 -33 34c0 64 1 121 1 172v110c0 69 0 123 -1 166h-15
c-24 0 -25 19 -25 37c0 17 11 28 26 28h14v30c0 57 1 74 2 87c2 23 22 25 39 25c16 0 39 -11 39 -25c-1 -42 -1 -81 -1 -117h118l2 124c0 12 15 26 35 26c12 0 24 -5 40 -21c1 -37 1 -83 1 -128v-1h6zM225 339l2 148h-118c-1 -58 -1 -106 -1 -146c14 1 31 1 49 1
c23 0 48 -1 68 -3z" />
    <glyph glyph-name="I" unicode="I" horiz-adv-x="248" 
d="M20 668c6 19 13 23 26 29c35 0 166 0 177 -6c8 -5 19 -16 19 -27c0 -13 -11 -37 -21 -37c-4 0 -14 -1 -30 -1c-7 0 -14 -1 -22 -1v-117c0 -96 -1 -192 -3 -269c-1 -47 -2 -96 -2 -124v-42h46c14 -5 24 -11 27 -25c0 -21 -4 -40 -18 -44c-5 -1 -18 -1 -33 -1
c-33 0 -86 1 -119 2c-10 0 -27 1 -30 1c-10 0 -22 30 -22 36c0 11 13 23 22 29c3 1 24 2 50 2v551h-15c-15 0 -28 0 -33 1c-15 4 -19 24 -19 43z" />
    <glyph glyph-name="Iacute" unicode="&#xcd;" horiz-adv-x="248" 
d="M191 841c5 -4 7 -10 7 -14c0 -6 -3 -13 -9 -22c-19 -24 -74 -72 -90 -72c-20 0 -33 8 -33 20c0 13 12 30 20 40c1 1 29 40 50 53c6 3 13 6 17 6c8 0 27 -3 38 -11zM20 668c6 19 13 23 26 29c35 0 166 0 177 -6c8 -5 19 -16 19 -27c0 -13 -11 -37 -21 -37
c-4 0 -14 -1 -30 -1c-7 0 -14 -1 -22 -1v-117c0 -96 -1 -192 -3 -269c-1 -47 -2 -96 -2 -124v-42h46c14 -5 24 -11 27 -25c0 -21 -4 -40 -18 -44c-5 -1 -18 -1 -33 -1c-33 0 -86 1 -119 2c-10 0 -27 1 -30 1c-10 0 -22 30 -22 36c0 11 13 23 22 29c3 1 24 2 50 2v551h-15
c-15 0 -28 0 -33 1c-15 4 -19 24 -19 43z" />
    <glyph glyph-name="Icircumflex" unicode="&#xce;" horiz-adv-x="248" 
d="M240 771c2 -3 2 -7 2 -10c-6 -13 -20 -21 -34 -21c-7 0 -13 2 -16 4c-15 7 -54 42 -54 42c-8 -6 -28 -20 -45 -33c-12 -8 -19 -13 -30 -13c-12 0 -19 6 -26 12c-2 3 -3 9 -3 14s2 13 7 18l30 23c25 19 50 40 70 42c20 1 99 -78 99 -78zM20 668c6 19 13 23 26 29
c35 0 166 0 177 -6c8 -5 19 -16 19 -27c0 -13 -11 -37 -21 -37c-4 0 -14 -1 -30 -1c-7 0 -14 -1 -22 -1v-117c0 -96 -1 -192 -3 -269c-1 -47 -2 -96 -2 -124v-42h46c14 -5 24 -11 27 -25c0 -21 -4 -40 -18 -44c-5 -1 -18 -1 -33 -1c-33 0 -86 1 -119 2c-10 0 -27 1 -30 1
c-10 0 -22 30 -22 36c0 11 13 23 22 29c3 1 24 2 50 2v551h-15c-15 0 -28 0 -33 1c-15 4 -19 24 -19 43z" />
    <glyph glyph-name="Idieresis" unicode="&#xcf;" horiz-adv-x="248" 
d="M56 834c11 5 23 7 35 7c22 0 34 -16 34 -44c0 -27 -16 -39 -43 -39c-24 0 -42 24 -42 47c0 10 5 22 16 29zM152 834c12 5 24 7 36 7c24 0 34 -16 34 -44c0 -27 -16 -39 -43 -39c-25 0 -42 24 -42 47c0 10 5 22 15 29zM20 668c6 19 13 23 26 29c35 0 166 0 177 -6
c8 -5 19 -16 19 -27c0 -13 -11 -37 -21 -37c-4 0 -14 -1 -30 -1c-7 0 -14 -1 -22 -1v-117c0 -96 -1 -192 -3 -269c-1 -47 -2 -96 -2 -124v-42h46c14 -5 24 -11 27 -25c0 -21 -4 -40 -18 -44c-5 -1 -18 -1 -33 -1c-33 0 -86 1 -119 2c-10 0 -27 1 -30 1c-10 0 -22 30 -22 36
c0 11 13 23 22 29c3 1 24 2 50 2v551h-15c-15 0 -28 0 -33 1c-15 4 -19 24 -19 43z" />
    <glyph glyph-name="Idotaccent" unicode="&#x130;" horiz-adv-x="248" 
d="M105 834c11 4 23 9 35 9c31 0 35 -19 35 -46c0 -26 -16 -42 -43 -42c-25 0 -43 27 -43 50c0 10 4 22 16 29zM20 668c6 19 13 23 26 29c35 0 166 0 177 -6c8 -5 19 -16 19 -27c0 -13 -11 -37 -21 -37c-4 0 -14 -1 -30 -1c-7 0 -14 -1 -22 -1v-117c0 -96 -1 -192 -3 -269
c-1 -47 -2 -96 -2 -124v-42h46c14 -5 24 -11 27 -25c0 -21 -4 -40 -18 -44c-5 -1 -18 -1 -33 -1c-33 0 -86 1 -119 2c-10 0 -27 1 -30 1c-10 0 -22 30 -22 36c0 11 13 23 22 29c3 1 24 2 50 2v551h-15c-15 0 -28 0 -33 1c-15 4 -19 24 -19 43z" />
    <glyph glyph-name="Igrave" unicode="&#xcc;" horiz-adv-x="248" 
d="M72 840c12 9 32 12 40 12c6 0 7 -1 8 -1c27 -17 58 -58 58 -58c8 -10 19 -27 19 -40c0 -12 -12 -20 -32 -20c-16 0 -83 63 -90 74c-6 9 -9 16 -9 20s2 9 6 13zM20 668c6 19 13 23 26 29c35 0 166 0 177 -6c8 -5 19 -16 19 -27c0 -13 -11 -37 -21 -37c-4 0 -14 -1 -30 -1
c-7 0 -14 -1 -22 -1v-117c0 -96 -1 -192 -3 -269c-1 -47 -2 -96 -2 -124v-42h46c14 -5 24 -11 27 -25c0 -21 -4 -40 -18 -44c-5 -1 -18 -1 -33 -1c-33 0 -86 1 -119 2c-10 0 -27 1 -30 1c-10 0 -22 30 -22 36c0 11 13 23 22 29c3 1 24 2 50 2v551h-15c-15 0 -28 0 -33 1
c-15 4 -19 24 -19 43z" />
    <glyph glyph-name="Imacron" unicode="&#x12a;" horiz-adv-x="248" 
d="M244 784c-3 -20 -7 -35 -23 -35h-166c-24 0 -26 19 -26 36c0 14 12 27 27 27h162c13 0 26 -15 26 -28zM20 668c6 19 13 23 26 29c35 0 166 0 177 -6c8 -5 19 -16 19 -27c0 -13 -11 -37 -21 -37c-4 0 -14 -1 -30 -1c-7 0 -14 -1 -22 -1v-117c0 -96 -1 -192 -3 -269
c-1 -47 -2 -96 -2 -124v-42h46c14 -5 24 -11 27 -25c0 -21 -4 -40 -18 -44c-5 -1 -18 -1 -33 -1c-33 0 -86 1 -119 2c-10 0 -27 1 -30 1c-10 0 -22 30 -22 36c0 11 13 23 22 29c3 1 24 2 50 2v551h-15c-15 0 -28 0 -33 1c-15 4 -19 24 -19 43z" />
    <glyph glyph-name="Iogonek" unicode="&#x12e;" horiz-adv-x="248" 
d="M210 73c14 -5 24 -11 27 -25c0 -21 -4 -40 -18 -44c-5 -1 -18 -1 -33 -1h-30c-2 -5 -4 -9 -6 -12c-9 -16 -20 -32 -30 -47c-8 -12 -11 -22 -11 -34s4 -21 14 -21c22 0 26 15 29 37c3 18 14 27 25 27c16 0 27 -9 27 -29c0 -19 -5 -40 -16 -54c-13 -16 -33 -30 -71 -30
s-71 23 -71 66c0 34 16 70 40 98c-7 1 -13 1 -19 1c-10 0 -27 1 -30 1c-10 0 -22 30 -22 36c0 11 13 23 22 29c3 1 24 2 50 2v551h-15c-15 0 -28 0 -33 1c-15 4 -19 24 -19 43c6 19 13 23 26 29c35 0 166 0 177 -6c8 -5 19 -16 19 -27c0 -13 -11 -37 -21 -37
c-4 0 -14 -1 -30 -1c-7 0 -14 -1 -22 -1v-117c0 -96 -1 -192 -3 -269c-1 -47 -2 -96 -2 -124v-42h46z" />
    <glyph glyph-name="J" unicode="J" horiz-adv-x="304" 
d="M211 691c7 5 24 9 40 9c23 0 30 -18 30 -43c0 -164 -1 -367 -8 -494c-2 -81 -31 -167 -129 -167c-104 0 -115 115 -115 192v73c0 15 19 29 40 29c14 0 42 -15 42 -61c0 -27 0 -55 -1 -78l-1 -32c0 -31 13 -62 43 -62c35 0 42 32 42 73c0 93 2 180 3 266c1 81 0 161 0 241
c0 15 0 40 14 54z" />
    <glyph glyph-name="K" unicode="K" horiz-adv-x="304" 
d="M78 704c14 0 24 -6 33 -12c3 -24 4 -54 4 -86c0 -35 -1 -72 -2 -108c-1 -28 -2 -77 -2 -102l17 51c28 77 49 140 68 199c6 17 21 54 53 51c15 -2 30 -6 30 -21c0 -12 -7 -39 -10 -46c-7 -17 -27 -64 -48 -117c-27 -67 -54 -139 -72 -175c8 -19 15 -33 24 -47
c35 -63 52 -99 69 -137c13 -27 53 -113 53 -140c0 -17 -27 -20 -46 -20c-23 0 -31 20 -42 46c-46 110 -79 173 -103 223c-3 -64 -3 -184 -3 -223c0 -44 -15 -46 -38 -46c-25 0 -37 13 -37 40c5 135 11 500 11 587c0 25 0 60 8 68c11 11 21 15 33 15z" />
    <glyph glyph-name="Kcommaaccent" unicode="&#x136;" horiz-adv-x="304" 
d="M78 704c14 0 24 -6 33 -12c3 -24 4 -54 4 -86c0 -35 -1 -72 -2 -108c-1 -28 -2 -77 -2 -102l17 51c28 77 49 140 68 199c6 17 21 54 53 51c15 -2 30 -6 30 -21c0 -12 -7 -39 -10 -46c-7 -17 -27 -64 -48 -117c-27 -67 -54 -139 -72 -175c8 -19 15 -33 24 -47
c35 -63 52 -99 69 -137c13 -27 53 -113 53 -140c0 -17 -27 -20 -46 -20c-23 0 -31 20 -42 46c-46 110 -79 173 -103 223c-3 -64 -3 -184 -3 -223c0 -44 -15 -46 -38 -46c-25 0 -37 13 -37 40c5 135 11 500 11 587c0 25 0 60 8 68c11 11 21 15 33 15zM118 -52
c11 6 26 12 41 12c36 0 42 -25 42 -56c0 -24 -29 -102 -44 -124c-6 -7 -16 -12 -24 -12c-18 0 -29 22 -29 29c6 22 14 49 15 68c-14 11 -21 31 -21 49c0 13 7 27 20 34z" />
    <glyph glyph-name="L" unicode="L" horiz-adv-x="253" 
d="M110 85l28 -2h49c23 0 43 -1 58 -6c8 -3 8 -16 8 -28c0 -15 -2 -27 -17 -35c-14 -8 -49 -7 -73 -7c-63 0 -100 -2 -118 15c-11 10 -11 31 -12 56c2 36 3 142 3 256c0 140 -1 294 -4 345c11 17 23 24 35 24c14 0 22 -8 28 -12c17 -12 19 -48 19 -79c0 -56 0 -428 -4 -527z
" />
    <glyph glyph-name="Lacute" unicode="&#x139;" horiz-adv-x="253" 
d="M165 841c5 -4 7 -10 7 -14c0 -6 -3 -13 -9 -22c-19 -24 -74 -72 -90 -72c-20 0 -33 8 -33 20c0 13 12 30 20 40c1 1 29 40 50 53c6 3 13 6 17 6c8 0 27 -3 38 -11zM110 85l28 -2h49c23 0 43 -1 58 -6c8 -3 8 -16 8 -28c0 -15 -2 -27 -17 -35c-14 -8 -49 -7 -73 -7
c-63 0 -100 -2 -118 15c-11 10 -11 31 -12 56c2 36 3 142 3 256c0 140 -1 294 -4 345c11 17 23 24 35 24c14 0 22 -8 28 -12c17 -12 19 -48 19 -79c0 -56 0 -428 -4 -527z" />
    <glyph glyph-name="Lcaron" unicode="&#x13d;" horiz-adv-x="253" 
d="M112 93l28 -2h49c23 0 43 -1 58 -6c8 -3 8 -16 8 -28c0 -15 -2 -27 -17 -35c-14 -8 -49 -7 -73 -7c-63 0 -100 -2 -118 15c-11 10 -11 31 -12 56c2 36 3 142 3 256c0 140 -1 294 -4 345c11 17 23 24 35 24c14 0 22 -8 28 -12c17 -12 19 -48 19 -79c0 -56 0 -428 -4 -527z
M188 689c11 6 26 12 41 12c36 0 42 -25 42 -56c0 -24 -29 -102 -44 -124c-6 -7 -16 -12 -24 -12c-18 0 -29 22 -29 29c6 22 14 49 15 68c-14 11 -21 31 -21 49c0 13 7 27 20 34z" />
    <glyph glyph-name="Lcommaaccent" unicode="&#x13b;" horiz-adv-x="253" 
d="M110 85l28 -2h49c23 0 43 -1 58 -6c8 -3 8 -16 8 -28c0 -15 -2 -27 -17 -35c-14 -8 -49 -7 -73 -7c-63 0 -100 -2 -118 15c-11 10 -11 31 -12 56c2 36 3 142 3 256c0 140 -1 294 -4 345c11 17 23 24 35 24c14 0 22 -8 28 -12c17 -12 19 -48 19 -79c0 -56 0 -428 -4 -527z
M93 -52c11 6 26 12 41 12c36 0 42 -25 42 -56c0 -24 -29 -102 -44 -124c-6 -7 -16 -12 -24 -12c-18 0 -29 22 -29 29c6 22 14 49 15 68c-14 11 -21 31 -21 49c0 13 7 27 20 34z" />
    <glyph glyph-name="Lslash" unicode="&#x141;" horiz-adv-x="253" 
d="M245 77c8 -3 8 -16 8 -28c0 -15 -2 -27 -17 -35c-14 -8 -49 -7 -73 -7c-63 0 -100 -2 -118 15c-11 10 -11 31 -12 56c1 27 2 91 3 169l-31 -29c-16 -15 -29 0 -39 15c-10 13 -10 30 0 39l70 65c0 139 -1 291 -4 342c11 17 23 24 35 24c14 0 22 -8 28 -12
c17 -12 19 -48 19 -79v-202l71 66c9 8 24 7 35 -7c12 -19 17 -35 7 -44l-114 -106c0 -97 -1 -191 -3 -234l28 -2h49c23 0 43 -1 58 -6z" />
    <glyph glyph-name="M" unicode="M" horiz-adv-x="539" 
d="M422 683c14 8 29 11 43 11c25 0 35 -19 35 -49l2 -114c3 -145 5 -307 5 -456c0 -40 0 -76 -58 -76c-13 0 -23 6 -25 23c0 276 1 434 2 505c-12 -54 -21 -116 -31 -155c-17 -69 -35 -142 -60 -264c-12 -30 -39 -37 -65 -37c-24 0 -37 18 -44 38c-30 95 -83 296 -113 411
c0 -63 1 -151 2 -218c1 -94 1 -189 1 -270c-3 -24 -28 -29 -46 -29c-29 0 -33 30 -33 50c0 18 -2 203 -2 370c0 98 -1 192 -1 239c11 26 35 34 57 34c19 0 34 -7 44 -13c96 -351 142 -517 142 -517c20 93 90 411 103 451c10 33 17 52 42 66z" />
    <glyph glyph-name="N" unicode="N" horiz-adv-x="378" 
d="M35 649c3 22 25 39 59 39c21 -12 27 -37 32 -57l3 -13c44 -149 99 -352 146 -481c-3 64 -4 107 -4 124c0 53 -4 115 -5 171c-1 46 -3 98 -3 131v89c0 24 11 43 67 50c3 -5 6 -9 10 -21c0 -24 1 -85 2 -157c2 -110 4 -264 4 -360c0 -57 -1 -94 -4 -106
c-2 -21 -40 -40 -68 -40c-17 0 -30 5 -35 18l-130 406c4 -82 4 -126 4 -141c0 -127 2 -274 2 -274c-21 -19 -33 -23 -55 -23c-26 0 -26 77 -26 175v181c0 135 0 259 1 289z" />
    <glyph glyph-name="Nacute" unicode="&#x143;" horiz-adv-x="378" 
d="M248 841c5 -4 7 -10 7 -14c0 -6 -3 -13 -9 -22c-19 -24 -74 -72 -90 -72c-20 0 -33 8 -33 20c0 13 12 30 20 40c1 1 29 40 50 53c6 3 13 6 17 6c8 0 27 -3 38 -11zM35 649c3 22 25 39 59 39c21 -12 27 -37 32 -57l3 -13c44 -149 99 -352 146 -481c-3 64 -4 107 -4 124
c0 53 -4 115 -5 171c-1 46 -3 98 -3 131v89c0 24 11 43 67 50c3 -5 6 -9 10 -21c0 -24 1 -85 2 -157c2 -110 4 -264 4 -360c0 -57 -1 -94 -4 -106c-2 -21 -40 -40 -68 -40c-17 0 -30 5 -35 18l-130 406c4 -82 4 -126 4 -141c0 -127 2 -274 2 -274c-21 -19 -33 -23 -55 -23
c-26 0 -26 77 -26 175v181c0 135 0 259 1 289z" />
    <glyph glyph-name="Ncaron" unicode="&#x147;" horiz-adv-x="378" 
d="M289 828c0 -4 0 -7 -2 -9c0 0 -77 -77 -98 -78c-23 1 -46 22 -70 44l-26 21c-5 5 -7 13 -7 18c0 4 1 10 3 13c8 8 15 14 26 14c9 0 17 -6 30 -15l41 -31c7 6 34 29 53 40c5 3 12 6 16 6c14 0 29 -9 34 -23zM35 649c3 22 25 39 59 39c21 -12 27 -37 32 -57l3 -13
c44 -149 99 -352 146 -481c-3 64 -4 107 -4 124c0 53 -4 115 -5 171c-1 46 -3 98 -3 131v89c0 24 11 43 67 50c3 -5 6 -9 10 -21c0 -24 1 -85 2 -157c2 -110 4 -264 4 -360c0 -57 -1 -94 -4 -106c-2 -21 -40 -40 -68 -40c-17 0 -30 5 -35 18l-130 406c4 -82 4 -126 4 -141
c0 -127 2 -274 2 -274c-21 -19 -33 -23 -55 -23c-26 0 -26 77 -26 175v181c0 135 0 259 1 289z" />
    <glyph glyph-name="Ncommaaccent" unicode="&#x145;" horiz-adv-x="378" 
d="M35 649c3 22 25 39 59 39c21 -12 27 -37 32 -57l3 -13c44 -149 99 -352 146 -481c-3 64 -4 107 -4 124c0 53 -4 115 -5 171c-1 46 -3 98 -3 131v89c0 24 11 43 67 50c3 -5 6 -9 10 -21c0 -24 1 -85 2 -157c2 -110 4 -264 4 -360c0 -57 -1 -94 -4 -106
c-2 -21 -40 -40 -68 -40c-17 0 -30 5 -35 18l-130 406c4 -82 4 -126 4 -141c0 -127 2 -274 2 -274c-21 -19 -33 -23 -55 -23c-26 0 -26 77 -26 175v181c0 135 0 259 1 289zM155 -52c11 6 26 12 41 12c36 0 42 -25 42 -56c0 -24 -29 -102 -44 -124c-6 -7 -16 -12 -24 -12
c-18 0 -29 22 -29 29c6 22 14 49 15 68c-14 11 -21 31 -21 49c0 13 7 27 20 34z" />
    <glyph glyph-name="Eng" unicode="&#x14a;" horiz-adv-x="375" 
d="M213 -70c31 0 41 19 41 59v36l-148 415c0 -19 2 -39 2 -60c1 -32 2 -65 2 -79c0 -127 5 -279 5 -279c-6 -8 -18 -22 -50 -22c-29 0 -32 122 -32 251v109c0 135 1 260 2 290c2 22 23 36 57 36c21 -12 22 -38 35 -70c40 -137 100 -328 147 -462c0 65 -2 135 -4 203
c-2 75 -6 147 -6 206v89c0 24 8 44 64 50c3 -5 6 -9 10 -21c0 -24 1 -85 2 -157c1 -113 3 -259 3 -360c0 -188 -12 -222 -34 -253c-21 -29 -54 -48 -104 -48c-27 0 -50 9 -69 23c-7 9 -7 29 -7 33c0 17 16 31 29 31c3 0 6 0 11 -4c15 -11 26 -16 44 -16z" />
    <glyph glyph-name="Ntilde" unicode="&#xd1;" horiz-adv-x="378" 
d="M83 779c0 17 28 66 75 66c19 0 33 -8 45 -16c9 -5 18 -12 33 -12c8 0 17 7 23 11c7 6 15 12 27 14c0 0 17 -9 17 -24c0 -35 -38 -69 -70 -69c-23 0 -36 9 -48 18c-10 6 -18 13 -26 13c-11 0 -18 -8 -24 -15c-7 -8 -14 -15 -26 -15s-26 8 -26 29zM35 649c3 22 25 39 59 39
c21 -12 27 -37 32 -57l3 -13c44 -149 99 -352 146 -481c-3 64 -4 107 -4 124c0 53 -4 115 -5 171c-1 46 -3 98 -3 131v89c0 24 11 43 67 50c3 -5 6 -9 10 -21c0 -24 1 -85 2 -157c2 -110 4 -264 4 -360c0 -57 -1 -94 -4 -106c-2 -21 -40 -40 -68 -40c-17 0 -30 5 -35 18
l-130 406c4 -82 4 -126 4 -141c0 -127 2 -274 2 -274c-21 -19 -33 -23 -55 -23c-26 0 -26 77 -26 175v181c0 135 0 259 1 289z" />
    <glyph glyph-name="O" unicode="O" horiz-adv-x="340" 
d="M317 530c0 -27 1 -55 2 -80c1 -21 1 -51 1 -70c0 -224 -30 -382 -139 -382c-61 0 -114 19 -137 132c-12 55 -18 134 -18 204v129c0 85 27 245 163 245c76 0 125 -96 128 -178zM175 62c50 0 65 159 65 303c0 76 19 274 -63 274c-38 0 -72 -46 -72 -290
c0 -83 6 -287 70 -287z" />
    <glyph glyph-name="Oacute" unicode="&#xd3;" horiz-adv-x="340" 
d="M238 841c5 -4 7 -10 7 -14c0 -6 -3 -13 -9 -22c-19 -24 -74 -72 -90 -72c-20 0 -33 8 -33 20c0 13 12 30 20 40c1 1 29 40 50 53c6 3 13 6 17 6c8 0 27 -3 38 -11zM317 530c0 -27 1 -55 2 -80c1 -21 1 -51 1 -70c0 -224 -30 -382 -139 -382c-61 0 -114 19 -137 132
c-12 55 -18 134 -18 204v129c0 85 27 245 163 245c76 0 125 -96 128 -178zM175 62c50 0 65 159 65 303c0 76 19 274 -63 274c-38 0 -72 -46 -72 -290c0 -83 6 -287 70 -287z" />
    <glyph glyph-name="Ocircumflex" unicode="&#xd4;" horiz-adv-x="340" 
d="M287 771c2 -3 2 -7 2 -10c-6 -13 -20 -21 -34 -21c-7 0 -13 2 -16 4c-15 7 -54 42 -54 42c-8 -6 -28 -20 -45 -33c-12 -8 -19 -13 -30 -13c-12 0 -19 6 -26 12c-2 3 -3 9 -3 14s2 13 7 18l30 23c25 19 50 40 70 42c20 1 99 -78 99 -78zM317 530c0 -27 1 -55 2 -80
c1 -21 1 -51 1 -70c0 -224 -30 -382 -139 -382c-61 0 -114 19 -137 132c-12 55 -18 134 -18 204v129c0 85 27 245 163 245c76 0 125 -96 128 -178zM175 62c50 0 65 159 65 303c0 76 19 274 -63 274c-38 0 -72 -46 -72 -290c0 -83 6 -287 70 -287z" />
    <glyph glyph-name="Odieresis" unicode="&#xd6;" horiz-adv-x="340" 
d="M103 834c11 5 23 7 35 7c22 0 34 -16 34 -44c0 -27 -16 -39 -43 -39c-24 0 -42 24 -42 47c0 10 5 22 16 29zM199 834c12 5 24 7 36 7c24 0 34 -16 34 -44c0 -27 -16 -39 -43 -39c-25 0 -42 24 -42 47c0 10 5 22 15 29zM317 530c0 -27 1 -55 2 -80c1 -21 1 -51 1 -70
c0 -224 -30 -382 -139 -382c-61 0 -114 19 -137 132c-12 55 -18 134 -18 204v129c0 85 27 245 163 245c76 0 125 -96 128 -178zM175 62c50 0 65 159 65 303c0 76 19 274 -63 274c-38 0 -72 -46 -72 -290c0 -83 6 -287 70 -287z" />
    <glyph glyph-name="Ograve" unicode="&#xd2;" horiz-adv-x="340" 
d="M119 840c12 9 32 12 40 12c6 0 7 -1 8 -1c27 -17 58 -58 58 -58c8 -10 19 -27 19 -40c0 -12 -12 -20 -32 -20c-16 0 -83 63 -90 74c-6 9 -9 16 -9 20s2 9 6 13zM317 530c0 -27 1 -55 2 -80c1 -21 1 -51 1 -70c0 -224 -30 -382 -139 -382c-61 0 -114 19 -137 132
c-12 55 -18 134 -18 204v129c0 85 27 245 163 245c76 0 125 -96 128 -178zM175 62c50 0 65 159 65 303c0 76 19 274 -63 274c-38 0 -72 -46 -72 -290c0 -83 6 -287 70 -287z" />
    <glyph glyph-name="Ohungarumlaut" unicode="&#x150;" horiz-adv-x="340" 
d="M191 841c4 -3 6 -10 6 -14c0 -6 -3 -13 -8 -22c-19 -24 -75 -72 -90 -72c-21 0 -32 8 -32 20c0 13 10 30 19 40c1 1 28 40 50 53c6 3 13 6 16 6c8 0 28 -3 39 -11zM299 841c5 -4 7 -10 7 -14c0 -6 -3 -13 -9 -22c-19 -24 -74 -72 -90 -72c-20 0 -32 8 -32 20
c0 13 11 30 19 40c1 1 29 40 50 53c6 3 13 6 17 6c8 0 27 -3 38 -11zM317 530c0 -27 1 -55 2 -80c1 -21 1 -51 1 -70c0 -224 -30 -382 -139 -382c-61 0 -114 19 -137 132c-12 55 -18 134 -18 204v129c0 85 27 245 163 245c76 0 125 -96 128 -178zM175 62c50 0 65 159 65 303
c0 76 19 274 -63 274c-38 0 -72 -46 -72 -290c0 -83 6 -287 70 -287z" />
    <glyph glyph-name="Omacron" unicode="&#x14c;" horiz-adv-x="340" 
d="M291 784c-3 -20 -7 -35 -23 -35h-166c-24 0 -26 19 -26 36c0 14 12 27 27 27h162c13 0 26 -15 26 -28zM317 530c0 -27 1 -55 2 -80c1 -21 1 -51 1 -70c0 -224 -30 -382 -139 -382c-61 0 -114 19 -137 132c-12 55 -18 134 -18 204v129c0 85 27 245 163 245
c76 0 125 -96 128 -178zM175 62c50 0 65 159 65 303c0 76 19 274 -63 274c-38 0 -72 -46 -72 -290c0 -83 6 -287 70 -287z" />
    <glyph glyph-name="Oslash" unicode="&#xd8;" horiz-adv-x="340" 
d="M344 686l-1 -9c-2 -3 -16 -37 -36 -87c6 -20 9 -40 10 -60c0 -27 1 -55 2 -80c1 -21 1 -51 1 -70c0 -224 -30 -382 -139 -382c-36 0 -70 7 -96 36c-6 -13 -9 -21 -11 -23c-8 -14 -18 -26 -41 -26c-20 0 -37 0 -37 27c0 7 6 31 12 41l34 85c-11 55 -16 129 -16 196v129
c0 85 27 245 163 245c27 0 50 -12 70 -31l5 13c8 22 24 24 38 24c20 0 42 -3 42 -28zM105 349c0 -14 0 -33 1 -53l120 300c-10 26 -25 43 -49 43c-38 0 -72 -46 -72 -290zM240 365c0 16 1 38 1 62l-76 -190c-15 -38 -29 -73 -41 -104c11 -41 27 -71 51 -71
c50 0 65 159 65 303z" />
    <glyph glyph-name="Otilde" unicode="&#xd5;" horiz-adv-x="340" 
d="M73 779c0 17 28 66 75 66c19 0 33 -8 45 -16c9 -5 18 -12 33 -12c8 0 17 7 23 11c7 6 15 12 27 14c0 0 17 -9 17 -24c0 -35 -38 -69 -70 -69c-23 0 -36 9 -48 18c-10 6 -18 13 -26 13c-11 0 -18 -8 -24 -15c-7 -8 -14 -15 -26 -15s-26 8 -26 29zM317 530
c0 -27 1 -55 2 -80c1 -21 1 -51 1 -70c0 -224 -30 -382 -139 -382c-61 0 -114 19 -137 132c-12 55 -18 134 -18 204v129c0 85 27 245 163 245c76 0 125 -96 128 -178zM175 62c50 0 65 159 65 303c0 76 19 274 -63 274c-38 0 -72 -46 -72 -290c0 -83 6 -287 70 -287z" />
    <glyph glyph-name="OE" unicode="&#x152;" horiz-adv-x="450" 
d="M346 623c-18 0 -37 -1 -53 -4l-1 -74c0 -60 -1 -88 -1 -107v-22c0 -10 1 -27 0 -39c7 -2 53 -2 77 -2h9c43 0 45 -21 45 -32c0 -26 -18 -30 -36 -30h-60c-22 0 -29 -3 -29 -14v-47c0 -41 0 -89 -1 -128l-1 -60c0 -2 1 -2 2 -2h12c23 0 26 0 31 1c17 1 35 3 46 3
c20 0 39 -3 43 -13c3 -6 4 -14 4 -21c0 -17 -14 -27 -28 -28c-32 -3 -89 -7 -131 -7c-18 0 -31 2 -40 7c-15 -5 -32 -6 -47 -6c-60 0 -113 19 -136 132c-12 55 -19 134 -19 204c0 25 1 51 1 74v55c0 85 17 231 162 231c20 0 39 -9 56 -21c19 12 76 22 119 22
c29 0 65 -1 65 -35c0 -28 -25 -38 -64 -38h-9zM181 62c5 0 21 2 37 7v43c3 86 3 227 3 336c0 65 0 115 1 129c0 5 0 10 1 15c-11 20 -26 34 -40 34c-38 0 -72 -72 -72 -277c0 -83 7 -287 70 -287z" />
    <glyph glyph-name="P" unicode="P" horiz-adv-x="326" 
d="M34 628c15 69 86 75 133 75c52 0 97 -12 125 -56c17 -27 18 -77 18 -108c0 -72 -7 -162 -17 -192c-22 -65 -64 -92 -118 -92c-22 0 -62 0 -63 -1s-2 -55 -3 -108v-33c-1 -38 1 -68 1 -68c0 -5 -12 -46 -46 -46c-24 0 -35 4 -35 23zM152 638c-14 0 -35 -4 -37 -10
c-2 -89 -3 -155 -3 -217c0 -33 0 -57 1 -89h49c50 0 70 49 70 103c0 11 1 44 1 70v36c0 68 -15 107 -81 107z" />
    <glyph glyph-name="Thorn" unicode="&#xde;" horiz-adv-x="322" 
d="M119 589c16 4 31 7 48 7c99 0 136 -67 136 -164c0 -72 -7 -186 -17 -216c-21 -65 -64 -92 -118 -92c-15 0 -38 4 -53 7l-1 -89c-1 -7 -13 -46 -47 -46c-24 0 -30 4 -30 24l6 646c0 18 18 38 41 38c13 0 24 -5 36 -24zM146 531c-7 0 -17 -3 -28 -8l-3 -319
c17 -6 37 -11 52 -12c47 1 59 91 59 147c0 11 1 36 1 56v29c0 68 -16 107 -81 107z" />
    <glyph glyph-name="Q" unicode="Q" horiz-adv-x="338" 
d="M315 530c0 -27 1 -55 2 -80c1 -21 1 -51 1 -70c0 -105 -7 -195 -25 -262c35 -37 55 -83 59 -126c0 -8 -26 -24 -44 -24c-7 0 -16 5 -20 11c-9 21 -19 42 -31 59c-20 -26 -47 -40 -80 -40c-61 0 -113 19 -137 132c-11 55 -18 134 -18 204c0 25 1 51 1 74v55
c0 85 16 245 162 245c76 0 126 -96 130 -178zM101 349c0 -39 1 -100 9 -157h11c35 0 73 -9 106 -25c9 57 12 129 12 198c0 74 -3 160 -9 199c-4 28 -27 75 -57 75c-38 0 -72 -46 -72 -290zM171 62c16 0 27 12 37 33c-23 17 -52 29 -86 31c10 -38 26 -64 49 -64z" />
    <glyph glyph-name="R" unicode="R" horiz-adv-x="331" 
d="M34 628c15 69 86 75 133 75c52 0 97 -12 125 -56c17 -27 18 -77 18 -108c0 -72 -7 -162 -17 -192c-14 -40 -35 -67 -62 -80c30 -43 83 -130 98 -255c-1 -1 -17 -16 -41 -16c-16 0 -38 17 -41 26c-12 68 -49 193 -103 233c-16 0 -32 1 -32 1c-1 -2 -2 -86 -2 -143
c0 -38 1 -68 1 -68c0 -5 -13 -46 -47 -46c-24 0 -35 4 -35 23zM115 628c-2 -89 -3 -157 -3 -219c0 -34 0 -58 1 -90h49c50 0 71 52 71 106c0 11 1 44 1 70v36c0 68 -16 107 -82 107c-14 0 -36 -4 -37 -10z" />
    <glyph glyph-name="Racute" unicode="&#x154;" horiz-adv-x="331" 
d="M224 841c5 -4 7 -10 7 -14c0 -6 -3 -13 -9 -22c-19 -24 -74 -72 -90 -72c-20 0 -33 8 -33 20c0 13 12 30 20 40c1 1 29 40 50 53c6 3 13 6 17 6c8 0 27 -3 38 -11zM34 628c15 69 86 75 133 75c52 0 97 -12 125 -56c17 -27 18 -77 18 -108c0 -72 -7 -162 -17 -192
c-14 -40 -35 -67 -62 -80c30 -43 83 -130 98 -255c-1 -1 -17 -16 -41 -16c-16 0 -38 17 -41 26c-12 68 -49 193 -103 233c-16 0 -32 1 -32 1c-1 -2 -2 -86 -2 -143c0 -38 1 -68 1 -68c0 -5 -13 -46 -47 -46c-24 0 -35 4 -35 23zM115 628c-2 -89 -3 -157 -3 -219
c0 -34 0 -58 1 -90h49c50 0 71 52 71 106c0 11 1 44 1 70v36c0 68 -16 107 -82 107c-14 0 -36 -4 -37 -10z" />
    <glyph glyph-name="Rcaron" unicode="&#x158;" horiz-adv-x="331" 
d="M265 828c0 -4 0 -7 -2 -9c0 0 -77 -77 -98 -78c-23 1 -46 22 -70 44l-26 21c-5 5 -7 13 -7 18c0 4 1 10 3 13c8 8 15 14 26 14c9 0 17 -6 30 -15l41 -31c7 6 34 29 53 40c5 3 12 6 16 6c14 0 29 -9 34 -23zM34 628c15 69 86 75 133 75c52 0 97 -12 125 -56
c17 -27 18 -77 18 -108c0 -72 -7 -162 -17 -192c-14 -40 -35 -67 -62 -80c30 -43 83 -130 98 -255c-1 -1 -17 -16 -41 -16c-16 0 -38 17 -41 26c-12 68 -49 193 -103 233c-16 0 -32 1 -32 1c-1 -2 -2 -86 -2 -143c0 -38 1 -68 1 -68c0 -5 -13 -46 -47 -46
c-24 0 -35 4 -35 23zM115 628c-2 -89 -3 -157 -3 -219c0 -34 0 -58 1 -90h49c50 0 71 52 71 106c0 11 1 44 1 70v36c0 68 -16 107 -82 107c-14 0 -36 -4 -37 -10z" />
    <glyph glyph-name="Rcommaaccent" unicode="&#x156;" horiz-adv-x="331" 
d="M34 628c15 69 86 75 133 75c52 0 97 -12 125 -56c17 -27 18 -77 18 -108c0 -72 -7 -162 -17 -192c-14 -40 -35 -67 -62 -80c30 -43 83 -130 98 -255c-1 -1 -17 -16 -41 -16c-16 0 -38 17 -41 26c-12 68 -49 193 -103 233c-16 0 -32 1 -32 1c-1 -2 -2 -86 -2 -143
c0 -38 1 -68 1 -68c0 -5 -13 -46 -47 -46c-24 0 -35 4 -35 23zM115 628c-2 -89 -3 -157 -3 -219c0 -34 0 -58 1 -90h49c50 0 71 52 71 106c0 11 1 44 1 70v36c0 68 -16 107 -82 107c-14 0 -36 -4 -37 -10zM132 -52c11 6 26 12 41 12c36 0 42 -25 42 -56
c0 -24 -29 -102 -44 -124c-6 -7 -16 -12 -24 -12c-18 0 -29 22 -29 29c6 22 14 49 15 68c-14 11 -21 31 -21 49c0 13 7 27 20 34z" />
    <glyph glyph-name="S" unicode="S" horiz-adv-x="292" 
d="M156 702c103 0 118 -106 120 -179c0 -16 -3 -31 -24 -31c-24 0 -44 0 -53 26c-3 5 -2 22 -3 37c-2 38 -5 88 -38 88c-29 0 -51 -34 -51 -77c0 -51 44 -113 80 -165c45 -62 90 -131 90 -211c0 -104 -31 -196 -142 -196c-77 0 -121 81 -121 153c0 28 10 52 43 52
c29 0 46 -14 46 -44c2 -29 6 -96 43 -96c45 0 52 62 52 97c0 72 -40 128 -79 184c-44 61 -93 130 -93 222c0 86 58 140 130 140z" />
    <glyph glyph-name="Sacute" unicode="&#x15a;" horiz-adv-x="292" 
d="M204 841c5 -4 7 -10 7 -14c0 -6 -3 -13 -9 -22c-19 -24 -74 -72 -90 -72c-20 0 -33 8 -33 20c0 13 12 30 20 40c1 1 29 40 50 53c6 3 13 6 17 6c8 0 27 -3 38 -11zM156 702c103 0 118 -106 120 -179c0 -16 -3 -31 -24 -31c-24 0 -44 0 -53 26c-3 5 -2 22 -3 37
c-2 38 -5 88 -38 88c-29 0 -51 -34 -51 -77c0 -51 44 -113 80 -165c45 -62 90 -131 90 -211c0 -104 -31 -196 -142 -196c-77 0 -121 81 -121 153c0 28 10 52 43 52c29 0 46 -14 46 -44c2 -29 6 -96 43 -96c45 0 52 62 52 97c0 72 -40 128 -79 184c-44 61 -93 130 -93 222
c0 86 58 140 130 140z" />
    <glyph glyph-name="Scaron" unicode="&#x160;" horiz-adv-x="292" 
d="M245 828c0 -4 0 -7 -2 -9c0 0 -77 -77 -98 -78c-23 1 -46 22 -70 44l-26 21c-5 5 -7 13 -7 18c0 4 1 10 3 13c8 8 15 14 26 14c9 0 17 -6 30 -15l41 -31c7 6 34 29 53 40c5 3 12 6 16 6c14 0 29 -9 34 -23zM156 702c103 0 118 -106 120 -179c0 -16 -3 -31 -24 -31
c-24 0 -44 0 -53 26c-3 5 -2 22 -3 37c-2 38 -5 88 -38 88c-29 0 -51 -34 -51 -77c0 -51 44 -113 80 -165c45 -62 90 -131 90 -211c0 -104 -31 -196 -142 -196c-77 0 -121 81 -121 153c0 28 10 52 43 52c29 0 46 -14 46 -44c2 -29 6 -96 43 -96c45 0 52 62 52 97
c0 72 -40 128 -79 184c-44 61 -93 130 -93 222c0 86 58 140 130 140z" />
    <glyph glyph-name="Scedilla" unicode="&#x15e;" horiz-adv-x="292" 
d="M277 190c0 -100 -28 -188 -128 -195c-4 -7 -6 -13 -6 -16c5 -1 12 -2 18 -4c53 -16 63 -40 63 -74c0 -57 -43 -76 -81 -76c-28 0 -63 11 -63 41c0 18 8 26 18 26c9 0 24 -10 36 -10c17 0 35 5 35 22c0 19 -39 24 -53 30c-21 9 -32 18 -32 40c0 8 4 18 9 29
c-51 23 -79 86 -79 144c0 28 10 52 43 52c29 0 46 -14 46 -44c2 -29 6 -96 43 -96c45 0 52 62 52 97c0 72 -40 128 -79 184c-44 61 -93 130 -93 222c0 86 58 140 130 140c103 0 118 -106 120 -179c0 -16 -3 -31 -24 -31c-24 0 -44 0 -53 26c-3 5 -2 22 -3 37
c-2 38 -5 88 -38 88c-29 0 -51 -34 -51 -77c0 -51 44 -113 80 -165c45 -62 90 -131 90 -211z" />
    <glyph glyph-name="Scommaaccent" unicode="&#x218;" horiz-adv-x="292" 
d="M156 702c103 0 118 -106 120 -179c0 -16 -3 -31 -24 -31c-24 0 -44 0 -53 26c-3 5 -2 22 -3 37c-2 38 -5 88 -38 88c-29 0 -51 -34 -51 -77c0 -51 44 -113 80 -165c45 -62 90 -131 90 -211c0 -104 -31 -196 -142 -196c-77 0 -121 81 -121 153c0 28 10 52 43 52
c29 0 46 -14 46 -44c2 -29 6 -96 43 -96c45 0 52 62 52 97c0 72 -40 128 -79 184c-44 61 -93 130 -93 222c0 86 58 140 130 140zM112 -52c11 6 26 12 41 12c36 0 42 -25 42 -56c0 -24 -29 -102 -44 -124c-6 -7 -16 -12 -24 -12c-18 0 -29 22 -29 29c6 22 14 49 15 68
c-14 11 -21 31 -21 49c0 13 7 27 20 34z" />
    <glyph glyph-name="T" unicode="T" horiz-adv-x="286" 
d="M-2 668c4 14 14 26 27 31c38 0 234 0 244 -5c7 -4 20 -20 20 -30c0 -18 -13 -37 -22 -37c-4 0 -16 -1 -35 -1c-14 -1 -31 -1 -49 -1c0 -134 -1 -288 -2 -399c0 -41 -1 -118 -1 -135v-63c0 -4 -12 -29 -45 -29c-36 0 -40 16 -40 38v18c0 7 1 14 1 21c1 70 3 488 3 548h-37
c-20 0 -39 0 -45 1c-15 4 -19 24 -19 43z" />
    <glyph glyph-name="Tbar" unicode="&#x166;" horiz-adv-x="286" 
d="M256 433c13 0 25 -12 25 -30c-2 -23 -8 -39 -22 -39h-77c0 -50 -1 -97 -1 -138s-1 -118 -1 -135v-63c0 -4 -12 -29 -45 -29c-36 0 -40 16 -40 38v18c0 7 1 14 1 21c1 36 1 164 2 288h-70c-23 0 -24 20 -24 39c0 18 11 30 25 30h69c1 90 1 168 1 191h-37
c-20 0 -39 0 -45 1c-15 4 -19 24 -19 43c4 14 14 26 27 31c38 0 234 0 244 -5c7 -4 20 -20 20 -30c0 -18 -13 -37 -22 -37c-4 0 -16 -1 -35 -1c-14 -1 -31 -1 -49 -1c0 -62 0 -128 -1 -192h74z" />
    <glyph glyph-name="Tcaron" unicode="&#x164;" horiz-adv-x="286" 
d="M249 828c0 -4 0 -7 -2 -9c0 0 -77 -77 -98 -78c-23 1 -46 22 -70 44l-26 21c-5 5 -7 13 -7 18c0 4 1 10 3 13c8 8 15 14 26 14c9 0 17 -6 30 -15l41 -31c7 6 34 29 53 40c5 3 12 6 16 6c14 0 29 -9 34 -23zM-2 668c4 14 14 26 27 31c38 0 234 0 244 -5
c7 -4 20 -20 20 -30c0 -18 -13 -37 -22 -37c-4 0 -16 -1 -35 -1c-14 -1 -31 -1 -49 -1c0 -134 -1 -288 -2 -399c0 -41 -1 -118 -1 -135v-63c0 -4 -12 -29 -45 -29c-36 0 -40 16 -40 38v18c0 7 1 14 1 21c1 70 3 488 3 548h-37c-20 0 -39 0 -45 1c-15 4 -19 24 -19 43z" />
    <glyph glyph-name="uni0162" unicode="&#x162;" horiz-adv-x="286" 
d="M269 694c7 -4 20 -20 20 -30c0 -18 -13 -37 -22 -37c-4 0 -16 -1 -35 -1c-14 -1 -31 -1 -49 -1c0 -134 -1 -288 -2 -399c0 -41 -1 -118 -1 -135v-63c0 -3 -7 -18 -25 -25c-6 -11 -10 -20 -10 -24c5 -1 12 -2 18 -4c53 -16 63 -40 63 -74c0 -57 -43 -76 -81 -76
c-28 0 -63 11 -63 41c0 18 8 26 18 26c9 0 24 -10 36 -10c17 0 35 5 35 22c0 19 -39 24 -53 30c-21 9 -32 18 -32 40c0 10 6 24 14 38c-4 7 -5 15 -5 25v18c0 7 1 14 1 21c1 70 3 488 3 548h-37c-20 0 -39 0 -45 1c-15 4 -19 24 -19 43c4 14 14 26 27 31c38 0 234 0 244 -5z
" />
    <glyph glyph-name="uni021A" unicode="&#x21a;" horiz-adv-x="286" 
d="M-2 668c4 14 14 26 27 31c38 0 234 0 244 -5c7 -4 20 -20 20 -30c0 -18 -13 -37 -22 -37c-4 0 -16 -1 -35 -1c-14 -1 -31 -1 -49 -1c0 -134 -1 -288 -2 -399c0 -41 -1 -118 -1 -135v-63c0 -4 -12 -29 -45 -29c-36 0 -40 16 -40 38v18c0 7 1 14 1 21c1 70 3 488 3 548h-37
c-20 0 -39 0 -45 1c-15 4 -19 24 -19 43zM114 -52c11 6 26 12 41 12c36 0 42 -25 42 -56c0 -24 -29 -102 -44 -124c-6 -7 -16 -12 -24 -12c-18 0 -29 22 -29 29c6 22 14 49 15 68c-14 11 -21 31 -21 49c0 13 7 27 20 34z" />
    <glyph glyph-name="U" unicode="U" horiz-adv-x="368" 
d="M28 659c12 22 26 35 49 35c40 0 40 -38 40 -59v-484c0 -36 28 -89 66 -89c63 0 71 122 71 220c0 48 2 93 3 136c1 41 0 80 0 120c0 33 0 80 -1 113c12 36 45 40 65 40c6 0 15 -1 22 -19c0 -76 -12 -492 -20 -529c-30 -133 -91 -149 -154 -149c-71 0 -101 44 -120 92
c-14 38 -17 243 -19 431z" />
    <glyph glyph-name="Uacute" unicode="&#xda;" horiz-adv-x="368" 
d="M251 841c5 -4 7 -10 7 -14c0 -6 -3 -13 -9 -22c-19 -24 -74 -72 -90 -72c-20 0 -33 8 -33 20c0 13 12 30 20 40c1 1 29 40 50 53c6 3 13 6 17 6c8 0 27 -3 38 -11zM28 659c12 22 26 35 49 35c40 0 40 -38 40 -59v-484c0 -36 28 -89 66 -89c63 0 71 122 71 220
c0 48 2 93 3 136c1 41 0 80 0 120c0 33 0 80 -1 113c12 36 45 40 65 40c6 0 15 -1 22 -19c0 -76 -12 -492 -20 -529c-30 -133 -91 -149 -154 -149c-71 0 -101 44 -120 92c-14 38 -17 243 -19 431z" />
    <glyph glyph-name="Ucircumflex" unicode="&#xdb;" horiz-adv-x="368" 
d="M300 771c2 -3 2 -7 2 -10c-6 -13 -20 -21 -34 -21c-7 0 -13 2 -16 4c-15 7 -54 42 -54 42c-8 -6 -28 -20 -45 -33c-12 -8 -19 -13 -30 -13c-12 0 -19 6 -26 12c-2 3 -3 9 -3 14s2 13 7 18l30 23c25 19 50 40 70 42c20 1 99 -78 99 -78zM28 659c12 22 26 35 49 35
c40 0 40 -38 40 -59v-484c0 -36 28 -89 66 -89c63 0 71 122 71 220c0 48 2 93 3 136c1 41 0 80 0 120c0 33 0 80 -1 113c12 36 45 40 65 40c6 0 15 -1 22 -19c0 -76 -12 -492 -20 -529c-30 -133 -91 -149 -154 -149c-71 0 -101 44 -120 92c-14 38 -17 243 -19 431z" />
    <glyph glyph-name="Udieresis" unicode="&#xdc;" horiz-adv-x="368" 
d="M116 834c11 5 23 7 35 7c22 0 34 -16 34 -44c0 -27 -16 -39 -43 -39c-24 0 -42 24 -42 47c0 10 5 22 16 29zM212 834c12 5 24 7 36 7c24 0 34 -16 34 -44c0 -27 -16 -39 -43 -39c-25 0 -42 24 -42 47c0 10 5 22 15 29zM28 659c12 22 26 35 49 35c40 0 40 -38 40 -59v-484
c0 -36 28 -89 66 -89c63 0 71 122 71 220c0 48 2 93 3 136c1 41 0 80 0 120c0 33 0 80 -1 113c12 36 45 40 65 40c6 0 15 -1 22 -19c0 -76 -12 -492 -20 -529c-30 -133 -91 -149 -154 -149c-71 0 -101 44 -120 92c-14 38 -17 243 -19 431z" />
    <glyph glyph-name="Ugrave" unicode="&#xd9;" horiz-adv-x="368" 
d="M132 840c12 9 32 12 40 12c6 0 7 -1 8 -1c27 -17 58 -58 58 -58c8 -10 19 -27 19 -40c0 -12 -12 -20 -32 -20c-16 0 -83 63 -90 74c-6 9 -9 16 -9 20s2 9 6 13zM28 659c12 22 26 35 49 35c40 0 40 -38 40 -59v-484c0 -36 28 -89 66 -89c63 0 71 122 71 220
c0 48 2 93 3 136c1 41 0 80 0 120c0 33 0 80 -1 113c12 36 45 40 65 40c6 0 15 -1 22 -19c0 -76 -12 -492 -20 -529c-30 -133 -91 -149 -154 -149c-71 0 -101 44 -120 92c-14 38 -17 243 -19 431z" />
    <glyph glyph-name="Uhungarumlaut" unicode="&#x170;" horiz-adv-x="368" 
d="M204 841c4 -3 6 -10 6 -14c0 -6 -3 -13 -8 -22c-19 -24 -75 -72 -90 -72c-21 0 -32 8 -32 20c0 13 10 30 19 40c1 1 28 40 50 53c6 3 13 6 16 6c8 0 28 -3 39 -11zM312 841c5 -4 7 -10 7 -14c0 -6 -3 -13 -9 -22c-19 -24 -74 -72 -90 -72c-20 0 -32 8 -32 20
c0 13 11 30 19 40c1 1 29 40 50 53c6 3 13 6 17 6c8 0 27 -3 38 -11zM28 659c12 22 26 35 49 35c40 0 40 -38 40 -59v-484c0 -36 28 -89 66 -89c63 0 71 122 71 220c0 48 2 93 3 136c1 41 0 80 0 120c0 33 0 80 -1 113c12 36 45 40 65 40c6 0 15 -1 22 -19
c0 -76 -12 -492 -20 -529c-30 -133 -91 -149 -154 -149c-71 0 -101 44 -120 92c-14 38 -17 243 -19 431z" />
    <glyph glyph-name="Umacron" unicode="&#x16a;" horiz-adv-x="368" 
d="M304 784c-3 -20 -7 -35 -23 -35h-166c-24 0 -26 19 -26 36c0 14 12 27 27 27h162c13 0 26 -15 26 -28zM28 659c12 22 26 35 49 35c40 0 40 -38 40 -59v-484c0 -36 28 -89 66 -89c63 0 71 122 71 220c0 48 2 93 3 136c1 41 0 80 0 120c0 33 0 80 -1 113c12 36 45 40 65 40
c6 0 15 -1 22 -19c0 -76 -12 -492 -20 -529c-30 -133 -91 -149 -154 -149c-71 0 -101 44 -120 92c-14 38 -17 243 -19 431z" />
    <glyph glyph-name="Uogonek" unicode="&#x172;" horiz-adv-x="368" 
d="M221 -12c-9 -16 -20 -32 -30 -47c-8 -12 -11 -22 -11 -34s4 -21 14 -21c22 0 26 15 29 37c3 18 14 27 25 27c16 0 27 -9 27 -29c0 -19 -5 -40 -16 -54c-13 -16 -33 -30 -71 -30s-71 23 -71 66c0 31 14 65 35 92c-59 6 -86 47 -103 91c-14 38 -17 243 -19 431l-2 142
c12 22 26 35 49 35c40 0 40 -38 40 -59v-484c0 -36 28 -89 66 -89c63 0 71 122 71 220c0 48 2 93 3 136c1 41 0 80 0 120c0 33 0 80 -1 113c12 36 45 40 65 40c6 0 15 -1 22 -19c0 -76 -12 -492 -20 -529c-20 -91 -55 -127 -95 -141c-2 -5 -5 -10 -7 -14z" />
    <glyph glyph-name="Uring" unicode="&#x16e;" horiz-adv-x="368" 
d="M135 798c0 36 28 59 61 59c34 0 59 -29 59 -61s-24 -59 -61 -59c-34 0 -59 28 -59 61zM180 796c0 -7 7 -15 14 -15s17 6 17 18c0 6 -5 15 -17 15c-7 0 -14 -10 -14 -18zM28 659c12 22 26 35 49 35c40 0 40 -38 40 -59v-484c0 -36 28 -89 66 -89c63 0 71 122 71 220
c0 48 2 93 3 136c1 41 0 80 0 120c0 33 0 80 -1 113c12 36 45 40 65 40c6 0 15 -1 22 -19c0 -76 -12 -492 -20 -529c-30 -133 -91 -149 -154 -149c-71 0 -101 44 -120 92c-14 38 -17 243 -19 431z" />
    <glyph glyph-name="V" unicode="V" horiz-adv-x="346" 
d="M216 372l55 310c8 16 27 18 40 18c19 0 27 -20 27 -38c0 -14 -3 -23 -5 -34l-3 -18c-22 -137 -63 -348 -101 -526c-10 -43 -16 -81 -66 -81c-46 0 -58 58 -64 97c-33 193 -57 347 -85 546c0 25 4 50 42 53c12 0 31 -12 35 -23c7 -27 11 -64 18 -120
c10 -87 19 -184 61 -422z" />
    <glyph glyph-name="W" unicode="W" horiz-adv-x="594" 
d="M467 373v-1l55 310c9 16 27 18 40 18c22 0 28 -13 28 -32c0 -17 -5 -38 -8 -58c-23 -134 -66 -368 -110 -539c-10 -37 -18 -68 -62 -68c-46 0 -59 58 -65 97c-20 119 -35 230 -50 339c-21 -113 -46 -252 -78 -368c-9 -37 -18 -68 -62 -68c-46 0 -59 58 -65 97
c-24 146 -41 275 -59 411c-8 66 -24 139 -24 159c0 22 14 27 45 29c13 0 32 -12 36 -23c6 -27 10 -62 15 -114c9 -87 28 -208 60 -439l50 250l42 170c0 10 26 39 48 39c21 0 36 -13 39 -25c9 -33 14 -57 23 -118c10 -58 16 -130 51 -318z" />
    <glyph glyph-name="Wacute" unicode="&#x1e82;" horiz-adv-x="594" 
d="M355 841c5 -4 7 -10 7 -14c0 -6 -3 -13 -9 -22c-19 -24 -74 -72 -90 -72c-20 0 -33 8 -33 20c0 13 12 30 20 40c1 1 29 40 50 53c6 3 13 6 17 6c8 0 27 -3 38 -11zM467 373v-1l55 310c9 16 27 18 40 18c22 0 28 -13 28 -32c0 -17 -5 -38 -8 -58
c-23 -134 -66 -368 -110 -539c-10 -37 -18 -68 -62 -68c-46 0 -59 58 -65 97c-20 119 -35 230 -50 339c-21 -113 -46 -252 -78 -368c-9 -37 -18 -68 -62 -68c-46 0 -59 58 -65 97c-24 146 -41 275 -59 411c-8 66 -24 139 -24 159c0 22 14 27 45 29c13 0 32 -12 36 -23
c6 -27 10 -62 15 -114c9 -87 28 -208 60 -439l50 250l42 170c0 10 26 39 48 39c21 0 36 -13 39 -25c9 -33 14 -57 23 -118c10 -58 16 -130 51 -318z" />
    <glyph glyph-name="Wcircumflex" unicode="&#x174;" horiz-adv-x="594" 
d="M404 771c2 -3 2 -7 2 -10c-6 -13 -20 -21 -34 -21c-7 0 -13 2 -16 4c-15 7 -54 42 -54 42c-8 -6 -28 -20 -45 -33c-12 -8 -19 -13 -30 -13c-12 0 -19 6 -26 12c-2 3 -3 9 -3 14s2 13 7 18l30 23c25 19 50 40 70 42c20 1 99 -78 99 -78zM467 373v-1l55 310
c9 16 27 18 40 18c22 0 28 -13 28 -32c0 -17 -5 -38 -8 -58c-23 -134 -66 -368 -110 -539c-10 -37 -18 -68 -62 -68c-46 0 -59 58 -65 97c-20 119 -35 230 -50 339c-21 -113 -46 -252 -78 -368c-9 -37 -18 -68 -62 -68c-46 0 -59 58 -65 97c-24 146 -41 275 -59 411
c-8 66 -24 139 -24 159c0 22 14 27 45 29c13 0 32 -12 36 -23c6 -27 10 -62 15 -114c9 -87 28 -208 60 -439l50 250l42 170c0 10 26 39 48 39c21 0 36 -13 39 -25c9 -33 14 -57 23 -118c10 -58 16 -130 51 -318z" />
    <glyph glyph-name="Wdieresis" unicode="&#x1e84;" horiz-adv-x="594" 
d="M220 834c11 5 23 7 35 7c22 0 34 -16 34 -44c0 -27 -16 -39 -43 -39c-24 0 -42 24 -42 47c0 10 5 22 16 29zM316 834c12 5 24 7 36 7c24 0 34 -16 34 -44c0 -27 -16 -39 -43 -39c-25 0 -42 24 -42 47c0 10 5 22 15 29zM467 373v-1l55 310c9 16 27 18 40 18
c22 0 28 -13 28 -32c0 -17 -5 -38 -8 -58c-23 -134 -66 -368 -110 -539c-10 -37 -18 -68 -62 -68c-46 0 -59 58 -65 97c-20 119 -35 230 -50 339c-21 -113 -46 -252 -78 -368c-9 -37 -18 -68 -62 -68c-46 0 -59 58 -65 97c-24 146 -41 275 -59 411c-8 66 -24 139 -24 159
c0 22 14 27 45 29c13 0 32 -12 36 -23c6 -27 10 -62 15 -114c9 -87 28 -208 60 -439l50 250l42 170c0 10 26 39 48 39c21 0 36 -13 39 -25c9 -33 14 -57 23 -118c10 -58 16 -130 51 -318z" />
    <glyph glyph-name="Wgrave" unicode="&#x1e80;" horiz-adv-x="594" 
d="M236 840c12 9 32 12 40 12c6 0 7 -1 8 -1c27 -17 58 -58 58 -58c8 -10 19 -27 19 -40c0 -12 -12 -20 -32 -20c-16 0 -83 63 -90 74c-6 9 -9 16 -9 20s2 9 6 13zM467 373v-1l55 310c9 16 27 18 40 18c22 0 28 -13 28 -32c0 -17 -5 -38 -8 -58c-23 -134 -66 -368 -110 -539
c-10 -37 -18 -68 -62 -68c-46 0 -59 58 -65 97c-20 119 -35 230 -50 339c-21 -113 -46 -252 -78 -368c-9 -37 -18 -68 -62 -68c-46 0 -59 58 -65 97c-24 146 -41 275 -59 411c-8 66 -24 139 -24 159c0 22 14 27 45 29c13 0 32 -12 36 -23c6 -27 10 -62 15 -114
c9 -87 28 -208 60 -439l50 250l42 170c0 10 26 39 48 39c21 0 36 -13 39 -25c9 -33 14 -57 23 -118c10 -58 16 -130 51 -318z" />
    <glyph glyph-name="X" unicode="X" horiz-adv-x="367" 
d="M4 25c0 0 69 165 143 336c-45 114 -86 226 -105 280c-3 8 -5 16 -5 22c0 21 16 33 35 33c20 0 36 -18 42 -38c15 -42 43 -114 76 -197c41 93 79 177 102 223c2 5 15 16 25 16c18 0 40 -18 40 -38c0 -4 -1 -7 -3 -11c-14 -28 -62 -137 -125 -287
c49 -123 101 -252 134 -331c0 0 -8 -35 -38 -35c-7 0 -21 3 -27 10c-17 21 -63 131 -113 255l-95 -225c-11 -23 -26 -43 -48 -43c-13 0 -29 11 -37 23z" />
    <glyph glyph-name="Y" unicode="Y" horiz-adv-x="321" 
d="M237 686c10 10 21 11 28 11c11 0 23 -7 28 -27c2 -14 2 -28 2 -43c0 -14 -10 -456 -17 -496c-10 -56 -36 -132 -137 -132c-22 0 -112 7 -112 138c0 35 19 45 43 45c17 0 38 -3 38 -76c0 -30 13 -42 41 -42c42 0 56 43 56 83l4 112c-19 -7 -43 -12 -69 -12
c-18 0 -32 6 -53 15c-68 30 -68 181 -68 272c0 18 1 33 1 50c1 19 1 39 1 69c0 11 23 42 47 42c19 0 25 -16 25 -35c0 -96 1 -195 12 -293c3 -13 18 -52 56 -52c12 0 28 6 51 20l7 292c0 18 2 45 16 59z" />
    <glyph glyph-name="Yacute" unicode="&#xdd;" horiz-adv-x="321" 
d="M219 841c5 -4 7 -10 7 -14c0 -6 -3 -13 -9 -22c-19 -24 -74 -72 -90 -72c-20 0 -33 8 -33 20c0 13 12 30 20 40c1 1 29 40 50 53c6 3 13 6 17 6c8 0 27 -3 38 -11zM237 686c10 10 21 11 28 11c11 0 23 -7 28 -27c2 -14 2 -28 2 -43c0 -14 -10 -456 -17 -496
c-10 -56 -36 -132 -137 -132c-22 0 -112 7 -112 138c0 35 19 45 43 45c17 0 38 -3 38 -76c0 -30 13 -42 41 -42c42 0 56 43 56 83l4 112c-19 -7 -43 -12 -69 -12c-18 0 -32 6 -53 15c-68 30 -68 181 -68 272c0 18 1 33 1 50c1 19 1 39 1 69c0 11 23 42 47 42
c19 0 25 -16 25 -35c0 -96 1 -195 12 -293c3 -13 18 -52 56 -52c12 0 28 6 51 20l7 292c0 18 2 45 16 59z" />
    <glyph glyph-name="Ycircumflex" unicode="&#x176;" horiz-adv-x="321" 
d="M268 771c2 -3 2 -7 2 -10c-6 -13 -20 -21 -34 -21c-7 0 -13 2 -16 4c-15 7 -54 42 -54 42c-8 -6 -28 -20 -45 -33c-12 -8 -19 -13 -30 -13c-12 0 -19 6 -26 12c-2 3 -3 9 -3 14s2 13 7 18l30 23c25 19 50 40 70 42c20 1 99 -78 99 -78zM237 686c10 10 21 11 28 11
c11 0 23 -7 28 -27c2 -14 2 -28 2 -43c0 -14 -10 -456 -17 -496c-10 -56 -36 -132 -137 -132c-22 0 -112 7 -112 138c0 35 19 45 43 45c17 0 38 -3 38 -76c0 -30 13 -42 41 -42c42 0 56 43 56 83l4 112c-19 -7 -43 -12 -69 -12c-18 0 -32 6 -53 15c-68 30 -68 181 -68 272
c0 18 1 33 1 50c1 19 1 39 1 69c0 11 23 42 47 42c19 0 25 -16 25 -35c0 -96 1 -195 12 -293c3 -13 18 -52 56 -52c12 0 28 6 51 20l7 292c0 18 2 45 16 59z" />
    <glyph glyph-name="Ydieresis" unicode="&#x178;" horiz-adv-x="321" 
d="M84 834c11 5 23 7 35 7c22 0 34 -16 34 -44c0 -27 -16 -39 -43 -39c-24 0 -42 24 -42 47c0 10 5 22 16 29zM180 834c12 5 24 7 36 7c24 0 34 -16 34 -44c0 -27 -16 -39 -43 -39c-25 0 -42 24 -42 47c0 10 5 22 15 29zM237 686c10 10 21 11 28 11c11 0 23 -7 28 -27
c2 -14 2 -28 2 -43c0 -14 -10 -456 -17 -496c-10 -56 -36 -132 -137 -132c-22 0 -112 7 -112 138c0 35 19 45 43 45c17 0 38 -3 38 -76c0 -30 13 -42 41 -42c42 0 56 43 56 83l4 112c-19 -7 -43 -12 -69 -12c-18 0 -32 6 -53 15c-68 30 -68 181 -68 272c0 18 1 33 1 50
c1 19 1 39 1 69c0 11 23 42 47 42c19 0 25 -16 25 -35c0 -96 1 -195 12 -293c3 -13 18 -52 56 -52c12 0 28 6 51 20l7 292c0 18 2 45 16 59z" />
    <glyph glyph-name="Ygrave" unicode="&#x1ef2;" horiz-adv-x="321" 
d="M100 840c12 9 32 12 40 12c6 0 7 -1 8 -1c27 -17 58 -58 58 -58c8 -10 19 -27 19 -40c0 -12 -12 -20 -32 -20c-16 0 -83 63 -90 74c-6 9 -9 16 -9 20s2 9 6 13zM237 686c10 10 21 11 28 11c11 0 23 -7 28 -27c2 -14 2 -28 2 -43c0 -14 -10 -456 -17 -496
c-10 -56 -36 -132 -137 -132c-22 0 -112 7 -112 138c0 35 19 45 43 45c17 0 38 -3 38 -76c0 -30 13 -42 41 -42c42 0 56 43 56 83l4 112c-19 -7 -43 -12 -69 -12c-18 0 -32 6 -53 15c-68 30 -68 181 -68 272c0 18 1 33 1 50c1 19 1 39 1 69c0 11 23 42 47 42
c19 0 25 -16 25 -35c0 -96 1 -195 12 -293c3 -13 18 -52 56 -52c12 0 28 6 51 20l7 292c0 18 2 45 16 59z" />
    <glyph glyph-name="Z" unicode="Z" horiz-adv-x="304" 
d="M39 650c0 9 2 20 6 29c0 5 134 8 176 8c4 0 12 0 27 -2c43 -3 55 -25 55 -53c0 -30 -10 -61 -10 -61l-200 -497h165c17 -6 22 -21 22 -32c0 -13 -9 -29 -18 -35c0 0 -88 -5 -156 -5c-29 0 -50 0 -55 1c-38 11 -50 41 -50 58c0 2 97 239 110 268c14 30 102 255 110 291
l-144 -1c-29 0 -38 15 -38 31z" />
    <glyph glyph-name="Zacute" unicode="&#x179;" horiz-adv-x="304" 
d="M231 841c5 -4 7 -10 7 -14c0 -6 -3 -13 -9 -22c-19 -24 -74 -72 -90 -72c-20 0 -33 8 -33 20c0 13 12 30 20 40c1 1 29 40 50 53c6 3 13 6 17 6c8 0 27 -3 38 -11zM39 650c0 9 2 20 6 29c0 5 134 8 176 8c4 0 12 0 27 -2c43 -3 55 -25 55 -53c0 -30 -10 -61 -10 -61
l-200 -497h165c17 -6 22 -21 22 -32c0 -13 -9 -29 -18 -35c0 0 -88 -5 -156 -5c-29 0 -50 0 -55 1c-38 11 -50 41 -50 58c0 2 97 239 110 268c14 30 102 255 110 291l-144 -1c-29 0 -38 15 -38 31z" />
    <glyph glyph-name="Zcaron" unicode="&#x17d;" horiz-adv-x="304" 
d="M272 828c0 -4 0 -7 -2 -9c0 0 -77 -77 -98 -78c-23 1 -46 22 -70 44l-26 21c-5 5 -7 13 -7 18c0 4 1 10 3 13c8 8 15 14 26 14c9 0 17 -6 30 -15l41 -31c7 6 34 29 53 40c5 3 12 6 16 6c14 0 29 -9 34 -23zM39 650c0 9 2 20 6 29c0 5 134 8 176 8c4 0 12 0 27 -2
c43 -3 55 -25 55 -53c0 -30 -10 -61 -10 -61l-200 -497h165c17 -6 22 -21 22 -32c0 -13 -9 -29 -18 -35c0 0 -88 -5 -156 -5c-29 0 -50 0 -55 1c-38 11 -50 41 -50 58c0 2 97 239 110 268c14 30 102 255 110 291l-144 -1c-29 0 -38 15 -38 31z" />
    <glyph glyph-name="Zdotaccent" unicode="&#x17b;" horiz-adv-x="304" 
d="M145 834c11 4 23 9 35 9c31 0 35 -19 35 -46c0 -26 -16 -42 -43 -42c-25 0 -43 27 -43 50c0 10 4 22 16 29zM39 650c0 9 2 20 6 29c0 5 134 8 176 8c4 0 12 0 27 -2c43 -3 55 -25 55 -53c0 -30 -10 -61 -10 -61l-200 -497h165c17 -6 22 -21 22 -32c0 -13 -9 -29 -18 -35
c0 0 -88 -5 -156 -5c-29 0 -50 0 -55 1c-38 11 -50 41 -50 58c0 2 97 239 110 268c14 30 102 255 110 291l-144 -1c-29 0 -38 15 -38 31z" />
    <glyph glyph-name="a" unicode="a" horiz-adv-x="298" 
d="M278 49c1 -4 1 -7 1 -11c0 -26 -18 -34 -46 -35c-16 0 -21 11 -21 21l-22 170c-25 0 -56 -1 -80 -1l-5 -34c-7 -47 -17 -119 -25 -138c-6 -5 -38 -16 -47 -16c-10 0 -19 6 -19 24c0 4 1 13 3 19l15 88c21 117 41 238 67 363c7 37 15 78 66 78c39 0 46 -47 51 -80
c20 -145 43 -304 62 -448zM141 380l-21 -129c19 0 42 1 63 1l-26 219z" />
    <glyph glyph-name="aacute" unicode="&#xe1;" horiz-adv-x="298" 
d="M123 620c-20 0 -32 8 -32 20c0 13 11 30 19 40c1 1 29 40 50 53c6 3 13 6 17 6c8 0 27 -3 38 -11c5 -4 7 -10 7 -14c0 -6 -3 -13 -9 -22c-19 -24 -74 -72 -90 -72zM278 49c1 -4 1 -7 1 -11c0 -26 -18 -34 -46 -35c-16 0 -21 11 -21 21l-22 170c-25 0 -56 -1 -80 -1
l-5 -34c-7 -47 -17 -119 -25 -138c-6 -5 -38 -16 -47 -16c-10 0 -19 6 -19 24c0 4 1 13 3 19l15 88c21 117 41 238 67 363c7 37 15 78 66 78c39 0 46 -47 51 -80c20 -145 43 -304 62 -448zM141 380l-21 -129c19 0 42 1 63 1l-26 219z" />
    <glyph glyph-name="abreve" unicode="&#x103;" horiz-adv-x="298" 
d="M165 628c-67 0 -99 42 -99 81c0 5 1 10 3 13c8 8 14 10 23 10c13 0 24 -6 28 -16c9 -18 21 -36 43 -36c18 0 38 24 47 44c5 10 14 10 20 10c14 0 26 -6 33 -20c1 -1 1 -4 0 -6c0 0 -23 -80 -98 -80zM278 49c1 -4 1 -7 1 -11c0 -26 -18 -34 -46 -35c-16 0 -21 11 -21 21
l-22 170c-25 0 -56 -1 -80 -1l-5 -34c-7 -47 -17 -119 -25 -138c-6 -5 -38 -16 -47 -16c-10 0 -19 6 -19 24c0 4 1 13 3 19l15 88c21 117 41 238 67 363c7 37 15 78 66 78c39 0 46 -47 51 -80c20 -145 43 -304 62 -448zM141 380l-21 -129c19 0 42 1 63 1l-26 219z" />
    <glyph glyph-name="acircumflex" unicode="&#xe2;" horiz-adv-x="298" 
d="M88 627c-12 0 -19 6 -26 12c-2 3 -3 9 -3 14s2 13 7 18l30 23c25 19 50 40 70 42c20 1 99 -78 99 -78c2 -3 2 -7 2 -10c-6 -13 -20 -21 -34 -21c-7 0 -13 2 -16 4c-15 7 -54 42 -54 42c-8 -6 -28 -20 -45 -33c-12 -8 -19 -13 -30 -13zM278 49c1 -4 1 -7 1 -11
c0 -26 -18 -34 -46 -35c-16 0 -21 11 -21 21l-22 170c-25 0 -56 -1 -80 -1l-5 -34c-7 -47 -17 -119 -25 -138c-6 -5 -38 -16 -47 -16c-10 0 -19 6 -19 24c0 4 1 13 3 19l15 88c21 117 41 238 67 363c7 37 15 78 66 78c39 0 46 -47 51 -80c20 -145 43 -304 62 -448zM141 380
l-21 -129c19 0 42 1 63 1l-26 219z" />
    <glyph glyph-name="adieresis" unicode="&#xe4;" horiz-adv-x="298" 
d="M107 645c-24 0 -42 24 -42 47c0 10 5 22 16 29c11 5 23 7 35 7c22 0 34 -16 34 -44c0 -27 -16 -39 -43 -39zM204 645c-25 0 -42 24 -42 47c0 10 5 22 15 29c12 5 24 7 36 7c24 0 34 -16 34 -44c0 -27 -16 -39 -43 -39zM278 49c1 -4 1 -7 1 -11c0 -26 -18 -34 -46 -35
c-16 0 -21 11 -21 21l-22 170c-25 0 -56 -1 -80 -1l-5 -34c-7 -47 -17 -119 -25 -138c-6 -5 -38 -16 -47 -16c-10 0 -19 6 -19 24c0 4 1 13 3 19l15 88c21 117 41 238 67 363c7 37 15 78 66 78c39 0 46 -47 51 -80c20 -145 43 -304 62 -448zM141 380l-21 -129
c19 0 42 1 63 1l-26 219z" />
    <glyph glyph-name="agrave" unicode="&#xe0;" horiz-adv-x="298" 
d="M190 620c-16 0 -83 63 -90 74c-6 9 -9 16 -9 20s2 9 6 13c12 9 32 12 40 12c6 0 7 -1 8 -1c27 -17 58 -58 58 -58c8 -10 19 -27 19 -40c0 -12 -12 -20 -32 -20zM278 49c1 -4 1 -7 1 -11c0 -26 -18 -34 -46 -35c-16 0 -21 11 -21 21l-22 170c-25 0 -56 -1 -80 -1l-5 -34
c-7 -47 -17 -119 -25 -138c-6 -5 -38 -16 -47 -16c-10 0 -19 6 -19 24c0 4 1 13 3 19l15 88c21 117 41 238 67 363c7 37 15 78 66 78c39 0 46 -47 51 -80c20 -145 43 -304 62 -448zM141 380l-21 -129c19 0 42 1 63 1l-26 219z" />
    <glyph glyph-name="amacron" unicode="&#x101;" horiz-adv-x="298" 
d="M80 636c-24 0 -26 19 -26 36c0 14 12 27 27 27h162c13 0 26 -15 26 -28c-3 -20 -7 -35 -23 -35h-166zM278 49c1 -4 1 -7 1 -11c0 -26 -18 -34 -46 -35c-16 0 -21 11 -21 21l-22 170c-25 0 -56 -1 -80 -1l-5 -34c-7 -47 -17 -119 -25 -138c-6 -5 -38 -16 -47 -16
c-10 0 -19 6 -19 24c0 4 1 13 3 19l15 88c21 117 41 238 67 363c7 37 15 78 66 78c39 0 46 -47 51 -80c20 -145 43 -304 62 -448zM141 380l-21 -129c19 0 42 1 63 1l-26 219z" />
    <glyph glyph-name="aogonek" unicode="&#x105;" horiz-adv-x="298" 
d="M288 -37c16 0 27 -9 27 -29c0 -19 -5 -40 -16 -54c-13 -16 -33 -30 -71 -30s-71 23 -71 66c0 40 23 84 54 114l-21 164c-25 0 -56 -1 -80 -1l-5 -34c-7 -47 -17 -119 -25 -138c-6 -5 -38 -16 -47 -16c-10 0 -19 6 -19 24c0 4 1 13 3 19l15 88c21 117 41 238 67 363
c7 37 15 78 66 78c39 0 46 -47 51 -80c20 -145 43 -304 62 -448c1 -4 1 -7 1 -11c0 -13 -5 -22 -13 -27c-2 -4 -4 -7 -5 -10c-9 -16 -20 -32 -30 -47c-8 -12 -11 -22 -11 -34s4 -21 14 -21c22 0 26 15 29 37c3 18 14 27 25 27zM141 380l-21 -129c19 0 42 1 63 1l-26 219z
" />
    <glyph glyph-name="aring" unicode="&#xe5;" horiz-adv-x="298" 
d="M159 624c-34 0 -59 28 -59 61c0 36 28 59 61 59c34 0 59 -29 59 -61s-24 -59 -61 -59zM159 701c-7 0 -14 -10 -14 -18c0 -7 7 -15 14 -15s17 6 17 18c0 6 -5 15 -17 15zM278 49c1 -4 1 -7 1 -11c0 -26 -18 -34 -46 -35c-16 0 -21 11 -21 21l-22 170c-25 0 -56 -1 -80 -1
l-5 -34c-7 -47 -17 -119 -25 -138c-6 -5 -38 -16 -47 -16c-10 0 -19 6 -19 24c0 4 1 13 3 19l15 88c21 117 41 238 67 363c7 37 15 78 66 78c39 0 46 -47 51 -80c20 -145 43 -304 62 -448zM141 380l-21 -129c19 0 42 1 63 1l-26 219z" />
    <glyph glyph-name="atilde" unicode="&#xe3;" horiz-adv-x="298" 
d="M77 637c-12 0 -26 8 -26 29c0 17 28 66 75 66c19 0 33 -8 45 -16c9 -5 18 -12 33 -12c8 0 17 7 23 11c7 6 15 12 27 14c0 0 17 -9 17 -24c0 -35 -38 -69 -70 -69c-23 0 -36 9 -48 18c-10 6 -18 13 -26 13c-11 0 -18 -8 -24 -15c-7 -8 -14 -15 -26 -15zM278 49
c1 -4 1 -7 1 -11c0 -26 -18 -34 -46 -35c-16 0 -21 11 -21 21l-22 170c-25 0 -56 -1 -80 -1l-5 -34c-7 -47 -17 -119 -25 -138c-6 -5 -38 -16 -47 -16c-10 0 -19 6 -19 24c0 4 1 13 3 19l15 88c21 117 41 238 67 363c7 37 15 78 66 78c39 0 46 -47 51 -80
c20 -145 43 -304 62 -448zM141 380l-21 -129c19 0 42 1 63 1l-26 219z" />
    <glyph glyph-name="ae" unicode="&#xe6;" horiz-adv-x="414" 
d="M351 64c18 0 34 -4 38 -13c3 -6 3 -18 3 -24c0 -14 -13 -23 -24 -24c-27 -3 -84 -6 -119 -6c-37 0 -48 9 -48 42v47c2 44 2 108 3 171c-25 0 -57 -1 -83 -1l-10 -58l-6 -39c-7 -47 -17 -119 -25 -138c-6 -5 -38 -16 -47 -16c-10 0 -19 6 -19 24c0 4 1 13 3 19l15 88
c21 117 41 238 67 363c7 37 31 78 82 78c14 0 29 -2 44 -7c15 8 57 7 78 7h36c40 0 55 -1 55 -30c0 -25 -6 -34 -54 -34h-8l-60 -3c-1 0 -1 -54 -1 -58c0 -51 -1 -73 -1 -86v-17c0 -14 0 -26 -1 -26c4 -2 45 -1 63 -1h13c36 0 37 -13 37 -36c0 -21 -14 -30 -30 -30h-60
c-15 0 -17 -2 -17 -10c0 -21 1 -45 1 -70s-1 -50 -1 -72c0 -18 -1 -33 -1 -43h30c14 1 39 3 47 3zM131 318c24 1 52 1 73 1v77l1 97c0 5 1 10 1 16c-7 1 -13 1 -20 1c-19 0 -27 -17 -29 -29l-16 -101z" />
    <glyph glyph-name="b" unicode="b" horiz-adv-x="284" 
d="M242 447c0 -60 -12 -99 -30 -124c12 -7 22 -16 30 -25c24 -27 27 -73 27 -99c0 -117 -7 -197 -109 -197h-92c-4 0 -12 0 -17 2c-15 5 -21 25 -21 36l3 478c12 57 72 59 111 59c85 0 98 -60 98 -130zM132 521c-12 0 -24 -4 -26 -8c-2 -57 -3 -115 -4 -174h35
c33 4 37 53 37 93v27c0 37 -7 62 -42 62zM102 282c-1 -60 -1 -120 -1 -186v-33h49c38 0 52 37 52 79c0 10 1 20 1 28v13c0 52 -4 99 -64 99h-37z" />
    <glyph glyph-name="c" unicode="c" horiz-adv-x="291" 
d="M262 424c-7 -8 -21 -13 -35 -13c-12 0 -27 2 -31 8c-2 8 -3 17 -3 28c-3 29 -7 69 -46 69c-34 0 -48 -58 -48 -99c0 -9 -1 -21 -1 -36c-1 -23 -1 -53 -1 -89v-71c0 -69 6 -154 53 -154c28 0 55 13 55 65c0 10 1 22 0 34c3 16 24 22 36 22c30 0 31 -19 31 -40
c0 -24 0 -47 -7 -66c-23 -50 -62 -78 -114 -78c-80 0 -113 51 -119 124c-5 57 -7 153 -7 203c0 44 0 91 12 145c18 85 65 103 118 103s82 -34 97 -75c10 -27 11 -64 10 -80z" />
    <glyph glyph-name="cacute" unicode="&#x107;" horiz-adv-x="291" 
d="M210 728c5 -4 7 -10 7 -14c0 -6 -3 -13 -9 -22c-19 -24 -74 -72 -90 -72c-20 0 -32 8 -32 20c0 13 11 30 19 40c1 1 29 40 50 53c6 3 13 6 17 6c8 0 27 -3 38 -11zM262 424c-7 -8 -21 -13 -35 -13c-12 0 -27 2 -31 8c-2 8 -3 17 -3 28c-3 29 -7 69 -46 69
c-34 0 -48 -58 -48 -99c0 -9 -1 -21 -1 -36c-1 -23 -1 -53 -1 -89v-71c0 -69 6 -154 53 -154c28 0 55 13 55 65c0 10 1 22 0 34c3 16 24 22 36 22c30 0 31 -19 31 -40c0 -24 0 -47 -7 -66c-23 -50 -62 -78 -114 -78c-80 0 -113 51 -119 124c-5 57 -7 153 -7 203
c0 44 0 91 12 145c18 85 65 103 118 103s82 -34 97 -75c10 -27 11 -64 10 -80z" />
    <glyph glyph-name="ccaron" unicode="&#x10d;" horiz-adv-x="291" 
d="M252 715c0 -4 0 -7 -2 -9c0 0 -77 -77 -98 -78c-23 1 -46 22 -70 44l-26 21c-5 5 -7 13 -7 18c0 4 1 10 3 13c8 8 15 14 26 14c9 0 17 -6 30 -15l41 -31c7 6 34 29 53 40c5 3 12 6 16 6c14 0 29 -9 34 -23zM262 424c-7 -8 -21 -13 -35 -13c-12 0 -27 2 -31 8
c-2 8 -3 17 -3 28c-3 29 -7 69 -46 69c-34 0 -48 -58 -48 -99c0 -9 -1 -21 -1 -36c-1 -23 -1 -53 -1 -89v-71c0 -69 6 -154 53 -154c28 0 55 13 55 65c0 10 1 22 0 34c3 16 24 22 36 22c30 0 31 -19 31 -40c0 -24 0 -47 -7 -66c-23 -50 -62 -78 -114 -78
c-80 0 -113 51 -119 124c-5 57 -7 153 -7 203c0 44 0 91 12 145c18 85 65 103 118 103s82 -34 97 -75c10 -27 11 -64 10 -80z" />
    <glyph glyph-name="ccedilla" unicode="&#xe7;" horiz-adv-x="291" 
d="M241 188c30 0 31 -19 31 -40c0 -24 0 -47 -7 -66c-23 -50 -62 -78 -114 -78h-1c0 -2 -1 -4 -1 -6c5 -1 12 -2 18 -4c53 -16 63 -40 63 -74c0 -57 -43 -76 -81 -76c-28 0 -63 11 -63 41c0 18 8 26 18 26c9 0 24 -10 36 -10c17 0 35 5 35 22c0 19 -39 24 -53 30
c-21 9 -32 18 -32 40c0 6 2 14 6 22c-41 18 -60 60 -64 113c-5 57 -7 153 -7 203c0 44 0 91 12 145c18 85 65 103 118 103s82 -34 97 -75c10 -27 11 -64 10 -80c-7 -8 -21 -13 -35 -13c-12 0 -27 2 -31 8c-2 8 -3 17 -3 28c-3 29 -7 69 -46 69c-34 0 -48 -58 -48 -99
c0 -9 -1 -21 -1 -36c-1 -23 -1 -53 -1 -89v-71c0 -69 6 -154 53 -154c28 0 55 13 55 65c0 10 1 22 0 34c3 16 24 22 36 22z" />
    <glyph glyph-name="cdotaccent" unicode="&#x10b;" horiz-adv-x="291" 
d="M125 721c11 4 23 9 35 9c31 0 35 -19 35 -46c0 -26 -16 -42 -43 -42c-25 0 -42 27 -42 50c0 10 4 22 15 29zM262 424c-7 -8 -21 -13 -35 -13c-12 0 -27 2 -31 8c-2 8 -3 17 -3 28c-3 29 -7 69 -46 69c-34 0 -48 -58 -48 -99c0 -9 -1 -21 -1 -36c-1 -23 -1 -53 -1 -89v-71
c0 -69 6 -154 53 -154c28 0 55 13 55 65c0 10 1 22 0 34c3 16 24 22 36 22c30 0 31 -19 31 -40c0 -24 0 -47 -7 -66c-23 -50 -62 -78 -114 -78c-80 0 -113 51 -119 124c-5 57 -7 153 -7 203c0 44 0 91 12 145c18 85 65 103 118 103s82 -34 97 -75c10 -27 11 -64 10 -80z" />
    <glyph glyph-name="d" unicode="d" horiz-adv-x="330" 
d="M60 575c12 3 26 4 34 4c164 0 214 -206 214 -299c0 -177 -71 -253 -177 -271c-12 -2 -25 -4 -42 -4c-23 0 -43 6 -46 26c-6 60 -7 138 -7 216v62c0 96 2 172 2 213c0 27 0 48 22 53zM111 510c-1 -71 -1 -119 -1 -172c0 -172 2 -243 2 -270v-4c96 12 123 137 123 216
c0 84 -45 235 -119 235h-5v-5z" />
    <glyph glyph-name="eth" unicode="&#xf0;" horiz-adv-x="284" 
d="M235 548c18 13 39 -3 39 -27c0 -9 -3 -17 -9 -22l-43 -29c23 -65 42 -169 42 -278c0 -83 -12 -203 -116 -203h-22c-79 0 -116 67 -116 199c0 131 35 185 123 185c17 0 33 -2 48 -7c-7 32 -12 53 -16 67l-48 -32c-21 -14 -44 1 -44 26c0 9 5 18 13 23l57 37
c-15 29 -29 42 -44 42c-5 0 -11 -3 -19 -5c-16 -4 -25 2 -27 18l-1 18c0 11 6 20 17 24c53 16 97 -5 129 -61zM190 137v70c0 67 -3 104 -53 104s-53 -37 -53 -104v-81c0 -47 22 -78 55 -78s51 29 51 89z" />
    <glyph glyph-name="dcaron" unicode="&#x10f;" horiz-adv-x="419" 
d="M60 575c12 3 26 4 34 4c164 0 214 -206 214 -299c0 -177 -71 -253 -177 -271c-12 -2 -25 -4 -42 -4c-23 0 -43 6 -46 26c-6 60 -7 138 -7 216v62c0 96 2 172 2 213c0 27 0 48 22 53zM327 566c10 6 24 11 38 11c33 0 38 -23 38 -51c0 -22 -26 -93 -40 -113
c-6 -6 -15 -11 -22 -11c-16 0 -27 20 -27 26c6 21 13 45 14 63c-13 10 -19 28 -19 44c0 12 6 25 18 31zM111 510c-1 -71 -1 -119 -1 -172c0 -172 2 -243 2 -270v-4c96 12 123 137 123 216c0 84 -45 235 -119 235h-5v-5z" />
    <glyph glyph-name="dcroat" unicode="&#x111;" horiz-adv-x="330" 
d="M94 579c164 0 214 -206 214 -299c0 -177 -71 -253 -177 -271c-12 -2 -25 -4 -42 -4c-23 0 -43 6 -46 26c-6 60 -7 138 -7 216v18h-45c-18 0 -19 19 -19 36s9 29 20 29h44c0 86 2 154 2 192c0 27 0 48 22 53c12 3 26 4 34 4zM112 64c96 12 123 137 123 216
c0 84 -45 235 -119 235h-5v-5c-1 -71 -1 -119 -1 -172v-8h64c10 0 20 -12 20 -29c-2 -21 -7 -36 -18 -36h-66l2 -197v-4z" />
    <glyph glyph-name="e" unicode="e" horiz-adv-x="232" 
d="M100 510c-1 0 -1 -54 -1 -58c0 -51 -1 -73 -1 -86v-17c0 -14 0 -26 -1 -26c4 -2 35 -1 53 -1h13c36 0 37 -13 37 -36c0 -21 -14 -30 -30 -30h-50c-15 0 -17 -2 -17 -10c0 -21 1 -45 1 -70s-1 -50 -1 -72c0 -18 -1 -33 -1 -43h30c14 1 29 3 37 3c18 0 34 -4 38 -13
c3 -6 3 -18 3 -24c0 -14 -13 -23 -24 -24c-27 -3 -74 -6 -109 -6c-37 0 -48 9 -48 42v47c3 79 3 219 3 310l1 97c1 22 4 53 15 74c8 11 59 10 83 10h26c40 0 55 -1 55 -30c0 -25 -6 -34 -54 -34h-8z" />
    <glyph glyph-name="eacute" unicode="&#xe9;" horiz-adv-x="232" 
d="M183 728c5 -4 7 -10 7 -14c0 -6 -3 -13 -9 -22c-19 -24 -74 -72 -90 -72c-20 0 -32 8 -32 20c0 13 11 30 19 40c1 1 29 40 50 53c6 3 13 6 17 6c8 0 27 -3 38 -11zM100 510c-1 0 -1 -54 -1 -58c0 -51 -1 -73 -1 -86v-17c0 -14 0 -26 -1 -26c4 -2 35 -1 53 -1h13
c36 0 37 -13 37 -36c0 -21 -14 -30 -30 -30h-50c-15 0 -17 -2 -17 -10c0 -21 1 -45 1 -70s-1 -50 -1 -72c0 -18 -1 -33 -1 -43h30c14 1 29 3 37 3c18 0 34 -4 38 -13c3 -6 3 -18 3 -24c0 -14 -13 -23 -24 -24c-27 -3 -74 -6 -109 -6c-37 0 -48 9 -48 42v47c3 79 3 219 3 310
l1 97c1 22 4 53 15 74c8 11 59 10 83 10h26c40 0 55 -1 55 -30c0 -25 -6 -34 -54 -34h-8z" />
    <glyph glyph-name="ecaron" unicode="&#x11b;" horiz-adv-x="232" 
d="M225 715c0 -4 0 -7 -2 -9c0 0 -77 -77 -98 -78c-23 1 -46 22 -70 44l-26 21c-5 5 -7 13 -7 18c0 4 1 10 3 13c8 8 15 14 26 14c9 0 17 -6 30 -15l41 -31c7 6 34 29 53 40c5 3 12 6 16 6c14 0 29 -9 34 -23zM100 510c-1 0 -1 -54 -1 -58c0 -51 -1 -73 -1 -86v-17
c0 -14 0 -26 -1 -26c4 -2 35 -1 53 -1h13c36 0 37 -13 37 -36c0 -21 -14 -30 -30 -30h-50c-15 0 -17 -2 -17 -10c0 -21 1 -45 1 -70s-1 -50 -1 -72c0 -18 -1 -33 -1 -43h30c14 1 29 3 37 3c18 0 34 -4 38 -13c3 -6 3 -18 3 -24c0 -14 -13 -23 -24 -24c-27 -3 -74 -6 -109 -6
c-37 0 -48 9 -48 42v47c3 79 3 219 3 310l1 97c1 22 4 53 15 74c8 11 59 10 83 10h26c40 0 55 -1 55 -30c0 -25 -6 -34 -54 -34h-8z" />
    <glyph glyph-name="ecircumflex" unicode="&#xea;" horiz-adv-x="232" 
d="M233 658c2 -3 2 -7 2 -10c-6 -13 -20 -21 -34 -21c-7 0 -13 2 -16 4c-15 7 -54 42 -54 42c-8 -6 -28 -20 -45 -33c-12 -8 -19 -13 -30 -13c-12 0 -19 6 -26 12c-2 3 -3 9 -3 14s2 13 7 18l30 23c25 19 50 40 70 42c20 1 99 -78 99 -78zM100 510c-1 0 -1 -54 -1 -58
c0 -51 -1 -73 -1 -86v-17c0 -14 0 -26 -1 -26c4 -2 35 -1 53 -1h13c36 0 37 -13 37 -36c0 -21 -14 -30 -30 -30h-50c-15 0 -17 -2 -17 -10c0 -21 1 -45 1 -70s-1 -50 -1 -72c0 -18 -1 -33 -1 -43h30c14 1 29 3 37 3c18 0 34 -4 38 -13c3 -6 3 -18 3 -24
c0 -14 -13 -23 -24 -24c-27 -3 -74 -6 -109 -6c-37 0 -48 9 -48 42v47c3 79 3 219 3 310l1 97c1 22 4 53 15 74c8 11 59 10 83 10h26c40 0 55 -1 55 -30c0 -25 -6 -34 -54 -34h-8z" />
    <glyph glyph-name="edieresis" unicode="&#xeb;" horiz-adv-x="232" 
d="M49 721c11 5 23 7 35 7c22 0 34 -16 34 -44c0 -27 -16 -39 -43 -39c-24 0 -42 24 -42 47c0 10 5 22 16 29zM145 721c12 5 24 7 36 7c24 0 34 -16 34 -44c0 -27 -16 -39 -43 -39c-25 0 -42 24 -42 47c0 10 5 22 15 29zM100 510c-1 0 -1 -54 -1 -58c0 -51 -1 -73 -1 -86
v-17c0 -14 0 -26 -1 -26c4 -2 35 -1 53 -1h13c36 0 37 -13 37 -36c0 -21 -14 -30 -30 -30h-50c-15 0 -17 -2 -17 -10c0 -21 1 -45 1 -70s-1 -50 -1 -72c0 -18 -1 -33 -1 -43h30c14 1 29 3 37 3c18 0 34 -4 38 -13c3 -6 3 -18 3 -24c0 -14 -13 -23 -24 -24
c-27 -3 -74 -6 -109 -6c-37 0 -48 9 -48 42v47c3 79 3 219 3 310l1 97c1 22 4 53 15 74c8 11 59 10 83 10h26c40 0 55 -1 55 -30c0 -25 -6 -34 -54 -34h-8z" />
    <glyph glyph-name="edotaccent" unicode="&#x117;" horiz-adv-x="232" 
d="M98 721c11 4 23 9 35 9c31 0 35 -19 35 -46c0 -26 -16 -42 -43 -42c-25 0 -42 27 -42 50c0 10 4 22 15 29zM100 510c-1 0 -1 -54 -1 -58c0 -51 -1 -73 -1 -86v-17c0 -14 0 -26 -1 -26c4 -2 35 -1 53 -1h13c36 0 37 -13 37 -36c0 -21 -14 -30 -30 -30h-50
c-15 0 -17 -2 -17 -10c0 -21 1 -45 1 -70s-1 -50 -1 -72c0 -18 -1 -33 -1 -43h30c14 1 29 3 37 3c18 0 34 -4 38 -13c3 -6 3 -18 3 -24c0 -14 -13 -23 -24 -24c-27 -3 -74 -6 -109 -6c-37 0 -48 9 -48 42v47c3 79 3 219 3 310l1 97c1 22 4 53 15 74c8 11 59 10 83 10h26
c40 0 55 -1 55 -30c0 -25 -6 -34 -54 -34h-8z" />
    <glyph glyph-name="egrave" unicode="&#xe8;" horiz-adv-x="232" 
d="M65 727c12 9 32 12 40 12c6 0 7 -1 8 -1c27 -17 58 -58 58 -58c8 -10 19 -27 19 -40c0 -12 -12 -20 -32 -20c-16 0 -83 63 -90 74c-6 9 -9 16 -9 20s2 9 6 13zM100 510c-1 0 -1 -54 -1 -58c0 -51 -1 -73 -1 -86v-17c0 -14 0 -26 -1 -26c4 -2 35 -1 53 -1h13
c36 0 37 -13 37 -36c0 -21 -14 -30 -30 -30h-50c-15 0 -17 -2 -17 -10c0 -21 1 -45 1 -70s-1 -50 -1 -72c0 -18 -1 -33 -1 -43h30c14 1 29 3 37 3c18 0 34 -4 38 -13c3 -6 3 -18 3 -24c0 -14 -13 -23 -24 -24c-27 -3 -74 -6 -109 -6c-37 0 -48 9 -48 42v47c3 79 3 219 3 310
l1 97c1 22 4 53 15 74c8 11 59 10 83 10h26c40 0 55 -1 55 -30c0 -25 -6 -34 -54 -34h-8z" />
    <glyph glyph-name="emacron" unicode="&#x113;" horiz-adv-x="232" 
d="M237 671c-3 -20 -7 -35 -23 -35h-166c-24 0 -26 19 -26 36c0 14 12 27 27 27h162c13 0 26 -15 26 -28zM100 510c-1 0 -1 -54 -1 -58c0 -51 -1 -73 -1 -86v-17c0 -14 0 -26 -1 -26c4 -2 35 -1 53 -1h13c36 0 37 -13 37 -36c0 -21 -14 -30 -30 -30h-50
c-15 0 -17 -2 -17 -10c0 -21 1 -45 1 -70s-1 -50 -1 -72c0 -18 -1 -33 -1 -43h30c14 1 29 3 37 3c18 0 34 -4 38 -13c3 -6 3 -18 3 -24c0 -14 -13 -23 -24 -24c-27 -3 -74 -6 -109 -6c-37 0 -48 9 -48 42v47c3 79 3 219 3 310l1 97c1 22 4 53 15 74c8 11 59 10 83 10h26
c40 0 55 -1 55 -30c0 -25 -6 -34 -54 -34h-8z" />
    <glyph glyph-name="eogonek" unicode="&#x119;" horiz-adv-x="232" 
d="M156 -9c-9 -16 -20 -32 -30 -47c-8 -12 -11 -22 -11 -34s4 -21 14 -21c22 0 26 15 29 37c3 18 14 27 25 27c16 0 27 -9 27 -29c0 -19 -5 -40 -16 -54c-13 -16 -33 -30 -71 -30s-71 23 -71 66c0 31 14 64 34 91h-9c-37 0 -48 9 -48 42v47c3 79 3 219 3 310l1 97
c1 22 4 53 15 74c8 11 59 10 83 10h26c40 0 55 -1 55 -30c0 -25 -6 -34 -54 -34h-8l-50 -3c-1 0 -1 -54 -1 -58c0 -51 -1 -73 -1 -86v-17c0 -14 0 -26 -1 -26c4 -2 35 -1 53 -1h13c36 0 37 -13 37 -36c0 -21 -14 -30 -30 -30h-50c-15 0 -17 -2 -17 -10c0 -21 1 -45 1 -70
s-1 -50 -1 -72c0 -18 -1 -33 -1 -43h30c14 1 29 3 37 3c18 0 34 -4 38 -13c3 -6 3 -18 3 -24c0 -14 -13 -23 -24 -24c-7 -1 -16 -2 -25 -2c-2 -4 -4 -7 -5 -10z" />
    <glyph glyph-name="f" unicode="f" horiz-adv-x="261" 
d="M255 546c-3 -31 -16 -36 -40 -36c-12 0 -28 1 -42 1c-22 1 -48 0 -65 0c4 -63 4 -123 4 -175h45c23 0 56 -3 56 -29v-20c-3 -21 -48 -21 -82 -21h-23c-1 -47 -1 -176 -1 -224c0 -30 -5 -42 -35 -42c-25 0 -37 14 -37 38c0 53 1 101 1 148c0 42 1 84 1 125
c0 79 -2 192 -3 200c0 18 2 37 21 55c6 5 57 11 102 11c49 0 98 -6 98 -20v-11z" />
    <glyph glyph-name="g" unicode="g" horiz-adv-x="341" 
d="M193 478c-5 21 -14 41 -38 41c-35 0 -47 -48 -49 -83c-1 -9 -1 -33 -1 -66s1 -74 2 -114v-107c0 -35 14 -89 48 -89c40 0 56 43 56 90c0 14 -1 27 -1 38v33c-11 1 -21 2 -32 4c-14 5 -21 13 -21 30c0 3 3 17 9 22c8 5 23 8 41 8c17 0 30 1 43 1h38c13 0 26 0 39 -6
c6 -3 8 -9 8 -12c0 -7 -1 -22 -3 -26c-6 -9 -18 -14 -28 -16c-11 -2 -18 -3 -27 -3v-10c0 -11 1 -22 1 -33c0 -82 -13 -181 -121 -181c-83 0 -123 67 -123 142c0 9 0 38 -1 74c-2 68 -4 166 -4 186c0 9 0 63 15 102c14 39 60 75 113 75c26 0 62 -16 70 -25
c35 -36 38 -74 40 -127c-4 -14 -26 -18 -38 -18c-13 0 -20 9 -25 20c-3 12 -7 28 -11 50z" />
    <glyph glyph-name="gbreve" unicode="&#x11f;" horiz-adv-x="341" 
d="M262 714c1 -1 1 -4 0 -6c0 0 -23 -80 -98 -80c-67 0 -99 42 -99 81c0 5 1 10 3 13c8 8 14 10 23 10c13 0 24 -6 28 -16c9 -18 21 -36 43 -36c18 0 38 24 47 44c5 10 14 10 20 10c14 0 26 -6 33 -20zM193 478c-5 21 -14 41 -38 41c-35 0 -47 -48 -49 -83
c-1 -9 -1 -33 -1 -66s1 -74 2 -114v-107c0 -35 14 -89 48 -89c40 0 56 43 56 90c0 14 -1 27 -1 38v33c-11 1 -21 2 -32 4c-14 5 -21 13 -21 30c0 3 3 17 9 22c8 5 23 8 41 8c17 0 30 1 43 1h38c13 0 26 0 39 -6c6 -3 8 -9 8 -12c0 -7 -1 -22 -3 -26c-6 -9 -18 -14 -28 -16
c-11 -2 -18 -3 -27 -3v-10c0 -11 1 -22 1 -33c0 -82 -13 -181 -121 -181c-83 0 -123 67 -123 142c0 9 0 38 -1 74c-2 68 -4 166 -4 186c0 9 0 63 15 102c14 39 60 75 113 75c26 0 62 -16 70 -25c35 -36 38 -74 40 -127c-4 -14 -26 -18 -38 -18c-13 0 -20 9 -25 20
c-3 12 -7 28 -11 50z" />
    <glyph glyph-name="gcommaaccent" unicode="&#x123;" horiz-adv-x="341" 
d="M191 625c-11 -6 -26 -12 -41 -12c-36 0 -42 25 -42 56c0 24 29 102 44 124c6 7 16 12 24 12c18 0 29 -22 29 -29c-6 -22 -14 -49 -15 -68c14 -11 21 -31 21 -49c0 -13 -7 -27 -20 -34zM193 478c-5 21 -14 41 -38 41c-35 0 -47 -48 -49 -83c-1 -9 -1 -33 -1 -66
s1 -74 2 -114v-107c0 -35 14 -89 48 -89c40 0 56 43 56 90c0 14 -1 27 -1 38v33c-11 1 -21 2 -32 4c-14 5 -21 13 -21 30c0 3 3 17 9 22c8 5 23 8 41 8c17 0 30 1 43 1h38c13 0 26 0 39 -6c6 -3 8 -9 8 -12c0 -7 -1 -22 -3 -26c-6 -9 -18 -14 -28 -16c-11 -2 -18 -3 -27 -3
v-10c0 -11 1 -22 1 -33c0 -82 -13 -181 -121 -181c-83 0 -123 67 -123 142c0 9 0 38 -1 74c-2 68 -4 166 -4 186c0 9 0 63 15 102c14 39 60 75 113 75c26 0 62 -16 70 -25c35 -36 38 -74 40 -127c-4 -14 -26 -18 -38 -18c-13 0 -20 9 -25 20c-3 12 -7 28 -11 50z" />
    <glyph glyph-name="gdotaccent" unicode="&#x121;" horiz-adv-x="341" 
d="M129 721c11 4 23 9 35 9c31 0 35 -19 35 -46c0 -26 -16 -42 -43 -42c-25 0 -42 27 -42 50c0 10 4 22 15 29zM193 478c-5 21 -14 41 -38 41c-35 0 -47 -48 -49 -83c-1 -9 -1 -33 -1 -66s1 -74 2 -114v-107c0 -35 14 -89 48 -89c40 0 56 43 56 90c0 14 -1 27 -1 38v33
c-11 1 -21 2 -32 4c-14 5 -21 13 -21 30c0 3 3 17 9 22c8 5 23 8 41 8c17 0 30 1 43 1h38c13 0 26 0 39 -6c6 -3 8 -9 8 -12c0 -7 -1 -22 -3 -26c-6 -9 -18 -14 -28 -16c-11 -2 -18 -3 -27 -3v-10c0 -11 1 -22 1 -33c0 -82 -13 -181 -121 -181c-83 0 -123 67 -123 142
c0 9 0 38 -1 74c-2 68 -4 166 -4 186c0 9 0 63 15 102c14 39 60 75 113 75c26 0 62 -16 70 -25c35 -36 38 -74 40 -127c-4 -14 -26 -18 -38 -18c-13 0 -20 9 -25 20c-3 12 -7 28 -11 50z" />
    <glyph glyph-name="h" unicode="h" horiz-adv-x="300" 
d="M107 549c-2 -113 -3 -193 -3 -255c11 1 22 1 37 1c17 0 35 0 49 -2l3 262c0 13 18 23 34 23c11 0 21 -4 35 -17v-106c0 -176 -4 -408 -5 -436c-13 -10 -29 -14 -41 -14c-11 0 -27 4 -27 14v102c0 40 1 81 1 113l-86 -1v-132c0 -42 0 -90 -25 -96h-15c-18 0 -28 10 -28 29
c0 53 1 99 1 141v90c0 109 -1 174 -1 214c0 38 1 50 1 70c0 23 19 23 34 23c14 0 36 -8 36 -23z" />
    <glyph glyph-name="hbar" unicode="&#x127;" horiz-adv-x="300" 
d="M271 459c14 0 27 -11 27 -28c-2 -21 -9 -36 -24 -36h-12c-1 -165 -4 -351 -5 -376c-13 -10 -29 -14 -41 -14c-11 0 -27 4 -27 14v102c0 40 1 81 1 113l-86 -1v-132c0 -42 0 -90 -25 -96h-15c-18 0 -28 10 -28 29c0 53 1 99 1 141v90v130h-10c-24 0 -26 18 -26 36
c0 17 12 28 27 28h8v20c0 38 1 50 1 70c0 23 19 23 34 23c14 0 36 -8 36 -23c-1 -33 -1 -63 -1 -90h86l1 96c0 13 18 23 34 23c11 0 21 -4 35 -17v-102h9zM190 293l1 102h-86c-1 -39 -1 -72 -1 -101c11 1 22 1 37 1c17 0 35 0 49 -2z" />
    <glyph glyph-name="i" unicode="i" horiz-adv-x="210" 
d="M15 552c1 15 10 23 24 25c29 0 138 0 146 -4c5 -4 16 -15 16 -25c0 -4 -10 -33 -18 -33h-22c-5 0 -13 -1 -20 -1v-94c0 -79 0 -158 -1 -222l-1 -101v-31h35c12 -4 20 -14 23 -25c0 -18 -3 -35 -15 -38c-10 -2 -84 0 -126 1c-9 0 -23 1 -25 1c-9 0 -20 26 -20 31
c0 9 11 22 18 28c3 2 19 2 40 2v447c-17 0 -31 1 -37 2c-13 2 -17 21 -17 37z" />
    <glyph glyph-name="dotlessi" unicode="&#x131;" horiz-adv-x="210" 
d="M15 552c1 15 10 23 24 25c29 0 138 0 146 -4c5 -4 16 -15 16 -25c0 -4 -10 -33 -18 -33h-22c-5 0 -13 -1 -20 -1v-94c0 -79 0 -158 -1 -222l-1 -101v-31h35c12 -4 20 -14 23 -25c0 -18 -3 -35 -15 -38c-10 -2 -84 0 -126 1c-9 0 -23 1 -25 1c-9 0 -20 26 -20 31
c0 9 11 22 18 28c3 2 19 2 40 2v447c-17 0 -31 1 -37 2c-13 2 -17 21 -17 37z" />
    <glyph glyph-name="iacute" unicode="&#xed;" horiz-adv-x="210" 
d="M162 728c5 -4 7 -10 7 -14c0 -6 -3 -13 -9 -22c-19 -24 -74 -72 -90 -72c-20 0 -32 8 -32 20c0 13 11 30 19 40c1 1 29 40 50 53c6 3 13 6 17 6c8 0 27 -3 38 -11zM15 552c1 15 10 23 24 25c29 0 138 0 146 -4c5 -4 16 -15 16 -25c0 -4 -10 -33 -18 -33h-22
c-5 0 -13 -1 -20 -1v-94c0 -79 0 -158 -1 -222l-1 -101v-31h35c12 -4 20 -14 23 -25c0 -18 -3 -35 -15 -38c-10 -2 -84 0 -126 1c-9 0 -23 1 -25 1c-9 0 -20 26 -20 31c0 9 11 22 18 28c3 2 19 2 40 2v447c-17 0 -31 1 -37 2c-13 2 -17 21 -17 37z" />
    <glyph glyph-name="icircumflex" unicode="&#xee;" horiz-adv-x="210" 
d="M212 658c2 -3 2 -7 2 -10c-6 -13 -20 -21 -34 -21c-7 0 -13 2 -16 4c-15 7 -54 42 -54 42c-8 -6 -28 -20 -45 -33c-12 -8 -19 -13 -30 -13c-12 0 -19 6 -26 12c-2 3 -3 9 -3 14s2 13 7 18l30 23c25 19 50 40 70 42c20 1 99 -78 99 -78zM15 552c1 15 10 23 24 25
c29 0 138 0 146 -4c5 -4 16 -15 16 -25c0 -4 -10 -33 -18 -33h-22c-5 0 -13 -1 -20 -1v-94c0 -79 0 -158 -1 -222l-1 -101v-31h35c12 -4 20 -14 23 -25c0 -18 -3 -35 -15 -38c-10 -2 -84 0 -126 1c-9 0 -23 1 -25 1c-9 0 -20 26 -20 31c0 9 11 22 18 28c3 2 19 2 40 2v447
c-17 0 -31 1 -37 2c-13 2 -17 21 -17 37z" />
    <glyph glyph-name="idieresis" unicode="&#xef;" horiz-adv-x="210" 
d="M28 721c11 5 23 7 35 7c22 0 34 -16 34 -44c0 -27 -16 -39 -43 -39c-24 0 -42 24 -42 47c0 10 5 22 16 29zM124 721c12 5 24 7 36 7c24 0 34 -16 34 -44c0 -27 -16 -39 -43 -39c-25 0 -42 24 -42 47c0 10 5 22 15 29zM15 552c1 15 10 23 24 25c29 0 138 0 146 -4
c5 -4 16 -15 16 -25c0 -4 -10 -33 -18 -33h-22c-5 0 -13 -1 -20 -1v-94c0 -79 0 -158 -1 -222l-1 -101v-31h35c12 -4 20 -14 23 -25c0 -18 -3 -35 -15 -38c-10 -2 -84 0 -126 1c-9 0 -23 1 -25 1c-9 0 -20 26 -20 31c0 9 11 22 18 28c3 2 19 2 40 2v447c-17 0 -31 1 -37 2
c-13 2 -17 21 -17 37z" />
    <glyph glyph-name="i.loclTRK" horiz-adv-x="210" 
d="M77 721c11 4 23 9 35 9c31 0 35 -19 35 -46c0 -26 -16 -42 -43 -42c-25 0 -42 27 -42 50c0 10 4 22 15 29zM15 552c1 15 10 23 24 25c29 0 138 0 146 -4c5 -4 16 -15 16 -25c0 -4 -10 -33 -18 -33h-22c-5 0 -13 -1 -20 -1v-94c0 -79 0 -158 -1 -222l-1 -101v-31h35
c12 -4 20 -14 23 -25c0 -18 -3 -35 -15 -38c-10 -2 -84 0 -126 1c-9 0 -23 1 -25 1c-9 0 -20 26 -20 31c0 9 11 22 18 28c3 2 19 2 40 2v447c-17 0 -31 1 -37 2c-13 2 -17 21 -17 37z" />
    <glyph glyph-name="igrave" unicode="&#xec;" horiz-adv-x="210" 
d="M44 727c12 9 32 12 40 12c6 0 7 -1 8 -1c27 -17 58 -58 58 -58c8 -10 19 -27 19 -40c0 -12 -12 -20 -32 -20c-16 0 -83 63 -90 74c-6 9 -9 16 -9 20s2 9 6 13zM15 552c1 15 10 23 24 25c29 0 138 0 146 -4c5 -4 16 -15 16 -25c0 -4 -10 -33 -18 -33h-22
c-5 0 -13 -1 -20 -1v-94c0 -79 0 -158 -1 -222l-1 -101v-31h35c12 -4 20 -14 23 -25c0 -18 -3 -35 -15 -38c-10 -2 -84 0 -126 1c-9 0 -23 1 -25 1c-9 0 -20 26 -20 31c0 9 11 22 18 28c3 2 19 2 40 2v447c-17 0 -31 1 -37 2c-13 2 -17 21 -17 37z" />
    <glyph glyph-name="imacron" unicode="&#x12b;" horiz-adv-x="210" 
d="M216 671c-3 -20 -7 -35 -23 -35h-166c-24 0 -26 19 -26 36c0 14 12 27 27 27h162c13 0 26 -15 26 -28zM15 552c1 15 10 23 24 25c29 0 138 0 146 -4c5 -4 16 -15 16 -25c0 -4 -10 -33 -18 -33h-22c-5 0 -13 -1 -20 -1v-94c0 -79 0 -158 -1 -222l-1 -101v-31h35
c12 -4 20 -14 23 -25c0 -18 -3 -35 -15 -38c-10 -2 -84 0 -126 1c-9 0 -23 1 -25 1c-9 0 -20 26 -20 31c0 9 11 22 18 28c3 2 19 2 40 2v447c-17 0 -31 1 -37 2c-13 2 -17 21 -17 37z" />
    <glyph glyph-name="iogonek" unicode="&#x12f;" horiz-adv-x="210" 
d="M104 642c-25 0 -42 27 -42 50c0 10 4 22 15 29c11 4 23 9 35 9c31 0 35 -19 35 -46c0 -26 -16 -42 -43 -42zM174 66c12 -4 20 -14 23 -25c0 -18 -3 -35 -15 -38c-5 -1 -28 -1 -54 -1c-9 -15 -19 -30 -29 -45c-8 -12 -11 -22 -11 -34s4 -21 14 -21c22 0 26 15 29 37
c3 18 14 27 25 27c16 0 27 -9 27 -29c0 -19 -5 -40 -16 -54c-13 -16 -33 -30 -71 -30s-71 23 -71 66c0 28 12 59 30 85c-9 0 -22 1 -24 1c-9 0 -20 26 -20 31c0 9 11 22 18 28c3 2 19 2 40 2v447c-17 0 -31 1 -37 2c-13 2 -17 21 -17 37c1 15 10 23 24 25c29 0 138 0 146 -4
c5 -4 16 -15 16 -25c0 -4 -10 -33 -18 -33h-22c-5 0 -13 -1 -20 -1v-94c0 -79 0 -158 -1 -222l-1 -101v-31h35z" />
    <glyph glyph-name="j" unicode="j" horiz-adv-x="265" 
d="M173 567c7 6 29 8 43 7c21 -1 22 -20 22 -36c0 -134 -1 -300 -7 -404c-2 -66 -24 -138 -111 -138c-93 0 -101 95 -101 159v59c0 12 22 26 39 26c13 0 36 -13 36 -51c0 -23 -1 -44 -1 -61v-26c0 -26 10 -50 34 -50c27 0 33 26 33 59c0 76 1 146 1 215c0 66 1 130 1 195
c0 13 0 33 11 46z" />
    <glyph glyph-name="k" unicode="k" horiz-adv-x="282" 
d="M105 571c4 -28 5 -55 5 -82c0 -39 -3 -77 -3 -116v-20c26 65 40 105 64 175c5 16 19 45 27 47c12 3 20 5 26 5c21 0 26 -10 27 -24c1 -13 -9 -39 -12 -44c-8 -18 -19 -52 -35 -88c-20 -43 -39 -87 -55 -122c32 -70 59 -118 87 -174l30 -60c3 -6 12 -26 12 -46
c0 -26 -21 -27 -36 -28h-5c-20 0 -31 20 -42 45c-45 89 -59 125 -92 199v-19c0 -63 -5 -135 -5 -174c0 -43 -12 -45 -34 -45c-8 0 -16 3 -24 5c-7 2 -9 17 -9 35c4 133 9 380 9 466v9c0 11 -4 37 3 51c7 15 18 16 33 16c5 0 16 0 21 -4z" />
    <glyph glyph-name="kcommaaccent" unicode="&#x137;" horiz-adv-x="282" 
d="M105 571c4 -28 5 -55 5 -82c0 -39 -3 -77 -3 -116v-20c26 65 40 105 64 175c5 16 19 45 27 47c12 3 20 5 26 5c21 0 26 -10 27 -24c1 -13 -9 -39 -12 -44c-8 -18 -19 -52 -35 -88c-20 -43 -39 -87 -55 -122c32 -70 59 -118 87 -174l30 -60c3 -6 12 -26 12 -46
c0 -26 -21 -27 -36 -28h-5c-20 0 -31 20 -42 45c-45 89 -59 125 -92 199v-19c0 -63 -5 -135 -5 -174c0 -43 -12 -45 -34 -45c-8 0 -16 3 -24 5c-7 2 -9 17 -9 35c4 133 9 380 9 466v9c0 11 -4 37 3 51c7 15 18 16 33 16c5 0 16 0 21 -4zM114 -52c11 6 26 12 41 12
c36 0 42 -25 42 -56c0 -24 -29 -102 -44 -124c-6 -7 -16 -12 -24 -12c-18 0 -29 22 -29 29c6 22 14 49 15 68c-14 11 -21 31 -21 49c0 13 7 27 20 34z" />
    <glyph glyph-name="l" unicode="l" horiz-adv-x="222" 
d="M161 75c16 0 25 0 47 -4c2 -2 8 -20 8 -29c0 -13 -2 -23 -9 -27c-20 -11 -47 -9 -68 -9h-9c-41 0 -70 1 -88 12c-9 12 -9 35 -9 48c1 29 2 112 2 202c0 116 0 247 -3 291c9 15 19 20 30 20c40 0 45 -28 45 -83c0 -2 0 -340 -2 -421h56z" />
    <glyph glyph-name="lacute" unicode="&#x13a;" horiz-adv-x="222" 
d="M160 720c5 -4 7 -10 7 -14c0 -6 -3 -13 -9 -22c-19 -24 -74 -72 -90 -72c-20 0 -33 8 -33 20c0 13 12 30 20 40c1 1 29 40 50 53c6 3 13 6 17 6c8 0 27 -3 38 -11zM161 75c16 0 25 0 47 -4c2 -2 8 -20 8 -29c0 -13 -2 -23 -9 -27c-20 -11 -47 -9 -68 -9h-9
c-41 0 -70 1 -88 12c-9 12 -9 35 -9 48c1 29 2 112 2 202c0 116 0 247 -3 291c9 15 19 20 30 20c40 0 45 -28 45 -83c0 -2 0 -340 -2 -421h56z" />
    <glyph glyph-name="lcaron" unicode="&#x13e;" horiz-adv-x="224" 
d="M163 83c16 0 25 0 47 -4c2 -2 8 -20 8 -29c0 -13 -2 -23 -9 -27c-20 -11 -47 -9 -68 -9h-9c-41 0 -70 1 -88 12c-9 12 -9 35 -9 48c1 29 2 112 2 202c0 116 0 247 -3 291c9 15 19 20 30 20c40 0 45 -28 45 -83c0 -2 0 -340 -2 -421h56zM164 566c10 6 24 11 38 11
c33 0 38 -23 38 -51c0 -22 -26 -93 -40 -113c-6 -6 -15 -11 -22 -11c-16 0 -27 20 -27 26c6 21 13 45 14 63c-13 10 -19 28 -19 44c0 12 6 25 18 31z" />
    <glyph glyph-name="lcommaaccent" unicode="&#x13c;" horiz-adv-x="222" 
d="M161 75c16 0 25 0 47 -4c2 -2 8 -20 8 -29c0 -13 -2 -23 -9 -27c-20 -11 -47 -9 -68 -9h-9c-41 0 -70 1 -88 12c-9 12 -9 35 -9 48c1 29 2 112 2 202c0 116 0 247 -3 291c9 15 19 20 30 20c40 0 45 -28 45 -83c0 -2 0 -340 -2 -421h56zM77 -52c11 6 26 12 41 12
c36 0 42 -25 42 -56c0 -24 -29 -102 -44 -124c-6 -7 -16 -12 -24 -12c-18 0 -29 22 -29 29c6 22 14 49 15 68c-14 11 -21 31 -21 49c0 13 7 27 20 34z" />
    <glyph glyph-name="lslash" unicode="&#x142;" horiz-adv-x="222" 
d="M215 415c10 -17 15 -32 6 -40l-114 -107c-1 -81 -1 -159 -2 -193h56c16 0 25 0 47 -4c2 -2 8 -20 8 -29c0 -13 -2 -23 -9 -27c-20 -11 -47 -9 -68 -9h-9c-41 0 -70 1 -88 12c-9 12 -9 35 -9 48c1 21 1 73 2 134l-12 -11c-14 -13 -25 0 -35 14c-9 11 -9 27 0 35l47 44
c0 112 0 235 -3 277c9 15 19 20 30 20c40 0 45 -28 45 -83v-146l76 71c8 7 22 7 32 -6z" />
    <glyph glyph-name="m" unicode="m" horiz-adv-x="469" 
d="M354 565c13 6 27 10 40 10c21 0 32 -15 32 -41c0 -39 1 -77 2 -115c2 -117 3 -236 3 -356c0 -33 -3 -64 -50 -64c-12 0 -20 7 -22 31c0 209 0 309 1 367l-24 -101c-14 -53 -27 -106 -47 -206c-9 -25 -35 -31 -57 -31c-19 0 -33 15 -39 32c-24 74 -63 203 -89 297
c0 -47 0 -93 1 -142c1 -75 2 -152 2 -219c-3 -20 -24 -25 -39 -25c-24 0 -29 30 -29 42c-1 15 -3 169 -3 306c0 82 -1 160 -1 198c9 23 31 29 50 29s30 -4 38 -8c78 -291 115 -414 115 -414c18 81 73 323 84 357c4 22 14 47 32 53z" />
    <glyph glyph-name="n" unicode="n" horiz-adv-x="320" 
d="M33 534c1 23 21 33 50 33c19 -4 23 -30 31 -58c37 -125 74 -259 114 -366c0 9 -1 16 -1 23c-1 16 -2 37 -2 49c0 44 -1 94 -2 141c-1 38 -3 80 -3 107v73c0 19 14 38 45 38c10 0 21 -2 23 -13c0 -20 0 -72 1 -130c1 -93 1 -213 1 -296c0 -46 -1 -78 -4 -88
c-5 -16 -33 -32 -55 -32c-14 0 -26 3 -30 15l-103 297v-85c0 -104 2 -136 2 -219c-18 -16 -31 -20 -49 -20c-16 0 -21 36 -21 90c0 17 1 36 1 56v148c0 110 1 212 2 237z" />
    <glyph glyph-name="nacute" unicode="&#x144;" horiz-adv-x="320" 
d="M217 728c5 -4 7 -10 7 -14c0 -6 -3 -13 -9 -22c-19 -24 -74 -72 -90 -72c-20 0 -32 8 -32 20c0 13 11 30 19 40c1 1 29 40 50 53c6 3 13 6 17 6c8 0 27 -3 38 -11zM33 534c1 23 21 33 50 33c19 -4 23 -30 31 -58c37 -125 74 -259 114 -366c0 9 -1 16 -1 23
c-1 16 -2 37 -2 49c0 44 -1 94 -2 141c-1 38 -3 80 -3 107v73c0 19 14 38 45 38c10 0 21 -2 23 -13c0 -20 0 -72 1 -130c1 -93 1 -213 1 -296c0 -46 -1 -78 -4 -88c-5 -16 -33 -32 -55 -32c-14 0 -26 3 -30 15l-103 297v-85c0 -104 2 -136 2 -219c-18 -16 -31 -20 -49 -20
c-16 0 -21 36 -21 90c0 17 1 36 1 56v148c0 110 1 212 2 237z" />
    <glyph glyph-name="ncaron" unicode="&#x148;" horiz-adv-x="320" 
d="M259 715c0 -4 0 -7 -2 -9c0 0 -77 -77 -98 -78c-23 1 -46 22 -70 44l-26 21c-5 5 -7 13 -7 18c0 4 1 10 3 13c8 8 15 14 26 14c9 0 17 -6 30 -15l41 -31c7 6 34 29 53 40c5 3 12 6 16 6c14 0 29 -9 34 -23zM33 534c1 23 21 33 50 33c19 -4 23 -30 31 -58
c37 -125 74 -259 114 -366c0 9 -1 16 -1 23c-1 16 -2 37 -2 49c0 44 -1 94 -2 141c-1 38 -3 80 -3 107v73c0 19 14 38 45 38c10 0 21 -2 23 -13c0 -20 0 -72 1 -130c1 -93 1 -213 1 -296c0 -46 -1 -78 -4 -88c-5 -16 -33 -32 -55 -32c-14 0 -26 3 -30 15l-103 297v-85
c0 -104 2 -136 2 -219c-18 -16 -31 -20 -49 -20c-16 0 -21 36 -21 90c0 17 1 36 1 56v148c0 110 1 212 2 237z" />
    <glyph glyph-name="ncommaaccent" unicode="&#x146;" horiz-adv-x="320" 
d="M33 534c1 23 21 33 50 33c19 -4 23 -30 31 -58c37 -125 74 -259 114 -366c0 9 -1 16 -1 23c-1 16 -2 37 -2 49c0 44 -1 94 -2 141c-1 38 -3 80 -3 107v73c0 19 14 38 45 38c10 0 21 -2 23 -13c0 -20 0 -72 1 -130c1 -93 1 -213 1 -296c0 -46 -1 -78 -4 -88
c-5 -16 -33 -32 -55 -32c-14 0 -26 3 -30 15l-103 297v-85c0 -104 2 -136 2 -219c-18 -16 -31 -20 -49 -20c-16 0 -21 36 -21 90c0 17 1 36 1 56v148c0 110 1 212 2 237zM126 -52c11 6 26 12 41 12c36 0 42 -25 42 -56c0 -24 -29 -102 -44 -124c-6 -7 -16 -12 -24 -12
c-18 0 -29 22 -29 29c6 22 14 49 15 68c-14 11 -21 31 -21 49c0 13 7 27 20 34z" />
    <glyph glyph-name="eng" unicode="&#x14b;" horiz-adv-x="323" 
d="M184 -79c26 0 33 18 33 51v14c-46 130 -75 216 -121 347c0 -11 1 -24 1 -35c0 -23 1 -50 1 -62c0 -107 6 -237 6 -237c-12 -9 -30 -18 -48 -18c-25 0 -28 103 -28 213v92c0 115 1 221 2 247c3 17 21 33 51 33c15 -9 22 -31 30 -60c34 -114 82 -269 121 -380
c-1 52 -3 108 -5 162c-3 59 -7 121 -7 170v76c0 20 10 38 58 41c3 -3 8 -1 10 -17c0 -21 1 -73 2 -132c2 -96 5 -221 5 -305c0 -160 -10 -189 -29 -216c-18 -25 -46 -40 -89 -40c-24 0 -44 6 -58 18c-8 8 -8 18 -8 22c0 14 15 33 26 33c3 0 8 -2 13 -6c9 -8 20 -11 34 -11z
" />
    <glyph glyph-name="ntilde" unicode="&#xf1;" horiz-adv-x="320" 
d="M53 666c0 17 28 66 75 66c19 0 33 -8 45 -16c9 -5 18 -12 33 -12c8 0 17 7 23 11c7 6 15 12 27 14c0 0 17 -9 17 -24c0 -35 -38 -69 -70 -69c-23 0 -36 9 -48 18c-10 6 -18 13 -26 13c-11 0 -18 -8 -24 -15c-7 -8 -14 -15 -26 -15s-26 8 -26 29zM33 534c1 23 21 33 50 33
c19 -4 23 -30 31 -58c37 -125 74 -259 114 -366c0 9 -1 16 -1 23c-1 16 -2 37 -2 49c0 44 -1 94 -2 141c-1 38 -3 80 -3 107v73c0 19 14 38 45 38c10 0 21 -2 23 -13c0 -20 0 -72 1 -130c1 -93 1 -213 1 -296c0 -46 -1 -78 -4 -88c-5 -16 -33 -32 -55 -32
c-14 0 -26 3 -30 15l-103 297v-85c0 -104 2 -136 2 -219c-18 -16 -31 -20 -49 -20c-16 0 -21 36 -21 90c0 17 1 36 1 56v148c0 110 1 212 2 237z" />
    <glyph glyph-name="o" unicode="o" horiz-adv-x="287" 
d="M264 439c0 -22 0 -44 1 -66c1 -17 1 -41 1 -58c0 -185 -25 -317 -117 -317c-50 0 -95 16 -114 110c-9 47 -15 112 -15 170c0 21 1 41 1 60v46c0 71 23 204 135 204c63 0 105 -80 108 -149zM145 58c40 0 48 126 48 245c0 61 -2 135 -7 166c-3 21 -16 56 -40 56
c-30 0 -55 -35 -55 -236c0 -68 3 -231 54 -231z" />
    <glyph glyph-name="oacute" unicode="&#xf3;" horiz-adv-x="287" 
d="M201 728c5 -4 7 -10 7 -14c0 -6 -3 -13 -9 -22c-19 -24 -74 -72 -90 -72c-20 0 -32 8 -32 20c0 13 11 30 19 40c1 1 29 40 50 53c6 3 13 6 17 6c8 0 27 -3 38 -11zM264 439c0 -22 0 -44 1 -66c1 -17 1 -41 1 -58c0 -185 -25 -317 -117 -317c-50 0 -95 16 -114 110
c-9 47 -15 112 -15 170c0 21 1 41 1 60v46c0 71 23 204 135 204c63 0 105 -80 108 -149zM145 58c40 0 48 126 48 245c0 61 -2 135 -7 166c-3 21 -16 56 -40 56c-30 0 -55 -35 -55 -236c0 -68 3 -231 54 -231z" />
    <glyph glyph-name="ocircumflex" unicode="&#xf4;" horiz-adv-x="287" 
d="M251 658c2 -3 2 -7 2 -10c-6 -13 -20 -21 -34 -21c-7 0 -13 2 -16 4c-15 7 -54 42 -54 42c-8 -6 -28 -20 -45 -33c-12 -8 -19 -13 -30 -13c-12 0 -19 6 -26 12c-2 3 -3 9 -3 14s2 13 7 18l30 23c25 19 50 40 70 42c20 1 99 -78 99 -78zM264 439c0 -22 0 -44 1 -66
c1 -17 1 -41 1 -58c0 -185 -25 -317 -117 -317c-50 0 -95 16 -114 110c-9 47 -15 112 -15 170c0 21 1 41 1 60v46c0 71 23 204 135 204c63 0 105 -80 108 -149zM145 58c40 0 48 126 48 245c0 61 -2 135 -7 166c-3 21 -16 56 -40 56c-30 0 -55 -35 -55 -236
c0 -68 3 -231 54 -231z" />
    <glyph glyph-name="odieresis" unicode="&#xf6;" horiz-adv-x="287" 
d="M67 721c11 5 23 7 35 7c22 0 34 -16 34 -44c0 -27 -16 -39 -43 -39c-24 0 -42 24 -42 47c0 10 5 22 16 29zM163 721c12 5 24 7 36 7c24 0 34 -16 34 -44c0 -27 -16 -39 -43 -39c-25 0 -42 24 -42 47c0 10 5 22 15 29zM264 439c0 -22 0 -44 1 -66c1 -17 1 -41 1 -58
c0 -185 -25 -317 -117 -317c-50 0 -95 16 -114 110c-9 47 -15 112 -15 170c0 21 1 41 1 60v46c0 71 23 204 135 204c63 0 105 -80 108 -149zM145 58c40 0 48 126 48 245c0 61 -2 135 -7 166c-3 21 -16 56 -40 56c-30 0 -55 -35 -55 -236c0 -68 3 -231 54 -231z" />
    <glyph glyph-name="ograve" unicode="&#xf2;" horiz-adv-x="287" 
d="M83 727c12 9 32 12 40 12c6 0 7 -1 8 -1c27 -17 58 -58 58 -58c8 -10 19 -27 19 -40c0 -12 -12 -20 -32 -20c-16 0 -83 63 -90 74c-6 9 -9 16 -9 20s2 9 6 13zM264 439c0 -22 0 -44 1 -66c1 -17 1 -41 1 -58c0 -185 -25 -317 -117 -317c-50 0 -95 16 -114 110
c-9 47 -15 112 -15 170c0 21 1 41 1 60v46c0 71 23 204 135 204c63 0 105 -80 108 -149zM145 58c40 0 48 126 48 245c0 61 -2 135 -7 166c-3 21 -16 56 -40 56c-30 0 -55 -35 -55 -236c0 -68 3 -231 54 -231z" />
    <glyph glyph-name="ohungarumlaut" unicode="&#x151;" horiz-adv-x="287" 
d="M172 728c4 -3 6 -10 6 -14c0 -6 -3 -13 -8 -22c-19 -24 -75 -72 -90 -72c-21 0 -32 8 -32 20c0 13 10 30 19 40c1 1 28 40 50 53c6 3 13 6 16 6c8 0 28 -3 39 -11zM280 728c5 -4 7 -10 7 -14c0 -6 -3 -13 -9 -22c-19 -24 -74 -72 -90 -72c-20 0 -32 8 -32 20
c0 13 11 30 19 40c1 1 29 40 50 53c6 3 13 6 17 6c8 0 27 -3 38 -11zM264 439c0 -22 0 -44 1 -66c1 -17 1 -41 1 -58c0 -185 -25 -317 -117 -317c-50 0 -95 16 -114 110c-9 47 -15 112 -15 170c0 21 1 41 1 60v46c0 71 23 204 135 204c63 0 105 -80 108 -149zM145 58
c40 0 48 126 48 245c0 61 -2 135 -7 166c-3 21 -16 56 -40 56c-30 0 -55 -35 -55 -236c0 -68 3 -231 54 -231z" />
    <glyph glyph-name="omacron" unicode="&#x14d;" horiz-adv-x="287" 
d="M255 671c-3 -20 -7 -35 -23 -35h-166c-24 0 -26 19 -26 36c0 14 12 27 27 27h162c13 0 26 -15 26 -28zM264 439c0 -22 0 -44 1 -66c1 -17 1 -41 1 -58c0 -185 -25 -317 -117 -317c-50 0 -95 16 -114 110c-9 47 -15 112 -15 170c0 21 1 41 1 60v46c0 71 23 204 135 204
c63 0 105 -80 108 -149zM145 58c40 0 48 126 48 245c0 61 -2 135 -7 166c-3 21 -16 56 -40 56c-30 0 -55 -35 -55 -236c0 -68 3 -231 54 -231z" />
    <glyph glyph-name="oslash" unicode="&#xf8;" horiz-adv-x="287" 
d="M292 569l-1 -8c-2 -3 -14 -34 -33 -80c3 -14 5 -28 6 -42c0 -22 0 -44 1 -66c1 -17 1 -41 1 -58c0 -185 -25 -317 -117 -317c-27 0 -53 5 -74 24c-6 -15 -10 -25 -12 -27c-7 -12 -16 -22 -35 -22c-17 0 -32 0 -32 23c0 6 5 26 10 35l30 74c-1 1 -1 2 -1 3
c-9 47 -15 112 -15 170c0 21 1 41 1 60v46c0 71 23 204 135 204c24 0 45 -12 62 -30l6 14c7 19 20 21 32 21c17 0 36 -3 36 -24zM91 289c0 -13 0 -28 1 -46l93 232c-4 21 -17 50 -39 50c-30 0 -55 -35 -55 -236zM193 303v16c-18 -44 -36 -89 -53 -132
c-12 -29 -22 -57 -32 -82c8 -28 20 -47 37 -47c40 0 48 126 48 245z" />
    <glyph glyph-name="otilde" unicode="&#xf5;" horiz-adv-x="287" 
d="M37 666c0 17 28 66 75 66c19 0 33 -8 45 -16c9 -5 18 -12 33 -12c8 0 17 7 23 11c7 6 15 12 27 14c0 0 17 -9 17 -24c0 -35 -38 -69 -70 -69c-23 0 -36 9 -48 18c-10 6 -18 13 -26 13c-11 0 -18 -8 -24 -15c-7 -8 -14 -15 -26 -15s-26 8 -26 29zM264 439
c0 -22 0 -44 1 -66c1 -17 1 -41 1 -58c0 -185 -25 -317 -117 -317c-50 0 -95 16 -114 110c-9 47 -15 112 -15 170c0 21 1 41 1 60v46c0 71 23 204 135 204c63 0 105 -80 108 -149zM145 58c40 0 48 126 48 245c0 61 -2 135 -7 166c-3 21 -16 56 -40 56
c-30 0 -55 -35 -55 -236c0 -68 3 -231 54 -231z" />
    <glyph glyph-name="oe" unicode="&#x153;" horiz-adv-x="405" 
d="M342 64c18 0 34 -4 38 -13c3 -6 3 -18 3 -24c0 -14 -13 -23 -24 -24c-27 -3 -84 -6 -119 -6c-22 0 -34 3 -41 12c-13 -5 -29 -11 -50 -11c-50 0 -95 16 -114 108c-9 46 -15 110 -15 167c0 21 1 41 1 59v45c0 70 23 201 135 201c16 0 36 -7 54 -13c0 1 1 1 1 2
c8 11 59 10 83 10h36c40 0 55 -1 55 -30c0 -25 -6 -34 -54 -34h-8l-60 -3c-1 0 -1 -54 -1 -58c0 -51 -1 -73 -1 -86v-17c0 -14 0 -26 -1 -26c4 -2 45 -1 63 -1h13c36 0 37 -13 37 -36c0 -21 -14 -30 -30 -30h-60c-15 0 -17 -2 -17 -10c0 -21 1 -45 1 -70s-1 -50 -1 -72
c0 -18 -1 -33 -1 -43h30c14 1 39 3 47 3zM145 57c19 0 29 4 47 8v21c3 79 3 219 3 310l1 97c0 5 1 10 1 15c-15 7 -28 8 -51 8c-30 0 -55 -34 -55 -232c0 -67 3 -227 54 -227z" />
    <glyph glyph-name="p" unicode="p" horiz-adv-x="285" 
d="M32 515c11 59 72 64 112 64c43 0 80 -8 104 -46c15 -23 15 -64 15 -90c0 -60 -6 -134 -14 -159c-18 -54 -54 -75 -99 -75c-17 0 -50 0 -49 1c-2 -2 -3 -70 -3 -116c0 -32 1 -56 1 -56c0 -5 -11 -40 -40 -40c-20 0 -31 5 -31 21zM103 512c-2 -71 -3 -122 -3 -169
c0 -27 1 -43 1 -71h39c32 0 52 34 52 77c0 10 1 38 1 59v28c0 56 -10 83 -61 83c-12 0 -28 -3 -29 -7z" />
    <glyph glyph-name="thorn" unicode="&#xfe;" horiz-adv-x="274" 
d="M101 485c12 2 24 4 35 4c82 0 113 -55 113 -135c0 -59 -6 -153 -14 -177c-18 -53 -54 -76 -98 -76c-12 0 -27 2 -40 5v-71c0 -4 -14 -39 -42 -39c-23 0 -27 3 -27 20l5 529c0 18 16 33 35 33c11 0 25 -4 34 -20zM118 431c-4 0 -11 -3 -18 -5l-2 -255c13 -4 27 -7 38 -8
c37 1 43 70 43 115c0 9 1 31 1 47v22c0 55 -10 84 -62 84z" />
    <glyph glyph-name="q" unicode="q" horiz-adv-x="289" 
d="M266 432c0 -23 0 -45 1 -66c0 -20 1 -39 1 -57c0 -88 -6 -162 -22 -216c29 -31 46 -69 50 -104c0 -6 -20 -20 -35 -20c-8 0 -16 2 -17 9c-9 17 -15 35 -28 47c-16 -20 -38 -32 -65 -32c-51 0 -94 16 -114 110c-9 46 -15 110 -15 168c0 20 1 40 1 60v45
c0 71 13 203 134 203c64 0 105 -78 109 -147zM94 282c0 -31 1 -82 5 -127h7c26 0 55 -7 82 -20c6 46 8 104 8 161c0 61 -2 132 -7 163c-3 22 -16 56 -39 56c-31 0 -56 -33 -56 -233zM146 54c10 0 25 8 31 27c-18 13 -44 18 -69 20c8 -25 21 -47 38 -47z" />
    <glyph glyph-name="r" unicode="r" horiz-adv-x="277" 
d="M32 515c11 59 72 64 112 64c43 0 79 -9 104 -47c14 -22 15 -63 15 -89c0 -60 -6 -134 -14 -159c-11 -33 -29 -54 -51 -64c26 -36 68 -108 80 -210c-2 -2 -15 -14 -35 -14c-13 0 -37 14 -39 20c-11 56 -44 158 -85 193c-10 0 -18 2 -18 2c-2 -2 -3 -71 -3 -117
c0 -32 1 -56 1 -56c0 -5 -10 -40 -39 -40c-21 0 -32 5 -32 21zM103 512c-2 -71 -3 -122 -3 -169c0 -27 1 -43 1 -71h39c32 0 52 34 52 77c0 10 1 38 1 59v28c0 56 -10 83 -61 83c-11 0 -28 -3 -29 -7z" />
    <glyph glyph-name="racute" unicode="&#x155;" horiz-adv-x="277" 
d="M196 728c5 -4 7 -10 7 -14c0 -6 -3 -13 -9 -22c-19 -24 -74 -72 -90 -72c-20 0 -32 8 -32 20c0 13 11 30 19 40c1 1 29 40 50 53c6 3 13 6 17 6c8 0 27 -3 38 -11zM32 515c11 59 72 64 112 64c43 0 79 -9 104 -47c14 -22 15 -63 15 -89c0 -60 -6 -134 -14 -159
c-11 -33 -29 -54 -51 -64c26 -36 68 -108 80 -210c-2 -2 -15 -14 -35 -14c-13 0 -37 14 -39 20c-11 56 -44 158 -85 193c-10 0 -18 2 -18 2c-2 -2 -3 -71 -3 -117c0 -32 1 -56 1 -56c0 -5 -10 -40 -39 -40c-21 0 -32 5 -32 21zM103 512c-2 -71 -3 -122 -3 -169
c0 -27 1 -43 1 -71h39c32 0 52 34 52 77c0 10 1 38 1 59v28c0 56 -10 83 -61 83c-11 0 -28 -3 -29 -7z" />
    <glyph glyph-name="rcaron" unicode="&#x159;" horiz-adv-x="277" 
d="M238 715c0 -4 0 -7 -2 -9c0 0 -77 -77 -98 -78c-23 1 -46 22 -70 44l-26 21c-5 5 -7 13 -7 18c0 4 1 10 3 13c8 8 15 14 26 14c9 0 17 -6 30 -15l41 -31c7 6 34 29 53 40c5 3 12 6 16 6c14 0 29 -9 34 -23zM32 515c11 59 72 64 112 64c43 0 79 -9 104 -47
c14 -22 15 -63 15 -89c0 -60 -6 -134 -14 -159c-11 -33 -29 -54 -51 -64c26 -36 68 -108 80 -210c-2 -2 -15 -14 -35 -14c-13 0 -37 14 -39 20c-11 56 -44 158 -85 193c-10 0 -18 2 -18 2c-2 -2 -3 -71 -3 -117c0 -32 1 -56 1 -56c0 -5 -10 -40 -39 -40c-21 0 -32 5 -32 21z
M103 512c-2 -71 -3 -122 -3 -169c0 -27 1 -43 1 -71h39c32 0 52 34 52 77c0 10 1 38 1 59v28c0 56 -10 83 -61 83c-11 0 -28 -3 -29 -7z" />
    <glyph glyph-name="rcommaaccent" unicode="&#x157;" horiz-adv-x="277" 
d="M32 515c11 59 72 64 112 64c43 0 79 -9 104 -47c14 -22 15 -63 15 -89c0 -60 -6 -134 -14 -159c-11 -33 -29 -54 -51 -64c26 -36 68 -108 80 -210c-2 -2 -15 -14 -35 -14c-13 0 -37 14 -39 20c-11 56 -44 158 -85 193c-10 0 -18 2 -18 2c-2 -2 -3 -71 -3 -117
c0 -32 1 -56 1 -56c0 -5 -10 -40 -39 -40c-21 0 -32 5 -32 21zM103 512c-2 -71 -3 -122 -3 -169c0 -27 1 -43 1 -71h39c32 0 52 34 52 77c0 10 1 38 1 59v28c0 56 -10 83 -61 83c-11 0 -28 -3 -29 -7zM105 -52c11 6 26 12 41 12c36 0 42 -25 42 -56c0 -24 -29 -102 -44 -124
c-6 -7 -16 -12 -24 -12c-18 0 -29 22 -29 29c6 22 14 49 15 68c-14 11 -21 31 -21 49c0 13 7 27 20 34z" />
    <glyph glyph-name="s" unicode="s" horiz-adv-x="257" 
d="M142 589c88 0 100 -90 102 -151c0 -14 -3 -27 -21 -27c-21 0 -40 0 -48 22c-2 5 -2 18 -3 30c-1 29 -2 67 -28 67c-24 0 -38 -20 -38 -56c0 -45 32 -91 64 -136c35 -52 75 -114 75 -178c0 -88 -26 -166 -121 -166c-65 0 -101 69 -101 130c0 23 8 44 37 44
c22 0 43 -13 43 -40c0 -25 3 -73 31 -73c37 0 39 48 39 76c0 60 -32 107 -64 152c-36 50 -77 113 -77 188c0 72 50 118 110 118z" />
    <glyph glyph-name="sacute" unicode="&#x15b;" horiz-adv-x="257" 
d="M186 728c5 -4 7 -10 7 -14c0 -6 -3 -13 -9 -22c-19 -24 -74 -72 -90 -72c-20 0 -32 8 -32 20c0 13 11 30 19 40c1 1 29 40 50 53c6 3 13 6 17 6c8 0 27 -3 38 -11zM142 589c88 0 100 -90 102 -151c0 -14 -3 -27 -21 -27c-21 0 -40 0 -48 22c-2 5 -2 18 -3 30
c-1 29 -2 67 -28 67c-24 0 -38 -20 -38 -56c0 -45 32 -91 64 -136c35 -52 75 -114 75 -178c0 -88 -26 -166 -121 -166c-65 0 -101 69 -101 130c0 23 8 44 37 44c22 0 43 -13 43 -40c0 -25 3 -73 31 -73c37 0 39 48 39 76c0 60 -32 107 -64 152c-36 50 -77 113 -77 188
c0 72 50 118 110 118z" />
    <glyph glyph-name="scaron" unicode="&#x161;" horiz-adv-x="257" 
d="M228 715c0 -4 0 -7 -2 -9c0 0 -77 -77 -98 -78c-23 1 -46 22 -70 44l-26 21c-5 5 -7 13 -7 18c0 4 1 10 3 13c8 8 15 14 26 14c9 0 17 -6 30 -15l41 -31c7 6 34 29 53 40c5 3 12 6 16 6c14 0 29 -9 34 -23zM142 589c88 0 100 -90 102 -151c0 -14 -3 -27 -21 -27
c-21 0 -40 0 -48 22c-2 5 -2 18 -3 30c-1 29 -2 67 -28 67c-24 0 -38 -20 -38 -56c0 -45 32 -91 64 -136c35 -52 75 -114 75 -178c0 -88 -26 -166 -121 -166c-65 0 -101 69 -101 130c0 23 8 44 37 44c22 0 43 -13 43 -40c0 -25 3 -73 31 -73c37 0 39 48 39 76
c0 60 -32 107 -64 152c-36 50 -77 113 -77 188c0 72 50 118 110 118z" />
    <glyph glyph-name="scedilla" unicode="&#x15f;" horiz-adv-x="257" 
d="M150 -20c53 -16 63 -40 63 -74c0 -57 -43 -76 -81 -76c-28 0 -63 11 -63 41c0 18 8 26 18 26c9 0 24 -10 36 -10c17 0 35 5 35 22c0 19 -39 24 -53 30c-21 9 -32 18 -32 40c0 7 3 17 8 27c-38 22 -58 72 -58 118c0 23 8 44 37 44c22 0 43 -13 43 -40c0 -25 3 -73 31 -73
c37 0 39 48 39 76c0 60 -32 107 -64 152c-36 50 -77 113 -77 188c0 72 50 118 110 118c88 0 100 -90 102 -151c0 -14 -3 -27 -21 -27c-21 0 -40 0 -48 22c-2 5 -2 18 -3 30c-1 29 -2 67 -28 67c-24 0 -38 -20 -38 -56c0 -45 32 -91 64 -136c35 -52 75 -114 75 -178
c0 -84 -24 -160 -110 -166c-2 -4 -3 -8 -3 -10c5 -1 12 -2 18 -4z" />
    <glyph glyph-name="scommaaccent" unicode="&#x219;" horiz-adv-x="257" 
d="M142 589c88 0 100 -90 102 -151c0 -14 -3 -27 -21 -27c-21 0 -40 0 -48 22c-2 5 -2 18 -3 30c-1 29 -2 67 -28 67c-24 0 -38 -20 -38 -56c0 -45 32 -91 64 -136c35 -52 75 -114 75 -178c0 -88 -26 -166 -121 -166c-65 0 -101 69 -101 130c0 23 8 44 37 44
c22 0 43 -13 43 -40c0 -25 3 -73 31 -73c37 0 39 48 39 76c0 60 -32 107 -64 152c-36 50 -77 113 -77 188c0 72 50 118 110 118zM104 -74c11 6 26 12 41 12c36 0 42 -25 42 -56c0 -24 -29 -102 -44 -124c-6 -7 -16 -12 -24 -12c-18 0 -29 22 -29 29c6 22 14 49 15 68
c-14 11 -21 31 -21 49c0 13 7 27 20 34z" />
    <glyph glyph-name="germandbls" unicode="&#xdf;" horiz-adv-x="391" 
d="M157 59c7 30 23 36 41 36l11 -1c7 -15 18 -27 38 -27c45 0 47 79 47 104c0 75 -58 115 -100 145l-15 12c-21 17 -32 41 -32 62c0 28 9 50 20 76c13 28 26 58 26 105c0 33 -14 65 -43 65s-41 -50 -41 -60c0 -66 -1 -134 -3 -202c0 -63 -2 -136 -2 -195
c0 -65 1 -118 5 -148c-7 -17 -31 -33 -44 -33c-30 4 -33 36 -33 69c2 90 2 154 2 212v160c0 42 1 78 2 106c4 73 34 152 129 152c55 0 99 -54 99 -129c0 -60 -13 -88 -25 -113c-10 -21 -18 -38 -18 -62c0 -7 5 -15 14 -21c48 -28 134 -82 134 -204c0 -76 -44 -167 -128 -167
c-41 0 -79 18 -84 58z" />
    <glyph glyph-name="t" unicode="t" horiz-adv-x="242" 
d="M-1 552c3 10 11 22 24 27c31 0 192 0 199 -3c7 -4 19 -22 19 -30c0 -6 -12 -31 -19 -31h-26c-11 -1 -27 -1 -42 -1c0 -111 0 -235 -1 -326c0 -34 -1 -97 -1 -112v-52c0 -3 -13 -25 -39 -25c-31 0 -35 14 -35 33v14c0 6 1 12 1 18c1 57 3 392 3 449h-28c-17 0 -33 0 -38 1
c-12 2 -18 15 -18 28c0 3 0 7 1 10z" />
    <glyph glyph-name="tbar" unicode="&#x167;" horiz-adv-x="242" 
d="M218 368c11 0 22 -12 22 -29c-2 -21 -7 -36 -19 -36h-67c0 -41 -1 -81 -1 -115s-1 -97 -1 -112v-52c0 -3 -13 -25 -39 -25c-31 0 -35 14 -35 33v14c0 6 1 12 1 18c1 30 1 136 2 239h-64c-20 0 -21 19 -21 36s10 29 22 29h63c1 67 1 124 1 145h-28c-17 0 -33 0 -38 1
c-12 2 -18 15 -18 28c0 3 0 7 1 10c3 10 11 22 24 27c31 0 192 0 199 -3c7 -4 19 -22 19 -30c0 -6 -12 -31 -19 -31h-26c-11 -1 -27 -1 -42 -1v-146h64z" />
    <glyph glyph-name="tcaron" unicode="&#x165;" horiz-adv-x="372" 
d="M-1 552c3 10 11 22 24 27c31 0 192 0 199 -3c7 -4 19 -22 19 -30c0 -6 -12 -31 -19 -31h-26c-11 -1 -27 -1 -42 -1c0 -111 0 -235 -1 -326c0 -34 -1 -97 -1 -112v-52c0 -3 -13 -25 -39 -25c-31 0 -35 14 -35 33v14c0 6 1 12 1 18c1 57 3 392 3 449h-28c-17 0 -33 0 -38 1
c-12 2 -18 15 -18 28c0 3 0 7 1 10zM286 566c10 6 24 11 38 11c33 0 38 -23 38 -51c0 -22 -26 -93 -40 -113c-6 -6 -15 -11 -22 -11c-16 0 -27 20 -27 26c6 21 13 45 14 63c-13 10 -19 28 -19 44c0 12 6 25 18 31z" />
    <glyph glyph-name="uni0163" unicode="&#x163;" horiz-adv-x="242" 
d="M222 576c7 -4 19 -22 19 -30c0 -6 -12 -31 -19 -31h-26c-11 -1 -27 -1 -42 -1c0 -111 0 -235 -1 -326c0 -34 -1 -97 -1 -112v-52c0 -2 -8 -17 -25 -23c-1 -2 -1 -4 -1 -5c5 -1 12 -2 18 -4c53 -16 63 -40 63 -74c0 -57 -43 -76 -81 -76c-28 0 -63 11 -63 41
c0 18 8 26 18 26c9 0 24 -10 36 -10c17 0 35 5 35 22c0 19 -39 24 -53 30c-21 9 -32 18 -32 40c0 9 5 21 11 33v8v14c0 6 1 12 1 18c1 57 3 392 3 449h-28c-17 0 -33 0 -38 1c-12 2 -18 15 -18 28c0 3 0 7 1 10c3 10 11 22 24 27c31 0 192 0 199 -3z" />
    <glyph glyph-name="uni021B" unicode="&#x21b;" horiz-adv-x="242" 
d="M-1 552c3 10 11 22 24 27c31 0 192 0 199 -3c7 -4 19 -22 19 -30c0 -6 -12 -31 -19 -31h-26c-11 -1 -27 -1 -42 -1c0 -111 0 -235 -1 -326c0 -34 -1 -97 -1 -112v-52c0 -3 -13 -25 -39 -25c-31 0 -35 14 -35 33v14c0 6 1 12 1 18c1 57 3 392 3 449h-28c-17 0 -33 0 -38 1
c-12 2 -18 15 -18 28c0 3 0 7 1 10zM98 -62c11 6 26 12 41 12c36 0 42 -25 42 -56c0 -24 -29 -102 -44 -124c-6 -7 -16 -12 -24 -12c-18 0 -29 22 -29 29c6 22 14 49 15 68c-14 11 -21 31 -21 49c0 13 7 27 20 34z" />
    <glyph glyph-name="u" unicode="u" horiz-adv-x="317" 
d="M32 547c10 21 22 31 41 31c34 0 39 -33 39 -51v-401c0 -29 18 -68 46 -68c48 0 57 96 57 177c0 40 1 76 1 112c0 34 1 67 1 100c0 28 0 68 -1 95c11 31 43 33 60 33c6 0 13 0 20 -15c0 -64 -10 -411 -17 -442c-24 -110 -76 -124 -129 -124c-60 0 -85 37 -101 78
c-12 32 -15 210 -17 370v105z" />
    <glyph glyph-name="uacute" unicode="&#xfa;" horiz-adv-x="317" 
d="M216 728c5 -4 7 -10 7 -14c0 -6 -3 -13 -9 -22c-19 -24 -74 -72 -90 -72c-20 0 -32 8 -32 20c0 13 11 30 19 40c1 1 29 40 50 53c6 3 13 6 17 6c8 0 27 -3 38 -11zM32 547c10 21 22 31 41 31c34 0 39 -33 39 -51v-401c0 -29 18 -68 46 -68c48 0 57 96 57 177
c0 40 1 76 1 112c0 34 1 67 1 100c0 28 0 68 -1 95c11 31 43 33 60 33c6 0 13 0 20 -15c0 -64 -10 -411 -17 -442c-24 -110 -76 -124 -129 -124c-60 0 -85 37 -101 78c-12 32 -15 210 -17 370v105z" />
    <glyph glyph-name="ucircumflex" unicode="&#xfb;" horiz-adv-x="317" 
d="M266 658c2 -3 2 -7 2 -10c-6 -13 -20 -21 -34 -21c-7 0 -13 2 -16 4c-15 7 -54 42 -54 42c-8 -6 -28 -20 -45 -33c-12 -8 -19 -13 -30 -13c-12 0 -19 6 -26 12c-2 3 -3 9 -3 14s2 13 7 18l30 23c25 19 50 40 70 42c20 1 99 -78 99 -78zM32 547c10 21 22 31 41 31
c34 0 39 -33 39 -51v-401c0 -29 18 -68 46 -68c48 0 57 96 57 177c0 40 1 76 1 112c0 34 1 67 1 100c0 28 0 68 -1 95c11 31 43 33 60 33c6 0 13 0 20 -15c0 -64 -10 -411 -17 -442c-24 -110 -76 -124 -129 -124c-60 0 -85 37 -101 78c-12 32 -15 210 -17 370v105z" />
    <glyph glyph-name="udieresis" unicode="&#xfc;" horiz-adv-x="317" 
d="M82 721c11 5 23 7 35 7c22 0 34 -16 34 -44c0 -27 -16 -39 -43 -39c-24 0 -42 24 -42 47c0 10 5 22 16 29zM178 721c12 5 24 7 36 7c24 0 34 -16 34 -44c0 -27 -16 -39 -43 -39c-25 0 -42 24 -42 47c0 10 5 22 15 29zM32 547c10 21 22 31 41 31c34 0 39 -33 39 -51v-401
c0 -29 18 -68 46 -68c48 0 57 96 57 177c0 40 1 76 1 112c0 34 1 67 1 100c0 28 0 68 -1 95c11 31 43 33 60 33c6 0 13 0 20 -15c0 -64 -10 -411 -17 -442c-24 -110 -76 -124 -129 -124c-60 0 -85 37 -101 78c-12 32 -15 210 -17 370v105z" />
    <glyph glyph-name="ugrave" unicode="&#xf9;" horiz-adv-x="317" 
d="M98 727c12 9 32 12 40 12c6 0 7 -1 8 -1c27 -17 58 -58 58 -58c8 -10 19 -27 19 -40c0 -12 -12 -20 -32 -20c-16 0 -83 63 -90 74c-6 9 -9 16 -9 20s2 9 6 13zM32 547c10 21 22 31 41 31c34 0 39 -33 39 -51v-401c0 -29 18 -68 46 -68c48 0 57 96 57 177c0 40 1 76 1 112
c0 34 1 67 1 100c0 28 0 68 -1 95c11 31 43 33 60 33c6 0 13 0 20 -15c0 -64 -10 -411 -17 -442c-24 -110 -76 -124 -129 -124c-60 0 -85 37 -101 78c-12 32 -15 210 -17 370v105z" />
    <glyph glyph-name="uhungarumlaut" unicode="&#x171;" horiz-adv-x="317" 
d="M187 728c4 -3 6 -10 6 -14c0 -6 -3 -13 -8 -22c-19 -24 -75 -72 -90 -72c-21 0 -32 8 -32 20c0 13 10 30 19 40c1 1 28 40 50 53c6 3 13 6 16 6c8 0 28 -3 39 -11zM295 728c5 -4 7 -10 7 -14c0 -6 -3 -13 -9 -22c-19 -24 -74 -72 -90 -72c-20 0 -32 8 -32 20
c0 13 11 30 19 40c1 1 29 40 50 53c6 3 13 6 17 6c8 0 27 -3 38 -11zM32 547c10 21 22 31 41 31c34 0 39 -33 39 -51v-401c0 -29 18 -68 46 -68c48 0 57 96 57 177c0 40 1 76 1 112c0 34 1 67 1 100c0 28 0 68 -1 95c11 31 43 33 60 33c6 0 13 0 20 -15
c0 -64 -10 -411 -17 -442c-24 -110 -76 -124 -129 -124c-60 0 -85 37 -101 78c-12 32 -15 210 -17 370v105z" />
    <glyph glyph-name="umacron" unicode="&#x16b;" horiz-adv-x="317" 
d="M270 671c-3 -20 -7 -35 -23 -35h-166c-24 0 -26 19 -26 36c0 14 12 27 27 27h162c13 0 26 -15 26 -28zM32 547c10 21 22 31 41 31c34 0 39 -33 39 -51v-401c0 -29 18 -68 46 -68c48 0 57 96 57 177c0 40 1 76 1 112c0 34 1 67 1 100c0 28 0 68 -1 95c11 31 43 33 60 33
c6 0 13 0 20 -15c0 -64 -10 -411 -17 -442c-24 -110 -76 -124 -129 -124c-60 0 -85 37 -101 78c-12 32 -15 210 -17 370v105z" />
    <glyph glyph-name="uogonek" unicode="&#x173;" horiz-adv-x="317" 
d="M212 -7c-9 -16 -20 -32 -30 -47c-8 -12 -11 -22 -11 -34s4 -21 14 -21c22 0 26 15 29 37c3 18 14 27 25 27c16 0 27 -9 27 -29c0 -19 -5 -40 -16 -54c-13 -16 -33 -30 -71 -30s-71 23 -71 66c0 29 12 60 31 86c-52 5 -75 40 -90 78c-12 32 -15 210 -17 370v105
c10 21 22 31 41 31c34 0 39 -33 39 -51v-401c0 -29 18 -68 46 -68c48 0 57 96 57 177c0 40 1 76 1 112c0 34 1 67 1 100c0 28 0 68 -1 95c11 31 43 33 60 33c6 0 13 0 20 -15c0 -64 -10 -411 -17 -442c-13 -59 -34 -90 -59 -107c-2 -7 -6 -14 -8 -18z" />
    <glyph glyph-name="uring" unicode="&#x16f;" horiz-adv-x="317" 
d="M101 685c0 36 28 59 61 59c34 0 59 -29 59 -61s-24 -59 -61 -59c-34 0 -59 28 -59 61zM146 683c0 -7 7 -15 14 -15s17 6 17 18c0 6 -5 15 -17 15c-7 0 -14 -10 -14 -18zM32 547c10 21 22 31 41 31c34 0 39 -33 39 -51v-401c0 -29 18 -68 46 -68c48 0 57 96 57 177
c0 40 1 76 1 112c0 34 1 67 1 100c0 28 0 68 -1 95c11 31 43 33 60 33c6 0 13 0 20 -15c0 -64 -10 -411 -17 -442c-24 -110 -76 -124 -129 -124c-60 0 -85 37 -101 78c-12 32 -15 210 -17 370v105z" />
    <glyph glyph-name="v" unicode="v" horiz-adv-x="283" 
d="M169 308l45 255c8 13 27 15 38 15c17 0 24 -15 24 -33c0 -12 -2 -20 -4 -30l-3 -13c-18 -112 -50 -280 -83 -431c-7 -35 -13 -68 -55 -68c-39 0 -48 48 -54 80c-23 139 -49 300 -70 450c-2 8 -2 10 -2 11c0 26 8 31 38 33c12 0 30 -9 33 -20c6 -20 9 -50 13 -91
c8 -65 13 -146 48 -340z" />
    <glyph glyph-name="w" unicode="w" horiz-adv-x="508" 
d="M380 308l46 254c8 13 28 15 39 15c17 0 24 -15 24 -33c0 -9 -2 -17 -7 -42c-18 -110 -52 -298 -87 -431c-11 -41 -20 -68 -55 -68c-39 0 -49 48 -54 80c-10 59 -27 171 -34 226l-5 34c-18 -90 -39 -190 -61 -272c-6 -22 -10 -68 -55 -68c-39 0 -49 48 -54 80
c-22 122 -35 213 -51 328c-4 33 -7 84 -13 121c-2 8 -2 10 -2 12c0 25 9 33 28 33c10 0 31 -8 34 -21c13 -55 43 -302 64 -435c12 61 27 128 39 188l33 140c-1 7 24 32 44 32c17 0 34 -10 36 -22c20 -104 36 -219 57 -337z" />
    <glyph glyph-name="wacute" unicode="&#x1e83;" horiz-adv-x="508" 
d="M301 727c5 -4 7 -10 7 -14c0 -6 -3 -13 -9 -22c-19 -24 -74 -72 -90 -72c-20 0 -32 8 -32 20c0 13 11 30 19 40c1 1 29 40 50 53c6 3 13 6 17 6c8 0 27 -3 38 -11zM380 308l46 254c8 13 28 15 39 15c17 0 24 -15 24 -33c0 -9 -2 -17 -7 -42c-18 -110 -52 -298 -87 -431
c-11 -41 -20 -68 -55 -68c-39 0 -49 48 -54 80c-10 59 -27 171 -34 226l-5 34c-18 -90 -39 -190 -61 -272c-6 -22 -10 -68 -55 -68c-39 0 -49 48 -54 80c-22 122 -35 213 -51 328c-4 33 -7 84 -13 121c-2 8 -2 10 -2 12c0 25 9 33 28 33c10 0 31 -8 34 -21
c13 -55 43 -302 64 -435c12 61 27 128 39 188l33 140c-1 7 24 32 44 32c17 0 34 -10 36 -22c20 -104 36 -219 57 -337z" />
    <glyph glyph-name="wcircumflex" unicode="&#x175;" horiz-adv-x="508" 
d="M351 657c2 -3 2 -7 2 -10c-6 -13 -20 -21 -34 -21c-7 0 -13 2 -16 4c-15 7 -54 42 -54 42c-8 -6 -28 -20 -45 -33c-12 -8 -19 -13 -30 -13c-12 0 -19 6 -26 12c-2 3 -3 9 -3 14s2 13 7 18l30 23c25 19 50 40 70 42c20 1 99 -78 99 -78zM380 308l46 254c8 13 28 15 39 15
c17 0 24 -15 24 -33c0 -9 -2 -17 -7 -42c-18 -110 -52 -298 -87 -431c-11 -41 -20 -68 -55 -68c-39 0 -49 48 -54 80c-10 59 -27 171 -34 226l-5 34c-18 -90 -39 -190 -61 -272c-6 -22 -10 -68 -55 -68c-39 0 -49 48 -54 80c-22 122 -35 213 -51 328c-4 33 -7 84 -13 121
c-2 8 -2 10 -2 12c0 25 9 33 28 33c10 0 31 -8 34 -21c13 -55 43 -302 64 -435c12 61 27 128 39 188l33 140c-1 7 24 32 44 32c17 0 34 -10 36 -22c20 -104 36 -219 57 -337z" />
    <glyph glyph-name="wdieresis" unicode="&#x1e85;" horiz-adv-x="508" 
d="M167 720c11 5 23 7 35 7c22 0 34 -16 34 -44c0 -27 -16 -39 -43 -39c-24 0 -42 24 -42 47c0 10 5 22 16 29zM263 720c12 5 24 7 36 7c24 0 34 -16 34 -44c0 -27 -16 -39 -43 -39c-25 0 -42 24 -42 47c0 10 5 22 15 29zM380 308l46 254c8 13 28 15 39 15
c17 0 24 -15 24 -33c0 -9 -2 -17 -7 -42c-18 -110 -52 -298 -87 -431c-11 -41 -20 -68 -55 -68c-39 0 -49 48 -54 80c-10 59 -27 171 -34 226l-5 34c-18 -90 -39 -190 -61 -272c-6 -22 -10 -68 -55 -68c-39 0 -49 48 -54 80c-22 122 -35 213 -51 328c-4 33 -7 84 -13 121
c-2 8 -2 10 -2 12c0 25 9 33 28 33c10 0 31 -8 34 -21c13 -55 43 -302 64 -435c12 61 27 128 39 188l33 140c-1 7 24 32 44 32c17 0 34 -10 36 -22c20 -104 36 -219 57 -337z" />
    <glyph glyph-name="wgrave" unicode="&#x1e81;" horiz-adv-x="508" 
d="M183 726c12 9 32 12 40 12c6 0 7 -1 8 -1c27 -17 58 -58 58 -58c8 -10 19 -27 19 -40c0 -12 -12 -20 -32 -20c-16 0 -83 63 -90 74c-6 9 -9 16 -9 20s2 9 6 13zM380 308l46 254c8 13 28 15 39 15c17 0 24 -15 24 -33c0 -9 -2 -17 -7 -42c-18 -110 -52 -298 -87 -431
c-11 -41 -20 -68 -55 -68c-39 0 -49 48 -54 80c-10 59 -27 171 -34 226l-5 34c-18 -90 -39 -190 -61 -272c-6 -22 -10 -68 -55 -68c-39 0 -49 48 -54 80c-22 122 -35 213 -51 328c-4 33 -7 84 -13 121c-2 8 -2 10 -2 12c0 25 9 33 28 33c10 0 31 -8 34 -21
c13 -55 43 -302 64 -435c12 61 27 128 39 188l33 140c-1 7 24 32 44 32c17 0 34 -10 36 -22c20 -104 36 -219 57 -337z" />
    <glyph glyph-name="x" unicode="x" horiz-adv-x="303" 
d="M-3 22c0 0 58 139 119 281c-36 92 -67 181 -84 223c-2 5 -6 21 -6 25c8 15 21 24 35 24c17 0 30 -17 35 -33c15 -30 33 -86 58 -150c32 71 61 136 80 174c1 3 13 12 25 12c10 0 33 -13 35 -29c0 -5 -2 -10 -3 -13c-13 -25 -51 -113 -102 -232c41 -103 85 -211 113 -277
c0 0 -11 -30 -35 -30c-7 0 -19 3 -25 9c-13 17 -51 105 -92 207l-77 -184c-8 -19 -22 -34 -40 -34c-10 0 -34 9 -36 27z" />
    <glyph glyph-name="y" unicode="y" horiz-adv-x="278" 
d="M201 571c8 4 23 8 29 8c10 0 21 -5 25 -21c1 -5 2 -14 2 -25v-12s-9 -377 -15 -411c-8 -46 -30 -111 -115 -111c-17 0 -93 6 -93 115c0 30 12 39 37 39c19 0 30 0 35 -63c2 -23 14 -32 31 -32c28 0 38 33 38 65l2 88c-14 -4 -31 -7 -48 -7c-16 0 -33 3 -46 10
c-55 29 -55 154 -55 229v41c1 16 1 31 1 56c0 0 6 26 27 34c3 1 16 3 19 3c16 0 21 -15 21 -30c0 -79 -4 -162 12 -243c2 -11 10 -41 38 -41c8 0 20 3 33 11c3 107 6 235 6 245c0 16 1 34 16 52z" />
    <glyph glyph-name="yacute" unicode="&#xfd;" horiz-adv-x="278" 
d="M196 728c5 -4 7 -10 7 -14c0 -6 -3 -13 -9 -22c-19 -24 -74 -72 -90 -72c-20 0 -32 8 -32 20c0 13 11 30 19 40c1 1 29 40 50 53c6 3 13 6 17 6c8 0 27 -3 38 -11zM201 571c8 4 23 8 29 8c10 0 21 -5 25 -21c1 -5 2 -14 2 -25v-12s-9 -377 -15 -411
c-8 -46 -30 -111 -115 -111c-17 0 -93 6 -93 115c0 30 12 39 37 39c19 0 30 0 35 -63c2 -23 14 -32 31 -32c28 0 38 33 38 65l2 88c-14 -4 -31 -7 -48 -7c-16 0 -33 3 -46 10c-55 29 -55 154 -55 229v41c1 16 1 31 1 56c0 0 6 26 27 34c3 1 16 3 19 3c16 0 21 -15 21 -30
c0 -79 -4 -162 12 -243c2 -11 10 -41 38 -41c8 0 20 3 33 11c3 107 6 235 6 245c0 16 1 34 16 52z" />
    <glyph glyph-name="ycircumflex" unicode="&#x177;" horiz-adv-x="278" 
d="M246 658c2 -3 2 -7 2 -10c-6 -13 -20 -21 -34 -21c-7 0 -13 2 -16 4c-15 7 -54 42 -54 42c-8 -6 -28 -20 -45 -33c-12 -8 -19 -13 -30 -13c-12 0 -19 6 -26 12c-2 3 -3 9 -3 14s2 13 7 18l30 23c25 19 50 40 70 42c20 1 99 -78 99 -78zM201 571c8 4 23 8 29 8
c10 0 21 -5 25 -21c1 -5 2 -14 2 -25v-12s-9 -377 -15 -411c-8 -46 -30 -111 -115 -111c-17 0 -93 6 -93 115c0 30 12 39 37 39c19 0 30 0 35 -63c2 -23 14 -32 31 -32c28 0 38 33 38 65l2 88c-14 -4 -31 -7 -48 -7c-16 0 -33 3 -46 10c-55 29 -55 154 -55 229v41
c1 16 1 31 1 56c0 0 6 26 27 34c3 1 16 3 19 3c16 0 21 -15 21 -30c0 -79 -4 -162 12 -243c2 -11 10 -41 38 -41c8 0 20 3 33 11c3 107 6 235 6 245c0 16 1 34 16 52z" />
    <glyph glyph-name="ydieresis" unicode="&#xff;" horiz-adv-x="278" 
d="M62 721c11 5 23 7 35 7c22 0 34 -16 34 -44c0 -27 -16 -39 -43 -39c-24 0 -42 24 -42 47c0 10 5 22 16 29zM158 721c12 5 24 7 36 7c24 0 34 -16 34 -44c0 -27 -16 -39 -43 -39c-25 0 -42 24 -42 47c0 10 5 22 15 29zM201 571c8 4 23 8 29 8c10 0 21 -5 25 -21
c1 -5 2 -14 2 -25v-12s-9 -377 -15 -411c-8 -46 -30 -111 -115 -111c-17 0 -93 6 -93 115c0 30 12 39 37 39c19 0 30 0 35 -63c2 -23 14 -32 31 -32c28 0 38 33 38 65l2 88c-14 -4 -31 -7 -48 -7c-16 0 -33 3 -46 10c-55 29 -55 154 -55 229v41c1 16 1 31 1 56
c0 0 6 26 27 34c3 1 16 3 19 3c16 0 21 -15 21 -30c0 -79 -4 -162 12 -243c2 -11 10 -41 38 -41c8 0 20 3 33 11c3 107 6 235 6 245c0 16 1 34 16 52z" />
    <glyph glyph-name="ygrave" unicode="&#x1ef3;" horiz-adv-x="278" 
d="M78 727c12 9 32 12 40 12c6 0 7 -1 8 -1c27 -17 58 -58 58 -58c8 -10 19 -27 19 -40c0 -12 -12 -20 -32 -20c-16 0 -83 63 -90 74c-6 9 -9 16 -9 20s2 9 6 13zM201 571c8 4 23 8 29 8c10 0 21 -5 25 -21c1 -5 2 -14 2 -25v-12s-9 -377 -15 -411
c-8 -46 -30 -111 -115 -111c-17 0 -93 6 -93 115c0 30 12 39 37 39c19 0 30 0 35 -63c2 -23 14 -32 31 -32c28 0 38 33 38 65l2 88c-14 -4 -31 -7 -48 -7c-16 0 -33 3 -46 10c-55 29 -55 154 -55 229v41c1 16 1 31 1 56c0 0 6 26 27 34c3 1 16 3 19 3c16 0 21 -15 21 -30
c0 -79 -4 -162 12 -243c2 -11 10 -41 38 -41c8 0 20 3 33 11c3 107 6 235 6 245c0 16 1 34 16 52z" />
    <glyph glyph-name="z" unicode="z" horiz-adv-x="271" 
d="M45 566c15 5 129 13 169 10c37 -2 46 -25 46 -49s-10 -52 -10 -52l-157 -403h133c17 -5 19 -28 19 -36c0 -11 -12 -21 -21 -26c0 0 -72 -4 -128 -4h-11l-38 1c-35 6 -41 29 -41 44c0 3 79 200 90 225c12 25 76 195 88 236l-114 -1c-25 0 -31 17 -31 32c0 7 1 14 6 23z
" />
    <glyph glyph-name="zacute" unicode="&#x17a;" horiz-adv-x="271" 
d="M201 728c5 -4 7 -10 7 -14c0 -6 -3 -13 -9 -22c-19 -24 -74 -72 -90 -72c-20 0 -32 8 -32 20c0 13 11 30 19 40c1 1 29 40 50 53c6 3 13 6 17 6c8 0 27 -3 38 -11zM45 566c15 5 129 13 169 10c37 -2 46 -25 46 -49s-10 -52 -10 -52l-157 -403h133c17 -5 19 -28 19 -36
c0 -11 -12 -21 -21 -26c0 0 -72 -4 -128 -4h-11l-38 1c-35 6 -41 29 -41 44c0 3 79 200 90 225c12 25 76 195 88 236l-114 -1c-25 0 -31 17 -31 32c0 7 1 14 6 23z" />
    <glyph glyph-name="zcaron" unicode="&#x17e;" horiz-adv-x="271" 
d="M243 715c0 -4 0 -7 -2 -9c0 0 -77 -77 -98 -78c-23 1 -46 22 -70 44l-26 21c-5 5 -7 13 -7 18c0 4 1 10 3 13c8 8 15 14 26 14c9 0 17 -6 30 -15l41 -31c7 6 34 29 53 40c5 3 12 6 16 6c14 0 29 -9 34 -23zM45 566c15 5 129 13 169 10c37 -2 46 -25 46 -49
s-10 -52 -10 -52l-157 -403h133c17 -5 19 -28 19 -36c0 -11 -12 -21 -21 -26c0 0 -72 -4 -128 -4h-11l-38 1c-35 6 -41 29 -41 44c0 3 79 200 90 225c12 25 76 195 88 236l-114 -1c-25 0 -31 17 -31 32c0 7 1 14 6 23z" />
    <glyph glyph-name="zdotaccent" unicode="&#x17c;" horiz-adv-x="271" 
d="M116 721c11 4 23 9 35 9c31 0 35 -19 35 -46c0 -26 -16 -42 -43 -42c-25 0 -42 27 -42 50c0 10 4 22 15 29zM45 566c15 5 129 13 169 10c37 -2 46 -25 46 -49s-10 -52 -10 -52l-157 -403h133c17 -5 19 -28 19 -36c0 -11 -12 -21 -21 -26c0 0 -72 -4 -128 -4h-11l-38 1
c-35 6 -41 29 -41 44c0 3 79 200 90 225c12 25 76 195 88 236l-114 -1c-25 0 -31 17 -31 32c0 7 1 14 6 23z" />
    <glyph glyph-name="ordfeminine" unicode="&#xaa;" horiz-adv-x="224" 
d="M165 355c-12 1 -20 10 -23 24c-15 -15 -32 -23 -52 -23c-53 0 -67 58 -67 98v9c3 56 20 103 95 103c9 0 17 -2 25 -4v14c0 14 1 26 1 40c0 22 -9 29 -19 29c-16 0 -24 -15 -24 -28c0 -20 -8 -25 -28 -25c-19 0 -35 4 -35 31c0 42 43 70 83 70c48 0 82 -32 82 -76
c0 -16 0 -31 -1 -51c-1 -31 -2 -81 -2 -152c0 -46 -3 -59 -23 -59h-12zM104 412c13 0 29 20 39 33v64c-8 5 -16 6 -21 6c-34 0 -41 -32 -41 -59c0 -22 1 -44 23 -44z" />
    <glyph glyph-name="ordmasculine" unicode="&#xba;" horiz-adv-x="226" 
d="M31 526c0 71 1 167 97 167c88 0 90 -87 90 -184c0 -69 -11 -150 -94 -150c-87 0 -93 75 -93 167zM92 512c0 -42 3 -106 33 -106c22 0 33 46 33 115c0 59 -2 124 -31 124c-32 0 -35 -72 -35 -133z" />
    <glyph glyph-name="uni0410" unicode="&#x410;" horiz-adv-x="345" 
d="M333 58c1 -4 2 -9 2 -13c0 -26 -22 -41 -53 -42c-15 0 -22 16 -23 26l-29 221l-102 -1l-2 -10c-2 -16 -6 -33 -8 -50c-8 -56 -20 -141 -30 -165c-7 -5 -42 -19 -53 -19s-21 7 -21 28c0 5 0 11 3 22l23 134c24 135 47 275 76 412l3 13c9 39 20 87 77 87
c47 0 56 -58 61 -97c16 -125 34 -242 52 -370zM161 442l-22 -131c24 0 58 1 83 1l-36 277c-8 -34 -15 -88 -25 -147z" />
    <glyph glyph-name="uni0411" unicode="&#x411;" horiz-adv-x="334" 
d="M38 670c3 12 13 27 37 27c42 0 156 0 165 -6c8 -5 19 -16 19 -27c0 -6 -11 -37 -21 -37c-4 0 -18 0 -37 -1l-87 -3v-39c-1 -28 -2 -55 -2 -80l-2 -94c32 1 64 1 69 1c52 0 86 -23 107 -49c29 -32 32 -89 32 -121c0 -141 -8 -238 -131 -239h-124c-28 0 -31 31 -31 45z
M161 349c-2 0 -27 0 -52 -1v-279c3 -1 6 -1 10 -1h55c50 0 70 50 70 104c0 12 1 24 1 34v16c0 78 -9 127 -84 127z" />
    <glyph glyph-name="uni0412" unicode="&#x412;" horiz-adv-x="334" 
d="M285 544c0 -75 -16 -122 -38 -152c16 -8 28 -19 39 -31c28 -32 32 -88 32 -120c0 -141 -8 -238 -131 -239h-121c-4 0 -10 1 -14 3c-16 9 -23 28 -23 42l6 581c13 69 84 73 132 73c103 0 118 -72 118 -157zM152 637c-14 0 -35 -3 -37 -9c-2 -72 -3 -145 -4 -220h49
c44 3 49 74 49 125v31c0 46 -12 73 -57 73zM110 348c-1 -76 -1 -153 -1 -234v-46h65c50 0 70 50 70 104c0 12 1 24 1 34v16c0 78 -9 126 -84 126h-51z" />
    <glyph glyph-name="uni0413" unicode="&#x413;" horiz-adv-x="254" 
d="M110 621c4 -99 4 -517 4 -527c0 -32 -4 -68 -21 -81c-4 -3 -12 -9 -26 -9c-12 0 -24 7 -35 23c3 51 4 205 4 345c0 114 -1 220 -3 256v10c1 15 2 36 11 46c21 15 56 16 105 16h14c23 0 56 2 73 -8c15 -9 17 -20 17 -35c0 -12 -5 -27 -8 -28c-20 -5 -33 -5 -58 -5z" />
    <glyph glyph-name="uni0414" unicode="&#x414;" horiz-adv-x="465" 
d="M340 683c20 -8 26 -19 26 -58c0 -136 -1 -290 -2 -399c0 -41 -1 -115 -1 -132v-23h4c27 0 59 0 70 -9c9 -9 12 -31 12 -56c0 -24 -3 -54 -3 -54c-2 -15 -23 -19 -32 -19c-17 0 -31 6 -31 19l-2 54h-297c0 -19 -2 -35 -2 -54c0 -13 -15 -19 -30 -19c-10 0 -31 3 -34 20
c0 1 -3 34 -3 53c0 26 3 49 13 56c11 9 43 9 70 9h7c25 142 47 416 47 557v11c0 27 15 49 47 49c39 0 131 0 141 -5zM227 617c0 -214 -28 -429 -46 -546h109v8c1 72 3 504 3 539h-12c-14 0 -24 -1 -54 -1z" />
    <glyph glyph-name="uni0415" unicode="&#x415;" horiz-adv-x="267" 
d="M107 621c-2 -1 -2 -70 -2 -76c0 -60 -1 -88 -1 -107v-22c0 -18 0 -30 1 -33c5 -1 22 -1 37 -1h48c43 0 45 -9 45 -37c0 -25 -18 -35 -35 -35h-61c-21 0 -29 -2 -29 -14v-47c0 -41 0 -87 -1 -125l-1 -60c0 -2 1 -2 2 -2h13c22 0 25 0 30 1c18 1 35 3 46 3
c20 0 39 -3 44 -13c3 -6 4 -14 4 -21c0 -17 -15 -27 -29 -28c-32 -3 -88 -7 -130 -7c-44 0 -57 10 -57 49v53c3 86 3 240 3 349c0 67 0 119 1 127c0 6 1 13 1 20c1 27 3 64 17 87c8 10 37 14 67 14c11 0 21 -1 32 -1h31c48 0 66 -1 66 -35c0 -28 -7 -38 -65 -38h-9z" />
    <glyph glyph-name="uni0401" unicode="&#x401;" horiz-adv-x="267" 
d="M70 837c11 5 23 7 35 7c22 0 34 -16 34 -44c0 -27 -16 -39 -43 -39c-24 0 -42 24 -42 47c0 10 5 22 16 29zM166 837c12 5 24 7 36 7c24 0 34 -16 34 -44c0 -27 -16 -39 -43 -39c-25 0 -42 24 -42 47c0 10 5 22 15 29zM107 621c-2 -1 -2 -70 -2 -76c0 -60 -1 -88 -1 -107
v-22c0 -18 0 -30 1 -33c5 -1 22 -1 37 -1h48c43 0 45 -9 45 -37c0 -25 -18 -35 -35 -35h-61c-21 0 -29 -2 -29 -14v-47c0 -41 0 -87 -1 -125l-1 -60c0 -2 1 -2 2 -2h13c22 0 25 0 30 1c18 1 35 3 46 3c20 0 39 -3 44 -13c3 -6 4 -14 4 -21c0 -17 -15 -27 -29 -28
c-32 -3 -88 -7 -130 -7c-44 0 -57 10 -57 49v53c3 86 3 240 3 349c0 67 0 119 1 127c0 6 1 13 1 20c1 27 3 64 17 87c8 10 37 14 67 14c11 0 21 -1 32 -1h31c48 0 66 -1 66 -35c0 -28 -7 -38 -65 -38h-9z" />
    <glyph glyph-name="uni0416" unicode="&#x416;" horiz-adv-x="490" 
d="M274 692c5 -33 3 -75 3 -120c0 -23 -1 -48 -1 -71c-1 -26 -1 -49 -1 -87c30 84 63 166 84 232c6 17 19 51 53 51c15 -2 30 -6 30 -21c0 -12 -11 -39 -14 -46c-7 -17 -23 -64 -44 -117c-27 -67 -54 -139 -72 -175c9 -21 16 -39 26 -55c33 -58 51 -95 71 -137
c11 -21 22 -48 36 -78c3 -6 14 -29 14 -46c0 -24 -28 -28 -48 -28c-22 0 -30 21 -41 46l-23 52c-23 55 -52 115 -78 163v-25c0 -40 1 -85 2 -124c1 -27 2 -56 2 -72c0 -44 -17 -46 -39 -46c-8 0 -15 2 -22 4c-2 0 -4 1 -5 1c-8 2 -10 18 -10 35c1 26 2 70 2 118
c0 46 0 67 1 110c-22 -50 -49 -118 -68 -164c-7 -16 -17 -36 -23 -52c-10 -25 -19 -46 -41 -46c-16 0 -48 2 -48 27c0 17 10 41 13 47c15 29 26 52 36 74c20 43 40 83 73 141c9 16 16 34 25 55c-18 37 -46 111 -71 175c-21 51 -41 100 -49 117c-4 8 -11 35 -11 46
c0 12 11 22 33 22c6 0 14 -1 22 -3c9 -4 23 -32 29 -49c25 -76 57 -151 83 -229v44c0 75 -2 136 -2 166c1 34 2 55 7 62c12 12 25 16 36 16c8 0 16 -2 30 -13z" />
    <glyph glyph-name="uni0417" unicode="&#x417;" horiz-adv-x="298" 
d="M96 571c-6 -15 -25 -25 -38 -25s-21 5 -33 14v50c0 51 50 91 113 91c102 0 121 -72 121 -157c0 -78 -16 -123 -39 -152c16 -7 29 -16 40 -28c28 -32 32 -92 32 -123c0 -141 -9 -242 -132 -242h-24c-55 0 -115 34 -115 95v46c13 16 21 23 34 23c11 0 25 -6 38 -17l2 -46
c0 -29 30 -40 56 -40c49 0 67 54 67 109c0 12 1 25 1 53c0 78 -9 126 -84 126h-20c-7 0 -17 0 -27 6c-11 6 -13 16 -13 25s3 19 12 29l47 1c44 1 48 70 48 121v31c0 46 -4 77 -43 77s-40 -28 -43 -67z" />
    <glyph glyph-name="uni0418" unicode="&#x418;" horiz-adv-x="382" 
d="M338 651c3 -24 1 -156 1 -291v-181c0 -99 -1 -174 -25 -174c-23 0 -35 4 -55 23c0 0 5 144 5 271c0 21 0 106 3 140c-43 -137 -88 -273 -131 -411c-6 -12 -19 -18 -35 -18c-29 0 -68 21 -70 42c-2 15 -3 53 -3 104c0 101 3 241 4 350c1 57 1 128 2 146c2 14 5 30 24 37
c7 2 13 4 19 4c28 0 34 -29 34 -47v-83c0 -35 -1 -81 -2 -131c-1 -53 -3 -121 -3 -171c0 -17 -1 -44 -3 -72l-4 -48c43 125 95 303 136 440l15 57c6 20 10 38 30 50c35 0 56 -16 58 -37z" />
    <glyph glyph-name="uni0419" unicode="&#x419;" horiz-adv-x="380" 
d="M294 750c0 -1 0 -3 -1 -4c0 0 -22 -67 -98 -67c-66 0 -101 34 -101 73c0 17 10 23 26 23c15 0 24 -7 32 -15c0 0 20 -19 41 -19c19 0 37 9 48 24c6 8 14 8 20 8c15 0 27 -7 33 -23zM340 659c3 -24 1 -156 1 -291v-181c0 -99 -1 -174 -25 -174c-23 0 -35 4 -55 23
c0 0 5 144 5 271c0 21 0 106 3 140c-43 -137 -88 -273 -131 -411c-6 -12 -19 -18 -35 -18c-29 0 -68 21 -70 42c-2 15 -3 53 -3 104c0 101 3 241 4 350c1 57 1 128 2 146c2 14 5 30 24 37c7 2 13 4 19 4c28 0 34 -29 34 -47v-83c0 -35 -1 -81 -2 -131
c-1 -53 -3 -121 -3 -171c0 -17 -1 -44 -3 -72l-4 -48c43 125 95 303 136 440l15 57c6 20 10 38 30 50c35 0 56 -16 58 -37z" />
    <glyph glyph-name="uni041A" unicode="&#x41a;" horiz-adv-x="304" 
d="M78 704c14 0 24 -6 33 -12c3 -24 4 -54 4 -86c0 -35 -1 -72 -2 -108c-1 -28 -2 -77 -2 -102l17 51c28 77 49 140 68 199c6 17 21 54 53 51c15 -2 30 -6 30 -21c0 -12 -7 -39 -10 -46c-7 -17 -27 -64 -48 -117c-27 -67 -54 -139 -72 -175c8 -19 15 -33 24 -47
c35 -63 52 -99 69 -137c13 -27 53 -113 53 -140c0 -17 -27 -20 -46 -20c-23 0 -31 20 -42 46c-46 110 -79 173 -103 223c-3 -64 -3 -184 -3 -223c0 -44 -15 -46 -38 -46c-25 0 -37 13 -37 40c5 135 11 500 11 587c0 25 0 60 8 68c11 11 21 15 33 15z" />
    <glyph glyph-name="uni041B" unicode="&#x41b;" horiz-adv-x="345" 
d="M187 593c-8 -34 -16 -92 -26 -151c-10 -57 -20 -127 -35 -203c-2 -16 -6 -33 -8 -50c-8 -56 -20 -141 -30 -165c-9 -10 -42 -19 -53 -19s-21 7 -21 28c0 5 0 11 3 22l23 134c24 135 47 275 76 412l3 13c9 39 20 87 77 87c47 0 56 -58 61 -97c16 -125 34 -242 52 -370
l24 -176c1 -5 1 -10 1 -14c0 -30 -19 -40 -52 -41c-15 0 -22 16 -23 26z" />
    <glyph glyph-name="uni041C" unicode="&#x41c;" horiz-adv-x="539" 
d="M422 683c14 8 29 11 43 11c25 0 35 -19 35 -49l2 -114c3 -145 5 -307 5 -456c0 -40 0 -76 -58 -76c-13 0 -23 6 -25 23c0 276 1 434 2 505c-12 -54 -21 -116 -31 -155c-17 -69 -35 -142 -60 -264c-12 -30 -39 -37 -65 -37c-24 0 -37 18 -44 38c-30 95 -83 296 -113 411
c0 -63 1 -151 2 -218c1 -94 1 -189 1 -270c-3 -24 -28 -29 -46 -29c-29 0 -33 30 -33 50c0 18 -2 203 -2 370c0 98 -1 192 -1 239c11 26 35 34 57 34c19 0 34 -7 44 -13c96 -351 142 -517 142 -517c20 93 90 411 103 451c10 33 17 52 42 66z" />
    <glyph glyph-name="uni041D" unicode="&#x41d;" horiz-adv-x="322" 
d="M111 669c-2 -147 -3 -252 -3 -328c14 1 31 1 49 1c23 0 48 -1 68 -3l5 337c0 12 15 26 35 26c12 0 24 -5 40 -21c1 -37 1 -83 1 -128c0 -215 -5 -497 -6 -532c-14 -11 -33 -16 -49 -16c-13 0 -28 4 -28 16v124c0 45 1 91 1 128l-116 -1v-152c0 -50 0 -108 -29 -115h-15
c-21 0 -33 10 -33 34c0 64 1 121 1 172v110c0 133 -1 212 -1 261c0 57 1 74 2 87c2 23 22 25 39 25c16 0 39 -11 39 -25z" />
    <glyph glyph-name="uni041E" unicode="&#x41e;" horiz-adv-x="340" 
d="M317 530c0 -27 1 -55 2 -80c1 -21 1 -51 1 -70c0 -224 -30 -382 -139 -382c-61 0 -114 19 -137 132c-12 55 -18 134 -18 204v129c0 85 27 245 163 245c76 0 125 -96 128 -178zM175 62c50 0 65 159 65 303c0 76 19 274 -63 274c-38 0 -72 -46 -72 -290
c0 -83 6 -287 70 -287z" />
    <glyph glyph-name="uni041F" unicode="&#x41f;" horiz-adv-x="345" 
d="M284 694c21 -10 27 -19 27 -58c0 -136 -1 -296 -2 -410c0 -41 -1 -118 -1 -135v-63c0 -4 -9 -29 -41 -29c-37 0 -38 16 -38 38v18c0 7 1 14 1 21l2 549c-40 -1 -82 -1 -120 -1c0 -134 -1 -288 -2 -399c0 -41 -1 -118 -1 -134v-63c0 -4 -12 -29 -44 -29
c-37 0 -37 15 -37 36v19c0 7 1 14 1 22c1 74 3 542 3 562v12c0 27 17 49 49 49c38 0 193 0 203 -5z" />
    <glyph glyph-name="uni0420" unicode="&#x420;" horiz-adv-x="326" 
d="M34 628c15 69 86 75 133 75c52 0 97 -12 125 -56c17 -27 18 -77 18 -108c0 -72 -7 -162 -17 -192c-22 -65 -64 -92 -118 -92c-22 0 -62 0 -63 -1s-2 -55 -3 -108v-33c-1 -38 1 -68 1 -68c0 -5 -12 -46 -46 -46c-24 0 -35 4 -35 23zM152 638c-14 0 -35 -4 -37 -10
c-2 -89 -3 -155 -3 -217c0 -33 0 -57 1 -89h49c50 0 70 49 70 103c0 11 1 44 1 70v36c0 68 -15 107 -81 107z" />
    <glyph glyph-name="uni0421" unicode="&#x421;" horiz-adv-x="340" 
d="M313 515c-8 -11 -25 -17 -42 -17c-3 0 -22 3 -27 8c-10 33 -2 128 -68 128c-44 0 -67 -79 -67 -130c0 -11 0 -27 -1 -44c-1 -28 -2 -69 -2 -108c0 -46 3 -101 3 -101c0 -46 0 -186 72 -186c35 0 71 35 71 89c0 12 1 26 0 40c3 18 22 26 36 26c33 0 36 -22 36 -47
c0 -29 -1 -57 -9 -78c-26 -62 -75 -97 -136 -97c-96 0 -136 70 -144 157c-6 68 -8 185 -8 244c0 49 2 117 15 176c22 99 78 124 141 124c65 0 99 -40 117 -91c12 -35 14 -51 14 -89z" />
    <glyph glyph-name="uni0422" unicode="&#x422;" horiz-adv-x="286" 
d="M-2 668c4 14 14 26 27 31c38 0 234 0 244 -5c7 -4 20 -20 20 -30c0 -18 -13 -37 -22 -37c-4 0 -16 -1 -35 -1c-14 -1 -31 -1 -49 -1c0 -134 -1 -288 -2 -399c0 -41 -1 -118 -1 -135v-63c0 -4 -12 -29 -45 -29c-36 0 -40 16 -40 38v18c0 7 1 14 1 21c1 70 3 488 3 548h-37
c-20 0 -39 0 -45 1c-15 4 -19 24 -19 43z" />
    <glyph glyph-name="uni0423" unicode="&#x423;" horiz-adv-x="321" 
d="M237 686c10 10 21 11 28 11c11 0 23 -7 28 -27c2 -14 2 -28 2 -43c0 -14 -10 -456 -17 -496c-10 -56 -36 -132 -137 -132c-22 0 -112 7 -112 138c0 35 19 45 43 45c17 0 38 -3 38 -76c0 -30 13 -42 41 -42c42 0 56 43 56 83l4 112c-19 -7 -43 -12 -69 -12
c-18 0 -32 6 -53 15c-68 30 -68 181 -68 272c0 18 1 33 1 50c1 19 1 39 1 69c0 11 23 42 47 42c19 0 25 -16 25 -35c0 -96 1 -195 12 -293c3 -13 18 -52 56 -52c12 0 28 6 51 20l7 292c0 18 2 45 16 59z" />
    <glyph glyph-name="uni0424" unicode="&#x424;" horiz-adv-x="453" 
d="M271 656c5 1 9 1 13 1c61 0 118 -24 139 -123c13 -60 14 -140 14 -193c0 -46 -2 -93 -8 -137c-11 -89 -50 -157 -141 -157c-7 0 -14 0 -22 1v-30c-1 -7 -13 -37 -47 -37c-24 0 -30 12 -30 30v37c-6 -1 -11 -1 -17 -1c-90 0 -130 68 -142 157c-7 49 -9 95 -9 137
c0 50 3 131 16 193c21 99 77 123 139 123c3 0 8 0 13 -1v29c6 19 25 38 47 38c13 0 24 -4 36 -23zM189 112v478c-7 2 -13 2 -20 2c-52 0 -68 -78 -68 -129c0 -6 0 -20 -1 -31c-1 -26 -3 -65 -2 -103v-32c0 -61 6 -184 76 -184zM291 592c-7 0 -13 0 -20 -3l-4 -476
c4 -1 8 0 19 0c68 0 74 123 74 184v32c1 41 0 78 -1 104c-1 12 -2 23 -2 30c0 51 -15 129 -66 129z" />
    <glyph glyph-name="uni0425" unicode="&#x425;" horiz-adv-x="367" 
d="M4 25c0 0 69 165 143 336c-45 114 -86 226 -105 280c-3 8 -5 16 -5 22c0 21 16 33 35 33c20 0 36 -18 42 -38c15 -42 43 -114 76 -197c41 93 79 177 102 223c2 5 15 16 25 16c18 0 40 -18 40 -38c0 -4 -1 -7 -3 -11c-14 -28 -62 -137 -125 -287
c49 -123 101 -252 134 -331c0 0 -8 -35 -38 -35c-7 0 -21 3 -27 10c-17 21 -63 131 -113 255l-95 -225c-11 -23 -26 -43 -48 -43c-13 0 -29 11 -37 23z" />
    <glyph glyph-name="uni0427" unicode="&#x427;" horiz-adv-x="327" 
d="M29 673c14 16 25 21 38 21c12 0 19 0 31 -12c5 -5 5 -41 5 -87v-87c0 -122 12 -183 63 -183h53c0 16 1 32 1 49c1 51 2 105 2 181v98c0 37 16 40 30 40c23 0 47 -13 47 -59l-5 -612c0 -19 -7 -23 -30 -23c-36 0 -44 33 -44 38v76l-1 142c-9 1 -43 0 -63 0
c-53 0 -94 27 -115 92c-9 30 -15 109 -15 176c0 19 1 124 3 150z" />
    <glyph glyph-name="uni0426" unicode="&#x426;" horiz-adv-x="394" 
d="M225 2c-59 0 -161 1 -168 4c-22 10 -28 17 -28 56c0 135 2 295 2 409c0 63 1 112 1 135v63c0 4 9 30 42 30c36 0 37 -17 37 -39v-18c0 -6 -1 -14 -1 -21c-1 -72 -3 -513 -3 -548h18c19 0 39 -1 58 -1h44c0 133 2 289 2 400c0 62 1 112 1 134v63c0 4 14 30 46 30
c35 0 35 -16 35 -37v-20c0 -6 -1 -13 -1 -21c-1 -71 -3 -501 -3 -553c25 0 54 -1 64 -9c8 -9 11 -31 11 -56c0 -24 -3 -54 -3 -54c-2 -15 -23 -19 -32 -19c-17 0 -31 7 -31 19l-1 52z" />
    <glyph glyph-name="uni0428" unicode="&#x428;" horiz-adv-x="451" 
d="M56 7c-21 9 -27 16 -27 55c0 135 2 295 2 409c0 63 1 112 1 135v63c0 4 1 30 36 30s41 -17 41 -39v-18c0 -6 -1 -14 -1 -21c-1 -72 -3 -513 -3 -548c21 0 50 0 80 -1c0 129 2 281 2 390c0 65 1 116 1 138v63c0 4 5 30 39 30c29 0 37 -16 37 -32c0 -11 -1 -20 -1 -27v-19
c-1 -60 -3 -405 -3 -543h73c0 133 2 289 2 400c0 62 1 112 1 134v63c0 4 10 30 43 30c32 0 33 -16 33 -37v-20c0 -6 -1 -13 -1 -21c-1 -74 -3 -544 -3 -564v-12c0 -26 -13 -43 -45 -43h-16c-52 0 -282 0 -291 5z" />
    <glyph glyph-name="uni0429" unicode="&#x429;" horiz-adv-x="494" 
d="M330 2c-68 0 -265 1 -272 4c-23 10 -29 17 -29 56c0 135 2 295 2 409c0 63 1 112 1 135v63c0 4 1 30 37 30c35 0 41 -17 41 -39v-18c0 -6 -1 -14 -1 -21c-1 -72 -3 -513 -3 -548c20 0 49 0 80 -1c0 129 2 281 2 390c0 65 1 116 1 138v63c0 4 4 30 39 30
c28 0 37 -16 37 -32c0 -11 -1 -20 -1 -27v-19c-1 -60 -3 -405 -3 -543h72c0 133 2 289 2 400c0 62 1 112 1 134v63c0 4 11 30 44 30c31 0 32 -16 32 -37v-20c0 -6 -1 -13 -1 -21c-1 -71 -3 -501 -3 -553c27 0 57 -1 68 -9c8 -9 11 -31 11 -56c0 -24 -3 -54 -3 -54
c-2 -15 -23 -19 -32 -19c-16 0 -31 7 -31 19l-1 52z" />
    <glyph glyph-name="uni042C" unicode="&#x42c;" horiz-adv-x="334" 
d="M38 669c3 18 27 28 37 28c15 0 36 -18 40 -32c-1 -8 -1 -77 -1 -81c-1 -28 -2 -55 -2 -80l-2 -94c32 1 64 1 69 1c52 0 86 -23 107 -49c29 -32 32 -89 32 -121c0 -141 -8 -239 -131 -239h-115c-4 0 -14 0 -18 2c-17 7 -22 29 -22 43zM109 69c3 -1 6 -1 65 -1
c50 0 70 50 70 104c0 12 1 24 1 34v16c0 78 -9 127 -84 127c-2 0 -27 0 -52 -1v-279z" />
    <glyph glyph-name="uni042A" unicode="&#x42a;" horiz-adv-x="384" 
d="M86 623l-45 3c-11 1 -20 1 -24 1c-8 0 -21 14 -21 34c0 13 9 24 18 30s71 6 107 6c18 0 39 -18 43 -32c-1 -8 -1 -77 -1 -81c-1 -28 -2 -55 -2 -80l-2 -94c32 1 64 1 69 1c51 0 85 -23 107 -49c27 -33 32 -89 32 -121c0 -141 -8 -238 -131 -239h-117c-6 0 -12 0 -16 2
c-17 7 -22 29 -22 43zM157 69c4 -1 7 -1 11 -1h55c50 0 70 50 70 104c0 12 1 24 1 34v16c0 78 -9 127 -84 127c-2 0 -27 0 -52 -1c-1 -71 -1 -144 -1 -234v-45z" />
    <glyph glyph-name="uni042B" unicode="&#x42b;" horiz-adv-x="468" 
d="M38 669c3 18 27 28 37 28c15 0 36 -18 40 -32c-1 -8 -1 -77 -1 -81c-1 -28 -2 -55 -2 -80l-2 -94c32 1 64 1 69 1c52 0 86 -23 107 -49c29 -32 32 -89 32 -121c0 -141 -8 -239 -131 -239h-115c-4 0 -14 0 -18 2c-17 7 -22 29 -22 43zM356 669c3 18 27 28 37 28
c15 0 36 -18 40 -32c-1 -8 -1 -77 -1 -81c-1 -28 -2 -55 -2 -80c-2 -126 -3 -234 -3 -390v-68c0 -5 -11 -44 -45 -44c-25 0 -32 29 -32 45zM109 69c3 -1 6 -1 65 -1c50 0 70 50 70 104c0 12 1 24 1 34v16c0 78 -9 127 -84 127c-2 0 -27 0 -52 -1v-279z" />
    <glyph glyph-name="uni042D" unicode="&#x42d;" horiz-adv-x="338" 
d="M32 515c1 46 1 58 13 93c18 51 52 91 117 91c64 0 124 -21 141 -123c10 -62 12 -121 12 -177c0 -64 0 -175 -5 -236c-7 -87 -48 -165 -144 -165c-61 0 -111 35 -136 97c-9 24 -10 51 -10 78c0 25 3 47 37 47c14 0 33 -8 36 -26c-1 -14 -1 -28 -1 -40c0 -54 43 -89 78 -89
c61 0 70 114 70 201c0 18 0 35 -1 49h-115c-19 0 -28 18 -28 35c0 16 14 37 32 37h110c-1 52 -1 93 -2 117c-2 67 -23 130 -67 130c-53 0 -59 -61 -64 -99c0 -10 -1 -21 -4 -29c-5 -5 -24 -8 -27 -8c-17 0 -34 6 -42 17z" />
    <glyph glyph-name="uni042E" unicode="&#x42e;" horiz-adv-x="485" 
d="M461 530c0 -27 1 -55 2 -80c1 -21 1 -51 1 -70c0 -224 -30 -382 -140 -382c-60 0 -113 19 -137 132c-8 40 -14 92 -17 143l-61 -1v-152c0 -50 0 -108 -29 -115h-16c-20 0 -32 10 -32 34c0 64 1 121 1 172v110c0 133 -1 212 -1 261c0 57 1 74 2 87c2 23 22 25 39 25
c16 0 39 -11 39 -25c-2 -147 -3 -252 -3 -328c14 1 31 1 49 1h11c0 22 1 45 1 66v55c0 85 26 245 162 245c76 0 125 -96 129 -178zM318 62c50 0 66 159 66 303c0 74 -2 163 -8 201c-4 27 -26 73 -56 73c-38 0 -72 -46 -72 -290c0 -83 7 -287 70 -287z" />
    <glyph glyph-name="uni042F" unicode="&#x42f;" horiz-adv-x="338" 
d="M299 22c-1 -16 -10 -23 -32 -23c-35 0 -46 41 -46 46c0 0 1 30 1 68c0 14 1 30 1 44c1 16 1 30 1 45v54h-8c-7 0 -16 -1 -24 -1c-55 -40 -93 -166 -107 -234c-3 -10 -25 -25 -42 -25c-13 0 -28 4 -41 15c18 126 72 214 103 257c-26 14 -46 45 -59 79
c-11 32 -14 122 -14 192c0 30 7 74 25 101c29 44 70 63 122 63c47 0 109 -8 128 -66zM228 629c-5 4 -21 9 -36 9c-66 0 -83 -39 -85 -107c0 -9 0 -87 -1 -106c3 -52 22 -106 70 -106h49c4 89 3 175 3 310z" />
    <glyph glyph-name="uni0430" unicode="&#x430;" horiz-adv-x="298" 
d="M278 49c1 -4 1 -7 1 -11c0 -26 -18 -34 -46 -35c-16 0 -21 11 -21 21l-22 170c-25 0 -56 -1 -80 -1l-5 -34c-7 -47 -17 -119 -25 -138c-6 -5 -38 -16 -47 -16c-10 0 -19 6 -19 24c0 4 1 13 3 19l15 88c21 117 41 238 67 363c7 37 15 78 66 78c39 0 46 -47 51 -80
c20 -145 43 -304 62 -448zM141 380l-21 -129c19 0 42 1 63 1l-26 219z" />
    <glyph glyph-name="uni0431" unicode="&#x431;" horiz-adv-x="283" 
d="M37 555c3 12 12 24 32 24c36 0 130 0 138 -5c6 -4 15 -14 15 -24c0 -5 -8 -34 -16 -34c-3 0 -12 -1 -23 -1c-21 -1 -52 -2 -78 -2v-28l-3 -143h53c42 0 72 -19 89 -40c23 -28 27 -76 27 -101c0 -118 -5 -198 -110 -199h-103c-21 0 -25 27 -25 39zM101 285
c-1 -57 -1 -117 -1 -189v-34h51c39 0 55 38 55 81c0 10 1 20 1 29v13c0 64 -13 100 -66 100h-40z" />
    <glyph glyph-name="uni0432" unicode="&#x432;" horiz-adv-x="284" 
d="M242 447c0 -60 -12 -99 -30 -124c12 -7 22 -16 30 -25c24 -27 27 -73 27 -99c0 -117 -7 -197 -109 -197h-92c-4 0 -12 0 -17 2c-15 5 -21 25 -21 36l3 478c12 57 72 59 111 59c85 0 98 -60 98 -130zM132 521c-12 0 -24 -4 -26 -8c-2 -57 -3 -115 -4 -174h35
c33 4 37 53 37 93v27c0 37 -7 62 -42 62zM102 282c-1 -60 -1 -120 -1 -186v-33h49c38 0 52 37 52 79c0 10 1 20 1 28v13c0 52 -4 99 -64 99h-37z" />
    <glyph glyph-name="uni0433" unicode="&#x433;" horiz-adv-x="217" 
d="M105 507c2 -81 2 -419 2 -421v-8c0 -27 0 -60 -17 -67c-4 -2 -14 -7 -28 -7c-11 0 -21 6 -30 19c3 44 3 175 3 291c0 90 -1 173 -2 202c0 13 0 36 9 48c18 12 47 13 88 13h9c20 0 47 2 68 -9c7 -5 9 -15 9 -27c0 -10 -6 -27 -8 -29c-18 -4 -28 -4 -47 -4z" />
    <glyph glyph-name="uni0434" unicode="&#x434;" horiz-adv-x="396" 
d="M282 574c19 -8 24 -17 24 -51c0 -116 -1 -244 -2 -335l-1 -110v-18c26 0 52 -1 63 -9c9 -6 10 -26 10 -47s-2 -47 -2 -47c-1 -14 -21 -17 -28 -17c-15 0 -28 5 -28 17l-2 43h-250c0 -15 -2 -27 -2 -43c0 -12 -13 -17 -27 -17c-9 0 -27 2 -28 17c0 0 -4 30 -4 47
c0 21 3 41 12 47c8 9 36 9 60 9h5c20 120 39 346 39 465v11c0 23 14 42 42 42c32 0 110 0 119 -4zM190 515c0 -180 -23 -356 -40 -455h86v6c1 62 3 420 3 450h-8c-10 0 -16 -1 -41 -1z" />
    <glyph glyph-name="uni0435" unicode="&#x435;" horiz-adv-x="232" 
d="M100 510c-1 0 -1 -54 -1 -58c0 -51 -1 -73 -1 -86v-17c0 -14 0 -26 -1 -26c4 -2 35 -1 53 -1h13c36 0 37 -13 37 -36c0 -21 -14 -30 -30 -30h-50c-15 0 -17 -2 -17 -10c0 -21 1 -45 1 -70s-1 -50 -1 -72c0 -18 -1 -33 -1 -43h30c14 1 29 3 37 3c18 0 34 -4 38 -13
c3 -6 3 -18 3 -24c0 -14 -13 -23 -24 -24c-27 -3 -74 -6 -109 -6c-37 0 -48 9 -48 42v47c3 79 3 219 3 310l1 97c1 22 4 53 15 74c8 11 59 10 83 10h26c40 0 55 -1 55 -30c0 -25 -6 -34 -54 -34h-8z" />
    <glyph glyph-name="uni0451" unicode="&#x451;" horiz-adv-x="232" 
d="M45 721c11 5 23 7 35 7c22 0 34 -16 34 -44c0 -27 -16 -39 -43 -39c-24 0 -42 24 -42 47c0 10 5 22 16 29zM141 721c12 5 24 7 36 7c24 0 34 -16 34 -44c0 -27 -16 -39 -43 -39c-25 0 -42 24 -42 47c0 10 5 22 15 29zM100 510c-1 0 -1 -54 -1 -58c0 -51 -1 -73 -1 -86
v-17c0 -14 0 -26 -1 -26c4 -2 35 -1 53 -1h13c36 0 37 -13 37 -36c0 -21 -14 -30 -30 -30h-50c-15 0 -17 -2 -17 -10c0 -21 1 -45 1 -70s-1 -50 -1 -72c0 -18 -1 -33 -1 -43h30c14 1 29 3 37 3c18 0 34 -4 38 -13c3 -6 3 -18 3 -24c0 -14 -13 -23 -24 -24
c-27 -3 -74 -6 -109 -6c-37 0 -48 9 -48 42v47c3 79 3 219 3 310l1 97c1 22 4 53 15 74c8 11 59 10 83 10h26c40 0 55 -1 55 -30c0 -25 -6 -34 -54 -34h-8z" />
    <glyph glyph-name="uni0436" unicode="&#x436;" horiz-adv-x="403" 
d="M229 567c3 -26 4 -58 4 -91c0 -20 -1 -39 -1 -58v-65l21 55c18 46 34 86 44 120c6 16 17 39 23 42c4 2 16 3 28 2c9 -1 21 -3 21 -19c0 -9 -5 -32 -10 -39c-7 -16 -22 -54 -37 -92c-23 -54 -45 -116 -59 -146c6 -18 12 -32 20 -44c26 -46 40 -75 56 -108l33 -68
c3 -6 10 -23 10 -37c0 -20 -18 -26 -41 -26c-19 0 -25 18 -34 39l-18 42c-21 48 -42 89 -62 124v-10c0 -32 1 -70 2 -102c1 -21 1 -47 1 -59c0 -37 -14 -39 -33 -39c-9 0 -20 2 -27 5c-4 1 -5 15 -5 29c1 24 1 68 1 113c0 30 1 24 1 53l-11 -23c-14 -30 -31 -63 -41 -91
l-19 -42c-10 -22 -18 -39 -36 -39h-5c-13 0 -29 1 -34 18c-4 16 7 39 9 45c13 25 24 45 32 64c17 34 32 65 58 112c7 12 15 28 21 44c-13 29 -35 84 -54 132c-19 46 -35 88 -45 107c-3 6 -9 29 -9 38c0 19 19 19 33 19c6 0 12 0 17 -2c6 -2 16 -26 22 -41
c11 -33 24 -70 40 -109c9 -25 13 -34 24 -65c1 68 1 130 1 158v5c0 14 -1 38 7 47c6 8 10 12 22 12c3 0 9 -1 24 -3z" />
    <glyph glyph-name="uni0437" unicode="&#x437;" horiz-adv-x="259" 
d="M87 471c-4 -19 -22 -23 -34 -23s-25 4 -29 8v46c0 42 42 76 94 76c85 0 103 -60 103 -130c0 -62 -13 -101 -31 -124c11 -6 24 -15 32 -23c22 -26 27 -75 27 -102c0 -117 -8 -200 -110 -200h-22c-46 0 -95 29 -95 79v38c10 15 17 20 29 20c9 0 23 -5 33 -15l2 -39
c0 -21 27 -29 44 -29c37 0 50 44 50 87v43c0 64 -4 102 -64 102h-15c-6 0 -13 0 -22 4c-11 5 -13 16 -13 23s2 18 10 28l41 1c33 1 34 50 34 87v34c0 37 -6 60 -32 60s-30 -20 -32 -51z" />
    <glyph glyph-name="uni0438" unicode="&#x438;" horiz-adv-x="330" 
d="M290 143c0 -78 -2 -138 -22 -138c-18 0 -30 4 -49 20c0 0 2 122 2 227c0 8 1 86 2 94l-102 -321c-4 -10 -17 -16 -31 -16c-25 0 -56 18 -59 35c-2 10 -4 42 -4 88c0 83 3 200 4 291c1 57 1 103 1 124c0 12 10 25 39 32c24 0 28 -24 28 -39v-69c0 -30 -1 -68 -2 -109
c-1 -44 -2 -103 -2 -143c0 -14 0 -34 -1 -80c38 114 84 271 116 383c4 20 12 44 30 54c29 0 47 -15 50 -32v-401z" />
    <glyph glyph-name="uni0439" unicode="&#x439;" horiz-adv-x="330" 
d="M258 690c0 -1 0 -3 -1 -4c0 0 -20 -61 -89 -61c-60 0 -92 31 -92 66c0 16 9 21 24 21c13 0 21 -6 29 -13c0 0 18 -18 37 -18c17 0 34 9 44 22c5 8 13 8 18 8c14 0 25 -7 30 -21zM293 151c0 -78 -2 -138 -22 -138c-18 0 -30 4 -49 20c0 0 2 122 2 227c0 8 1 86 2 94
l-102 -321c-4 -10 -17 -16 -31 -16c-25 0 -56 18 -59 35c-2 10 -4 42 -4 88c0 83 3 200 4 291c1 57 1 103 1 124c0 12 10 25 39 32c24 0 28 -24 28 -39v-69c0 -30 -1 -68 -2 -109c-1 -44 -2 -103 -2 -143c0 -14 0 -34 -1 -80c38 114 84 271 116 383c4 20 12 44 30 54
c29 0 47 -15 50 -32v-401z" />
    <glyph glyph-name="uni043A" unicode="&#x43a;" horiz-adv-x="282" 
d="M105 571c4 -28 5 -55 5 -82c0 -39 -3 -77 -3 -116v-20c26 65 40 105 64 175c5 16 19 45 27 47c12 3 20 5 26 5c21 0 26 -10 27 -24c1 -13 -9 -39 -12 -44c-8 -18 -19 -52 -35 -88c-20 -43 -39 -87 -55 -122c32 -70 59 -118 87 -174l30 -60c3 -6 12 -26 12 -46
c0 -26 -21 -27 -36 -28h-5c-20 0 -31 20 -42 45c-45 89 -59 125 -92 199v-19c0 -63 -5 -135 -5 -174c0 -43 -12 -45 -34 -45c-8 0 -16 3 -24 5c-7 2 -9 17 -9 35c4 133 9 380 9 466v9c0 11 -4 37 3 51c7 15 18 16 33 16c5 0 16 0 21 -4z" />
    <glyph glyph-name="uni043B" unicode="&#x43b;" horiz-adv-x="298" 
d="M157 468l-13 -84c-8 -48 -19 -111 -39 -225c-7 -47 -17 -119 -25 -138c-9 -8 -38 -16 -47 -16c-10 0 -19 6 -19 24c0 4 1 13 3 19l15 88c21 117 41 238 65 357c9 46 23 84 68 84c39 0 46 -47 51 -80c20 -145 43 -304 62 -449c1 -3 1 -6 1 -10c0 -26 -18 -34 -46 -35
c-16 0 -20 10 -21 21z" />
    <glyph glyph-name="uni043C" unicode="&#x43c;" horiz-adv-x="469" 
d="M354 565c13 6 27 10 40 10c21 0 32 -15 32 -41c0 -39 1 -77 2 -115c2 -117 3 -236 3 -356c0 -33 -3 -64 -50 -64c-12 0 -20 7 -22 31c0 209 0 309 1 367l-24 -101c-14 -53 -27 -106 -47 -206c-9 -25 -35 -31 -57 -31c-19 0 -33 15 -39 32c-24 74 -63 203 -89 297
c0 -47 0 -93 1 -142c1 -75 2 -152 2 -219c-3 -20 -24 -25 -39 -25c-24 0 -29 30 -29 42c-1 15 -3 169 -3 306c0 82 -1 160 -1 198c9 23 31 29 50 29s30 -4 38 -8c78 -291 115 -414 115 -414c18 81 73 323 84 357c4 22 14 47 32 53z" />
    <glyph glyph-name="uni043D" unicode="&#x43d;" horiz-adv-x="300" 
d="M107 549c-2 -113 -3 -193 -3 -255c11 1 22 1 37 1c17 0 35 0 49 -2l3 262c0 13 18 23 34 23c11 0 21 -4 35 -17v-106c0 -176 -4 -408 -5 -436c-13 -10 -29 -14 -41 -14c-11 0 -27 4 -27 14v102c0 40 1 81 1 113l-86 -1v-132c0 -42 0 -90 -25 -96h-15c-18 0 -28 10 -28 29
c0 53 1 99 1 141v90c0 109 -1 174 -1 214c0 38 1 50 1 70c0 23 19 23 34 23c14 0 36 -8 36 -23z" />
    <glyph glyph-name="uni043E" unicode="&#x43e;" horiz-adv-x="287" 
d="M264 439c0 -22 0 -44 1 -66c1 -17 1 -41 1 -58c0 -185 -25 -317 -117 -317c-50 0 -95 16 -114 110c-9 47 -15 112 -15 170c0 21 1 41 1 60v46c0 71 23 204 135 204c63 0 105 -80 108 -149zM145 58c40 0 48 126 48 245c0 61 -2 135 -7 166c-3 21 -16 56 -40 56
c-30 0 -55 -35 -55 -236c0 -68 3 -231 54 -231z" />
    <glyph glyph-name="uni043F" unicode="&#x43f;" horiz-adv-x="296" 
d="M242 574c19 -8 23 -17 23 -50c0 -112 0 -243 -1 -336c0 -35 -1 -98 -1 -113v-51c0 -3 -9 -25 -37 -25c-32 0 -33 14 -33 33v14c0 6 1 12 1 18c1 59 3 421 3 451c-33 -1 -65 -1 -97 -1c0 -111 0 -236 -1 -328c0 -34 -1 -96 -1 -111v-51c0 -3 -10 -25 -39 -25
s-32 13 -32 31v15c0 6 1 12 1 19c1 61 2 446 2 462v10c0 22 16 41 43 41c32 0 161 0 169 -3z" />
    <glyph glyph-name="uni0440" unicode="&#x440;" horiz-adv-x="285" 
d="M32 515c11 59 72 64 112 64c43 0 80 -8 104 -46c15 -23 15 -64 15 -90c0 -60 -6 -134 -14 -159c-18 -54 -54 -75 -99 -75c-17 0 -50 0 -49 1c-2 -2 -3 -70 -3 -116c0 -32 1 -56 1 -56c0 -5 -11 -40 -40 -40c-20 0 -31 5 -31 21zM103 512c-2 -71 -3 -122 -3 -169
c0 -27 1 -43 1 -71h39c32 0 52 34 52 77c0 10 1 38 1 59v28c0 56 -10 83 -61 83c-12 0 -28 -3 -29 -7z" />
    <glyph glyph-name="uni0441" unicode="&#x441;" horiz-adv-x="291" 
d="M262 424c-7 -8 -21 -13 -35 -13c-1 0 -27 2 -31 8c-2 8 -3 17 -3 28c-3 29 -7 69 -46 69c-34 0 -48 -58 -48 -99c0 -9 -1 -21 -1 -36c-1 -23 -1 -53 -1 -89v-71c0 -69 6 -154 53 -154c28 0 55 13 55 65c0 10 1 22 0 34c3 16 24 22 36 22c30 0 31 -19 31 -40
c0 -24 0 -47 -7 -66c-23 -50 -62 -78 -114 -78c-80 0 -113 51 -119 124c-5 57 -7 153 -7 203c0 44 0 91 12 145c18 85 65 103 118 103s82 -34 97 -75c10 -27 11 -64 10 -80z" />
    <glyph glyph-name="uni0442" unicode="&#x442;" horiz-adv-x="242" 
d="M-1 552c3 10 11 22 24 27c31 0 192 0 199 -3c7 -4 19 -22 19 -30c0 -6 -12 -31 -19 -31h-26c-11 -1 -27 -1 -42 -1c0 -111 0 -235 -1 -326c0 -34 -1 -97 -1 -112v-52c0 -3 -13 -25 -39 -25c-31 0 -35 14 -35 33v14c0 6 1 12 1 18c1 57 3 392 3 449h-28c-17 0 -33 0 -38 1
c-12 2 -18 15 -18 28c0 3 0 7 1 10z" />
    <glyph glyph-name="uni0443" unicode="&#x443;" horiz-adv-x="278" 
d="M201 571c8 4 23 8 29 8c10 0 21 -5 25 -21c1 -5 2 -14 2 -25v-12s-9 -377 -15 -411c-8 -46 -30 -111 -115 -111c-17 0 -93 6 -93 115c0 30 12 39 37 39c19 0 30 0 35 -63c2 -23 14 -32 31 -32c28 0 38 33 38 65l2 88c-14 -4 -31 -7 -48 -7c-16 0 -33 3 -46 10
c-55 29 -55 154 -55 229v41c1 16 1 31 1 56c0 0 6 26 27 34c3 1 16 3 19 3c16 0 21 -15 21 -30c0 -79 -4 -162 12 -243c2 -11 10 -41 38 -41c8 0 20 3 33 11c3 107 6 235 6 245c0 16 1 34 16 52z" />
    <glyph glyph-name="uni0444" unicode="&#x444;" horiz-adv-x="404" 
d="M237 558h9c53 0 102 -21 121 -105c11 -52 13 -119 13 -165c0 -38 -2 -79 -7 -116c-11 -76 -39 -134 -124 -134c-6 0 -11 0 -15 1v-25c0 -5 -13 -32 -43 -32c-21 0 -27 10 -27 26v30h-14c-84 0 -112 58 -122 134c-6 43 -8 82 -8 116c0 45 1 109 13 165
c19 84 67 105 121 105h10v23c6 17 22 34 41 34c12 0 25 -6 33 -20zM164 96v403c-6 2 -11 2 -16 2c-43 0 -54 -66 -54 -109c0 -5 0 -17 -1 -25c-1 -23 -3 -56 -2 -88v-29c0 -50 4 -154 61 -154h12zM252 501c-5 0 -10 0 -15 -2l-3 -403c3 -1 6 0 14 0c57 0 60 104 60 154v29
c0 32 0 62 -1 85c-1 11 -2 22 -2 28c0 43 -11 109 -53 109z" />
    <glyph glyph-name="uni0445" unicode="&#x445;" horiz-adv-x="303" 
d="M-3 22c0 0 58 139 119 281c-36 92 -67 181 -84 223c-2 5 -6 21 -6 25c8 15 21 24 35 24c17 0 30 -17 35 -33c15 -30 33 -86 58 -150c32 71 61 136 80 174c1 3 13 12 25 12c10 0 33 -13 35 -29c0 -5 -2 -10 -3 -13c-13 -25 -51 -113 -102 -232c41 -103 85 -211 113 -277
c0 0 -11 -30 -35 -30c-7 0 -19 3 -25 9c-13 17 -51 105 -92 207l-77 -184c-8 -19 -22 -34 -40 -34c-10 0 -34 9 -36 27z" />
    <glyph glyph-name="uni0447" unicode="&#x447;" horiz-adv-x="292" 
d="M36 564c10 10 20 14 32 14c11 0 19 0 29 -10c4 -4 6 -34 6 -74v-71c0 -101 10 -151 50 -151h39c0 12 1 26 1 39c1 42 2 87 2 150v82c0 31 14 34 27 34c18 0 44 -10 44 -50l-5 -508c0 -15 -10 -20 -29 -20c-31 0 -39 29 -39 33v63l-1 116c-8 1 -34 0 -49 0
c-46 0 -82 22 -99 77c-8 25 -13 92 -13 147c0 14 0 93 3 124z" />
    <glyph glyph-name="uni0446" unicode="&#x446;" horiz-adv-x="342" 
d="M194 -12c-48 0 -129 1 -140 4c-20 8 -25 18 -25 51c0 114 2 247 2 343c0 53 1 95 1 114v52c0 4 7 27 36 27c31 0 34 -14 34 -34v-15c0 -6 -1 -12 -1 -17c-1 -61 -3 -430 -3 -460h14c16 0 32 -1 48 -1h34c0 113 2 243 2 336c0 52 1 93 1 112v52c0 4 13 27 41 27
c31 0 31 -13 31 -33v-16c0 -6 -1 -12 -1 -17c-1 -60 -3 -415 -3 -464c21 0 44 -1 53 -8c9 -6 11 -26 11 -48c0 -20 -3 -45 -3 -45c-1 -15 -20 -18 -28 -18c-15 0 -28 5 -28 18v39z" />
    <glyph glyph-name="uni0448" unicode="&#x448;" horiz-adv-x="373" 
d="M52 5c-18 9 -23 14 -23 47c0 113 1 245 1 339c0 51 1 91 1 110v52c0 3 1 26 32 26c29 0 37 -14 37 -34v-15c0 -6 -1 -11 -1 -16c-1 -60 -2 -421 -2 -450c15 0 38 0 60 -1c0 105 2 232 2 321c0 53 1 94 1 112v52c0 3 5 26 34 26c25 0 33 -14 33 -28v-37
c-1 -52 -3 -337 -3 -446h54c0 110 1 234 1 327c0 52 1 92 1 111v52c0 3 12 26 39 26s28 -13 28 -32v-16c0 -6 -1 -12 -1 -17c-1 -61 -1 -449 -1 -466v-9c0 -23 -11 -37 -39 -37h-13c-44 0 -235 0 -241 3z" />
    <glyph glyph-name="uni0449" unicode="&#x449;" horiz-adv-x="421" 
d="M277 2c-58 0 -219 0 -224 3c-18 9 -23 14 -23 47c0 113 1 245 1 339c0 51 1 91 1 110v52c0 3 1 26 32 26c29 0 36 -14 36 -34v-15c0 -6 -1 -11 -1 -16c-1 -60 -2 -421 -2 -450c16 0 38 0 60 -1c0 105 2 232 2 321c0 53 1 94 1 112v52c0 3 5 26 34 26c25 0 33 -14 33 -28
v-37c-1 -52 -3 -337 -3 -446h54c0 110 1 234 1 327c0 52 1 92 1 111v52c0 3 13 26 40 26s28 -13 28 -32v-16c0 -6 -1 -12 -1 -17c-1 -58 -2 -405 -2 -451c22 0 46 -1 56 -9c9 -6 11 -26 11 -47s-3 -46 -3 -46c-1 -14 -20 -17 -28 -17c-15 0 -28 5 -28 17v40z" />
    <glyph glyph-name="uni044C" unicode="&#x44c;" horiz-adv-x="292" 
d="M37 554c3 16 24 23 32 23c12 0 34 -14 38 -28c-1 -5 -1 -64 -1 -66l-3 -142h51c44 0 71 -19 90 -40c23 -26 27 -74 27 -101c0 -117 -7 -197 -110 -198h-91c-4 0 -16 0 -20 2c-14 7 -17 25 -17 37zM101 96c0 -13 0 -24 -1 -34h51c33 0 54 38 54 81v46c0 55 -10 94 -65 94
h-38c-1 -57 -1 -116 -1 -187z" />
    <glyph glyph-name="uni044A" unicode="&#x44a;" horiz-adv-x="326" 
d="M79 513c-13 0 -26 0 -38 1l-24 1c-8 0 -21 5 -21 25c0 13 8 24 18 32c9 5 60 5 95 5c14 0 37 -14 41 -28c-1 -5 -1 -64 -1 -66l-3 -142h51c43 0 71 -19 90 -40c22 -26 27 -74 27 -101c0 -117 -8 -197 -110 -198h-98c-4 0 -10 1 -14 4c-13 8 -17 23 -17 35zM144 96
c0 -13 0 -24 -1 -34h50c34 0 54 38 54 81v46c0 55 -9 94 -65 94h-37c-1 -57 -1 -116 -1 -187z" />
    <glyph glyph-name="uni044B" unicode="&#x44b;" horiz-adv-x="406" 
d="M37 554c3 16 24 23 32 23c12 0 34 -14 38 -28c-1 -5 -1 -64 -1 -66l-3 -142h51c44 0 71 -19 90 -40c23 -26 27 -74 27 -101c0 -117 -7 -197 -110 -198h-91c-4 0 -16 0 -20 2c-14 7 -17 25 -17 37zM306 554c3 16 23 23 32 23c12 0 34 -14 38 -28c-1 -5 -1 -64 -1 -66
c-3 -136 -5 -233 -5 -387c0 -31 -2 -57 -2 -57c-1 -7 -12 -37 -40 -37c-21 0 -27 25 -27 39zM101 96c0 -13 0 -24 -1 -34h51c33 0 54 38 54 81v46c0 55 -10 94 -65 94h-38c-1 -57 -1 -116 -1 -187z" />
    <glyph glyph-name="uni044D" unicode="&#x44d;" horiz-adv-x="275" 
d="M17 426c2 37 3 47 12 77c15 41 43 75 98 75c53 0 102 -17 117 -102c9 -51 11 -100 11 -146c0 -54 -1 -146 -5 -195c-6 -74 -39 -137 -120 -137c-51 0 -92 29 -113 80c-8 20 -9 43 -9 65s3 41 32 41c12 0 31 -8 33 -22c-1 -13 -1 -25 -1 -34c0 -43 33 -69 62 -69
c49 0 53 97 53 161c0 15 0 29 -1 41h-91c-16 0 -25 19 -25 33c0 15 12 32 28 32h87c0 39 0 72 -1 90c-2 55 -17 103 -51 103c-44 0 -47 -47 -50 -78l-3 -24c-5 -5 -23 -7 -26 -7c-13 0 -29 6 -37 16z" />
    <glyph glyph-name="uni044E" unicode="&#x44e;" horiz-adv-x="411" 
d="M386 436c0 -22 1 -44 2 -66c1 -17 1 -41 1 -58c0 -183 -25 -314 -116 -314c-49 0 -94 18 -113 109c-7 32 -11 75 -14 117l-45 -1v-123c0 -42 0 -90 -25 -96h-15c-19 0 -28 8 -28 29v231v215v70c0 24 19 24 34 24c14 0 36 -10 36 -23c-1 -122 -2 -204 -2 -267
c11 1 22 1 36 1h8c0 18 1 36 1 53v43c0 71 21 203 134 203c63 0 104 -79 106 -147zM269 55c39 0 50 128 50 246c0 59 -1 132 -7 163c-3 22 -19 58 -42 58c-31 0 -57 -37 -57 -236c0 -66 5 -231 56 -231z" />
    <glyph glyph-name="uni044F" unicode="&#x44f;" horiz-adv-x="284" 
d="M148 577c40 0 92 -6 109 -55l-8 -503c0 -16 -8 -21 -28 -21c-30 0 -41 35 -41 40c0 0 2 24 2 56v36c0 12 1 25 1 36c0 24 0 42 1 43h-5c-5 0 -10 -1 -15 -1c-46 -35 -81 -137 -92 -193c-2 -6 -21 -19 -35 -19c-11 0 -24 3 -35 14c15 101 57 173 83 209
c-21 11 -37 32 -47 65c-9 28 -11 101 -11 158c0 25 6 61 21 84c24 37 57 51 100 51zM185 265c3 71 2 140 2 248c-5 3 -16 6 -27 6c-53 0 -67 -38 -67 -84c0 -7 0 -70 -1 -87c2 -41 16 -83 54 -83h39z" />
    <glyph glyph-name="uni03BC" unicode="&#x3bc;" horiz-adv-x="381" 
d="M103 585c15 0 20 -14 20 -32l2 -188c1 -42 21 -141 74 -141c63 0 71 71 71 71c0 3 2 70 2 104c0 51 0 135 8 157c5 15 24 25 36 25c9 0 22 -16 27 -19c0 0 4 -206 4 -353c0 -71 -1 -139 -4 -157c-8 -32 -20 -43 -43 -43c-13 0 -22 5 -25 15c-2 9 -3 28 -3 49v125
c-29 -39 -51 -50 -82 -50c-28 0 -48 23 -65 43l1 -189v-23c0 -79 -15 -101 -15 -101c-9 -14 -22 -15 -31 -15c-25 0 -33 3 -33 24c0 7 1 15 1 24c0 8 2 87 2 328c0 146 5 272 5 290c0 52 32 56 48 56z" />
    <glyph glyph-name="zero" unicode="0" horiz-adv-x="357" 
d="M327 530c0 -23 0 -47 1 -72c1 -27 1 -57 1 -89c0 -218 0 -371 -123 -371c-125 0 -126 169 -128 425c0 115 9 285 131 285c83 0 114 -96 118 -178zM206 63c47 0 48 158 48 302c0 74 -2 143 -7 181c-4 27 -12 94 -40 94c-39 0 -56 -96 -56 -300c0 -88 6 -277 55 -277z" />
    <glyph glyph-name="one" unicode="1" horiz-adv-x="300" 
d="M254 690c5 -4 6 -33 6 -86c0 -179 -10 -584 -10 -584s-30 -22 -54 -22c-18 0 -22 10 -24 26c0 4 -1 8 -1 13c0 101 21 503 21 507c-5 -9 -95 -185 -107 -193c-2 -1 -5 -1 -7 -1c-15 0 -41 3 -41 28c0 8 3 19 8 29l140 272s17 20 43 20c7 0 20 -5 26 -9z" />
    <glyph glyph-name="two" unicode="2" horiz-adv-x="318" 
d="M56 503c-2 4 -7 26 -7 49c0 57 17 146 127 146c43 0 113 -26 113 -136c0 -119 -72 -259 -92 -296l-89 -186c100 0 127 -1 139 -1h8c23 0 37 -6 37 -32c0 -27 -18 -38 -35 -38c-26 0 -81 -1 -127 -2c-27 -1 -59 -1 -66 -1c-22 0 -45 18 -48 46c0 41 67 152 89 194
c69 132 106 239 106 312c0 36 -9 71 -43 71c-14 0 -44 -10 -48 -94c0 0 2 -45 -39 -45c-9 0 -18 4 -25 13z" />
    <glyph glyph-name="three" unicode="3" horiz-adv-x="313" 
d="M60 553c-1 3 -5 19 -5 36c0 43 21 115 119 115c92 0 107 -87 107 -158c0 -61 -16 -126 -54 -151c27 -12 67 -46 67 -137c0 -160 -23 -260 -135 -260c-90 0 -122 40 -122 169c0 0 20 23 44 23c8 0 16 -3 23 -9c14 -11 15 -36 15 -60c0 -32 0 -67 38 -67c48 0 58 96 58 163
v19c0 62 -15 127 -83 127c-21 0 -27 11 -27 30c0 32 19 33 39 33c6 0 12 0 16 1c17 9 46 28 46 139c0 38 -10 81 -38 81c-33 0 -42 -47 -42 -72c0 -19 -35 -31 -48 -31c-8 0 -14 3 -18 9z" />
    <glyph glyph-name="four" unicode="4" horiz-adv-x="375" 
d="M212 606c-36 -103 -81 -240 -104 -300h114c1 19 0 38 0 56c1 38 2 76 10 119c5 29 22 40 45 40c4 0 10 -2 21 -6v-216h46c15 0 31 -5 31 -25c0 -7 -4 -16 -11 -24c-11 -12 -23 -14 -46 -14h-25c-1 -61 -4 -124 -5 -185c-1 -31 -3 -58 -47 -58c-11 0 -21 0 -26 23
c0 76 2 141 4 219c-23 0 -54 1 -82 1h-51c-44 0 -59 0 -59 41l4 23c71 210 128 360 138 388c12 3 15 3 19 3c23 0 37 -12 41 -34z" />
    <glyph glyph-name="five" unicode="5" horiz-adv-x="304" 
d="M89 410c-16 0 -33 2 -33 32l-1 203s0 25 12 32c13 6 63 8 126 8c22 0 78 2 78 -35c0 -19 -19 -35 -32 -35h-38c-42 0 -77 0 -77 3v-144h17c17 -1 45 -6 68 -17c18 -9 78 -33 78 -170c0 -190 -3 -289 -137 -289c-106 0 -120 76 -121 165c0 0 6 31 37 31c33 0 33 -8 33 -62
c0 -34 10 -74 53 -74c53 0 58 69 58 143v61c0 113 -6 148 -102 148h-19z" />
    <glyph glyph-name="six" unicode="6" horiz-adv-x="336" 
d="M301 574c0 -15 -3 -43 -27 -43c-20 0 -47 24 -47 24v16c0 67 -39 74 -39 74c-61 -7 -67 -167 -67 -208v-17c23 9 43 12 62 12c81 0 131 -50 131 -191c0 -111 -6 -235 -154 -235c-104 0 -117 123 -117 245v167c0 152 15 280 143 280c99 0 115 -78 115 -124zM178 376
c-24 -1 -43 -13 -60 -27c-1 -20 -1 -40 -1 -56c0 -146 20 -233 56 -233c53 0 60 111 60 153c0 93 -2 158 -55 163z" />
    <glyph glyph-name="seven" unicode="7" horiz-adv-x="253" 
d="M37 684h144c13 0 26 1 41 1c34 0 43 -44 43 -44l-149 -611c-9 -25 -29 -27 -47 -27c-23 0 -34 5 -34 22c0 1 1 8 3 14l149 573c-14 0 -47 1 -99 1c-20 0 -38 0 -46 2c-18 4 -27 16 -27 28c0 18 15 37 15 37z" />
    <glyph glyph-name="eight" unicode="8" horiz-adv-x="341" 
d="M193 697c86 0 123 -69 123 -161c0 -81 -16 -128 -51 -151c34 -31 53 -82 53 -136c0 -117 -1 -245 -151 -245c-110 0 -123 110 -123 227c0 63 17 121 58 155c-31 24 -48 71 -48 145c0 112 53 166 139 166zM239 542c0 44 -7 99 -47 99c-34 0 -58 -25 -58 -105
c0 -91 21 -122 50 -122c43 0 54 68 55 96v32zM174 58c43 0 66 55 66 173c0 52 -9 126 -57 126c-30 0 -58 -28 -58 -115c0 -85 3 -184 49 -184z" />
    <glyph glyph-name="nine" unicode="9" horiz-adv-x="344" 
d="M56 129c0 15 3 44 28 44c19 0 46 -24 46 -24v-17c0 -73 37 -74 43 -74c62 0 62 166 62 208v17c-21 -9 -42 -12 -60 -12c-82 0 -132 51 -132 191c0 111 6 236 154 236c104 0 117 -124 117 -246v-167c0 -151 -15 -279 -142 -279c-101 0 -116 77 -116 123zM180 327
c22 0 43 10 58 26c1 21 1 39 1 57c0 146 -19 233 -54 233c-54 0 -61 -111 -61 -153c0 -93 2 -162 56 -163z" />
    <glyph glyph-name="fraction" unicode="&#x2044;" horiz-adv-x="605" 
d="M471 679c8 22 25 23 38 23c26 0 40 -8 41 -36c-6 -5 -426 -628 -430 -633c-9 -15 -16 -27 -42 -27c-20 0 -37 0 -37 26c0 8 5 31 16 47z" />
    <glyph glyph-name="uni00B9" unicode="&#xb9;" horiz-adv-x="164" 
d="M131 695c4 -4 6 -18 6 -44c0 -82 -5 -278 -5 -278s-13 -10 -31 -10c-5 0 -12 0 -18 5c-4 3 -6 10 -6 19c0 45 5 190 5 190c-13 -22 -28 -47 -37 -47c-10 1 -28 0 -28 18c0 4 1 10 3 15l64 123s9 13 24 13c3 0 20 -3 23 -4z" />
    <glyph glyph-name="uni00B2" unicode="&#xb2;" horiz-adv-x="179" 
d="M20 599c-1 3 -4 15 -4 26c0 27 25 73 79 73c43 0 69 -29 69 -69c0 -60 -32 -124 -41 -141c-8 -16 -32 -69 -32 -69c24 0 55 0 62 -2c15 -3 15 -18 15 -29c0 -17 -11 -23 -20 -23c-13 0 -45 -1 -72 -1h-34c-13 0 -24 10 -26 24c10 37 29 73 41 95c32 62 50 111 50 145
c0 14 -3 25 -15 25c-6 0 -18 -2 -20 -37c0 0 -3 -24 -22 -24c-4 0 -25 2 -30 7z" />
    <glyph glyph-name="uni00B3" unicode="&#xb3;" horiz-adv-x="181" 
d="M29 627l-1 15c0 22 17 59 70 59c49 0 69 -29 69 -79c0 -28 -8 -58 -25 -71c14 -10 31 -31 31 -77c0 -77 -23 -114 -82 -114c-49 0 -66 20 -66 84c0 0 11 16 26 16c4 0 10 -2 15 -6c7 -6 7 -16 9 -25c2 -12 6 -24 20 -24c19 0 19 33 19 63v8c0 28 -6 51 -37 51
c-14 0 -18 13 -18 24c0 17 13 20 28 25l12 4c5 4 11 15 11 44c0 15 -1 36 -13 36c-14 0 -16 -14 -16 -24s-32 -19 -38 -19c-7 0 -13 3 -14 10z" />
    <glyph glyph-name="asterisk" unicode="*" horiz-adv-x="351" 
d="M43 480c0 5 2 8 4 11c0 0 32 24 76 60c-42 27 -78 51 -78 51l5 21s6 21 32 21c6 0 13 -1 20 -6l37 -23l-1 46c0 25 14 38 43 38c19 0 22 -15 22 -25c0 -5 -1 -38 0 -61l64 49c4 1 6 1 9 1c12 0 23 -15 23 -30c0 -5 -2 -11 -5 -15c-2 -2 -50 -41 -69 -55
c45 -26 83 -49 83 -49s-16 -39 -47 -39c-13 0 -28 10 -55 25l2 -62c-1 -16 -20 -23 -36 -23c-12 0 -24 4 -26 16l-3 70c-35 -27 -59 -42 -59 -42s-4 -1 -9 -1c-12 0 -32 3 -32 22z" />
    <glyph glyph-name="backslash" unicode="\" horiz-adv-x="439" 
d="M383 55c5 -11 12 -34 12 -41c0 -27 -17 -27 -36 -27c-26 0 -32 10 -41 26c-5 6 -44 105 -92 226c-76 192 -173 436 -178 440c0 26 11 37 42 37c13 0 30 -2 38 -24z" />
    <glyph glyph-name="periodcentered" unicode="&#xb7;" horiz-adv-x="123" 
d="M40 378c11 6 26 12 41 12c36 0 41 -25 41 -56s-20 -50 -52 -50c-29 0 -50 31 -50 60c0 12 7 26 20 34z" />
    <glyph glyph-name="bullet" unicode="&#x2022;" horiz-adv-x="270" 
d="M140 415c52 0 69 -38 69 -79c0 -48 -37 -76 -78 -76c-44 0 -71 40 -71 85c0 41 38 70 80 70z" />
    <glyph glyph-name="colon" unicode=":" horiz-adv-x="204" 
d="M70 396c10 6 26 12 41 12c36 0 41 -24 41 -56c0 -31 -20 -49 -52 -49c-29 0 -50 31 -50 59c0 13 7 27 20 34zM70 104c10 6 26 12 41 12c36 0 41 -24 41 -55c0 -32 -20 -50 -52 -50c-29 0 -50 31 -50 59c0 13 7 27 20 34z" />
    <glyph glyph-name="comma" unicode="," horiz-adv-x="161" 
d="M48 104c11 6 26 12 41 12c36 0 42 -25 42 -56c0 -24 -29 -102 -44 -124c-6 -7 -16 -12 -24 -12c-18 0 -30 20 -30 28c0 1 4 12 7 25s8 32 9 44c-14 11 -21 31 -21 49c0 13 7 27 20 34z" />
    <glyph glyph-name="ellipsis" unicode="&#x2026;" horiz-adv-x="480" 
d="M51 100c10 5 26 11 41 11c36 0 41 -24 41 -55c0 -32 -20 -50 -52 -50c-29 0 -50 31 -50 59c0 13 7 27 20 35zM207 100c11 5 26 11 41 11c36 0 41 -24 41 -55c0 -32 -20 -50 -52 -50c-29 0 -50 31 -50 59c0 13 7 27 20 35zM363 100c11 5 26 11 41 11c36 0 41 -24 41 -55
c0 -32 -19 -50 -52 -50c-29 0 -49 31 -49 59c0 13 6 27 19 35z" />
    <glyph glyph-name="exclam" unicode="!" horiz-adv-x="275" 
d="M96 679c4 20 34 27 47 27c11 0 37 -4 43 -19c-1 -7 -10 -429 -10 -435c0 -41 -9 -75 -42 -75c-19 0 -36 14 -36 72c0 142 -1 283 -2 430zM103 100c11 5 27 11 41 11c36 0 41 -24 41 -55c0 -32 -19 -50 -52 -50c-29 0 -49 31 -49 59c0 13 6 27 19 35z" />
    <glyph glyph-name="exclamdown" unicode="&#xa1;" horiz-adv-x="247" 
d="M103 354c-13 8 -19 22 -19 35c0 28 20 59 49 59c33 0 52 -18 52 -50c0 -31 -5 -55 -41 -55c-14 0 -30 6 -41 11zM96 -225c1 147 2 288 2 430c0 58 17 72 36 72c33 0 42 -34 42 -75c0 -6 9 -428 10 -435c-6 -15 -32 -19 -43 -19c-13 0 -43 7 -47 27z" />
    <glyph glyph-name="numbersign" unicode="#" horiz-adv-x="524" 
d="M409 304c4 0 11 1 19 1c24 0 57 -5 57 -24c0 -8 -8 -41 -39 -56c-19 1 -45 1 -73 1v-181c0 -28 -15 -34 -30 -41c-4 -2 -16 -4 -27 -4c-20 0 -21 21 -21 41c0 7 1 15 1 21v13c0 23 2 81 2 152h-27c-18 0 -35 -1 -51 -1v-181c0 -33 -20 -36 -34 -42c-4 -2 -16 -3 -25 -3
c-17 0 -18 20 -18 36c0 8 1 16 1 23v167h-76c-21 0 -39 1 -39 20c0 25 11 57 46 57h70v117h-53c-7 0 -16 -1 -24 -1c-19 0 -39 1 -39 22c0 24 7 55 46 55h70c-1 72 -1 134 -3 160c18 34 42 42 49 42c29 -3 31 -28 31 -53v-28s-1 -53 -1 -121h78c0 72 -1 135 -3 161
c18 33 41 41 47 41c29 -3 31 -28 31 -53v-28s-1 -52 -1 -121h32c10 1 17 2 25 2c25 0 55 -3 55 -23c0 -8 -8 -42 -40 -57l-72 3v-118h32zM221 420c0 -38 -1 -77 -1 -117h79v117h-78z" />
    <glyph glyph-name="period" unicode="." horiz-adv-x="160" 
d="M49 100c11 6 26 11 41 11c36 0 41 -24 41 -55c0 -32 -20 -50 -52 -50c-29 0 -50 31 -50 59c0 13 7 28 20 35z" />
    <glyph glyph-name="question" unicode="?" horiz-adv-x="384" 
d="M322 582c0 -77 -35 -132 -69 -182c-29 -45 -59 -91 -59 -148c0 -9 0 -12 1 -16c0 -4 1 -10 1 -19c-2 -39 -20 -40 -44 -40c-26 0 -36 14 -36 72c0 68 33 120 65 172c29 46 58 92 58 148c0 37 -11 74 -38 74c-40 0 -61 -43 -61 -108c0 -29 -3 -51 -29 -51
c-43 0 -49 19 -49 63c0 120 70 163 143 163c60 0 117 -42 117 -128zM133 100c11 5 26 11 41 11c36 0 41 -24 41 -55c0 -32 -19 -50 -52 -50c-29 0 -49 31 -49 59c0 13 6 27 19 35z" />
    <glyph glyph-name="questiondown" unicode="&#xbf;" horiz-adv-x="336" 
d="M256 362c-11 -5 -26 -11 -41 -11c-36 0 -41 24 -41 55c0 32 19 50 52 50c29 0 49 -31 49 -59c0 -13 -6 -27 -19 -35zM67 -120c0 77 35 132 69 182c29 45 59 91 59 148c0 9 0 12 -1 16c0 4 -1 10 -1 19c2 39 20 40 44 40c26 0 36 -14 36 -72c0 -68 -33 -120 -65 -172
c-29 -46 -58 -92 -58 -148c0 -37 11 -74 38 -74c40 0 61 43 61 108c0 29 3 51 29 51c43 0 49 -19 49 -63c0 -120 -70 -163 -143 -163c-60 0 -117 42 -117 128z" />
    <glyph glyph-name="quotedbl" unicode="&#x22;" horiz-adv-x="283" 
d="M50 688c7 5 22 8 38 8c28 0 33 -16 33 -38c0 -43 -6 -146 -20 -163c-4 -4 -21 -6 -27 -6c-19 0 -24 1 -30 17c-10 19 -12 122 -12 149c0 20 7 25 18 33zM165 688c8 5 21 8 37 8c28 0 33 -16 33 -38c0 -43 -6 -146 -20 -163c-3 -4 -21 -6 -27 -6c-18 0 -23 1 -30 17
c-10 19 -12 122 -12 149c0 20 8 26 19 33z" />
    <glyph glyph-name="quotesingle" unicode="'" horiz-adv-x="144" 
d="M50 688c11 7 21 8 37 8c28 0 33 -16 33 -38c0 -43 -6 -146 -20 -163c-3 -4 -21 -6 -27 -6c-18 0 -22 1 -30 17c-9 19 -12 122 -12 149c0 20 8 26 19 33z" />
    <glyph glyph-name="semicolon" unicode=";" horiz-adv-x="203" 
d="M69 396c10 6 26 12 41 12c36 0 41 -24 41 -56c0 -31 -20 -49 -52 -49c-29 0 -50 31 -50 59c0 13 7 27 20 34zM69 104c10 6 26 12 41 12c36 0 42 -25 42 -56c0 -24 -29 -102 -44 -124c-6 -7 -16 -12 -24 -12c-18 0 -30 20 -30 28c7 15 14 51 16 69c-14 11 -21 31 -21 49
c0 13 7 27 20 34z" />
    <glyph glyph-name="slash" unicode="/" horiz-adv-x="432" 
d="M315 692c8 22 24 24 38 24c20 0 42 -3 42 -28l-1 -9c-5 -9 -101 -248 -178 -440c-47 -120 -85 -218 -91 -226c-8 -14 -18 -26 -41 -26c-20 0 -37 0 -37 27c0 7 6 31 12 41z" />
    <glyph glyph-name="underscore" unicode="_" horiz-adv-x="497" 
d="M453 43c-2 -22 -9 -40 -27 -40h-343c-29 0 -30 21 -30 41c0 19 13 33 31 33h338c16 0 31 -15 31 -34z" />
    <glyph glyph-name="braceleft" unicode="{" horiz-adv-x="336" 
d="M289 701c11 -9 15 -21 15 -31c-1 -18 -15 -32 -30 -32c-5 1 -12 2 -17 4c-7 2 -17 5 -20 5c-16 0 -24 -16 -24 -63c0 -27 1 -47 1 -64l-1 -34c-2 -103 -69 -142 -69 -142c60 -33 60 -133 60 -210v-41c1 -35 10 -56 29 -56c23 0 46 10 46 10c12 -16 16 -27 16 -36
c0 -28 -22 -35 -22 -35h-22c-119 1 -129 78 -129 109c0 8 -2 141 -8 184c-5 35 -43 21 -58 42c-7 10 -9 23 -9 31c0 33 27 35 40 42c14 7 28 13 33 27l5 54c4 55 10 138 20 183c11 49 57 59 95 59c22 0 46 -5 49 -6z" />
    <glyph glyph-name="braceright" unicode="}" horiz-adv-x="343" 
d="M84 702c0 0 25 5 46 5c38 0 85 -10 95 -59c9 -47 13 -135 14 -191c1 -23 2 -40 3 -46c6 -17 22 -26 32 -30c13 -6 40 -2 40 -35c0 -7 -2 -25 -9 -35c-7 -9 -14 -9 -22 -10c-21 -1 -30 -15 -38 -32c-20 -42 -13 -177 -13 -177c0 -25 -2 -115 -131 -116h-22s-23 7 -23 32
c0 9 4 21 17 39c0 0 24 -10 47 -10c19 0 29 20 30 55c0 8 1 17 1 27c2 75 4 186 66 225c-27 11 -67 47 -67 141c0 5 0 13 2 31c2 27 2 50 2 68c0 47 -6 63 -22 63c-3 0 -13 -3 -19 -5c-5 -2 -12 -3 -18 -4c-15 0 -29 15 -29 33c0 9 4 21 15 30z" />
    <glyph glyph-name="bracketleft" unicode="[" horiz-adv-x="292" 
d="M74 690c10 22 63 23 97 23c30 0 49 -3 58 -4c14 -3 24 -20 24 -33c0 -5 -3 -15 -6 -19c-6 -9 -58 -11 -97 -11c2 -544 2 -595 5 -606c40 0 88 -2 94 -13c2 -2 6 -12 6 -17c0 -16 -8 -31 -19 -33h-6c-10 0 -39 -2 -67 -2c-10 0 -37 0 -49 1c-29 3 -32 6 -38 45
c0 2 -1 85 -1 198c0 196 0 461 -1 465v6z" />
    <glyph glyph-name="bracketright" unicode="]" horiz-adv-x="294" 
d="M226 684c-2 -7 -2 -271 -2 -465c0 -113 -1 -202 -1 -205c-5 -34 -14 -36 -37 -38c-12 -1 -39 -1 -49 -1c-28 0 -56 2 -73 2c-12 2 -19 17 -19 33c0 4 3 13 7 19c4 9 54 11 93 11c2 25 3 130 5 606c-40 0 -91 2 -97 11c-3 4 -6 15 -6 19c0 13 9 30 23 33c9 1 28 4 43 4h17
c34 0 86 -1 96 -23v-6z" />
    <glyph glyph-name="parenleft" unicode="(" horiz-adv-x="241" 
d="M206 687c-52 -103 -77 -237 -77 -334c0 -194 72 -326 72 -326c-5 -49 -46 -50 -56 -50c-81 144 -103 274 -103 383c0 196 85 331 99 346c8 8 17 11 24 11c21 0 39 -20 39 -20z" />
    <glyph glyph-name="parenright" unicode=")" horiz-adv-x="258" 
d="M44 697c0 0 18 20 39 20c7 0 16 -3 24 -11c14 -15 99 -149 99 -346c0 -109 -23 -239 -103 -383c-10 0 -51 1 -56 50c0 0 71 130 71 326c0 98 -25 232 -76 334z" />
    <glyph glyph-name="emdash" unicode="&#x2014;" horiz-adv-x="454" 
d="M411 247c-2 -22 -9 -40 -28 -40h-323c-29 0 -30 21 -30 41s14 33 31 33h318c17 0 32 -14 32 -34z" />
    <glyph glyph-name="endash" unicode="&#x2013;" horiz-adv-x="363" 
d="M328 247c-2 -22 -9 -40 -27 -40h-241c-30 0 -31 21 -31 41s14 33 32 33h236c17 0 31 -14 31 -34z" />
    <glyph glyph-name="hyphen" unicode="-" horiz-adv-x="336" 
d="M303 247c-2 -22 -9 -40 -28 -40h-215c-30 0 -31 21 -31 41s14 33 32 33h210c17 0 32 -14 32 -34z" />
    <glyph glyph-name="guillemotleft" unicode="&#xab;" horiz-adv-x="387" 
d="M166 446c4 1 7 1 11 -1c11 -6 19 -19 19 -36c0 -6 -3 -16 -6 -21c-15 -21 -95 -88 -95 -88l83 -81c13 -13 20 -26 20 -38c0 -19 -14 -35 -35 -35c-8 0 -16 1 -21 5l-23 21c-43 38 -115 103 -115 129c0 23 162 145 162 145zM310 446c3 1 7 1 10 -1c11 -7 20 -19 20 -36
c0 -6 -3 -16 -7 -21c-15 -21 -95 -88 -95 -88l83 -81c14 -13 21 -26 21 -38c0 -18 -15 -35 -35 -35c-8 0 -17 1 -22 5c-65 59 -137 124 -137 150c0 23 162 145 162 145z" />
    <glyph glyph-name="guillemotright" unicode="&#xbb;" horiz-adv-x="418" 
d="M65 147c-3 -1 -6 -2 -11 1c-11 7 -20 21 -20 37c0 4 2 14 7 21c15 20 95 88 95 88c-11 10 -61 61 -83 81c-14 14 -21 25 -21 38c0 11 8 22 17 30c5 4 12 5 19 5s13 -2 20 -7l24 -19c43 -37 114 -103 114 -129c0 -25 -161 -146 -161 -146zM208 147c-3 -3 -8 -1 -10 1
c-9 9 -21 21 -21 37c0 4 2 14 8 21c16 19 95 88 95 88c-11 10 -62 61 -83 81c-15 14 -22 25 -22 38c0 11 8 22 18 30c5 4 11 5 18 5s14 -2 21 -7l23 -19c43 -37 114 -103 114 -129c0 -25 -161 -146 -161 -146z" />
    <glyph glyph-name="guilsinglleft" unicode="&#x2039;" horiz-adv-x="219" 
d="M165 446c4 1 7 0 11 -1c9 -9 19 -19 19 -36c0 -6 -2 -16 -6 -21c-15 -21 -95 -88 -95 -88l83 -81c14 -13 20 -26 20 -38s-6 -23 -16 -31c-4 -3 -12 -4 -20 -4s-16 1 -20 5l-23 21c-43 38 -115 103 -115 129c0 23 162 145 162 145z" />
    <glyph glyph-name="guilsinglright" unicode="&#x203a;" horiz-adv-x="257" 
d="M59 147c-4 -1 -7 -1 -11 1c-9 7 -20 21 -20 37c0 4 4 14 8 21c14 20 94 88 94 88c-10 10 -61 61 -83 81c-14 14 -21 25 -21 38c0 11 8 22 17 30c5 4 12 5 19 5s14 -2 21 -7l23 -19c43 -37 114 -103 114 -129c0 -25 -161 -146 -161 -146z" />
    <glyph glyph-name="quotedblbase" unicode="&#x201e;" horiz-adv-x="285" 
d="M48 104c11 6 26 12 41 12c36 0 42 -25 42 -56c0 -24 -29 -102 -44 -124c-6 -7 -16 -12 -24 -12c-18 0 -29 22 -29 29c6 22 14 49 15 68c-14 11 -21 31 -21 49c0 13 7 27 20 34zM167 104c11 6 26 12 41 12c36 0 42 -25 42 -56c0 -24 -29 -102 -44 -124
c-6 -7 -16 -12 -24 -12c-18 0 -29 22 -29 29c6 22 14 49 15 68c-14 11 -21 31 -21 49c0 13 7 27 20 34z" />
    <glyph glyph-name="quotedblleft" unicode="&#x201c;" horiz-adv-x="292" 
d="M111 521c-11 -6 -26 -12 -41 -12c-36 0 -42 25 -42 56c0 24 29 102 44 124c6 7 16 12 24 12c18 0 29 -22 29 -29c-6 -22 -14 -49 -15 -68c14 -11 21 -31 21 -49c0 -13 -7 -27 -20 -34zM233 521c-11 -6 -26 -12 -41 -12c-36 0 -42 25 -42 56c0 24 29 102 44 124
c6 7 16 12 24 12c18 0 29 -22 29 -29c-6 -22 -14 -49 -15 -68c14 -11 21 -31 21 -49c0 -13 -7 -27 -20 -34z" />
    <glyph glyph-name="quotedblright" unicode="&#x201d;" horiz-adv-x="292" 
d="M49 689c11 6 26 12 41 12c36 0 42 -25 42 -56c0 -24 -29 -102 -44 -124c-6 -7 -16 -12 -24 -12c-18 0 -29 22 -29 29c6 22 14 49 15 68c-14 11 -21 31 -21 49c0 13 7 27 20 34zM168 689c11 6 26 12 41 12c36 0 42 -25 42 -56c0 -24 -29 -102 -44 -124
c-6 -7 -16 -12 -24 -12c-18 0 -29 22 -29 29c6 22 14 49 15 68c-14 11 -21 31 -21 49c0 13 7 27 20 34z" />
    <glyph glyph-name="quoteleft" unicode="&#x2018;" horiz-adv-x="160" 
d="M111 521c-11 -6 -26 -12 -41 -12c-36 0 -42 25 -42 56c0 24 29 102 44 124c6 7 16 12 24 12c18 0 29 -22 29 -29c-6 -22 -14 -49 -15 -68c14 -11 21 -31 21 -49c0 -13 -7 -27 -20 -34z" />
    <glyph glyph-name="quoteright" unicode="&#x2019;" horiz-adv-x="162" 
d="M48 689c11 6 26 12 41 12c36 0 42 -25 42 -56c0 -24 -29 -102 -44 -124c-6 -7 -16 -12 -24 -12c-18 0 -29 22 -29 29c6 22 14 49 15 68c-14 11 -21 31 -21 49c0 13 7 27 20 34z" />
    <glyph glyph-name="quotesinglbase" unicode="&#x201a;" horiz-adv-x="161" 
d="M48 104c11 6 26 12 41 12c36 0 42 -25 42 -56c0 -24 -29 -102 -44 -124c-6 -7 -16 -12 -24 -12c-18 0 -29 22 -29 29c6 22 14 49 15 68c-14 11 -21 31 -21 49c0 13 7 27 20 34z" />
    <glyph glyph-name="currency" unicode="&#xa4;" horiz-adv-x="439" 
d="M67 501c17 -1 44 -24 63 -43c22 16 48 26 81 27c30 0 61 -10 85 -29c20 21 45 42 61 42c25 -2 36 -25 38 -40l-54 -66c4 -13 6 -30 6 -46c0 -19 -3 -38 -11 -57c26 -27 61 -67 63 -70c0 -18 -15 -39 -37 -39c-20 0 -49 23 -68 45c-26 -22 -52 -28 -82 -28
c-29 0 -57 7 -80 22c-20 -21 -44 -41 -57 -41c-19 0 -41 24 -41 38l47 60c-7 16 -9 34 -9 52c0 25 6 51 15 73c-23 25 -55 58 -56 60c0 5 19 35 36 40zM209 260c36 0 64 38 64 76c-1 40 -15 88 -62 88c-46 0 -67 -52 -67 -92c0 -37 28 -72 65 -72z" />
    <glyph glyph-name="dollar" unicode="$" horiz-adv-x="350" 
d="M66 531c0 69 40 118 93 133v42c0 17 14 32 31 32c10 0 36 -9 36 -28v-43c77 -18 89 -110 91 -174c0 -17 -3 -31 -24 -31c-23 0 -45 0 -53 24c-5 18 -3 24 -4 36c-2 38 -4 90 -37 90c-29 0 -49 -34 -49 -77c0 -53 38 -93 78 -134c46 -48 94 -97 94 -178
c0 -86 -24 -164 -96 -189v-51c0 -14 -14 -24 -26 -24c-19 0 -41 8 -41 30v39c-66 11 -102 85 -102 153c0 26 10 50 42 50c27 0 47 -14 47 -43c2 -30 5 -96 42 -96c44 0 50 60 50 97c0 63 -38 102 -76 142c-46 49 -96 102 -96 200z" />
    <glyph glyph-name="Euro" unicode="&#x20ac;" horiz-adv-x="383" 
d="M288 293c-2 -12 -7 -31 -27 -31h-117c0 -15 1 -22 1 -38c1 -65 4 -163 73 -163c47 0 74 27 74 97c0 22 12 33 35 33c35 0 35 -6 35 -34c0 -85 -63 -153 -145 -153c-96 0 -136 63 -143 149c-3 31 -5 67 -7 109h-33c-14 0 -17 9 -17 31c0 17 10 32 28 32h20v43h-31
c-14 0 -17 14 -17 31c0 18 10 31 28 31h20c2 44 5 97 15 145c21 99 78 124 141 124c77 0 124 -68 127 -135v-21c-8 -11 -25 -17 -42 -17c-3 0 -23 3 -27 8l-3 25c-5 34 -10 81 -65 81c-42 0 -58 -56 -61 -89l-5 -121h112c17 0 31 -13 31 -31c-2 -10 -7 -31 -27 -31h-117v-43
h113c17 0 31 -15 31 -32z" />
    <glyph glyph-name="sterling" unicode="&#xa3;" horiz-adv-x="395" 
d="M287 334c-2 -11 -6 -34 -27 -34h-62c0 -54 -1 -109 -8 -156c79 -13 179 -58 179 -105c0 -16 -6 -33 -29 -33c-7 0 -14 1 -17 3c-44 35 -102 60 -146 70c-16 -51 -44 -84 -91 -84c-36 0 -64 26 -64 63c0 53 45 80 93 86v156h-49c-15 0 -19 9 -19 18v7c0 3 1 6 1 9
c0 17 10 30 29 30h38c0 103 8 239 67 304c16 15 36 26 54 26c25 0 48 -16 48 -63c0 -50 -49 -127 -82 -171c0 -11 -1 -23 -1 -37c-1 -18 -2 -38 -2 -59h57c17 0 31 -13 31 -30zM228 631c-25 -2 -39 -55 -37 -99c8 20 36 64 37 99zM87 56c13 0 21 12 25 27
c-16 -2 -31 -7 -31 -19c0 -3 2 -8 6 -8z" />
    <glyph glyph-name="yen" unicode="&#xa5;" horiz-adv-x="406" 
d="M326 175c-2 -12 -8 -29 -28 -29h-52v-28c0 -37 -1 -84 -6 -94c-8 -18 -21 -19 -31 -19c-25 0 -39 8 -39 36l-1 105h-65c-15 0 -18 15 -18 29c0 17 10 32 29 32h53v37h-64c-15 0 -18 10 -18 29c0 18 10 31 29 31h57c-37 87 -144 344 -144 360c0 11 34 29 50 29
c20 0 27 -19 27 -19l106 -291s75 264 96 290c11 13 23 21 36 21s27 -6 27 -23c0 -4 0 -7 -1 -10l-118 -357h43c17 0 32 -13 32 -31c-2 -10 -7 -29 -28 -29h-53v-37h49c17 0 32 -15 32 -32z" />
    <glyph glyph-name="asciitilde" unicode="~" horiz-adv-x="411" 
d="M24 221c-3 1 -15 13 -15 28c0 5 2 9 5 14c10 13 53 69 112 69c35 0 63 -18 87 -33c18 -12 36 -24 57 -24c19 0 38 16 52 29c11 9 20 18 35 20c0 0 18 -14 18 -31c0 -21 -59 -91 -118 -91c-30 0 -56 18 -78 33c-20 13 -37 27 -54 27s-35 -14 -49 -27
c-13 -10 -24 -19 -36 -19c-5 0 -10 1 -16 5z" />
    <glyph glyph-name="divide" unicode="&#xf7;" horiz-adv-x="332" 
d="M137 426c8 5 21 9 35 9c32 0 36 -20 36 -47c0 -28 -17 -44 -45 -44c-25 0 -44 27 -44 51c0 11 5 24 18 31zM300 293c-2 -12 -8 -34 -28 -34h-221c-12 0 -28 13 -28 34c0 17 10 30 29 30h216c17 0 32 -13 32 -30zM137 225c8 4 21 10 35 10c32 0 36 -21 36 -49
c0 -27 -17 -43 -45 -43c-25 0 -44 27 -44 51c0 12 5 24 18 31z" />
    <glyph glyph-name="equal" unicode="=" horiz-adv-x="341" 
d="M309 340c-2 -11 -7 -34 -28 -34h-228c-15 0 -21 16 -21 34c0 17 10 30 29 30h216c17 0 32 -13 32 -30zM309 241c-2 -12 -8 -34 -28 -34h-221c-12 0 -28 13 -28 34c0 18 10 30 29 30h216c17 0 32 -12 32 -30z" />
    <glyph glyph-name="greater" unicode="&#x3e;" horiz-adv-x="338" 
d="M61 144c-13 7 -25 16 -25 29c0 7 4 14 13 23c8 8 153 80 160 84c-2 1 -116 61 -146 82c-20 13 -27 18 -27 29c0 6 1 27 17 34c6 3 15 4 24 4c8 0 19 -3 26 -6l31 -18c45 -25 113 -63 145 -89c12 -9 16 -16 16 -32c0 -13 -1 -21 -19 -32c-65 -41 -208 -108 -208 -108h-7z
" />
    <glyph glyph-name="less" unicode="&#x3c;" horiz-adv-x="333" 
d="M271 427c12 -7 24 -16 24 -29c0 -7 -4 -15 -12 -23c-10 -10 -151 -81 -161 -85c8 -4 117 -61 147 -81c15 -11 26 -17 26 -28c0 -7 -1 -28 -17 -35c-6 -2 -14 -4 -23 -4c-10 0 -20 2 -26 6l-31 18c-45 25 -113 63 -145 89c-13 11 -17 17 -17 32c0 12 2 21 21 32
c65 40 207 109 207 109z" />
    <glyph glyph-name="logicalnot" unicode="&#xac;" horiz-adv-x="502" 
d="M47 301c-12 13 -18 23 -18 37c0 12 6 19 19 34c19 0 42 -1 61 -1h56c125 0 233 1 270 2l12 1c22 0 25 -31 25 -65v-46c0 -19 -2 -36 -3 -47c-2 -11 -23 -19 -37 -19c-5 0 -15 2 -19 6c-11 6 -12 60 -12 99c-89 -1 -154 -1 -207 -1h-147z" />
    <glyph glyph-name="minus" unicode="&#x2212;" horiz-adv-x="354" 
d="M309 241c-2 -12 -8 -34 -28 -34h-221c-12 0 -28 13 -28 34c0 18 10 30 29 30h216c17 0 32 -12 32 -30z" />
    <glyph glyph-name="multiply" unicode="&#xd7;" horiz-adv-x="337" 
d="M279 187c-6 -4 -16 -8 -29 -8c-5 0 -12 2 -15 5l-63 63l-75 -74s-26 6 -34 16c-7 6 -10 14 -10 21s3 13 9 18l65 65l-61 62c-3 5 -7 12 -7 17c0 10 6 19 13 27c7 7 15 10 22 10s13 -3 19 -9l60 -62l57 56c7 6 15 10 23 10c5 0 17 -3 23 -13c3 -4 8 -13 8 -24
c0 -7 -2 -12 -6 -16l-60 -59l60 -61c6 -5 10 -13 10 -22c0 -7 -3 -17 -9 -22z" />
    <glyph glyph-name="notequal" unicode="&#x2260;" horiz-adv-x="341" 
d="M246 414c6 -5 10 -11 10 -19c0 -4 -2 -10 -4 -13l-8 -12h33c17 0 32 -13 32 -30c-2 -13 -10 -34 -28 -34h-78l-21 -35h95c17 0 32 -12 32 -30c-2 -12 -8 -34 -28 -34h-140l-28 -43c-3 -3 -10 -9 -18 -9c-5 0 -10 1 -14 4c-9 6 -13 12 -13 20c0 4 2 8 6 15l8 13h-22
c-12 0 -28 13 -28 34c0 18 10 30 29 30h62l22 35h-95c-15 0 -18 19 -18 34c0 17 10 30 29 30h125l19 31c6 9 18 18 27 18c4 0 9 -2 14 -5z" />
    <glyph glyph-name="percent" unicode="%" horiz-adv-x="585" 
d="M29 558c0 84 54 134 127 134c69 0 119 -60 119 -134c0 -60 -43 -127 -127 -127c-72 0 -115 64 -119 127zM461 668c7 21 24 22 38 22c19 0 42 -3 42 -27c0 -1 -1 -6 -1 -9c-7 -5 -416 -616 -420 -622c-9 -14 -16 -26 -42 -26c-20 0 -37 0 -37 26c0 8 9 34 16 47zM109 566
c0 -35 13 -64 41 -64c31 0 48 27 48 57c0 36 -12 61 -43 61c-29 0 -43 -18 -46 -54zM328 142c0 84 53 133 127 133c69 0 119 -60 119 -133c0 -61 -43 -128 -127 -128c-72 0 -115 64 -119 128zM408 149c0 -35 12 -64 41 -64c31 0 48 27 48 58c0 35 -12 60 -43 60
c-30 0 -43 -18 -46 -54z" />
    <glyph glyph-name="perthousand" unicode="&#x2030;" horiz-adv-x="895" 
d="M30 558c0 84 54 134 127 134c69 0 119 -60 119 -134c0 -60 -43 -127 -127 -127c-72 0 -115 64 -119 127zM462 668c7 21 24 22 38 22c19 0 42 -3 42 -27c0 -1 -1 -6 -1 -9c-7 -5 -416 -616 -420 -622c-9 -14 -16 -26 -42 -26c-20 0 -37 0 -37 26c0 8 9 34 16 47zM110 566
c0 -35 13 -64 41 -64c31 0 48 27 48 57c0 36 -12 61 -43 61c-29 0 -43 -18 -46 -54zM329 142c0 84 53 133 127 133c69 0 119 -60 119 -133c0 -61 -43 -128 -127 -128c-72 0 -115 64 -119 128zM608 142c0 84 53 133 127 133c69 0 119 -60 119 -133c0 -61 -43 -128 -127 -128
c-72 0 -115 64 -119 128zM409 149c0 -35 12 -64 41 -64c31 0 48 27 48 58c0 35 -12 60 -43 60c-30 0 -43 -18 -46 -54zM688 149c0 -35 12 -64 41 -64c31 0 48 27 48 58c0 35 -12 60 -43 60c-30 0 -43 -18 -46 -54z" />
    <glyph glyph-name="plus" unicode="+" horiz-adv-x="352" 
d="M318 297c-2 -12 -7 -34 -27 -34h-90v-104c0 -14 -14 -17 -23 -17h-9c-18 0 -32 10 -32 28v93h-87c-12 0 -27 8 -27 34c0 17 9 30 28 30h86v79c0 18 12 32 30 32c24 0 34 -20 34 -28v-83h86c17 0 31 -13 31 -30z" />
    <glyph glyph-name="plusminus" unicode="&#xb1;" horiz-adv-x="353" 
d="M313 343c-1 -12 -7 -34 -27 -34h-85v-89c0 -14 -9 -18 -18 -18h-7c-3 0 -6 1 -9 1c-18 0 -30 10 -30 27v79h-82c-12 0 -28 11 -28 34c0 17 10 30 29 30h81v74c0 18 12 32 30 32c23 0 34 -19 34 -28v-78h81c17 0 31 -13 31 -30zM301 162c-3 -12 -9 -31 -28 -31h-205
c-21 0 -32 10 -32 25c0 2 2 36 29 36h205c16 0 31 -12 31 -30z" />
    <glyph glyph-name="bar" unicode="|" horiz-adv-x="224" 
d="M150 698l3 -665v-20c0 -16 -3 -43 -26 -43c-31 0 -47 18 -51 43c0 3 -1 91 -1 210c0 205 0 484 -2 492c6 15 20 22 34 22c19 0 43 -12 43 -39z" />
    <glyph glyph-name="brokenbar" unicode="&#xa6;" horiz-adv-x="224" 
d="M151 413c-4 -16 -30 -21 -42 -21c-13 0 -24 6 -34 17c0 162 -1 301 -2 307c6 14 20 21 34 21c18 0 43 -14 43 -39c1 -99 1 -213 1 -285zM77 285c12 24 33 24 44 24c16 0 27 -11 31 -21l1 -275c0 -12 -1 -20 -3 -26c-6 -11 -13 -17 -23 -17c-31 0 -46 15 -50 37
c-2 16 -2 142 -2 274z" />
    <glyph glyph-name="at" unicode="@" horiz-adv-x="554" 
d="M318 653c158 -6 197 -163 197 -273c0 -98 -58 -179 -153 -179c-18 0 -33 10 -44 24l-20 -10c-23 -15 -46 -29 -75 -29c-70 0 -71 112 -71 118c5 75 53 205 146 205c12 0 23 -3 34 -10c6 0 10 1 14 1c7 0 12 -2 23 -8c5 -7 8 -15 8 -24c0 -19 -1 -38 -2 -60
c-1 -21 -3 -48 -3 -69c0 -28 -1 -81 15 -81c35 0 50 101 50 135c0 106 -34 204 -135 204c-133 0 -184 -151 -184 -276c0 -136 59 -221 186 -221c54 0 129 42 174 100c27 -3 55 -16 49 -40c-9 -35 -78 -123 -230 -123c-206 0 -257 144 -257 289c0 205 87 328 263 328z
M290 456c-29 -15 -58 -101 -58 -162c0 -28 8 -46 33 -46c12 0 36 13 34 24c-6 36 -7 62 -7 89c0 28 6 58 16 93c-2 2 -5 3 -8 3z" />
    <glyph glyph-name="ampersand" unicode="&#x26;" horiz-adv-x="550" 
d="M261 206c2 -15 13 -22 13 -43c0 -19 -19 -28 -35 -28c-20 0 -44 11 -44 56c0 38 20 72 43 91c33 28 81 35 121 40l24 3c39 6 57 15 57 36c0 14 -9 19 -18 24c-13 6 -24 12 -24 30c0 29 6 34 32 34c41 0 70 -43 70 -73c0 -101 -93 -113 -114 -115c2 -16 3 -32 3 -47
c0 -134 -52 -215 -160 -215c-46 0 -159 20 -159 193c0 77 2 161 107 222c-23 14 -58 38 -58 129c0 70 37 154 127 154c64 0 109 -49 109 -137c0 -27 -21 -35 -43 -35c-12 0 -23 14 -24 24c-3 29 0 85 -45 85c-35 0 -49 -56 -49 -91c0 -54 18 -93 58 -96h28
c18 0 34 -6 34 -27s-13 -35 -34 -35c-111 0 -137 -97 -137 -183c0 -87 28 -143 89 -143c67 0 78 64 80 74c2 11 6 42 6 75c0 19 -2 37 -6 48c-28 -4 -45 -23 -51 -50z" />
    <glyph glyph-name="paragraph" unicode="&#xb6;" horiz-adv-x="380" 
d="M338 654c0 -642 3 -635 3 -641c0 -12 -1 -20 -3 -26c-2 -7 -13 -17 -22 -17c-32 0 -42 18 -47 43c0 3 -1 92 -1 210c0 162 1 320 0 401c-24 0 -42 1 -66 1c2 -455 3 -549 3 -592v-20c0 -12 -1 -20 -3 -26c-5 -11 -15 -17 -25 -17c-31 0 -43 16 -48 38c1 -4 -1 250 -4 458
c-59 4 -92 48 -92 113c0 74 44 101 80 108c31 7 70 9 103 9c57 0 122 -1 122 -42z" />
    <glyph glyph-name="copyright" unicode="&#xa9;" horiz-adv-x="515" 
d="M264 689c205 0 225 -224 225 -343c0 -239 -124 -323 -237 -323c-169 0 -228 151 -228 316c0 125 36 350 240 350zM256 85c99 0 159 115 159 265c0 96 -21 277 -161 277c-68 0 -155 -83 -155 -275c0 -118 38 -267 157 -267zM366 428c-7 -8 -21 -14 -35 -14
c-3 0 -19 4 -24 9l-3 16c-4 27 -9 64 -44 64c-48 0 -53 -105 -53 -148c0 -42 2 -138 49 -138c27 0 52 26 52 51v33c3 16 21 22 34 22c28 0 31 -18 31 -40c0 -74 -44 -129 -118 -129c-106 0 -127 117 -127 197c0 39 5 80 12 111c14 60 66 104 119 104c76 0 108 -67 109 -133z
" />
    <glyph glyph-name="registered" unicode="&#xae;" horiz-adv-x="342" 
d="M173 699c109 0 153 -96 153 -180c0 -128 -89 -175 -162 -175c-107 0 -153 88 -153 171c0 88 41 184 162 184zM165 387c74 0 103 74 103 132c0 80 -39 137 -100 137c-37 0 -100 -40 -100 -137c0 -57 21 -132 97 -132zM227 427c-3 -9 -20 -12 -24 -12c-8 0 -18 7 -19 14
c-3 14 -12 44 -21 60l-2 -60c0 -2 -14 -18 -26 -18c-14 0 -18 2 -18 14l1 176c0 19 21 35 49 35c31 0 57 -30 57 -62c0 -31 -3 -60 -25 -74c11 -17 23 -40 28 -73zM183 557c0 23 -8 34 -18 36v-65c11 0 18 12 18 29z" />
    <glyph glyph-name="section" unicode="&#xa7;" horiz-adv-x="369" 
d="M48 102c0 36 26 44 45 45c10 0 23 -2 23 -2c29 -73 58 -89 80 -89c15 0 31 11 31 30c0 46 -42 87 -83 130c-50 52 -104 107 -104 183c0 50 32 84 56 104c-20 30 -32 58 -32 86c0 66 49 111 119 111c36 0 72 -15 96 -41c24 -27 37 -57 37 -57v-6c0 -36 -26 -44 -44 -45
c-8 0 -24 2 -24 2c-27 75 -56 92 -78 92c-18 -2 -27 -9 -27 -30c3 -58 46 -100 89 -144c47 -49 96 -97 96 -171c0 -49 -31 -83 -57 -104c18 -28 31 -56 33 -84v-4c0 -42 -30 -106 -116 -110h-6c-83 0 -134 98 -134 98v6zM174 406c-15 17 -30 33 -44 51
c-7 -13 -10 -28 -10 -43c2 -20 9 -41 19 -57c15 -19 33 -40 54 -63l42 -49c4 12 9 26 9 43c0 20 -8 42 -26 66c-13 17 -27 34 -44 52z" />
    <glyph glyph-name="trademark" unicode="&#x2122;" horiz-adv-x="480" 
d="M383 688c9 4 26 7 36 7c12 0 19 -10 19 -27c0 -29 1 -57 1 -85c1 -54 2 -122 2 -176c0 -19 -9 -40 -37 -40c-7 0 -14 5 -17 21v166c-9 -42 -18 -80 -31 -127c-5 -16 -20 -21 -34 -21s-23 9 -26 21c-11 34 -28 88 -41 136v-56c0 -41 1 -83 1 -120c-1 -13 -16 -18 -26 -18
c-15 0 -25 17 -25 25c-1 16 -2 222 -2 281c6 17 26 21 37 21c10 0 22 -4 29 -9c44 -159 57 -219 57 -219c10 62 23 121 37 187c3 14 7 27 20 33zM121 386c0 -3 -15 -19 -30 -19c-22 0 -25 11 -25 23v17c0 23 1 109 1 171v61h-5c-21 0 -46 0 -52 4c-6 5 -8 21 -8 27
c0 16 7 21 22 21h139c11 0 27 -4 27 -17c0 -12 -1 -24 -13 -30c-4 -2 -45 -5 -55 -5c0 -63 -1 -124 -1 -168v-85z" />
    <glyph glyph-name="degree" unicode="&#xb0;" horiz-adv-x="222" 
d="M3 589c0 66 45 106 105 106c57 0 98 -50 98 -110c0 -51 -35 -107 -104 -107c-58 0 -98 52 -99 111zM70 592c0 -30 10 -55 34 -55s38 24 38 49c0 27 -11 49 -35 49c-23 0 -35 -15 -37 -43z" />
    <glyph glyph-name="asciicircum" unicode="^" horiz-adv-x="368" 
d="M361 391c-4 -16 -17 -30 -37 -30c-9 0 -20 4 -28 12c-17 16 -105 211 -109 221c-4 -8 -83 -163 -110 -203c-9 -15 -19 -28 -38 -28c-21 0 -32 18 -32 36c0 11 2 25 7 32l24 42c33 56 80 142 113 184c13 16 20 21 40 21c12 0 25 -4 39 -26c53 -88 131 -255 131 -255v-6z
" />
    <glyph glyph-name="dagger" unicode="&#x2020;" horiz-adv-x="300" 
d="M280 510c-2 -23 -9 -40 -27 -40h-72c1 -297 2 -402 2 -437v-20c0 -12 -1 -20 -3 -26c-5 -11 -12 -17 -22 -17c-31 0 -47 18 -52 43c0 3 -1 91 -1 210v247h-68c-29 0 -30 21 -30 41c0 19 13 33 31 33h67c-1 95 -1 167 -2 171c7 15 21 22 34 22c20 0 43 -12 43 -39v-154h69
c16 0 31 -15 31 -34z" />
    <glyph glyph-name="daggerdbl" unicode="&#x2021;" horiz-adv-x="287" 
d="M276 285c-2 -22 -9 -40 -27 -40h-68c0 -129 1 -187 1 -212v-20c0 -12 -1 -20 -3 -26c-6 -11 -12 -17 -22 -17c-31 0 -47 18 -52 43c0 3 -1 91 -1 210v22h-71c-29 0 -30 22 -30 41c0 20 13 33 31 33h70v151h-71c-29 0 -30 21 -30 41c0 19 13 33 31 33h70
c-1 95 -1 167 -2 171c7 15 21 22 34 22c20 0 43 -12 43 -39v-154h66c16 0 31 -15 31 -34c-2 -23 -9 -40 -27 -40h-69v-151h65c16 0 31 -14 31 -34z" />
    <glyph glyph-name="acutecomb" unicode="&#x301;" 
d="M-241 728c5 -4 7 -10 7 -14c0 -6 -3 -13 -9 -22c-19 -24 -74 -72 -90 -72c-20 0 -32 8 -32 20c0 13 11 30 19 40c1 1 29 40 50 53c6 3 13 6 17 6c8 0 27 -3 38 -11z" />
    <glyph glyph-name="uni0306" unicode="&#x306;" 
d="M-202 714c1 -1 1 -4 0 -6c0 0 -23 -80 -98 -80c-67 0 -99 42 -99 81c0 5 1 10 3 13c8 8 14 10 23 10c13 0 24 -6 28 -16c9 -18 21 -36 43 -36c18 0 38 24 47 44c5 10 14 10 20 10c14 0 26 -6 33 -20z" />
    <glyph glyph-name="uni030C" unicode="&#x30c;" 
d="M-198 715c0 -4 0 -7 -2 -9c0 0 -77 -77 -98 -78c-23 1 -46 22 -70 44l-26 21c-5 5 -7 13 -7 18c0 4 1 10 3 13c8 8 15 14 26 14c9 0 17 -6 30 -15l41 -31c7 6 34 29 53 40c5 3 12 6 16 6c14 0 29 -9 34 -23z" />
    <glyph glyph-name="uni0327" unicode="&#x327;" 
d="M-291 -13c53 -16 63 -40 63 -74c0 -57 -43 -76 -81 -76c-28 0 -63 11 -63 41c0 18 8 26 18 26c9 0 24 -10 36 -10c17 0 35 5 35 22c0 19 -39 24 -53 30c-21 9 -32 18 -32 40c0 11 7 26 16 42h61c-10 -17 -18 -31 -18 -37c5 -1 12 -2 18 -4z" />
    <glyph glyph-name="uni0302" unicode="&#x302;" 
d="M-198 658c2 -3 2 -7 2 -10c-6 -13 -20 -21 -34 -21c-7 0 -13 2 -16 4c-15 7 -54 42 -54 42c-8 -6 -28 -20 -45 -33c-12 -8 -19 -13 -30 -13c-12 0 -19 6 -26 12c-2 3 -3 9 -3 14s2 13 7 18l30 23c25 19 50 40 70 42c20 1 99 -78 99 -78z" />
    <glyph glyph-name="uni0326" unicode="&#x326;" 
d="M-334 -52c11 6 26 12 41 12c36 0 42 -25 42 -56c0 -24 -29 -102 -44 -124c-6 -7 -16 -12 -24 -12c-18 0 -29 22 -29 29c6 22 14 49 15 68c-14 11 -21 31 -21 49c0 13 7 27 20 34z" />
    <glyph glyph-name="uni0312" unicode="&#x312;" 
d="M-266 625c-11 -6 -26 -12 -41 -12c-36 0 -42 25 -42 56c0 24 29 102 44 124c6 7 16 12 24 12c18 0 29 -22 29 -29c-6 -22 -14 -49 -15 -68c14 -11 21 -31 21 -49c0 -13 -7 -27 -20 -34z" />
    <glyph glyph-name="uni0308" unicode="&#x308;" 
d="M-375 721c11 5 23 7 35 7c22 0 34 -16 34 -44c0 -27 -16 -39 -43 -39c-24 0 -42 24 -42 47c0 10 5 22 16 29zM-279 721c12 5 24 7 36 7c24 0 34 -16 34 -44c0 -27 -16 -39 -43 -39c-25 0 -42 24 -42 47c0 10 5 22 15 29z" />
    <glyph glyph-name="uni0307" unicode="&#x307;" 
d="M-327 721c11 4 23 9 35 9c31 0 35 -19 35 -46c0 -26 -16 -42 -43 -42c-25 0 -42 27 -42 50c0 10 4 22 15 29z" />
    <glyph glyph-name="gravecomb" unicode="&#x300;" 
d="M-359 727c12 9 32 12 40 12c6 0 7 -1 8 -1c27 -17 58 -58 58 -58c8 -10 19 -27 19 -40c0 -12 -12 -20 -32 -20c-16 0 -83 63 -90 74c-6 9 -9 16 -9 20s2 9 6 13z" />
    <glyph glyph-name="uni030B" unicode="&#x30b;" 
d="M-295 728c4 -3 6 -10 6 -14c0 -6 -3 -13 -8 -22c-19 -24 -75 -72 -90 -72c-21 0 -32 8 -32 20c0 13 10 30 19 40c1 1 28 40 50 53c6 3 13 6 16 6c8 0 28 -3 39 -11zM-187 728c5 -4 7 -10 7 -14c0 -6 -3 -13 -9 -22c-19 -24 -74 -72 -90 -72c-20 0 -32 8 -32 20
c0 13 11 30 19 40c1 1 29 40 50 53c6 3 13 6 17 6c8 0 27 -3 38 -11z" />
    <glyph glyph-name="uni0304" unicode="&#x304;" 
d="M-192 671c-3 -20 -7 -35 -23 -35h-166c-24 0 -26 19 -26 36c0 14 12 27 27 27h162c13 0 26 -15 26 -28z" />
    <glyph glyph-name="uni0328" unicode="&#x328;" 
d="M-262 62c0 -15 -8 -32 -13 -41c-9 -16 -20 -32 -30 -47c-8 -12 -11 -22 -11 -34s4 -21 14 -21c22 0 26 15 29 37c3 18 14 27 25 27c16 0 27 -9 27 -29c0 -19 -5 -40 -16 -54c-13 -16 -33 -30 -71 -30s-71 23 -71 66c0 46 31 98 69 126h48z" />
    <glyph glyph-name="uni030A" unicode="&#x30a;" 
d="M-360 685c0 36 28 59 61 59c34 0 59 -29 59 -61s-24 -59 -61 -59c-34 0 -59 28 -59 61zM-315 683c0 -7 7 -15 14 -15s17 6 17 18c0 6 -5 15 -17 15c-7 0 -14 -10 -14 -18z" />
    <glyph glyph-name="uni0337" unicode="&#x337;" 
d="M-163 470c13 -19 19 -35 8 -44l-247 -207c-18 -15 -32 0 -44 15c-11 13 -11 30 0 39l244 204c10 8 27 7 39 -7z" />
    <glyph glyph-name="uni0336" unicode="&#x336;" 
d="M-130 517c-2 -23 -8 -39 -22 -39h-291c-23 0 -24 20 -24 39c0 18 11 30 25 30h287c13 0 25 -12 25 -30z" />
    <glyph glyph-name="uni0335" unicode="&#x335;" 
d="M-174 343c-2 -23 -8 -39 -22 -39h-231c-23 0 -24 20 -24 39c0 18 11 30 25 30h227c13 0 25 -12 25 -30z" />
    <glyph glyph-name="tildecomb" unicode="&#x303;" 
d="M-410 666c0 17 28 66 75 66c19 0 33 -8 45 -16c9 -5 18 -12 33 -12c8 0 17 7 23 11c7 6 15 12 27 14c0 0 17 -9 17 -24c0 -35 -38 -69 -70 -69c-23 0 -36 9 -48 18c-10 6 -18 13 -26 13c-11 0 -18 -8 -24 -15c-7 -8 -14 -15 -26 -15s-26 8 -26 29z" />
    <glyph glyph-name="acutecomb.case" 
d="M-6 841c5 -4 7 -10 7 -14c0 -6 -3 -13 -9 -22c-19 -24 -74 -72 -90 -72c-20 0 -33 8 -33 20c0 13 12 30 20 40c1 1 29 40 50 53c6 3 13 6 17 6c8 0 27 -3 38 -11z" />
    <glyph glyph-name="uni0306.case" 
d="M-2 827c1 -1 1 -4 0 -6c0 0 -23 -80 -98 -80c-67 0 -99 42 -99 81c0 5 1 10 3 13c8 8 14 10 23 10c13 0 24 -6 28 -16c9 -18 21 -36 43 -36c18 0 38 24 47 44c5 10 14 10 20 10c14 0 26 -6 33 -20z" />
    <glyph glyph-name="uni030C.case" 
d="M1 828c0 -4 0 -7 -2 -9c0 0 -77 -77 -98 -78c-23 1 -46 22 -70 44l-26 21c-5 5 -7 13 -7 18c0 4 1 10 3 13c8 8 15 14 26 14c9 0 17 -6 30 -15l41 -31c7 6 34 29 53 40c5 3 12 6 16 6c14 0 29 -9 34 -23z" />
    <glyph glyph-name="uni0327.case" 
d="M-64 -40c53 -16 63 -40 63 -74c0 -57 -43 -76 -81 -76c-28 0 -63 11 -63 41c0 18 8 26 18 26c9 0 24 -10 36 -10c17 0 35 5 35 22c0 19 -39 24 -53 30c-21 9 -32 18 -32 40c0 11 7 26 16 42h61c-10 -17 -18 -31 -18 -37c5 -1 12 -2 18 -4z" />
    <glyph glyph-name="uni0302.case" 
d="M-3 771c2 -3 2 -7 2 -10c-6 -13 -20 -21 -34 -21c-7 0 -13 2 -16 4c-15 7 -54 42 -54 42c-8 -6 -28 -20 -45 -33c-12 -8 -19 -13 -30 -13c-12 0 -19 6 -26 12c-2 3 -3 9 -3 14s2 13 7 18l30 23c25 19 50 40 70 42c20 1 99 -78 99 -78z" />
    <glyph glyph-name="uni0308.case" 
d="M-166 834c11 5 23 7 35 7c22 0 34 -16 34 -44c0 -27 -16 -39 -43 -39c-24 0 -42 24 -42 47c0 10 5 22 16 29zM-70 834c12 5 24 7 36 7c24 0 34 -16 34 -44c0 -27 -16 -39 -43 -39c-25 0 -42 24 -42 47c0 10 5 22 15 29z" />
    <glyph glyph-name="uni0307.case" 
d="M-68 834c11 4 23 9 35 9c31 0 35 -19 35 -46c0 -26 -16 -42 -43 -42c-25 0 -43 27 -43 50c0 10 4 22 16 29z" />
    <glyph glyph-name="gravecomb.case" 
d="M-125 840c12 9 32 12 40 12c6 0 7 -1 8 -1c27 -17 58 -58 58 -58c8 -10 19 -27 19 -40c0 -12 -12 -20 -32 -20c-16 0 -83 63 -90 74c-6 9 -9 16 -9 20s2 9 6 13z" />
    </font>
</defs>
</svg>
