<?xml version="1.0" standalone="no"?>
<!DOCTYPE svg PUBLIC "-//W3C//DTD SVG 1.1//EN" "http://www.w3.org/Graphics/SVG/1.1/DTD/svg11.dtd" >
<svg xmlns="http://www.w3.org/2000/svg" xmlns:xlink="http://www.w3.org/1999/xlink" version="1.1">
<metadata>
Created by FontForge 20161116 at Thu Oct 15 03:08:42 2015
 By Jimmy Warting
Copyright \(c\) 2015 by DearType, Veneta Rangelova. All rights reserved.
</metadata>
<defs>
<font id="LifehackSans-Bold" horiz-adv-x="0" >
  <font-face 
    font-family="Lifehack Sans Bold"
    font-weight="800"
    font-stretch="normal"
    units-per-em="1000"
    panose-1="0 0 9 0 0 0 0 0 0 0"
    ascent="750"
    descent="-250"
    x-height="591"
    cap-height="717"
    bbox="-475 -272 857 894"
    underline-thickness="50"
    underline-position="-100"
    unicode-range="U+0020-2260"
  />
<missing-glyph horiz-adv-x="500" 
d="M410 750v-1000h-317v1000h317zM333 683h-165v-33h65v-37h-66v-33h166v33h-66v37h66v33zM267 554h-100v-104h166v34h-66v70zM233 520v-36h-33v36h33zM333 423h-166v-33h66v-37h-66v-33h100v70h66v33zM333 363h-33v-66h-133v-34h166v100zM333 241h-100v-56h34v23h33v-47
h-100v80h-33v-113h166v113zM333 68h-166v-113h166v113zM300 35v-47h-100v47h100zM333 -68h-166v-33h70l-70 -47v-33h166v33h-102l70 47h32v33z" />
    <glyph glyph-name=".notdef" horiz-adv-x="500" 
d="M410 750v-1000h-317v1000h317zM333 683h-165v-33h65v-37h-66v-33h166v33h-66v37h66v33zM267 554h-100v-104h166v34h-66v70zM233 520v-36h-33v36h33zM333 423h-166v-33h66v-37h-66v-33h100v70h66v33zM333 363h-33v-66h-133v-34h166v100zM333 241h-100v-56h34v23h33v-47
h-100v80h-33v-113h166v113zM333 68h-166v-113h166v113zM300 35v-47h-100v47h100zM333 -68h-166v-33h70l-70 -47v-33h166v33h-102l70 47h32v33z" />
    <glyph glyph-name="space" unicode=" " horiz-adv-x="243" 
 />
    <glyph glyph-name="A" unicode="A" horiz-adv-x="345" 
d="M336 52c1 -5 1 -11 1 -15c0 -33 -21 -50 -59 -51c-22 0 -30 21 -32 35l-25 203c-27 0 -63 -1 -89 -1l-6 -38c-8 -59 -20 -147 -30 -173c-9 -7 -48 -24 -59 -24c-17 0 -30 9 -30 38c0 6 0 13 3 24l23 138c23 138 45 281 74 422l3 13c8 44 20 96 84 96c53 0 62 -63 67 -107
c17 -128 34 -248 51 -379zM185 573c-5 -26 -14 -98 -19 -131l-20 -134c20 0 44 1 66 1z" />
    <glyph glyph-name="Aacute" unicode="&#xc1;" horiz-adv-x="345" 
d="M156 749c-25 0 -40 12 -40 30c0 17 12 35 21 46c2 2 31 45 51 57c6 3 15 7 21 7c9 0 30 -3 41 -12c9 -7 11 -16 11 -23c0 -8 -3 -16 -9 -25c-19 -27 -79 -80 -96 -80zM336 52c1 -5 1 -11 1 -15c0 -33 -21 -50 -59 -51c-22 0 -30 21 -32 35l-25 203c-27 0 -63 -1 -89 -1
l-6 -38c-8 -59 -20 -147 -30 -173c-9 -7 -48 -24 -59 -24c-17 0 -30 9 -30 38c0 6 0 13 3 24l23 138c23 138 45 281 74 422l3 13c8 44 20 96 84 96c53 0 62 -63 67 -107c17 -128 34 -248 51 -379zM185 573c-5 -26 -14 -98 -19 -131l-20 -134c20 0 44 1 66 1z" />
    <glyph glyph-name="Abreve" unicode="&#x102;" horiz-adv-x="345" 
d="M189 757c-71 0 -105 48 -105 92c0 7 2 14 4 18c10 11 21 15 32 15c17 0 28 -15 32 -26c8 -17 18 -32 35 -32c14 0 30 21 38 40c7 15 20 20 28 20c16 0 37 -13 37 -32c0 -3 0 -6 -1 -8c0 0 -19 -87 -100 -87zM336 52c1 -5 1 -11 1 -15c0 -33 -21 -50 -59 -51
c-22 0 -30 21 -32 35l-25 203c-27 0 -63 -1 -89 -1l-6 -38c-8 -59 -20 -147 -30 -173c-9 -7 -48 -24 -59 -24c-17 0 -30 9 -30 38c0 6 0 13 3 24l23 138c23 138 45 281 74 422l3 13c8 44 20 96 84 96c53 0 62 -63 67 -107c17 -128 34 -248 51 -379zM185 573
c-5 -26 -14 -98 -19 -131l-20 -134c20 0 44 1 66 1z" />
    <glyph glyph-name="Acircumflex" unicode="&#xc2;" horiz-adv-x="345" 
d="M112 761c-20 0 -36 9 -36 31c0 8 0 19 11 26l28 23c26 21 52 44 73 45c23 1 103 -83 103 -83c3 -4 5 -8 5 -13c0 -20 -27 -29 -42 -29c-9 0 -16 2 -21 5c-11 7 -49 42 -49 42c-10 -9 -24 -20 -37 -31c-13 -10 -21 -16 -35 -16zM336 52c1 -5 1 -11 1 -15
c0 -33 -21 -50 -59 -51c-22 0 -30 21 -32 35l-25 203c-27 0 -63 -1 -89 -1l-6 -38c-8 -59 -20 -147 -30 -173c-9 -7 -48 -24 -59 -24c-17 0 -30 9 -30 38c0 6 0 13 3 24l23 138c23 138 45 281 74 422l3 13c8 44 20 96 84 96c53 0 62 -63 67 -107c17 -128 34 -248 51 -379z
M185 573c-5 -26 -14 -98 -19 -131l-20 -134c20 0 44 1 66 1z" />
    <glyph glyph-name="Adieresis" unicode="&#xc4;" horiz-adv-x="345" 
d="M135 778c-27 0 -45 29 -45 56c0 13 5 27 18 34c9 5 22 10 36 10c33 0 38 -23 38 -52c0 -31 -17 -48 -47 -48zM241 778c-27 0 -45 29 -45 56c0 13 5 27 18 34c9 5 22 10 36 10c33 0 38 -23 38 -52c0 -31 -17 -48 -47 -48zM336 52c1 -5 1 -11 1 -15c0 -33 -21 -50 -59 -51
c-22 0 -30 21 -32 35l-25 203c-27 0 -63 -1 -89 -1l-6 -38c-8 -59 -20 -147 -30 -173c-9 -7 -48 -24 -59 -24c-17 0 -30 9 -30 38c0 6 0 13 3 24l23 138c23 138 45 281 74 422l3 13c8 44 20 96 84 96c53 0 62 -63 67 -107c17 -128 34 -248 51 -379zM185 573
c-5 -26 -14 -98 -19 -131l-20 -134c20 0 44 1 66 1z" />
    <glyph glyph-name="Agrave" unicode="&#xc0;" horiz-adv-x="345" 
d="M207 749c-17 0 -77 53 -96 80c-7 11 -11 19 -11 25c0 7 2 15 12 23c12 10 33 12 42 12c6 0 14 -4 20 -7c21 -13 49 -53 52 -56c8 -11 20 -29 20 -47s-15 -30 -39 -30zM336 52c1 -5 1 -11 1 -15c0 -33 -21 -50 -59 -51c-22 0 -30 21 -32 35l-25 203c-27 0 -63 -1 -89 -1
l-6 -38c-8 -59 -20 -147 -30 -173c-9 -7 -48 -24 -59 -24c-17 0 -30 9 -30 38c0 6 0 13 3 24l23 138c23 138 45 281 74 422l3 13c8 44 20 96 84 96c53 0 62 -63 67 -107c17 -128 34 -248 51 -379zM185 573c-5 -26 -14 -98 -19 -131l-20 -134c20 0 44 1 66 1z" />
    <glyph glyph-name="Amacron" unicode="&#x100;" horiz-adv-x="345" 
d="M107 771c-31 0 -33 19 -33 40c0 19 15 37 34 37h159c18 0 34 -19 34 -38c-3 -25 -8 -39 -32 -39h-162zM336 52c1 -5 1 -11 1 -15c0 -33 -21 -50 -59 -51c-22 0 -30 21 -32 35l-25 203c-27 0 -63 -1 -89 -1l-6 -38c-8 -59 -20 -147 -30 -173c-9 -7 -48 -24 -59 -24
c-17 0 -30 9 -30 38c0 6 0 13 3 24l23 138c23 138 45 281 74 422l3 13c8 44 20 96 84 96c53 0 62 -63 67 -107c17 -128 34 -248 51 -379zM185 573c-5 -26 -14 -98 -19 -131l-20 -134c20 0 44 1 66 1z" />
    <glyph glyph-name="Aogonek" unicode="&#x104;" horiz-adv-x="345" 
d="M336 -35c21 0 35 -11 35 -38c0 -21 -4 -50 -16 -67c-14 -18 -37 -28 -77 -28c-42 0 -79 26 -79 76c0 38 20 80 47 112v1l-25 203c-27 0 -63 -1 -89 -1l-6 -38c-8 -59 -20 -147 -30 -173c-9 -7 -48 -24 -59 -24c-17 0 -30 9 -30 38c0 6 0 13 3 24l23 138
c23 138 45 281 74 422l3 13c8 44 20 96 84 96c53 0 62 -63 67 -107c17 -128 34 -248 51 -379l24 -181c1 -5 1 -11 1 -15c0 -22 -9 -37 -26 -44c-1 -1 -2 -2 -2 -3c-14 -20 -32 -56 -32 -83c0 -5 2 -13 10 -13c9 0 16 14 20 28c7 22 14 43 29 43zM185 573
c-5 -26 -14 -98 -19 -131l-20 -134c20 0 44 1 66 1z" />
    <glyph glyph-name="Aring" unicode="&#xc5;" horiz-adv-x="345" 
d="M187 753c-38 0 -67 31 -67 69c0 45 30 69 69 72c39 0 65 -33 65 -71s-26 -70 -67 -70zM188 848c-9 0 -21 -10 -21 -23s12 -23 21 -23s22 10 22 23s-13 23 -22 23zM336 52c1 -5 1 -11 1 -15c0 -33 -21 -50 -59 -51c-22 0 -30 21 -32 35l-25 203c-27 0 -63 -1 -89 -1
l-6 -38c-8 -59 -20 -147 -30 -173c-9 -7 -48 -24 -59 -24c-17 0 -30 9 -30 38c0 6 0 13 3 24l23 138c23 138 45 281 74 422l3 13c8 44 20 96 84 96c53 0 62 -63 67 -107c17 -128 34 -248 51 -379zM185 573c-5 -26 -14 -98 -19 -131l-20 -134c20 0 44 1 66 1z" />
    <glyph glyph-name="Atilde" unicode="&#xc3;" horiz-adv-x="345" 
d="M109 767c-16 0 -34 11 -34 38c0 21 31 72 81 72c22 0 37 -9 50 -18c8 -5 15 -11 26 -11c18 0 30 24 51 27c0 0 24 -9 24 -30c0 -41 -42 -79 -77 -79c-25 0 -40 10 -52 20c-7 5 -16 11 -21 11c-18 0 -25 -30 -48 -30zM336 52c1 -5 1 -11 1 -15c0 -33 -21 -50 -59 -51
c-22 0 -30 21 -32 35l-25 203c-27 0 -63 -1 -89 -1l-6 -38c-8 -59 -20 -147 -30 -173c-9 -7 -48 -24 -59 -24c-17 0 -30 9 -30 38c0 6 0 13 3 24l23 138c23 138 45 281 74 422l3 13c8 44 20 96 84 96c53 0 62 -63 67 -107c17 -128 34 -248 51 -379zM185 573
c-5 -26 -14 -98 -19 -131l-20 -134c20 0 44 1 66 1z" />
    <glyph glyph-name="AE" unicode="&#xc6;" horiz-adv-x="447" 
d="M346 625c-21 0 -40 -1 -63 -2c3 -2 3 -67 3 -73c0 -61 -1 -90 -1 -109l-3 -60c8 -2 31 -1 79 -1c49 0 52 -21 52 -37c0 -34 -22 -39 -43 -39h-59c-14 0 -20 -1 -20 -6v-21c0 -8 1 -17 1 -27c0 -42 -1 -93 -2 -132c-1 -23 -1 -45 -1 -58l80 4c23 0 44 0 51 -14
c3 -8 4 -17 4 -25c0 -24 -18 -37 -35 -38c-31 -3 -88 -7 -128 -7c-50 0 -64 11 -64 59c1 107 3 187 3 267l-54 -2c-4 -2 -6 -45 -10 -68c-2 -17 -6 -36 -8 -53c-8 -61 -21 -152 -31 -177c-9 -7 -48 -24 -59 -24c-17 0 -30 9 -30 38c0 6 0 14 3 25l17 104
c27 165 60 361 85 462l3 10c14 43 29 89 86 89c16 0 32 -4 44 -14c31 10 75 17 108 17c31 0 72 -2 72 -45c0 -36 -28 -43 -71 -43h-9zM201 381v204c-10 -39 -20 -90 -28 -137c-5 -26 -5 -36 -11 -64z" />
    <glyph glyph-name="B" unicode="B" horiz-adv-x="334" 
d="M289 549c0 -73 -14 -121 -33 -152c12 -9 22 -19 32 -30c29 -35 33 -94 33 -128c0 -150 -8 -253 -137 -254h-120c-6 0 -13 2 -19 6c-15 11 -23 34 -23 49l5 600c15 75 89 79 138 79c108 0 124 -78 124 -170zM123 639c-2 -71 -3 -152 -4 -225c33 0 52 3 59 11
c20 23 20 84 20 122v23c0 41 -10 70 -47 70c-12 0 -28 0 -28 -1zM118 344v-278h54c42 0 60 51 60 102c0 12 1 25 1 35v16c0 74 -8 125 -74 125h-41z" />
    <glyph glyph-name="C" unicode="C" horiz-adv-x="340" 
d="M317 531c0 -7 -1 -13 -3 -18c-10 -13 -29 -20 -48 -20c-3 0 -27 6 -35 15c-1 4 -3 17 -4 31c-4 36 -9 98 -53 98c-37 0 -57 -81 -57 -129c0 -11 0 -28 -1 -46c-1 -28 -2 -69 -2 -109c0 -54 3 -103 3 -110c1 -50 4 -180 61 -180c30 0 57 37 61 87c1 12 1 28 0 43
c4 23 26 33 44 33c41 0 44 -26 44 -57c0 -29 -1 -59 -10 -84c-26 -66 -77 -104 -140 -104c-99 0 -140 77 -149 170c-6 69 -9 189 -9 250c0 51 3 122 16 182c22 102 82 134 145 134c69 0 105 -43 123 -99c11 -33 12 -46 14 -87z" />
    <glyph glyph-name="Cacute" unicode="&#x106;" horiz-adv-x="340" 
d="M257 876c9 -7 11 -16 11 -23c0 -8 -3 -16 -9 -25c-19 -27 -79 -80 -96 -80c-25 0 -40 12 -40 30c0 17 12 35 21 46c2 2 31 45 51 57c6 3 15 7 21 7c9 0 30 -3 41 -12zM317 531c0 -7 -1 -13 -3 -18c-10 -13 -29 -20 -48 -20c-3 0 -27 6 -35 15c-1 4 -3 17 -4 31
c-4 36 -9 98 -53 98c-37 0 -57 -81 -57 -129c0 -11 0 -28 -1 -46c-1 -28 -2 -69 -2 -109c0 -54 3 -103 3 -110c1 -50 4 -180 61 -180c30 0 57 37 61 87c1 12 1 28 0 43c4 23 26 33 44 33c41 0 44 -26 44 -57c0 -29 -1 -59 -10 -84c-26 -66 -77 -104 -140 -104
c-99 0 -140 77 -149 170c-6 69 -9 189 -9 250c0 51 3 122 16 182c22 102 82 134 145 134c69 0 105 -43 123 -99c11 -33 12 -46 14 -87z" />
    <glyph glyph-name="Ccaron" unicode="&#x10c;" horiz-adv-x="340" 
d="M300 858c1 -2 1 -4 1 -6c0 -5 -2 -9 -4 -13c0 0 -80 -84 -103 -83s-47 26 -74 48c-9 7 -11 9 -21 18c-10 10 -13 18 -13 28c0 7 1 14 4 18c8 12 20 14 32 14c13 0 22 -5 35 -17c17 -16 35 -31 35 -31c23 17 53 48 69 48s32 -7 39 -24zM317 531c0 -7 -1 -13 -3 -18
c-10 -13 -29 -20 -48 -20c-3 0 -27 6 -35 15c-1 4 -3 17 -4 31c-4 36 -9 98 -53 98c-37 0 -57 -81 -57 -129c0 -11 0 -28 -1 -46c-1 -28 -2 -69 -2 -109c0 -54 3 -103 3 -110c1 -50 4 -180 61 -180c30 0 57 37 61 87c1 12 1 28 0 43c4 23 26 33 44 33c41 0 44 -26 44 -57
c0 -29 -1 -59 -10 -84c-26 -66 -77 -104 -140 -104c-99 0 -140 77 -149 170c-6 69 -9 189 -9 250c0 51 3 122 16 182c22 102 82 134 145 134c69 0 105 -43 123 -99c11 -33 12 -46 14 -87z" />
    <glyph glyph-name="Ccedilla" unicode="&#xc7;" horiz-adv-x="340" 
d="M283 226c41 0 44 -26 44 -57c0 -29 -1 -59 -10 -84c-23 -58 -66 -95 -119 -102l-7 -15l8 -2c57 -16 68 -46 68 -85c0 -65 -47 -86 -87 -86c-32 0 -71 13 -71 51c0 25 13 30 25 30c5 0 11 -2 20 -6c4 -2 12 -4 16 -4c13 0 26 0 26 19c0 5 -8 8 -23 13l-24 9
c-24 9 -36 23 -36 49c0 10 4 21 10 34c-60 23 -88 87 -95 161c-6 69 -9 189 -9 250c0 51 3 122 16 182c22 102 82 134 145 134c69 0 105 -43 123 -99c11 -33 12 -46 14 -87c0 -7 -1 -13 -3 -18c-10 -13 -29 -20 -48 -20c-3 0 -27 6 -35 15c-1 4 -3 17 -4 31
c-4 36 -9 98 -53 98c-37 0 -57 -81 -57 -129c0 -11 0 -28 -1 -46c-1 -28 -2 -69 -2 -109c0 -54 3 -103 3 -110c1 -50 4 -180 61 -180c30 0 57 37 61 87c1 12 1 28 0 43c4 23 26 33 44 33z" />
    <glyph glyph-name="Cdotaccent" unicode="&#x10a;" horiz-adv-x="340" 
d="M164 868c14 6 27 11 40 11c37 0 42 -24 42 -56c0 -33 -19 -52 -51 -52c-29 0 -49 32 -49 60c0 13 5 28 18 37zM317 531c0 -7 -1 -13 -3 -18c-10 -13 -29 -20 -48 -20c-3 0 -27 6 -35 15c-1 4 -3 17 -4 31c-4 36 -9 98 -53 98c-37 0 -57 -81 -57 -129c0 -11 0 -28 -1 -46
c-1 -28 -2 -69 -2 -109c0 -54 3 -103 3 -110c1 -50 4 -180 61 -180c30 0 57 37 61 87c1 12 1 28 0 43c4 23 26 33 44 33c41 0 44 -26 44 -57c0 -29 -1 -59 -10 -84c-26 -66 -77 -104 -140 -104c-99 0 -140 77 -149 170c-6 69 -9 189 -9 250c0 51 3 122 16 182
c22 102 82 134 145 134c69 0 105 -43 123 -99c11 -33 12 -46 14 -87z" />
    <glyph glyph-name="D" unicode="D" horiz-adv-x="373" 
d="M60 705c12 4 29 4 38 4c198 0 258 -258 258 -374c0 -219 -90 -318 -212 -342c-12 -2 -31 -5 -51 -5c-31 0 -55 9 -59 39c-10 89 -7 221 -7 342v263c0 38 1 62 33 73zM266 334c0 99 -59 292 -140 294c-1 -86 -1 -159 -1 -222c0 -207 2 -307 2 -345c111 14 139 179 139 273
z" />
    <glyph glyph-name="Eth" unicode="&#xd0;" horiz-adv-x="373" 
d="M98 709c198 0 258 -258 258 -374c0 -219 -90 -318 -212 -342c-12 -2 -31 -5 -51 -5c-31 0 -55 9 -59 39c-8 75 -8 180 -7 284h-37c-31 0 -34 24 -34 48c0 28 12 46 34 46h37v227c0 38 1 62 33 73c12 4 29 4 38 4zM127 61c111 14 139 179 139 273c0 99 -59 292 -140 294
c-1 -86 -1 -159 -1 -222v-1h56c18 0 33 -20 33 -45c0 -29 -9 -49 -30 -49h-59z" />
    <glyph glyph-name="Dcaron" unicode="&#x10e;" horiz-adv-x="373" 
d="M284 858c1 -2 1 -4 1 -6c0 -5 -2 -9 -4 -13c0 0 -80 -84 -103 -83s-47 26 -74 48c-9 7 -11 9 -21 18c-10 10 -13 18 -13 28c0 7 1 14 4 18c8 12 20 14 32 14c13 0 22 -5 35 -17c17 -16 35 -31 35 -31c23 17 53 48 69 48s32 -7 39 -24zM60 705c12 4 29 4 38 4
c198 0 258 -258 258 -374c0 -219 -90 -318 -212 -342c-12 -2 -31 -5 -51 -5c-31 0 -55 9 -59 39c-10 89 -7 221 -7 342v263c0 38 1 62 33 73zM266 334c0 99 -59 292 -140 294c-1 -86 -1 -159 -1 -222c0 -207 2 -307 2 -345c111 14 139 179 139 273z" />
    <glyph glyph-name="Dcroat" unicode="&#x110;" horiz-adv-x="373" 
d="M98 709c198 0 258 -258 258 -374c0 -219 -90 -318 -212 -342c-12 -2 -31 -5 -51 -5c-31 0 -55 9 -59 39c-8 75 -8 180 -7 284h-37c-31 0 -34 24 -34 48c0 28 12 46 34 46h37v227c0 38 1 62 33 73c12 4 29 4 38 4zM127 61c111 14 139 179 139 273c0 99 -59 292 -140 294
c-1 -86 -1 -159 -1 -222v-1h56c18 0 33 -20 33 -45c0 -29 -9 -49 -30 -49h-59z" />
    <glyph glyph-name="E" unicode="E" horiz-adv-x="267" 
d="M110 623c3 -2 3 -67 3 -73c0 -61 -1 -90 -1 -109v-23l-1 -26h76c50 0 53 -11 53 -47c0 -26 -22 -39 -43 -39h-59c-15 0 -20 -1 -20 -6v-53c0 -42 0 -89 -1 -128l-1 -59c27 0 56 4 80 4c36 0 55 -7 55 -39c0 -24 -18 -37 -35 -38c-32 -3 -88 -7 -129 -7
c-49 0 -64 11 -64 59v54c3 88 3 246 3 358c0 70 0 123 1 130c2 36 1 84 19 115c10 14 39 18 73 18c10 0 21 -1 31 -1h30c53 0 73 -2 73 -45c0 -36 -8 -43 -72 -43h-8z" />
    <glyph glyph-name="Eacute" unicode="&#xc9;" horiz-adv-x="267" 
d="M208 876c9 -7 11 -16 11 -23c0 -8 -3 -16 -9 -25c-19 -27 -79 -80 -96 -80c-25 0 -40 12 -40 30c0 17 12 35 21 46c2 2 31 45 51 57c6 3 15 7 21 7c9 0 30 -3 41 -12zM110 623c3 -2 3 -67 3 -73c0 -61 -1 -90 -1 -109v-23l-1 -26h76c50 0 53 -11 53 -47
c0 -26 -22 -39 -43 -39h-59c-15 0 -20 -1 -20 -6v-53c0 -42 0 -89 -1 -128l-1 -59c27 0 56 4 80 4c36 0 55 -7 55 -39c0 -24 -18 -37 -35 -38c-32 -3 -88 -7 -129 -7c-49 0 -64 11 -64 59v54c3 88 3 246 3 358c0 70 0 123 1 130c2 36 1 84 19 115c10 14 39 18 73 18
c10 0 21 -1 31 -1h30c53 0 73 -2 73 -45c0 -36 -8 -43 -72 -43h-8z" />
    <glyph glyph-name="Ecaron" unicode="&#x11a;" horiz-adv-x="267" 
d="M251 858c1 -2 1 -4 1 -6c0 -5 -2 -9 -4 -13c0 0 -80 -84 -103 -83s-47 26 -74 48c-9 7 -11 9 -21 18c-10 10 -13 18 -13 28c0 7 1 14 4 18c8 12 20 14 32 14c13 0 22 -5 35 -17c17 -16 35 -31 35 -31c23 17 53 48 69 48s32 -7 39 -24zM110 623c3 -2 3 -67 3 -73
c0 -61 -1 -90 -1 -109v-23l-1 -26h76c50 0 53 -11 53 -47c0 -26 -22 -39 -43 -39h-59c-15 0 -20 -1 -20 -6v-53c0 -42 0 -89 -1 -128l-1 -59c27 0 56 4 80 4c36 0 55 -7 55 -39c0 -24 -18 -37 -35 -38c-32 -3 -88 -7 -129 -7c-49 0 -64 11 -64 59v54c3 88 3 246 3 358
c0 70 0 123 1 130c2 36 1 84 19 115c10 14 39 18 73 18c10 0 21 -1 31 -1h30c53 0 73 -2 73 -45c0 -36 -8 -43 -72 -43h-8z" />
    <glyph glyph-name="Ecircumflex" unicode="&#xca;" horiz-adv-x="267" 
d="M249 802c3 -4 5 -8 5 -13c0 -20 -27 -29 -42 -29c-9 0 -16 2 -21 5c-11 7 -49 42 -49 42c-10 -9 -24 -20 -37 -31c-13 -10 -21 -16 -35 -16c-20 0 -36 9 -36 31c0 8 0 19 11 26l28 23c26 21 52 44 73 45c23 1 103 -83 103 -83zM110 623c3 -2 3 -67 3 -73
c0 -61 -1 -90 -1 -109v-23l-1 -26h76c50 0 53 -11 53 -47c0 -26 -22 -39 -43 -39h-59c-15 0 -20 -1 -20 -6v-53c0 -42 0 -89 -1 -128l-1 -59c27 0 56 4 80 4c36 0 55 -7 55 -39c0 -24 -18 -37 -35 -38c-32 -3 -88 -7 -129 -7c-49 0 -64 11 -64 59v54c3 88 3 246 3 358
c0 70 0 123 1 130c2 36 1 84 19 115c10 14 39 18 73 18c10 0 21 -1 31 -1h30c53 0 73 -2 73 -45c0 -36 -8 -43 -72 -43h-8z" />
    <glyph glyph-name="Edieresis" unicode="&#xcb;" horiz-adv-x="267" 
d="M66 867c9 5 22 10 36 10c33 0 38 -23 38 -52c0 -31 -17 -48 -47 -48c-27 0 -45 29 -45 56c0 13 5 27 18 34zM172 867c9 5 22 10 36 10c33 0 38 -23 38 -52c0 -31 -17 -48 -47 -48c-27 0 -45 29 -45 56c0 13 5 27 18 34zM110 623c3 -2 3 -67 3 -73c0 -61 -1 -90 -1 -109
v-23l-1 -26h76c50 0 53 -11 53 -47c0 -26 -22 -39 -43 -39h-59c-15 0 -20 -1 -20 -6v-53c0 -42 0 -89 -1 -128l-1 -59c27 0 56 4 80 4c36 0 55 -7 55 -39c0 -24 -18 -37 -35 -38c-32 -3 -88 -7 -129 -7c-49 0 -64 11 -64 59v54c3 88 3 246 3 358c0 70 0 123 1 130
c2 36 1 84 19 115c10 14 39 18 73 18c10 0 21 -1 31 -1h30c53 0 73 -2 73 -45c0 -36 -8 -43 -72 -43h-8z" />
    <glyph glyph-name="Edotaccent" unicode="&#x116;" horiz-adv-x="267" 
d="M115 868c14 6 27 11 40 11c37 0 42 -24 42 -56c0 -33 -19 -52 -51 -52c-29 0 -49 32 -49 60c0 13 5 28 18 37zM110 623c3 -2 3 -67 3 -73c0 -61 -1 -90 -1 -109v-23l-1 -26h76c50 0 53 -11 53 -47c0 -26 -22 -39 -43 -39h-59c-15 0 -20 -1 -20 -6v-53
c0 -42 0 -89 -1 -128l-1 -59c27 0 56 4 80 4c36 0 55 -7 55 -39c0 -24 -18 -37 -35 -38c-32 -3 -88 -7 -129 -7c-49 0 -64 11 -64 59v54c3 88 3 246 3 358c0 70 0 123 1 130c2 36 1 84 19 115c10 14 39 18 73 18c10 0 21 -1 31 -1h30c53 0 73 -2 73 -45
c0 -36 -8 -43 -72 -43h-8z" />
    <glyph glyph-name="Egrave" unicode="&#xc8;" horiz-adv-x="267" 
d="M70 876c12 10 33 12 42 12c6 0 14 -4 20 -7c21 -13 49 -53 52 -56c8 -11 20 -29 20 -47s-15 -30 -39 -30c-17 0 -77 53 -96 80c-7 11 -11 19 -11 25c0 7 2 15 12 23zM110 623c3 -2 3 -67 3 -73c0 -61 -1 -90 -1 -109v-23l-1 -26h76c50 0 53 -11 53 -47
c0 -26 -22 -39 -43 -39h-59c-15 0 -20 -1 -20 -6v-53c0 -42 0 -89 -1 -128l-1 -59c27 0 56 4 80 4c36 0 55 -7 55 -39c0 -24 -18 -37 -35 -38c-32 -3 -88 -7 -129 -7c-49 0 -64 11 -64 59v54c3 88 3 246 3 358c0 70 0 123 1 130c2 36 1 84 19 115c10 14 39 18 73 18
c10 0 21 -1 31 -1h30c53 0 73 -2 73 -45c0 -36 -8 -43 -72 -43h-8z" />
    <glyph glyph-name="Emacron" unicode="&#x112;" horiz-adv-x="267" 
d="M259 809c-3 -25 -8 -39 -32 -39h-162c-31 0 -33 19 -33 40c0 19 15 37 34 37h159c18 0 34 -19 34 -38zM110 623c3 -2 3 -67 3 -73c0 -61 -1 -90 -1 -109v-23l-1 -26h76c50 0 53 -11 53 -47c0 -26 -22 -39 -43 -39h-59c-15 0 -20 -1 -20 -6v-53c0 -42 0 -89 -1 -128
l-1 -59c27 0 56 4 80 4c36 0 55 -7 55 -39c0 -24 -18 -37 -35 -38c-32 -3 -88 -7 -129 -7c-49 0 -64 11 -64 59v54c3 88 3 246 3 358c0 70 0 123 1 130c2 36 1 84 19 115c10 14 39 18 73 18c10 0 21 -1 31 -1h30c53 0 73 -2 73 -45c0 -36 -8 -43 -72 -43h-8z" />
    <glyph glyph-name="Eogonek" unicode="&#x118;" horiz-adv-x="267" 
d="M185 -16c-14 -20 -32 -56 -32 -83c0 -5 2 -13 10 -13c9 0 16 14 20 28c7 22 14 43 29 43c21 0 35 -11 35 -38c0 -21 -4 -50 -16 -67c-14 -18 -37 -28 -77 -28c-42 0 -79 26 -79 76c0 26 9 53 23 78h-11c-49 0 -64 11 -64 59v54c3 88 3 246 3 358c0 70 0 123 1 130
c2 36 1 84 19 115c10 14 39 18 73 18c10 0 21 -1 31 -1h30c53 0 73 -2 73 -45c0 -36 -8 -43 -72 -43h-8l-63 -2c3 -2 3 -67 3 -73c0 -61 -1 -90 -1 -109v-23l-1 -26h76c50 0 53 -11 53 -47c0 -26 -22 -39 -43 -39h-59c-15 0 -20 -1 -20 -6v-53c0 -42 0 -89 -1 -128l-1 -59
c27 0 56 4 80 4c36 0 55 -7 55 -39c0 -24 -18 -37 -35 -38z" />
    <glyph glyph-name="F" unicode="F" horiz-adv-x="292" 
d="M293 680c-2 -47 -22 -46 -54 -46c-15 0 -33 1 -50 1c-18 1 -37 1 -54 1c-6 0 -12 0 -19 -1c5 -76 5 -159 5 -222h49c30 0 74 5 74 -36c0 -10 0 -20 -1 -25c-6 -24 -63 -26 -105 -26h-21c-3 -65 -2 -225 -2 -283c0 -43 -7 -60 -48 -60c-38 0 -43 19 -43 55
c0 67 2 128 3 187c1 54 0 106 0 158c0 99 -3 241 -4 251c0 25 4 53 27 76c8 7 62 16 120 16c62 0 123 -11 123 -33v-13z" />
    <glyph glyph-name="G" unicode="G" horiz-adv-x="399" 
d="M201 267c-19 7 -28 14 -28 41c0 5 3 18 11 24c9 8 27 14 55 14c20 0 35 -1 50 0c14 0 31 -1 49 -1c17 0 41 -1 53 -8c10 -6 8 -15 8 -20c0 -10 -2 -19 -6 -28c-6 -12 -21 -19 -36 -20l-28 -3v-10c0 -13 1 -26 1 -40c0 -107 -15 -234 -152 -234c-103 0 -154 87 -154 186
c0 12 0 52 -1 99c-2 87 -5 205 -5 230c0 11 1 80 19 130c19 51 75 100 141 100c41 0 79 -22 90 -34c45 -49 48 -98 50 -163c-1 -12 -12 -18 -21 -23c-7 -4 -16 -9 -31 -9c-34 0 -37 29 -37 52c0 8 -2 13 -2 23c0 37 -10 81 -52 81c-45 0 -58 -72 -60 -114
c-1 -11 -1 -41 -1 -82c0 -43 1 -96 2 -148c1 -51 1 -101 1 -140c0 -42 22 -110 60 -110c43 0 66 64 66 120c0 25 -1 47 -1 66v17c-13 1 -25 2 -41 4z" />
    <glyph glyph-name="Gbreve" unicode="&#x11e;" horiz-adv-x="399" 
d="M247 883c16 0 37 -13 37 -32c0 -3 0 -6 -1 -8c0 0 -19 -87 -100 -87c-71 0 -105 48 -105 92c0 7 2 14 4 18c10 11 21 15 32 15c17 0 28 -15 32 -26c8 -17 18 -32 35 -32c14 0 30 21 38 40c7 15 20 20 28 20zM201 267c-19 7 -28 14 -28 41c0 5 3 18 11 24c9 8 27 14 55 14
c20 0 35 -1 50 0c14 0 31 -1 49 -1c17 0 41 -1 53 -8c10 -6 8 -15 8 -20c0 -10 -2 -19 -6 -28c-6 -12 -21 -19 -36 -20l-28 -3v-10c0 -13 1 -26 1 -40c0 -107 -15 -234 -152 -234c-103 0 -154 87 -154 186c0 12 0 52 -1 99c-2 87 -5 205 -5 230c0 11 1 80 19 130
c19 51 75 100 141 100c41 0 79 -22 90 -34c45 -49 48 -98 50 -163c-1 -12 -12 -18 -21 -23c-7 -4 -16 -9 -31 -9c-34 0 -37 29 -37 52c0 8 -2 13 -2 23c0 37 -10 81 -52 81c-45 0 -58 -72 -60 -114c-1 -11 -1 -41 -1 -82c0 -43 1 -96 2 -148c1 -51 1 -101 1 -140
c0 -42 22 -110 60 -110c43 0 66 64 66 120c0 25 -1 47 -1 66v17c-13 1 -25 2 -41 4z" />
    <glyph glyph-name="Gcommaaccent" unicode="&#x122;" horiz-adv-x="399" 
d="M201 267c-19 7 -28 14 -28 41c0 5 3 18 11 24c9 8 27 14 55 14c20 0 35 -1 50 0c14 0 31 -1 49 -1c17 0 41 -1 53 -8c10 -6 8 -15 8 -20c0 -10 -2 -19 -6 -28c-6 -12 -21 -19 -36 -20l-28 -3v-10c0 -13 1 -26 1 -40c0 -107 -15 -234 -152 -234c-103 0 -154 87 -154 186
c0 12 0 52 -1 99c-2 87 -5 205 -5 230c0 11 1 80 19 130c19 51 75 100 141 100c41 0 79 -22 90 -34c45 -49 48 -98 50 -163c-1 -12 -12 -18 -21 -23c-7 -4 -16 -9 -31 -9c-34 0 -37 29 -37 52c0 8 -2 13 -2 23c0 37 -10 81 -52 81c-45 0 -58 -72 -60 -114
c-1 -11 -1 -41 -1 -82c0 -43 1 -96 2 -148c1 -51 1 -101 1 -140c0 -42 22 -110 60 -110c43 0 66 64 66 120c0 25 -1 47 -1 66v17c-13 1 -25 2 -41 4zM134 -47c12 6 29 13 45 13c43 0 50 -30 50 -67c0 -26 -29 -112 -46 -133c-8 -10 -20 -15 -29 -15c-23 0 -39 29 -38 38
c5 13 12 41 16 66c-15 14 -20 34 -20 55c0 17 7 34 22 43z" />
    <glyph glyph-name="Gdotaccent" unicode="&#x120;" horiz-adv-x="399" 
d="M151 868c14 6 27 11 40 11c37 0 42 -24 42 -56c0 -33 -19 -52 -51 -52c-29 0 -49 32 -49 60c0 13 5 28 18 37zM201 267c-19 7 -28 14 -28 41c0 5 3 18 11 24c9 8 27 14 55 14c20 0 35 -1 50 0c14 0 31 -1 49 -1c17 0 41 -1 53 -8c10 -6 8 -15 8 -20c0 -10 -2 -19 -6 -28
c-6 -12 -21 -19 -36 -20l-28 -3v-10c0 -13 1 -26 1 -40c0 -107 -15 -234 -152 -234c-103 0 -154 87 -154 186c0 12 0 52 -1 99c-2 87 -5 205 -5 230c0 11 1 80 19 130c19 51 75 100 141 100c41 0 79 -22 90 -34c45 -49 48 -98 50 -163c-1 -12 -12 -18 -21 -23
c-7 -4 -16 -9 -31 -9c-34 0 -37 29 -37 52c0 8 -2 13 -2 23c0 37 -10 81 -52 81c-45 0 -58 -72 -60 -114c-1 -11 -1 -41 -1 -82c0 -43 1 -96 2 -148c1 -51 1 -101 1 -140c0 -42 22 -110 60 -110c43 0 66 64 66 120c0 25 -1 47 -1 66v17c-13 1 -25 2 -41 4z" />
    <glyph glyph-name="H" unicode="H" horiz-adv-x="337" 
d="M119 677c-2 -145 -3 -250 -3 -327c12 1 25 1 39 1c19 0 44 -1 61 -2l4 335c0 18 19 36 43 36c15 0 29 -7 48 -27c1 -38 1 -88 1 -135c0 -220 -5 -513 -6 -549c-17 -14 -39 -21 -56 -21c-16 0 -36 6 -36 26v127c0 42 0 90 1 127l-99 -1v-152c0 -54 0 -118 -35 -127h-17
c-25 0 -40 13 -40 44c0 66 1 124 1 176v113c0 136 -1 217 -1 267c0 59 1 76 2 89c3 34 25 35 47 35c19 0 46 -14 46 -35z" />
    <glyph glyph-name="Hbar" unicode="&#x126;" horiz-adv-x="337" 
d="M316 574c24 0 43 -17 43 -39c0 -25 -12 -43 -38 -43h-9c-1 -209 -5 -451 -6 -483c-17 -14 -39 -21 -56 -21c-16 0 -36 6 -36 26v127c0 42 0 90 1 127l-99 -1v-152c0 -54 0 -118 -35 -127h-17c-25 0 -40 13 -40 44c0 66 1 124 1 176v113c0 71 0 127 -1 171h-3
c-40 0 -44 21 -44 42c0 24 16 40 44 40h3v14c0 59 1 76 2 89c3 34 25 35 47 35c19 0 46 -14 46 -35c-1 -37 -1 -71 -1 -103h101l1 110c0 18 19 36 43 36c15 0 29 -7 48 -27c1 -34 1 -77 1 -119h4zM216 349l2 143h-101c-1 -56 -1 -103 -1 -142c12 1 25 1 39 1
c19 0 44 -1 61 -2z" />
    <glyph glyph-name="I" unicode="I" horiz-adv-x="271" 
d="M54 715c34 0 166 0 177 -7c9 -6 22 -21 22 -36c0 -8 -15 -39 -29 -39c-3 0 -13 -1 -28 -1c-5 0 -10 -1 -14 -1v-119c0 -98 -1 -196 -3 -275c-1 -48 -2 -106 -2 -134v-34h38c17 -7 30 -9 33 -27c0 -26 -4 -50 -24 -55c-5 -1 -19 -1 -34 -1c-32 0 -85 1 -117 2
c-10 0 -26 1 -29 1c-13 0 -29 38 -29 46c0 37 37 33 70 34v561h-6c-39 0 -62 4 -59 46c3 20 16 31 34 39z" />
    <glyph glyph-name="Iacute" unicode="&#xcd;" horiz-adv-x="271" 
d="M200 876c9 -7 11 -16 11 -23c0 -8 -3 -16 -9 -25c-19 -27 -79 -80 -96 -80c-25 0 -40 12 -40 30c0 17 12 35 21 46c2 2 31 45 51 57c6 3 15 7 21 7c9 0 30 -3 41 -12zM54 715c34 0 166 0 177 -7c9 -6 22 -21 22 -36c0 -8 -15 -39 -29 -39c-3 0 -13 -1 -28 -1
c-5 0 -10 -1 -14 -1v-119c0 -98 -1 -196 -3 -275c-1 -48 -2 -106 -2 -134v-34h38c17 -7 30 -9 33 -27c0 -26 -4 -50 -24 -55c-5 -1 -19 -1 -34 -1c-32 0 -85 1 -117 2c-10 0 -26 1 -29 1c-13 0 -29 38 -29 46c0 37 37 33 70 34v561h-6c-39 0 -62 4 -59 46c3 20 16 31 34 39z
" />
    <glyph glyph-name="Icircumflex" unicode="&#xce;" horiz-adv-x="271" 
d="M241 802c3 -4 5 -8 5 -13c0 -20 -27 -29 -42 -29c-9 0 -16 2 -21 5c-11 7 -49 42 -49 42c-10 -9 -24 -20 -37 -31c-13 -10 -21 -16 -35 -16c-20 0 -36 9 -36 31c0 8 0 19 11 26l28 23c26 21 52 44 73 45c23 1 103 -83 103 -83zM54 715c34 0 166 0 177 -7
c9 -6 22 -21 22 -36c0 -8 -15 -39 -29 -39c-3 0 -13 -1 -28 -1c-5 0 -10 -1 -14 -1v-119c0 -98 -1 -196 -3 -275c-1 -48 -2 -106 -2 -134v-34h38c17 -7 30 -9 33 -27c0 -26 -4 -50 -24 -55c-5 -1 -19 -1 -34 -1c-32 0 -85 1 -117 2c-10 0 -26 1 -29 1c-13 0 -29 38 -29 46
c0 37 37 33 70 34v561h-6c-39 0 -62 4 -59 46c3 20 16 31 34 39z" />
    <glyph glyph-name="Idieresis" unicode="&#xcf;" horiz-adv-x="271" 
d="M58 867c9 5 22 10 36 10c33 0 38 -23 38 -52c0 -31 -17 -48 -47 -48c-27 0 -45 29 -45 56c0 13 5 27 18 34zM164 867c9 5 22 10 36 10c33 0 38 -23 38 -52c0 -31 -17 -48 -47 -48c-27 0 -45 29 -45 56c0 13 5 27 18 34zM54 715c34 0 166 0 177 -7c9 -6 22 -21 22 -36
c0 -8 -15 -39 -29 -39c-3 0 -13 -1 -28 -1c-5 0 -10 -1 -14 -1v-119c0 -98 -1 -196 -3 -275c-1 -48 -2 -106 -2 -134v-34h38c17 -7 30 -9 33 -27c0 -26 -4 -50 -24 -55c-5 -1 -19 -1 -34 -1c-32 0 -85 1 -117 2c-10 0 -26 1 -29 1c-13 0 -29 38 -29 46c0 37 37 33 70 34v561
h-6c-39 0 -62 4 -59 46c3 20 16 31 34 39z" />
    <glyph glyph-name="Idotaccent" unicode="&#x130;" horiz-adv-x="271" 
d="M107 868c14 6 27 11 40 11c37 0 42 -24 42 -56c0 -33 -19 -52 -51 -52c-29 0 -49 32 -49 60c0 13 5 28 18 37zM54 715c34 0 166 0 177 -7c9 -6 22 -21 22 -36c0 -8 -15 -39 -29 -39c-3 0 -13 -1 -28 -1c-5 0 -10 -1 -14 -1v-119c0 -98 -1 -196 -3 -275
c-1 -48 -2 -106 -2 -134v-34h38c17 -7 30 -9 33 -27c0 -26 -4 -50 -24 -55c-5 -1 -19 -1 -34 -1c-32 0 -85 1 -117 2c-10 0 -26 1 -29 1c-13 0 -29 38 -29 46c0 37 37 33 70 34v561h-6c-39 0 -62 4 -59 46c3 20 16 31 34 39z" />
    <glyph glyph-name="Igrave" unicode="&#xcc;" horiz-adv-x="271" 
d="M62 876c12 10 33 12 42 12c6 0 14 -4 20 -7c21 -13 49 -53 52 -56c8 -11 20 -29 20 -47s-15 -30 -39 -30c-17 0 -77 53 -96 80c-7 11 -11 19 -11 25c0 7 2 15 12 23zM54 715c34 0 166 0 177 -7c9 -6 22 -21 22 -36c0 -8 -15 -39 -29 -39c-3 0 -13 -1 -28 -1
c-5 0 -10 -1 -14 -1v-119c0 -98 -1 -196 -3 -275c-1 -48 -2 -106 -2 -134v-34h38c17 -7 30 -9 33 -27c0 -26 -4 -50 -24 -55c-5 -1 -19 -1 -34 -1c-32 0 -85 1 -117 2c-10 0 -26 1 -29 1c-13 0 -29 38 -29 46c0 37 37 33 70 34v561h-6c-39 0 -62 4 -59 46c3 20 16 31 34 39z
" />
    <glyph glyph-name="Imacron" unicode="&#x12a;" horiz-adv-x="271" 
d="M251 809c-3 -25 -8 -39 -32 -39h-162c-31 0 -33 19 -33 40c0 19 15 37 34 37h159c18 0 34 -19 34 -38zM54 715c34 0 166 0 177 -7c9 -6 22 -21 22 -36c0 -8 -15 -39 -29 -39c-3 0 -13 -1 -28 -1c-5 0 -10 -1 -14 -1v-119c0 -98 -1 -196 -3 -275c-1 -48 -2 -106 -2 -134
v-34h38c17 -7 30 -9 33 -27c0 -26 -4 -50 -24 -55c-5 -1 -19 -1 -34 -1c-32 0 -85 1 -117 2c-10 0 -26 1 -29 1c-13 0 -29 38 -29 46c0 37 37 33 70 34v561h-6c-39 0 -62 4 -59 46c3 20 16 31 34 39z" />
    <glyph glyph-name="Iogonek" unicode="&#x12e;" horiz-adv-x="271" 
d="M215 69c17 -7 30 -9 33 -27c0 -26 -4 -50 -24 -55c-5 -1 -19 -1 -34 -1h-36c-1 -2 -2 -4 -3 -5c-14 -20 -32 -56 -32 -83c0 -5 2 -13 10 -13c9 0 16 14 20 28c7 22 14 43 29 43c21 0 35 -11 35 -38c0 -21 -4 -50 -16 -67c-14 -18 -37 -28 -77 -28c-42 0 -79 26 -79 76
c0 29 12 61 30 89c-10 0 -24 1 -27 1c-13 0 -29 38 -29 46c0 37 37 33 70 34v561h-6c-39 0 -62 4 -59 46c3 20 16 31 34 39c34 0 166 0 177 -7c9 -6 22 -21 22 -36c0 -8 -15 -39 -29 -39c-3 0 -13 -1 -28 -1c-5 0 -10 -1 -14 -1v-119c0 -98 -1 -196 -3 -275
c-1 -48 -2 -106 -2 -134v-34h38z" />
    <glyph glyph-name="J" unicode="J" horiz-adv-x="304" 
d="M198 706c9 8 29 13 47 13c35 0 38 -26 38 -53c0 -168 -5 -378 -12 -508c0 -96 -30 -179 -136 -179c-93 0 -118 95 -118 180l1 100c0 20 22 39 48 39c15 0 49 0 49 -58c0 -41 -2 -87 -2 -126c0 -28 4 -62 30 -62c31 0 36 36 36 73c0 95 0 176 2 264c2 83 2 174 2 255
c0 18 0 45 15 62z" />
    <glyph glyph-name="K" unicode="K" horiz-adv-x="304" 
d="M103 718c8 -3 14 -9 16 -16c4 -14 4 -56 4 -89c0 -36 -1 -75 -2 -112l-2 -63c25 70 52 165 68 218c6 19 23 51 32 56c5 3 15 3 27 3c18 0 37 -7 37 -31c0 -14 -7 -44 -12 -52c-8 -19 -26 -65 -46 -118c-25 -65 -53 -142 -69 -177c6 -14 13 -30 20 -43
c34 -64 52 -102 69 -141l41 -87c4 -7 14 -30 14 -50c0 -26 -25 -39 -45 -39c-35 0 -45 19 -59 52l-22 53c-18 47 -47 108 -64 151c-1 -64 -1 -166 -1 -200c0 -53 -18 -56 -45 -56c-10 0 -23 2 -30 5c-10 4 -15 27 -15 49c5 138 12 514 12 603c0 27 0 60 9 70
c12 13 19 18 37 18c6 0 18 0 26 -4z" />
    <glyph glyph-name="Kcommaaccent" unicode="&#x136;" horiz-adv-x="304" 
d="M103 718c8 -3 14 -9 16 -16c4 -14 4 -56 4 -89c0 -36 -1 -75 -2 -112l-2 -63c25 70 52 165 68 218c6 19 23 51 32 56c5 3 15 3 27 3c18 0 37 -7 37 -31c0 -14 -7 -44 -12 -52c-8 -19 -26 -65 -46 -118c-25 -65 -53 -142 -69 -177c6 -14 13 -30 20 -43
c34 -64 52 -102 69 -141l41 -87c4 -7 14 -30 14 -50c0 -26 -25 -39 -45 -39c-35 0 -45 19 -59 52l-22 53c-18 47 -47 108 -64 151c-1 -64 -1 -166 -1 -200c0 -53 -18 -56 -45 -56c-10 0 -23 2 -30 5c-10 4 -15 27 -15 49c5 138 12 514 12 603c0 27 0 60 9 70
c12 13 19 18 37 18c6 0 18 0 26 -4zM116 -37c12 6 29 13 45 13c43 0 50 -30 50 -67c0 -26 -29 -112 -46 -133c-8 -10 -20 -15 -29 -15c-23 0 -39 29 -38 38c5 13 12 41 16 66c-15 14 -20 34 -20 55c0 17 7 34 22 43z" />
    <glyph glyph-name="L" unicode="L" horiz-adv-x="253" 
d="M122 610c0 -70 0 -427 -4 -534l19 1h47c23 0 45 -1 58 -6c5 -2 15 -14 15 -29c0 -19 -3 -33 -20 -44c-16 -10 -52 -8 -90 -8c-50 0 -86 1 -107 15c-12 16 -14 38 -15 67c2 37 3 145 3 262c0 143 -1 304 -4 356c14 22 29 31 43 31c16 0 27 -8 34 -13c19 -14 21 -56 21 -98
z" />
    <glyph glyph-name="Lacute" unicode="&#x139;" horiz-adv-x="253" 
d="M161 876c9 -7 11 -16 11 -23c0 -8 -3 -16 -9 -25c-19 -27 -79 -80 -96 -80c-25 0 -40 12 -40 30c0 17 12 35 21 46c2 2 31 45 51 57c6 3 15 7 21 7c9 0 30 -3 41 -12zM122 610c0 -70 0 -427 -4 -534l19 1h47c23 0 45 -1 58 -6c5 -2 15 -14 15 -29c0 -19 -3 -33 -20 -44
c-16 -10 -52 -8 -90 -8c-50 0 -86 1 -107 15c-12 16 -14 38 -15 67c2 37 3 145 3 262c0 143 -1 304 -4 356c14 22 29 31 43 31c16 0 27 -8 34 -13c19 -14 21 -56 21 -98z" />
    <glyph glyph-name="Lcaron" unicode="&#x13d;" horiz-adv-x="280" 
d="M125 610c0 -70 0 -427 -4 -534l19 1h47c23 0 45 -1 58 -6c5 -2 15 -14 15 -29c0 -19 -3 -33 -20 -44c-16 -10 -52 -8 -90 -8c-50 0 -86 1 -107 15c-12 16 -14 38 -15 67c2 37 3 145 3 262c0 143 -1 304 -4 356c14 22 29 31 43 31c16 0 27 -8 34 -13c19 -14 21 -56 21 -98
zM197 706c12 6 29 13 45 13c43 0 50 -30 50 -67c0 -26 -29 -112 -46 -133c-8 -10 -20 -15 -29 -15c-23 0 -39 29 -38 38c5 13 12 41 16 66c-15 14 -20 34 -20 55c0 17 7 34 22 43z" />
    <glyph glyph-name="Lcommaaccent" unicode="&#x13b;" horiz-adv-x="253" 
d="M122 610c0 -70 0 -427 -4 -534l19 1h47c23 0 45 -1 58 -6c5 -2 15 -14 15 -29c0 -19 -3 -33 -20 -44c-16 -10 -52 -8 -90 -8c-50 0 -86 1 -107 15c-12 16 -14 38 -15 67c2 37 3 145 3 262c0 143 -1 304 -4 356c14 22 29 31 43 31c16 0 27 -8 34 -13c19 -14 21 -56 21 -98
zM91 -37c12 6 29 13 45 13c43 0 50 -30 50 -67c0 -26 -29 -112 -46 -133c-8 -10 -20 -15 -29 -15c-23 0 -39 29 -38 38c5 13 12 41 16 66c-15 14 -20 34 -20 55c0 17 7 34 22 43z" />
    <glyph glyph-name="Lslash" unicode="&#x141;" horiz-adv-x="253" 
d="M242 71c5 -2 15 -14 15 -29c0 -19 -3 -33 -20 -44c-16 -10 -52 -8 -90 -8c-50 0 -86 1 -107 15c-12 16 -14 38 -15 67c1 26 2 86 3 159c-24 -17 -39 -4 -53 12c-16 19 -16 40 2 54l51 42c0 142 -1 300 -4 351c14 22 29 31 43 31c16 0 27 -8 34 -13c19 -14 21 -56 21 -98
v-193l63 53c14 13 38 9 52 -7c16 -21 20 -40 4 -54l-120 -100c0 -95 -1 -187 -3 -233l19 1h47c23 0 45 -1 58 -6z" />
    <glyph glyph-name="M" unicode="M" horiz-adv-x="539" 
d="M413 700c6 3 7 12 44 12c24 0 39 -23 39 -59l2 -117c3 -149 5 -315 5 -467c0 -46 4 -87 -61 -87c-17 0 -32 8 -34 33c0 197 2 360 3 445l-20 -100c-16 -71 -27 -123 -56 -246c-14 -40 -42 -48 -70 -48c-27 0 -43 21 -51 46c-25 79 -63 238 -92 351l2 -162
c1 -96 2 -195 2 -278c-5 -30 -33 -37 -55 -37c-35 0 -40 36 -40 60c0 18 -2 208 -2 379c0 101 -1 198 -1 246c13 33 39 43 64 43c21 0 36 -9 48 -16c93 -360 132 -496 132 -496c27 128 86 388 97 424c9 36 17 61 44 74z" />
    <glyph glyph-name="N" unicode="N" horiz-adv-x="378" 
d="M28 658c4 33 29 48 69 48c14 -3 23 -13 40 -78c33 -119 88 -318 128 -448c-1 16 -3 80 -3 90c0 91 -6 210 -6 299v91c0 28 8 52 73 60c11 -4 14 -14 14 -27c0 -25 1 -91 2 -164c1 -113 3 -271 3 -369c0 -62 -1 -101 -3 -111c-4 -25 -45 -48 -76 -48c-20 0 -30 7 -37 25
l-117 386c1 -29 3 -108 3 -121c0 -130 4 -275 4 -275c-25 -25 -37 -29 -61 -29c-33 0 -35 82 -35 188v186c0 138 1 266 2 297z" />
    <glyph glyph-name="Nacute" unicode="&#x143;" horiz-adv-x="378" 
d="M253 876c9 -7 11 -16 11 -23c0 -8 -3 -16 -9 -25c-19 -27 -79 -80 -96 -80c-25 0 -40 12 -40 30c0 17 12 35 21 46c2 2 31 45 51 57c6 3 15 7 21 7c9 0 30 -3 41 -12zM28 658c4 33 29 48 69 48c14 -3 23 -13 40 -78c33 -119 88 -318 128 -448c-1 16 -3 80 -3 90
c0 91 -6 210 -6 299v91c0 28 8 52 73 60c11 -4 14 -14 14 -27c0 -25 1 -91 2 -164c1 -113 3 -271 3 -369c0 -62 -1 -101 -3 -111c-4 -25 -45 -48 -76 -48c-20 0 -30 7 -37 25l-117 386c1 -29 3 -108 3 -121c0 -130 4 -275 4 -275c-25 -25 -37 -29 -61 -29
c-33 0 -35 82 -35 188v186c0 138 1 266 2 297z" />
    <glyph glyph-name="Ncaron" unicode="&#x147;" horiz-adv-x="378" 
d="M296 858c1 -2 1 -4 1 -6c0 -5 -2 -9 -4 -13c0 0 -80 -84 -103 -83s-47 26 -74 48c-9 7 -11 9 -21 18c-10 10 -13 18 -13 28c0 7 1 14 4 18c8 12 20 14 32 14c13 0 22 -5 35 -17c17 -16 35 -31 35 -31c23 17 53 48 69 48s32 -7 39 -24zM28 658c4 33 29 48 69 48
c14 -3 23 -13 40 -78c33 -119 88 -318 128 -448c-1 16 -3 80 -3 90c0 91 -6 210 -6 299v91c0 28 8 52 73 60c11 -4 14 -14 14 -27c0 -25 1 -91 2 -164c1 -113 3 -271 3 -369c0 -62 -1 -101 -3 -111c-4 -25 -45 -48 -76 -48c-20 0 -30 7 -37 25l-117 386c1 -29 3 -108 3 -121
c0 -130 4 -275 4 -275c-25 -25 -37 -29 -61 -29c-33 0 -35 82 -35 188v186c0 138 1 266 2 297z" />
    <glyph glyph-name="Ncommaaccent" unicode="&#x145;" horiz-adv-x="378" 
d="M28 658c4 33 29 48 69 48c14 -3 23 -13 40 -78c33 -119 88 -318 128 -448c-1 16 -3 80 -3 90c0 91 -6 210 -6 299v91c0 28 8 52 73 60c11 -4 14 -14 14 -27c0 -25 1 -91 2 -164c1 -113 3 -271 3 -369c0 -62 -1 -101 -3 -111c-4 -25 -45 -48 -76 -48c-20 0 -30 7 -37 25
l-117 386c1 -29 3 -108 3 -121c0 -130 4 -275 4 -275c-25 -25 -37 -29 -61 -29c-33 0 -35 82 -35 188v186c0 138 1 266 2 297zM153 -37c12 6 29 13 45 13c43 0 50 -30 50 -67c0 -26 -29 -112 -46 -133c-8 -10 -20 -15 -29 -15c-23 0 -39 29 -38 38c5 13 12 41 16 66
c-15 14 -20 34 -20 55c0 17 7 34 22 43z" />
    <glyph glyph-name="Eng" unicode="&#x14a;" horiz-adv-x="375" 
d="M210 -76c24 0 38 20 38 55v54l-132 356c1 -34 2 -74 2 -89c0 -130 5 -292 5 -292c-9 -5 -38 -25 -60 -25c-33 0 -37 131 -37 266v112c0 138 1 267 2 298c3 26 27 45 67 45c25 -16 31 -43 37 -66l3 -12c34 -124 90 -314 132 -445c-1 49 -8 124 -10 176
c-2 76 -5 151 -5 212v91c0 28 8 52 75 60c5 -8 10 -15 14 -27c0 -25 1 -91 2 -164c1 -116 2 -266 2 -369c0 -195 -12 -230 -35 -264c-22 -32 -57 -53 -107 -53c-30 0 -54 10 -72 29c-8 9 -12 20 -12 31c0 22 15 42 38 42c5 0 9 0 17 -8c11 -8 21 -13 36 -13z" />
    <glyph glyph-name="Ntilde" unicode="&#xd1;" horiz-adv-x="378" 
d="M78 804c0 21 31 72 81 72c22 0 37 -9 50 -18c8 -5 15 -11 26 -11c18 0 30 24 51 27c0 0 24 -9 24 -30c0 -41 -42 -79 -77 -79c-25 0 -40 10 -52 20c-7 5 -16 11 -21 11c-18 0 -25 -30 -48 -30c-16 0 -34 11 -34 38zM28 658c4 33 29 48 69 48c14 -3 23 -13 40 -78
c33 -119 88 -318 128 -448c-1 16 -3 80 -3 90c0 91 -6 210 -6 299v91c0 28 8 52 73 60c11 -4 14 -14 14 -27c0 -25 1 -91 2 -164c1 -113 3 -271 3 -369c0 -62 -1 -101 -3 -111c-4 -25 -45 -48 -76 -48c-20 0 -30 7 -37 25l-117 386c1 -29 3 -108 3 -121
c0 -130 4 -275 4 -275c-25 -25 -37 -29 -61 -29c-33 0 -35 82 -35 188v186c0 138 1 266 2 297z" />
    <glyph glyph-name="O" unicode="O" horiz-adv-x="340" 
d="M320 536c0 -29 1 -56 2 -82c1 -22 1 -53 1 -73c0 -234 -31 -400 -145 -400c-62 0 -118 20 -142 142c-11 57 -18 138 -18 211c0 26 1 52 1 76v56c0 90 28 260 167 260c79 0 130 -102 134 -190zM173 60c42 0 55 163 55 306c0 75 -2 165 -8 204c-3 25 -22 73 -45 73
c-33 0 -62 -51 -62 -294c0 -83 5 -289 60 -289z" />
    <glyph glyph-name="Oacute" unicode="&#xd3;" horiz-adv-x="340" 
d="M238 876c9 -7 11 -16 11 -23c0 -8 -3 -16 -9 -25c-19 -27 -79 -80 -96 -80c-25 0 -40 12 -40 30c0 17 12 35 21 46c2 2 31 45 51 57c6 3 15 7 21 7c9 0 30 -3 41 -12zM320 536c0 -29 1 -56 2 -82c1 -22 1 -53 1 -73c0 -234 -31 -400 -145 -400c-62 0 -118 20 -142 142
c-11 57 -18 138 -18 211c0 26 1 52 1 76v56c0 90 28 260 167 260c79 0 130 -102 134 -190zM173 60c42 0 55 163 55 306c0 75 -2 165 -8 204c-3 25 -22 73 -45 73c-33 0 -62 -51 -62 -294c0 -83 5 -289 60 -289z" />
    <glyph glyph-name="Ocircumflex" unicode="&#xd4;" horiz-adv-x="340" 
d="M279 802c3 -4 5 -8 5 -13c0 -20 -27 -29 -42 -29c-9 0 -16 2 -21 5c-11 7 -49 42 -49 42c-10 -9 -24 -20 -37 -31c-13 -10 -21 -16 -35 -16c-20 0 -36 9 -36 31c0 8 0 19 11 26l28 23c26 21 52 44 73 45c23 1 103 -83 103 -83zM320 536c0 -29 1 -56 2 -82
c1 -22 1 -53 1 -73c0 -234 -31 -400 -145 -400c-62 0 -118 20 -142 142c-11 57 -18 138 -18 211c0 26 1 52 1 76v56c0 90 28 260 167 260c79 0 130 -102 134 -190zM173 60c42 0 55 163 55 306c0 75 -2 165 -8 204c-3 25 -22 73 -45 73c-33 0 -62 -51 -62 -294
c0 -83 5 -289 60 -289z" />
    <glyph glyph-name="Odieresis" unicode="&#xd6;" horiz-adv-x="340" 
d="M96 867c9 5 22 10 36 10c33 0 38 -23 38 -52c0 -31 -17 -48 -47 -48c-27 0 -45 29 -45 56c0 13 5 27 18 34zM202 867c9 5 22 10 36 10c33 0 38 -23 38 -52c0 -31 -17 -48 -47 -48c-27 0 -45 29 -45 56c0 13 5 27 18 34zM320 536c0 -29 1 -56 2 -82c1 -22 1 -53 1 -73
c0 -234 -31 -400 -145 -400c-62 0 -118 20 -142 142c-11 57 -18 138 -18 211c0 26 1 52 1 76v56c0 90 28 260 167 260c79 0 130 -102 134 -190zM173 60c42 0 55 163 55 306c0 75 -2 165 -8 204c-3 25 -22 73 -45 73c-33 0 -62 -51 -62 -294c0 -83 5 -289 60 -289z" />
    <glyph glyph-name="Ograve" unicode="&#xd2;" horiz-adv-x="340" 
d="M100 876c12 10 33 12 42 12c6 0 14 -4 20 -7c21 -13 49 -53 52 -56c8 -11 20 -29 20 -47s-15 -30 -39 -30c-17 0 -77 53 -96 80c-7 11 -11 19 -11 25c0 7 2 15 12 23zM320 536c0 -29 1 -56 2 -82c1 -22 1 -53 1 -73c0 -234 -31 -400 -145 -400c-62 0 -118 20 -142 142
c-11 57 -18 138 -18 211c0 26 1 52 1 76v56c0 90 28 260 167 260c79 0 130 -102 134 -190zM173 60c42 0 55 163 55 306c0 75 -2 165 -8 204c-3 25 -22 73 -45 73c-33 0 -62 -51 -62 -294c0 -83 5 -289 60 -289z" />
    <glyph glyph-name="Ohungarumlaut" unicode="&#x150;" horiz-adv-x="340" 
d="M186 876c9 -7 11 -16 11 -23c0 -8 -3 -16 -9 -25c-19 -27 -79 -80 -96 -80c-25 0 -40 12 -40 30c0 17 12 35 21 46c2 2 31 45 51 57c6 3 15 7 21 7c9 0 30 -3 41 -12zM310 876c9 -7 11 -16 11 -23c0 -8 -3 -16 -9 -25c-19 -27 -79 -80 -96 -80c-25 0 -40 12 -40 30
c0 17 12 35 21 46c2 2 31 45 51 57c6 3 15 7 21 7c9 0 30 -3 41 -12zM320 536c0 -29 1 -56 2 -82c1 -22 1 -53 1 -73c0 -234 -31 -400 -145 -400c-62 0 -118 20 -142 142c-11 57 -18 138 -18 211c0 26 1 52 1 76v56c0 90 28 260 167 260c79 0 130 -102 134 -190zM173 60
c42 0 55 163 55 306c0 75 -2 165 -8 204c-3 25 -22 73 -45 73c-33 0 -62 -51 -62 -294c0 -83 5 -289 60 -289z" />
    <glyph glyph-name="Omacron" unicode="&#x14c;" horiz-adv-x="340" 
d="M289 809c-3 -25 -8 -39 -32 -39h-162c-31 0 -33 19 -33 40c0 19 15 37 34 37h159c18 0 34 -19 34 -38zM320 536c0 -29 1 -56 2 -82c1 -22 1 -53 1 -73c0 -234 -31 -400 -145 -400c-62 0 -118 20 -142 142c-11 57 -18 138 -18 211c0 26 1 52 1 76v56c0 90 28 260 167 260
c79 0 130 -102 134 -190zM173 60c42 0 55 163 55 306c0 75 -2 165 -8 204c-3 25 -22 73 -45 73c-33 0 -62 -51 -62 -294c0 -83 5 -289 60 -289z" />
    <glyph glyph-name="Oslash" unicode="&#xd8;" horiz-adv-x="340" 
d="M298 732c23 0 50 -4 50 -37c0 -1 0 -10 -1 -14c-3 -2 -16 -36 -36 -86c5 -20 8 -40 9 -59c0 -29 1 -56 2 -82c1 -22 1 -53 1 -73c0 -234 -31 -400 -145 -400c-33 0 -64 6 -90 29c-2 -5 -3 -9 -4 -10c-10 -19 -17 -32 -49 -32c-23 0 -44 0 -44 36c0 9 7 35 13 46l31 80
c-11 57 -17 134 -17 204c0 26 1 52 1 76v56c0 90 28 260 167 260c25 0 47 -10 66 -27l1 4c9 28 30 29 45 29zM113 349v-13l100 262c-8 22 -22 45 -38 45c-33 0 -62 -51 -62 -294zM228 366v13c-19 -49 -38 -100 -56 -147c-15 -39 -29 -76 -41 -109c9 -37 22 -63 42 -63
c42 0 55 163 55 306z" />
    <glyph glyph-name="Otilde" unicode="&#xd5;" horiz-adv-x="340" 
d="M63 804c0 21 31 72 81 72c22 0 37 -9 50 -18c8 -5 15 -11 26 -11c18 0 30 24 51 27c0 0 24 -9 24 -30c0 -41 -42 -79 -77 -79c-25 0 -40 10 -52 20c-7 5 -16 11 -21 11c-18 0 -25 -30 -48 -30c-16 0 -34 11 -34 38zM320 536c0 -29 1 -56 2 -82c1 -22 1 -53 1 -73
c0 -234 -31 -400 -145 -400c-62 0 -118 20 -142 142c-11 57 -18 138 -18 211c0 26 1 52 1 76v56c0 90 28 260 167 260c79 0 130 -102 134 -190zM173 60c42 0 55 163 55 306c0 75 -2 165 -8 204c-3 25 -22 73 -45 73c-33 0 -62 -51 -62 -294c0 -83 5 -289 60 -289z" />
    <glyph glyph-name="OE" unicode="&#x152;" horiz-adv-x="450" 
d="M293 623c3 -2 3 -67 3 -73c0 -61 -1 -90 -1 -109l-3 -60c16 -1 54 -1 78 -1c50 0 53 -21 53 -37c0 -34 -22 -39 -43 -39h-59c-14 0 -20 -1 -20 -6v-48c0 -42 0 -91 -1 -131l-1 -59h6c31 0 49 4 74 4c23 0 43 0 50 -15c4 -7 5 -16 5 -24c0 -24 -18 -37 -35 -38
c-31 -3 -88 -7 -129 -7c-18 0 -32 2 -42 6c-14 -4 -29 -5 -42 -5c-63 0 -118 20 -142 142c-12 57 -18 138 -18 211c0 26 1 52 1 76v56c0 91 17 246 166 246c19 0 39 -9 55 -21c26 13 77 22 116 22c31 0 72 -2 72 -45c0 -36 -28 -43 -71 -43h-9zM180 65c3 0 14 2 27 7v21
c2 88 2 246 2 358c0 77 0 118 3 145c-10 17 -21 28 -30 28c-33 0 -62 -72 -62 -275c0 -83 6 -284 60 -284z" />
    <glyph glyph-name="P" unicode="P" horiz-adv-x="326" 
d="M27 640c15 74 88 81 138 81c54 0 101 -12 130 -61c18 -29 18 -82 18 -116c0 -75 -7 -169 -17 -200c-21 -71 -66 -100 -123 -100c-20 0 -49 2 -55 3c0 -2 0 -58 -1 -105v-34c-1 -39 1 -70 1 -70c0 -6 -15 -56 -54 -56c-29 0 -42 6 -42 33zM123 639c-2 -91 -3 -164 -3 -226
c0 -34 -1 -54 0 -87h40c42 0 60 50 60 101c0 12 1 45 1 72v37c0 64 -13 106 -70 106c-12 0 -28 -1 -28 -3z" />
    <glyph glyph-name="Thorn" unicode="&#xde;" horiz-adv-x="322" 
d="M127 606c13 3 26 5 38 5c102 0 141 -71 141 -177c0 -75 -7 -193 -16 -224c-22 -71 -67 -100 -124 -100c-12 0 -30 2 -44 5v-80c-2 -10 -17 -56 -54 -56c-32 0 -38 6 -38 33l5 662c0 24 21 48 49 48c15 0 31 -7 44 -29zM144 532c-4 0 -10 -2 -18 -6l-3 -322
c15 -6 31 -10 42 -11c39 1 49 92 49 146c0 12 1 37 1 58v29c0 64 -14 106 -71 106z" />
    <glyph glyph-name="Q" unicode="Q" horiz-adv-x="345" 
d="M318 536c0 -29 1 -56 2 -82c1 -22 1 -53 1 -73c0 -106 -7 -197 -24 -266c33 -39 52 -86 57 -130c0 -11 -29 -34 -50 -34c-11 0 -19 5 -25 18c-8 18 -15 36 -24 51c-20 -22 -49 -39 -80 -39c-63 0 -118 20 -142 142c-11 57 -18 138 -18 211c0 26 1 52 1 76v56
c0 90 17 260 167 260c79 0 130 -102 135 -190zM109 349c0 -37 1 -96 7 -151h5c31 0 65 -8 97 -22c6 55 8 124 8 190c0 75 -2 162 -8 202c-3 25 -23 75 -47 75c-32 0 -62 -51 -62 -294zM169 60c20 0 24 13 31 32c-18 13 -45 19 -70 22c9 -28 17 -54 39 -54z" />
    <glyph glyph-name="R" unicode="R" horiz-adv-x="331" 
d="M27 640c15 74 89 81 138 81c55 0 101 -12 130 -61c18 -29 18 -82 18 -116c0 -75 -7 -169 -16 -200c-13 -40 -32 -67 -57 -82c31 -48 77 -136 92 -261c-2 -2 -24 -22 -49 -22c-19 0 -45 21 -48 34c-12 66 -45 189 -95 231c-14 0 -20 -1 -24 -1c-1 -8 2 -82 2 -135
c0 -39 1 -70 1 -70c0 -6 -16 -56 -55 -56c-28 0 -42 6 -42 33zM123 639c-2 -91 -3 -166 -3 -228v-88h40c42 0 60 53 60 104c0 12 1 45 1 72v37c0 64 -13 106 -70 106c-11 0 -28 -1 -28 -3z" />
    <glyph glyph-name="Racute" unicode="&#x154;" horiz-adv-x="331" 
d="M240 876c9 -7 11 -16 11 -23c0 -8 -3 -16 -9 -25c-19 -27 -79 -80 -96 -80c-25 0 -40 12 -40 30c0 17 12 35 21 46c2 2 31 45 51 57c6 3 15 7 21 7c9 0 30 -3 41 -12zM27 640c15 74 89 81 138 81c55 0 101 -12 130 -61c18 -29 18 -82 18 -116c0 -75 -7 -169 -16 -200
c-13 -40 -32 -67 -57 -82c31 -48 77 -136 92 -261c-2 -2 -24 -22 -49 -22c-19 0 -45 21 -48 34c-12 66 -45 189 -95 231c-14 0 -20 -1 -24 -1c-1 -8 2 -82 2 -135c0 -39 1 -70 1 -70c0 -6 -16 -56 -55 -56c-28 0 -42 6 -42 33zM123 639c-2 -91 -3 -166 -3 -228v-88h40
c42 0 60 53 60 104c0 12 1 45 1 72v37c0 64 -13 106 -70 106c-11 0 -28 -1 -28 -3z" />
    <glyph glyph-name="Rcaron" unicode="&#x158;" horiz-adv-x="331" 
d="M283 858c1 -2 1 -4 1 -6c0 -5 -2 -9 -4 -13c0 0 -80 -84 -103 -83s-47 26 -74 48c-9 7 -11 9 -21 18c-10 10 -13 18 -13 28c0 7 1 14 4 18c8 12 20 14 32 14c13 0 22 -5 35 -17c17 -16 35 -31 35 -31c23 17 53 48 69 48s32 -7 39 -24zM27 640c15 74 89 81 138 81
c55 0 101 -12 130 -61c18 -29 18 -82 18 -116c0 -75 -7 -169 -16 -200c-13 -40 -32 -67 -57 -82c31 -48 77 -136 92 -261c-2 -2 -24 -22 -49 -22c-19 0 -45 21 -48 34c-12 66 -45 189 -95 231c-14 0 -20 -1 -24 -1c-1 -8 2 -82 2 -135c0 -39 1 -70 1 -70
c0 -6 -16 -56 -55 -56c-28 0 -42 6 -42 33zM123 639c-2 -91 -3 -166 -3 -228v-88h40c42 0 60 53 60 104c0 12 1 45 1 72v37c0 64 -13 106 -70 106c-11 0 -28 -1 -28 -3z" />
    <glyph glyph-name="Rcommaaccent" unicode="&#x156;" horiz-adv-x="331" 
d="M27 640c15 74 89 81 138 81c55 0 101 -12 130 -61c18 -29 18 -82 18 -116c0 -75 -7 -169 -16 -200c-13 -40 -32 -67 -57 -82c31 -48 77 -136 92 -261c-2 -2 -24 -22 -49 -22c-19 0 -45 21 -48 34c-12 66 -45 189 -95 231c-14 0 -20 -1 -24 -1c-1 -8 2 -82 2 -135
c0 -39 1 -70 1 -70c0 -6 -16 -56 -55 -56c-28 0 -42 6 -42 33zM123 639c-2 -91 -3 -166 -3 -228v-88h40c42 0 60 53 60 104c0 12 1 45 1 72v37c0 64 -13 106 -70 106c-11 0 -28 -1 -28 -3zM130 -37c12 6 29 13 45 13c43 0 50 -30 50 -67c0 -26 -29 -112 -46 -133
c-8 -10 -20 -15 -29 -15c-23 0 -39 29 -38 38c5 13 12 41 16 66c-15 14 -20 34 -20 55c0 17 7 34 22 43z" />
    <glyph glyph-name="S" unicode="S" horiz-adv-x="292" 
d="M154 720c108 0 124 -115 126 -192c0 -22 -4 -41 -33 -41c-26 0 -49 0 -60 34c0 3 -2 22 -3 39c-1 35 -4 87 -28 87c-33 0 -41 -36 -41 -75c0 -51 40 -111 74 -163c45 -65 92 -138 92 -222c0 -112 -33 -210 -148 -210c-79 0 -126 88 -126 166c0 32 12 62 51 62
c32 0 53 -18 53 -54c2 -27 2 -95 33 -95c37 0 42 63 42 96c0 71 -38 128 -75 183c-44 65 -92 135 -92 233c0 93 60 152 135 152z" />
    <glyph glyph-name="Sacute" unicode="&#x15a;" horiz-adv-x="292" 
d="M220 876c9 -7 11 -16 11 -23c0 -8 -3 -16 -9 -25c-19 -27 -79 -80 -96 -80c-25 0 -40 12 -40 30c0 17 12 35 21 46c2 2 31 45 51 57c6 3 15 7 21 7c9 0 30 -3 41 -12zM154 720c108 0 124 -115 126 -192c0 -22 -4 -41 -33 -41c-26 0 -49 0 -60 34c0 3 -2 22 -3 39
c-1 35 -4 87 -28 87c-33 0 -41 -36 -41 -75c0 -51 40 -111 74 -163c45 -65 92 -138 92 -222c0 -112 -33 -210 -148 -210c-79 0 -126 88 -126 166c0 32 12 62 51 62c32 0 53 -18 53 -54c2 -27 2 -95 33 -95c37 0 42 63 42 96c0 71 -38 128 -75 183c-44 65 -92 135 -92 233
c0 93 60 152 135 152z" />
    <glyph glyph-name="Scaron" unicode="&#x160;" horiz-adv-x="292" 
d="M263 858c1 -2 1 -4 1 -6c0 -5 -2 -9 -4 -13c0 0 -80 -84 -103 -83s-47 26 -74 48c-9 7 -11 9 -21 18c-10 10 -13 18 -13 28c0 7 1 14 4 18c8 12 20 14 32 14c13 0 22 -5 35 -17c17 -16 35 -31 35 -31c23 17 53 48 69 48s32 -7 39 -24zM154 720c108 0 124 -115 126 -192
c0 -22 -4 -41 -33 -41c-26 0 -49 0 -60 34c0 3 -2 22 -3 39c-1 35 -4 87 -28 87c-33 0 -41 -36 -41 -75c0 -51 40 -111 74 -163c45 -65 92 -138 92 -222c0 -112 -33 -210 -148 -210c-79 0 -126 88 -126 166c0 32 12 62 51 62c32 0 53 -18 53 -54c2 -27 2 -95 33 -95
c37 0 42 63 42 96c0 71 -38 128 -75 183c-44 65 -92 135 -92 233c0 93 60 152 135 152z" />
    <glyph glyph-name="Scedilla" unicode="&#x15e;" horiz-adv-x="292" 
d="M172 -47c57 -16 68 -46 68 -85c0 -65 -47 -86 -87 -86c-32 0 -71 13 -71 51c0 25 13 30 25 30c5 0 11 -2 20 -6c4 -2 12 -4 16 -4c13 0 26 0 26 19c0 5 -8 8 -23 13l-24 9c-24 9 -36 23 -36 49c0 11 6 25 13 40c-58 21 -92 94 -92 160c0 32 12 62 51 62
c32 0 53 -18 53 -54c2 -27 2 -95 33 -95c37 0 42 63 42 96c0 71 -38 128 -75 183c-44 65 -92 135 -92 233c0 93 60 152 135 152c108 0 124 -115 126 -192c0 -22 -4 -41 -33 -41c-26 0 -49 0 -60 34c0 3 -2 22 -3 39c-1 35 -4 87 -28 87c-33 0 -41 -36 -41 -75
c0 -51 40 -111 74 -163c45 -65 92 -138 92 -222c0 -96 -24 -181 -103 -204l-14 -28z" />
    <glyph glyph-name="Scommaaccent" unicode="&#x218;" horiz-adv-x="292" 
d="M154 720c108 0 124 -115 126 -192c0 -22 -4 -41 -33 -41c-26 0 -49 0 -60 34c0 3 -2 22 -3 39c-1 35 -4 87 -28 87c-33 0 -41 -36 -41 -75c0 -51 40 -111 74 -163c45 -65 92 -138 92 -222c0 -112 -33 -210 -148 -210c-79 0 -126 88 -126 166c0 32 12 62 51 62
c32 0 53 -18 53 -54c2 -27 2 -95 33 -95c37 0 42 63 42 96c0 71 -38 128 -75 183c-44 65 -92 135 -92 233c0 93 60 152 135 152zM110 -60c12 6 29 13 45 13c43 0 50 -30 50 -67c0 -26 -29 -112 -46 -133c-8 -10 -20 -15 -29 -15c-23 0 -39 29 -38 38c5 13 12 41 16 66
c-15 14 -20 34 -20 55c0 17 7 34 22 43z" />
    <glyph glyph-name="T" unicode="T" horiz-adv-x="286" 
d="M-8 679c3 16 17 31 34 38c38 0 231 0 242 -6c9 -5 24 -27 24 -39c0 -9 -17 -42 -30 -42c-19 0 -39 -2 -73 -2c0 -135 -1 -294 -2 -404c0 -43 -1 -121 -1 -139v-64c0 -5 -15 -39 -52 -39c-43 0 -48 20 -48 48c0 25 1 33 1 40c1 70 2 475 3 557h-28c-20 0 -40 0 -45 1
c-22 5 -26 25 -26 48z" />
    <glyph glyph-name="Tbar" unicode="&#x166;" horiz-adv-x="286" 
d="M256 447c21 0 39 -18 39 -41c0 -26 -11 -44 -35 -44h-72c0 -50 -1 -97 -1 -138c0 -43 -1 -121 -1 -139v-64c0 -5 -15 -39 -52 -39c-43 0 -48 20 -48 48c0 25 1 33 1 40c1 37 1 166 2 292h-58c-36 0 -40 22 -40 43c0 25 15 42 40 42h58c0 81 1 151 1 180h-28
c-20 0 -40 0 -45 1c-22 5 -26 25 -26 48l1 3c3 16 17 31 34 38c38 0 231 0 242 -6c9 -5 24 -27 24 -39c0 -9 -17 -42 -30 -42c-19 0 -39 -2 -73 -2v-181h67z" />
    <glyph glyph-name="Tcaron" unicode="&#x164;" horiz-adv-x="286" 
d="M253 858c1 -2 1 -4 1 -6c0 -5 -2 -9 -4 -13c0 0 -80 -84 -103 -83s-47 26 -74 48c-9 7 -11 9 -21 18c-10 10 -13 18 -13 28c0 7 1 14 4 18c8 12 20 14 32 14c13 0 22 -5 35 -17c17 -16 35 -31 35 -31c23 17 53 48 69 48s32 -7 39 -24zM-8 679c3 16 17 31 34 38
c38 0 231 0 242 -6c9 -5 24 -27 24 -39c0 -9 -17 -42 -30 -42c-19 0 -39 -2 -73 -2c0 -135 -1 -294 -2 -404c0 -43 -1 -121 -1 -139v-64c0 -5 -15 -39 -52 -39c-43 0 -48 20 -48 48c0 25 1 33 1 40c1 70 2 475 3 557h-28c-20 0 -40 0 -45 1c-22 5 -26 25 -26 48z" />
    <glyph glyph-name="uni0162" unicode="&#x162;" horiz-adv-x="286" 
d="M268 711c9 -5 24 -27 24 -39c0 -9 -17 -42 -30 -42c-19 0 -39 -2 -73 -2c0 -135 -1 -294 -2 -404c0 -43 -1 -121 -1 -139v-64c0 -3 -6 -18 -20 -29c-7 -12 -13 -24 -16 -30l8 -2c57 -16 68 -46 68 -85c0 -65 -47 -86 -87 -86c-32 0 -71 13 -71 51c0 25 13 30 25 30
c5 0 11 -2 20 -6c4 -2 12 -4 16 -4c13 0 26 0 26 19c0 5 -8 8 -23 13l-24 9c-24 9 -36 23 -36 49c0 14 8 32 19 50c-4 8 -5 18 -5 30c0 25 1 33 1 40c1 70 2 475 3 557h-28c-20 0 -40 0 -45 1c-22 5 -26 25 -26 48l1 3c3 16 17 31 34 38c38 0 231 0 242 -6z" />
    <glyph glyph-name="uni021A" unicode="&#x21a;" horiz-adv-x="286" 
d="M-8 679c3 16 17 31 34 38c38 0 231 0 242 -6c9 -5 24 -27 24 -39c0 -9 -17 -42 -30 -42c-19 0 -39 -2 -73 -2c0 -135 -1 -294 -2 -404c0 -43 -1 -121 -1 -139v-64c0 -5 -15 -39 -52 -39c-43 0 -48 20 -48 48c0 25 1 33 1 40c1 70 2 475 3 557h-28c-20 0 -40 0 -45 1
c-22 5 -26 25 -26 48zM96 -53c12 6 29 13 45 13c43 0 50 -30 50 -67c0 -26 -29 -112 -46 -133c-8 -10 -20 -15 -29 -15c-23 0 -39 29 -38 38c5 13 12 41 16 66c-15 14 -20 34 -20 55c0 17 7 34 22 43z" />
    <glyph glyph-name="U" unicode="U" horiz-adv-x="368" 
d="M23 676c13 21 28 36 55 36c47 0 47 -44 47 -70v-495c0 -34 20 -88 53 -88c55 0 64 125 64 222c0 49 1 95 2 139c1 42 0 82 0 123c0 34 0 83 -1 117c14 45 50 49 73 49c8 0 20 -2 29 -29c0 -78 -11 -506 -19 -544c-29 -143 -94 -159 -159 -159c-74 0 -105 48 -124 100
c-15 42 -18 252 -20 445l-2 145z" />
    <glyph glyph-name="Uacute" unicode="&#xda;" horiz-adv-x="368" 
d="M258 876c9 -7 11 -16 11 -23c0 -8 -3 -16 -9 -25c-19 -27 -79 -80 -96 -80c-25 0 -40 12 -40 30c0 17 12 35 21 46c2 2 31 45 51 57c6 3 15 7 21 7c9 0 30 -3 41 -12zM23 676c13 21 28 36 55 36c47 0 47 -44 47 -70v-495c0 -34 20 -88 53 -88c55 0 64 125 64 222
c0 49 1 95 2 139c1 42 0 82 0 123c0 34 0 83 -1 117c14 45 50 49 73 49c8 0 20 -2 29 -29c0 -78 -11 -506 -19 -544c-29 -143 -94 -159 -159 -159c-74 0 -105 48 -124 100c-15 42 -18 252 -20 445l-2 145z" />
    <glyph glyph-name="Ucircumflex" unicode="&#xdb;" horiz-adv-x="368" 
d="M299 802c3 -4 5 -8 5 -13c0 -20 -27 -29 -42 -29c-9 0 -16 2 -21 5c-11 7 -49 42 -49 42c-10 -9 -24 -20 -37 -31c-13 -10 -21 -16 -35 -16c-20 0 -36 9 -36 31c0 8 0 19 11 26l28 23c26 21 52 44 73 45c23 1 103 -83 103 -83zM23 676c13 21 28 36 55 36
c47 0 47 -44 47 -70v-495c0 -34 20 -88 53 -88c55 0 64 125 64 222c0 49 1 95 2 139c1 42 0 82 0 123c0 34 0 83 -1 117c14 45 50 49 73 49c8 0 20 -2 29 -29c0 -78 -11 -506 -19 -544c-29 -143 -94 -159 -159 -159c-74 0 -105 48 -124 100c-15 42 -18 252 -20 445l-2 145z
" />
    <glyph glyph-name="Udieresis" unicode="&#xdc;" horiz-adv-x="368" 
d="M116 867c9 5 22 10 36 10c33 0 38 -23 38 -52c0 -31 -17 -48 -47 -48c-27 0 -45 29 -45 56c0 13 5 27 18 34zM222 867c9 5 22 10 36 10c33 0 38 -23 38 -52c0 -31 -17 -48 -47 -48c-27 0 -45 29 -45 56c0 13 5 27 18 34zM23 676c13 21 28 36 55 36c47 0 47 -44 47 -70
v-495c0 -34 20 -88 53 -88c55 0 64 125 64 222c0 49 1 95 2 139c1 42 0 82 0 123c0 34 0 83 -1 117c14 45 50 49 73 49c8 0 20 -2 29 -29c0 -78 -11 -506 -19 -544c-29 -143 -94 -159 -159 -159c-74 0 -105 48 -124 100c-15 42 -18 252 -20 445l-2 145z" />
    <glyph glyph-name="Ugrave" unicode="&#xd9;" horiz-adv-x="368" 
d="M120 876c12 10 33 12 42 12c6 0 14 -4 20 -7c21 -13 49 -53 52 -56c8 -11 20 -29 20 -47s-15 -30 -39 -30c-17 0 -77 53 -96 80c-7 11 -11 19 -11 25c0 7 2 15 12 23zM23 676c13 21 28 36 55 36c47 0 47 -44 47 -70v-495c0 -34 20 -88 53 -88c55 0 64 125 64 222
c0 49 1 95 2 139c1 42 0 82 0 123c0 34 0 83 -1 117c14 45 50 49 73 49c8 0 20 -2 29 -29c0 -78 -11 -506 -19 -544c-29 -143 -94 -159 -159 -159c-74 0 -105 48 -124 100c-15 42 -18 252 -20 445l-2 145z" />
    <glyph glyph-name="Uhungarumlaut" unicode="&#x170;" horiz-adv-x="368" 
d="M206 876c9 -7 11 -16 11 -23c0 -8 -3 -16 -9 -25c-19 -27 -79 -80 -96 -80c-25 0 -40 12 -40 30c0 17 12 35 21 46c2 2 31 45 51 57c6 3 15 7 21 7c9 0 30 -3 41 -12zM330 876c9 -7 11 -16 11 -23c0 -8 -3 -16 -9 -25c-19 -27 -79 -80 -96 -80c-25 0 -40 12 -40 30
c0 17 12 35 21 46c2 2 31 45 51 57c6 3 15 7 21 7c9 0 30 -3 41 -12zM23 676c13 21 28 36 55 36c47 0 47 -44 47 -70v-495c0 -34 20 -88 53 -88c55 0 64 125 64 222c0 49 1 95 2 139c1 42 0 82 0 123c0 34 0 83 -1 117c14 45 50 49 73 49c8 0 20 -2 29 -29
c0 -78 -11 -506 -19 -544c-29 -143 -94 -159 -159 -159c-74 0 -105 48 -124 100c-15 42 -18 252 -20 445l-2 145z" />
    <glyph glyph-name="Umacron" unicode="&#x16a;" horiz-adv-x="368" 
d="M309 809c-3 -25 -8 -39 -32 -39h-162c-31 0 -33 19 -33 40c0 19 15 37 34 37h159c18 0 34 -19 34 -38zM23 676c13 21 28 36 55 36c47 0 47 -44 47 -70v-495c0 -34 20 -88 53 -88c55 0 64 125 64 222c0 49 1 95 2 139c1 42 0 82 0 123c0 34 0 83 -1 117c14 45 50 49 73 49
c8 0 20 -2 29 -29c0 -78 -11 -506 -19 -544c-29 -143 -94 -159 -159 -159c-74 0 -105 48 -124 100c-15 42 -18 252 -20 445l-2 145z" />
    <glyph glyph-name="Uogonek" unicode="&#x172;" horiz-adv-x="368" 
d="M326 136c-22 -106 -63 -142 -110 -154c-14 -20 -31 -55 -31 -82c0 -5 2 -13 10 -13c9 0 16 14 20 28c7 22 14 43 29 43c21 0 35 -11 35 -38c0 -21 -4 -50 -16 -67c-14 -18 -37 -28 -77 -28c-42 0 -79 26 -79 76c0 26 10 55 25 80c-50 13 -73 53 -89 96
c-15 42 -18 252 -20 445l-2 145l2 9c13 21 28 36 55 36c47 0 47 -44 47 -70v-495c0 -34 20 -88 53 -88c55 0 64 125 64 222c0 49 1 95 2 139c1 42 0 82 0 123c0 34 0 83 -1 117c14 45 50 49 73 49c8 0 20 -2 29 -29c0 -78 -11 -506 -19 -544z" />
    <glyph glyph-name="Uring" unicode="&#x16e;" horiz-adv-x="368" 
d="M128 821c0 45 30 69 69 72c39 0 65 -33 65 -71s-26 -70 -67 -70c-38 0 -67 31 -67 69zM175 824c0 -13 12 -23 21 -23s22 10 22 23s-13 23 -22 23s-21 -10 -21 -23zM23 676c13 21 28 36 55 36c47 0 47 -44 47 -70v-495c0 -34 20 -88 53 -88c55 0 64 125 64 222
c0 49 1 95 2 139c1 42 0 82 0 123c0 34 0 83 -1 117c14 45 50 49 73 49c8 0 20 -2 29 -29c0 -78 -11 -506 -19 -544c-29 -143 -94 -159 -159 -159c-74 0 -105 48 -124 100c-15 42 -18 252 -20 445l-2 145z" />
    <glyph glyph-name="V" unicode="V" horiz-adv-x="346" 
d="M204 375l56 318c12 23 31 25 45 25c25 0 35 -24 35 -48c0 -19 -2 -25 -4 -37l-3 -18c-22 -141 -62 -357 -99 -539c-11 -48 -16 -90 -73 -90c-51 0 -64 63 -71 106c-32 198 -55 357 -83 561c-2 10 -2 13 -2 15c0 38 10 47 51 49c17 -1 39 -14 41 -32
c6 -19 16 -108 23 -166c9 -86 15 -172 49 -392z" />
    <glyph glyph-name="W" unicode="W" horiz-adv-x="594" 
d="M451 375l53 318c13 23 34 25 48 25c25 0 35 -24 35 -48c0 -19 -4 -34 -6 -46l-108 -561c-11 -42 -20 -77 -70 -77c-51 0 -64 63 -71 106c-16 97 -29 193 -40 282c-20 -103 -43 -211 -68 -311c-10 -42 -20 -77 -69 -77c-52 0 -65 63 -72 106c-23 150 -41 279 -59 418
l-19 143c-2 9 -2 13 -2 15c0 38 10 47 51 49c17 -1 41 -14 44 -31c6 -26 10 -62 15 -117c8 -88 17 -208 53 -445c14 66 33 176 46 242l32 172c2 14 30 45 56 45h5c18 0 36 -13 41 -28c9 -34 10 -45 19 -110c10 -61 11 -120 44 -315z" />
    <glyph glyph-name="Wacute" unicode="&#x1e82;" horiz-adv-x="594" 
d="M361 876c9 -7 11 -16 11 -23c0 -8 -3 -16 -9 -25c-19 -27 -79 -80 -96 -80c-25 0 -40 12 -40 30c0 17 12 35 21 46c2 2 31 45 51 57c6 3 15 7 21 7c9 0 30 -3 41 -12zM451 375l53 318c13 23 34 25 48 25c25 0 35 -24 35 -48c0 -19 -4 -34 -6 -46l-108 -561
c-11 -42 -20 -77 -70 -77c-51 0 -64 63 -71 106c-16 97 -29 193 -40 282c-20 -103 -43 -211 -68 -311c-10 -42 -20 -77 -69 -77c-52 0 -65 63 -72 106c-23 150 -41 279 -59 418l-19 143c-2 9 -2 13 -2 15c0 38 10 47 51 49c17 -1 41 -14 44 -31c6 -26 10 -62 15 -117
c8 -88 17 -208 53 -445c14 66 33 176 46 242l32 172c2 14 30 45 56 45h5c18 0 36 -13 41 -28c9 -34 10 -45 19 -110c10 -61 11 -120 44 -315z" />
    <glyph glyph-name="Wcircumflex" unicode="&#x174;" horiz-adv-x="594" 
d="M402 802c3 -4 5 -8 5 -13c0 -20 -27 -29 -42 -29c-9 0 -16 2 -21 5c-11 7 -49 42 -49 42c-10 -9 -24 -20 -37 -31c-13 -10 -21 -16 -35 -16c-20 0 -36 9 -36 31c0 8 0 19 11 26l28 23c26 21 52 44 73 45c23 1 103 -83 103 -83zM451 375l53 318c13 23 34 25 48 25
c25 0 35 -24 35 -48c0 -19 -4 -34 -6 -46l-108 -561c-11 -42 -20 -77 -70 -77c-51 0 -64 63 -71 106c-16 97 -29 193 -40 282c-20 -103 -43 -211 -68 -311c-10 -42 -20 -77 -69 -77c-52 0 -65 63 -72 106c-23 150 -41 279 -59 418l-19 143c-2 9 -2 13 -2 15
c0 38 10 47 51 49c17 -1 41 -14 44 -31c6 -26 10 -62 15 -117c8 -88 17 -208 53 -445c14 66 33 176 46 242l32 172c2 14 30 45 56 45h5c18 0 36 -13 41 -28c9 -34 10 -45 19 -110c10 -61 11 -120 44 -315z" />
    <glyph glyph-name="Wdieresis" unicode="&#x1e84;" horiz-adv-x="594" 
d="M219 867c9 5 22 10 36 10c33 0 38 -23 38 -52c0 -31 -17 -48 -47 -48c-27 0 -45 29 -45 56c0 13 5 27 18 34zM325 867c9 5 22 10 36 10c33 0 38 -23 38 -52c0 -31 -17 -48 -47 -48c-27 0 -45 29 -45 56c0 13 5 27 18 34zM451 375l53 318c13 23 34 25 48 25
c25 0 35 -24 35 -48c0 -19 -4 -34 -6 -46l-108 -561c-11 -42 -20 -77 -70 -77c-51 0 -64 63 -71 106c-16 97 -29 193 -40 282c-20 -103 -43 -211 -68 -311c-10 -42 -20 -77 -69 -77c-52 0 -65 63 -72 106c-23 150 -41 279 -59 418l-19 143c-2 9 -2 13 -2 15
c0 38 10 47 51 49c17 -1 41 -14 44 -31c6 -26 10 -62 15 -117c8 -88 17 -208 53 -445c14 66 33 176 46 242l32 172c2 14 30 45 56 45h5c18 0 36 -13 41 -28c9 -34 10 -45 19 -110c10 -61 11 -120 44 -315z" />
    <glyph glyph-name="Wgrave" unicode="&#x1e80;" horiz-adv-x="594" 
d="M223 876c12 10 33 12 42 12c6 0 14 -4 20 -7c21 -13 49 -53 52 -56c8 -11 20 -29 20 -47s-15 -30 -39 -30c-17 0 -77 53 -96 80c-7 11 -11 19 -11 25c0 7 2 15 12 23zM451 375l53 318c13 23 34 25 48 25c25 0 35 -24 35 -48c0 -19 -4 -34 -6 -46l-108 -561
c-11 -42 -20 -77 -70 -77c-51 0 -64 63 -71 106c-16 97 -29 193 -40 282c-20 -103 -43 -211 -68 -311c-10 -42 -20 -77 -69 -77c-52 0 -65 63 -72 106c-23 150 -41 279 -59 418l-19 143c-2 9 -2 13 -2 15c0 38 10 47 51 49c17 -1 41 -14 44 -31c6 -26 10 -62 15 -117
c8 -88 17 -208 53 -445c14 66 33 176 46 242l32 172c2 14 30 45 56 45h5c18 0 36 -13 41 -28c9 -34 10 -45 19 -110c10 -61 11 -120 44 -315z" />
    <glyph glyph-name="X" unicode="X" horiz-adv-x="387" 
d="M196 451c35 84 77 198 97 241c3 7 19 22 32 22c16 0 46 -20 48 -44c0 -7 -1 -14 -4 -19c-13 -29 -68 -161 -128 -307c47 -120 93 -241 124 -318c0 0 -11 -45 -45 -45c-10 0 -27 4 -34 13c-16 21 -57 145 -102 265l-87 -235c-10 -28 -29 -46 -54 -46c-16 0 -34 13 -42 27
l-2 17s66 167 137 339c-43 117 -83 230 -101 285c-6 18 -7 26 -7 34c12 20 24 34 45 34c24 0 42 -22 49 -46c12 -38 38 -120 66 -197z" />
    <glyph glyph-name="Y" unicode="Y" horiz-adv-x="321" 
d="M227 701c9 12 23 14 33 14c15 0 31 -9 36 -35c1 -6 3 -14 3 -29c0 -6 0 -13 -1 -18c-1 -34 -9 -468 -16 -508c-11 -60 -37 -143 -143 -143c-22 0 -115 8 -115 150c0 43 14 55 48 55c28 0 42 -8 42 -90c0 -24 14 -35 36 -35c34 0 45 45 45 81c0 1 2 43 4 102
c-18 -5 -38 -9 -58 -9s-41 3 -58 13c-69 37 -69 195 -69 290c0 18 1 34 1 51c1 20 1 42 1 73c6 24 20 50 54 50c25 0 33 -22 33 -45c0 -98 1 -204 12 -304c2 -12 16 -45 46 -45c9 0 23 4 41 16l7 299c0 21 1 45 18 67z" />
    <glyph glyph-name="Yacute" unicode="&#xdd;" horiz-adv-x="321" 
d="M220 876c9 -7 11 -16 11 -23c0 -8 -3 -16 -9 -25c-19 -27 -79 -80 -96 -80c-25 0 -40 12 -40 30c0 17 12 35 21 46c2 2 31 45 51 57c6 3 15 7 21 7c9 0 30 -3 41 -12zM227 701c9 12 23 14 33 14c15 0 31 -9 36 -35c1 -6 3 -14 3 -29c0 -6 0 -13 -1 -18
c-1 -34 -9 -468 -16 -508c-11 -60 -37 -143 -143 -143c-22 0 -115 8 -115 150c0 43 14 55 48 55c28 0 42 -8 42 -90c0 -24 14 -35 36 -35c34 0 45 45 45 81c0 1 2 43 4 102c-18 -5 -38 -9 -58 -9s-41 3 -58 13c-69 37 -69 195 -69 290c0 18 1 34 1 51c1 20 1 42 1 73
c6 24 20 50 54 50c25 0 33 -22 33 -45c0 -98 1 -204 12 -304c2 -12 16 -45 46 -45c9 0 23 4 41 16l7 299c0 21 1 45 18 67z" />
    <glyph glyph-name="Ycircumflex" unicode="&#x176;" horiz-adv-x="321" 
d="M261 802c3 -4 5 -8 5 -13c0 -20 -27 -29 -42 -29c-9 0 -16 2 -21 5c-11 7 -49 42 -49 42c-10 -9 -24 -20 -37 -31c-13 -10 -21 -16 -35 -16c-20 0 -36 9 -36 31c0 8 0 19 11 26l28 23c26 21 52 44 73 45c23 1 103 -83 103 -83zM227 701c9 12 23 14 33 14
c15 0 31 -9 36 -35c1 -6 3 -14 3 -29c0 -6 0 -13 -1 -18c-1 -34 -9 -468 -16 -508c-11 -60 -37 -143 -143 -143c-22 0 -115 8 -115 150c0 43 14 55 48 55c28 0 42 -8 42 -90c0 -24 14 -35 36 -35c34 0 45 45 45 81c0 1 2 43 4 102c-18 -5 -38 -9 -58 -9s-41 3 -58 13
c-69 37 -69 195 -69 290c0 18 1 34 1 51c1 20 1 42 1 73c6 24 20 50 54 50c25 0 33 -22 33 -45c0 -98 1 -204 12 -304c2 -12 16 -45 46 -45c9 0 23 4 41 16l7 299c0 21 1 45 18 67z" />
    <glyph glyph-name="Ydieresis" unicode="&#x178;" horiz-adv-x="321" 
d="M78 867c9 5 22 10 36 10c33 0 38 -23 38 -52c0 -31 -17 -48 -47 -48c-27 0 -45 29 -45 56c0 13 5 27 18 34zM184 867c9 5 22 10 36 10c33 0 38 -23 38 -52c0 -31 -17 -48 -47 -48c-27 0 -45 29 -45 56c0 13 5 27 18 34zM227 701c9 12 23 14 33 14c15 0 31 -9 36 -35
c1 -6 3 -14 3 -29c0 -6 0 -13 -1 -18c-1 -34 -9 -468 -16 -508c-11 -60 -37 -143 -143 -143c-22 0 -115 8 -115 150c0 43 14 55 48 55c28 0 42 -8 42 -90c0 -24 14 -35 36 -35c34 0 45 45 45 81c0 1 2 43 4 102c-18 -5 -38 -9 -58 -9s-41 3 -58 13c-69 37 -69 195 -69 290
c0 18 1 34 1 51c1 20 1 42 1 73c6 24 20 50 54 50c25 0 33 -22 33 -45c0 -98 1 -204 12 -304c2 -12 16 -45 46 -45c9 0 23 4 41 16l7 299c0 21 1 45 18 67z" />
    <glyph glyph-name="Ygrave" unicode="&#x1ef2;" horiz-adv-x="321" 
d="M82 876c12 10 33 12 42 12c6 0 14 -4 20 -7c21 -13 49 -53 52 -56c8 -11 20 -29 20 -47s-15 -30 -39 -30c-17 0 -77 53 -96 80c-7 11 -11 19 -11 25c0 7 2 15 12 23zM227 701c9 12 23 14 33 14c15 0 31 -9 36 -35c1 -6 3 -14 3 -29c0 -6 0 -13 -1 -18
c-1 -34 -9 -468 -16 -508c-11 -60 -37 -143 -143 -143c-22 0 -115 8 -115 150c0 43 14 55 48 55c28 0 42 -8 42 -90c0 -24 14 -35 36 -35c34 0 45 45 45 81c0 1 2 43 4 102c-18 -5 -38 -9 -58 -9s-41 3 -58 13c-69 37 -69 195 -69 290c0 18 1 34 1 51c1 20 1 42 1 73
c6 24 20 50 54 50c25 0 33 -22 33 -45c0 -98 1 -204 12 -304c2 -12 16 -45 46 -45c9 0 23 4 41 16l7 299c0 21 1 45 18 67z" />
    <glyph glyph-name="Z" unicode="Z" horiz-adv-x="329" 
d="M50 658c0 17 3 30 10 41l12 2c25 9 129 7 167 7c5 0 12 0 27 -2c48 -3 61 -27 61 -61c0 -30 -11 -65 -11 -65l-195 -498h149c22 -8 35 -28 35 -41c0 -15 -12 -36 -25 -45c0 0 -88 -5 -153 -5h-13c-18 0 -38 0 -42 1c-45 8 -59 48 -59 68c0 4 98 248 111 279
c11 26 86 215 108 284l-135 -1c-35 0 -47 14 -47 36z" />
    <glyph glyph-name="Zacute" unicode="&#x179;" horiz-adv-x="329" 
d="M256 876c9 -7 11 -16 11 -23c0 -8 -3 -16 -9 -25c-19 -27 -79 -80 -96 -80c-25 0 -40 12 -40 30c0 17 12 35 21 46c2 2 31 45 51 57c6 3 15 7 21 7c9 0 30 -3 41 -12zM50 658c0 17 3 30 10 41l12 2c25 9 129 7 167 7c5 0 12 0 27 -2c48 -3 61 -27 61 -61
c0 -30 -11 -65 -11 -65l-195 -498h149c22 -8 35 -28 35 -41c0 -15 -12 -36 -25 -45c0 0 -88 -5 -153 -5h-13c-18 0 -38 0 -42 1c-45 8 -59 48 -59 68c0 4 98 248 111 279c11 26 86 215 108 284l-135 -1c-35 0 -47 14 -47 36z" />
    <glyph glyph-name="Zcaron" unicode="&#x17d;" horiz-adv-x="329" 
d="M299 858c1 -2 1 -4 1 -6c0 -5 -2 -9 -4 -13c0 0 -80 -84 -103 -83s-47 26 -74 48c-9 7 -11 9 -21 18c-10 10 -13 18 -13 28c0 7 1 14 4 18c8 12 20 14 32 14c13 0 22 -5 35 -17c17 -16 35 -31 35 -31c23 17 53 48 69 48s32 -7 39 -24zM50 658c0 17 3 30 10 41l12 2
c25 9 129 7 167 7c5 0 12 0 27 -2c48 -3 61 -27 61 -61c0 -30 -11 -65 -11 -65l-195 -498h149c22 -8 35 -28 35 -41c0 -15 -12 -36 -25 -45c0 0 -88 -5 -153 -5h-13c-18 0 -38 0 -42 1c-45 8 -59 48 -59 68c0 4 98 248 111 279c11 26 86 215 108 284l-135 -1
c-35 0 -47 14 -47 36z" />
    <glyph glyph-name="Zdotaccent" unicode="&#x17b;" horiz-adv-x="329" 
d="M163 868c14 6 27 11 40 11c37 0 42 -24 42 -56c0 -33 -19 -52 -51 -52c-29 0 -49 32 -49 60c0 13 5 28 18 37zM50 658c0 17 3 30 10 41l12 2c25 9 129 7 167 7c5 0 12 0 27 -2c48 -3 61 -27 61 -61c0 -30 -11 -65 -11 -65l-195 -498h149c22 -8 35 -28 35 -41
c0 -15 -12 -36 -25 -45c0 0 -88 -5 -153 -5h-13c-18 0 -38 0 -42 1c-45 8 -59 48 -59 68c0 4 98 248 111 279c11 26 86 215 108 284l-135 -1c-35 0 -47 14 -47 36z" />
    <glyph glyph-name="a" unicode="a" horiz-adv-x="298" 
d="M280 45c1 -4 1 -9 1 -14c0 -35 -22 -44 -54 -45c-21 0 -24 13 -27 27l-20 177c-20 0 -43 -1 -63 -1l-5 -35c-6 -48 -16 -124 -26 -147c-6 -5 -41 -19 -51 -19c-15 0 -27 8 -27 34c0 6 0 14 2 23v-3l15 93c20 121 40 246 64 371c8 45 17 92 73 92c45 0 53 -53 58 -91
c19 -150 41 -314 60 -464v2zM127 253h46l-20 178l-3 -22z" />
    <glyph glyph-name="aacute" unicode="&#xe1;" horiz-adv-x="298" 
d="M130 633c-25 0 -40 12 -40 30c0 17 12 35 21 46c2 2 31 45 51 57c6 3 15 7 21 7c9 0 30 -3 41 -12c9 -7 11 -16 11 -23c0 -8 -3 -16 -9 -25c-19 -27 -79 -80 -96 -80zM280 45c1 -4 1 -9 1 -14c0 -35 -22 -44 -54 -45c-21 0 -24 13 -27 27l-20 177c-20 0 -43 -1 -63 -1
l-5 -35c-6 -48 -16 -124 -26 -147c-6 -5 -41 -19 -51 -19c-15 0 -27 8 -27 34c0 6 0 14 2 23v-3l15 93c20 121 40 246 64 371c8 45 17 92 73 92c45 0 53 -53 58 -91c19 -150 41 -314 60 -464v2zM127 253h46l-20 178l-3 -22z" />
    <glyph glyph-name="abreve" unicode="&#x103;" horiz-adv-x="298" 
d="M163 641c-71 0 -105 48 -105 92c0 7 2 14 4 18c10 11 21 15 32 15c17 0 28 -15 32 -26c8 -17 18 -32 35 -32c14 0 30 21 38 40c7 15 20 20 28 20c16 0 37 -13 37 -32c0 -3 0 -6 -1 -8c0 0 -19 -87 -100 -87zM280 45c1 -4 1 -9 1 -14c0 -35 -22 -44 -54 -45
c-21 0 -24 13 -27 27l-20 177c-20 0 -43 -1 -63 -1l-5 -35c-6 -48 -16 -124 -26 -147c-6 -5 -41 -19 -51 -19c-15 0 -27 8 -27 34c0 6 0 14 2 23v-3l15 93c20 121 40 246 64 371c8 45 17 92 73 92c45 0 53 -53 58 -91c19 -150 41 -314 60 -464v2zM127 253h46l-20 178l-3 -22
z" />
    <glyph glyph-name="acircumflex" unicode="&#xe2;" horiz-adv-x="298" 
d="M86 645c-20 0 -36 9 -36 31c0 8 0 19 11 26l28 23c26 21 52 44 73 45c23 1 103 -83 103 -83c3 -4 5 -8 5 -13c0 -20 -27 -29 -42 -29c-9 0 -16 2 -21 5c-11 7 -49 42 -49 42c-10 -9 -24 -20 -37 -31c-13 -10 -21 -16 -35 -16zM280 45c1 -4 1 -9 1 -14
c0 -35 -22 -44 -54 -45c-21 0 -24 13 -27 27l-20 177c-20 0 -43 -1 -63 -1l-5 -35c-6 -48 -16 -124 -26 -147c-6 -5 -41 -19 -51 -19c-15 0 -27 8 -27 34c0 6 0 14 2 23v-3l15 93c20 121 40 246 64 371c8 45 17 92 73 92c45 0 53 -53 58 -91c19 -150 41 -314 60 -464v2z
M127 253h46l-20 178l-3 -22z" />
    <glyph glyph-name="adieresis" unicode="&#xe4;" horiz-adv-x="298" 
d="M109 662c-27 0 -45 29 -45 56c0 13 5 27 18 34c9 5 22 10 36 10c33 0 38 -23 38 -52c0 -31 -17 -48 -47 -48zM215 662c-27 0 -45 29 -45 56c0 13 5 27 18 34c9 5 22 10 36 10c33 0 38 -23 38 -52c0 -31 -17 -48 -47 -48zM280 45c1 -4 1 -9 1 -14c0 -35 -22 -44 -54 -45
c-21 0 -24 13 -27 27l-20 177c-20 0 -43 -1 -63 -1l-5 -35c-6 -48 -16 -124 -26 -147c-6 -5 -41 -19 -51 -19c-15 0 -27 8 -27 34c0 6 0 14 2 23v-3l15 93c20 121 40 246 64 371c8 45 17 92 73 92c45 0 53 -53 58 -91c19 -150 41 -314 60 -464v2zM127 253h46l-20 178l-3 -22
z" />
    <glyph glyph-name="agrave" unicode="&#xe0;" horiz-adv-x="298" 
d="M181 633c-17 0 -77 53 -96 80c-6 11 -10 19 -10 25c0 7 2 15 11 23c12 10 33 12 42 12c6 0 14 -4 20 -7c21 -13 49 -53 52 -56c8 -11 20 -29 20 -47s-15 -30 -39 -30zM280 45c1 -4 1 -9 1 -14c0 -35 -22 -44 -54 -45c-21 0 -24 13 -27 27l-20 177c-20 0 -43 -1 -63 -1
l-5 -35c-6 -48 -16 -124 -26 -147c-6 -5 -41 -19 -51 -19c-15 0 -27 8 -27 34c0 6 0 14 2 23v-3l15 93c20 121 40 246 64 371c8 45 17 92 73 92c45 0 53 -53 58 -91c19 -150 41 -314 60 -464v2zM127 253h46l-20 178l-3 -22z" />
    <glyph glyph-name="amacron" unicode="&#x101;" horiz-adv-x="298" 
d="M81 655c-31 0 -33 19 -33 40c0 19 15 37 34 37h159c18 0 34 -19 34 -38c-3 -25 -8 -39 -32 -39h-162zM280 45c1 -4 1 -9 1 -14c0 -35 -22 -44 -54 -45c-21 0 -24 13 -27 27l-20 177c-20 0 -43 -1 -63 -1l-5 -35c-6 -48 -16 -124 -26 -147c-6 -5 -41 -19 -51 -19
c-15 0 -27 8 -27 34c0 6 0 14 2 23v-3l15 93c20 121 40 246 64 371c8 45 17 92 73 92c45 0 53 -53 58 -91c19 -150 41 -314 60 -464v2zM127 253h46l-20 178l-3 -22z" />
    <glyph glyph-name="aogonek" unicode="&#x105;" horiz-adv-x="298" 
d="M281 -36c21 0 35 -11 35 -38c0 -21 -4 -50 -16 -67c-14 -18 -37 -28 -77 -28c-42 0 -79 26 -79 76c0 41 23 87 54 120l-18 163c-20 0 -43 -1 -63 -1l-5 -35c-6 -48 -16 -124 -26 -147c-6 -5 -41 -19 -51 -19c-15 0 -27 8 -27 34c0 6 0 14 2 23v-3l15 93
c20 121 40 246 64 371c8 45 17 92 73 92c45 0 53 -53 58 -91c19 -150 41 -314 60 -464v2c1 -4 1 -9 1 -14c0 -24 -10 -35 -26 -41c-1 0 -1 -1 -1 -1c-14 -20 -32 -56 -32 -83c0 -5 2 -13 10 -13c9 0 16 14 20 28c7 22 14 43 29 43zM127 253h46l-20 178l-3 -22z" />
    <glyph glyph-name="aring" unicode="&#xe5;" horiz-adv-x="298" 
d="M161 637c-38 0 -67 31 -67 69c0 45 30 69 69 72c39 0 65 -33 65 -71s-26 -70 -67 -70zM162 732c-9 0 -21 -10 -21 -23s12 -23 21 -23s22 10 22 23s-13 23 -22 23zM280 45c1 -4 1 -9 1 -14c0 -35 -22 -44 -54 -45c-21 0 -24 13 -27 27l-20 177c-20 0 -43 -1 -63 -1l-5 -35
c-6 -48 -16 -124 -26 -147c-6 -5 -41 -19 -51 -19c-15 0 -27 8 -27 34c0 6 0 14 2 23v-3l15 93c20 121 40 246 64 371c8 45 17 92 73 92c45 0 53 -53 58 -91c19 -150 41 -314 60 -464v2zM127 253h46l-20 178l-3 -22z" />
    <glyph glyph-name="atilde" unicode="&#xe3;" horiz-adv-x="298" 
d="M83 651c-16 0 -34 11 -34 38c0 21 31 72 81 72c22 0 37 -9 50 -18c8 -5 15 -11 26 -11c18 0 30 24 51 27c0 0 24 -9 24 -30c0 -41 -42 -79 -77 -79c-25 0 -40 10 -52 20c-7 5 -16 11 -21 11c-18 0 -25 -30 -48 -30zM280 43v2c1 -4 1 -9 1 -14c0 -35 -22 -44 -54 -45
c-21 0 -24 13 -27 27l-20 177c-20 0 -43 -1 -63 -1l-5 -35c-6 -48 -16 -124 -26 -147c-6 -5 -41 -19 -51 -19c-15 0 -27 8 -27 34c0 6 0 14 2 23v-3l15 93c20 121 40 246 64 371c8 45 17 92 73 92c45 0 53 -53 58 -91c19 -150 41 -314 60 -464zM127 253h46l-20 178l-3 -22z
" />
    <glyph glyph-name="ae" unicode="&#xe6;" horiz-adv-x="434" 
d="M368 61c19 0 38 -5 44 -18c3 -5 3 -16 3 -23c0 -20 -16 -32 -31 -34c-26 -3 -81 -3 -115 -3c-43 0 -55 7 -55 49v45c2 45 2 111 3 176c-23 0 -58 0 -86 -1l-15 -98c-7 -48 -16 -124 -26 -147c-6 -5 -41 -19 -51 -19c-15 0 -27 8 -27 34c0 9 7 53 17 113
c20 121 40 223 61 348c8 47 45 115 113 115c19 0 30 -1 49 -3c12 3 27 4 43 4c8 0 17 -1 25 -1h36c44 0 61 -2 61 -40c0 -32 -6 -40 -61 -40h-59c0 -7 1 -41 1 -59c0 -52 -1 -75 -1 -89v-17c0 -9 -1 -20 -2 -24h66c43 0 45 -11 45 -41c0 -28 -18 -35 -37 -35h-59
c-7 0 -8 0 -8 -2c0 -21 1 -51 1 -77s-1 -52 -1 -74c0 -14 -1 -32 -1 -41h19c14 1 38 2 48 2zM217 325v76v105v9h-4c-35 0 -39 -7 -55 -79l-17 -111h76z" />
    <glyph glyph-name="b" unicode="b" horiz-adv-x="284" 
d="M245 454c0 -58 -11 -97 -26 -124c9 -7 18 -16 24 -24c24 -29 28 -79 28 -108c0 -126 -7 -212 -114 -213h-95c-27 0 -39 31 -39 48l3 497c13 65 74 68 115 68c90 0 104 -66 104 -144zM111 354h23c25 3 28 46 28 85v28c0 33 -5 62 -32 62l-17 -1zM109 61h38
c32 0 42 39 42 78l1 42c0 49 -3 104 -53 104h-28v-224z" />
    <glyph glyph-name="c" unicode="c" horiz-adv-x="291" 
d="M266 437c-1 -19 -25 -29 -44 -29c-18 0 -32 4 -38 13c-2 8 -2 18 -3 29c-2 27 -5 72 -37 72c-27 0 -37 -60 -37 -99c0 -9 -1 -23 -1 -38c-1 -24 -1 -54 -1 -91v-73c0 -68 5 -156 43 -156c22 0 44 17 44 64c0 10 1 23 0 36c4 21 30 30 44 30c36 0 38 -23 38 -50
c0 -26 0 -51 -8 -72c-23 -55 -64 -86 -117 -86c-84 0 -118 55 -124 136c-5 59 -7 160 -7 211c0 47 1 96 12 152c19 93 67 114 123 114c84 0 113 -90 113 -163z" />
    <glyph glyph-name="cacute" unicode="&#x107;" horiz-adv-x="291" 
d="M218 761c9 -7 11 -16 11 -23c0 -8 -3 -16 -9 -25c-19 -27 -79 -80 -96 -80c-25 0 -40 12 -40 30c0 17 12 35 21 46c2 2 31 45 51 57c6 3 15 7 21 7c9 0 30 -3 41 -12zM266 437c-1 -19 -25 -29 -44 -29c-18 0 -32 4 -38 13c-2 8 -2 18 -3 29c-2 27 -5 72 -37 72
c-27 0 -37 -60 -37 -99c0 -9 -1 -23 -1 -38c-1 -24 -1 -54 -1 -91v-73c0 -68 5 -156 43 -156c22 0 44 17 44 64c0 10 1 23 0 36c4 21 30 30 44 30c36 0 38 -23 38 -50c0 -26 0 -51 -8 -72c-23 -55 -64 -86 -117 -86c-84 0 -118 55 -124 136c-5 59 -7 160 -7 211
c0 47 1 96 12 152c19 93 67 114 123 114c84 0 113 -90 113 -163z" />
    <glyph glyph-name="ccaron" unicode="&#x10d;" horiz-adv-x="291" 
d="M261 743c1 -2 1 -4 1 -6c0 -5 -2 -9 -4 -13c0 0 -80 -84 -103 -83s-47 26 -74 48c-9 7 -11 9 -21 18c-10 10 -13 18 -13 28c0 7 1 14 4 18c8 12 20 14 32 14c13 0 22 -5 35 -17c17 -16 35 -31 35 -31c23 17 53 48 69 48s32 -7 39 -24zM266 437c-1 -19 -25 -29 -44 -29
c-18 0 -32 4 -38 13c-2 8 -2 18 -3 29c-2 27 -5 72 -37 72c-27 0 -37 -60 -37 -99c0 -9 -1 -23 -1 -38c-1 -24 -1 -54 -1 -91v-73c0 -68 5 -156 43 -156c22 0 44 17 44 64c0 10 1 23 0 36c4 21 30 30 44 30c36 0 38 -23 38 -50c0 -26 0 -51 -8 -72c-23 -55 -64 -86 -117 -86
c-84 0 -118 55 -124 136c-5 59 -7 160 -7 211c0 47 1 96 12 152c19 93 67 114 123 114c84 0 113 -90 113 -163z" />
    <glyph glyph-name="ccedilla" unicode="&#xe7;" horiz-adv-x="291" 
d="M266 73c-18 -43 -47 -71 -83 -81c45 -17 54 -45 54 -81c0 -65 -47 -86 -87 -86c-32 0 -71 13 -71 51c0 25 13 30 25 30c5 0 11 -2 20 -6c4 -2 12 -4 16 -4c13 0 26 0 26 19c0 5 -8 8 -23 13l-24 9c-24 9 -36 23 -36 49c0 5 1 10 3 15c-39 22 -57 66 -61 122
c-5 59 -7 160 -7 211c0 47 1 96 12 152c19 93 67 114 123 114c84 0 113 -90 113 -163c-1 -19 -25 -29 -44 -29c-18 0 -32 4 -38 13c-2 8 -2 18 -3 29c-2 27 -5 72 -37 72c-27 0 -37 -60 -37 -99c0 -9 -1 -23 -1 -38c-1 -24 -1 -54 -1 -91v-73c0 -68 5 -156 43 -156
c22 0 44 17 44 64c0 10 1 23 0 36c4 21 30 30 44 30c36 0 38 -23 38 -50c0 -26 0 -51 -8 -72z" />
    <glyph glyph-name="cdotaccent" unicode="&#x10b;" horiz-adv-x="291" 
d="M125 753c14 6 27 11 40 11c37 0 42 -24 42 -56c0 -33 -19 -52 -51 -52c-29 0 -49 32 -49 60c0 13 5 28 18 37zM266 437c-1 -19 -25 -29 -44 -29c-18 0 -32 4 -38 13c-2 8 -2 18 -3 29c-2 27 -5 72 -37 72c-27 0 -37 -60 -37 -99c0 -9 -1 -23 -1 -38c-1 -24 -1 -54 -1 -91
v-73c0 -68 5 -156 43 -156c22 0 44 17 44 64c0 10 1 23 0 36c4 21 30 30 44 30c36 0 38 -23 38 -50c0 -26 0 -51 -8 -72c-23 -55 -64 -86 -117 -86c-84 0 -118 55 -124 136c-5 59 -7 160 -7 211c0 47 1 96 12 152c19 93 67 114 123 114c84 0 113 -90 113 -163z" />
    <glyph glyph-name="d" unicode="d" horiz-adv-x="330" 
d="M59 596c13 3 26 4 35 4c165 0 214 -219 214 -318c0 -190 -71 -272 -177 -290c-10 0 -89 -21 -95 31c-6 62 -7 144 -7 224v64c0 100 2 178 2 221c0 33 0 56 28 64zM222 282c0 81 -39 232 -103 237c-1 -70 -1 -124 -1 -177c0 -169 2 -248 2 -279c85 13 102 141 102 219z
" />
    <glyph glyph-name="eth" unicode="&#xf0;" horiz-adv-x="300" 
d="M275 512l-42 -28c24 -65 46 -176 46 -292c0 -84 -13 -214 -121 -214h-22c-80 0 -121 72 -121 210c0 137 38 196 128 196c15 0 27 -1 40 -4c-7 29 -12 47 -16 59l-41 -27c-26 -17 -52 2 -52 36c0 12 7 27 15 32l42 27c-7 8 -14 11 -22 11c-5 0 -12 -3 -18 -4
c-20 -6 -30 3 -33 28l-1 18c0 16 8 30 21 34c49 14 88 0 120 -43l40 27c24 16 47 -4 47 -36c0 -12 -5 -25 -10 -30zM195 137v70c0 66 -2 93 -48 93s-48 -27 -48 -93v-81c0 -42 19 -67 50 -67c32 0 46 24 46 78z" />
    <glyph glyph-name="dcaron" unicode="&#x10f;" horiz-adv-x="420" 
d="M59 596c13 3 26 4 35 4c165 0 214 -219 214 -318c0 -190 -71 -272 -177 -290c-10 0 -89 -21 -95 31c-6 62 -7 144 -7 224v64c0 100 2 178 2 221c0 33 0 56 28 64zM322 583c10 6 23 11 37 11c36 0 42 -26 42 -57c0 -22 -21 -91 -32 -106c-11 -12 -23 -18 -30 -18
c-19 0 -30 24 -31 33c4 15 9 31 11 54c-11 12 -17 28 -17 46c0 15 8 29 20 37zM222 282c0 81 -39 232 -103 237c-1 -70 -1 -124 -1 -177c0 -169 2 -248 2 -279c85 13 102 141 102 219z" />
    <glyph glyph-name="dcroat" unicode="&#x111;" horiz-adv-x="330" 
d="M94 600c165 0 214 -219 214 -318c0 -190 -71 -272 -177 -290c-10 0 -89 -21 -95 31c-6 62 -7 144 -7 224v15h-35c-28 0 -31 19 -31 38c0 21 12 36 31 36h35c0 88 2 157 2 196c0 33 0 56 28 64c13 3 26 4 35 4zM120 63c85 13 102 141 102 219c0 81 -39 232 -103 237
c-1 -70 -1 -124 -1 -177v-6h52c16 0 30 -16 30 -36c0 -22 -8 -38 -27 -38h-55z" />
    <glyph glyph-name="e" unicode="e" horiz-adv-x="232" 
d="M105 518c0 -7 1 -41 1 -59c0 -52 -1 -75 -1 -89v-17c0 -9 -1 -20 -2 -24h56c43 0 45 -11 45 -41c0 -28 -18 -35 -37 -35h-49c-7 0 -8 0 -8 -2c0 -21 1 -51 1 -77s-1 -52 -1 -74c0 -14 -1 -32 -1 -41h19c14 1 28 2 38 2c19 0 38 -5 44 -18c3 -5 3 -16 3 -23
c0 -20 -16 -32 -31 -34c-26 -3 -71 -3 -105 -3c-43 0 -55 7 -55 49v45c3 81 3 230 3 324v105c0 25 1 55 16 77c8 12 33 16 62 16c8 0 17 -1 25 -1h26c44 0 61 -2 61 -40c0 -32 -6 -40 -61 -40h-49z" />
    <glyph glyph-name="eacute" unicode="&#xe9;" horiz-adv-x="232" 
d="M190 761c9 -7 11 -16 11 -23c0 -8 -3 -16 -9 -25c-19 -27 -79 -80 -96 -80c-25 0 -40 12 -40 30c0 17 12 35 21 46c2 2 31 45 51 57c6 3 15 7 21 7c9 0 30 -3 41 -12zM105 518c0 -7 1 -41 1 -59c0 -52 -1 -75 -1 -89v-17c0 -9 -1 -20 -2 -24h56c43 0 45 -11 45 -41
c0 -28 -18 -35 -37 -35h-49c-7 0 -8 0 -8 -2c0 -21 1 -51 1 -77s-1 -52 -1 -74c0 -14 -1 -32 -1 -41h19c14 1 28 2 38 2c19 0 38 -5 44 -18c3 -5 3 -16 3 -23c0 -20 -16 -32 -31 -34c-26 -3 -71 -3 -105 -3c-43 0 -55 7 -55 49v45c3 81 3 230 3 324v105c0 25 1 55 16 77
c8 12 33 16 62 16c8 0 17 -1 25 -1h26c44 0 61 -2 61 -40c0 -32 -6 -40 -61 -40h-49z" />
    <glyph glyph-name="ecaron" unicode="&#x11b;" horiz-adv-x="232" 
d="M233 743c1 -2 1 -4 1 -6c0 -5 -2 -9 -4 -13c0 0 -80 -84 -103 -83s-47 26 -74 48c-9 7 -11 9 -21 18c-10 10 -13 18 -13 28c0 7 1 14 4 18c8 12 20 14 32 14c13 0 22 -5 35 -17c17 -16 35 -31 35 -31c23 17 53 48 69 48s32 -7 39 -24zM105 518c0 -7 1 -41 1 -59
c0 -52 -1 -75 -1 -89v-17c0 -9 -1 -20 -2 -24h56c43 0 45 -11 45 -41c0 -28 -18 -35 -37 -35h-49c-7 0 -8 0 -8 -2c0 -21 1 -51 1 -77s-1 -52 -1 -74c0 -14 -1 -32 -1 -41h19c14 1 28 2 38 2c19 0 38 -5 44 -18c3 -5 3 -16 3 -23c0 -20 -16 -32 -31 -34
c-26 -3 -71 -3 -105 -3c-43 0 -55 7 -55 49v45c3 81 3 230 3 324v105c0 25 1 55 16 77c8 12 33 16 62 16c8 0 17 -1 25 -1h26c44 0 61 -2 61 -40c0 -32 -6 -40 -61 -40h-49z" />
    <glyph glyph-name="ecircumflex" unicode="&#xea;" horiz-adv-x="232" 
d="M231 687c3 -4 5 -8 5 -13c0 -20 -27 -29 -42 -29c-9 0 -16 2 -21 5c-11 7 -49 42 -49 42c-10 -9 -24 -20 -37 -31c-13 -10 -21 -16 -35 -16c-20 0 -36 9 -36 31c0 8 0 19 11 26l28 23c26 21 52 44 73 45c23 1 103 -83 103 -83zM105 518c0 -7 1 -41 1 -59
c0 -52 -1 -75 -1 -89v-17c0 -9 -1 -20 -2 -24h56c43 0 45 -11 45 -41c0 -28 -18 -35 -37 -35h-49c-7 0 -8 0 -8 -2c0 -21 1 -51 1 -77s-1 -52 -1 -74c0 -14 -1 -32 -1 -41h19c14 1 28 2 38 2c19 0 38 -5 44 -18c3 -5 3 -16 3 -23c0 -20 -16 -32 -31 -34
c-26 -3 -71 -3 -105 -3c-43 0 -55 7 -55 49v45c3 81 3 230 3 324v105c0 25 1 55 16 77c8 12 33 16 62 16c8 0 17 -1 25 -1h26c44 0 61 -2 61 -40c0 -32 -6 -40 -61 -40h-49z" />
    <glyph glyph-name="edieresis" unicode="&#xeb;" horiz-adv-x="232" 
d="M48 752c9 5 22 10 36 10c33 0 38 -23 38 -52c0 -31 -17 -48 -47 -48c-27 0 -45 29 -45 56c0 13 5 27 18 34zM154 752c9 5 22 10 36 10c33 0 38 -23 38 -52c0 -31 -17 -48 -47 -48c-27 0 -45 29 -45 56c0 13 5 27 18 34zM105 518c0 -7 1 -41 1 -59c0 -52 -1 -75 -1 -89
v-17c0 -9 -1 -20 -2 -24h56c43 0 45 -11 45 -41c0 -28 -18 -35 -37 -35h-49c-7 0 -8 0 -8 -2c0 -21 1 -51 1 -77s-1 -52 -1 -74c0 -14 -1 -32 -1 -41h19c14 1 28 2 38 2c19 0 38 -5 44 -18c3 -5 3 -16 3 -23c0 -20 -16 -32 -31 -34c-26 -3 -71 -3 -105 -3
c-43 0 -55 7 -55 49v45c3 81 3 230 3 324v105c0 25 1 55 16 77c8 12 33 16 62 16c8 0 17 -1 25 -1h26c44 0 61 -2 61 -40c0 -32 -6 -40 -61 -40h-49z" />
    <glyph glyph-name="edotaccent" unicode="&#x117;" horiz-adv-x="232" 
d="M97 753c14 6 27 11 40 11c37 0 42 -24 42 -56c0 -33 -19 -52 -51 -52c-29 0 -49 32 -49 60c0 13 5 28 18 37zM105 518c0 -7 1 -41 1 -59c0 -52 -1 -75 -1 -89v-17c0 -9 -1 -20 -2 -24h56c43 0 45 -11 45 -41c0 -28 -18 -35 -37 -35h-49c-7 0 -8 0 -8 -2
c0 -21 1 -51 1 -77s-1 -52 -1 -74c0 -14 -1 -32 -1 -41h19c14 1 28 2 38 2c19 0 38 -5 44 -18c3 -5 3 -16 3 -23c0 -20 -16 -32 -31 -34c-26 -3 -71 -3 -105 -3c-43 0 -55 7 -55 49v45c3 81 3 230 3 324v105c0 25 1 55 16 77c8 12 33 16 62 16c8 0 17 -1 25 -1h26
c44 0 61 -2 61 -40c0 -32 -6 -40 -61 -40h-49z" />
    <glyph glyph-name="egrave" unicode="&#xe8;" horiz-adv-x="232" 
d="M52 761c12 10 33 12 42 12c6 0 14 -4 20 -7c21 -13 49 -53 52 -56c8 -11 20 -29 20 -47s-15 -30 -39 -30c-17 0 -77 53 -96 80c-6 11 -10 19 -10 25c0 7 2 15 11 23zM105 518c0 -7 1 -41 1 -59c0 -52 -1 -75 -1 -89v-17c0 -9 -1 -20 -2 -24h56c43 0 45 -11 45 -41
c0 -28 -18 -35 -37 -35h-49c-7 0 -8 0 -8 -2c0 -21 1 -51 1 -77s-1 -52 -1 -74c0 -14 -1 -32 -1 -41h19c14 1 28 2 38 2c19 0 38 -5 44 -18c3 -5 3 -16 3 -23c0 -20 -16 -32 -31 -34c-26 -3 -71 -3 -105 -3c-43 0 -55 7 -55 49v45c3 81 3 230 3 324v105c0 25 1 55 16 77
c8 12 33 16 62 16c8 0 17 -1 25 -1h26c44 0 61 -2 61 -40c0 -32 -6 -40 -61 -40h-49z" />
    <glyph glyph-name="emacron" unicode="&#x113;" horiz-adv-x="232" 
d="M241 694c-3 -25 -8 -39 -32 -39h-162c-31 0 -33 19 -33 40c0 19 15 37 34 37h159c18 0 34 -19 34 -38zM105 518c0 -7 1 -41 1 -59c0 -52 -1 -75 -1 -89v-17c0 -9 -1 -20 -2 -24h56c43 0 45 -11 45 -41c0 -28 -18 -35 -37 -35h-49c-7 0 -8 0 -8 -2c0 -21 1 -51 1 -77
s-1 -52 -1 -74c0 -14 -1 -32 -1 -41h19c14 1 28 2 38 2c19 0 38 -5 44 -18c3 -5 3 -16 3 -23c0 -20 -16 -32 -31 -34c-26 -3 -71 -3 -105 -3c-43 0 -55 7 -55 49v45c3 81 3 230 3 324v105c0 25 1 55 16 77c8 12 33 16 62 16c8 0 17 -1 25 -1h26c44 0 61 -2 61 -40
c0 -32 -6 -40 -61 -40h-49z" />
    <glyph glyph-name="eogonek" unicode="&#x119;" horiz-adv-x="232" 
d="M152 -16c0 -1 -1 -1 -1 -2c-14 -20 -32 -56 -32 -83c0 -5 2 -13 10 -13c9 0 16 14 20 28c7 22 14 43 29 43c21 0 35 -11 35 -38c0 -21 -4 -50 -16 -67c-14 -18 -37 -28 -77 -28c-42 0 -79 26 -79 76c0 27 10 57 26 83c-35 1 -45 10 -45 49v45c3 81 3 230 3 324v105
c0 25 1 55 16 77c8 12 33 16 62 16c8 0 17 -1 25 -1h26c44 0 61 -2 61 -40c0 -32 -6 -40 -61 -40h-49c0 -7 1 -41 1 -59c0 -52 -1 -75 -1 -89v-17c0 -9 -1 -20 -2 -24h56c43 0 45 -11 45 -41c0 -28 -18 -35 -37 -35h-49c-7 0 -8 0 -8 -2c0 -21 1 -51 1 -77s-1 -52 -1 -74
c0 -14 -1 -32 -1 -41h19c14 1 28 2 38 2c19 0 38 -5 44 -18c3 -5 3 -16 3 -23c0 -20 -16 -32 -31 -34c-8 -1 -19 -2 -30 -2z" />
    <glyph glyph-name="f" unicode="f" horiz-adv-x="261" 
d="M257 557c-3 -39 -19 -42 -47 -42c-12 0 -27 1 -41 1c-15 1 -28 1 -42 1h-11c4 -56 3 -126 3 -174h35c27 0 63 1 63 -34v-21c-4 -30 -52 -30 -88 -30h-14c-1 -54 -1 -176 -1 -223c0 -37 -5 -52 -42 -52c-30 0 -44 17 -44 48c0 55 1 105 1 153c0 44 1 87 1 130
c0 81 -2 197 -3 205c0 22 3 45 23 65c7 6 59 14 104 14c53 0 103 -10 103 -30v-11z" />
    <glyph glyph-name="g" unicode="g" horiz-adv-x="333" 
d="M172 216c-17 5 -26 16 -26 40c0 4 3 17 12 24c10 7 26 11 45 11c16 0 29 1 41 1h38c21 0 50 1 50 -28c0 -8 -2 -21 -6 -30c-5 -10 -15 -14 -29 -17c-5 -1 -13 -2 -21 -2v-37c0 -89 -9 -196 -121 -196c-86 0 -127 73 -127 156c0 9 0 39 -1 76c-2 71 -4 173 -4 193
c0 9 0 66 15 108c15 43 62 84 117 84c26 0 64 -19 73 -29c37 -40 40 -81 42 -136c-2 -7 -4 -13 -10 -18c-9 -7 -19 -11 -35 -11c-27 0 -40 33 -40 56c-3 17 -5 64 -32 64s-37 -50 -39 -83c-1 -9 -1 -33 -1 -67c0 -35 1 -69 1 -110c1 -35 1 -91 1 -119c0 -33 11 -88 38 -88
c32 0 48 45 48 89c0 15 -1 28 -1 39v26c-9 1 -18 2 -28 4z" />
    <glyph glyph-name="gbreve" unicode="&#x11f;" horiz-adv-x="333" 
d="M224 768c16 0 37 -13 37 -32c0 -3 0 -6 -1 -8c0 0 -19 -87 -100 -87c-71 0 -105 48 -105 92c0 7 2 14 4 18c10 11 21 15 32 15c17 0 28 -15 32 -26c8 -17 18 -32 35 -32c14 0 30 21 38 40c7 15 20 20 28 20zM172 216c-17 5 -26 16 -26 40c0 4 3 17 12 24
c10 7 26 11 45 11c16 0 29 1 41 1h38c21 0 50 1 50 -28c0 -8 -2 -21 -6 -30c-5 -10 -15 -14 -29 -17c-5 -1 -13 -2 -21 -2v-37c0 -89 -9 -196 -121 -196c-86 0 -127 73 -127 156c0 9 0 39 -1 76c-2 71 -4 173 -4 193c0 9 0 66 15 108c15 43 62 84 117 84c26 0 64 -19 73 -29
c37 -40 40 -81 42 -136c-2 -7 -4 -13 -10 -18c-9 -7 -19 -11 -35 -11c-27 0 -40 33 -40 56c-3 17 -5 64 -32 64s-37 -50 -39 -83c-1 -9 -1 -33 -1 -67c0 -35 1 -69 1 -110c1 -35 1 -91 1 -119c0 -33 11 -88 38 -88c32 0 48 45 48 89c0 15 -1 28 -1 39v26c-9 1 -18 2 -28 4z
" />
    <glyph glyph-name="gcommaaccent" unicode="&#x123;" horiz-adv-x="333" 
d="M186 627c-12 -6 -29 -13 -45 -13c-43 0 -50 30 -50 67c0 26 29 112 46 133c8 10 20 15 29 15c23 0 39 -29 38 -38c-5 -13 -12 -41 -16 -66c15 -14 20 -34 20 -55c0 -17 -7 -34 -22 -43zM172 216c-17 5 -26 16 -26 40c0 4 3 17 12 24c10 7 26 11 45 11c16 0 29 1 41 1h38
c21 0 50 1 50 -28c0 -8 -2 -21 -6 -30c-5 -10 -15 -14 -29 -17c-5 -1 -13 -2 -21 -2v-37c0 -89 -9 -196 -121 -196c-86 0 -127 73 -127 156c0 9 0 39 -1 76c-2 71 -4 173 -4 193c0 9 0 66 15 108c15 43 62 84 117 84c26 0 64 -19 73 -29c37 -40 40 -81 42 -136
c-2 -7 -4 -13 -10 -18c-9 -7 -19 -11 -35 -11c-27 0 -40 33 -40 56c-3 17 -5 64 -32 64s-37 -50 -39 -83c-1 -9 -1 -33 -1 -67c0 -35 1 -69 1 -110c1 -35 1 -91 1 -119c0 -33 11 -88 38 -88c32 0 48 45 48 89c0 15 -1 28 -1 39v26c-9 1 -18 2 -28 4z" />
    <glyph glyph-name="gdotaccent" unicode="&#x121;" horiz-adv-x="333" 
d="M128 753c14 6 27 11 40 11c37 0 42 -24 42 -56c0 -33 -19 -52 -51 -52c-29 0 -49 32 -49 60c0 13 5 28 18 37zM172 216c-17 5 -26 16 -26 40c0 4 3 17 12 24c10 7 26 11 45 11c16 0 29 1 41 1h38c21 0 50 1 50 -28c0 -8 -2 -21 -6 -30c-5 -10 -15 -14 -29 -17
c-5 -1 -13 -2 -21 -2v-37c0 -89 -9 -196 -121 -196c-86 0 -127 73 -127 156c0 9 0 39 -1 76c-2 71 -4 173 -4 193c0 9 0 66 15 108c15 43 62 84 117 84c26 0 64 -19 73 -29c37 -40 40 -81 42 -136c-2 -7 -4 -13 -10 -18c-9 -7 -19 -11 -35 -11c-27 0 -40 33 -40 56
c-3 17 -5 64 -32 64s-37 -50 -39 -83c-1 -9 -1 -33 -1 -67c0 -35 1 -69 1 -110c1 -35 1 -91 1 -119c0 -33 11 -88 38 -88c32 0 48 45 48 89c0 15 -1 28 -1 39v26c-9 1 -18 2 -28 4z" />
    <glyph glyph-name="h" unicode="h" horiz-adv-x="287" 
d="M109 560c-1 -112 -2 -197 -2 -260c8 1 16 1 27 1c13 0 32 0 45 -2l2 267c0 18 22 33 41 33c12 0 25 -6 42 -24v-113c0 -182 -4 -426 -5 -455c-15 -14 -33 -19 -47 -19c-15 0 -35 7 -35 24v105c0 38 1 76 1 108l-71 -1v-128c0 -47 0 -100 -31 -108h-16
c-23 0 -36 12 -36 39c0 55 1 103 1 146v93c0 113 -1 180 -1 221s1 53 1 73c0 32 23 32 41 32c16 0 43 -11 43 -32z" />
    <glyph glyph-name="hbar" unicode="&#x127;" horiz-adv-x="287" 
d="M264 474c22 0 41 -16 41 -36c0 -23 -11 -39 -37 -39h-4c-1 -171 -4 -366 -5 -392c-15 -14 -33 -19 -47 -19c-15 0 -35 7 -35 24v105c0 38 1 76 1 108l-71 -1v-128c0 -47 0 -100 -31 -108h-16c-23 0 -36 12 -36 39c0 55 1 103 1 146v93v133c-38 0 -42 19 -42 38
c0 22 15 36 41 37v13c0 41 1 53 1 73c0 32 23 32 41 32c16 0 43 -11 43 -32c0 -31 -1 -59 -1 -86h72l1 92c0 18 22 33 41 33c12 0 25 -6 42 -24v-101zM179 299l1 100h-72c-1 -38 -1 -71 -1 -99c8 1 16 1 27 1c13 0 32 0 45 -2z" />
    <glyph glyph-name="i" unicode="i" horiz-adv-x="219" 
d="M14 567c3 14 14 25 30 31c28 0 136 0 146 -6c7 -5 19 -19 19 -33c0 -7 -14 -38 -26 -38c-3 0 -9 -1 -19 -1c-4 0 -9 -1 -12 -1v-93c0 -81 0 -163 -1 -229l-1 -110v-23h26c16 -6 27 -13 30 -28v-4c0 -19 -5 -41 -23 -46c-9 -2 -81 0 -122 1c-9 0 -23 1 -24 1
c-13 0 -28 34 -28 41c0 12 12 24 20 31c6 3 19 4 36 4v454c-14 0 -25 1 -29 2c-19 3 -23 22 -23 43z" />
    <glyph glyph-name="dotlessi" unicode="&#x131;" horiz-adv-x="219" 
d="M14 567c3 14 14 25 30 31c28 0 136 0 146 -6c7 -5 19 -19 19 -33c0 -7 -14 -38 -26 -38c-3 0 -9 -1 -19 -1c-4 0 -9 -1 -12 -1v-93c0 -81 0 -163 -1 -229l-1 -110v-23h26c16 -6 27 -13 30 -28v-4c0 -19 -5 -41 -23 -46c-9 -2 -81 0 -122 1c-9 0 -23 1 -24 1
c-13 0 -28 34 -28 41c0 12 12 24 20 31c6 3 19 4 36 4v454c-14 0 -25 1 -29 2c-19 3 -23 22 -23 43z" />
    <glyph glyph-name="iacute" unicode="&#xed;" horiz-adv-x="219" 
d="M184 761c9 -7 11 -16 11 -23c0 -8 -3 -16 -9 -25c-19 -27 -79 -80 -96 -80c-25 0 -40 12 -40 30c0 17 12 35 21 46c2 2 31 45 51 57c6 3 15 7 21 7c9 0 30 -3 41 -12zM14 567c3 14 14 25 30 31c28 0 136 0 146 -6c7 -5 19 -19 19 -33c0 -7 -14 -38 -26 -38
c-3 0 -9 -1 -19 -1c-4 0 -9 -1 -12 -1v-93c0 -81 0 -163 -1 -229l-1 -110v-23h26c16 -6 27 -13 30 -28v-4c0 -19 -5 -41 -23 -46c-9 -2 -81 0 -122 1c-9 0 -23 1 -24 1c-13 0 -28 34 -28 41c0 12 12 24 20 31c6 3 19 4 36 4v454c-14 0 -25 1 -29 2c-19 3 -23 22 -23 43z" />
    <glyph glyph-name="icircumflex" unicode="&#xee;" horiz-adv-x="219" 
d="M225 687c3 -4 5 -8 5 -13c0 -20 -27 -29 -42 -29c-9 0 -16 2 -21 5c-11 7 -49 42 -49 42c-10 -9 -24 -20 -37 -31c-13 -10 -21 -16 -35 -16c-20 0 -36 9 -36 31c0 8 0 19 11 26l28 23c26 21 52 44 73 45c23 1 103 -83 103 -83zM14 567c3 14 14 25 30 31
c28 0 136 0 146 -6c7 -5 19 -19 19 -33c0 -7 -14 -38 -26 -38c-3 0 -9 -1 -19 -1c-4 0 -9 -1 -12 -1v-93c0 -81 0 -163 -1 -229l-1 -110v-23h26c16 -6 27 -13 30 -28v-4c0 -19 -5 -41 -23 -46c-9 -2 -81 0 -122 1c-9 0 -23 1 -24 1c-13 0 -28 34 -28 41c0 12 12 24 20 31
c6 3 19 4 36 4v454c-14 0 -25 1 -29 2c-19 3 -23 22 -23 43z" />
    <glyph glyph-name="idieresis" unicode="&#xef;" horiz-adv-x="219" 
d="M42 752c9 5 22 10 36 10c33 0 38 -23 38 -52c0 -31 -17 -48 -47 -48c-27 0 -45 29 -45 56c0 13 5 27 18 34zM148 752c9 5 22 10 36 10c33 0 38 -23 38 -52c0 -31 -17 -48 -47 -48c-27 0 -45 29 -45 56c0 13 5 27 18 34zM14 567c3 14 14 25 30 31c28 0 136 0 146 -6
c7 -5 19 -19 19 -33c0 -7 -14 -38 -26 -38c-3 0 -9 -1 -19 -1c-4 0 -9 -1 -12 -1v-93c0 -81 0 -163 -1 -229l-1 -110v-23h26c16 -6 27 -13 30 -28v-4c0 -19 -5 -41 -23 -46c-9 -2 -81 0 -122 1c-9 0 -23 1 -24 1c-13 0 -28 34 -28 41c0 12 12 24 20 31c6 3 19 4 36 4v454
c-14 0 -25 1 -29 2c-19 3 -23 22 -23 43z" />
    <glyph glyph-name="i.loclTRK" horiz-adv-x="219" 
d="M91 753c14 6 27 11 40 11c37 0 42 -24 42 -56c0 -33 -19 -52 -51 -52c-29 0 -49 32 -49 60c0 13 5 28 18 37zM14 567c3 14 14 25 30 31c28 0 136 0 146 -6c7 -5 19 -19 19 -33c0 -7 -14 -38 -26 -38c-3 0 -9 -1 -19 -1c-4 0 -9 -1 -12 -1v-93c0 -81 0 -163 -1 -229
l-1 -110v-23h26c16 -6 27 -13 30 -28v-4c0 -19 -5 -41 -23 -46c-9 -2 -81 0 -122 1c-9 0 -23 1 -24 1c-13 0 -28 34 -28 41c0 12 12 24 20 31c6 3 19 4 36 4v454c-14 0 -25 1 -29 2c-19 3 -23 22 -23 43z" />
    <glyph glyph-name="igrave" unicode="&#xec;" horiz-adv-x="219" 
d="M46 761c12 10 33 12 42 12c6 0 14 -4 20 -7c21 -13 49 -53 52 -56c8 -11 20 -29 20 -47s-15 -30 -39 -30c-17 0 -77 53 -96 80c-6 11 -10 19 -10 25c0 7 2 15 11 23zM14 567c3 14 14 25 30 31c28 0 136 0 146 -6c7 -5 19 -19 19 -33c0 -7 -14 -38 -26 -38
c-3 0 -9 -1 -19 -1c-4 0 -9 -1 -12 -1v-93c0 -81 0 -163 -1 -229l-1 -110v-23h26c16 -6 27 -13 30 -28v-4c0 -19 -5 -41 -23 -46c-9 -2 -81 0 -122 1c-9 0 -23 1 -24 1c-13 0 -28 34 -28 41c0 12 12 24 20 31c6 3 19 4 36 4v454c-14 0 -25 1 -29 2c-19 3 -23 22 -23 43z" />
    <glyph glyph-name="imacron" unicode="&#x12b;" horiz-adv-x="219" 
d="M235 694c-3 -25 -8 -39 -32 -39h-162c-31 0 -33 19 -33 40c0 19 15 37 34 37h159c18 0 34 -19 34 -38zM14 567c3 14 14 25 30 31c28 0 136 0 146 -6c7 -5 19 -19 19 -33c0 -7 -14 -38 -26 -38c-3 0 -9 -1 -19 -1c-4 0 -9 -1 -12 -1v-93c0 -81 0 -163 -1 -229l-1 -110v-23
h26c16 -6 27 -13 30 -28v-4c0 -19 -5 -41 -23 -46c-9 -2 -81 0 -122 1c-9 0 -23 1 -24 1c-13 0 -28 34 -28 41c0 12 12 24 20 31c6 3 19 4 36 4v454c-14 0 -25 1 -29 2c-19 3 -23 22 -23 43z" />
    <glyph glyph-name="iogonek" unicode="&#x12f;" horiz-adv-x="219" 
d="M122 656c-29 0 -49 32 -49 60c0 13 5 28 18 37c14 6 27 11 40 11c37 0 42 -24 42 -56c0 -33 -19 -52 -51 -52zM176 64c16 -6 27 -13 30 -28v-4c0 -19 -5 -41 -23 -46c-5 -1 -26 -1 -51 -1c-14 -20 -31 -55 -31 -81c0 -5 2 -13 10 -13c9 0 16 14 20 28c7 22 14 43 29 43
c21 0 35 -11 35 -38c0 -21 -4 -50 -16 -67c-14 -18 -37 -28 -77 -28c-42 0 -79 26 -79 76c0 27 10 56 26 82c-6 1 -11 1 -12 1c-13 0 -28 34 -28 41c0 12 12 24 20 31c6 3 19 4 36 4v454c-14 0 -25 1 -29 2c-19 3 -23 22 -23 43l1 4c3 14 14 25 30 31c28 0 136 0 146 -6
c7 -5 19 -19 19 -33c0 -7 -14 -38 -26 -38c-3 0 -9 -1 -19 -1c-4 0 -9 -1 -12 -1v-93c0 -81 0 -163 -1 -229l-1 -110v-23h26z" />
    <glyph glyph-name="j" unicode="j" horiz-adv-x="304" 
d="M193 589c8 7 28 13 46 13c34 0 37 -26 37 -53c0 -103 0 -179 -3 -258c-2 -41 -4 -82 -4 -129c1 -98 -31 -183 -135 -183c-91 0 -116 93 -116 179c0 12 1 24 1 34v67c0 20 22 39 47 39c15 0 47 0 47 -58c0 -28 0 -62 -1 -89c0 -12 -1 -32 -1 -37c0 -28 6 -60 31 -60
c31 0 35 34 35 71c0 95 1 154 2 212c1 55 -1 109 -1 190c0 18 0 45 15 62z" />
    <glyph glyph-name="k" unicode="k" horiz-adv-x="282" 
d="M100 599c9 -3 13 -10 16 -16c4 -29 3 -56 3 -84c0 -36 0 -63 -1 -93c18 63 28 92 41 134c6 19 24 52 36 57c9 3 18 4 24 4c28 0 35 -13 35 -39c0 -15 -6 -38 -9 -45c-8 -18 -22 -52 -38 -90l-52 -123c31 -70 56 -119 83 -176l29 -62c3 -6 16 -34 16 -56
c0 -34 -35 -33 -46 -33c-26 0 -40 29 -52 55c-27 56 -43 92 -55 123l-20 58c-2 -57 -2 -140 -2 -174c0 -53 -18 -56 -44 -56c-12 0 -20 3 -25 5c-11 4 -15 28 -15 45c4 138 9 393 9 482c0 27 -2 61 6 70c18 20 35 22 61 14z" />
    <glyph glyph-name="kcommaaccent" unicode="&#x137;" horiz-adv-x="282" 
d="M100 599c9 -3 13 -10 16 -16c4 -29 3 -56 3 -84c0 -36 0 -63 -1 -93c18 63 28 92 41 134c6 19 24 52 36 57c9 3 18 4 24 4c28 0 35 -13 35 -39c0 -15 -6 -38 -9 -45c-8 -18 -22 -52 -38 -90l-52 -123c31 -70 56 -119 83 -176l29 -62c3 -6 16 -34 16 -56
c0 -34 -35 -33 -46 -33c-26 0 -40 29 -52 55c-27 56 -43 92 -55 123l-20 58c-2 -57 -2 -140 -2 -174c0 -53 -18 -56 -44 -56c-12 0 -20 3 -25 5c-11 4 -15 28 -15 45c4 138 9 393 9 482c0 27 -2 61 6 70c18 20 35 22 61 14zM113 -37c12 6 29 13 45 13c43 0 50 -30 50 -67
c0 -26 -29 -112 -46 -133c-8 -10 -20 -15 -29 -15c-23 0 -39 29 -38 38c5 13 12 41 16 66c-15 14 -20 34 -20 55c0 17 7 34 22 43z" />
    <glyph glyph-name="l" unicode="l" horiz-adv-x="222" 
d="M114 505c0 -2 0 -348 -2 -437h47c18 0 27 0 49 -5c3 -3 11 -17 11 -28c0 -16 -2 -28 -8 -33c-23 -13 -54 -13 -84 -13c-43 0 -72 1 -89 13c-12 17 -12 44 -12 58c1 30 1 116 1 209c0 120 0 258 -2 303c12 20 24 28 37 28c12 0 24 -6 32 -10c21 -10 20 -47 20 -85z" />
    <glyph glyph-name="lacute" unicode="&#x13a;" horiz-adv-x="222" 
d="M160 747c9 -7 11 -16 11 -23c0 -8 -3 -16 -9 -25c-19 -27 -79 -80 -96 -80c-25 0 -40 12 -40 30c0 17 12 35 21 46c2 2 31 45 51 57c6 3 15 7 21 7c9 0 30 -3 41 -12zM114 505c0 -2 0 -348 -2 -437h47c18 0 27 0 49 -5c3 -3 11 -17 11 -28c0 -16 -2 -28 -8 -33
c-23 -13 -54 -13 -84 -13c-43 0 -72 1 -89 13c-12 17 -12 44 -12 58c1 30 1 116 1 209c0 120 0 258 -2 303c12 20 24 28 37 28c12 0 24 -6 32 -10c21 -10 20 -47 20 -85z" />
    <glyph glyph-name="lcaron" unicode="&#x13e;" horiz-adv-x="265" 
d="M118 505c0 -2 0 -348 -2 -437h47c18 0 27 0 49 -5c3 -3 11 -17 11 -28c0 -16 -2 -28 -8 -33c-23 -13 -54 -13 -84 -13c-43 0 -72 1 -89 13c-12 17 -12 44 -12 58c1 30 1 116 1 209c0 120 0 258 -2 303c12 20 24 28 37 28c12 0 24 -6 32 -10c21 -10 20 -47 20 -85z
M162 583c10 6 23 11 37 11c36 0 42 -26 42 -57c0 -22 -21 -91 -32 -106c-11 -12 -23 -18 -30 -18c-19 0 -30 24 -31 33c4 15 9 31 11 54c-11 12 -17 28 -17 46c0 15 8 29 20 37z" />
    <glyph glyph-name="lcommaaccent" unicode="&#x13c;" horiz-adv-x="222" 
d="M114 505c0 -2 0 -348 -2 -437h47c18 0 27 0 49 -5c3 -3 11 -17 11 -28c0 -16 -2 -28 -8 -33c-23 -13 -54 -13 -84 -13c-43 0 -72 1 -89 13c-12 17 -12 44 -12 58c1 30 1 116 1 209c0 120 0 258 -2 303c12 20 24 28 37 28c12 0 24 -6 32 -10c21 -10 20 -47 20 -85zM75 -37
c12 6 29 13 45 13c43 0 50 -30 50 -67c0 -26 -29 -112 -46 -133c-8 -10 -20 -15 -29 -15c-23 0 -39 29 -38 38c5 13 12 41 16 66c-15 14 -20 34 -20 55c0 17 7 34 22 43z" />
    <glyph glyph-name="lslash" unicode="&#x142;" horiz-adv-x="222" 
d="M222 353l-108 -99c-1 -77 -1 -151 -2 -186h47c18 0 27 0 49 -5c3 -3 11 -17 11 -28c0 -16 -2 -28 -8 -33c-23 -13 -54 -13 -84 -13c-43 0 -72 1 -89 13c-12 17 -12 44 -12 58c1 19 1 62 1 115l-2 -2c-23 -21 -38 -6 -51 11c-15 19 -15 40 2 55l51 47c0 115 0 243 -2 286
c12 20 24 28 37 28c12 0 24 -6 32 -10c21 -10 20 -47 20 -85v-140l56 51c13 13 35 9 48 -8c15 -21 19 -40 4 -55z" />
    <glyph glyph-name="m" unicode="m" horiz-adv-x="469" 
d="M346 584c21 8 27 12 38 12c27 0 42 -20 42 -52c0 -40 0 -79 1 -119c2 -121 3 -244 3 -368c0 -39 -4 -72 -58 -72c-16 0 -27 9 -30 40v337c-23 -110 -40 -175 -59 -278c-9 -29 -29 -32 -55 -32c-24 0 -39 20 -45 41c-19 60 -46 188 -70 275c0 -26 0 -95 1 -122
c1 -77 2 -155 2 -224c-5 -27 -28 -34 -47 -34c-30 0 -35 34 -36 52c-1 16 -3 172 -3 314c0 85 -1 166 -1 206c11 29 36 38 57 38c19 0 35 -7 44 -12c76 -301 103 -402 103 -402c21 96 67 306 77 339c8 30 15 51 36 61z" />
    <glyph glyph-name="n" unicode="n" horiz-adv-x="324" 
d="M26 549c2 24 21 42 55 42c17 -4 27 -23 33 -54l3 -12c25 -94 69 -251 101 -353c-1 87 -4 140 -5 188c-1 39 -3 87 -3 115v73c0 25 21 52 59 52c14 0 20 -10 20 -23c0 -21 0 -79 1 -139c1 -96 1 -223 1 -308c0 -52 -1 -90 -4 -99v2c-3 -20 -27 -42 -52 -42
c-18 0 -32 6 -37 22l-90 294v-59c0 -107 3 -168 -2 -240c-21 -22 -33 -26 -54 -26c-22 0 -29 38 -29 99c0 18 1 42 1 63v155c0 114 1 224 2 250z" />
    <glyph glyph-name="nacute" unicode="&#x144;" horiz-adv-x="324" 
d="M236 761c9 -7 11 -16 11 -23c0 -8 -3 -16 -9 -25c-19 -27 -79 -80 -96 -80c-25 0 -40 12 -40 30c0 17 12 35 21 46c2 2 31 45 51 57c6 3 15 7 21 7c9 0 30 -3 41 -12zM26 549c2 24 21 42 55 42c17 -4 27 -23 33 -54l3 -12c25 -94 69 -251 101 -353c-1 87 -4 140 -5 188
c-1 39 -3 87 -3 115v73c0 25 21 52 59 52c14 0 20 -10 20 -23c0 -21 0 -79 1 -139c1 -96 1 -223 1 -308c0 -52 -1 -90 -4 -99v2c-3 -20 -27 -42 -52 -42c-18 0 -32 6 -37 22l-90 294v-59c0 -107 3 -168 -2 -240c-21 -22 -33 -26 -54 -26c-22 0 -29 38 -29 99c0 18 1 42 1 63
v155c0 114 1 224 2 250z" />
    <glyph glyph-name="ncaron" unicode="&#x148;" horiz-adv-x="324" 
d="M279 743c1 -2 1 -4 1 -6c0 -5 -2 -9 -4 -13c0 0 -80 -84 -103 -83s-47 26 -74 48c-9 7 -11 9 -21 18c-10 10 -13 18 -13 28c0 7 1 14 4 18c8 12 20 14 32 14c13 0 22 -5 35 -17c17 -16 35 -31 35 -31c23 17 53 48 69 48s32 -7 39 -24zM26 549c2 24 21 42 55 42
c17 -4 27 -23 33 -54l3 -12c25 -94 69 -251 101 -353c-1 87 -4 140 -5 188c-1 39 -3 87 -3 115v73c0 25 21 52 59 52c14 0 20 -10 20 -23c0 -21 0 -79 1 -139c1 -96 1 -223 1 -308c0 -52 -1 -90 -4 -99v2c-3 -20 -27 -42 -52 -42c-18 0 -32 6 -37 22l-90 294v-59
c0 -107 3 -168 -2 -240c-21 -22 -33 -26 -54 -26c-22 0 -29 38 -29 99c0 18 1 42 1 63v155c0 114 1 224 2 250z" />
    <glyph glyph-name="ncommaaccent" unicode="&#x146;" horiz-adv-x="324" 
d="M26 549c2 24 21 42 55 42c17 -4 27 -23 33 -54l3 -12c25 -94 69 -251 101 -353c-1 87 -4 140 -5 188c-1 39 -3 87 -3 115v73c0 25 21 52 59 52c14 0 20 -10 20 -23c0 -21 0 -79 1 -139c1 -96 1 -223 1 -308c0 -52 -1 -90 -4 -99v2c-3 -20 -27 -42 -52 -42
c-18 0 -32 6 -37 22l-90 294v-59c0 -107 3 -168 -2 -240c-21 -22 -33 -26 -54 -26c-22 0 -29 38 -29 99c0 18 1 42 1 63v155c0 114 1 224 2 250zM126 -37c12 6 29 13 45 13c43 0 50 -30 50 -67c0 -26 -29 -112 -46 -133c-8 -10 -20 -15 -29 -15c-23 0 -39 29 -38 38
c5 13 12 41 16 66c-15 14 -20 34 -20 55c0 17 7 34 22 43z" />
    <glyph glyph-name="eng" unicode="&#x14b;" horiz-adv-x="329" 
d="M186 -86c19 0 24 21 24 49v55c-33 100 -66 171 -99 272c0 -18 1 -45 1 -54c0 -111 7 -250 7 -250c-14 -14 -34 -23 -56 -23c-32 0 -36 111 -36 230v95c0 119 1 229 2 256c3 23 25 42 60 42c23 -13 26 -24 35 -68c28 -101 68 -241 102 -349l-6 120c-3 61 -7 126 -7 177v78
c0 28 29 50 53 50c13 0 25 -5 29 -23c0 -22 1 -77 2 -139c2 -99 3 -228 3 -315c0 -167 -8 -198 -28 -228c-19 -28 -48 -46 -92 -46c-26 0 -45 7 -57 17c-15 16 -15 29 -15 34c0 17 18 38 33 38c17 0 27 -18 45 -18z" />
    <glyph glyph-name="ntilde" unicode="&#xf1;" horiz-adv-x="324" 
d="M61 689c0 21 31 72 81 72c22 0 37 -9 50 -18c8 -5 15 -11 26 -11c18 0 30 24 51 27c0 0 24 -9 24 -30c0 -41 -42 -79 -77 -79c-25 0 -40 10 -52 20c-7 5 -16 11 -21 11c-18 0 -25 -30 -48 -30c-16 0 -34 11 -34 38zM26 549c2 24 21 42 55 42c17 -4 27 -23 33 -54l3 -12
c25 -94 69 -251 101 -353c-1 87 -4 140 -5 188c-1 39 -3 87 -3 115v73c0 25 21 52 59 52c14 0 20 -10 20 -23c0 -21 0 -79 1 -139c1 -96 1 -223 1 -308c0 -52 -1 -90 -4 -99v2c-3 -20 -27 -42 -52 -42c-18 0 -32 6 -37 22l-90 294v-59c0 -107 3 -168 -2 -240
c-21 -22 -33 -26 -54 -26c-22 0 -29 38 -29 99c0 18 1 42 1 63v155c0 114 1 224 2 250z" />
    <glyph glyph-name="o" unicode="o" horiz-adv-x="287" 
d="M264 447c0 -24 1 -46 2 -68c1 -19 1 -44 1 -61c0 -197 -25 -337 -120 -337c-53 0 -98 17 -119 121c-9 48 -15 116 -15 177c0 22 1 43 1 63v47c0 76 23 220 139 220c67 0 109 -87 111 -162zM142 56c32 0 38 131 38 249c0 62 -1 138 -6 170c-2 20 -13 56 -30 56
c-25 0 -45 -40 -45 -240c0 -68 2 -235 43 -235z" />
    <glyph glyph-name="oacute" unicode="&#xf3;" horiz-adv-x="287" 
d="M208 761c9 -7 11 -16 11 -23c0 -8 -3 -16 -9 -25c-19 -27 -79 -80 -96 -80c-25 0 -40 12 -40 30c0 17 12 35 21 46c2 2 31 45 51 57c6 3 15 7 21 7c9 0 30 -3 41 -12zM264 447c0 -24 1 -46 2 -68c1 -19 1 -44 1 -61c0 -197 -25 -337 -120 -337c-53 0 -98 17 -119 121
c-9 48 -15 116 -15 177c0 22 1 43 1 63v47c0 76 23 220 139 220c67 0 109 -87 111 -162zM142 56c32 0 38 131 38 249c0 62 -1 138 -6 170c-2 20 -13 56 -30 56c-25 0 -45 -40 -45 -240c0 -68 2 -235 43 -235z" />
    <glyph glyph-name="ocircumflex" unicode="&#xf4;" horiz-adv-x="287" 
d="M249 687c3 -4 5 -8 5 -13c0 -20 -27 -29 -42 -29c-9 0 -16 2 -21 5c-11 7 -49 42 -49 42c-10 -9 -24 -20 -37 -31c-13 -10 -21 -16 -35 -16c-20 0 -36 9 -36 31c0 8 0 19 11 26l28 23c26 21 52 44 73 45c23 1 103 -83 103 -83zM264 447c0 -24 1 -46 2 -68
c1 -19 1 -44 1 -61c0 -197 -25 -337 -120 -337c-53 0 -98 17 -119 121c-9 48 -15 116 -15 177c0 22 1 43 1 63v47c0 76 23 220 139 220c67 0 109 -87 111 -162zM142 56c32 0 38 131 38 249c0 62 -1 138 -6 170c-2 20 -13 56 -30 56c-25 0 -45 -40 -45 -240
c0 -68 2 -235 43 -235z" />
    <glyph glyph-name="odieresis" unicode="&#xf6;" horiz-adv-x="287" 
d="M66 752c9 5 22 10 36 10c33 0 38 -23 38 -52c0 -31 -17 -48 -47 -48c-27 0 -45 29 -45 56c0 13 5 27 18 34zM172 752c9 5 22 10 36 10c33 0 38 -23 38 -52c0 -31 -17 -48 -47 -48c-27 0 -45 29 -45 56c0 13 5 27 18 34zM264 447c0 -24 1 -46 2 -68c1 -19 1 -44 1 -61
c0 -197 -25 -337 -120 -337c-53 0 -98 17 -119 121c-9 48 -15 116 -15 177c0 22 1 43 1 63v47c0 76 23 220 139 220c67 0 109 -87 111 -162zM142 56c32 0 38 131 38 249c0 62 -1 138 -6 170c-2 20 -13 56 -30 56c-25 0 -45 -40 -45 -240c0 -68 2 -235 43 -235z" />
    <glyph glyph-name="ograve" unicode="&#xf2;" horiz-adv-x="287" 
d="M70 761c12 10 33 12 42 12c6 0 14 -4 20 -7c21 -13 49 -53 52 -56c8 -11 20 -29 20 -47s-15 -30 -39 -30c-17 0 -77 53 -96 80c-6 11 -10 19 -10 25c0 7 2 15 11 23zM264 447c0 -24 1 -46 2 -68c1 -19 1 -44 1 -61c0 -197 -25 -337 -120 -337c-53 0 -98 17 -119 121
c-9 48 -15 116 -15 177c0 22 1 43 1 63v47c0 76 23 220 139 220c67 0 109 -87 111 -162zM142 56c32 0 38 131 38 249c0 62 -1 138 -6 170c-2 20 -13 56 -30 56c-25 0 -45 -40 -45 -240c0 -68 2 -235 43 -235z" />
    <glyph glyph-name="ohungarumlaut" unicode="&#x151;" horiz-adv-x="287" 
d="M172 781c9 -7 11 -16 11 -23c0 -8 -3 -16 -9 -25c-19 -27 -79 -80 -96 -80c-25 0 -40 12 -40 30c0 17 12 35 21 46c2 2 31 45 51 57c6 3 15 7 21 7c9 0 30 -3 41 -12zM296 781c9 -7 11 -16 11 -23c0 -8 -3 -16 -9 -25c-19 -27 -79 -80 -96 -80c-25 0 -40 12 -40 30
c0 17 12 35 21 46c2 2 31 45 51 57c6 3 15 7 21 7c9 0 30 -3 41 -12zM264 447c0 -24 1 -46 2 -68c1 -19 1 -44 1 -61c0 -197 -25 -337 -120 -337c-53 0 -98 17 -119 121c-9 48 -15 116 -15 177c0 22 1 43 1 63v47c0 76 23 220 139 220c67 0 109 -87 111 -162zM142 56
c32 0 38 131 38 249c0 62 -1 138 -6 170c-2 20 -13 56 -30 56c-25 0 -45 -40 -45 -240c0 -68 2 -235 43 -235z" />
    <glyph glyph-name="omacron" unicode="&#x14d;" horiz-adv-x="287" 
d="M259 694c-3 -25 -8 -39 -32 -39h-162c-31 0 -33 19 -33 40c0 19 15 37 34 37h159c18 0 34 -19 34 -38zM264 447c0 -24 1 -46 2 -68c1 -19 1 -44 1 -61c0 -197 -25 -337 -120 -337c-53 0 -98 17 -119 121c-9 48 -15 116 -15 177c0 22 1 43 1 63v47c0 76 23 220 139 220
c67 0 109 -87 111 -162zM142 56c32 0 38 131 38 249c0 62 -1 138 -6 170c-2 20 -13 56 -30 56c-25 0 -45 -40 -45 -240c0 -68 2 -235 43 -235z" />
    <glyph glyph-name="oslash" unicode="&#xf8;" horiz-adv-x="287" 
d="M295 582v-11c-2 -2 -16 -36 -35 -86c2 -12 4 -25 4 -38c0 -24 1 -46 2 -68c1 -19 1 -44 1 -61c0 -197 -25 -337 -120 -337c-27 0 -51 4 -72 22c-2 -6 -3 -10 -4 -11c-8 -16 -14 -28 -42 -28c-19 0 -37 0 -37 31c0 8 6 30 11 39l25 66v2c-9 48 -15 116 -15 177
c0 22 1 43 1 63v47c0 76 23 220 139 220c23 0 43 -10 59 -27l3 7c7 24 25 25 38 25c20 0 42 -3 42 -32zM99 291v-6l74 195c-3 20 -13 51 -29 51c-25 0 -45 -40 -45 -240zM142 56c30 0 37 112 38 222c-12 -30 -23 -60 -34 -89l-33 -88c6 -27 15 -45 29 -45z" />
    <glyph glyph-name="otilde" unicode="&#xf5;" horiz-adv-x="287" 
d="M33 689c0 21 31 72 81 72c22 0 37 -9 50 -18c8 -5 15 -11 26 -11c18 0 30 24 51 27c0 0 24 -9 24 -30c0 -41 -42 -79 -77 -79c-25 0 -40 10 -52 20c-7 5 -16 11 -21 11c-18 0 -25 -30 -48 -30c-16 0 -34 11 -34 38zM264 447c0 -24 1 -46 2 -68c1 -19 1 -44 1 -61
c0 -197 -25 -337 -120 -337c-53 0 -98 17 -119 121c-9 48 -15 116 -15 177c0 22 1 43 1 63v47c0 76 23 220 139 220c67 0 109 -87 111 -162zM142 56c32 0 38 131 38 249c0 62 -1 138 -6 170c-2 20 -13 56 -30 56c-25 0 -45 -40 -45 -240c0 -68 2 -235 43 -235z" />
    <glyph glyph-name="oe" unicode="&#x153;" horiz-adv-x="393" 
d="M327 61c19 0 38 -5 44 -18c3 -5 3 -16 3 -23c0 -20 -16 -32 -31 -34c-26 -3 -71 -3 -105 -3c-18 0 -31 1 -39 6c-17 -5 -34 -8 -54 -8c-52 0 -96 17 -117 119c-9 47 -15 114 -15 174c0 22 1 43 1 62v47c0 74 23 216 137 216c17 0 35 -6 51 -16c8 12 33 16 62 16
c8 0 17 -1 25 -1h26c44 0 61 -2 61 -40c0 -32 -6 -40 -61 -40h-49c0 -7 1 -41 1 -59c0 -52 -1 -75 -1 -89v-17c0 -9 -1 -20 -2 -24h56c43 0 45 -11 45 -41c0 -28 -18 -35 -37 -35h-49c-7 0 -8 0 -8 -2c0 -21 1 -51 1 -77s-1 -52 -1 -74c0 -14 -1 -32 -1 -41h19
c14 1 28 2 38 2zM98 286c0 -67 2 -231 50 -231c8 0 19 1 35 7v15c3 81 3 230 3 324v105v8c-9 5 -17 8 -32 8c-30 0 -56 -39 -56 -236z" />
    <glyph glyph-name="p" unicode="p" horiz-adv-x="285" 
d="M24 529c14 65 76 71 117 71c43 0 84 -16 109 -53c12 -26 15 -71 15 -97c0 -63 -6 -141 -13 -167c-20 -60 -57 -84 -104 -84c-14 0 -39 0 -42 2v-112c0 -33 1 -58 1 -58c0 -6 -13 -50 -47 -50c-24 0 -39 7 -39 31zM110 525c-1 -73 -2 -131 -2 -178c0 -28 1 -41 1 -70h29
c25 0 42 36 42 76c0 10 1 39 1 61v29c0 52 -8 82 -51 82h-20z" />
    <glyph glyph-name="thorn" unicode="&#xfe;" horiz-adv-x="274" 
d="M108 504c10 2 17 3 26 3c85 0 117 -60 117 -149c0 -63 -5 -161 -13 -186c-18 -60 -56 -85 -103 -85c-10 0 -20 1 -30 3v-62c0 -5 -17 -49 -50 -49c-28 0 -34 5 -34 30l4 547c0 22 20 43 43 43c13 0 30 -6 41 -28zM117 434c-3 0 -6 -1 -10 -3l-1 -258c11 -5 21 -7 28 -8
c29 1 33 72 33 114c0 10 1 32 1 49v23c0 51 -8 83 -51 83z" />
    <glyph glyph-name="q" unicode="q" horiz-adv-x="289" 
d="M266 439c0 -24 0 -47 1 -69c0 -20 1 -40 1 -59c0 -88 -4 -165 -18 -222c27 -33 43 -72 47 -107c0 -10 -19 -28 -33 -28c-16 0 -27 4 -30 17c-9 22 -13 31 -20 39c-17 -18 -41 -34 -66 -34c-52 0 -98 17 -118 120c-9 48 -14 115 -14 176v109c0 76 14 219 139 219
c66 0 106 -86 111 -161zM102 284c0 -31 0 -79 3 -123c24 0 50 -6 73 -16c5 44 6 99 6 153c0 62 -2 140 -7 172c-2 20 -13 51 -30 51c-25 0 -45 -39 -45 -237zM144 47c5 0 15 3 19 27c-18 14 -37 17 -51 18c2 -17 15 -45 32 -45z" />
    <glyph glyph-name="r" unicode="r" horiz-adv-x="277" 
d="M25 529c13 65 75 71 117 71c43 0 84 -16 108 -53c12 -26 15 -71 15 -97c0 -63 -6 -141 -13 -167c-10 -32 -25 -56 -57 -67c25 -41 73 -113 85 -217c-2 -2 -22 -20 -42 -20c-16 0 -43 16 -46 24c-11 58 -41 167 -80 198c-3 2 -6 3 -6 3v-115c0 -33 1 -58 1 -58
c0 -6 -13 -50 -47 -50c-24 0 -39 7 -39 31zM111 525c-2 -73 -3 -131 -3 -178c0 -28 1 -41 1 -70h29c25 0 42 36 42 76c0 10 1 39 1 61v29c0 52 -8 82 -51 82h-19z" />
    <glyph glyph-name="racute" unicode="&#x155;" horiz-adv-x="277" 
d="M213 761c9 -7 11 -16 11 -23c0 -8 -3 -16 -9 -25c-19 -27 -79 -80 -96 -80c-25 0 -40 12 -40 30c0 17 12 35 21 46c2 2 31 45 51 57c6 3 15 7 21 7c9 0 30 -3 41 -12zM25 529c13 65 75 71 117 71c43 0 84 -16 108 -53c12 -26 15 -71 15 -97c0 -63 -6 -141 -13 -167
c-10 -32 -25 -56 -57 -67c25 -41 73 -113 85 -217c-2 -2 -22 -20 -42 -20c-16 0 -43 16 -46 24c-11 58 -41 167 -80 198c-3 2 -6 3 -6 3v-115c0 -33 1 -58 1 -58c0 -6 -13 -50 -47 -50c-24 0 -39 7 -39 31zM111 525c-2 -73 -3 -131 -3 -178c0 -28 1 -41 1 -70h29
c25 0 42 36 42 76c0 10 1 39 1 61v29c0 52 -8 82 -51 82h-19z" />
    <glyph glyph-name="rcaron" unicode="&#x159;" horiz-adv-x="277" 
d="M256 743c1 -2 1 -4 1 -6c0 -5 -2 -9 -4 -13c0 0 -80 -84 -103 -83s-47 26 -74 48c-9 7 -11 9 -21 18c-10 10 -13 18 -13 28c0 7 1 14 4 18c8 12 20 14 32 14c13 0 22 -5 35 -17c17 -16 35 -31 35 -31c23 17 53 48 69 48s32 -7 39 -24zM25 529c13 65 75 71 117 71
c43 0 84 -16 108 -53c12 -26 15 -71 15 -97c0 -63 -6 -141 -13 -167c-10 -32 -25 -56 -57 -67c25 -41 73 -113 85 -217c-2 -2 -22 -20 -42 -20c-16 0 -43 16 -46 24c-11 58 -41 167 -80 198c-3 2 -6 3 -6 3v-115c0 -33 1 -58 1 -58c0 -6 -13 -50 -47 -50c-24 0 -39 7 -39 31
zM111 525c-2 -73 -3 -131 -3 -178c0 -28 1 -41 1 -70h29c25 0 42 36 42 76c0 10 1 39 1 61v29c0 52 -8 82 -51 82h-19z" />
    <glyph glyph-name="rcommaaccent" unicode="&#x157;" horiz-adv-x="277" 
d="M25 529c13 65 75 71 117 71c43 0 84 -16 108 -53c12 -26 15 -71 15 -97c0 -63 -6 -141 -13 -167c-10 -32 -25 -56 -57 -67c25 -41 73 -113 85 -217c-2 -2 -22 -20 -42 -20c-16 0 -43 16 -46 24c-11 58 -41 167 -80 198c-3 2 -6 3 -6 3v-115c0 -33 1 -58 1 -58
c0 -6 -13 -50 -47 -50c-24 0 -39 7 -39 31zM111 525c-2 -73 -3 -131 -3 -178c0 -28 1 -41 1 -70h29c25 0 42 36 42 76c0 10 1 39 1 61v29c0 52 -8 82 -51 82h-19zM103 -37c12 6 29 13 45 13c43 0 50 -30 50 -67c0 -26 -29 -112 -46 -133c-8 -10 -20 -15 -29 -15
c-23 0 -39 29 -38 38c5 13 12 41 16 66c-15 14 -20 34 -20 55c0 17 7 34 22 43z" />
    <glyph glyph-name="s" unicode="s" horiz-adv-x="267" 
d="M144 610c91 0 103 -94 105 -165c1 -20 -4 -37 -29 -37c-24 0 -42 0 -52 29c0 2 -2 19 -2 34c-1 26 -4 65 -20 65c-18 0 -29 -18 -29 -49c0 -44 30 -95 60 -141c36 -55 74 -119 74 -189c0 -96 -27 -180 -125 -180c-67 0 -103 76 -103 143c0 28 7 55 42 55
c27 0 45 -16 47 -48c1 -23 4 -74 24 -74c27 0 29 49 29 74c0 57 -32 110 -60 153c-37 55 -76 116 -76 199c0 80 51 131 115 131z" />
    <glyph glyph-name="sacute" unicode="&#x15b;" horiz-adv-x="267" 
d="M208 761c9 -7 11 -16 11 -23c0 -8 -3 -16 -9 -25c-19 -27 -79 -80 -96 -80c-25 0 -40 12 -40 30c0 17 12 35 21 46c2 2 31 45 51 57c6 3 15 7 21 7c9 0 30 -3 41 -12zM144 610c91 0 103 -94 105 -165c1 -20 -4 -37 -29 -37c-24 0 -42 0 -52 29c0 2 -2 19 -2 34
c-1 26 -4 65 -20 65c-18 0 -29 -18 -29 -49c0 -44 30 -95 60 -141c36 -55 74 -119 74 -189c0 -96 -27 -180 -125 -180c-67 0 -103 76 -103 143c0 28 7 55 42 55c27 0 45 -16 47 -48c1 -23 4 -74 24 -74c27 0 29 49 29 74c0 57 -32 110 -60 153c-37 55 -76 116 -76 199
c0 80 51 131 115 131z" />
    <glyph glyph-name="scaron" unicode="&#x161;" horiz-adv-x="267" 
d="M251 743c1 -2 1 -4 1 -6c0 -5 -2 -9 -4 -13c0 0 -80 -84 -103 -83s-47 26 -74 48c-9 7 -11 9 -21 18c-10 10 -13 18 -13 28c0 7 1 14 4 18c8 12 20 14 32 14c13 0 22 -5 35 -17c17 -16 35 -31 35 -31c23 17 53 48 69 48s32 -7 39 -24zM144 610c91 0 103 -94 105 -165
c1 -20 -4 -37 -29 -37c-24 0 -42 0 -52 29c0 2 -2 19 -2 34c-1 26 -4 65 -20 65c-18 0 -29 -18 -29 -49c0 -44 30 -95 60 -141c36 -55 74 -119 74 -189c0 -96 -27 -180 -125 -180c-67 0 -103 76 -103 143c0 28 7 55 42 55c27 0 45 -16 47 -48c1 -23 4 -74 24 -74
c27 0 29 49 29 74c0 57 -32 110 -60 153c-37 55 -76 116 -76 199c0 80 51 131 115 131z" />
    <glyph glyph-name="scedilla" unicode="&#x15f;" horiz-adv-x="267" 
d="M163 -18c54 -17 64 -46 64 -84c0 -65 -47 -86 -87 -86c-32 0 -71 13 -71 51c0 25 13 30 25 30c5 0 11 -2 20 -6c4 -2 12 -4 16 -4c13 0 26 0 26 19c0 5 -8 8 -23 13l-24 9c-24 9 -36 23 -36 49c0 6 2 13 4 20c-35 26 -54 79 -54 127c0 28 7 55 42 55c27 0 45 -16 47 -48
c1 -23 4 -74 24 -74c27 0 29 49 29 74c0 57 -32 110 -60 153c-37 55 -76 116 -76 199c0 80 51 131 115 131c91 0 103 -94 105 -165c1 -20 -4 -37 -29 -37c-24 0 -42 0 -52 29c0 2 -2 19 -2 34c-1 26 -4 65 -20 65c-18 0 -29 -18 -29 -49c0 -44 30 -95 60 -141
c36 -55 74 -119 74 -189c0 -83 -20 -156 -88 -175z" />
    <glyph glyph-name="scommaaccent" unicode="&#x219;" horiz-adv-x="267" 
d="M144 610c91 0 103 -94 105 -165c1 -20 -4 -37 -29 -37c-24 0 -42 0 -52 29c0 2 -2 19 -2 34c-1 26 -4 65 -20 65c-18 0 -29 -18 -29 -49c0 -44 30 -95 60 -141c36 -55 74 -119 74 -189c0 -96 -27 -180 -125 -180c-67 0 -103 76 -103 143c0 28 7 55 42 55
c27 0 45 -16 47 -48c1 -23 4 -74 24 -74c27 0 29 49 29 74c0 57 -32 110 -60 153c-37 55 -76 116 -76 199c0 80 51 131 115 131zM100 -70c12 6 29 13 45 13c43 0 50 -30 50 -67c0 -26 -29 -112 -46 -133c-8 -10 -20 -15 -29 -15c-23 0 -39 29 -38 38c5 13 12 41 16 66
c-15 14 -20 34 -20 55c0 17 7 34 22 43z" />
    <glyph glyph-name="germandbls" unicode="&#xdf;" horiz-adv-x="449" 
d="M168 52c1 39 43 41 64 41c6 -15 17 -28 31 -28c37 0 38 80 38 104c0 72 -55 114 -95 145l-14 10c-22 20 -33 47 -33 71c0 31 9 55 20 83c12 28 24 58 24 104c0 30 -11 64 -33 64s-31 -45 -31 -53c0 -69 -1 -144 -3 -214c-1 -65 -2 -141 -2 -202c0 -64 0 -117 6 -153
c-8 -23 -37 -43 -53 -43c-37 5 -39 42 -39 80c1 93 1 159 1 220v165c0 43 1 82 2 111c4 79 35 165 134 165c57 0 104 -59 104 -143c0 -64 -13 -94 -26 -121c-8 -20 -16 -37 -16 -60c0 -5 2 -9 10 -13c48 -29 133 -84 133 -219c0 -83 -45 -182 -132 -182c-43 0 -91 22 -90 68
z" />
    <glyph glyph-name="t" unicode="t" horiz-adv-x="242" 
d="M-8 561c4 17 14 33 30 39c31 0 188 0 201 -6c7 -5 20 -27 20 -37c0 -8 -16 -37 -27 -37h-24c-10 -1 -21 -1 -33 -1c0 -112 0 -242 -1 -333c0 -35 -1 -100 -1 -115v-54c0 -4 -14 -35 -46 -35c-37 0 -42 18 -42 43c0 21 1 27 1 33c1 57 2 382 3 460h-19c-17 0 -33 0 -39 1
c-17 5 -23 22 -23 42z" />
    <glyph glyph-name="tbar" unicode="&#x167;" horiz-adv-x="242" 
d="M208 378c17 0 32 -16 32 -35c0 -22 -9 -38 -29 -38h-52c0 -43 -1 -84 -1 -119s-1 -100 -1 -115v-54c0 -4 -14 -35 -46 -35c-37 0 -42 18 -42 43c0 21 1 27 1 33c1 31 1 141 2 247h-51c-30 0 -33 19 -33 37c0 22 12 36 33 36h51c0 61 1 114 1 140h-19c-17 0 -33 0 -39 1
c-17 5 -23 22 -23 42c4 17 14 33 30 39c31 0 188 0 201 -6c7 -5 20 -27 20 -37c0 -8 -16 -37 -27 -37h-24c-10 -1 -21 -1 -33 -1v-141h49z" />
    <glyph glyph-name="tcaron" unicode="&#x165;" horiz-adv-x="372" 
d="M-8 561c4 17 14 33 30 39c31 0 188 0 201 -6c7 -5 20 -27 20 -37c0 -8 -16 -37 -27 -37h-24c-10 -1 -21 -1 -33 -1c0 -112 0 -242 -1 -333c0 -35 -1 -100 -1 -115v-54c0 -4 -14 -35 -46 -35c-37 0 -42 18 -42 43c0 21 1 27 1 33c1 57 2 382 3 460h-19c-17 0 -33 0 -39 1
c-17 5 -23 22 -23 42zM290 583c10 6 23 11 37 11c36 0 42 -26 42 -57c0 -22 -21 -91 -32 -106c-11 -12 -23 -18 -30 -18c-19 0 -30 24 -31 33c4 15 9 31 11 54c-11 12 -17 28 -17 46c0 15 8 29 20 37z" />
    <glyph glyph-name="uni0163" unicode="&#x163;" horiz-adv-x="242" 
d="M223 594c7 -5 20 -27 20 -37c0 -8 -16 -37 -27 -37h-24c-10 -1 -21 -1 -33 -1c0 -112 0 -242 -1 -333c0 -35 -1 -100 -1 -115v-54c0 -2 -5 -14 -15 -23l2 -1c57 -16 68 -46 68 -85c0 -65 -47 -86 -87 -86c-32 0 -71 13 -71 51c0 25 13 30 25 30c5 0 11 -2 20 -6
c4 -2 12 -4 16 -4c13 0 26 0 26 19c0 5 -8 8 -23 13l-24 9c-24 9 -36 23 -36 49c0 10 5 22 11 36v6c0 21 1 27 1 33c1 57 2 382 3 460h-19c-17 0 -33 0 -39 1c-17 5 -23 22 -23 42c4 17 14 33 30 39c31 0 188 0 201 -6z" />
    <glyph glyph-name="uni021B" unicode="&#x21b;" horiz-adv-x="242" 
d="M-8 561c4 17 14 33 30 39c31 0 188 0 201 -6c7 -5 20 -27 20 -37c0 -8 -16 -37 -27 -37h-24c-10 -1 -21 -1 -33 -1c0 -112 0 -242 -1 -333c0 -35 -1 -100 -1 -115v-54c0 -4 -14 -35 -46 -35c-37 0 -42 18 -42 43c0 21 1 27 1 33c1 57 2 382 3 460h-19c-17 0 -33 0 -39 1
c-17 5 -23 22 -23 42zM85 -60c12 6 29 13 45 13c43 0 50 -30 50 -67c0 -26 -29 -112 -46 -133c-8 -10 -20 -15 -29 -15c-23 0 -39 29 -38 38c5 13 12 41 16 66c-15 14 -20 34 -20 55c0 17 7 34 22 43z" />
    <glyph glyph-name="u" unicode="u" horiz-adv-x="317" 
d="M25 557c0 41 32 42 49 42c39 0 45 -39 45 -62v-415c0 -26 14 -66 37 -66c39 0 47 99 47 179c0 41 1 85 1 116v103v100c12 39 38 43 58 43c7 0 18 -5 28 -29c0 -67 -2 -424 -9 -456c-25 -121 -79 -135 -134 -135c-62 0 -88 41 -104 86c-13 36 -16 221 -18 386v108z" />
    <glyph glyph-name="uacute" unicode="&#xfa;" horiz-adv-x="317" 
d="M227 761c9 -7 11 -16 11 -23c0 -8 -3 -16 -9 -25c-19 -27 -79 -80 -96 -80c-25 0 -40 12 -40 30c0 17 12 35 21 46c2 2 31 45 51 57c6 3 15 7 21 7c9 0 30 -3 41 -12zM25 557c0 41 32 42 49 42c39 0 45 -39 45 -62v-415c0 -26 14 -66 37 -66c39 0 47 99 47 179
c0 41 1 85 1 116v103v100c12 39 38 43 58 43c7 0 18 -5 28 -29c0 -67 -2 -424 -9 -456c-25 -121 -79 -135 -134 -135c-62 0 -88 41 -104 86c-13 36 -16 221 -18 386v108z" />
    <glyph glyph-name="ucircumflex" unicode="&#xfb;" horiz-adv-x="317" 
d="M268 687c3 -4 5 -8 5 -13c0 -20 -27 -29 -42 -29c-9 0 -16 2 -21 5c-11 7 -49 42 -49 42c-10 -9 -24 -20 -37 -31c-13 -10 -21 -16 -35 -16c-20 0 -36 9 -36 31c0 8 0 19 11 26l28 23c26 21 52 44 73 45c23 1 103 -83 103 -83zM25 557c0 41 32 42 49 42
c39 0 45 -39 45 -62v-415c0 -26 14 -66 37 -66c39 0 47 99 47 179c0 41 1 85 1 116v103v100c12 39 38 43 58 43c7 0 18 -5 28 -29c0 -67 -2 -424 -9 -456c-25 -121 -79 -135 -134 -135c-62 0 -88 41 -104 86c-13 36 -16 221 -18 386v108z" />
    <glyph glyph-name="udieresis" unicode="&#xfc;" horiz-adv-x="317" 
d="M85 752c9 5 22 10 36 10c33 0 38 -23 38 -52c0 -31 -17 -48 -47 -48c-27 0 -45 29 -45 56c0 13 5 27 18 34zM191 752c9 5 22 10 36 10c33 0 38 -23 38 -52c0 -31 -17 -48 -47 -48c-27 0 -45 29 -45 56c0 13 5 27 18 34zM25 557c0 41 32 42 49 42c39 0 45 -39 45 -62v-415
c0 -26 14 -66 37 -66c39 0 47 99 47 179c0 41 1 85 1 116v103v100c12 39 38 43 58 43c7 0 18 -5 28 -29c0 -67 -2 -424 -9 -456c-25 -121 -79 -135 -134 -135c-62 0 -88 41 -104 86c-13 36 -16 221 -18 386v108z" />
    <glyph glyph-name="ugrave" unicode="&#xf9;" horiz-adv-x="317" 
d="M89 761c12 10 33 12 42 12c6 0 14 -4 20 -7c21 -13 49 -53 52 -56c8 -11 20 -29 20 -47s-15 -30 -39 -30c-17 0 -77 53 -96 80c-6 11 -10 19 -10 25c0 7 2 15 11 23zM25 557c0 41 32 42 49 42c39 0 45 -39 45 -62v-415c0 -26 14 -66 37 -66c39 0 47 99 47 179
c0 41 1 85 1 116v103v100c12 39 38 43 58 43c7 0 18 -5 28 -29c0 -67 -2 -424 -9 -456c-25 -121 -79 -135 -134 -135c-62 0 -88 41 -104 86c-13 36 -16 221 -18 386v108z" />
    <glyph glyph-name="uhungarumlaut" unicode="&#x171;" horiz-adv-x="317" 
d="M191 781c9 -7 11 -16 11 -23c0 -8 -3 -16 -9 -25c-19 -27 -79 -80 -96 -80c-25 0 -40 12 -40 30c0 17 12 35 21 46c2 2 31 45 51 57c6 3 15 7 21 7c9 0 30 -3 41 -12zM315 781c9 -7 11 -16 11 -23c0 -8 -3 -16 -9 -25c-19 -27 -79 -80 -96 -80c-25 0 -40 12 -40 30
c0 17 12 35 21 46c2 2 31 45 51 57c6 3 15 7 21 7c9 0 30 -3 41 -12zM25 557c0 41 32 42 49 42c39 0 45 -39 45 -62v-415c0 -26 14 -66 37 -66c39 0 47 99 47 179c0 41 1 85 1 116v103v100c12 39 38 43 58 43c7 0 18 -5 28 -29c0 -67 -2 -424 -9 -456
c-25 -121 -79 -135 -134 -135c-62 0 -88 41 -104 86c-13 36 -16 221 -18 386v108z" />
    <glyph glyph-name="umacron" unicode="&#x16b;" horiz-adv-x="317" 
d="M278 694c-3 -25 -8 -39 -32 -39h-162c-31 0 -33 19 -33 40c0 19 15 37 34 37h159c18 0 34 -19 34 -38zM25 557c0 41 32 42 49 42c39 0 45 -39 45 -62v-415c0 -26 14 -66 37 -66c39 0 47 99 47 179c0 41 1 85 1 116v103v100c12 39 38 43 58 43c7 0 18 -5 28 -29
c0 -67 -2 -424 -9 -456c-25 -121 -79 -135 -134 -135c-62 0 -88 41 -104 86c-13 36 -16 221 -18 386v108z" />
    <glyph glyph-name="uogonek" unicode="&#x173;" horiz-adv-x="317" 
d="M224 -2c-4 -8 -8 -15 -11 -19c-14 -20 -32 -56 -32 -83c0 -5 2 -13 10 -13c9 0 16 14 20 28c7 22 14 43 29 43c21 0 35 -11 35 -38c0 -21 -4 -50 -16 -67c-14 -18 -37 -28 -77 -28c-42 0 -79 26 -79 76c0 27 10 56 25 81c-48 8 -71 45 -85 85c-13 36 -16 221 -18 386v108
c0 41 32 42 49 42c39 0 45 -39 45 -62v-415c0 -26 14 -66 37 -66c39 0 47 99 47 179c0 41 1 85 1 116v103v100c12 39 38 43 58 43c7 0 18 -5 28 -29c0 -67 -2 -424 -9 -456c-13 -62 -33 -96 -57 -114z" />
    <glyph glyph-name="uring" unicode="&#x16f;" horiz-adv-x="317" 
d="M97 706c0 45 30 69 69 72c39 0 65 -33 65 -71s-26 -70 -67 -70c-38 0 -67 31 -67 69zM144 709c0 -13 12 -23 21 -23s22 10 22 23s-13 23 -22 23s-21 -10 -21 -23zM25 557c0 41 32 42 49 42c39 0 45 -39 45 -62v-415c0 -26 14 -66 37 -66c39 0 47 99 47 179
c0 41 1 85 1 116v103v100c12 39 38 43 58 43c7 0 18 -5 28 -29c0 -67 -2 -424 -9 -456c-25 -121 -79 -135 -134 -135c-62 0 -88 41 -104 86c-13 36 -16 221 -18 386v108z" />
    <glyph glyph-name="v" unicode="v" horiz-adv-x="283" 
d="M158 318l43 258c10 20 33 23 45 23c22 0 32 -21 32 -43c0 -15 -2 -23 -4 -34l-3 -13c-18 -116 -49 -289 -80 -446c-9 -40 -15 -77 -62 -77c-45 0 -55 54 -61 90c-22 144 -47 311 -67 467c-2 6 -2 9 -2 11c0 34 8 42 44 44c14 0 37 -13 41 -28c5 -21 8 -48 12 -92
c8 -66 12 -156 39 -333z" />
    <glyph glyph-name="w" unicode="w" horiz-adv-x="508" 
d="M366 326l41 249c11 20 35 23 46 23c23 0 32 -21 32 -43c0 -12 -2 -22 -7 -48c-17 -118 -49 -309 -84 -445c0 -3 -2 -9 -2 -11c-9 -36 -16 -65 -59 -65c-45 0 -56 54 -61 90c-13 77 -22 189 -31 258c-15 -81 -32 -204 -49 -272c-8 -38 -14 -76 -61 -76
c-45 0 -55 54 -61 90c-21 126 -35 234 -50 353c-5 40 -15 93 -15 125c0 33 8 41 43 43c13 0 39 -13 43 -28c16 -136 30 -228 52 -448l29 176l25 152c2 13 30 44 51 44h5c15 0 35 -15 39 -29c6 -25 4 -44 10 -82c7 -46 5 -73 35 -255z" />
    <glyph glyph-name="wacute" unicode="&#x1e83;" horiz-adv-x="508" 
d="M310 766c9 -7 11 -16 11 -23c0 -8 -3 -16 -9 -25c-19 -27 -79 -80 -96 -80c-25 0 -40 12 -40 30c0 17 12 35 21 46c2 2 31 45 51 57c6 3 15 7 21 7c9 0 30 -3 41 -12zM366 326l41 249c11 20 35 23 46 23c23 0 32 -21 32 -43c0 -12 -2 -22 -7 -48
c-17 -118 -49 -309 -84 -445c0 -3 -2 -9 -2 -11c-9 -36 -16 -65 -59 -65c-45 0 -56 54 -61 90c-13 77 -22 189 -31 258c-15 -81 -32 -204 -49 -272c-8 -38 -14 -76 -61 -76c-45 0 -55 54 -61 90c-21 126 -35 234 -50 353c-5 40 -15 93 -15 125c0 33 8 41 43 43
c13 0 39 -13 43 -28c16 -136 30 -228 52 -448l29 176l25 152c2 13 30 44 51 44h5c15 0 35 -15 39 -29c6 -25 4 -44 10 -82c7 -46 5 -73 35 -255z" />
    <glyph glyph-name="wcircumflex" unicode="&#x175;" horiz-adv-x="508" 
d="M351 692c3 -4 5 -8 5 -13c0 -20 -27 -29 -42 -29c-9 0 -16 2 -21 5c-11 7 -49 42 -49 42c-10 -9 -24 -20 -37 -31c-13 -10 -21 -16 -35 -16c-20 0 -36 9 -36 31c0 8 0 19 11 26l28 23c26 21 52 44 73 45c23 1 103 -83 103 -83zM366 326l41 249c11 20 35 23 46 23
c23 0 32 -21 32 -43c0 -12 -2 -22 -7 -48c-17 -118 -49 -309 -84 -445c0 -3 -2 -9 -2 -11c-9 -36 -16 -65 -59 -65c-45 0 -56 54 -61 90c-13 77 -22 189 -31 258c-15 -81 -32 -204 -49 -272c-8 -38 -14 -76 -61 -76c-45 0 -55 54 -61 90c-21 126 -35 234 -50 353
c-5 40 -15 93 -15 125c0 33 8 41 43 43c13 0 39 -13 43 -28c16 -136 30 -228 52 -448l29 176l25 152c2 13 30 44 51 44h5c15 0 35 -15 39 -29c6 -25 4 -44 10 -82c7 -46 5 -73 35 -255z" />
    <glyph glyph-name="wdieresis" unicode="&#x1e85;" horiz-adv-x="508" 
d="M168 757c9 5 22 10 36 10c33 0 38 -23 38 -52c0 -31 -17 -48 -47 -48c-27 0 -45 29 -45 56c0 13 5 27 18 34zM274 757c9 5 22 10 36 10c33 0 38 -23 38 -52c0 -31 -17 -48 -47 -48c-27 0 -45 29 -45 56c0 13 5 27 18 34zM366 326l41 249c11 20 35 23 46 23
c23 0 32 -21 32 -43c0 -12 -2 -22 -7 -48c-17 -118 -49 -309 -84 -445c0 -3 -2 -9 -2 -11c-9 -36 -16 -65 -59 -65c-45 0 -56 54 -61 90c-13 77 -22 189 -31 258c-15 -81 -32 -204 -49 -272c-8 -38 -14 -76 -61 -76c-45 0 -55 54 -61 90c-21 126 -35 234 -50 353
c-5 40 -15 93 -15 125c0 33 8 41 43 43c13 0 39 -13 43 -28c16 -136 30 -228 52 -448l29 176l25 152c2 13 30 44 51 44h5c15 0 35 -15 39 -29c6 -25 4 -44 10 -82c7 -46 5 -73 35 -255z" />
    <glyph glyph-name="wgrave" unicode="&#x1e81;" horiz-adv-x="508" 
d="M172 766c12 10 33 12 42 12c6 0 14 -4 20 -7c21 -13 49 -53 52 -56c8 -11 20 -29 20 -47s-15 -30 -39 -30c-17 0 -77 53 -96 80c-6 11 -10 19 -10 25c0 7 2 15 11 23zM366 326l41 249c11 20 35 23 46 23c23 0 32 -21 32 -43c0 -12 -2 -22 -7 -48
c-17 -118 -49 -309 -84 -445c0 -3 -2 -9 -2 -11c-9 -36 -16 -65 -59 -65c-45 0 -56 54 -61 90c-13 77 -22 189 -31 258c-15 -81 -32 -204 -49 -272c-8 -38 -14 -76 -61 -76c-45 0 -55 54 -61 90c-21 126 -35 234 -50 353c-5 40 -15 93 -15 125c0 33 8 41 43 43
c13 0 39 -13 43 -28c16 -136 30 -228 52 -448l29 176l25 152c2 13 30 44 51 44h5c15 0 35 -15 39 -29c6 -25 4 -44 10 -82c7 -46 5 -73 35 -255z" />
    <glyph glyph-name="x" unicode="x" horiz-adv-x="303" 
d="M-7 2c-1 3 -2 5 -2 9c0 2 0 5 1 8c0 0 55 140 113 285c-34 94 -65 184 -79 229c-1 4 -7 24 -7 32c10 18 26 31 43 31c20 0 35 -21 42 -41l50 -146c27 66 50 136 67 172c2 4 23 18 32 18c14 0 40 -18 42 -39c0 -6 -2 -14 -4 -18c-12 -26 -48 -120 -95 -241
c39 -106 81 -212 108 -280c0 0 -15 -41 -44 -41c-7 0 -22 5 -33 16c-12 16 -42 105 -78 200l-68 -178c-10 -24 -24 -40 -46 -40c-13 0 -34 11 -42 24z" />
    <glyph glyph-name="y" unicode="y" horiz-adv-x="278" 
d="M194 592c8 4 24 8 30 8c28 0 35 -30 35 -57v-12s-8 -392 -14 -427c-9 -51 -32 -122 -120 -122c-17 0 -98 7 -98 128c0 38 14 49 44 49c23 0 27 -14 34 -75c2 -17 7 -32 30 -32c20 0 28 39 28 67l2 80c-12 -3 -25 -5 -38 -5c-17 0 -34 3 -48 12c-57 34 -58 164 -58 244
c0 31 1 51 1 79v23c0 14 25 46 50 46c20 0 32 -14 32 -40c0 -82 1 -171 10 -255c1 -8 9 -35 30 -35c5 0 13 3 23 9c3 109 6 241 6 252c0 17 1 38 21 63z" />
    <glyph glyph-name="yacute" unicode="&#xfd;" horiz-adv-x="278" 
d="M213 761c9 -7 11 -16 11 -23c0 -8 -3 -16 -9 -25c-19 -27 -79 -80 -96 -80c-25 0 -40 12 -40 30c0 17 12 35 21 46c2 2 31 45 51 57c6 3 15 7 21 7c9 0 30 -3 41 -12zM194 592c8 4 24 8 30 8c28 0 35 -30 35 -57v-12s-8 -392 -14 -427c-9 -51 -32 -122 -120 -122
c-17 0 -98 7 -98 128c0 38 14 49 44 49c23 0 27 -14 34 -75c2 -17 7 -32 30 -32c20 0 28 39 28 67l2 80c-12 -3 -25 -5 -38 -5c-17 0 -34 3 -48 12c-57 34 -58 164 -58 244c0 31 1 51 1 79v23c0 14 25 46 50 46c20 0 32 -14 32 -40c0 -82 1 -171 10 -255c1 -8 9 -35 30 -35
c5 0 13 3 23 9c3 109 6 241 6 252c0 17 1 38 21 63z" />
    <glyph glyph-name="ycircumflex" unicode="&#x177;" horiz-adv-x="278" 
d="M254 687c3 -4 5 -8 5 -13c0 -20 -27 -29 -42 -29c-9 0 -16 2 -21 5c-11 7 -49 42 -49 42c-10 -9 -24 -20 -37 -31c-13 -10 -21 -16 -35 -16c-20 0 -36 9 -36 31c0 8 0 19 11 26l28 23c26 21 52 44 73 45c23 1 103 -83 103 -83zM194 592c8 4 24 8 30 8c28 0 35 -30 35 -57
v-12s-8 -392 -14 -427c-9 -51 -32 -122 -120 -122c-17 0 -98 7 -98 128c0 38 14 49 44 49c23 0 27 -14 34 -75c2 -17 7 -32 30 -32c20 0 28 39 28 67l2 80c-12 -3 -25 -5 -38 -5c-17 0 -34 3 -48 12c-57 34 -58 164 -58 244c0 31 1 51 1 79v23c0 14 25 46 50 46
c20 0 32 -14 32 -40c0 -82 1 -171 10 -255c1 -8 9 -35 30 -35c5 0 13 3 23 9c3 109 6 241 6 252c0 17 1 38 21 63z" />
    <glyph glyph-name="ydieresis" unicode="&#xff;" horiz-adv-x="278" 
d="M71 752c9 5 22 10 36 10c33 0 38 -23 38 -52c0 -31 -17 -48 -47 -48c-27 0 -45 29 -45 56c0 13 5 27 18 34zM177 752c9 5 22 10 36 10c33 0 38 -23 38 -52c0 -31 -17 -48 -47 -48c-27 0 -45 29 -45 56c0 13 5 27 18 34zM194 592c8 4 24 8 30 8c28 0 35 -30 35 -57v-12
s-8 -392 -14 -427c-9 -51 -32 -122 -120 -122c-17 0 -98 7 -98 128c0 38 14 49 44 49c23 0 27 -14 34 -75c2 -17 7 -32 30 -32c20 0 28 39 28 67l2 80c-12 -3 -25 -5 -38 -5c-17 0 -34 3 -48 12c-57 34 -58 164 -58 244c0 31 1 51 1 79v23c0 14 25 46 50 46
c20 0 32 -14 32 -40c0 -82 1 -171 10 -255c1 -8 9 -35 30 -35c5 0 13 3 23 9c3 109 6 241 6 252c0 17 1 38 21 63z" />
    <glyph glyph-name="ygrave" unicode="&#x1ef3;" horiz-adv-x="278" 
d="M75 761c12 10 33 12 42 12c6 0 14 -4 20 -7c21 -13 49 -53 52 -56c8 -11 20 -29 20 -47s-15 -30 -39 -30c-17 0 -77 53 -96 80c-6 11 -10 19 -10 25c0 7 2 15 11 23zM194 592c8 4 24 8 30 8c28 0 35 -30 35 -57v-12s-8 -392 -14 -427c-9 -51 -32 -122 -120 -122
c-17 0 -98 7 -98 128c0 38 14 49 44 49c23 0 27 -14 34 -75c2 -17 7 -32 30 -32c20 0 28 39 28 67l2 80c-12 -3 -25 -5 -38 -5c-17 0 -34 3 -48 12c-57 34 -58 164 -58 244c0 31 1 51 1 79v23c0 14 25 46 50 46c20 0 32 -14 32 -40c0 -82 1 -171 10 -255c1 -8 9 -35 30 -35
c5 0 13 3 23 9c3 109 6 241 6 252c0 17 1 38 21 63z" />
    <glyph glyph-name="z" unicode="z" horiz-adv-x="271" 
d="M34 572c0 15 116 19 153 19c5 0 12 0 23 -2c41 -3 52 -22 52 -52c0 -28 -5 -48 -5 -48l-164 -430h126c22 -7 28 -19 28 -30c0 -13 -14 -36 -25 -43c0 0 -73 -4 -127 -4h-10c-16 0 -33 -2 -42 1c-38 8 -52 44 -52 62c0 4 82 210 92 236c10 23 69 184 84 236l-98 -1
c-32 0 -39 14 -39 32c0 10 2 18 4 25v-1z" />
    <glyph glyph-name="zacute" unicode="&#x17a;" horiz-adv-x="271" 
d="M210 761c9 -7 11 -16 11 -23c0 -8 -3 -16 -9 -25c-19 -27 -79 -80 -96 -80c-25 0 -40 12 -40 30c0 17 12 35 21 46c2 2 31 45 51 57c6 3 15 7 21 7c9 0 30 -3 41 -12zM34 572c0 15 116 19 153 19c5 0 12 0 23 -2c41 -3 52 -22 52 -52c0 -28 -5 -48 -5 -48l-164 -430h126
c22 -7 28 -19 28 -30c0 -13 -14 -36 -25 -43c0 0 -73 -4 -127 -4h-10c-16 0 -33 -2 -42 1c-38 8 -52 44 -52 62c0 4 82 210 92 236c10 23 69 184 84 236l-98 -1c-32 0 -39 14 -39 32c0 10 2 18 4 25v-1z" />
    <glyph glyph-name="zcaron" unicode="&#x17e;" horiz-adv-x="271" 
d="M253 743c1 -2 1 -4 1 -6c0 -5 -2 -9 -4 -13c0 0 -80 -84 -103 -83s-47 26 -74 48c-9 7 -11 9 -21 18c-10 10 -13 18 -13 28c0 7 1 14 4 18c8 12 20 14 32 14c13 0 22 -5 35 -17c17 -16 35 -31 35 -31c23 17 53 48 69 48s32 -7 39 -24zM34 572c0 15 116 19 153 19
c5 0 12 0 23 -2c41 -3 52 -22 52 -52c0 -28 -5 -48 -5 -48l-164 -430h126c22 -7 28 -19 28 -30c0 -13 -14 -36 -25 -43c0 0 -73 -4 -127 -4h-10c-16 0 -33 -2 -42 1c-38 8 -52 44 -52 62c0 4 82 210 92 236c10 23 69 184 84 236l-98 -1c-32 0 -39 14 -39 32c0 10 2 18 4 25
v-1z" />
    <glyph glyph-name="zdotaccent" unicode="&#x17c;" horiz-adv-x="271" 
d="M117 753c14 6 27 11 40 11c37 0 42 -24 42 -56c0 -33 -19 -52 -51 -52c-29 0 -49 32 -49 60c0 13 5 28 18 37zM34 572c0 15 116 19 153 19c5 0 12 0 23 -2c41 -3 52 -22 52 -52c0 -28 -5 -48 -5 -48l-164 -430h126c22 -7 28 -19 28 -30c0 -13 -14 -36 -25 -43
c0 0 -73 -4 -127 -4h-10c-16 0 -33 -2 -42 1c-38 8 -52 44 -52 62c0 4 82 210 92 236c10 23 69 184 84 236l-98 -1c-32 0 -39 14 -39 32c0 10 2 18 4 25v-1z" />
    <glyph glyph-name="ordfeminine" unicode="&#xaa;" horiz-adv-x="229" 
d="M162 347c-13 1 -21 8 -26 18c-13 -11 -29 -17 -47 -17c-58 0 -74 64 -74 109v9c4 63 23 110 101 110c6 0 11 -1 16 -2c0 17 1 40 1 54c0 16 -5 21 -9 21c-11 0 -20 -11 -20 -20c0 -27 -6 -40 -32 -40c-23 0 -39 5 -39 41c0 49 43 81 87 81c51 0 88 -37 88 -87
c0 -16 0 -31 -1 -51c0 -32 -2 -84 -2 -157c0 -54 -4 -69 -31 -69h-12zM103 418c7 0 19 4 29 30v64c-5 3 -8 4 -11 4c-27 0 -32 -33 -32 -57v-4c0 -14 0 -37 14 -37z" />
    <glyph glyph-name="ordmasculine" unicode="&#xba;" horiz-adv-x="236" 
d="M23 531c0 77 1 180 104 180c94 0 96 -94 96 -198c0 -74 -12 -162 -101 -162c-93 0 -99 81 -99 180zM100 516c0 -40 2 -104 23 -104c16 0 24 49 24 114c0 56 -2 123 -21 123c-24 0 -26 -74 -26 -133z" />
    <glyph glyph-name="uni0410" unicode="&#x410;" horiz-adv-x="345" 
d="M336 52c1 -5 1 -11 1 -15c0 -33 -21 -50 -59 -51c-22 0 -30 21 -32 35l-25 203c-27 0 -63 -1 -89 -1l-6 -38c-8 -59 -20 -147 -30 -173c-9 -7 -48 -24 -59 -24c-17 0 -30 9 -30 38c0 6 0 13 3 24l23 138c23 138 45 281 74 422l3 13c8 44 20 96 84 96c53 0 62 -63 67 -107
c17 -128 34 -248 51 -379zM185 573c-5 -26 -14 -98 -19 -131l-20 -134c20 0 44 1 66 1z" />
    <glyph glyph-name="uni0411" unicode="&#x411;" horiz-adv-x="337" 
d="M31 679c3 17 15 36 45 36c42 0 154 0 165 -7c9 -6 22 -21 22 -36c0 -8 -15 -42 -28 -42c-4 0 -17 0 -36 -1l-77 -2c-1 -66 -2 -93 -2 -119l-2 -87c28 1 54 1 59 1c54 0 88 -26 111 -54c29 -35 33 -95 33 -129c0 -150 -8 -253 -137 -254c-18 -2 -40 -3 -61 -3
c-33 0 -63 3 -77 11c-16 9 -21 32 -21 47zM159 344l-41 -2c-1 -69 -1 -145 -1 -233v-18l1 -20h54c42 0 60 46 60 97c0 12 1 25 1 35v16c0 75 -8 125 -74 125z" />
    <glyph glyph-name="uni0412" unicode="&#x412;" horiz-adv-x="334" 
d="M289 549c0 -73 -14 -121 -33 -152c12 -9 22 -19 32 -30c29 -35 33 -94 33 -128c0 -150 -8 -253 -137 -254h-120c-6 0 -13 2 -19 6c-15 11 -23 34 -23 49l5 600c15 75 89 79 138 79c108 0 124 -78 124 -170zM123 639c-2 -71 -3 -152 -4 -225c33 0 52 3 59 11
c20 23 20 84 20 122v23c0 41 -10 70 -47 70c-12 0 -28 0 -28 -1zM118 344v-278h54c42 0 60 51 60 102c0 12 1 25 1 35v16c0 74 -8 125 -74 125h-41z" />
    <glyph glyph-name="uni0413" unicode="&#x413;" horiz-adv-x="263" 
d="M118 625c4 -106 4 -526 4 -528c0 -44 -1 -88 -25 -100c-6 -4 -17 -10 -30 -10c-15 0 -30 8 -43 30c3 52 4 213 4 356c0 117 -1 224 -3 261c1 29 3 52 14 67c23 15 58 17 108 17h14c24 0 59 2 76 -9s20 -25 20 -44c0 -15 -6 -25 -15 -30c-13 -7 -32 -9 -58 -8z" />
    <glyph glyph-name="uni0414" unicode="&#x414;" horiz-adv-x="460" 
d="M333 700c24 -12 30 -24 30 -68c0 -139 -1 -297 -1 -409l-1 -140v-14c26 0 57 -1 69 -12c11 -9 14 -30 14 -59c0 -25 -2 -56 -2 -56c-1 -24 -29 -28 -40 -28c-20 0 -40 10 -40 29l-1 46h-273c-1 -15 -2 -31 -2 -46c0 -19 -18 -29 -38 -29c-18 0 -41 9 -41 31
c0 5 -3 35 -3 53c0 29 4 50 17 60c13 11 43 11 72 11c24 152 45 427 45 566v12c0 32 17 59 54 59c38 0 130 0 141 -6zM228 620c-1 -203 -26 -425 -44 -551h88c1 76 3 516 3 552h-3c-10 0 -25 -1 -44 -1z" />
    <glyph glyph-name="uni0415" unicode="&#x415;" horiz-adv-x="267" 
d="M110 623c3 -2 3 -67 3 -73c0 -61 -1 -90 -1 -109v-23c0 -12 -1 -22 -1 -26h76c50 0 53 -11 53 -47c0 -26 -22 -39 -43 -39h-59c-15 0 -20 -1 -20 -6v-53c0 -42 0 -89 -1 -128l-1 -59h5c24 0 48 4 75 4c36 0 55 -7 55 -39c0 -24 -18 -37 -35 -38c-32 -3 -88 -7 -129 -7
c-49 0 -64 11 -64 59v54c3 88 3 246 3 358c0 70 0 123 1 130c2 36 1 84 19 115c10 14 39 18 73 18c10 0 21 -1 31 -1h30c53 0 73 -2 73 -45c0 -36 -8 -43 -72 -43h-8z" />
    <glyph glyph-name="uni0401" unicode="&#x401;" horiz-adv-x="267" 
d="M21 867c9 5 22 10 36 10c33 0 38 -23 38 -52c0 -31 -17 -48 -47 -48c-27 0 -45 29 -45 56c0 13 5 27 18 34zM127 867c9 5 22 10 36 10c33 0 38 -23 38 -52c0 -31 -17 -48 -47 -48c-27 0 -45 29 -45 56c0 13 5 27 18 34zM110 623c3 -2 3 -67 3 -73c0 -61 -1 -90 -1 -109
v-23c0 -12 -1 -22 -1 -26h76c50 0 53 -11 53 -47c0 -26 -22 -39 -43 -39h-59c-15 0 -20 -1 -20 -6v-53c0 -42 0 -89 -1 -128l-1 -59h5c24 0 48 4 75 4c36 0 55 -7 55 -39c0 -24 -18 -37 -35 -38c-32 -3 -88 -7 -129 -7c-49 0 -64 11 -64 59v54c3 88 3 246 3 358
c0 70 0 123 1 130c2 36 1 84 19 115c10 14 39 18 73 18c10 0 21 -1 31 -1h30c53 0 73 -2 73 -45c0 -36 -8 -43 -72 -43h-8z" />
    <glyph glyph-name="uni0416" unicode="&#x416;" horiz-adv-x="490" 
d="M234 722c24 0 37 -7 45 -19c5 -34 6 -78 6 -125c0 -43 -2 -85 -3 -133c23 68 46 156 63 211c6 19 21 58 61 59c18 -3 37 -7 37 -31c0 -14 -7 -44 -12 -52c-8 -19 -26 -65 -46 -118c-25 -65 -53 -142 -69 -177c7 -16 15 -33 24 -50c33 -60 51 -98 70 -141
c12 -25 49 -91 49 -130c0 -30 -27 -39 -56 -39c-26 0 -35 24 -47 52l-22 53c-18 45 -40 108 -61 150c0 -38 2 -95 3 -131c1 -29 2 -58 2 -74c0 -53 -20 -56 -47 -56c-9 0 -18 2 -24 4h2c-3 1 -7 1 -7 1c-11 4 -15 23 -15 45c1 26 2 71 2 121c0 47 2 53 3 97
c-24 -70 -57 -139 -80 -200c-5 -14 -23 -62 -42 -62c-8 0 -54 2 -54 45c0 16 9 37 12 44c14 29 27 62 38 83c20 45 36 84 69 146c10 17 17 33 23 50c-17 38 -45 103 -116 287c-5 9 -12 40 -12 52c0 18 13 32 39 32c8 0 16 -1 26 -4c11 -5 27 -37 34 -56
c13 -43 37 -94 50 -149l14 -58c1 68 -2 156 -2 185v8c0 19 0 52 9 62c11 12 18 18 34 18z" />
    <glyph glyph-name="uni0417" unicode="&#x417;" horiz-adv-x="306" 
d="M104 577c-4 -22 -29 -35 -46 -35c-15 0 -26 7 -40 19v56c0 57 52 102 118 102c107 0 127 -78 127 -170c0 -70 -16 -121 -34 -152c11 -7 24 -17 33 -27c28 -35 33 -97 33 -131c0 -150 -8 -257 -137 -257h-24c-58 0 -120 38 -120 106v51c15 20 24 29 41 29
c13 0 29 -8 45 -22l2 -52c0 -22 26 -37 47 -37c42 0 57 57 57 108c0 12 1 26 1 37v17c0 74 -8 120 -74 120l-55 3c-15 4 -15 26 -15 37c0 9 7 31 21 35l47 2c37 2 40 71 40 119v32c0 42 -3 75 -34 75c-30 0 -31 -30 -33 -65z" />
    <glyph glyph-name="uni0418" unicode="&#x418;" horiz-adv-x="395" 
d="M353 659c1 -32 1 -160 1 -298v-186c0 -106 1 -187 -31 -187c-24 0 -38 4 -63 29c0 0 4 153 4 283c0 13 0 85 2 117l-113 -399c-6 -18 -22 -25 -41 -25c-33 0 -71 25 -73 49c-2 16 -3 56 -3 110c0 103 2 247 4 358c1 58 0 137 2 151c2 17 6 38 29 46c9 3 16 4 23 4
c34 0 40 -34 40 -57v-85c0 -36 -1 -83 -2 -134c-1 -55 -3 -124 -3 -176c0 -13 -1 -31 -2 -51c37 120 78 270 111 386c19 69 25 96 50 112c40 0 62 -21 65 -47z" />
    <glyph glyph-name="uni0419" unicode="&#x419;" horiz-adv-x="380" 
d="M260 814c21 -1 37 -10 40 -35c0 0 -24 -74 -104 -74c-71 0 -108 38 -108 83c0 22 15 28 31 28c18 0 31 -10 41 -20c6 -7 14 -18 33 -18c17 0 31 10 41 24c9 12 19 12 26 12zM342 659c1 -32 1 -160 1 -298v-186c0 -106 1 -187 -31 -187c-24 0 -38 4 -63 29
c0 0 4 153 4 283c0 13 0 85 2 117l-113 -399c-6 -18 -22 -25 -41 -25c-33 0 -71 25 -73 49c-2 16 -3 56 -3 110c0 103 2 247 4 358c1 58 0 137 2 151c2 17 6 38 29 46c9 3 16 4 23 4c34 0 40 -34 40 -57v-85c0 -36 -1 -83 -2 -134c-1 -55 -3 -124 -3 -176
c0 -13 -1 -31 -2 -51c37 120 78 270 111 386c19 69 25 96 50 112c40 0 62 -21 65 -47z" />
    <glyph glyph-name="uni041A" unicode="&#x41a;" horiz-adv-x="304" 
d="M103 718c8 -3 14 -9 16 -16c4 -14 4 -56 4 -89c0 -36 -1 -75 -2 -112l-2 -63c25 70 52 165 68 218c6 19 23 51 32 56c5 3 15 3 27 3c18 0 37 -7 37 -31c0 -14 -7 -44 -12 -52c-8 -19 -26 -65 -46 -118c-25 -65 -53 -142 -69 -177c6 -14 13 -30 20 -43
c34 -64 52 -102 69 -141l41 -87c4 -7 14 -30 14 -50c0 -26 -25 -39 -45 -39c-35 0 -45 19 -59 52l-22 53c-18 47 -47 108 -64 151c-1 -64 -1 -166 -1 -200c0 -53 -18 -56 -45 -56c-10 0 -23 2 -30 5c-10 4 -15 27 -15 49c5 138 12 514 12 603c0 27 0 60 9 70
c12 13 19 18 37 18c6 0 18 0 26 -4z" />
    <glyph glyph-name="uni041B" unicode="&#x41b;" horiz-adv-x="345" 
d="M183 551c-5 -26 -10 -75 -15 -108c-10 -59 -20 -129 -34 -207c-2 -17 -6 -34 -8 -51c-8 -59 -20 -147 -30 -173c-13 -12 -48 -24 -59 -24c-17 0 -30 9 -30 38c0 6 0 13 3 24l23 138c23 138 45 281 74 422l3 13c8 44 20 96 84 96c53 0 62 -63 67 -107
c17 -128 34 -248 51 -379l24 -181c1 -5 2 -10 2 -15c0 -30 -23 -50 -60 -51c-22 0 -30 21 -32 35z" />
    <glyph glyph-name="uni041C" unicode="&#x41c;" horiz-adv-x="539" 
d="M413 700c6 3 7 12 44 12c24 0 39 -23 39 -59l2 -117c3 -149 5 -315 5 -467c0 -46 4 -87 -61 -87c-17 0 -32 8 -34 33c0 197 2 360 3 445l-20 -100c-16 -71 -27 -123 -56 -246c-14 -40 -42 -48 -70 -48c-27 0 -43 21 -51 46c-25 79 -63 238 -92 351l2 -162
c1 -96 2 -195 2 -278c-5 -30 -33 -37 -55 -37c-35 0 -40 36 -40 60c0 18 -2 208 -2 379c0 101 -1 198 -1 246c13 33 39 43 64 43c21 0 36 -9 48 -16c93 -360 132 -496 132 -496c27 128 86 388 97 424c9 36 17 61 44 74z" />
    <glyph glyph-name="uni041D" unicode="&#x41d;" horiz-adv-x="333" 
d="M119 677c-2 -145 -3 -250 -3 -327c12 1 25 1 39 1c19 0 44 -1 61 -2l4 335c0 18 19 36 43 36c15 0 29 -7 48 -27c1 -38 1 -88 1 -135c0 -220 -5 -513 -6 -549c-17 -14 -39 -21 -56 -21c-16 0 -36 6 -36 26v127c0 42 0 90 1 127l-99 -1v-152c0 -54 0 -118 -35 -127h-17
c-25 0 -40 13 -40 44c0 66 1 124 1 176v113c0 136 -1 217 -1 267c0 59 1 76 2 89c3 34 25 35 47 35c19 0 46 -14 46 -35z" />
    <glyph glyph-name="uni041E" unicode="&#x41e;" horiz-adv-x="340" 
d="M320 536c0 -29 1 -56 2 -82c1 -22 1 -53 1 -73c0 -234 -31 -400 -145 -400c-62 0 -118 20 -142 142c-11 57 -18 138 -18 211c0 26 1 52 1 76v56c0 90 28 260 167 260c79 0 130 -102 134 -190zM173 60c42 0 55 163 55 306c0 75 -2 165 -8 204c-3 25 -22 73 -45 73
c-33 0 -62 -51 -62 -294c0 -83 5 -289 60 -289z" />
    <glyph glyph-name="uni041F" unicode="&#x41f;" horiz-adv-x="345" 
d="M283 711c24 -12 31 -24 31 -68c0 -139 -1 -303 -2 -419c0 -43 -1 -121 -1 -139v-64c0 -5 -11 -39 -49 -39c-44 0 -46 20 -46 48v18c0 7 1 15 1 22c1 74 3 521 3 557c-33 -1 -65 0 -100 0c0 -134 -1 -294 -2 -405c0 -42 -1 -120 -1 -137v-64c0 -5 -15 -39 -52 -39
c-44 0 -44 19 -44 46v19c0 7 1 15 1 23c1 76 3 555 3 576v12c0 32 19 59 56 59c38 0 191 0 202 -6z" />
    <glyph glyph-name="uni0420" unicode="&#x420;" horiz-adv-x="326" 
d="M27 640c15 74 88 81 138 81c54 0 101 -12 130 -61c18 -29 18 -82 18 -116c0 -75 -7 -169 -17 -200c-21 -71 -66 -100 -123 -100c-20 0 -49 2 -55 3c0 -2 0 -58 -1 -105v-34c-1 -39 1 -70 1 -70c0 -6 -15 -56 -54 -56c-29 0 -42 6 -42 33zM123 639c-2 -91 -3 -164 -3 -226
c0 -34 -1 -54 0 -87h40c42 0 60 50 60 101c0 12 1 45 1 72v37c0 64 -13 106 -70 106c-12 0 -28 -1 -28 -3z" />
    <glyph glyph-name="uni0421" unicode="&#x421;" horiz-adv-x="340" 
d="M317 531c0 -7 -1 -13 -3 -18c-10 -13 -29 -20 -48 -20c-3 0 -27 6 -35 15c-1 4 -3 17 -4 31c-4 36 -9 98 -53 98c-37 0 -57 -81 -57 -129c0 -11 0 -28 -1 -46c-1 -28 -2 -69 -2 -109c0 -54 3 -103 3 -110c1 -50 4 -180 61 -180c30 0 57 37 61 87c1 12 1 28 0 43
c4 23 26 33 44 33c41 0 44 -26 44 -57c0 -29 -1 -59 -10 -84c-26 -66 -77 -104 -140 -104c-99 0 -140 77 -149 170c-6 69 -9 189 -9 250c0 51 3 122 16 182c22 102 82 134 145 134c69 0 105 -43 123 -99c11 -33 12 -46 14 -87z" />
    <glyph glyph-name="uni0422" unicode="&#x422;" horiz-adv-x="286" 
d="M-8 679c3 16 17 31 34 38c38 0 231 0 242 -6c9 -5 24 -27 24 -39c0 -9 -17 -42 -30 -42c-19 0 -39 -2 -73 -2c0 -135 -1 -294 -2 -404c0 -43 -1 -121 -1 -139v-64c0 -5 -15 -39 -52 -39c-43 0 -48 20 -48 48c0 25 1 33 1 40c1 70 2 475 3 557h-28c-20 0 -40 0 -45 1
c-22 5 -26 25 -26 48z" />
    <glyph glyph-name="uni0423" unicode="&#x423;" horiz-adv-x="321" 
d="M227 701c9 12 23 14 33 14c15 0 31 -9 36 -35c1 -6 3 -14 3 -29c0 -6 0 -13 -1 -18c-1 -34 -9 -468 -16 -508c-11 -60 -37 -143 -143 -143c-22 0 -115 8 -115 150c0 43 14 55 48 55c28 0 42 -8 42 -90c0 -24 14 -35 36 -35c34 0 45 45 45 81c0 1 2 43 4 102
c-18 -5 -38 -9 -58 -9s-41 3 -58 13c-69 37 -69 195 -69 290c0 18 1 34 1 51c1 20 1 42 1 73c6 24 20 50 54 50c25 0 33 -22 33 -45c0 -98 1 -204 12 -304c2 -12 16 -45 46 -45c9 0 23 4 41 16l7 299c0 21 1 45 18 67z" />
    <glyph glyph-name="uni0424" unicode="&#x424;" horiz-adv-x="453" 
d="M276 674h4c63 0 122 -30 144 -133c13 -62 14 -144 14 -200c0 -47 -2 -96 -8 -141c-12 -95 -52 -169 -146 -169h-13v-21c-2 -9 -17 -46 -54 -46c-31 0 -38 16 -38 39v28h-9c-93 0 -134 74 -146 169c-7 50 -9 98 -9 141c0 53 2 135 15 200c21 103 80 133 144 133h5v23
c7 22 27 45 54 45c15 0 31 -7 44 -29zM179 112v481c-4 1 -8 1 -12 1c-43 0 -57 -80 -57 -128c0 -6 0 -20 -1 -31c-1 -26 -3 -67 -2 -106v-33c0 -59 6 -184 65 -184h7zM286 594c-3 0 -6 0 -10 -1l-5 -482h12c58 0 63 126 63 185v33c0 42 0 79 -1 106c-1 13 -2 24 -2 31
c0 48 -14 128 -57 128z" />
    <glyph glyph-name="uni0425" unicode="&#x425;" horiz-adv-x="387" 
d="M196 451c35 84 77 198 97 241c3 7 19 22 32 22c16 0 46 -20 48 -44c0 -7 -1 -14 -4 -19c-13 -29 -68 -161 -128 -307c47 -120 93 -241 124 -318c0 0 -11 -45 -45 -45c-10 0 -27 4 -34 13c-16 21 -57 145 -102 265l-87 -235c-10 -28 -29 -46 -54 -46c-16 0 -34 13 -42 27
l-2 17s66 167 137 339c-43 117 -83 230 -101 285c-6 18 -7 26 -7 34c12 20 24 34 45 34c24 0 42 -22 49 -46c12 -38 38 -120 66 -197z" />
    <glyph glyph-name="uni0427" unicode="&#x427;" horiz-adv-x="341" 
d="M25 681c5 27 29 31 46 31c13 0 21 0 35 -15c9 -9 9 -46 9 -96v-89c0 -119 9 -183 52 -183h43c0 13 1 27 1 41c1 52 2 113 2 190v101c0 47 21 50 38 50c26 0 54 -15 54 -70l-5 -626c0 -27 -8 -33 -38 -33c-42 0 -51 42 -51 48v78l-1 136h-53c-57 0 -101 28 -121 100
c-9 31 -14 113 -14 184c0 19 1 127 3 153z" />
    <glyph glyph-name="uni0426" unicode="&#x426;" horiz-adv-x="394" 
d="M210 -15c-59 0 -144 1 -156 5c-25 12 -32 20 -32 65c0 139 2 303 2 419c0 65 1 115 1 139v64c0 5 10 40 49 40c43 0 45 -21 45 -49v-18c0 -7 -1 -15 -1 -22c-1 -74 -3 -521 -3 -557l100 -1c0 135 2 294 2 405c0 64 1 115 1 138v64c0 5 16 40 54 40c42 0 42 -19 42 -47
v-42c-1 -71 -3 -483 -3 -557c23 -1 47 -2 59 -12c10 -9 14 -35 14 -64c0 -25 -3 -56 -3 -56c-1 -24 -28 -28 -40 -28c-20 0 -39 9 -39 28l-1 45c-29 0 -91 1 -91 1z" />
    <glyph glyph-name="uni0428" unicode="&#x428;" horiz-adv-x="451" 
d="M341 -15c-51 0 -268 0 -287 6c-25 11 -32 19 -32 64c0 139 2 303 2 419c0 65 1 115 1 139v64c0 5 2 40 44 40c41 0 49 -21 49 -49v-18c0 -7 -1 -15 -1 -22c-1 -74 -3 -521 -3 -557c17 0 38 -1 61 -1c0 130 2 289 2 395c0 67 1 119 1 142v64c0 5 5 40 46 40
c35 0 45 -21 45 -42c0 -11 -1 -20 -1 -28v-19c-1 -59 -3 -397 -3 -552h54c0 135 2 294 2 405v202c0 5 13 40 52 40c38 0 40 -19 40 -47v-20c0 -7 -1 -14 -1 -22c-1 -76 -3 -557 -3 -578v-12c0 -32 -15 -53 -52 -53h-16z" />
    <glyph glyph-name="uni0429" unicode="&#x429;" horiz-adv-x="494" 
d="M313 -15c-74 0 -241 1 -258 6c-25 11 -32 19 -32 64c0 139 2 303 2 419c0 65 1 115 1 139v64c0 5 2 40 44 40c41 0 49 -21 49 -49v-18c0 -7 -1 -15 -1 -22c-1 -74 -3 -521 -3 -557c17 0 38 -1 61 -1c0 130 2 289 2 395c0 67 1 119 1 142v64c0 5 5 40 46 40
c35 0 45 -21 45 -42c0 -11 -1 -20 -1 -28v-19c-1 -59 -3 -397 -3 -552h54c0 135 1 294 1 405c0 64 1 115 1 138v64c0 5 13 40 52 40c38 0 40 -19 40 -47v-20c0 -7 -1 -14 -1 -22c-1 -71 -3 -483 -3 -557c25 0 51 -2 63 -12c10 -9 14 -35 14 -64c0 -25 -3 -56 -3 -56
c-1 -24 -28 -28 -40 -28c-20 0 -39 9 -39 28l-1 45c-29 0 -91 1 -91 1z" />
    <glyph glyph-name="uni042C" unicode="&#x42c;" horiz-adv-x="334" 
d="M31 678c3 25 31 37 45 37c17 0 43 -22 48 -40c-2 -16 -2 -82 -2 -86c-1 -28 -1 -55 -4 -168c28 1 54 1 59 1c54 0 88 -26 111 -54c29 -35 33 -95 33 -129c0 -150 -8 -253 -137 -254h-123c-33 5 -36 40 -36 55zM118 66h54c42 0 60 51 60 102c0 12 1 25 1 35v16
c0 75 -8 126 -74 126l-41 -2c-1 -69 -1 -146 -1 -234z" />
    <glyph glyph-name="uni042A" unicode="&#x42a;" horiz-adv-x="396" 
d="M90 622c-18 0 -43 3 -59 3c-12 0 -29 17 -29 43c0 16 11 33 21 40c10 6 72 7 109 7c33 0 47 -22 52 -40c-2 -16 -2 -82 -2 -86c-1 -28 -2 -55 -2 -81l-2 -87c28 1 54 1 58 1c55 0 89 -26 112 -54c28 -35 33 -95 33 -129c0 -150 -8 -253 -137 -254c-42 -1 -109 -1 -139 5
c-15 11 -20 35 -20 50zM176 66h56c41 0 60 51 60 102c0 12 1 25 1 35v16c0 75 -8 126 -74 126l-42 -2c-1 -69 -1 -146 -1 -234v-43z" />
    <glyph glyph-name="uni042B" unicode="&#x42b;" horiz-adv-x="468" 
d="M31 678c3 25 31 37 45 37c17 0 43 -22 48 -40c-2 -16 -2 -82 -2 -86c-1 -28 -1 -55 -4 -168c28 1 54 1 59 1c54 0 88 -26 111 -54c29 -35 33 -95 33 -129c0 -150 -8 -253 -137 -254h-123c-33 5 -36 40 -36 55zM348 678c3 25 31 37 45 37c17 0 43 -22 48 -40
c-1 -54 -2 -99 -2 -161c-2 -129 -5 -245 -5 -405v-70c0 -6 -13 -54 -53 -54c-30 0 -39 36 -39 55zM118 66h54c42 0 60 51 60 102c0 12 1 25 1 35v16c0 75 -8 126 -74 126l-41 -2c-1 -69 -1 -146 -1 -234z" />
    <glyph glyph-name="uni042D" unicode="&#x42d;" horiz-adv-x="338" 
d="M24 525c2 46 2 58 13 93c18 56 55 99 123 99c66 0 128 -24 146 -133c10 -64 12 -125 12 -183c0 -66 0 -180 -5 -242c-8 -94 -50 -178 -149 -178c-64 0 -114 38 -140 104c-10 27 -11 56 -11 84c0 31 2 57 44 57c18 0 40 -10 44 -33c-1 -15 -1 -31 -1 -43
c0 -50 37 -87 68 -87c52 0 60 116 60 201v47h-105c-24 0 -36 24 -36 45s18 41 40 41h99c-1 49 -1 87 -2 110c-2 65 -20 130 -57 130c-43 0 -50 -62 -53 -98c-1 -11 -2 -25 -5 -32c-8 -8 -32 -14 -35 -14c-19 0 -50 8 -50 32z" />
    <glyph glyph-name="uni042E" unicode="&#x42e;" horiz-adv-x="493" 
d="M469 536c0 -29 1 -56 2 -82c1 -22 1 -53 1 -73c0 -234 -31 -400 -145 -400c-63 0 -118 20 -142 142c-7 39 -13 94 -16 145l-43 -1v-152c0 -54 0 -118 -35 -127h-17c-25 0 -40 13 -40 44c0 66 1 124 1 176v113c0 136 -1 217 -1 267c0 59 1 76 2 89c3 34 25 35 47 35
c19 0 46 -14 46 -35c-2 -145 -3 -250 -3 -327c12 1 25 1 41 1c0 20 1 40 1 59v56c0 90 28 260 167 260c79 0 129 -102 134 -190zM322 60c41 0 55 163 55 306c0 75 -2 165 -8 204c-3 25 -22 73 -46 73c-32 0 -61 -51 -61 -294c0 -83 5 -289 60 -289z" />
    <glyph glyph-name="uni042F" unicode="&#x42f;" horiz-adv-x="348" 
d="M312 15c0 -23 -12 -33 -39 -33c-40 0 -55 50 -55 56c0 0 2 31 2 70c0 14 1 30 1 45c2 33 0 62 1 97c-5 0 -12 -1 -19 -1c-49 -42 -86 -171 -100 -236c-5 -13 -30 -34 -49 -34c-14 0 -32 5 -49 21c17 127 65 216 97 264c-24 17 -43 44 -54 81c-10 35 -13 128 -13 199
c0 32 7 79 24 109c31 48 74 68 127 68c49 0 113 -8 134 -75zM226 639c-4 2 -17 3 -27 3c-57 0 -72 -42 -74 -106l-1 -110c0 -50 17 -98 59 -98h40c3 87 3 177 3 311z" />
    <glyph glyph-name="uni0430" unicode="&#x430;" horiz-adv-x="298" 
d="M280 45c1 -4 1 -9 1 -14c0 -35 -22 -44 -54 -45c-21 0 -24 13 -27 27l-20 177c-20 0 -43 -1 -63 -1l-5 -35c-6 -48 -16 -124 -26 -147c-6 -5 -41 -19 -51 -19c-15 0 -27 8 -27 34c0 6 0 14 2 23v-3l15 93c20 121 40 246 64 371c0 1 1 2 1 3c7 41 16 89 72 89
c45 0 53 -53 58 -91c19 -150 41 -314 60 -464v2zM127 253h46l-20 178l-3 -22z" />
    <glyph glyph-name="uni0431" unicode="&#x431;" horiz-adv-x="283" 
d="M30 568c3 16 14 32 40 32c34 0 128 0 137 -7c13 -3 19 -18 19 -32c0 -6 -13 -40 -26 -40c-2 0 -9 -1 -19 -1c-20 -1 -44 -2 -68 -2l-3 -163h43c45 0 74 -22 92 -45c25 -30 28 -81 28 -110c0 -127 -6 -214 -115 -215c-41 -1 -99 -4 -114 4c-17 10 -18 33 -18 45zM109 278
c-1 -57 -1 -116 -1 -187v-26h40c33 0 45 35 45 75c0 10 1 21 1 30v13c0 60 -10 95 -55 95h-30z" />
    <glyph glyph-name="uni0432" unicode="&#x432;" horiz-adv-x="284" 
d="M245 454c0 -58 -11 -97 -26 -124c9 -7 18 -16 24 -24c24 -29 28 -79 28 -108c0 -126 -7 -212 -114 -213h-95c-27 0 -39 31 -39 48l3 497c13 65 74 68 115 68c90 0 104 -66 104 -144zM111 354h23c25 3 28 46 28 85v28c0 33 -5 62 -32 62c-7 0 -17 0 -17 -1zM109 61h38
c32 0 42 39 42 78c0 10 1 21 1 29v13c0 49 -3 104 -53 104h-28v-224z" />
    <glyph glyph-name="uni0433" unicode="&#x433;" horiz-adv-x="223" 
d="M112 511c2 -88 2 -428 2 -430c0 -38 -3 -94 -52 -94c-13 0 -26 7 -37 27c2 45 2 183 2 303c0 93 0 178 -1 208c0 14 0 42 11 58c19 14 48 15 90 15h10c19 0 44 3 74 -14c6 -5 8 -17 8 -33c0 -11 -5 -27 -14 -31c-17 -7 -27 -7 -48 -7z" />
    <glyph glyph-name="uni0434" unicode="&#x434;" horiz-adv-x="399" 
d="M282 594c23 -10 28 -21 28 -61c0 -120 -1 -253 -2 -347l-1 -118v-10c22 0 45 -1 57 -10c11 -10 15 -28 15 -52c0 -23 -3 -49 -3 -49c-1 -22 -26 -26 -36 -26c-18 0 -35 8 -35 27l-2 35h-224c-1 -11 -2 -24 -2 -35c0 -19 -18 -27 -35 -27c-10 0 -36 5 -36 28
c1 -2 -3 29 -3 47c0 23 4 41 16 52c11 10 36 10 59 10c19 131 37 359 37 477v11c0 29 16 53 49 53c31 0 107 0 118 -5zM198 521c-1 -173 -20 -356 -36 -463h64c1 65 3 398 3 464c-8 0 -17 -1 -31 -1z" />
    <glyph glyph-name="uni0435" unicode="&#x435;" horiz-adv-x="232" 
d="M105 518c0 -7 1 -41 1 -59c0 -52 -1 -75 -1 -89v-17c0 -9 -1 -20 -2 -24h56c43 0 45 -11 45 -41c0 -28 -18 -35 -37 -35h-49c-7 0 -8 0 -8 -2c0 -21 1 -51 1 -77s-1 -52 -1 -74c0 -14 -1 -32 -1 -41h19c14 1 28 2 38 2c19 0 38 -5 44 -18c3 -5 3 -16 3 -23
c0 -20 -16 -32 -31 -34c-26 -3 -71 -3 -105 -3c-43 0 -55 7 -55 49v45c3 81 3 230 3 324v105c0 25 1 55 16 77c8 12 33 16 62 16c8 0 17 -1 25 -1h26c44 0 61 -2 61 -40c0 -32 -6 -40 -61 -40h-49z" />
    <glyph glyph-name="uni0451" unicode="&#x451;" horiz-adv-x="232" 
d="M48 752c9 5 22 10 36 10c33 0 38 -23 38 -52c0 -31 -17 -48 -47 -48c-27 0 -45 29 -45 56c0 13 5 27 18 34zM154 752c9 5 22 10 36 10c33 0 38 -23 38 -52c0 -31 -17 -48 -47 -48c-27 0 -45 29 -45 56c0 13 5 27 18 34zM105 518c0 -7 1 -41 1 -59c0 -52 -1 -75 -1 -89
v-17c0 -9 -1 -20 -2 -24h56c43 0 45 -11 45 -41c0 -28 -18 -35 -37 -35h-49c-7 0 -8 0 -8 -2c0 -21 1 -51 1 -77s-1 -52 -1 -74c0 -14 -1 -32 -1 -41h19c14 1 28 2 38 2c19 0 38 -5 44 -18c3 -5 3 -16 3 -23c0 -20 -16 -32 -31 -34c-26 -3 -71 -3 -105 -3
c-43 0 -55 7 -55 49v45c3 81 3 230 3 324v105c0 25 1 55 16 77c8 12 33 16 62 16c8 0 17 -1 25 -1h26c44 0 61 -2 61 -40c0 -32 -6 -40 -61 -40h-49z" />
    <glyph glyph-name="uni0436" unicode="&#x436;" horiz-adv-x="403" 
d="M195 598c16 0 31 -5 40 -18c3 -27 4 -61 4 -96c0 -20 -1 -41 -1 -61l-1 -25c18 60 32 98 45 143c13 37 22 54 58 51c13 -2 28 -4 28 -28c0 -11 -5 -38 -10 -46c-7 -16 -20 -52 -36 -94c-22 -56 -42 -116 -56 -147c4 -12 13 -29 18 -40c25 -48 39 -80 54 -114l32 -69
c4 -7 12 -26 12 -44c0 -3 0 -7 -1 -10c-6 -22 -29 -24 -45 -24c-24 0 -33 19 -43 45l-18 44c-14 32 -30 71 -45 101c0 -26 2 -60 3 -84c1 -22 1 -50 1 -62c0 -46 -17 -49 -40 -49c-9 0 -19 2 -27 5c-9 5 -13 22 -13 39c1 25 1 70 1 117l2 29c-12 -28 -27 -72 -35 -96
l-18 -44c-11 -25 -20 -45 -48 -45c-19 0 -42 9 -42 35c0 18 9 37 11 43c29 59 55 120 87 182c6 12 12 27 18 42c-12 31 -34 87 -50 133c-16 45 -31 87 -43 109c-4 9 -10 33 -10 44c0 28 20 28 40 28s37 -21 45 -51c15 -47 34 -93 46 -142c1 50 -1 101 -1 123v6
c0 14 -2 40 9 53c8 11 16 17 29 17z" />
    <glyph glyph-name="uni0437" unicode="&#x437;" horiz-adv-x="259" 
d="M91 478c-6 -24 -23 -32 -38 -32c-16 0 -35 5 -35 21v44c0 49 43 88 99 88c88 0 107 -66 107 -144c0 -58 -10 -98 -26 -124c8 -6 19 -14 25 -22c24 -29 28 -82 28 -111c0 -126 -7 -216 -115 -216h-20c-50 0 -101 33 -101 91v41c6 22 21 28 36 28c11 0 28 -4 38 -20l2 -44
c0 -16 14 -27 37 -27c29 0 40 45 40 86v44c0 60 -4 97 -53 97l-45 1c-12 5 -18 18 -18 33c0 16 7 32 20 39l41 2c24 2 27 46 27 82v35c0 33 -5 58 -22 58c-19 0 -26 -23 -27 -50z" />
    <glyph glyph-name="uni0438" unicode="&#x438;" horiz-adv-x="335" 
d="M293 140c0 -86 1 -152 -27 -152c-19 0 -31 4 -53 26c0 0 1 130 1 239c0 7 0 62 1 76c-26 -105 -61 -224 -87 -314c-6 -15 -21 -23 -38 -23c-26 0 -60 23 -62 46c-2 15 -3 49 -3 90c0 86 3 207 4 301c1 59 1 107 1 129c0 15 12 34 28 39c6 2 12 3 17 3c30 0 36 -30 36 -50
v-71c0 -31 -1 -70 -2 -113c-1 -45 -2 -106 -2 -148v-42c32 107 68 256 94 353c6 22 9 49 35 68c35 0 54 -19 57 -42v-415z" />
    <glyph glyph-name="uni0439" unicode="&#x439;" horiz-adv-x="330" 
d="M262 689c0 0 -22 -69 -96 -69c-65 0 -98 35 -98 77c0 21 13 26 27 26c19 0 28 -12 35 -19c8 -7 19 -19 36 -19c16 0 29 11 38 24c10 11 20 12 25 12c15 0 26 -1 32 -21zM293 140c0 -86 1 -152 -27 -152c-19 0 -31 4 -53 26c0 0 1 130 1 239c0 7 0 62 1 76
c-26 -105 -61 -224 -87 -314c-6 -15 -21 -23 -38 -23c-26 0 -60 23 -62 46c-2 15 -3 49 -3 90c0 86 3 207 4 301c1 59 1 107 1 129c0 15 12 34 28 39c6 2 12 3 17 3c30 0 36 -30 36 -50v-71c0 -31 -1 -70 -2 -113c-1 -45 -2 -106 -2 -148v-42c32 107 68 256 94 353
c6 22 9 49 35 68c35 0 54 -19 57 -42v-415z" />
    <glyph glyph-name="uni043A" unicode="&#x43a;" horiz-adv-x="282" 
d="M100 599c9 -3 11 -10 14 -16c4 -29 1 -56 1 -84c0 -36 -3 -92 -4 -122c18 63 38 120 51 162c6 19 21 53 33 58c9 3 18 4 24 4c28 0 35 -13 35 -39c0 -15 -6 -38 -9 -45c-8 -18 -22 -52 -38 -90l-52 -123c31 -70 56 -119 83 -176l29 -62c3 -6 16 -34 16 -56
c0 -34 -35 -33 -46 -33c-26 0 -37 29 -49 55c-25 62 -41 97 -53 128l-26 74c-2 -57 -4 -161 -4 -195c0 -53 -15 -56 -41 -56c-12 0 -20 3 -25 5c-11 4 -15 28 -15 45c4 138 9 393 9 482v9c0 18 -2 52 6 61c12 13 19 18 35 18c4 0 13 0 26 -4z" />
    <glyph glyph-name="uni043B" unicode="&#x43b;" horiz-adv-x="298" 
d="M153 429c-11 -93 -21 -158 -41 -275c-6 -48 -16 -124 -26 -147c-7 -9 -41 -19 -51 -19c-15 0 -27 8 -27 34c0 6 0 14 2 20l15 93c20 121 40 246 64 371c8 42 24 92 73 92c45 0 53 -53 58 -91c19 -150 41 -314 60 -462c2 -6 1 -14 1 -19c0 -27 -25 -39 -54 -40
c-21 0 -24 13 -27 27z" />
    <glyph glyph-name="uni043C" unicode="&#x43c;" horiz-adv-x="469" 
d="M346 584c21 8 27 12 38 12c27 0 42 -20 42 -52c0 -40 0 -79 1 -119c2 -121 3 -244 3 -368c0 -39 -4 -72 -58 -72c-16 0 -27 9 -30 40v337c-23 -110 -40 -175 -59 -278c-9 -29 -29 -32 -55 -32c-24 0 -39 20 -45 41c-19 60 -46 188 -70 275c0 -26 0 -95 1 -122
c1 -77 2 -155 2 -224c-5 -27 -28 -34 -47 -34c-30 0 -35 34 -36 52c-1 16 -3 172 -3 314c0 85 -1 166 -1 206c11 29 36 38 57 38c19 0 35 -7 44 -12c76 -301 103 -402 103 -402c21 96 67 306 77 339c8 30 15 51 36 61z" />
    <glyph glyph-name="uni043D" unicode="&#x43d;" horiz-adv-x="296" 
d="M109 560c-1 -112 -2 -197 -2 -260c8 1 16 1 27 1c13 0 35 0 48 -2l2 267c0 18 22 33 41 33c12 0 25 -6 42 -24v-113c0 -182 -4 -426 -5 -455c-15 -14 -33 -19 -47 -19c-15 0 -35 7 -35 24v105c0 38 1 76 1 108l-74 -1v-128c0 -47 0 -100 -31 -108h-16
c-23 0 -36 12 -36 39c0 55 1 103 1 146v93c0 113 -1 180 -1 221s1 53 1 73c0 32 23 32 41 32c16 0 43 -11 43 -32z" />
    <glyph glyph-name="uni043E" unicode="&#x43e;" horiz-adv-x="287" 
d="M264 447c0 -24 1 -46 2 -68c1 -19 1 -44 1 -61c0 -197 -25 -337 -120 -337c-53 0 -98 17 -119 121c-9 48 -15 116 -15 177c0 22 1 43 1 63v47c0 76 23 220 139 220c67 0 109 -87 111 -162zM142 56c32 0 38 131 38 249c0 62 -1 138 -6 170c-2 20 -13 56 -30 56
c-25 0 -45 -40 -45 -240c0 -68 2 -235 43 -235z" />
    <glyph glyph-name="uni043F" unicode="&#x43f;" horiz-adv-x="296" 
d="M240 593c22 -11 27 -21 27 -59c0 -116 0 -251 -1 -348c0 -36 -1 -101 -1 -116v-53c0 -4 -11 -35 -44 -35c-39 0 -40 18 -40 43v33c1 61 3 431 3 461c-25 -1 -50 0 -76 0c0 -113 0 -241 -1 -335c0 -35 -1 -99 -1 -114v-53c0 -4 -13 -35 -46 -35c-37 0 -40 17 -40 41v16
c0 6 1 12 1 19c1 63 2 461 2 488c0 28 19 52 50 52s156 0 167 -5z" />
    <glyph glyph-name="uni0440" unicode="&#x440;" horiz-adv-x="285" 
d="M24 529c14 65 76 71 117 71c43 0 84 -16 109 -53c12 -26 15 -71 15 -97c0 -63 -6 -141 -13 -167c-20 -60 -57 -84 -104 -84c-14 0 -39 0 -42 2v-112c0 -33 1 -58 1 -58c0 -6 -13 -50 -47 -50c-24 0 -39 7 -39 31zM110 525c-1 -73 -2 -131 -2 -178c0 -28 1 -41 1 -70h29
c25 0 42 36 42 76c0 10 1 39 1 61v29c0 52 -8 82 -51 82h-20z" />
    <glyph glyph-name="uni0441" unicode="&#x441;" horiz-adv-x="291" 
d="M266 437c-1 -19 -25 -29 -44 -29c-1 0 -32 4 -38 13c-2 8 -2 18 -3 29c-2 27 -5 72 -37 72c-27 0 -37 -60 -37 -99c0 -9 -1 -23 -1 -38c-1 -24 -1 -54 -1 -91v-73c0 -68 5 -156 43 -156c22 0 44 17 44 64c0 10 1 23 0 36c4 21 30 30 44 30c36 0 38 -23 38 -50
c0 -26 0 -51 -8 -72c-23 -55 -64 -86 -117 -86c-84 0 -118 55 -124 136c-5 59 -7 160 -7 211c0 47 1 96 12 152c19 93 67 114 123 114c84 0 113 -90 113 -163z" />
    <glyph glyph-name="uni0442" unicode="&#x442;" horiz-adv-x="242" 
d="M-8 561c4 17 14 33 30 39c31 0 188 0 201 -6c7 -5 20 -27 20 -37c0 -8 -16 -37 -27 -37h-24c-10 -1 -21 -1 -33 -1c0 -112 0 -242 -1 -333c0 -35 -1 -100 -1 -115v-54c0 -4 -14 -35 -46 -35c-37 0 -42 18 -42 43c0 21 1 27 1 33c1 57 2 382 3 460h-19c-17 0 -33 0 -39 1
c-17 5 -23 22 -23 42z" />
    <glyph glyph-name="uni0443" unicode="&#x443;" horiz-adv-x="278" 
d="M194 592c8 4 24 8 30 8c28 0 35 -30 35 -57v-12s-8 -392 -14 -427c-9 -51 -32 -122 -120 -122c-17 0 -98 7 -98 128c0 38 14 49 44 49c23 0 27 -14 34 -75c2 -17 7 -32 30 -32c20 0 28 39 28 67l2 80c-12 -3 -25 -5 -38 -5c-17 0 -34 3 -48 12c-57 34 -58 164 -58 244
c0 31 1 51 1 79v23c0 14 25 46 50 46c20 0 32 -14 32 -40c0 -82 1 -171 10 -255c1 -8 9 -35 30 -35c5 0 13 3 23 9c3 109 6 241 6 252c0 17 1 38 21 63z" />
    <glyph glyph-name="uni0444" unicode="&#x444;" horiz-adv-x="404" 
d="M241 578c54 0 105 -27 125 -116c11 -53 13 -124 13 -172c0 -41 -2 -84 -7 -122c-11 -83 -40 -146 -128 -146h-7v-16c0 -7 -14 -42 -49 -42c-27 0 -35 15 -35 36v22h-4c-87 0 -117 64 -127 147c-6 44 -8 86 -8 121c0 47 0 114 13 172c20 90 70 116 126 116v16
c8 21 27 43 49 43c14 0 29 -7 40 -27zM100 251c0 -49 3 -156 53 -156v411h-6c-35 0 -44 -68 -44 -109c0 -6 0 -18 -1 -27c-1 -23 -3 -56 -2 -90v-29zM241 506l-3 -411c52 0 55 107 55 156v29c0 34 0 64 -1 87c-1 12 -2 24 -2 30c0 41 -9 109 -43 109h-6z" />
    <glyph glyph-name="uni0445" unicode="&#x445;" horiz-adv-x="303" 
d="M-7 2c-1 3 -2 5 -2 9c0 2 0 5 1 8c0 0 55 140 113 285c-34 94 -65 184 -79 229c-1 4 -7 24 -7 32c10 18 26 31 43 31c20 0 35 -21 42 -41l50 -146c27 66 50 136 67 172c2 4 23 18 32 18c14 0 40 -18 42 -39c0 -6 -2 -14 -4 -18c-12 -26 -48 -120 -95 -241
c39 -106 81 -212 108 -280c0 0 -15 -41 -44 -41c-7 0 -22 5 -33 16c-12 16 -42 105 -78 200l-68 -178c-10 -24 -24 -40 -46 -40c-13 0 -34 11 -42 24z" />
    <glyph glyph-name="uni0447" unicode="&#x447;" horiz-adv-x="292" 
d="M27 571c15 23 27 28 41 28c12 0 21 0 34 -14c7 -7 9 -39 9 -82v-74c0 -98 7 -151 40 -151h29l1 36c1 43 2 90 2 155v84c0 42 17 45 34 45c22 0 51 -13 51 -61l-5 -525c0 -23 -11 -30 -37 -30c-37 0 -45 38 -45 43v65l-1 111h-40c-47 0 -85 26 -103 87
c-8 26 -12 95 -12 154c0 15 0 97 2 129z" />
    <glyph glyph-name="uni0446" unicode="&#x446;" horiz-adv-x="342" 
d="M179 -29c-33 0 -104 -1 -131 7c-21 10 -25 22 -25 58c0 118 2 256 2 355c0 55 1 98 1 118v54c0 6 7 37 43 37c38 0 41 -19 41 -44v-16c0 -6 -1 -12 -1 -18c-1 -63 -3 -440 -3 -471l77 -1c0 115 1 250 1 343c0 54 1 96 1 116v54c0 6 14 37 48 37c38 0 38 -17 38 -43v-17
c0 -6 -1 -12 -1 -18l-2 -470c18 -1 36 -2 46 -10c12 -10 15 -33 15 -57c0 -22 -2 -48 -2 -48c-1 -22 -26 -26 -36 -26c-18 0 -36 8 -36 27v32c-25 0 -76 1 -76 1z" />
    <glyph glyph-name="uni0448" unicode="&#x448;" horiz-adv-x="373" 
d="M50 -11c-21 11 -27 18 -27 57c0 117 1 253 1 350c0 53 1 94 1 114v54c0 4 2 36 39 36c36 0 44 -19 44 -44v-16c0 -6 -1 -11 -1 -17c-1 -62 -2 -431 -2 -461c12 0 26 -1 41 -1c0 107 2 241 2 328c0 55 1 97 1 116v54c0 4 7 36 41 36c31 0 41 -19 41 -38v-39
c-1 -50 -3 -331 -3 -457h35c0 113 1 240 1 334c0 54 1 95 1 115v54c0 4 15 36 47 36c33 0 35 -18 35 -42v-17c0 -6 -1 -12 -1 -18c-1 -63 -1 -464 -1 -481v-10c0 -28 -14 -47 -46 -47c-55 0 -241 0 -249 4z" />
    <glyph glyph-name="uni0449" unicode="&#x449;" horiz-adv-x="421" 
d="M260 -15c-64 0 -202 1 -208 4c-22 11 -28 18 -28 57c0 117 1 253 1 350c0 53 1 94 1 114v54c0 4 2 36 39 36c36 0 44 -19 44 -44v-16c0 -6 -1 -11 -1 -17c-1 -62 -2 -431 -2 -461c13 0 27 -1 42 -1c0 107 1 241 1 328c0 55 1 97 1 116v54c0 4 7 36 41 36
c31 0 41 -19 41 -38v-39c-1 -50 -3 -331 -3 -457h35c0 113 1 240 1 334c0 54 1 95 1 115v54c0 4 15 36 47 36c34 0 35 -18 35 -42v-35c-1 -59 -2 -393 -2 -457c19 0 39 -2 49 -10c11 -10 15 -33 15 -57c0 -22 -3 -48 -3 -48c-1 -22 -25 -26 -35 -26c-18 0 -36 8 -36 27v32
c-25 0 -76 1 -76 1z" />
    <glyph glyph-name="uni044C" unicode="&#x44c;" horiz-adv-x="292" 
d="M30 566c4 21 29 32 40 32c14 0 41 -19 45 -37c-2 -12 -2 -67 -2 -70l-2 -137h41c46 0 74 -22 93 -45c24 -29 28 -81 28 -110c0 -126 -7 -213 -115 -214h-93c-38 0 -39 37 -39 49zM109 60h39c28 0 44 40 44 80v47c0 52 -8 94 -54 94h-28c-1 -56 -1 -120 -1 -190v-31z" />
    <glyph glyph-name="uni044A" unicode="&#x44a;" horiz-adv-x="337" 
d="M82 513c-13 0 -36 1 -52 2c-11 1 -29 8 -29 35c0 18 9 32 22 41c10 7 61 7 96 7c30 0 44 -19 49 -37c-2 -12 -2 -67 -2 -70l-3 -137h41c46 0 74 -22 93 -45c24 -29 28 -81 28 -110c0 -126 -7 -213 -114 -214h-100c-32 5 -33 37 -33 49zM161 60h39c28 0 44 40 44 80v47
c0 52 -7 94 -54 94h-28c-1 -56 -1 -120 -1 -190v-31z" />
    <glyph glyph-name="uni044B" unicode="&#x44b;" horiz-adv-x="403" 
d="M30 566c4 21 29 32 40 32c14 0 41 -19 45 -37c-2 -12 -2 -67 -2 -70l-2 -137h41c46 0 74 -22 93 -45c24 -29 28 -81 28 -110c0 -126 -7 -213 -115 -214h-93c-38 0 -39 37 -39 49zM297 566c4 21 29 32 39 32c14 0 41 -19 46 -37c-5 -170 -7 -285 -7 -470
c0 -32 -1 -59 -1 -59c-1 -9 -15 -47 -47 -47c-27 0 -35 32 -35 49zM109 60h39c28 0 44 40 44 80v47c0 52 -8 94 -54 94h-28c-1 -56 -1 -120 -1 -190v-31z" />
    <glyph glyph-name="uni044D" unicode="&#x44d;" horiz-adv-x="284" 
d="M19 430c0 28 3 55 12 84c15 47 46 85 103 85c54 0 106 -20 121 -113c9 -53 11 -104 11 -153c0 -56 -1 -151 -5 -201c-6 -82 -39 -151 -124 -151c-54 0 -95 32 -117 88c-9 22 -9 48 -9 71c0 28 2 51 39 51c16 0 38 -11 40 -31c-1 -13 -1 -26 -1 -36c0 -39 27 -67 51 -67
c40 0 43 99 43 162v39h-80c-21 0 -33 24 -33 42c0 19 16 38 36 38h76c0 35 -1 66 -1 83c-2 53 -14 104 -41 104c-35 0 -38 -49 -40 -78l-3 -27c-10 -10 -30 -13 -33 -13c-15 0 -33 8 -45 23z" />
    <glyph glyph-name="uni044E" unicode="&#x44e;" horiz-adv-x="411" 
d="M386 444c0 -24 0 -46 1 -68c1 -19 1 -44 1 -61c0 -195 -26 -334 -120 -334c-53 0 -98 17 -119 120c-6 31 -10 77 -12 118h-27v-124c0 -47 0 -100 -31 -108h-17c-23 0 -35 11 -35 39c0 55 1 104 1 147v92c0 113 -1 180 -1 222s1 53 1 75c0 31 22 31 41 31
c16 0 43 -14 43 -32c-1 -118 -2 -203 -2 -266h25c0 15 1 30 1 45v45c0 76 22 219 138 219c67 0 109 -86 112 -160zM263 53c32 0 40 133 40 250c0 61 -1 136 -6 168c-2 20 -15 57 -32 57c-25 0 -47 -41 -47 -240c0 -67 4 -235 45 -235z" />
    <glyph glyph-name="uni044F" unicode="&#x44f;" horiz-adv-x="291" 
d="M3 -1c13 103 50 176 77 216c-19 14 -33 36 -43 68c-8 29 -10 106 -10 166c0 27 6 65 21 91c25 42 60 58 104 58c42 0 96 -7 113 -63l-7 -523c0 -24 -10 -31 -36 -31c-34 0 -47 44 -47 50c0 0 2 25 2 95c0 13 1 26 1 38c0 17 1 31 1 35c-3 0 -5 0 -9 -1
c-41 -35 -73 -140 -84 -196c-3 -8 -23 -23 -41 -23c-12 0 -27 4 -42 20zM180 270c1 64 1 157 1 256h-17c-45 0 -56 -42 -56 -84c0 -7 0 -74 -1 -91c1 -39 12 -81 44 -81h29z" />
    <glyph glyph-name="uni03BC" unicode="&#x3bc;" horiz-adv-x="404" 
d="M103 591c15 0 20 -14 20 -32l2 -175c1 -42 21 -141 74 -141c63 0 71 71 71 71c0 3 2 51 2 85c0 51 0 141 8 163c5 15 42 25 54 25c9 0 22 -16 27 -19c0 0 4 -212 4 -359c0 -71 -1 -157 -4 -175c-8 -32 -38 -43 -61 -43c-13 0 -22 5 -25 15c-2 9 -3 28 -3 49v143
c-29 -39 -51 -50 -82 -50c-28 0 -48 23 -65 43l1 -189v-23c0 -79 -15 -101 -15 -101c-9 -14 -22 -15 -31 -15c-25 0 -49 3 -49 24c0 7 1 15 1 24c0 8 2 87 2 328c0 146 5 278 5 296c0 52 48 56 64 56z" />
    <glyph glyph-name="zero" unicode="0" horiz-adv-x="357" 
d="M330 536c0 -25 0 -48 1 -74c1 -28 2 -59 2 -92c0 -228 -1 -389 -130 -389c-130 0 -133 178 -133 291v153c0 121 9 301 137 301c86 0 118 -102 123 -190zM203 66c38 0 39 157 39 300c0 75 -2 144 -8 183c-2 26 -10 90 -29 90c-32 0 -47 -97 -47 -299c0 -87 5 -274 45 -274
z" />
    <glyph glyph-name="one" unicode="1" horiz-adv-x="300" 
d="M257 704c5 -5 8 -37 8 -93c0 -184 -11 -603 -11 -603s-35 -27 -61 -27s-33 23 -33 49c0 103 18 497 19 500c-4 -10 -80 -168 -87 -167l-7 1c-18 0 -49 2 -49 35c0 9 4 23 9 34l131 260s18 24 49 24c7 0 22 -6 29 -10z" />
    <glyph glyph-name="two" unicode="2" horiz-adv-x="318" 
d="M49 501c-9 10 -8 41 -8 56c0 62 19 159 132 159c45 0 119 -28 119 -148c0 -124 -73 -271 -90 -308c-17 -36 -82 -182 -82 -182c87 0 111 -1 123 -1h7c29 0 45 -2 45 -37c0 -34 -22 -48 -43 -48c-25 0 -79 -1 -124 -2c-29 -1 -56 -1 -63 -1c-26 0 -52 21 -57 54
c0 27 10 46 21 66c5 8 8 15 12 23l23 49c9 21 23 48 32 67c68 133 103 243 103 316c0 31 -7 68 -33 68c-11 0 -35 -14 -39 -93c0 0 -5 -54 -46 -54c-11 0 -22 5 -32 16z" />
    <glyph glyph-name="three" unicode="3" horiz-adv-x="313" 
d="M51 559c0 0 -4 17 -4 36c0 48 22 127 125 127c96 0 113 -94 113 -171c0 -61 -11 -124 -46 -154c29 -17 58 -53 58 -141c0 -169 -24 -275 -140 -275c-93 0 -127 43 -127 184c0 0 24 31 51 31c9 0 18 -3 28 -12c17 -14 18 -40 18 -68s0 -65 28 -65c40 0 48 98 48 163v20
c0 59 -13 126 -72 126c-27 0 -35 9 -35 35c0 40 23 42 46 42h11c16 9 41 27 41 135c0 35 -7 79 -28 79c-26 0 -33 -47 -33 -70c0 -24 -40 -41 -55 -41c-9 0 -18 4 -25 13z" />
    <glyph glyph-name="four" unicode="4" horiz-adv-x="375" 
d="M218 611c-26 -84 -65 -217 -97 -303c1 1 21 1 22 1h68v54c0 40 1 79 9 123c6 34 26 49 52 49c7 0 15 -3 30 -8v-225h36c18 0 39 -1 39 -29c0 -10 -5 -19 -11 -26c-15 -20 -28 -22 -54 -22h-15c-1 -61 -4 -121 -5 -182c-1 -37 -4 -67 -55 -67c-13 0 -26 0 -33 30
c0 78 1 138 3 218c-23 0 -44 1 -71 1h-49c-49 0 -67 0 -67 51c0 3 2 15 4 27c69 215 127 373 138 402c15 4 19 4 24 4c27 0 44 -16 48 -45z" />
    <glyph glyph-name="five" unicode="5" horiz-adv-x="304" 
d="M48 442l-1 211s0 31 17 40c14 7 64 10 126 10c28 0 85 -2 85 -45c0 -25 -24 -39 -40 -39h-37c-17 0 -55 2 -67 3v-136h8c13 0 40 -2 63 -14c19 -10 88 -44 88 -186c0 -201 -2 -305 -141 -305c-112 0 -126 82 -127 179c0 0 8 40 45 40c40 0 40 -9 40 -73
c0 -31 8 -72 43 -72c44 0 48 71 48 143v62c0 109 -5 148 -90 148h-19c-20 2 -39 7 -41 34z" />
    <glyph glyph-name="six" unicode="6" horiz-adv-x="336" 
d="M304 580c0 -18 -4 -53 -35 -53c-22 0 -54 29 -54 29v21c0 61 -29 72 -29 72c-48 -14 -57 -170 -57 -209v-7c19 8 36 11 51 11c85 0 137 -55 137 -205c0 -118 -7 -250 -158 -250c-110 0 -123 131 -123 260v171c0 161 15 296 147 296c105 0 121 -85 121 -136zM176 373
c-17 -1 -35 -12 -50 -27c-1 -17 -1 -39 -1 -54c0 -144 16 -235 46 -235c44 0 49 113 49 153c0 91 0 159 -44 163z" />
    <glyph glyph-name="seven" unicode="7" horiz-adv-x="253" 
d="M38 702h141c12 0 24 1 40 1c40 0 51 -54 51 -54l-148 -632c-9 -28 -33 -31 -53 -31c-28 0 -42 6 -42 32c0 3 1 10 3 16l144 582h-87c-21 0 -35 0 -46 2c-24 5 -33 15 -33 33c0 22 16 44 16 44z" />
    <glyph glyph-name="eight" unicode="8" horiz-adv-x="341" 
d="M190 715c91 0 129 -75 129 -174c0 -80 -15 -129 -45 -156c30 -34 47 -85 47 -138c0 -124 -1 -260 -156 -260c-115 0 -128 117 -128 242c0 63 15 122 51 158c-27 28 -42 76 -42 149c0 121 55 179 144 179zM227 547c0 41 -6 93 -38 93c-28 0 -48 -24 -48 -99
c0 -86 18 -119 40 -119c35 1 45 67 46 92v33zM172 55c36 0 56 59 56 174c0 49 -8 125 -47 125c-25 0 -48 -32 -48 -114c0 -83 3 -185 39 -185z" />
    <glyph glyph-name="nine" unicode="9" horiz-adv-x="344" 
d="M48 124c0 18 4 54 36 54c21 0 54 -29 54 -29v-22c0 -66 30 -71 30 -71c52 1 55 166 55 208v6c-18 -6 -35 -9 -50 -9c-85 0 -137 55 -137 204c0 118 6 251 159 251c108 0 122 -131 122 -261v-171c0 -160 -16 -295 -147 -295c-106 0 -122 85 -122 135zM178 331
c16 0 33 12 48 26c1 18 1 39 1 55c0 144 -16 235 -45 235c-44 0 -50 -113 -50 -153c0 -91 1 -162 46 -163z" />
    <glyph glyph-name="fraction" unicode="&#x2044;" horiz-adv-x="605" 
d="M458 694c6 25 27 26 42 26c23 0 50 -4 50 -37c0 -1 0 -9 -1 -13c-7 -5 -417 -644 -421 -650c-9 -18 -17 -31 -49 -31c-22 0 -44 0 -44 36c0 9 1 27 16 50z" />
    <glyph glyph-name="uni00B9" unicode="&#xb9;" horiz-adv-x="164" 
d="M132 712c7 -8 11 -25 11 -53c0 -84 -5 -290 -5 -290c1 -3 -24 -14 -43 -14c-20 0 -27 11 -27 33c0 47 4 173 4 173c-9 -15 -21 -35 -28 -35c-12 2 -36 -1 -36 27c0 5 2 13 5 20l61 124s14 20 33 20c3 0 22 -3 25 -5z" />
    <glyph glyph-name="uni00B2" unicode="&#xb2;" horiz-adv-x="199" 
d="M26 607c0 0 -2 15 -2 28c0 32 27 81 85 81c47 0 76 -34 76 -80c0 -60 -32 -128 -41 -147c-8 -18 -27 -64 -27 -64c24 0 42 0 50 -2c22 -5 22 -19 22 -34c0 -23 -16 -32 -29 -32c-12 0 -44 -1 -69 -1h-34c-16 0 -33 14 -35 35c22 81 89 155 89 244c0 9 -1 21 -10 21
c-3 0 -12 -5 -13 -34c0 0 1 -30 -25 -30c-4 0 -28 0 -34 9z" />
    <glyph glyph-name="uni00B3" unicode="&#xb3;" horiz-adv-x="193" 
d="M21 632c0 0 -1 12 -1 18c0 26 20 69 77 69c53 0 76 -34 76 -90c0 -27 -6 -56 -20 -73c13 -13 26 -36 26 -78c0 -86 -26 -126 -89 -126c-53 0 -72 23 -72 99c0 0 14 21 33 21c6 0 14 -3 19 -7c11 -9 7 -32 10 -45c1 -8 8 -9 14 -9c10 0 12 34 12 60v9c0 23 0 50 -29 50
c-21 0 -27 11 -27 25c0 25 17 27 34 31c12 4 20 16 20 46c0 12 0 35 -9 35c-18 0 -16 -26 -16 -33c0 -15 -28 -19 -36 -19c-9 0 -12 3 -17 8z" />
    <glyph glyph-name="asterisk" unicode="*" horiz-adv-x="351" 
d="M31 478c0 7 1 13 6 19c0 0 31 24 70 56l-66 46c-3 3 -7 6 -7 13c0 2 8 49 42 49c8 0 18 -3 30 -10l23 -18v39c0 14 15 45 50 45c25 0 30 -22 30 -36c0 -6 -1 -10 -1 -10l1 -41c25 21 44 37 49 40c4 3 8 5 12 5c17 0 33 -27 33 -45c0 -4 -1 -8 -3 -11
c-3 -5 -30 -28 -63 -56c40 -26 75 -48 75 -48s-6 -53 -54 -53c-17 0 -31 9 -47 18l2 -41s-15 -28 -39 -28c-9 0 -34 0 -39 21l-2 56l-50 -39s-4 -1 -10 -1c-15 0 -42 4 -42 30z" />
    <glyph glyph-name="backslash" unicode="\" horiz-adv-x="439" 
d="M384 52c6 -11 13 -37 13 -46c0 -36 -21 -36 -44 -36c-32 0 -39 13 -47 30c-6 10 -44 110 -90 234c-74 194 -171 436 -175 449c0 32 9 51 49 51c15 0 36 -1 45 -29z" />
    <glyph glyph-name="periodcentered" unicode="&#xb7;" horiz-adv-x="143" 
d="M35 387c11 6 29 13 45 13c43 0 48 -29 48 -66c0 -38 -22 -60 -59 -60c-34 0 -57 37 -57 70c0 17 8 34 23 43z" />
    <glyph glyph-name="bullet" unicode="&#x2022;" horiz-adv-x="270" 
d="M138 426c58 0 76 -44 76 -90c0 -55 -39 -87 -84 -87c-49 0 -78 45 -78 96c0 48 42 81 86 81z" />
    <glyph glyph-name="colon" unicode=":" horiz-adv-x="204" 
d="M64 406c12 6 29 13 45 13c43 0 49 -29 49 -66c0 -38 -22 -60 -59 -60c-35 0 -58 37 -58 70c0 17 8 34 23 43zM64 107c12 6 29 13 45 13c43 0 49 -29 49 -66c0 -38 -22 -60 -59 -60c-35 0 -58 37 -58 70c0 17 8 34 23 43z" />
    <glyph glyph-name="comma" unicode="," horiz-adv-x="153" 
d="M43 107c11 7 28 13 45 13c42 0 49 -30 49 -67c0 -26 -28 -112 -46 -133c-7 -10 -20 -15 -28 -15c-24 0 -38 22 -38 38c5 11 13 51 15 66c-14 14 -20 34 -20 55c0 17 8 34 23 43z" />
    <glyph glyph-name="ellipsis" unicode="&#x2026;" horiz-adv-x="480" 
d="M48 102c11 6 28 13 44 13c43 0 49 -29 49 -66c0 -38 -22 -60 -59 -60c-34 0 -57 37 -57 70c0 17 7 34 23 43zM200 102c11 6 29 13 45 13c43 0 48 -29 48 -66c0 -38 -22 -60 -59 -60c-34 0 -57 37 -57 70c0 17 8 34 23 43zM352 102c12 6 29 13 45 13c43 0 49 -29 49 -66
c0 -38 -22 -60 -59 -60c-35 0 -57 37 -57 70c0 17 7 34 22 43z" />
    <glyph glyph-name="exclam" unicode="!" horiz-adv-x="275" 
d="M93 701c13 13 34 20 48 20c13 0 34 -8 52 -21c-1 -7 -11 -444 -11 -450c0 -47 -11 -86 -49 -86c-24 0 -44 16 -44 83c0 3 -1 111 -1 220v26c-1 109 -1 192 -1 195zM98 102c11 6 28 13 44 13c43 0 49 -29 49 -66c0 -38 -22 -60 -59 -60c-34 0 -57 37 -57 70
c0 17 7 34 23 43z" />
    <glyph glyph-name="exclamdown" unicode="&#xa1;" horiz-adv-x="247" 
d="M98 352c-16 9 -23 26 -23 43c0 33 23 70 57 70c37 0 59 -22 59 -60c0 -37 -6 -66 -49 -66c-16 0 -33 7 -44 13zM93 -247l-6 13c0 3 0 86 1 195v26c0 109 1 217 1 220c0 67 20 83 44 83c38 0 49 -39 49 -86c0 -6 10 -443 11 -450c-18 -13 -39 -21 -52 -21
c-14 0 -35 7 -48 20z" />
    <glyph glyph-name="numbersign" unicode="#" horiz-adv-x="524" 
d="M407 306c4 0 13 1 20 1c28 0 58 -1 58 -27c0 -9 -10 -48 -45 -67l-64 2v-177c0 -36 -22 -52 -42 -52c-1 0 -2 -1 -3 -1h4c-8 -2 -16 -3 -23 -3s-15 3 -18 7c-10 10 -12 28 -12 45c0 7 1 15 1 22v13l2 147h-59v-178c0 -41 -19 -46 -39 -52c-1 0 -5 0 -7 -1h4
c-6 -2 -14 -3 -22 -3c-7 0 -14 2 -19 5c-6 12 -9 28 -9 42c0 8 1 16 1 23v163h-44c-7 0 -14 -1 -22 -1c-14 0 -29 2 -35 6c-11 11 -11 17 -11 24c0 30 13 62 54 62h59v107h-43c-7 0 -15 -1 -23 -1c-16 0 -31 2 -43 12c-2 6 -4 14 -4 20c0 28 9 60 54 60h59
c-1 71 -2 136 -3 162c22 40 48 50 56 50c36 -3 39 -33 39 -63v-29s0 -55 -1 -120h59c0 71 -1 137 -3 163c19 39 48 49 55 49c36 -3 39 -33 39 -63v-29s-1 -57 -1 -120h23l10 1l24 1c29 0 52 0 52 -27c0 -11 -10 -49 -45 -68l-64 3v-108h31zM286 413h-59
c0 -33 -1 -72 -1 -107h60v107z" />
    <glyph glyph-name="period" unicode="." horiz-adv-x="160" 
d="M44 102c11 6 28 13 45 13c42 0 48 -29 48 -66c0 -38 -22 -60 -59 -60c-34 0 -57 37 -57 70c0 17 8 34 23 43z" />
    <glyph glyph-name="question" unicode="?" horiz-adv-x="384" 
d="M325 588c0 -83 -35 -140 -68 -191c-29 -45 -57 -92 -57 -147c0 -7 0 -10 1 -14c0 -4 1 -13 1 -22c-3 -48 -24 -48 -52 -50c-31 0 -43 16 -43 83c0 73 33 127 64 180c29 47 56 93 56 148c0 33 -9 67 -28 67c-33 0 -52 -40 -52 -102c0 -35 -3 -61 -37 -61
c-49 0 -56 22 -56 73c0 129 73 176 149 176c63 0 122 -46 122 -140zM127 102c12 6 29 13 45 13c43 0 49 -29 49 -66c0 -38 -22 -60 -59 -60c-35 0 -57 37 -57 70c0 17 7 34 22 43z" />
    <glyph glyph-name="questiondown" unicode="&#xbf;" horiz-adv-x="336" 
d="M262 360c-12 -6 -29 -13 -45 -13c-43 0 -49 29 -49 66c0 38 22 60 59 60c35 0 57 -37 57 -70c0 -17 -7 -34 -22 -43zM64 -126c0 83 35 140 68 191c29 45 57 92 57 147c0 7 0 10 -1 14c0 4 -1 13 -1 22c3 48 24 48 52 50c31 0 43 -16 43 -83c0 -73 -33 -127 -64 -180
c-29 -47 -56 -93 -56 -148c0 -33 9 -67 28 -67c33 0 52 40 52 102c0 35 3 61 37 61c49 0 56 -22 56 -73c0 -129 -73 -176 -149 -176c-63 0 -122 46 -122 140z" />
    <glyph glyph-name="quotedbl" unicode="&#x22;" horiz-adv-x="283" 
d="M51 708c11 6 20 6 36 6c35 0 41 -19 41 -48c0 -45 -5 -154 -22 -173c-6 -7 -25 -9 -32 -9c-22 0 -35 0 -37 23l-12 156c0 25 8 33 21 42zM186 708c11 6 20 6 36 6c35 0 41 -19 41 -48c0 -45 -5 -154 -22 -173c-6 -7 -25 -9 -32 -9c-22 0 -35 0 -37 23l-12 156
c0 25 8 33 21 42z" />
    <glyph glyph-name="quotesingle" unicode="'" horiz-adv-x="144" 
d="M49 708c11 6 20 6 36 6c35 0 41 -19 41 -48c0 -45 -5 -154 -22 -173c-6 -7 -25 -9 -32 -9c-22 0 -35 0 -37 23l-12 156c0 25 8 33 21 42z" />
    <glyph glyph-name="semicolon" unicode=";" horiz-adv-x="203" 
d="M63 406c12 6 29 13 45 13c43 0 49 -29 49 -66c0 -38 -22 -60 -59 -60c-35 0 -58 37 -58 70c0 17 8 34 23 43zM64 107c11 7 28 13 45 13c42 0 49 -30 49 -67c0 -26 -28 -112 -46 -133c-7 -10 -20 -15 -28 -15c-24 0 -38 22 -38 38c5 11 13 51 15 66c-14 14 -20 34 -20 55
c0 17 8 34 23 43z" />
    <glyph glyph-name="slash" unicode="/" horiz-adv-x="432" 
d="M302 705c9 28 30 29 45 29c23 0 50 -4 50 -37c0 -1 0 -10 -1 -14c-7 -6 -101 -255 -175 -449c-47 -124 -83 -224 -88 -232c-10 -19 -17 -32 -49 -32c-23 0 -44 0 -44 36c0 9 7 35 13 46z" />
    <glyph glyph-name="underscore" unicode="_" horiz-adv-x="497" 
d="M454 31c-3 -28 -11 -45 -36 -45h-334c-36 0 -38 22 -38 46c0 26 17 43 39 43h330c21 0 39 -19 39 -44z" />
    <glyph glyph-name="braceleft" unicode="{" horiz-adv-x="336" 
d="M290 717c13 -11 17 -26 17 -39c-2 -23 -20 -37 -40 -37c-12 6 -21 8 -28 8c-20 0 -21 -23 -21 -59c0 -27 1 -48 1 -65v-36c-1 -90 -61 -146 -61 -146c44 -45 52 -142 52 -214v-42c3 -41 14 -51 40 -51c11 0 19 3 30 9c15 -22 18 -32 18 -42c0 -35 -24 -42 -24 -42l-36 -1
c-125 1 -125 84 -125 119c0 8 -5 144 -8 189c-3 19 -11 20 -29 23c-10 2 -18 1 -27 15c-7 12 -10 27 -10 36c0 60 56 33 72 73l5 56c3 58 9 142 19 187c12 56 62 67 102 67c21 0 45 -5 45 -5z" />
    <glyph glyph-name="braceright" unicode="}" horiz-adv-x="343" 
d="M76 717c7 3 31 8 53 8c40 0 90 -12 101 -68c9 -48 13 -139 14 -196c1 -23 1 -40 3 -46c2 -7 13 -21 23 -24c17 -5 47 -2 47 -45c0 -8 -3 -27 -11 -40c-8 -12 -18 -13 -30 -17c-16 -5 -24 -9 -26 -22c-5 -48 -13 -181 -13 -181c0 -26 -2 -127 -136 -128h-24s-29 10 -29 42
c0 11 11 36 22 43c0 0 29 -9 50 -9c12 0 20 23 20 53c0 8 1 17 1 27c2 75 2 183 56 229c-28 17 -57 55 -57 146c0 5 0 11 2 33c1 28 1 49 1 68c0 41 -2 61 -12 61c-2 0 -8 -2 -16 -4l-17 -6c-20 0 -40 15 -40 38c0 12 5 27 18 38z" />
    <glyph glyph-name="bracketleft" unicode="[" horiz-adv-x="292" 
d="M67 702c12 28 66 29 102 29h16c13 0 31 -3 41 -4c18 -4 31 -20 31 -38c0 -6 -4 -19 -6 -23c-7 -12 -54 -16 -94 -16c2 -550 1 -602 4 -613c40 0 84 -3 92 -17c2 -3 6 -12 6 -18c0 -20 -10 -41 -26 -43c-17 0 -44 -2 -72 -2c-10 0 -37 0 -48 1c-35 3 -39 7 -45 54
c0 3 -1 89 -1 204c0 200 0 471 -1 475z" />
    <glyph glyph-name="bracketright" unicode="]" horiz-adv-x="294" 
d="M231 691c-2 -8 -2 -277 -2 -475c0 -115 -1 -208 -1 -211c-6 -40 -10 -44 -44 -47c-11 -1 -38 -1 -48 -1c-28 0 -56 2 -73 2c-18 3 -24 18 -24 33c0 11 3 23 7 31c12 11 52 14 90 14c2 35 2 169 3 613c-40 0 -86 3 -93 15c-3 5 -8 14 -8 19c0 18 15 40 33 43
c8 1 27 4 41 4h16c35 0 90 -1 102 -29z" />
    <glyph glyph-name="parenleft" unicode="(" horiz-adv-x="241" 
d="M207 712c3 -4 4 -8 4 -13c0 -2 0 -4 -1 -7c-50 -105 -74 -240 -74 -338c0 -196 71 -333 71 -333c-6 -61 -57 -62 -70 -62c-82 153 -104 289 -104 402c0 205 85 344 99 360c10 10 21 14 31 14c25 0 44 -23 44 -23z" />
    <glyph glyph-name="parenright" unicode=")" horiz-adv-x="258" 
d="M35 692c-1 3 -2 6 -2 9c0 4 2 7 5 11c0 0 19 23 44 23c9 0 20 -4 30 -14c14 -16 99 -155 99 -360c0 -114 -22 -250 -103 -402c-13 0 -64 1 -70 62c0 0 70 135 70 333c0 99 -23 235 -73 338z" />
    <glyph glyph-name="emdash" unicode="&#x2014;" horiz-adv-x="454" 
d="M412 245c-3 -28 -11 -45 -35 -45h-316c-36 0 -38 22 -38 46c0 26 18 43 39 43h311c21 0 39 -19 39 -44z" />
    <glyph glyph-name="endash" unicode="&#x2013;" horiz-adv-x="363" 
d="M331 245c-3 -28 -11 -45 -35 -45h-236c-36 0 -38 22 -38 46c0 26 18 43 39 43h231c21 0 39 -19 39 -44z" />
    <glyph glyph-name="hyphen" unicode="-" horiz-adv-x="336" 
d="M306 245c-3 -28 -11 -50 -35 -50h-211c-36 0 -38 27 -38 51c0 26 17 43 39 43h206c21 0 39 -19 39 -44z" />
    <glyph glyph-name="guillemotleft" unicode="&#xab;" horiz-adv-x="411" 
d="M194 456c3 1 7 2 10 2c17 0 33 -27 33 -47c0 -9 -2 -19 -7 -27c-12 -19 -94 -87 -94 -87c19 -20 63 -63 81 -79c15 -15 22 -30 22 -46c0 -15 -17 -37 -42 -39c-10 0 -20 2 -26 7l-23 21c-43 40 -115 110 -115 139s161 156 161 156zM361 456c3 1 7 2 10 2
c17 0 33 -27 33 -47c0 -9 -2 -19 -7 -27c-12 -19 -94 -87 -94 -87c19 -20 63 -63 81 -79c15 -15 22 -30 22 -46c0 -15 -17 -37 -42 -39c-10 0 -20 2 -26 7l-23 21c-43 40 -115 110 -115 139s161 156 161 156z" />
    <glyph glyph-name="guillemotright" unicode="&#xbb;" horiz-adv-x="425" 
d="M57 135c-3 -1 -7 -2 -10 -2c-17 0 -33 27 -33 47c0 9 2 19 7 27c12 19 94 87 94 87c-19 20 -63 63 -81 79c-15 15 -22 30 -22 46c0 15 17 37 42 39c10 0 20 -2 26 -7l23 -21c43 -40 115 -110 115 -139s-161 -156 -161 -156zM224 135c-3 -1 -7 -2 -10 -2
c-17 0 -33 27 -33 47c0 9 2 19 7 27c12 19 94 87 94 87c-19 20 -63 63 -81 79c-15 15 -22 30 -22 46c0 15 17 37 42 39c10 0 20 -2 26 -7l23 -21c43 -40 115 -110 115 -139s-161 -156 -161 -156z" />
    <glyph glyph-name="guilsinglleft" unicode="&#x2039;" horiz-adv-x="219" 
d="M157 456c3 1 7 2 10 2c17 0 33 -27 33 -47c0 -9 -2 -19 -7 -27c-12 -19 -94 -87 -94 -87c19 -20 63 -63 81 -79c15 -15 22 -30 22 -46c0 -15 -17 -37 -42 -39c-10 0 -20 2 -26 7l-23 21c-43 40 -115 110 -115 139s161 156 161 156z" />
    <glyph glyph-name="guilsinglright" unicode="&#x203a;" horiz-adv-x="257" 
d="M64 135c-3 -1 -7 -2 -10 -2c-17 0 -33 27 -33 47c0 9 2 19 7 27c12 19 94 87 94 87c-19 20 -63 63 -81 79c-15 15 -22 30 -22 46c0 15 17 37 42 39c10 0 20 -2 26 -7l23 -21c43 -40 115 -110 115 -139s-161 -156 -161 -156z" />
    <glyph glyph-name="quotedblbase" unicode="&#x201e;" horiz-adv-x="285" 
d="M43 107c11 6 28 13 45 13c42 0 49 -30 49 -67c0 -26 -28 -112 -46 -133c-7 -10 -20 -15 -28 -15c-23 0 -38 27 -38 37c4 14 16 45 15 67c-14 14 -20 34 -20 55c0 17 8 34 23 43zM174 107c11 6 28 13 45 13c42 0 49 -30 49 -67c0 -26 -28 -112 -46 -133
c-7 -10 -20 -15 -28 -15c-23 0 -38 27 -38 37c4 14 16 45 15 67c-14 14 -20 34 -20 55c0 17 8 34 23 43z" />
    <glyph glyph-name="quotedblleft" unicode="&#x201c;" horiz-adv-x="292" 
d="M115 516c-11 -6 -27 -12 -45 -12c-42 0 -50 30 -50 66c0 25 30 107 47 133c8 9 21 16 28 16c23 0 37 -27 37 -40c0 -1 -1 -15 -4 -26c-4 -14 -8 -28 -10 -38c15 -13 19 -34 19 -56c0 -17 -7 -34 -22 -43zM246 516c-11 -6 -27 -12 -45 -12c-42 0 -50 30 -50 66
c0 25 30 107 47 133c8 9 21 16 28 16c23 0 37 -27 37 -40c0 -1 -1 -15 -4 -26c-4 -14 -8 -28 -10 -38c15 -13 19 -34 19 -56c0 -17 -7 -34 -22 -43z" />
    <glyph glyph-name="quotedblright" unicode="&#x201d;" horiz-adv-x="292" 
d="M43 707c11 6 27 12 45 12c42 0 50 -30 50 -66c0 -25 -30 -107 -47 -133c-8 -9 -21 -16 -28 -16c-23 0 -37 27 -37 40c0 1 1 15 4 26c4 14 8 28 10 38c-15 13 -19 34 -19 56c0 17 7 34 22 43zM174 707c11 6 27 12 45 12c42 0 50 -30 50 -66c0 -25 -30 -107 -47 -133
c-8 -9 -21 -16 -28 -16c-23 0 -37 27 -37 40c0 1 1 15 4 26c4 14 8 28 10 38c-15 13 -19 34 -19 56c0 17 7 34 22 43z" />
    <glyph glyph-name="quoteleft" unicode="&#x2018;" horiz-adv-x="161" 
d="M115 516c-11 -6 -27 -12 -45 -12c-42 0 -50 30 -50 66c0 25 30 107 47 133c8 9 21 16 28 16c23 0 37 -27 37 -40c0 -1 -1 -15 -4 -26c-4 -14 -8 -28 -10 -38c15 -13 19 -34 19 -56c0 -17 -7 -34 -22 -43z" />
    <glyph glyph-name="quoteright" unicode="&#x2019;" horiz-adv-x="162" 
d="M43 707c11 6 27 12 45 12c42 0 50 -30 50 -66c0 -25 -30 -107 -47 -133c-8 -9 -21 -16 -28 -16c-23 0 -37 27 -37 40c0 1 1 15 4 26c4 14 8 28 10 38c-15 13 -19 34 -19 56c0 17 7 34 22 43z" />
    <glyph glyph-name="quotesinglbase" unicode="&#x201a;" horiz-adv-x="161" 
d="M43 107c11 6 28 13 45 13c42 0 49 -30 49 -67c0 -26 -28 -112 -46 -133c-7 -10 -20 -15 -28 -15c-23 0 -38 27 -38 37c4 14 16 45 15 67c-14 14 -20 34 -20 55c0 17 8 34 23 43z" />
    <glyph glyph-name="currency" unicode="&#xa4;" horiz-adv-x="448" 
d="M37 451c0 31 16 64 46 64c21 0 40 -24 58 -43c21 16 48 25 79 26c30 0 59 -10 84 -28c20 21 45 40 63 41c25 -7 43 -29 43 -45c0 -4 -1 -7 -3 -10l-52 -63c3 -12 5 -25 5 -38c0 -22 -3 -43 -11 -65c26 -31 58 -69 59 -71c-1 -30 -15 -43 -49 -52c-15 0 -42 22 -63 44
c-24 -20 -50 -26 -80 -26c-27 0 -55 7 -78 21c-20 -21 -42 -41 -54 -41h-6c-15 5 -45 34 -45 48c0 18 39 50 47 64c-5 13 -7 28 -7 45c0 26 5 52 15 77zM214 262c31 0 56 48 56 83c0 37 -11 77 -51 77s-58 -47 -58 -84c0 -33 24 -76 53 -76z" />
    <glyph glyph-name="dollar" unicode="$" horiz-adv-x="350" 
d="M231 409c46 -50 95 -102 95 -189c0 -90 -24 -172 -95 -199v-46c0 -20 -18 -34 -33 -34c-24 0 -49 10 -49 40v33c-63 16 -100 93 -100 163c0 31 12 61 50 61c30 0 53 -18 54 -52c2 -27 5 -96 33 -96c35 0 40 62 40 96c0 60 -36 99 -72 139c-47 51 -96 107 -96 211
c0 73 39 124 91 143v36c0 23 18 42 40 42c13 -3 42 -11 42 -38v-37c75 -23 87 -118 89 -185c0 -22 -4 -41 -32 -41c-26 0 -50 0 -62 35c1 -3 -1 21 -2 36c-2 35 -4 87 -27 87c-24 0 -40 -35 -40 -74c0 -50 36 -90 74 -131zM226 491v0z" />
    <glyph glyph-name="Euro" unicode="&#x20ac;" horiz-adv-x="383" 
d="M292 300c-3 -16 -9 -44 -35 -44h-106c0 -2 1 -4 1 -5c0 -8 1 -16 1 -26c1 -64 3 -167 62 -167c41 0 64 31 64 96c0 28 14 43 43 43c42 0 42 -8 42 -44c0 -92 -65 -166 -150 -166c-99 0 -140 68 -149 162c-2 29 -4 67 -5 107h-24c-21 0 -27 13 -27 28c0 10 1 13 1 16
c0 23 13 37 36 37h11v25h-21c-21 0 -27 8 -27 23c0 10 1 13 1 16c0 24 13 40 36 40h11c2 44 7 96 15 142c24 102 82 134 146 134c80 0 129 -74 132 -147v-6c0 -3 1 -7 1 -11l-3 -11c-9 -13 -28 -20 -47 -20c-3 0 -27 6 -35 14l-3 28c-4 31 -9 80 -55 80
c-35 0 -48 -54 -51 -85c-1 -21 -3 -69 -4 -118h100c21 0 39 -16 39 -40c-3 -15 -8 -39 -35 -39h-106v-25h102c21 0 39 -14 39 -37z" />
    <glyph glyph-name="sterling" unicode="&#xa3;" horiz-adv-x="402" 
d="M291 334c-2 -15 -8 -44 -35 -44h-52c-3 -49 -5 -104 -7 -149c79 -15 174 -55 174 -106c0 -20 -8 -43 -37 -43c-7 0 -16 2 -23 5c-40 33 -90 55 -130 66c-17 -51 -46 -85 -94 -85c-40 0 -72 31 -72 73c0 58 43 82 91 92v147h-39c-17 0 -26 21 -26 44c0 24 12 35 36 35h29
c0 107 7 248 67 313c17 19 39 30 59 30c30 0 57 -20 57 -74c0 -49 -45 -125 -80 -177c-2 -27 -3 -63 -4 -92h47c21 0 39 -11 39 -35zM76 45c3 1 19 3 26 24c-10 2 -27 -16 -26 -24z" />
    <glyph glyph-name="yen" unicode="&#xa5;" horiz-adv-x="406" 
d="M329 171c-3 -16 -10 -44 -36 -44h-42v-14c0 -37 -1 -86 -7 -100c-10 -23 -25 -25 -37 -25c-31 0 -47 10 -47 46l-1 93h-42c-14 0 -39 15 -39 44c0 23 12 37 36 37h44v25h-54c-20 0 -26 16 -26 39c0 24 12 40 36 40h59c-43 97 -152 344 -152 360c0 15 35 37 53 37
c30 0 41 -33 41 -31l98 -269s62 252 82 278c13 16 27 25 42 25c16 0 35 -9 35 -33c0 -5 0 -10 -113 -367h31c20 0 39 -16 39 -40c0 -15 -9 -39 -36 -39h-43v-25h40c20 0 39 -14 39 -37z" />
    <glyph glyph-name="asciitilde" unicode="~" horiz-adv-x="411" 
d="M19 217c0 0 -17 10 -17 30c0 6 2 12 6 19c10 15 56 75 118 75c35 0 64 -19 88 -35c16 -11 35 -23 52 -23c15 0 32 15 44 27c13 11 21 20 42 23c0 0 25 -19 25 -42c0 -24 -60 -96 -123 -96c-32 0 -59 18 -82 36c-15 11 -35 25 -47 25c-14 0 -29 -13 -43 -25
c-15 -12 -27 -23 -41 -23c-7 0 -14 3 -22 9z" />
    <glyph glyph-name="divide" unicode="&#xf7;" horiz-adv-x="341" 
d="M140 444c10 6 24 11 39 11c39 0 43 -25 43 -58c0 -34 -19 -54 -52 -54c-30 0 -51 33 -51 62c0 14 6 30 21 39zM312 284c-3 -12 -10 -35 -35 -35h-217c-14 0 -36 13 -36 28c0 5 1 8 1 11c0 24 13 40 36 40h212c21 0 39 -16 39 -40v-4zM140 223c10 6 24 12 39 12
c39 0 43 -26 43 -59c0 -34 -19 -54 -52 -54c-30 0 -51 33 -51 62c0 15 6 30 21 39z" />
    <glyph glyph-name="equal" unicode="=" horiz-adv-x="341" 
d="M312 335c0 -10 -9 -39 -36 -39h-225c-21 0 -27 13 -27 28l1 16c0 24 12 40 36 40h212c21 0 39 -16 39 -40v-5zM312 216c0 -12 -10 -40 -36 -40h-216c-14 0 -36 13 -36 28l1 16c0 24 12 40 36 40h212c21 0 39 -16 39 -40v-4z" />
    <glyph glyph-name="greater" unicode="&#x3e;" horiz-adv-x="338" 
d="M72 131l-7 -1c-18 0 -36 22 -36 39c0 9 1 23 15 30l158 80s-112 58 -145 82c-19 12 -28 18 -28 34c0 9 2 31 22 40c7 3 18 5 26 5c9 0 22 -3 60 -25c43 -26 110 -65 143 -92c14 -12 18 -20 18 -40c0 -17 -2 -28 -23 -41c-61 -40 -203 -111 -203 -111z" />
    <glyph glyph-name="less" unicode="&#x3c;" horiz-adv-x="333" 
d="M270 209c18 -14 28 -16 28 -36c0 -9 -2 -30 -22 -39c-5 -3 -14 -4 -22 -4c-13 0 -26 2 -63 24c-43 26 -110 65 -143 92c-15 12 -19 20 -19 40c0 16 2 27 24 41c60 40 203 111 203 111c3 1 6 2 8 2c17 0 34 -24 34 -40c0 -9 -5 -20 -14 -30c2 3 -159 -81 -159 -81
s115 -56 145 -80zM284 370v0z" />
    <glyph glyph-name="logicalnot" unicode="&#xac;" horiz-adv-x="502" 
d="M45 296c-14 18 -22 26 -22 42c0 15 7 26 22 44l65 -1h54c122 0 228 1 263 2h14c27 -2 31 -36 31 -75v-47c0 -20 -2 -37 -3 -49c-2 -16 -28 -27 -45 -27c-6 0 -18 5 -25 9c-9 14 -9 65 -13 102c-84 -1 -144 0 -193 0h-148z" />
    <glyph glyph-name="minus" unicode="&#x2212;" horiz-adv-x="371" 
d="M329 239c-3 -16 -10 -44 -36 -44h-216c-14 0 -35 14 -35 44c0 24 12 40 36 40h212c21 0 39 -16 39 -40z" />
    <glyph glyph-name="multiply" unicode="&#xd7;" horiz-adv-x="337" 
d="M280 177c-6 -6 -20 -11 -34 -11c-7 0 -15 3 -20 8l-56 62l-72 -77s-32 5 -41 18c-8 9 -12 21 -12 30s4 17 11 25l59 60l-54 58c-5 6 -10 16 -10 23c0 12 7 25 16 34s19 13 27 13s17 -4 24 -12l54 -62l49 56c9 8 18 13 28 13c7 0 23 -4 30 -17c4 -6 9 -17 9 -30
c0 -9 -2 -15 -9 -22l-52 -55l52 -56c8 -8 13 -18 13 -29c0 -9 -4 -22 -12 -29z" />
    <glyph glyph-name="notequal" unicode="&#x2260;" horiz-adv-x="351" 
d="M257 424c8 -7 13 -16 13 -27c0 -6 -4 -17 -7 -22h17c21 0 42 -11 42 -35c-3 -17 -12 -44 -36 -44h-71l-12 -20h78c21 0 41 -13 41 -37v-4c-3 -12 -6 -36 -32 -36h-132l-27 -42c-2 -5 -13 -15 -26 -15c-7 0 -13 1 -19 5c-10 7 -16 16 -16 28c0 5 6 15 10 24h-6
c-14 0 -39 9 -39 40c0 24 10 37 34 37h55l13 20h-68c-21 0 -34 24 -34 44c0 24 9 35 33 35h117l20 32c7 13 20 23 34 23c7 0 12 -2 18 -6z" />
    <glyph glyph-name="percent" unicode="%" horiz-adv-x="585" 
d="M24 563c0 93 56 147 132 147c72 0 125 -66 125 -146c0 -66 -45 -140 -133 -140c-75 0 -124 70 -124 139zM444 678c10 29 31 30 46 30c23 0 50 -4 50 -37l-1 -13c-7 -6 -407 -632 -411 -638c-9 -18 -17 -31 -48 -31c-23 0 -45 0 -45 36c0 9 9 37 16 50zM119 572
c0 -32 9 -58 32 -58c24 0 37 25 37 51c0 31 -9 53 -33 53c-23 0 -34 -15 -36 -46zM314 134c0 93 56 147 132 147c72 0 125 -66 125 -146c0 -66 -45 -140 -133 -140c-75 0 -124 70 -124 139zM409 143c0 -32 9 -58 32 -58c24 0 37 25 37 51c0 31 -9 53 -33 53
c-23 0 -34 -15 -36 -46z" />
    <glyph glyph-name="perthousand" unicode="&#x2030;" horiz-adv-x="895" 
d="M24 563c0 93 56 147 132 147c72 0 125 -66 125 -146c0 -66 -45 -140 -133 -140c-75 0 -124 70 -124 139zM444 678c10 29 31 30 46 30c23 0 50 -4 50 -37l-1 -13c-7 -6 -407 -632 -411 -638c-9 -18 -17 -31 -48 -31c-23 0 -45 0 -45 36c0 9 9 37 16 50zM119 572
c0 -32 9 -58 32 -58c24 0 37 25 37 51c0 31 -9 53 -33 53c-23 0 -34 -15 -36 -46zM314 134c0 93 56 147 132 147c72 0 125 -66 125 -146c0 -66 -45 -140 -133 -140c-75 0 -124 70 -124 139zM600 134c0 93 56 147 132 147c72 0 125 -66 125 -146c0 -66 -45 -140 -133 -140
c-75 0 -124 70 -124 139zM409 143c0 -32 9 -58 32 -58c24 0 37 25 37 51c0 31 -9 53 -33 53c-23 0 -34 -15 -36 -46zM695 143c0 -32 9 -58 32 -58c24 0 37 25 37 51c0 31 -9 53 -33 53c-23 0 -34 -15 -36 -46z" />
    <glyph glyph-name="plus" unicode="+" horiz-adv-x="352" 
d="M282 336c25 0 39 -19 39 -45c0 -13 -10 -39 -35 -39h-79v-97c0 -22 -12 -27 -33 -27c-26 1 -47 9 -47 38v86h-76c-15 0 -36 14 -36 29l1 15c0 24 12 40 36 40h75v72c0 23 15 42 38 42c37 -4 42 -25 42 -38v-76h75z" />
    <glyph glyph-name="plusminus" unicode="&#xb1;" horiz-adv-x="365" 
d="M294 384c25 0 39 -19 39 -45c0 -13 -10 -39 -35 -39h-79v-71c0 -22 -16 -37 -37 -37c-26 1 -43 7 -43 36v72h-76c-15 0 -36 14 -36 29l1 15c0 24 12 40 36 40h75v72c0 23 15 42 38 42c37 -4 42 -25 42 -38v-76h75zM324 135c-3 -12 -10 -35 -35 -35h-217
c-24 0 -35 17 -35 39c0 24 13 40 36 40h212c21 0 39 -16 39 -40v-4z" />
    <glyph glyph-name="bar" unicode="|" horiz-adv-x="224" 
d="M156 707l3 -681v-21c0 -14 -1 -23 -4 -30c-7 -16 -16 -23 -29 -23c-36 0 -54 22 -59 51c0 3 -1 96 -1 217c0 210 0 496 -2 504c9 22 25 32 42 32c22 0 50 -14 50 -49z" />
    <glyph glyph-name="brokenbar" unicode="&#xa6;" horiz-adv-x="224" 
d="M157 409c-6 -17 -34 -24 -50 -24c-14 0 -27 8 -41 23c0 168 -1 311 -2 317c9 21 25 31 42 31c21 0 48 -17 50 -49c1 -101 1 -218 1 -292v-6zM68 289c16 27 39 29 52 29c20 0 33 -16 38 -29l1 -284c0 -14 -1 -23 -4 -30c-7 -16 -16 -23 -29 -23c-36 0 -53 18 -59 44
c-1 18 -1 147 -1 284z" />
    <glyph glyph-name="at" unicode="@" horiz-adv-x="590" 
d="M322 671c176 -7 222 -173 222 -290c0 -105 -66 -192 -165 -192c-17 0 -32 10 -44 23c-14 -23 -61 -32 -84 -32c-81 0 -84 102 -84 116c0 80 53 226 150 226c12 0 23 -4 34 -9c1 0 1 -1 5 -1l7 1c12 0 14 -1 29 -10c7 -10 11 -20 11 -32c0 -19 0 -41 -1 -63s-4 -48 -4 -69
c0 -25 0 -74 6 -74c28 0 47 97 47 130c0 103 -37 199 -130 199c-124 0 -194 -149 -194 -273c0 -133 79 -218 196 -218c50 0 138 48 182 108c30 -3 62 -18 62 -44c0 -44 -97 -146 -251 -146c-207 0 -283 151 -283 305c0 215 112 345 289 345zM306 362c0 28 2 56 11 88h-5
c-27 -14 -51 -97 -51 -157c0 -24 6 -38 24 -38c9 0 25 8 28 15c-6 36 -7 63 -7 92z" />
    <glyph glyph-name="ampersand" unicode="&#x26;" horiz-adv-x="589" 
d="M338 244c-19 -5 -31 -21 -36 -43l7 -16c3 -8 6 -16 6 -31c-7 -25 -23 -33 -43 -33c-24 0 -51 13 -51 67c0 41 20 77 45 99c36 30 84 39 123 44l22 3c33 5 49 13 49 28c0 9 -7 12 -13 16c-15 7 -28 16 -28 39c0 37 7 44 39 44c45 0 77 -50 77 -84
c0 -100 -79 -121 -110 -126c1 -13 2 -26 2 -40c0 -143 -53 -229 -164 -229c-48 0 -164 21 -164 207c0 78 1 164 95 228c-22 17 -47 49 -47 131c0 76 38 167 132 167c67 0 115 -53 115 -149c0 -35 -25 -45 -50 -45c-16 0 -31 19 -32 32l-2 26c0 23 -4 58 -34 58
c-28 0 -39 -57 -39 -89c0 -50 15 -86 49 -89h26c22 0 42 -8 42 -37c0 -26 -17 -40 -42 -40c-100 0 -125 -99 -125 -183c0 -83 25 -143 79 -143c55 0 66 57 68 71c2 13 7 44 7 78c0 16 0 29 -3 39z" />
    <glyph glyph-name="paragraph" unicode="&#xb6;" horiz-adv-x="380" 
d="M341 663c0 -234 3 -424 3 -664c0 -21 -9 -47 -34 -47c-35 0 -46 22 -52 51v216c0 166 0 326 -1 409c-11 0 -33 1 -49 1l3 -603c0 -35 -1 -44 -4 -51c-6 -16 -16 -23 -29 -23c-35 0 -53 20 -58 47c-2 11 -1 255 -4 468c-61 6 -91 50 -91 119c0 81 48 112 85 120
c31 7 70 9 103 9c59 0 128 -2 128 -52z" />
    <glyph glyph-name="copyright" unicode="&#xa9;" horiz-adv-x="586" 
d="M302 707c208 0 249 -223 249 -361c0 -279 -146 -339 -260 -339c-170 0 -254 129 -254 332c0 191 60 368 265 368zM295 88c91 0 166 114 166 262s-40 275 -168 275c-63 0 -166 -57 -166 -272c0 -117 58 -265 168 -265zM414 439c0 -21 -24 -33 -44 -33c-3 0 -24 6 -31 14
l-4 19c-3 23 -8 61 -33 61c-39 0 -42 -104 -42 -144c0 -41 1 -136 38 -136c22 0 41 22 41 42v40c4 22 26 30 42 30c35 0 38 -23 38 -49c0 -80 -45 -139 -122 -139c-51 0 -85 32 -102 65c-22 43 -29 91 -29 143c0 81 14 225 135 225c78 0 113 -69 113 -138z" />
    <glyph glyph-name="registered" unicode="&#xae;" horiz-adv-x="396" 
d="M202 717c112 0 168 -103 168 -193c0 -137 -102 -189 -177 -189c-111 0 -168 96 -168 185c0 95 53 197 177 197zM194 389c82 0 101 73 101 135c0 76 -24 132 -101 132c-69 0 -95 -79 -95 -132c0 -58 20 -135 95 -135zM255 579c0 -30 -6 -59 -29 -70c9 -12 27 -39 32 -84
c-1 1 -22 -3 -29 -3c-4 0 -18 4 -18 7c-4 21 -5 57 -23 73c0 -8 1 -31 1 -46v-23c0 -1 -13 -12 -22 -12c-7 0 -19 6 -19 11l3 174v2c0 14 25 26 49 26c28 0 55 -25 55 -55zM190 593v-55h8c16 0 17 20 17 27c0 23 -5 33 -21 33c-4 0 -4 -2 -4 -5zM258 425v0z" />
    <glyph glyph-name="section" unicode="&#xa7;" horiz-adv-x="369" 
d="M41 96c0 44 30 55 52 56c15 0 29 -2 29 -2c27 -75 53 -97 71 -97c11 0 21 8 22 21c-3 44 -40 90 -79 133c-50 54 -103 112 -103 194c0 48 27 83 52 106c-18 30 -29 60 -29 88c0 74 50 123 125 123c38 0 76 -16 101 -45c23 -28 37 -62 37 -62v-9c0 -43 -30 -54 -52 -55
c-13 0 -28 2 -28 2c-27 74 -54 99 -71 100c-9 -2 -18 -8 -18 -21c3 -56 44 -104 85 -148c48 -51 96 -101 96 -181c0 -48 -28 -83 -54 -106c16 -29 28 -58 30 -86v-4c0 -46 -31 -118 -122 -122h-5c-86 0 -139 107 -139 107v8zM132 442c-3 -9 -4 -18 -4 -26
c1 -19 6 -37 16 -52c15 -20 33 -41 53 -65l31 -38c2 8 4 17 4 26c0 18 -8 39 -24 62c-12 17 -26 34 -43 53z" />
    <glyph glyph-name="trademark" unicode="&#x2122;" horiz-adv-x="509" 
d="M221 646v8c1 32 1 60 45 60c11 0 27 -5 37 -13c43 -163 44 -164 44 -164c10 38 21 87 30 127c3 16 8 33 24 41c10 6 28 8 39 8c18 0 28 -14 28 -37c0 -29 1 -58 1 -87c1 -55 2 -120 2 -175c0 -24 -11 -50 -45 -50c-12 0 -21 7 -25 28v132l-23 -81c-7 -21 -16 -29 -32 -29
c-18 0 -29 14 -34 29l-23 81l1 -137c-2 -19 -21 -26 -34 -26c-19 0 -32 23 -33 35c-1 14 -2 168 -2 250zM199 695c4 -6 5 -12 6 -18c0 -26 -4 -32 -44 -34l-24 -1c0 -61 -1 -124 -1 -168v-87c0 -5 -18 -28 -38 -28c-29 0 -32 15 -32 32v18c0 23 1 112 1 175v59
c-20 0 -41 -1 -50 4c-10 8 -14 24 -14 31c0 24 10 31 30 31h136c10 0 23 -3 30 -14z" />
    <glyph glyph-name="degree" unicode="&#xb0;" horiz-adv-x="240" 
d="M14 595c0 74 47 118 110 118c61 0 105 -55 105 -122c0 -56 -37 -118 -110 -118c-66 0 -106 62 -105 122zM96 597c0 -25 7 -46 24 -46c19 0 29 21 29 41c0 23 -8 41 -26 41c-17 0 -26 -12 -27 -36z" />
    <glyph glyph-name="asciicircum" unicode="^" horiz-adv-x="368" 
d="M362 402c-3 -32 -19 -49 -43 -49c-12 0 -24 4 -34 15c-22 23 -98 189 -102 197c-26 -50 -80 -147 -99 -177c-10 -17 -21 -33 -43 -33c-27 0 -40 22 -40 46c0 13 2 29 7 37l24 43c31 58 77 144 111 190c14 19 22 24 45 24c16 0 31 -5 46 -30c49 -84 128 -263 128 -263z
" />
    <glyph glyph-name="dagger" unicode="&#x2020;" horiz-adv-x="300" 
d="M283 514c-2 -28 -10 -45 -35 -45h-61c1 -297 2 -407 2 -443v-21c0 -14 -1 -23 -4 -30c-6 -16 -16 -23 -29 -23c-35 0 -54 22 -59 51c0 3 -1 96 -1 217v249h-58c-36 0 -38 22 -38 46c0 26 17 43 39 43h57c-1 93 -1 162 -2 166c9 22 26 32 42 32c23 0 50 -14 50 -49v-149
h58c21 0 39 -19 39 -44z" />
    <glyph glyph-name="daggerdbl" unicode="&#x2021;" horiz-adv-x="287" 
d="M280 284c-3 -28 -11 -45 -36 -45h-57c0 -126 1 -189 1 -213v-21c0 -14 -1 -23 -4 -30c-6 -16 -16 -23 -29 -23c-35 0 -54 22 -59 51c0 3 -1 101 -1 222v14h-61c-36 0 -38 22 -38 46c0 26 17 43 39 43h60v141h-61c-36 0 -38 22 -38 46c0 26 17 43 39 43h60
c-1 93 -1 162 -2 166c9 22 26 32 42 32c23 0 50 -14 50 -49v-149h55c21 0 40 -19 40 -44c-3 -28 -11 -45 -36 -45h-58v-141h54c21 0 40 -19 40 -44z" />
    <glyph glyph-name="acutecomb" unicode="&#x301;" 
d="M-238 761c9 -7 11 -16 11 -23c0 -8 -3 -16 -9 -25c-19 -27 -79 -80 -96 -80c-25 0 -40 12 -40 30c0 17 12 35 21 46c2 2 31 45 51 57c6 3 15 7 21 7c9 0 30 -3 41 -12z" />
    <glyph glyph-name="uni0306" unicode="&#x306;" 
d="M-234 768c16 0 37 -13 37 -32c0 -3 0 -6 -1 -8c0 0 -19 -87 -100 -87c-71 0 -105 48 -105 92c0 7 2 14 4 18c10 11 21 15 32 15c17 0 28 -15 32 -26c8 -17 18 -32 35 -32c14 0 30 21 38 40c7 15 20 20 28 20z" />
    <glyph glyph-name="uni030C" unicode="&#x30c;" 
d="M-193 743c1 -2 1 -4 1 -6c0 -5 -2 -9 -4 -13c0 0 -80 -84 -103 -83s-47 26 -74 48c-9 7 -11 9 -21 18c-10 10 -13 18 -13 28c0 7 1 14 4 18c8 12 20 14 32 14c13 0 22 -5 35 -17c17 -16 35 -31 35 -31c23 17 53 48 69 48s32 -7 39 -24z" />
    <glyph glyph-name="uni0327" unicode="&#x327;" 
d="M-289 1c57 -16 68 -46 68 -85c0 -65 -47 -86 -87 -86c-32 0 -71 13 -71 51c0 25 13 30 25 30c5 0 11 -2 20 -6c4 -2 12 -4 16 -4c13 0 26 0 26 19c0 5 -8 8 -23 13l-24 9c-24 9 -36 23 -36 49c0 14 9 33 20 52h79c-9 -16 -17 -32 -21 -40z" />
    <glyph glyph-name="uni0302" unicode="&#x302;" 
d="M-195 687c3 -4 5 -8 5 -13c0 -20 -27 -29 -42 -29c-9 0 -16 2 -21 5c-11 7 -49 42 -49 42c-10 -9 -24 -20 -37 -31c-13 -10 -21 -16 -35 -16c-20 0 -36 9 -36 31c0 8 0 19 11 26l28 23c26 21 52 44 73 45c23 1 103 -83 103 -83z" />
    <glyph glyph-name="uni0326" unicode="&#x326;" 
d="M-336 -37c12 6 29 13 45 13c43 0 50 -30 50 -67c0 -26 -29 -112 -46 -133c-8 -10 -20 -15 -29 -15c-23 0 -39 29 -38 38c5 13 12 41 16 66c-15 14 -20 34 -20 55c0 17 7 34 22 43z" />
    <glyph glyph-name="uni0312" unicode="&#x312;" 
d="M-261 627c-12 -6 -29 -13 -45 -13c-43 0 -50 30 -50 67c0 26 29 112 46 133c8 10 20 15 29 15c23 0 39 -29 38 -38c-5 -13 -12 -41 -16 -66c15 -14 20 -34 20 -55c0 -17 -7 -34 -22 -43z" />
    <glyph glyph-name="uni0308" unicode="&#x308;" 
d="M-381 752c9 5 22 10 36 10c33 0 38 -23 38 -52c0 -31 -17 -48 -47 -48c-27 0 -45 29 -45 56c0 13 5 27 18 34zM-275 752c9 5 22 10 36 10c33 0 38 -23 38 -52c0 -31 -17 -48 -47 -48c-27 0 -45 29 -45 56c0 13 5 27 18 34z" />
    <glyph glyph-name="uni0307" unicode="&#x307;" 
d="M-332 753c14 6 27 11 40 11c37 0 42 -24 42 -56c0 -33 -19 -52 -51 -52c-29 0 -49 32 -49 60c0 13 5 28 18 37z" />
    <glyph glyph-name="gravecomb" unicode="&#x300;" 
d="M-361 761c12 10 33 12 42 12c6 0 14 -4 20 -7c21 -13 49 -53 52 -56c8 -11 20 -29 20 -47s-15 -30 -39 -30c-17 0 -77 53 -96 80c-6 11 -10 19 -10 25c0 7 2 15 11 23z" />
    <glyph glyph-name="uni030B" unicode="&#x30b;" 
d="M-301 781c9 -7 11 -16 11 -23c0 -8 -3 -16 -9 -25c-19 -27 -79 -80 -96 -80c-25 0 -40 12 -40 30c0 17 12 35 21 46c2 2 31 45 51 57c6 3 15 7 21 7c9 0 30 -3 41 -12zM-177 781c9 -7 11 -16 11 -23c0 -8 -3 -16 -9 -25c-19 -27 -79 -80 -96 -80c-25 0 -40 12 -40 30
c0 17 12 35 21 46c2 2 31 45 51 57c6 3 15 7 21 7c9 0 30 -3 41 -12z" />
    <glyph glyph-name="uni0304" unicode="&#x304;" 
d="M-186 694c-3 -25 -8 -39 -32 -39h-162c-31 0 -33 19 -33 40c0 19 15 37 34 37h159c18 0 34 -19 34 -38z" />
    <glyph glyph-name="uni0328" unicode="&#x328;" 
d="M-254 77c0 -19 -15 -45 -22 -56c-14 -20 -32 -56 -32 -83c0 -5 2 -13 10 -13c9 0 16 14 20 28c7 22 14 43 29 43c21 0 35 -11 35 -38c0 -21 -4 -50 -16 -67c-14 -18 -37 -28 -77 -28c-42 0 -79 26 -79 76s34 107 75 138h57z" />
    <glyph glyph-name="uni030A" unicode="&#x30a;" 
d="M-367 706c0 45 30 69 69 72c39 0 65 -33 65 -71s-26 -70 -67 -70c-38 0 -67 31 -67 69zM-320 709c0 -13 12 -23 21 -23s22 10 22 23s-13 23 -22 23s-21 -10 -21 -23z" />
    <glyph glyph-name="uni0337" unicode="&#x337;" 
d="M-152 479c18 -23 23 -45 4 -61l-240 -200c-28 -23 -46 -7 -62 12c-18 21 -18 45 2 61l237 197c16 14 43 10 59 -9z" />
    <glyph glyph-name="uni0336" unicode="&#x336;" 
d="M-127 516c0 -29 -11 -49 -35 -49h-273c-36 0 -40 24 -40 48c0 28 15 46 40 46h269c21 0 39 -20 39 -45z" />
    <glyph glyph-name="uni0335" unicode="&#x335;" 
d="M-160 339c0 -29 -11 -49 -35 -49h-229c-36 0 -40 24 -40 48c0 28 15 46 40 46h225c21 0 39 -20 39 -45z" />
    <glyph glyph-name="tildecomb" unicode="&#x303;" 
d="M-416 689c0 21 31 72 81 72c22 0 37 -9 50 -18c8 -5 15 -11 26 -11c18 0 30 24 51 27c0 0 24 -9 24 -30c0 -41 -42 -79 -77 -79c-25 0 -40 10 -52 20c-7 5 -16 11 -21 11c-18 0 -25 -30 -48 -30c-16 0 -34 11 -34 38z" />
    <glyph glyph-name="acutecomb.case" 
d="M-14 876c9 -7 11 -16 11 -23c0 -8 -3 -16 -9 -25c-19 -27 -79 -80 -96 -80c-25 0 -40 12 -40 30c0 17 12 35 21 46c2 2 31 45 51 57c6 3 15 7 21 7c9 0 30 -3 41 -12z" />
    <glyph glyph-name="uni0306.case" 
d="M-38 883c16 0 37 -13 37 -32c0 -3 0 -6 -1 -8c0 0 -19 -87 -100 -87c-71 0 -105 48 -105 92c0 7 2 14 4 18c10 11 21 15 32 15c17 0 28 -15 32 -26c8 -17 18 -32 35 -32c14 0 30 21 38 40c7 15 20 20 28 20z" />
    <glyph glyph-name="uni030C.case" 
d="M-3 858c1 -2 1 -4 1 -6c0 -5 -2 -9 -4 -13c0 0 -80 -84 -103 -83s-47 26 -74 48c-9 7 -11 9 -21 18c-10 10 -13 18 -13 28c0 7 1 14 4 18c8 12 20 14 32 14c13 0 22 -5 35 -17c17 -16 35 -31 35 -31c23 17 53 48 69 48s32 -7 39 -24z" />
    <glyph glyph-name="uni0327.case" 
d="M-71 -39c57 -16 68 -46 68 -85c0 -65 -47 -86 -87 -86c-32 0 -71 13 -71 51c0 25 13 30 25 30c5 0 11 -2 20 -6c4 -2 12 -4 16 -4c13 0 26 0 26 19c0 5 -8 8 -23 13l-24 9c-24 9 -36 23 -36 49c0 14 9 33 20 52h79c-9 -16 -17 -32 -21 -40z" />
    <glyph glyph-name="uni0302.case" 
d="M-7 802c3 -4 5 -8 5 -13c0 -20 -27 -29 -42 -29c-9 0 -16 2 -21 5c-11 7 -49 42 -49 42c-10 -9 -24 -20 -37 -31c-13 -10 -21 -16 -35 -16c-20 0 -36 9 -36 31c0 8 0 19 11 26l28 23c26 21 52 44 73 45c23 1 103 -83 103 -83z" />
    <glyph glyph-name="uni0308.case" 
d="M-183 867c9 5 22 10 36 10c33 0 38 -23 38 -52c0 -31 -17 -48 -47 -48c-27 0 -45 29 -45 56c0 13 5 27 18 34zM-77 867c9 5 22 10 36 10c33 0 38 -23 38 -52c0 -31 -17 -48 -47 -48c-27 0 -45 29 -45 56c0 13 5 27 18 34z" />
    <glyph glyph-name="uni0307.case" 
d="M-85 868c14 6 27 11 40 11c37 0 42 -24 42 -56c0 -33 -19 -52 -51 -52c-29 0 -49 32 -49 60c0 13 5 28 18 37z" />
    <glyph glyph-name="gravecomb.case" 
d="M-128 876c12 10 33 12 42 12c6 0 14 -4 20 -7c21 -13 49 -53 52 -56c8 -11 20 -29 20 -47s-15 -30 -39 -30c-17 0 -77 53 -96 80c-7 11 -11 19 -11 25c0 7 2 15 12 23z" />
    <glyph glyph-name="uni030B.case" 
d="M-137 876c9 -7 11 -16 11 -23c0 -8 -3 -16 -9 -25c-19 -27 -79 -80 -96 -80c-25 0 -40 12 -40 30c0 17 12 35 21 46c2 2 31 45 51 57c6 3 15 7 21 7c9 0 30 -3 41 -12zM-13 876c9 -7 11 -16 11 -23c0 -8 -3 -16 -9 -25c-19 -27 -79 -80 -96 -80c-25 0 -40 12 -40 30
c0 17 12 35 21 46c2 2 31 45 51 57c6 3 15 7 21 7c9 0 30 -3 41 -12z" />
    <glyph glyph-name="uni0304.case" 
d="M-5 809c-3 -25 -8 -39 -32 -39h-162c-31 0 -33 19 -33 40c0 19 15 37 34 37h159c18 0 34 -19 34 -38z" />
    <glyph glyph-name="uni0328.case" 
d="M-47 77c0 -19 -15 -45 -22 -56c-14 -20 -32 -56 -32 -83c0 -5 2 -13 10 -13c9 0 16 14 20 28c7 22 14 43 29 43c21 0 35 -11 35 -38c0 -21 -4 -50 -16 -67c-14 -18 -37 -28 -77 -28c-42 0 -79 26 -79 76s34 107 75 138h57z" />
    <glyph glyph-name="uni030A.case" 
d="M-138 821c0 45 30 69 69 72c39 0 65 -33 65 -71s-26 -70 -67 -70c-38 0 -67 31 -67 69zM-91 824c0 -13 12 -23 21 -23s22 10 22 23s-13 23 -22 23s-21 -10 -21 -23z" />
    <glyph glyph-name="tildecomb.case" 
d="M-237 804c0 21 31 72 81 72c22 0 37 -9 50 -18c8 -5 15 -11 26 -11c18 0 30 24 51 27c0 0 24 -9 24 -30c0 -41 -42 -79 -77 -79c-25 0 -40 10 -52 20c-7 5 -16 11 -21 11c-18 0 -25 -30 -48 -30c-16 0 -34 11 -34 38z" />
    <glyph glyph-name="acute" unicode="&#xb4;" horiz-adv-x="149" 
d="M135 861c9 -7 11 -16 11 -23c0 -8 -3 -16 -9 -25c-19 -27 -79 -80 -96 -80c-25 0 -40 12 -40 30c0 17 12 35 21 46c2 2 31 45 51 57c6 3 15 7 21 7c9 0 30 -3 41 -12z" />
    <glyph glyph-name="breve" unicode="&#x2d8;" horiz-adv-x="209" 
d="M171 868c16 0 37 -13 37 -32c0 -3 0 -6 -1 -8c0 0 -19 -87 -100 -87c-71 0 -105 48 -105 92c0 7 2 14 4 18c10 11 21 15 32 15c17 0 28 -15 32 -26c8 -17 18 -32 35 -32c14 0 30 21 38 40c7 15 20 20 28 20z" />
    <glyph glyph-name="caron" unicode="&#x2c7;" horiz-adv-x="218" 
d="M215 843c1 -2 1 -4 1 -6c0 -5 -2 -9 -4 -13c0 0 -80 -84 -103 -83s-47 26 -74 48c-9 7 -11 9 -21 18c-10 10 -13 18 -13 28c0 7 1 14 4 18c8 12 20 14 32 14c13 0 22 -5 35 -17c17 -16 35 -31 35 -31c23 17 53 48 69 48s32 -7 39 -24z" />
    <glyph glyph-name="cedilla" unicode="&#xb8;" horiz-adv-x="163" 
d="M92 37c57 -16 68 -46 68 -85c0 -65 -47 -86 -87 -86c-32 0 -71 13 -71 51c0 25 13 30 25 30c5 0 11 -2 20 -6c4 -2 12 -4 16 -4c13 0 26 0 26 19c0 5 -8 8 -23 13l-24 9c-24 9 -36 23 -36 49c0 14 9 33 20 52h79c-9 -16 -17 -32 -21 -40z" />
    <glyph glyph-name="circumflex" unicode="&#x2c6;" horiz-adv-x="223" 
d="M216 787c3 -4 5 -8 5 -13c0 -20 -27 -29 -42 -29c-9 0 -16 2 -21 5c-11 7 -49 42 -49 42c-10 -9 -24 -20 -37 -31c-13 -10 -21 -16 -35 -16c-20 0 -36 9 -36 31c0 8 0 19 11 26l28 23c26 21 52 44 73 45c23 1 103 -83 103 -83z" />
    </font>
</defs>
</svg>
