<?xml version="1.0" encoding="UTF-8"?>
<svg width="114px" height="84px" viewBox="0 0 114 84" version="1.1" xmlns="http://www.w3.org/2000/svg" xmlns:xlink="http://www.w3.org/1999/xlink">
    <!-- Generator: Sketch 48.2 (47327) - http://www.bohemiancoding.com/sketch -->
    <title>email-ico</title>
    <desc>Created with Sketch.</desc>
    <defs></defs>
    <g id="icons/subscribe" stroke="none" stroke-width="1" fill="none" fill-rule="evenodd">
        <path d="M21,2 L23,2 L23,4 L21,4 L21,2 Z M29,2 L31,2 L31,4 L29,4 L29,2 Z M37,2 L39,2 L39,4 L37,4 L37,2 Z M45,2 L47,2 L47,4 L45,4 L45,2 Z M53,2 L55,2 L55,4 L53,4 L53,2 Z M61,2 L63,2 L63,4 L61,4 L61,2 Z M69,2 L71,2 L71,4 L69,4 L69,2 Z M77,2 L79,2 L79,4 L77,4 L77,2 Z M85,2 L87,2 L87,4 L85,4 L85,2 Z M93,2 L95,2 L95,4 L93,4 L93,2 Z M101,2 L103,2 L103,4 L101,4 L101,2 Z M109,2 L111,2 L111,4 L109,4 L109,2 Z M21,10 L23,10 L23,12 L21,12 L21,10 Z M29,10 L31,10 L31,12 L29,12 L29,10 Z M37,10 L39,10 L39,12 L37,12 L37,10 Z M45,10 L47,10 L47,12 L45,12 L45,10 Z M53,10 L55,10 L55,12 L53,12 L53,10 Z M61,10 L63,10 L63,12 L61,12 L61,10 Z M69,10 L71,10 L71,12 L69,12 L69,10 Z M77,10 L79,10 L79,12 L77,12 L77,10 Z M85,10 L87,10 L87,12 L85,12 L85,10 Z M93,10 L95,10 L95,12 L93,12 L93,10 Z M101,10 L103,10 L103,12 L101,12 L101,10 Z M109,10 L111,10 L111,12 L109,12 L109,10 Z M21,18 L23,18 L23,20 L21,20 L21,18 Z M29,18 L31,18 L31,20 L29,20 L29,18 Z M37,18 L39,18 L39,20 L37,20 L37,18 Z M45,18 L47,18 L47,20 L45,20 L45,18 Z M53,18 L55,18 L55,20 L53,20 L53,18 Z M61,18 L63,18 L63,20 L61,20 L61,18 Z M69,18 L71,18 L71,20 L69,20 L69,18 Z M77,18 L79,18 L79,20 L77,20 L77,18 Z M85,18 L87,18 L87,20 L85,20 L85,18 Z M93,18 L95,18 L95,20 L93,20 L93,18 Z M101,18 L103,18 L103,20 L101,20 L101,18 Z M109,18 L111,18 L111,20 L109,20 L109,18 Z M21,26 L23,26 L23,28 L21,28 L21,26 Z M29,26 L31,26 L31,28 L29,28 L29,26 Z M37,26 L39,26 L39,28 L37,28 L37,26 Z M45,26 L47,26 L47,28 L45,28 L45,26 Z M53,26 L55,26 L55,28 L53,28 L53,26 Z M61,26 L63,26 L63,28 L61,28 L61,26 Z M69,26 L71,26 L71,28 L69,28 L69,26 Z M77,26 L79,26 L79,28 L77,28 L77,26 Z M85,26 L87,26 L87,28 L85,28 L85,26 Z M93,26 L95,26 L95,28 L93,28 L93,26 Z M101,26 L103,26 L103,28 L101,28 L101,26 Z M109,26 L111,26 L111,28 L109,28 L109,26 Z M21,34 L23,34 L23,36 L21,36 L21,34 Z M29,34 L31,34 L31,36 L29,36 L29,34 Z M37,34 L39,34 L39,36 L37,36 L37,34 Z M45,34 L47,34 L47,36 L45,36 L45,34 Z M53,34 L55,34 L55,36 L53,36 L53,34 Z M61,34 L63,34 L63,36 L61,36 L61,34 Z M69,34 L71,34 L71,36 L69,36 L69,34 Z M77,34 L79,34 L79,36 L77,36 L77,34 Z M85,34 L87,34 L87,36 L85,36 L85,34 Z M93,34 L95,34 L95,36 L93,36 L93,34 Z M101,34 L103,34 L103,36 L101,36 L101,34 Z M109,34 L111,34 L111,36 L109,36 L109,34 Z M21,42 L23,42 L23,44 L21,44 L21,42 Z M29,42 L31,42 L31,44 L29,44 L29,42 Z M37,42 L39,42 L39,44 L37,44 L37,42 Z M45,42 L47,42 L47,44 L45,44 L45,42 Z M53,42 L55,42 L55,44 L53,44 L53,42 Z M61,42 L63,42 L63,44 L61,44 L61,42 Z M69,42 L71,42 L71,44 L69,44 L69,42 Z M77,42 L79,42 L79,44 L77,44 L77,42 Z M85,42 L87,42 L87,44 L85,44 L85,42 Z M93,42 L95,42 L95,44 L93,44 L93,42 Z M101,42 L103,42 L103,44 L101,44 L101,42 Z M109,42 L111,42 L111,44 L109,44 L109,42 Z M21,50 L23,50 L23,52 L21,52 L21,50 Z M29,50 L31,50 L31,52 L29,52 L29,50 Z M37,50 L39,50 L39,52 L37,52 L37,50 Z M45,50 L47,50 L47,52 L45,52 L45,50 Z M53,50 L55,50 L55,52 L53,52 L53,50 Z M61,50 L63,50 L63,52 L61,52 L61,50 Z M69,50 L71,50 L71,52 L69,52 L69,50 Z M77,50 L79,50 L79,52 L77,52 L77,50 Z M85,50 L87,50 L87,52 L85,52 L85,50 Z M93,50 L95,50 L95,52 L93,52 L93,50 Z M101,50 L103,50 L103,52 L101,52 L101,50 Z M109,50 L111,50 L111,52 L109,52 L109,50 Z M21,58 L23,58 L23,60 L21,60 L21,58 Z M29,58 L31,58 L31,60 L29,60 L29,58 Z M37,58 L39,58 L39,60 L37,60 L37,58 Z M45,58 L47,58 L47,60 L45,60 L45,58 Z M53,58 L55,58 L55,60 L53,60 L53,58 Z M61,58 L63,58 L63,60 L61,60 L61,58 Z M69,58 L71,58 L71,60 L69,60 L69,58 Z M77,58 L79,58 L79,60 L77,60 L77,58 Z M85,58 L87,58 L87,60 L85,60 L85,58 Z M93,58 L95,58 L95,60 L93,60 L93,58 Z M101,58 L103,58 L103,60 L101,60 L101,58 Z M109,58 L111,58 L111,60 L109,60 L109,58 Z" id="Combined-Shape" fill="#A0BBE7"></path>
        <g id="email-ico" transform="translate(0.000000, 28.000000)" fill="#064CBE" fill-rule="nonzero">
            <path d="M4,52 L73,52 L73,4 L4,4 L4,52 Z M0,56 L0,0 L77,0 L77,56 L0,56 Z" id="Rectangle-4-Copy-6"></path>
            <polygon id="Rectangle-4-Copy-5" points="71.0011535 3.55271368e-15 77 0 39 34 0 0 6.08702744 0 38.9656108 28.6633803"></polygon>
        </g>
    </g>
</svg>