<?xml version="1.0" encoding="UTF-8"?>
<svg width="233px" height="53px" viewBox="0 0 233 53" version="1.1" xmlns="http://www.w3.org/2000/svg" xmlns:xlink="http://www.w3.org/1999/xlink">
    <!-- Generator: sketchtool 48.2 (47327) - http://www.bohemiancoding.com/sketch -->
    <title>5B522CB4-F102-4B55-BC78-FA968F7E35BC</title>
    <desc>Created with sketchtool.</desc>
    <defs>
        <linearGradient x1="50%" y1="0%" x2="62.7461212%" y2="61.2567542%" id="linearGradient-1">
            <stop stop-color="#50BFED" offset="0%"></stop>
            <stop stop-color="#294598" offset="100%"></stop>
        </linearGradient>
        <linearGradient x1="-35.6800773%" y1="81.1403935%" x2="61.1140565%" y2="22.1630049%" id="linearGradient-2">
            <stop stop-color="#50BFED" offset="0%"></stop>
            <stop stop-color="#294598" offset="100%"></stop>
        </linearGradient>
        <linearGradient x1="10.4219608%" y1="41.2266824%" x2="100%" y2="61.8637364%" id="linearGradient-3">
            <stop stop-color="#50BFED" offset="0%"></stop>
            <stop stop-color="#294598" offset="100%"></stop>
        </linearGradient>
        <linearGradient x1="100%" y1="71.1307981%" x2="31.4462236%" y2="50%" id="linearGradient-4">
            <stop stop-color="#50BFED" offset="0%"></stop>
            <stop stop-color="#294598" offset="100%"></stop>
        </linearGradient>
    </defs>
    <g id="logo/dark" stroke="none" stroke-width="1" fill="none" fill-rule="evenodd">
        <g id="LOGO" fill-rule="nonzero">
            <polygon id="Shape" fill="url(#linearGradient-1)" points="19.9342313 14 0 33.4683295 19.9996678 53 20.0993174 52.9015425 24.4101576 48.6839514 15.4390394 40.1109288 16.759064 38.7906137 25.6351829 47.4962258 29.3315175 43.8861175 20.5175134 35.205448 21.827573 33.9107319 30.6588497 42.5894322 34.0758333 39.2523794 34.5767385 38.7633738 25.6747106 30.1437479 26.8804703 28.8877585 35.7994386 37.5707253 40 33.4683295"></polygon>
            <path d="M20,14.0272723 L19.9726726,14 C17.6727591,15.4241537 15.2800244,16.6893164 12.810891,17.7868049 C11.7062169,18.2803193 10.492991,18.4733478 9.29165348,18.3467282 C8.30602479,18.2100264 7.35923588,17.8680188 6.51125589,17.342368 C5.8377584,16.9296405 5.23318224,16.4117915 4.71997734,15.8080504 L0,20.6106631 L0,34 L20,14.0272723 Z" id="Shape" fill="url(#linearGradient-2)"></path>
            <path d="M20,0 L20,11.2254443 L39.9590618,30 C39.9727079,26.3301934 39.9863539,22.6603868 40,18.9905802 L20,0 Z" id="Shape" fill="url(#linearGradient-3)"></path>
            <path d="M20,0 C15.3335538,4.73682939 10.6668871,9.47365878 6,14.2104882 C6.40901543,14.6796991 6.89771806,15.0716927 7.44318987,15.368086 C8.02107323,15.677126 8.6499722,15.8774953 9.29909765,15.9593842 C10.3130014,16.0802819 11.3406188,15.9301531 12.2787358,15.5240767 C14.8197271,14.4130888 17.2828606,13.1293177 19.6511079,11.6816386 L20,11.4649848 L20,0 Z" id="Shape" fill="url(#linearGradient-4)"></path>
            <polygon id="Shape" fill="#25448F" points="5 16 5 16 0 21"></polygon>
            <path d="M58.3400834,38 C56.2597048,38 54.4937814,37.5353984 53.0423134,36.6061951 C51.615908,35.709048 50.5430363,34.3626014 50,32.7881131 L53.057898,31.0316263 C53.9226776,33.4156777 55.7142437,34.607595 58.4325963,34.6073781 C59.7711036,34.6073781 60.7750394,34.350519 61.4444036,33.8368009 C62.0918172,33.366578 62.466195,32.6172785 62.4484499,31.8272498 C62.4825442,31.0230875 62.0676723,30.264482 61.3658174,29.847624 C60.6436203,29.3937565 59.3652408,28.8950009 57.5306789,28.3513574 L55.0494112,27.447092 C54.3287103,27.17341 53.6444234,26.8151711 53.0114757,26.3801888 C52.3298502,25.9385681 51.7804704,25.3267793 51.4198568,24.6077635 C51.0539558,23.8296168 50.8742984,22.9796937 50.8946225,22.1229851 C50.8946225,20.2446284 51.5742659,18.7547589 52.9335527,17.6533766 C54.3165315,16.5443965 56.0590056,15.9585864 57.844692,16.0022789 C59.4500648,15.9678215 61.0299487,16.4000345 62.3854483,17.2445055 C63.6938115,18.0853522 64.7327335,19.2724194 65.3820027,20.6683538 L62.3854483,22.3656405 C61.4791098,20.3860148 59.9655243,19.3962019 57.844692,19.3962019 C56.9625834,19.3520764 56.0913477,19.6031273 55.3737036,20.1082296 C54.7647457,20.5639889 54.4191943,21.2813517 54.4469171,22.0322333 C54.4237904,22.7594884 54.7811196,23.4479056 55.394262,23.8573532 C56.0256042,24.3023299 57.1700224,24.7722444 58.8275168,25.2670966 C59.6357055,25.5661331 60.2273678,25.7848265 60.6025035,25.923177 L62.2193231,26.5207078 C62.786055,26.7080903 63.317913,26.9847223 63.7940311,27.3397511 C64.1903831,27.672833 64.5636915,28.0314287 64.9114803,28.4131597 C65.3045477,28.8337209 65.5930424,29.337827 65.7543752,29.8860065 C65.9253206,30.4955976 66.0078132,31.1257842 65.9994182,31.7579661 C65.9994182,33.6773075 65.294132,35.1974276 63.8835597,36.3183265 C62.4729874,37.4392253 60.625162,37.9997831 58.3400834,38 Z" id="Shape" fill="#283858"></path>
            <path d="M76.0001277,37.9986217 C73.8762173,38.0387002 71.8287251,37.20325 70.3348654,35.6869915 C68.8016588,34.2003643 67.9559954,32.1387969 68.001766,29.9993364 C67.9559954,27.8598758 68.8016588,25.7983084 70.3348654,24.3116813 C73.493738,21.2294396 78.5218026,21.2294396 81.6806751,24.3116813 C83.205343,25.8029074 84.0446837,27.862844 83.9981642,29.9993364 C84.019658,32.1327048 83.182926,34.1845517 81.6774251,35.6902876 C80.1719242,37.1960236 78.1250002,38.028283 76.0001277,37.9986217 Z M72.6370693,33.4360905 C74.5103694,35.2614563 77.4895608,35.2614563 79.3628609,33.4360905 C81.1805209,31.5081529 81.1805209,28.4901933 79.3628609,26.5622557 C77.4892151,24.7377461 74.5107151,24.7377461 72.6370693,26.5622557 C70.8197361,28.490324 70.8197361,31.5080222 72.6370693,33.4360905 Z" id="Shape" fill="#283858"></path>
            <path d="M95.099898,37.9983768 C92.9443559,38.0417564 90.8637319,37.2140539 89.3363033,35.705535 C87.8088747,34.1970161 86.9660385,32.1374512 87.0015392,30.0002767 C86.9590042,27.8610429 87.7995856,25.7973886 89.3285756,24.2873277 C90.8575656,22.7772667 92.9423058,21.9518153 95.099898,22.0021765 C96.5312604,21.9860857 97.9404521,22.3534311 99.1787128,23.0654341 C100.361679,23.7294502 101.321783,24.723422 101.939741,25.9238572 L99.0868431,27.5659161 C98.7489255,26.8468938 98.1974492,26.2474177 97.5062901,25.8477936 C96.7659905,25.4233394 95.9226456,25.207823 95.0676284,25.2245947 C93.7950165,25.1933722 92.5668331,25.6892737 91.6783299,26.593086 C89.8578841,28.5051587 89.8578841,31.4931095 91.6783299,33.4051822 C92.5669927,34.3087594 93.795068,34.8046173 95.0676284,34.7736734 C95.9240044,34.7849958 96.7672346,34.5642034 97.5062901,34.1351312 C98.2070468,33.7354256 98.7768149,33.1440313 99.147431,32.4316991 L102,34.0437244 C101.353725,35.2518559 100.375255,36.2536146 99.1780542,36.932834 C97.940221,37.6455369 96.5312538,38.0136726 95.099898,37.9983768 Z" id="Shape" fill="#283858"></path>
            <path d="M107.405985,19.2263952 C106.834388,19.7617296 105.980207,19.9208592 105.237319,19.6304066 C104.494432,19.339954 104.007125,18.6563323 104.000104,17.8947714 C103.994649,17.3947682 104.203825,16.9141289 104.579632,16.5631476 C104.954413,16.2028495 105.465979,16 105.999834,16 C106.533689,16 107.045255,16.2028495 107.420036,16.5631476 C107.795802,16.9141809 108.005074,17.3947567 107.999907,17.8947714 C108.004086,18.3972558 107.789184,18.8790841 107.405985,19.2263952 Z M104.275988,37 L104.275988,21.8721043 L107.724023,21.8721043 L107.724023,37 L104.275988,37 Z" id="Shape" fill="#283858"></path>
            <path d="M121.676214,22.0003348 L125,22.0003348 L125,37.5945595 L121.677205,37.5945595 L121.677205,35.5984934 C120.671778,37.199721 119.081945,38.0002232 116.907705,38 C115.143255,38 113.71769,37.4281648 112.63101,36.2844946 C111.544331,35.1408244 111.000661,33.5710678 111,31.5752249 L111,22 L114.323456,22 L114.323456,31.2320569 C114.323456,32.396931 114.631073,33.2909534 115.246308,33.9141243 C115.925161,34.5637454 116.837227,34.9026089 117.769452,34.8515589 C118.823768,34.8970835 119.849248,34.4959787 120.600104,33.7443816 C121.317951,33.0064867 121.676985,31.878552 121.677205,30.3605775 L121.676214,22.0003348 Z" id="Shape" fill="#283858"></path>
            <path d="M146.085906,22 C147.858858,22 149.287834,22.5717355 150.372835,23.7152064 C151.457835,24.8586774 152.000224,26.3974415 152,28.3314989 L152,38 L148.62071,38 L148.62071,28.5497918 C148.62071,27.469041 148.349404,26.6320283 147.806791,26.0387537 C147.232448,25.4325863 146.420511,25.1076107 145.585059,25.1495114 C144.643484,25.1070402 143.731769,25.4843387 143.097283,26.179037 C142.481666,26.864941 142.173969,27.8941318 142.174193,29.2666095 L142.174193,37.9996652 L138.794231,37.9996652 L138.794231,28.5497918 C138.794231,27.469041 138.538713,26.6320283 138.027676,26.0387537 C137.475842,25.4284061 136.675538,25.1012101 135.852636,25.1495114 C134.905344,25.1181032 133.991357,25.4997523 133.349408,26.1947729 C132.702887,26.8913906 132.379514,27.9153362 132.37929,29.2666095 L132.37929,37.9996652 L129,37.9996652 L129,22.405449 L132.380634,22.405449 L132.380634,24.2766745 C133.38188,22.7588915 134.87356,22 136.855674,22 C138.858391,22 140.339545,22.8212769 141.299138,24.4638306 C142.34047,22.8217233 143.93606,22.0004464 146.085906,22 Z" id="Shape" fill="#283858"></path>
            <polygon id="Shape" fill="#2161AC" points="169 17 169 20.2999586 162.820248 20.2999586 162.820248 38 159.211745 38 159.211745 20.2999586 153 20.2999586 153 17"></polygon>
            <path d="M172.297472,24.923171 C173.131482,22.9743903 174.698991,22 177,22 L177,25.6780058 C175.828171,25.5684826 174.657282,25.8977085 173.7022,26.6052682 C172.765278,27.307576 172.297035,28.4654168 172.297472,30.0787903 L172.297472,38 L169,38 L169,22.2827678 L172.297472,22.2827678 L172.297472,24.923171 Z" id="Shape" fill="#2161AC"></path>
            <path d="M190.752318,22.3959255 L194,22.3959255 L194,37.6041212 L190.752318,37.6041212 L190.752318,35.4138902 C189.529218,37.1378645 187.775168,37.9997428 185.490168,37.9995251 C183.478622,38.0229833 181.552934,37.1764031 180.197673,35.6728129 C178.746433,34.154147 177.955987,32.111543 178.00242,30.0000233 C177.950315,27.8830417 178.741297,25.8336405 180.197673,24.3122143 C181.557228,22.8164971 183.481477,21.9760107 185.490168,22.0005215 C187.776244,22.0005215 189.530294,22.8521691 190.752318,24.5554644 L190.752318,22.3959255 Z M182.602443,33.4825819 C184.500544,35.3280972 187.500908,35.3280972 189.399009,33.4825819 C191.203483,31.5194054 191.203483,28.4803147 189.399009,26.5171382 C187.500707,24.6721284 184.500745,24.6721284 182.602443,26.5171382 C180.797654,28.4801896 180.797654,31.5195305 182.602443,33.4825819 Z" id="Shape" fill="#2161AC"></path>
            <path d="M210.752577,16 L214,16 L214,37.5984079 L210.752577,37.5984079 L210.752577,35.3765962 C209.529453,37.1254283 207.775369,37.999734 205.490325,37.9995132 C203.478714,38.0234371 201.55294,37.1646284 200.197726,35.6392522 C198.746334,34.0987702 197.955851,32.026659 198.00243,29.8846672 C197.950214,27.7371413 198.741227,25.6581479 200.197726,24.114846 C201.557235,22.5974573 203.481569,21.7448306 205.490325,21.7698211 C207.77623,21.7698211 209.530314,22.6337486 210.752577,24.3616036 L210.752577,16 Z M202.60222,33.4174405 C204.500534,35.2894365 207.500928,35.2894365 209.399242,33.4174405 C211.203751,31.4259571 211.203751,28.343046 209.399242,26.3515626 C207.500794,24.4799084 204.500668,24.4799084 202.60222,26.3515626 C200.797711,28.343046 200.797711,31.4259571 202.60222,33.4174405 Z" id="Shape" fill="#2161AC"></path>
            <path d="M220.511822,31.4004931 C220.705624,32.4715887 221.318666,33.4263311 222.220472,34.0615162 C223.179811,34.7006117 224.321361,35.0254439 225.481075,34.9893321 C227.261405,34.9893321 228.596985,34.3607765 229.487817,33.1036654 L232.251995,34.6850659 C230.718378,36.8952396 228.451292,38.0002176 225.450736,38 C222.924269,38 220.88478,37.2447757 219.33227,35.7343271 C217.779761,34.2238785 217.003284,32.3129651 217.002839,30.001587 C216.944937,27.8738406 217.774736,25.814815 219.300931,24.2992083 C220.833215,22.7687364 222.800246,22.0033917 225.202024,22.003174 C227.330919,21.9409232 229.380412,22.7969124 230.808061,24.344587 C232.262282,25.8914722 233.047225,27.9303049 232.9978,30.0322748 C232.987726,30.4905755 232.946068,30.9476875 232.87311,31.4004931 L220.511822,31.4004931 Z M220.481483,28.7234733 L229.612173,28.7234733 C229.353741,26.5336346 227.420844,24.9054744 225.171018,24.9825013 C224.046533,24.9436873 222.944891,25.2996025 222.064776,25.9860572 C221.219218,26.6837945 220.65741,27.6554725 220.481483,28.7244527 L220.481483,28.7234733 Z" id="Shape" fill="#2161AC"></path>
        </g>
    </g>
</svg>