<?xml version="1.0" encoding="UTF-8"?>
<svg width="33px" height="34px" viewBox="0 0 33 34" version="1.1" xmlns="http://www.w3.org/2000/svg" xmlns:xlink="http://www.w3.org/1999/xlink">
    <!-- Generator: sketchtool 49.2 (51160) - http://www.bohemiancoding.com/sketch -->
    <title>240B4584-2047-4E82-B013-FC8066ECB566</title>
    <desc>Created with sketchtool.</desc>
    <defs></defs>
    <g id="Symbols" stroke="none" stroke-width="1" fill="none" fill-rule="evenodd">
        <g id="icon/trade/analitics">
            <rect id="Rectangle" stroke="#B4C9EB" stroke-width="2" x="6" y="20" width="4" height="9"></rect>
            <rect id="Rectangle-Copy" stroke="#B4C9EB" stroke-width="2" x="15" y="20" width="4" height="9"></rect>
            <rect id="Rectangle-Copy-2" stroke="#B4C9EB" stroke-width="2" x="24" y="20" width="4" height="9"></rect>
            <path d="" id="Path-17" stroke="#979797"></path>
            <polyline id="Path-18" stroke="#FFFFFF" stroke-width="2" points="4 9 12 14 21.5 5 30 9"></polyline>
            <path d="M12.5,16 C13.8807119,16 15,14.8807119 15,13.5 C15,12.1192881 13.8807119,11 12.5,11 C11.1192881,11 10,12.1192881 10,13.5 C10,14.8807119 11.1192881,16 12.5,16 Z" id="Oval" fill="#FFFFFF"></path>
            <path d="M21.5,8 C22.8807119,8 24,6.88071187 24,5.5 C24,4.11928813 22.8807119,3 21.5,3 C20.1192881,3 19,4.11928813 19,5.5 C19,6.88071187 20.1192881,8 21.5,8 Z" id="Oval-Copy" fill="#FFFFFF"></path>
        </g>
    </g>
</svg>