<?xml version="1.0" encoding="UTF-8"?>
<svg width="34px" height="34px" viewBox="0 0 34 34" version="1.1" xmlns="http://www.w3.org/2000/svg" xmlns:xlink="http://www.w3.org/1999/xlink">
    <!-- Generator: sketchtool 49.2 (51160) - http://www.bohemiancoding.com/sketch -->
    <title>F836B456-9530-4ADA-8BBA-1963150033E7</title>
    <desc>Created with sketchtool.</desc>
    <defs></defs>
    <g id="Symbols" stroke="none" stroke-width="1" fill="none" fill-rule="evenodd">
        <g id="icon/trade/frendly" stroke-width="2">
            <path d="M16.4469184,13.1950006 C17.0939595,12.4876128 17.4887033,11.545581 17.4887033,10.5113519 C17.4887033,8.31472141 15.7079824,6.53400054 13.5113519,6.53400054 C11.3147214,6.53400054 9.53400054,8.31472141 9.53400054,10.5113519 C9.53400054,12.4749765 10.9569803,14.1062463 12.8280021,14.4302236" id="Oval" stroke="#B4C9EB" transform="translate(13.511352, 10.482112) rotate(-15.000000) translate(-13.511352, -10.482112) "></path>
            <path d="M20.8128182,14.5676367 C21.4114166,13.4248652 21.75,12.124445 21.75,10.7449444 C21.75,6.18859521 18.0563492,2.4949444 13.5,2.4949444 C8.94365081,2.4949444 5.25,6.18859521 5.25,10.7449444 C5.25,15.3012936 8.94365081,18.9949444 13.5,18.9949444" id="Path" stroke="#B4C9EB"></path>
            <path d="M22.2026903,22.5500234 L22.2026903,32.5817643 L18.2026903,32.5817643 L18.2026903,22.5500234 L11.6453869,22.5500234 L19.8903313,9.58176434 L28.1352757,22.5500234 L22.2026903,22.5500234 Z" id="Combined-Shape" stroke="#FFFFFF" transform="translate(19.890331, 21.081764) rotate(-30.000000) translate(-19.890331, -21.081764) "></path>
        </g>
    </g>
</svg>