<?xml version="1.0" encoding="UTF-8"?>
<svg width="34px" height="34px" viewBox="0 0 34 34" version="1.1" xmlns="http://www.w3.org/2000/svg" xmlns:xlink="http://www.w3.org/1999/xlink">
    <!-- Generator: sketchtool 49.2 (51160) - http://www.bohemiancoding.com/sketch -->
    <title>7BA1D6C2-FF17-42BC-8472-2A7A4F831E69</title>
    <desc>Created with sketchtool.</desc>
    <defs>
        <path d="M10,25.4903337 C10.044629,24.6075258 10.1961541,23.9130652 10.5596512,23.3437291 C10.5737115,23.3247028 10.5867675,23.3048176 10.5987564,23.2842718 C11.1788704,22.4250486 12.2658466,21.8543913 14.2392509,21.345173 C14.7164232,21.2220965 16.2647538,20.6374337 16.1569161,18.2827287 C16.1449899,18.0213151 15.9875017,17.7920083 15.7554436,17.6979337 C14.4915835,17.1859408 13.7666608,15.6382688 13.7666608,13.451894 C13.7666608,10.9971687 15.3264153,9 17.2436411,9 C19.160867,9 20.7206215,10.9971027 20.7206215,13.451894 C20.7206215,15.638401 19.9957615,17.1860069 18.7318387,17.6979337 C18.4997806,17.7919422 18.3422924,18.021249 18.3303034,18.2827287 C18.2224658,20.6374337 19.7707963,21.2220965 20.2479686,21.345173 C23.554342,22.1983184 24.37254,23.2236254 24.4872195,25.4903337 L10,25.4903337 Z" id="path-1"></path>
    </defs>
    <g id="Symbols" stroke="none" stroke-width="1" fill="none" fill-rule="evenodd">
        <g id="icon/trade/INVESTORS">
            <path d="M24.998179,17.7594798 C23.9094599,17.1249541 23.3500721,15.7734437 23.3500721,14.0729803 C23.3500721,11.8728487 24.8127719,10 26.7501051,10 C28.6874477,10 30.150138,11.8728173 30.150138,14.0729803 C30.150138,15.7735883 29.5907513,17.125095 28.5019795,17.7595363 C28.5408188,18.2763656 28.7630092,18.4729941 29.0737301,18.553138 C31.6639484,19.2214935 32.642018,20.22142 32.748806,22.3321484 L32.8019554,23.3826767 L23.2855308,23.3826767 L21.0869563,20.4650698 L21.7086264,19.8503782 C22.2946132,19.2709694 23.1376819,18.885689 24.4265291,18.5531142 C24.7371615,18.4729932 24.9593356,18.2763778 24.998179,17.7594798 Z" id="Combined-Shape" stroke="#B4C9EB" stroke-width="2"></path>
            <path d="M6.24809559,17.7594798 C5.15937654,17.1249541 4.59998873,15.7734437 4.59998873,14.0729803 C4.59998873,11.8728487 6.06268854,10 8.00002166,10 C9.93736432,10 11.4000546,11.8728173 11.4000546,14.0729803 C11.4000546,15.7735883 10.8406679,17.125095 9.75189605,17.7595363 C9.79073542,18.2763656 10.0129257,18.4729941 10.3236467,18.553138 C12.913865,19.2214935 13.8919346,20.22142 13.9987226,22.3321484 L14.051872,23.3826767 L1.94816955,23.3826767 L2.00127538,22.3321878 C2.04203197,21.5259798 2.19759673,20.904517 2.58207806,20.3066339 C2.56437551,20.3315567 2.56437551,20.3315567 2.58451296,20.3003481 C3.15093468,19.4614049 4.09141171,18.9621171 5.67644566,18.5531142 C5.98707805,18.4729932 6.20925221,18.2763778 6.24809559,17.7594798 Z" id="Path-Copy-2" stroke="#B4C9EB" stroke-width="2"></path>
            <g id="Path">
                <use fill="#064CBE" fill-rule="evenodd" xlink:href="#path-1"></use>
                <path stroke="#FFFFFF" stroke-width="2" d="M15.1624916,18.5279235 C13.5938211,17.7639915 12.7666608,15.8923712 12.7666608,13.451894 C12.7666608,10.4914368 14.7124795,8 17.2436411,8 C19.7748179,8 21.7206215,10.491392 21.7206215,13.451894 C21.7206215,15.8925769 20.8934721,17.7641652 19.3247217,18.5279734 C19.3257784,19.2024873 19.5016852,19.6536764 19.7946333,19.9619321 C20.0043605,20.1826184 20.2627335,20.3162532 20.4978158,20.3768877 C24.0738781,21.2996211 25.3420735,22.5961568 25.4859422,25.4398053 L25.5390915,26.4903337 L8.94816955,26.4903337 L9.00127538,25.4398447 C9.05672965,24.3429013 9.26403683,23.5147337 9.75542241,22.7494092 C9.74409681,22.7653593 9.74409681,22.7653593 9.76996964,22.7247073 C10.5150299,21.6211775 11.7895915,20.9445284 13.9894961,20.3768639 C14.224486,20.3162532 14.482859,20.1826184 14.6925863,19.9619321 C14.9855224,19.653689 15.1614268,19.2025242 15.1624916,18.5279235 Z"></path>
            </g>
        </g>
    </g>
</svg>