<?xml version="1.0" encoding="UTF-8"?>
<svg width="34px" height="34px" viewBox="0 0 34 34" version="1.1" xmlns="http://www.w3.org/2000/svg" xmlns:xlink="http://www.w3.org/1999/xlink">
    <!-- Generator: sketchtool 49.2 (51160) - http://www.bohemiancoding.com/sketch -->
    <title>4855A040-51F2-4A53-A86E-9E7DCD0CEB09</title>
    <desc>Created with sketchtool.</desc>
    <defs></defs>
    <g id="Symbols" stroke="none" stroke-width="1" fill="none" fill-rule="evenodd">
        <g id="icon/trade/reputation">
            <path d="M17,24.5 C23.0751322,24.5 28,19.5751322 28,13.5 C28,7.42486775 23.0751322,2.5 17,2.5 C10.9248678,2.5 6,7.42486775 6,13.5 C6,19.5751322 10.9248678,24.5 17,24.5 Z" id="Oval-3" stroke="#B4C9EB" stroke-width="2"></path>
            <path d="M18.6577594,11.8783525 C18.5004888,11.8792689 18.3603694,11.7731543 18.3100989,11.6150638 L17.5,9 C17.4491376,8.84233306 17.3094249,8.73640229 17.1523395,8.73640229 C16.9952541,8.73640229 16.8555414,8.84233306 16.804679,9 L15.9945801,11.6150638 C15.9443096,11.7731543 15.8041902,11.8792689 15.6469196,11.8783525 L13.0170092,11.8783525 C12.8607507,11.8746328 12.7204153,11.9792809 12.6708065,12.1365159 C12.6211976,12.2937509 12.6738755,12.4669329 12.800761,12.5637502 L14.9349641,14.1904226 C15.0610619,14.2854234 15.1143,14.4563578 15.0663764,14.6123551 L14.2529506,17.2390657 C14.2179922,17.3562371 14.2383024,17.484095 14.3075277,17.5826414 C14.376753,17.6811878 14.4864398,17.7383886 14.6022746,17.7363496 C14.679519,17.7359676 14.7546553,17.7095835 14.8168593,17.6609982 L16.9360913,16.0459726 C17.0654251,15.9478635 17.2392538,15.9478635 17.3685877,16.0459726 L19.4878197,17.6609982 C19.5500236,17.7095835 19.62516,17.7359676 19.7024044,17.7363496 C19.8182392,17.7383886 19.927926,17.6811878 19.9971512,17.5826414 C20.0663765,17.484095 20.0866868,17.3562371 20.0517284,17.2390657 L19.2383026,14.6123551 C19.190379,14.4563578 19.2436171,14.2854234 19.3697149,14.1904226 L21.503918,12.5637502 C21.6308035,12.4669329 21.6834813,12.2937509 21.6338725,12.1365159 C21.5842636,11.9792809 21.4439283,11.8746328 21.2876698,11.8783525 L18.6577594,11.8783525 Z" id="Star" fill="#F3F4F9"></path>
            <polyline id="Rectangle-10" stroke="#B4C9EB" stroke-width="2" transform="translate(9.329170, 25.520901) rotate(-326.000000) translate(-9.329170, -25.520901) " points="12.8817864 21.2577612 12.8817864 29.7840406 9.32916998 27.6524708 5.77655355 29.7840406 5.77655355 21.2577612"></polyline>
            <polyline id="Rectangle-10-Copy" stroke="#B4C9EB" stroke-width="2" transform="translate(24.329170, 25.520901) scale(-1, 1) rotate(-326.000000) translate(-24.329170, -25.520901) " points="27.8817864 21.2577612 27.8817864 29.7840406 24.32917 27.6524708 20.7765535 29.7840406 20.7765535 21.2577612 20.7765535 21.2577612"></polyline>
        </g>
    </g>
</svg>