<?xml version="1.0" encoding="UTF-8"?>
<svg width="179px" height="243px" viewBox="0 0 179 243" version="1.1" xmlns="http://www.w3.org/2000/svg" xmlns:xlink="http://www.w3.org/1999/xlink">
    <!-- Generator: Sketch 49.2 (51160) - http://www.bohemiancoding.com/sketch -->
    <title>icon/smart_contracts</title>
    <desc>Created with Sketch.</desc>
    <defs></defs>
    <g id="Symbols" stroke="none" stroke-width="1" fill="none" fill-rule="evenodd">
        <g id="icon/smart_contracts" transform="translate(1.000000, 0.000000)">
            <path d="M172,155 L174,155 L174,157 L172,157 L172,155 Z M164,155 L166,155 L166,157 L164,157 L164,155 Z M156,155 L158,155 L158,157 L156,157 L156,155 Z M148,155 L150,155 L150,157 L148,157 L148,155 Z M140,155 L142,155 L142,157 L140,157 L140,155 Z M132,155 L134,155 L134,157 L132,157 L132,155 Z M124,155 L126,155 L126,157 L124,157 L124,155 Z M116,155 L118,155 L118,157 L116,157 L116,155 Z M108,155 L110,155 L110,157 L108,157 L108,155 Z M100,155 L102,155 L102,157 L100,157 L100,155 Z M92,155 L94,155 L94,157 L92,157 L92,155 Z M84,155 L86,155 L86,157 L84,157 L84,155 Z M76,155 L78,155 L78,157 L76,157 L76,155 Z M68,155 L70,155 L70,157 L68,157 L68,155 Z M172,147 L174,147 L174,149 L172,149 L172,147 Z M164,147 L166,147 L166,149 L164,149 L164,147 Z M156,147 L158,147 L158,149 L156,149 L156,147 Z M148,147 L150,147 L150,149 L148,149 L148,147 Z M140,147 L142,147 L142,149 L140,149 L140,147 Z M132,147 L134,147 L134,149 L132,149 L132,147 Z M124,147 L126,147 L126,149 L124,149 L124,147 Z M116,147 L118,147 L118,149 L116,149 L116,147 Z M108,147 L110,147 L110,149 L108,149 L108,147 Z M100,147 L102,147 L102,149 L100,149 L100,147 Z M92,147 L94,147 L94,149 L92,149 L92,147 Z M84,147 L86,147 L86,149 L84,149 L84,147 Z M76,147 L78,147 L78,149 L76,149 L76,147 Z M68,147 L70,147 L70,149 L68,149 L68,147 Z M172,139 L174,139 L174,141 L172,141 L172,139 Z M164,139 L166,139 L166,141 L164,141 L164,139 Z M156,139 L158,139 L158,141 L156,141 L156,139 Z M148,139 L150,139 L150,141 L148,141 L148,139 Z M140,139 L142,139 L142,141 L140,141 L140,139 Z M132,139 L134,139 L134,141 L132,141 L132,139 Z M124,139 L126,139 L126,141 L124,141 L124,139 Z M116,139 L118,139 L118,141 L116,141 L116,139 Z M108,139 L110,139 L110,141 L108,141 L108,139 Z M100,139 L102,139 L102,141 L100,141 L100,139 Z M92,139 L94,139 L94,141 L92,141 L92,139 Z M84,139 L86,139 L86,141 L84,141 L84,139 Z M76,139 L78,139 L78,141 L76,141 L76,139 Z M68,139 L70,139 L70,141 L68,141 L68,139 Z M172,131 L174,131 L174,133 L172,133 L172,131 Z M164,131 L166,131 L166,133 L164,133 L164,131 Z M156,131 L158,131 L158,133 L156,133 L156,131 Z M148,131 L150,131 L150,133 L148,133 L148,131 Z M140,131 L142,131 L142,133 L140,133 L140,131 Z M132,131 L134,131 L134,133 L132,133 L132,131 Z M124,131 L126,131 L126,133 L124,133 L124,131 Z M116,131 L118,131 L118,133 L116,133 L116,131 Z M108,131 L110,131 L110,133 L108,133 L108,131 Z M100,131 L102,131 L102,133 L100,133 L100,131 Z M92,131 L94,131 L94,133 L92,133 L92,131 Z M84,131 L86,131 L86,133 L84,133 L84,131 Z M76,131 L78,131 L78,133 L76,133 L76,131 Z M68,131 L70,131 L70,133 L68,133 L68,131 Z M172,123 L174,123 L174,125 L172,125 L172,123 Z M164,123 L166,123 L166,125 L164,125 L164,123 Z M156,123 L158,123 L158,125 L156,125 L156,123 Z M148,123 L150,123 L150,125 L148,125 L148,123 Z M140,123 L142,123 L142,125 L140,125 L140,123 Z M132,123 L134,123 L134,125 L132,125 L132,123 Z M124,123 L126,123 L126,125 L124,125 L124,123 Z M116,123 L118,123 L118,125 L116,125 L116,123 Z M108,123 L110,123 L110,125 L108,125 L108,123 Z M100,123 L102,123 L102,125 L100,125 L100,123 Z M92,123 L94,123 L94,125 L92,125 L92,123 Z M84,123 L86,123 L86,125 L84,125 L84,123 Z M76,123 L78,123 L78,125 L76,125 L76,123 Z M68,123 L70,123 L70,125 L68,125 L68,123 Z M172,115 L174,115 L174,117 L172,117 L172,115 Z M164,115 L166,115 L166,117 L164,117 L164,115 Z M156,115 L158,115 L158,117 L156,117 L156,115 Z M148,115 L150,115 L150,117 L148,117 L148,115 Z M140,115 L142,115 L142,117 L140,117 L140,115 Z M132,115 L134,115 L134,117 L132,117 L132,115 Z M124,115 L126,115 L126,117 L124,117 L124,115 Z M116,115 L118,115 L118,117 L116,117 L116,115 Z M108,115 L110,115 L110,117 L108,117 L108,115 Z M100,115 L102,115 L102,117 L100,117 L100,115 Z M92,115 L94,115 L94,117 L92,117 L92,115 Z M84,115 L86,115 L86,117 L84,117 L84,115 Z M76,115 L78,115 L78,117 L76,117 L76,115 Z M68,115 L70,115 L70,117 L68,117 L68,115 Z M172,107 L174,107 L174,109 L172,109 L172,107 Z M164,107 L166,107 L166,109 L164,109 L164,107 Z M156,107 L158,107 L158,109 L156,109 L156,107 Z M148,107 L150,107 L150,109 L148,109 L148,107 Z M140,107 L142,107 L142,109 L140,109 L140,107 Z M132,107 L134,107 L134,109 L132,109 L132,107 Z M124,107 L126,107 L126,109 L124,109 L124,107 Z M116,107 L118,107 L118,109 L116,109 L116,107 Z M108,107 L110,107 L110,109 L108,109 L108,107 Z M100,107 L102,107 L102,109 L100,109 L100,107 Z M92,107 L94,107 L94,109 L92,109 L92,107 Z M84,107 L86,107 L86,109 L84,109 L84,107 Z M76,107 L78,107 L78,109 L76,109 L76,107 Z M68,107 L70,107 L70,109 L68,109 L68,107 Z M172,99 L174,99 L174,101 L172,101 L172,99 Z M164,99 L166,99 L166,101 L164,101 L164,99 Z M156,99 L158,99 L158,101 L156,101 L156,99 Z M148,99 L150,99 L150,101 L148,101 L148,99 Z M140,99 L142,99 L142,101 L140,101 L140,99 Z M132,99 L134,99 L134,101 L132,101 L132,99 Z M124,99 L126,99 L126,101 L124,101 L124,99 Z M116,99 L118,99 L118,101 L116,101 L116,99 Z M108,99 L110,99 L110,101 L108,101 L108,99 Z M100,99 L102,99 L102,101 L100,101 L100,99 Z M92,99 L94,99 L94,101 L92,101 L92,99 Z M84,99 L86,99 L86,101 L84,101 L84,99 Z M76,99 L78,99 L78,101 L76,101 L76,99 Z M68,99 L70,99 L70,101 L68,101 L68,99 Z M172,91 L174,91 L174,93 L172,93 L172,91 Z M164,91 L166,91 L166,93 L164,93 L164,91 Z M156,91 L158,91 L158,93 L156,93 L156,91 Z M148,91 L150,91 L150,93 L148,93 L148,91 Z M140,91 L142,91 L142,93 L140,93 L140,91 Z M132,91 L134,91 L134,93 L132,93 L132,91 Z M124,91 L126,91 L126,93 L124,93 L124,91 Z M116,91 L118,91 L118,93 L116,93 L116,91 Z M108,91 L110,91 L110,93 L108,93 L108,91 Z M100,91 L102,91 L102,93 L100,93 L100,91 Z M92,91 L94,91 L94,93 L92,93 L92,91 Z M84,91 L86,91 L86,93 L84,93 L84,91 Z M76,91 L78,91 L78,93 L76,93 L76,91 Z M68,91 L70,91 L70,93 L68,93 L68,91 Z M172,83 L174,83 L174,85 L172,85 L172,83 Z M164,83 L166,83 L166,85 L164,85 L164,83 Z M156,83 L158,83 L158,85 L156,85 L156,83 Z M148,83 L150,83 L150,85 L148,85 L148,83 Z M140,83 L142,83 L142,85 L140,85 L140,83 Z M132,83 L134,83 L134,85 L132,85 L132,83 Z M124,83 L126,83 L126,85 L124,85 L124,83 Z M116,83 L118,83 L118,85 L116,85 L116,83 Z M108,83 L110,83 L110,85 L108,85 L108,83 Z M100,83 L102,83 L102,85 L100,85 L100,83 Z M92,83 L94,83 L94,85 L92,85 L92,83 Z M84,83 L86,83 L86,85 L84,85 L84,83 Z M76,83 L78,83 L78,85 L76,85 L76,83 Z M68,83 L70,83 L70,85 L68,85 L68,83 Z M172,75 L174,75 L174,77 L172,77 L172,75 Z M164,75 L166,75 L166,77 L164,77 L164,75 Z M156,75 L158,75 L158,77 L156,77 L156,75 Z M148,75 L150,75 L150,77 L148,77 L148,75 Z M140,75 L142,75 L142,77 L140,77 L140,75 Z M132,75 L134,75 L134,77 L132,77 L132,75 Z M124,75 L126,75 L126,77 L124,77 L124,75 Z M116,75 L118,75 L118,77 L116,77 L116,75 Z M108,75 L110,75 L110,77 L108,77 L108,75 Z M100,75 L102,75 L102,77 L100,77 L100,75 Z M92,75 L94,75 L94,77 L92,77 L92,75 Z M84,75 L86,75 L86,77 L84,77 L84,75 Z M76,75 L78,75 L78,77 L76,77 L76,75 Z M68,75 L70,75 L70,77 L68,77 L68,75 Z M172,67 L174,67 L174,69 L172,69 L172,67 Z M164,67 L166,67 L166,69 L164,69 L164,67 Z M156,67 L158,67 L158,69 L156,69 L156,67 Z M148,67 L150,67 L150,69 L148,69 L148,67 Z M140,67 L142,67 L142,69 L140,69 L140,67 Z M132,67 L134,67 L134,69 L132,69 L132,67 Z M124,67 L126,67 L126,69 L124,69 L124,67 Z M116,67 L118,67 L118,69 L116,69 L116,67 Z M108,67 L110,67 L110,69 L108,69 L108,67 Z M100,67 L102,67 L102,69 L100,69 L100,67 Z M92,67 L94,67 L94,69 L92,69 L92,67 Z M84,67 L86,67 L86,69 L84,69 L84,67 Z M76,67 L78,67 L78,69 L76,69 L76,67 Z M68,67 L70,67 L70,69 L68,69 L68,67 Z M172,59 L174,59 L174,61 L172,61 L172,59 Z M164,59 L166,59 L166,61 L164,61 L164,59 Z M156,59 L158,59 L158,61 L156,61 L156,59 Z M148,59 L150,59 L150,61 L148,61 L148,59 Z M140,59 L142,59 L142,61 L140,61 L140,59 Z M132,59 L134,59 L134,61 L132,61 L132,59 Z M124,59 L126,59 L126,61 L124,61 L124,59 Z M116,59 L118,59 L118,61 L116,61 L116,59 Z M108,59 L110,59 L110,61 L108,61 L108,59 Z M100,59 L102,59 L102,61 L100,61 L100,59 Z M92,59 L94,59 L94,61 L92,61 L92,59 Z M84,59 L86,59 L86,61 L84,61 L84,59 Z M76,59 L78,59 L78,61 L76,61 L76,59 Z M68,59 L70,59 L70,61 L68,61 L68,59 Z M172,51 L174,51 L174,53 L172,53 L172,51 Z M164,51 L166,51 L166,53 L164,53 L164,51 Z M156,51 L158,51 L158,53 L156,53 L156,51 Z M148,51 L150,51 L150,53 L148,53 L148,51 Z M140,51 L142,51 L142,53 L140,53 L140,51 Z M132,51 L134,51 L134,53 L132,53 L132,51 Z M124,51 L126,51 L126,53 L124,53 L124,51 Z M116,51 L118,51 L118,53 L116,53 L116,51 Z M108,51 L110,51 L110,53 L108,53 L108,51 Z M100,51 L102,51 L102,53 L100,53 L100,51 Z M92,51 L94,51 L94,53 L92,53 L92,51 Z M84,51 L86,51 L86,53 L84,53 L84,51 Z M76,51 L78,51 L78,53 L76,53 L76,51 Z M68,51 L70,51 L70,53 L68,53 L68,51 Z M172,43 L174,43 L174,45 L172,45 L172,43 Z M164,43 L166,43 L166,45 L164,45 L164,43 Z M156,43 L158,43 L158,45 L156,45 L156,43 Z M148,43 L150,43 L150,45 L148,45 L148,43 Z M140,43 L142,43 L142,45 L140,45 L140,43 Z M132,43 L134,43 L134,45 L132,45 L132,43 Z M124,43 L126,43 L126,45 L124,45 L124,43 Z M116,43 L118,43 L118,45 L116,45 L116,43 Z M108,43 L110,43 L110,45 L108,45 L108,43 Z M100,43 L102,43 L102,45 L100,45 L100,43 Z M92,43 L94,43 L94,45 L92,45 L92,43 Z M84,43 L86,43 L86,45 L84,45 L84,43 Z M76,43 L78,43 L78,45 L76,45 L76,43 Z M68,43 L70,43 L70,45 L68,45 L68,43 Z M172,35 L174,35 L174,37 L172,37 L172,35 Z M164,35 L166,35 L166,37 L164,37 L164,35 Z M156,35 L158,35 L158,37 L156,37 L156,35 Z M148,35 L150,35 L150,37 L148,37 L148,35 Z M140,35 L142,35 L142,37 L140,37 L140,35 Z M132,35 L134,35 L134,37 L132,37 L132,35 Z M124,35 L126,35 L126,37 L124,37 L124,35 Z M116,35 L118,35 L118,37 L116,37 L116,35 Z M108,35 L110,35 L110,37 L108,37 L108,35 Z M100,35 L102,35 L102,37 L100,37 L100,35 Z M92,35 L94,35 L94,37 L92,37 L92,35 Z M84,35 L86,35 L86,37 L84,37 L84,35 Z M76,35 L78,35 L78,37 L76,37 L76,35 Z M68,35 L70,35 L70,37 L68,37 L68,35 Z M172,27 L174,27 L174,29 L172,29 L172,27 Z M164,27 L166,27 L166,29 L164,29 L164,27 Z M156,27 L158,27 L158,29 L156,29 L156,27 Z M148,27 L150,27 L150,29 L148,29 L148,27 Z M140,27 L142,27 L142,29 L140,29 L140,27 Z M132,27 L134,27 L134,29 L132,29 L132,27 Z M124,27 L126,27 L126,29 L124,29 L124,27 Z M116,27 L118,27 L118,29 L116,29 L116,27 Z M108,27 L110,27 L110,29 L108,29 L108,27 Z M100,27 L102,27 L102,29 L100,29 L100,27 Z M92,27 L94,27 L94,29 L92,29 L92,27 Z M84,27 L86,27 L86,29 L84,29 L84,27 Z M76,27 L78,27 L78,29 L76,29 L76,27 Z M68,27 L70,27 L70,29 L68,29 L68,27 Z M172,19 L174,19 L174,21 L172,21 L172,19 Z M164,19 L166,19 L166,21 L164,21 L164,19 Z M156,19 L158,19 L158,21 L156,21 L156,19 Z M148,19 L150,19 L150,21 L148,21 L148,19 Z M140,19 L142,19 L142,21 L140,21 L140,19 Z M132,19 L134,19 L134,21 L132,21 L132,19 Z M124,19 L126,19 L126,21 L124,21 L124,19 Z M116,19 L118,19 L118,21 L116,21 L116,19 Z M108,19 L110,19 L110,21 L108,21 L108,19 Z M100,19 L102,19 L102,21 L100,21 L100,19 Z M92,19 L94,19 L94,21 L92,21 L92,19 Z M84,19 L86,19 L86,21 L84,21 L84,19 Z M76,19 L78,19 L78,21 L76,21 L76,19 Z M68,19 L70,19 L70,21 L68,21 L68,19 Z M172,11 L174,11 L174,13 L172,13 L172,11 Z M164,11 L166,11 L166,13 L164,13 L164,11 Z M156,11 L158,11 L158,13 L156,13 L156,11 Z M148,11 L150,11 L150,13 L148,13 L148,11 Z M140,11 L142,11 L142,13 L140,13 L140,11 Z M132,11 L134,11 L134,13 L132,13 L132,11 Z M124,11 L126,11 L126,13 L124,13 L124,11 Z M116,11 L118,11 L118,13 L116,13 L116,11 Z M108,11 L110,11 L110,13 L108,13 L108,11 Z M100,11 L102,11 L102,13 L100,13 L100,11 Z M92,11 L94,11 L94,13 L92,13 L92,11 Z M84,11 L86,11 L86,13 L84,13 L84,11 Z M76,11 L78,11 L78,13 L76,13 L76,11 Z M68,11 L70,11 L70,13 L68,13 L68,11 Z M172,3 L174,3 L174,5 L172,5 L172,3 Z M164,3 L166,3 L166,5 L164,5 L164,3 Z M156,3 L158,3 L158,5 L156,5 L156,3 Z M148,3 L150,3 L150,5 L148,5 L148,3 Z M140,3 L142,3 L142,5 L140,5 L140,3 Z M132,3 L134,3 L134,5 L132,5 L132,3 Z M124,3 L126,3 L126,5 L124,5 L124,3 Z M116,3 L118,3 L118,5 L116,5 L116,3 Z M108,3 L110,3 L110,5 L108,5 L108,3 Z M100,3 L102,3 L102,5 L100,5 L100,3 Z M92,3 L94,3 L94,5 L92,5 L92,3 Z M84,3 L86,3 L86,5 L84,5 L84,3 Z M76,3 L78,3 L78,5 L76,5 L76,3 Z M68,3 L70,3 L70,5 L68,5 L68,3 Z" id="Combined-Shape" fill="#073E9B" opacity="0.5"></path>
            <polygon id="Combined-Shape" fill="#FFFFFF" points="38 225 19 225 19 207 0 207 0 187 4 187 4 203 19 203 19 187 23 187 23 221 38 221 38 187 42 187 42 239 96 239 96 243 38 243"></polygon>
            <path d="M95,70 L4,70 L4,187 L0,187 L0,66 L4,66 L99,66 L99,70 L99,84 L118,84 L118,88 L118,102 L137,102 L137,106 L137,217 L136.833239,217 L136.906004,217.070268 L112,242.965299 L112,243 L96,243 L96,239 L110,239 L110,213 L114,213 L133,213 L133,106 L42,106 L42,187 L38,187 L38,102 L40,102 L114,102 L114,88 L23,88 L23,187 L19,187 L19,84 L23,84 L95,84 L95,70 Z M131.423722,217 L114,217 L114,235.115625 L131.423722,217 Z" id="Combined-Shape" fill="#064CBE"></path>
        </g>
    </g>
</svg>