<svg xmlns="http://www.w3.org/2000/svg" width="222.188" height="191.188" viewBox="0 0 222.188 191.188">
  <metadata><?xpacket begin="﻿" id="W5M0MpCehiHzreSzNTczkc9d"?>
<x:xmpmeta xmlns:x="adobe:ns:meta/" x:xmptk="Adobe XMP Core 5.6-c138 79.159824, 2016/09/14-01:09:01        ">
   <rdf:RDF xmlns:rdf="http://www.w3.org/1999/02/22-rdf-syntax-ns#">
      <rdf:Description rdf:about=""/>
   </rdf:RDF>
</x:xmpmeta>
                                                                                                    
                                                                                                    
                                                                                                    
                                                                                                    
                                                                                                    
                                                                                                    
                                                                                                    
                                                                                                    
                                                                                                    
                                                                                                    
                                                                                                    
                                                                                                    
                                                                                                    
                                                                                                    
                                                                                                    
                                                                                                    
                                                                                                    
                                                                                                    
                                                                                                    
                                                                                                    
                           
<?xpacket end="w"?></metadata>
<defs>
    <style>
      .cls-1 {
        fill: #fff;
        fill-rule: evenodd;
      }
    </style>
  </defs>
  <path id="Многоугольник_1_копия_6" data-name="Многоугольник 1 копия 6" class="cls-1" d="M194.615,16.57L193.4,14.406a4.893,4.893,0,0,1,.338.527C194.02,15.461,194.315,16.012,194.615,16.57ZM233.157,117.5h0c6.8-12.048,5.71-24.879-.964-36.954h0l10.9,19.412Zm0,0-0.964-36.954h0ZM194.615,16.57m-23-12.674,15.9,0.026L193.4,14.406C191.342,11.544,182.806,3.9,171.617,3.9Zm0,0,0,0h0Zm23.44,178.557-1.22,2.16a4.8,4.8,0,0,0,.339-0.525C194.459,183.56,194.756,183.01,195.057,182.453Zm0,0M171.965,195.1l15.963-.026,5.909-10.465C191.77,187.47,183.2,195.1,171.965,195.1Zm0,0,0,0h0ZM68.785,16.57L70,14.406a4.849,4.849,0,0,0-.338.527C69.38,15.461,69.085,16.012,68.785,16.57ZM30.843,117.5h0c-6.8-12.048-5.709-24.879.964-36.954h0L20.911,99.96Zm0,0,0.964-36.954h0ZM68.785,16.57m23-12.674-15.9.026L70,14.406C72.058,11.544,80.594,3.9,91.783,3.9Zm0,0,0,0h0ZM68.343,182.453l1.22,2.16a4.869,4.869,0,0,1-.34-0.525C68.941,183.56,68.644,183.01,68.343,182.453Zm0,0M91.435,195.1l-15.963-.026-5.908-10.465C71.63,187.47,80.2,195.1,91.435,195.1Zm0,0,0,0h0Z" transform="translate(-20.906 -3.906)"/>
</svg>
